<svg width="36" height="33" viewBox="0 0 36 33" fill="none" xmlns="http://www.w3.org/2000/svg">
<path d="M5.70711 20.1953C5.46134 20.1953 5.26819 20.3885 5.26819 20.6342V28.5367C5.26819 28.7824 5.46134 28.9756 5.70711 28.9756H9.2194C9.46518 28.9756 9.65833 28.7824 9.65833 28.5367V20.6342C9.65833 20.3885 9.46518 20.1953 9.2194 20.1953H5.70711ZM8.78018 28.0977H6.14604V21.0735H8.78018V28.0977Z" fill="#CFE7FE"/>
<path d="M12.7313 17.5612C12.4855 17.5612 12.2924 17.7543 12.2924 18.0001V28.5367C12.2924 28.7824 12.4855 28.9756 12.7313 28.9756H16.2436C16.4893 28.9756 16.6825 28.7824 16.6825 28.5367V18.0001C16.6825 17.7543 16.4893 17.5612 16.2436 17.5612H12.7313ZM15.8043 28.0977H13.1702V18.4395H15.8043V28.0977Z" fill="#CFE7FE"/>
<path d="M19.7555 8.78047C19.5097 8.78047 19.3166 8.97362 19.3166 9.2194V28.5367C19.3166 28.7825 19.5097 28.9756 19.7555 28.9756H23.2678C23.5136 28.9756 23.7067 28.7825 23.7067 28.5367V9.22015C23.7067 8.97437 23.5136 8.78122 23.2678 8.78122L19.7555 8.78047ZM22.8289 28.0978H20.1947V9.65877H22.8289V28.0978Z" fill="#CFE7FE"/>
<path d="M26.7804 10.5371C26.5346 10.5371 26.3415 10.7302 26.3415 10.976V28.5367C26.3415 28.7825 26.5346 28.9756 26.7804 28.9756H30.2927C30.5385 28.9756 30.7316 28.7825 30.7316 28.5367V10.976C30.7316 10.7302 30.5385 10.5371 30.2927 10.5371H26.7804ZM29.8535 28.0978H27.2193V11.4146H29.8535V28.0978Z" fill="#CFE7FE"/>
<path d="M35.5603 29.8536H0.438923C0.19315 29.8536 0 30.0467 0 30.2925V32.0485C0 32.2943 0.19315 32.4874 0.438923 32.4874H35.5611C35.8069 32.4874 36 32.2943 36 32.0485V30.2925C36 30.0467 35.8069 29.8536 35.5608 29.8536H35.5603ZM35.1214 31.6099H0.877546V30.7317H35.1214V31.6099Z" fill="#CFE7FE"/>
<path d="M28.5362 1.75633C27.6669 1.75633 26.9207 2.26551 26.5694 3.0031L23.698 2.28312C23.698 2.25667 23.7069 2.22168 23.7069 2.19522C23.7069 0.983363 22.7235 0 21.5116 0C20.3001 0.000294046 19.3167 0.983664 19.3167 2.19522C19.3167 2.74851 19.5275 3.24888 19.8612 3.63519L16.0682 8.58745C15.6642 8.16587 15.1112 7.91128 14.4877 7.91128C13.2758 7.91128 12.2925 8.89464 12.2925 10.1065C12.2925 10.4402 12.3716 10.7562 12.5121 11.0373L8.91219 13.7328C8.52589 13.3903 8.01673 13.171 7.46341 13.171C6.25155 13.171 5.26819 14.1544 5.26819 15.3662C5.26819 16.5781 6.25155 17.5614 7.46341 17.5614C8.67526 17.5614 9.65863 16.5781 9.65863 15.3662C9.65863 15.0325 9.57954 14.7165 9.43901 14.4355L13.0389 11.7399C13.4252 12.0824 13.9344 12.3017 14.4877 12.3017C15.6995 12.3017 16.6829 11.3184 16.6829 10.1065C16.6829 9.86073 16.6303 9.62347 16.56 9.39534L20.5638 4.17086C20.8537 4.31138 21.1698 4.39929 21.5123 4.39929C22.3816 4.39929 23.1366 3.88128 23.4879 3.14363L26.3505 3.86361C26.3505 3.89859 26.3416 3.92505 26.3416 3.96034C26.3416 5.17219 27.325 6.15555 28.5368 6.15555C29.7487 6.15555 30.7321 5.17219 30.7321 3.96034C30.7315 2.74848 29.7481 1.75631 28.5362 1.75631L28.5362 1.75633ZM7.46306 16.6829C6.73426 16.6829 6.14599 16.0946 6.14599 15.3658C6.14599 14.637 6.73426 14.0487 7.46306 14.0487C8.19186 14.0487 8.78013 14.637 8.78013 15.3658C8.78013 16.0946 8.19186 16.6829 7.46306 16.6829ZM14.4873 11.4146C13.7585 11.4146 13.1703 10.8263 13.1703 10.0975C13.1703 9.36873 13.7585 8.78046 14.4873 8.78046C15.2161 8.78046 15.8044 9.36873 15.8044 10.0975C15.8044 10.8263 15.2161 11.4146 14.4873 11.4146ZM21.5119 3.51217C20.7831 3.51217 20.1949 2.9239 20.1949 2.1951C20.1949 1.4663 20.7831 0.878028 21.5119 0.878028C22.2407 0.878028 22.829 1.4663 22.829 2.1951C22.829 2.9239 22.2407 3.51217 21.5119 3.51217ZM28.5362 5.26847C27.8074 5.26847 27.2191 4.68019 27.2191 3.95139C27.2191 3.22259 27.8074 2.63432 28.5362 2.63432C29.265 2.63432 29.8533 3.22259 29.8533 3.95139C29.8533 4.68019 29.265 5.26847 28.5362 5.26847Z" fill="#CFE7FE"/>
</svg>
