<svg width="36" height="37" viewBox="0 0 36 37" fill="none" xmlns="http://www.w3.org/2000/svg">
<path d="M35.2518 27.2913L30.7114 20.9536C30.853 20.7653 30.9369 20.5317 30.9369 20.2786V19.1536C30.9369 18.8093 30.7812 18.5004 30.5368 18.294L31.4595 15.9878C31.5089 15.864 31.513 15.7273 31.4708 15.6008L30.9083 13.9133C30.8312 13.6833 30.6167 13.5286 30.3744 13.5286H23.6244C23.382 13.5286 23.1676 13.6832 23.091 13.9133L22.5285 15.6008C22.4863 15.7274 22.4903 15.864 22.5398 15.9878L23.4624 18.294C23.2176 18.5004 23.0619 18.8093 23.0619 19.1536V20.2786C23.0619 20.5121 23.1332 20.7291 23.256 20.9091L18.7065 27.3673C18.2439 28.1493 17.9993 29.043 17.9993 29.9521V32.0913C17.9993 34.2624 19.7662 36.0288 21.9368 36.0288H32.0355C34.1798 36.0288 35.9459 34.2846 35.9731 32.1398L35.9994 30.0038C36.0112 29.0616 35.7614 28.1375 35.2518 27.2915L35.2518 27.2913ZM24.0301 14.6533H29.9695L30.3384 15.761L29.4314 18.0283H24.568L23.6613 15.761L24.0301 14.6533ZM34.8745 29.9894L34.8481 32.1252C34.829 33.657 33.5674 34.9028 32.0356 34.9028L21.9369 34.903C20.386 34.903 19.1244 33.6414 19.1244 32.0905V29.9513C19.1244 29.2436 19.3145 28.5478 19.6502 27.9775L24.2836 21.4036H26.9994V20.2786H24.1869V19.1536H29.8119V20.2786H28.1244V21.4036H29.6504L34.3125 27.908C34.6894 28.5363 34.884 29.2558 34.8745 29.9893L34.8745 29.9894Z" fill="#CFE7FE"/>
<path d="M28.1248 27.5909H25.8748C25.5644 27.5909 25.3123 27.3382 25.3123 27.0284V25.9034C25.3123 25.5935 25.5644 25.3409 25.8748 25.3409H29.2498V24.2159H27.5623V23.6534H26.4373V24.2159H25.8748C24.9444 24.2159 24.1873 24.973 24.1873 25.9034V27.0284C24.1873 27.9588 24.9444 28.7159 25.8748 28.7159H28.1248C28.4352 28.7159 28.6873 28.9685 28.6873 29.2784V30.4034C28.6873 30.7133 28.4352 30.9659 28.1248 30.9659H24.7498V32.0909H26.4373V32.6534H27.5623V32.0909H28.1248C29.0552 32.0909 29.8123 31.3338 29.8123 30.4034V29.2784C29.8123 28.348 29.0552 27.5909 28.1248 27.5909Z" fill="#CFE7FE"/>
<path d="M1.56368 33.7784H16.8747V32.6534H2.96447L3.23568 31.5284H16.8746V30.4034H15.345L15.6263 29.2784H16.8746V28.1534H16.3121V14.6533H17.4371V25.9034H18.5621V14.6533H19.6871V23.0908H20.8121V14.6533C21.0703 14.6533 21.2948 14.4778 21.3578 14.2274L21.8133 12.4033H33.75C34.0081 12.4033 34.2326 12.2278 34.2956 11.9774L34.8581 9.72738C34.9003 9.55913 34.8627 9.38134 34.7557 9.24474C34.649 9.10813 34.4857 9.02827 34.3125 9.02827H33.75V7.56679C33.75 7.34731 33.6224 7.14768 33.4233 7.05602L18.2363 0.051416C18.0867 -0.0171387 17.9146 -0.0171387 17.765 0.051416L2.57677 7.05602C2.37763 7.14768 2.25006 7.34731 2.25006 7.56654V9.02802H1.68756C1.51429 9.02802 1.35056 9.10788 1.24434 9.24448C1.13812 9.38109 1.0997 9.55888 1.14188 9.72713L1.70438 11.9771C1.76742 12.2275 1.99192 12.403 2.25006 12.403H2.93638L3.39266 14.2272C3.45494 14.4775 3.67944 14.653 3.93759 14.653V28.1531C3.67944 28.1531 3.45495 28.3286 3.39191 28.579L2.93639 30.4031H2.7935C2.53359 30.4031 2.30809 30.5809 2.24682 30.8335L1.80736 32.6532H1.1251C0.86695 32.6532 0.642451 32.8287 0.579418 33.079L0.0169155 35.3291C-0.0252722 35.4973 0.0123951 35.6751 0.119374 35.8117C0.226102 35.9483 0.389324 36.0282 0.562594 36.0282H18.5627V34.9032H1.28324L1.56368 33.7784ZM7.31201 14.6533H8.43701V28.1534H7.31201V14.6533ZM15.187 28.1534C14.9289 28.1534 14.7044 28.3289 14.6414 28.5793L14.1858 30.4034H10.5632L10.1069 28.5793C10.0446 28.3289 9.82014 28.1534 9.56199 28.1534V14.6533C9.82014 14.6533 10.0446 14.4778 10.1077 14.2274L10.5632 12.4033H14.1851L14.6413 14.2274C14.7044 14.4778 14.9289 14.6533 15.187 14.6533L15.187 28.1534ZM20.3729 13.5283H15.6262L15.3445 12.4033H20.6539L20.3729 13.5283ZM3.37436 7.92686L18.0001 1.18133L32.6245 7.92686V9.02827H3.37436V7.92686ZM2.40731 10.1533H33.5912L33.3099 11.2783H2.68856L2.40731 10.1533ZM9.4042 12.4033L9.12295 13.5283H4.37632L4.09507 12.4033H9.4042ZM5.06213 14.6533H6.18713V28.1534H5.06213V14.6533ZM4.37632 29.2784H9.12295L9.4042 30.4034H4.09507L4.37632 29.2784Z" fill="#CFE7FE"/>
<path d="M17.9993 2.84079C16.4484 2.84079 15.1868 4.1024 15.1868 5.6533C15.1868 7.2042 16.4484 8.46582 17.9993 8.46582C19.5502 8.46582 20.8119 7.2042 20.8119 5.6533C20.8119 4.1024 19.5502 2.84079 17.9993 2.84079ZM17.9993 7.34081C17.0689 7.34081 16.3118 6.58372 16.3118 5.6533C16.3118 4.72289 17.0689 3.9658 17.9993 3.9658C18.9298 3.9658 19.6869 4.72289 19.6869 5.6533C19.6869 6.58372 18.9298 7.34081 17.9993 7.34081Z" fill="#CFE7FE"/>
</svg>
