<svg xmlns="http://www.w3.org/2000/svg" width="22" height="22" viewBox="0 0 22 22">
  <g id="Add-New" transform="translate(-2.75 -2.75)">
    <path id="Ellipse_6" data-name="Ellipse 6" d="M10-1A11,11,0,0,1,21,10,11,11,0,0,1,10,21,11,11,0,0,1-1,10,11,11,0,0,1,10-1Zm0,20.218A9.218,9.218,0,1,0,.782,10,9.229,9.229,0,0,0,10,19.218Z" transform="translate(3.75 3.75)" fill="#0984e3"/>
    <path id="Path_1181" data-name="Path 1181" d="M16,19.815H14V10.25h2Z" transform="translate(-1.25 -1.283)" fill="#0984e3"/>
    <path id="Path_1182" data-name="Path 1182" d="M19.815,16H10.25V14h9.565Z" transform="translate(-1.283 -1.25)" fill="#0984e3"/>
  </g>
</svg>
