<svg width="42" height="42" viewBox="0 0 42 42" fill="none" xmlns="http://www.w3.org/2000/svg">
<path d="M11.2065 26.7156L20.3761 31.3004C20.5588 31.3884 20.7591 31.4341 20.962 31.4341C21.1648 31.4341 21.3651 31.3884 21.5478 31.3004L30.7174 26.7156C30.935 26.6067 31.1179 26.4394 31.2458 26.2325C31.3737 26.0255 31.4414 25.7871 31.4415 25.5438V16.3742C31.4359 16.1322 31.3659 15.896 31.2386 15.69C31.1114 15.484 30.9314 15.3157 30.7174 15.2024L21.5478 10.6177C21.3659 10.5268 21.1653 10.4795 20.962 10.4795C20.7586 10.4795 20.558 10.5268 20.3761 10.6177L11.2065 15.2024C10.9925 15.3157 10.8126 15.484 10.6853 15.69C10.558 15.896 10.488 16.1322 10.4824 16.3742V25.5438C10.4825 25.7871 10.5502 26.0255 10.6781 26.2325C10.806 26.4394 10.9889 26.6067 11.2065 26.7156ZM13.1023 18.4939L19.652 21.7688V28.0092L13.1023 24.7344V18.4939ZM22.2719 28.0092V21.7688L28.8216 18.4939V24.7344L22.2719 28.0092ZM20.962 13.2538L27.2022 16.3741L20.962 19.4943L14.7217 16.3741L20.962 13.2538Z" fill="#1F4FDE"/>
<path d="M41.9204 11.7894C41.9211 11.0475 41.7116 10.3206 41.3162 9.69294C40.9207 9.06524 40.3555 8.56243 39.686 8.24276C39.0166 7.92309 38.2702 7.79965 37.5335 7.88674C36.7967 7.97383 36.0997 8.26789 35.5232 8.73484L24.8784 4.18063C24.9133 3.64477 24.8379 3.10745 24.6569 2.60191C24.4758 2.09636 24.193 1.63333 23.8258 1.24147C23.4587 0.849616 23.015 0.537256 22.5223 0.323717C22.0296 0.110177 21.4983 0 20.9613 0C20.4243 0 19.893 0.110177 19.4003 0.323717C18.9076 0.537256 18.464 0.849616 18.0968 1.24147C17.7297 1.63333 17.4468 2.09636 17.2658 2.60191C17.0847 3.10745 17.0093 3.64477 17.0442 4.18063L6.39941 8.73484C5.95473 8.37493 5.43677 8.11654 4.88179 7.97774C4.3268 7.83894 3.74819 7.82308 3.18644 7.93128C2.62468 8.03947 2.09335 8.2691 1.62962 8.6041C1.16589 8.9391 0.780954 9.37138 0.501751 9.8707C0.222548 10.37 0.0558183 10.9243 0.0132282 11.4948C-0.029362 12.0653 0.0532156 12.6382 0.255183 13.1734C0.457151 13.7087 0.773631 14.1933 1.18248 14.5935C1.59133 14.9936 2.08268 15.2996 2.62214 15.49V25.773C2.06881 25.968 1.56619 26.2844 1.1512 26.699C0.736214 27.1137 0.419411 27.6161 0.224073 28.1692C0.0287343 28.7224 -0.040175 29.3123 0.0224085 29.8956C0.0849921 30.4789 0.277478 31.0408 0.585721 31.5399C0.893965 32.0391 1.31013 32.4628 1.80364 32.78C2.29715 33.0972 2.85546 33.2997 3.43753 33.3728C4.01961 33.4459 4.61067 33.3876 5.16727 33.2023C5.72387 33.0169 6.23187 32.7092 6.65394 32.3018L17.0649 37.5016C16.9955 38.0543 17.0444 38.6154 17.2085 39.1477C17.3726 39.6801 17.648 40.1714 18.0165 40.5891C18.3851 41.0068 18.8382 41.3413 19.3459 41.5704C19.8537 41.7996 20.4043 41.9181 20.9613 41.9181C21.5184 41.9181 22.069 41.7996 22.5767 41.5704C23.0845 41.3413 23.5376 41.0068 23.9061 40.5891C24.2747 40.1714 24.5501 39.6801 24.7142 39.1477C24.8783 38.6154 24.9272 38.0543 24.8578 37.5016L35.2687 32.3018C35.6908 32.7089 36.1987 33.0162 36.7552 33.2012C37.3116 33.3863 37.9024 33.4443 38.4843 33.3711C39.0661 33.2979 39.6241 33.0953 40.1174 32.7782C40.6106 32.4611 41.0266 32.0375 41.3347 31.5385C41.6428 31.0396 41.8353 30.478 41.8979 29.895C41.9605 29.3119 41.8918 28.7222 41.6967 28.1692C41.5015 27.6162 41.185 27.114 40.7704 26.6993C40.3558 26.2847 39.8535 25.9682 39.3005 25.773V15.49C40.0657 15.219 40.7283 14.7178 41.1974 14.0552C41.6665 13.3927 41.919 12.6012 41.9204 11.7894ZM39.3005 11.7894C39.3005 12.0485 39.2237 12.3018 39.0797 12.5172C38.9358 12.7326 38.7312 12.9005 38.4919 12.9997C38.2525 13.0988 37.9891 13.1247 37.735 13.0742C37.4809 13.0236 37.2475 12.8989 37.0643 12.7157C36.8811 12.5325 36.7563 12.2991 36.7058 12.045C36.6552 11.7909 36.6812 11.5275 36.7803 11.2881C36.8795 11.0488 37.0474 10.8442 37.2628 10.7002C37.4782 10.5563 37.7315 10.4795 37.9906 10.4795C38.3379 10.4798 38.6709 10.618 38.9164 10.8635C39.162 11.1091 39.3002 11.4421 39.3005 11.7894ZM20.9613 2.61983C21.2204 2.61983 21.4737 2.69666 21.6891 2.8406C21.9045 2.98454 22.0724 3.18912 22.1715 3.42848C22.2707 3.66784 22.2966 3.93123 22.2461 4.18533C22.1955 4.43943 22.0708 4.67284 21.8876 4.85604C21.7044 5.03924 21.471 5.164 21.2169 5.21454C20.9628 5.26509 20.6994 5.23915 20.46 5.14C20.2207 5.04086 20.0161 4.87296 19.8721 4.65754C19.7282 4.44212 19.6514 4.18886 19.6514 3.92977C19.6517 3.58246 19.7898 3.24947 20.0354 3.00389C20.281 2.7583 20.614 2.62018 20.9613 2.61983ZM20.9613 7.8596C21.5041 7.85931 22.0408 7.74619 22.5375 7.52743C23.0342 7.30867 23.48 6.98904 23.8466 6.58883L34.142 10.9936C33.9546 11.923 34.108 12.8888 34.5742 13.7144C35.0403 14.54 35.788 15.1703 36.6806 15.49V25.773C35.8376 26.0728 35.1219 26.651 34.6517 27.4122C34.1815 28.1735 33.9848 29.0722 34.0941 29.9603L23.6832 35.1601C22.9533 34.4535 21.9772 34.0584 20.9613 34.0584C19.9454 34.0584 18.9694 34.4535 18.2395 35.1601L7.8285 29.9603C7.93781 29.0722 7.74113 28.1735 7.27091 27.4122C6.8007 26.651 6.08505 26.0728 5.24202 25.773V15.49C6.13459 15.1703 6.88229 14.54 7.34843 13.7144C7.81457 12.8888 7.968 11.923 7.78069 10.9936L18.076 6.58889C18.4427 6.98909 18.8885 7.30871 19.3851 7.52746C19.8818 7.74621 20.4186 7.85931 20.9613 7.8596ZM3.93208 10.4795C4.19116 10.4795 4.44443 10.5563 4.65985 10.7002C4.87526 10.8442 5.04316 11.0488 5.14231 11.2881C5.24146 11.5275 5.2674 11.7909 5.21685 12.045C5.16631 12.2991 5.04155 12.5325 4.85835 12.7157C4.67515 12.8989 4.44174 13.0236 4.18764 13.0742C3.93353 13.1247 3.67015 13.0988 3.43079 12.9997C3.19143 12.9005 2.98684 12.7326 2.8429 12.5172C2.69897 12.3018 2.62214 12.0485 2.62214 11.7894C2.62249 11.4421 2.76061 11.1091 3.0062 10.8635C3.25178 10.618 3.58477 10.4798 3.93208 10.4795ZM3.93208 30.7836C3.673 30.7836 3.41974 30.7068 3.20432 30.5628C2.9889 30.4189 2.821 30.2143 2.72185 29.9749C2.62271 29.7356 2.59676 29.4722 2.64731 29.2181C2.69785 28.964 2.82261 28.7306 3.00581 28.5474C3.18901 28.3642 3.42242 28.2394 3.67652 28.1889C3.93063 28.1383 4.19401 28.1643 4.43337 28.2634C4.67273 28.3626 4.87732 28.5305 5.02126 28.7459C5.1652 28.9613 5.24202 29.2146 5.24202 29.4736C5.24168 29.8209 5.10355 30.1539 4.85797 30.3995C4.61238 30.6451 4.27939 30.7832 3.93208 30.7836ZM20.9613 39.2982C20.7022 39.2982 20.449 39.2214 20.2336 39.0774C20.0181 38.9335 19.8502 38.7289 19.7511 38.4895C19.6519 38.2502 19.626 37.9868 19.6765 37.7327C19.7271 37.4786 19.8519 37.2452 20.0351 37.062C20.2183 36.8788 20.4517 36.754 20.7058 36.7035C20.9599 36.6529 21.2233 36.6789 21.4626 36.778C21.702 36.8772 21.9066 37.0451 22.0505 37.2605C22.1944 37.4759 22.2713 37.7292 22.2713 37.9883C22.2709 38.3356 22.1328 38.6686 21.8872 38.9141C21.6416 39.1597 21.3086 39.2978 20.9613 39.2982ZM37.9906 30.7836C37.7315 30.7836 37.4782 30.7068 37.2628 30.5628C37.0474 30.4189 36.8795 30.2143 36.7803 29.9749C36.6812 29.7356 36.6552 29.4722 36.7058 29.2181C36.7563 28.964 36.8811 28.7306 37.0643 28.5474C37.2475 28.3642 37.4809 28.2394 37.735 28.1889C37.9891 28.1383 38.2525 28.1643 38.4919 28.2634C38.7312 28.3626 38.9358 28.5305 39.0797 28.7459C39.2237 28.9613 39.3005 29.2146 39.3005 29.4736C39.3002 29.8209 39.162 30.1539 38.9164 30.3995C38.6709 30.6451 38.3379 30.7832 37.9906 30.7836Z" fill="#1F4FDE"/>
</svg>
