<svg width="36" height="36" viewBox="0 0 36 36" fill="none" xmlns="http://www.w3.org/2000/svg">
<path d="M17.9989 22.91C19.3009 22.91 20.5496 22.3928 21.4702 21.4721C22.3908 20.5515 22.908 19.3029 22.908 18.0009C22.908 16.6989 22.3908 15.4503 21.4702 14.5296C20.5496 13.609 19.3009 13.0918 17.9989 13.0918C16.697 13.0918 15.4483 13.609 14.5277 14.5296C13.607 15.4503 13.0898 16.6989 13.0898 18.0009C13.0898 19.3029 13.607 20.5515 14.5277 21.4721C15.4483 22.3928 16.697 22.91 17.9989 22.91V22.91Z" stroke="#CFE7FE" stroke-width="1.5" stroke-miterlimit="10" stroke-linecap="round" stroke-linejoin="round"/>
<path d="M1.63672 19.4402V16.5602C1.63672 14.8583 3.02763 13.4511 4.74581 13.4511C7.70763 13.4511 8.91854 11.3565 7.42945 8.78744C6.57854 7.31471 7.08581 5.40016 8.5749 4.54925L11.4058 2.92925C12.6985 2.16016 14.3676 2.61834 15.1367 3.91107L15.3167 4.22198C16.7894 6.79107 19.2113 6.79107 20.7004 4.22198L20.8804 3.91107C21.6494 2.61834 23.3185 2.16016 24.6113 2.92925L27.4422 4.54925C28.9313 5.40016 29.4385 7.31471 28.5876 8.78744C27.0985 11.3565 28.3094 13.4511 31.2713 13.4511C32.9731 13.4511 34.3804 14.842 34.3804 16.5602V19.4402C34.3804 21.142 32.9894 22.5493 31.2713 22.5493C28.3094 22.5493 27.0985 24.6438 28.5876 27.2129C29.4385 28.702 28.9313 30.6002 27.4422 31.4511L24.6113 33.0711C23.3185 33.8402 21.6494 33.382 20.8804 32.0893L20.7004 31.7783C19.2276 29.2093 16.8058 29.2093 15.3167 31.7783L15.1367 32.0893C14.3676 33.382 12.6985 33.8402 11.4058 33.0711L8.5749 31.4511C7.86161 31.0404 7.3404 30.3635 7.12565 29.5689C6.9109 28.7743 7.02016 27.927 7.42945 27.2129C8.91854 24.6438 7.70763 22.5493 4.74581 22.5493C3.02763 22.5493 1.63672 21.142 1.63672 19.4402V19.4402Z" stroke="#CFE7FE" stroke-width="1.5" stroke-miterlimit="10" stroke-linecap="round" stroke-linejoin="round"/>
</svg>
