<svg width="72" height="72" viewBox="0 0 72 72" fill="none" xmlns="http://www.w3.org/2000/svg">
<g clip-path="url(#clip0_86_539)">
<path d="M35.9233 14.501C35.3407 14.501 34.8686 14.9732 34.8686 15.5557V18.2515C34.3247 18.1843 33.9261 18.0133 33.2952 17.6005C32.8079 17.2816 32.1541 17.4184 31.8352 17.9057C31.5163 18.3931 31.6529 19.0469 32.1405 19.3657C33.207 20.0633 33.9543 20.2995 34.8686 20.3718V21.1176C34.8686 21.7 35.3407 22.1722 35.9233 22.1722C36.5059 22.1722 36.978 21.7 36.978 21.1176V20.2732C38.8293 19.8239 40.0166 18.2519 40.2772 16.7015C40.6146 14.6947 39.5662 12.9502 37.6063 12.2573C36.4606 11.8523 35.1918 11.3618 34.4684 10.7944C34.1878 10.5745 34.0668 10.1134 34.1599 9.61992C34.2323 9.23503 34.4553 8.78601 34.8688 8.51967V9.88908C34.8688 10.4715 35.3408 10.9438 35.9234 10.9438C36.5061 10.9438 36.9781 10.4715 36.9781 9.88908V8.36681C37.3951 8.50912 37.6519 8.7105 37.7028 8.75297C38.1508 9.12534 38.8157 9.06431 39.1881 8.61642C39.5604 8.16853 39.4994 7.50351 39.0515 7.13114C38.8534 6.96647 38.1085 6.40326 36.978 6.19134V5.52548C36.978 4.94301 36.5059 4.47079 35.9233 4.47079C35.3407 4.47079 34.8686 4.94301 34.8686 5.52548V6.26545C34.7861 6.28612 34.703 6.30862 34.6187 6.33394C33.3198 6.72529 32.3496 7.83468 32.0868 9.2294C31.846 10.5074 32.2596 11.7431 33.1666 12.4544C33.9432 13.0635 35.0258 13.5827 36.9033 14.2463C38.3466 14.7564 38.2585 15.987 38.1971 16.3519C38.0882 16.9994 37.6744 17.682 36.978 18.0393V15.5557C36.978 14.9732 36.5059 14.501 35.9233 14.501Z" fill="url(#paint0_linear_86_539)"/>
<path d="M68.0952 64.2393H66.6836C66.9711 63.6929 67.1348 63.0717 67.1348 62.4127C67.1348 60.6076 65.913 59.0836 64.2535 58.6213V35.8912C65.9131 35.4288 67.1348 33.9048 67.1348 32.0999C67.1348 31.4132 66.9576 30.7672 66.6472 30.2047C69.1073 29.8539 71.0563 28.1512 71.7411 25.6667C72.5123 22.869 71.4005 20.1005 68.9086 18.6136L56.8991 11.4444C56.3991 11.146 55.7515 11.3093 55.4529 11.8095C55.1544 12.3097 55.3178 12.9572 55.8179 13.2557L67.8276 20.4248C69.8372 21.6239 70.0963 23.6961 69.7077 25.106C69.3188 26.5165 68.0342 28.1635 65.6933 28.1635H6.3068C3.96593 28.1635 2.68132 26.5165 2.29248 25.106C1.90379 23.6961 2.16297 21.6239 4.1728 20.4247L33.8656 2.69905C35.1825 1.91351 36.8182 1.91337 38.1341 2.6989L52.1968 11.0929C52.6967 11.3916 53.3443 11.2279 53.6429 10.7278C53.9414 10.2276 53.778 9.58016 53.2777 9.28161L39.2151 0.88764C37.2331 -0.295728 34.7694 -0.295869 32.7846 0.88764L3.09166 18.6134C0.599627 20.1004 -0.512163 22.8689 0.259031 25.6665C0.944021 28.1511 2.89282 29.8538 5.35293 30.2045C5.04243 30.767 4.86524 31.4131 4.86524 32.0997C4.86524 33.9047 6.087 35.4288 7.74667 35.891V58.6211C6.087 59.0835 4.86524 60.6075 4.86524 62.4125C4.86524 63.0717 5.02893 63.6928 5.31637 64.2391H3.90504C1.76542 64.2391 0.0246072 65.9798 0.0246072 68.1196C0.0246072 70.2593 1.76542 72 3.90504 72H68.0952C70.2349 72 71.9757 70.2593 71.9757 68.1196C71.9757 65.9798 70.2347 64.2393 68.0952 64.2393ZM65.0254 62.4127C65.0254 63.4199 64.2059 64.2393 63.1988 64.2393H53.3739C52.3668 64.2393 51.5473 63.4199 51.5473 62.4127C51.5473 61.4054 52.3668 60.586 53.3739 60.586H63.1988C64.2058 60.586 65.0254 61.4054 65.0254 62.4127ZM19.6817 58.6214V45.061C19.6817 44.4785 19.2097 44.0063 18.6271 44.0063C18.0444 44.0063 17.5724 44.4785 17.5724 45.061V58.4764H9.8562V36.0359H17.5724V40.8423C17.5724 41.4248 18.0444 41.897 18.6271 41.897C19.2097 41.897 19.6817 41.4248 19.6817 40.8423V35.891C21.341 35.4285 22.5623 33.9047 22.5623 32.0999C22.5623 31.4406 22.3986 30.8193 22.1111 30.2729H27.6029C27.3154 30.8193 27.1517 31.4406 27.1517 32.0999C27.1517 33.9048 28.3734 35.4289 30.033 35.8912V58.6213C28.3733 59.0836 27.1517 60.6076 27.1517 62.4127C27.1517 63.0718 27.3154 63.6929 27.6028 64.2393H22.1113C22.3989 63.6929 22.5625 63.0717 22.5625 62.4127C22.5623 60.6079 21.341 59.0839 19.6817 58.6214ZM32.1423 36.0359H39.8579V58.4766H32.1423V36.0359ZM40.9126 33.9265H31.0876C30.0805 33.9265 29.2611 33.107 29.2611 32.0999C29.2611 31.0926 30.0805 30.2732 31.0876 30.2732H40.9126C41.9198 30.2732 42.7392 31.0926 42.7392 32.0999C42.7392 33.107 41.9198 33.9265 40.9126 33.9265ZM29.2609 62.4127C29.2609 61.4054 30.0803 60.586 31.0875 60.586H40.9125C41.9197 60.586 42.7391 61.4054 42.7391 62.4127C42.7391 63.4199 41.9197 64.2393 40.9125 64.2393H31.0875C30.0803 64.2393 29.2609 63.4199 29.2609 62.4127ZM41.9673 58.6213V35.8912C43.627 35.4288 44.8486 33.9048 44.8486 32.0999C44.8486 31.4406 44.6849 30.8193 44.3973 30.2729H49.8892C49.6016 30.8193 49.4379 31.4406 49.4379 32.0999C49.4379 33.9048 50.6597 35.4289 52.3192 35.8912V58.6213C50.6596 59.0836 49.4379 60.6076 49.4379 62.4127C49.4379 63.0718 49.6016 63.6929 49.8891 64.2393H44.3976C44.6852 63.6929 44.8488 63.0717 44.8488 62.4127C44.8486 60.6076 43.627 59.0835 41.9673 58.6213ZM62.1439 58.4766H54.4285V36.0359H62.1439V58.4766ZM63.1986 33.9265H53.3738C52.3666 33.9265 51.5472 33.107 51.5472 32.0999C51.5472 31.0926 52.3666 30.2732 53.3738 30.2732H63.1986C64.2058 30.2732 65.0252 31.0926 65.0252 32.0999C65.0254 33.107 64.2058 33.9265 63.1986 33.9265ZM6.97477 32.0997C6.97477 31.0924 7.7942 30.273 8.8015 30.273H18.6263C19.6335 30.273 20.4529 31.0924 20.4529 32.0997C20.4529 33.1061 19.6348 33.9249 18.6287 33.9262C18.6282 33.9262 18.6276 33.9262 18.6271 33.9262H8.8015C8.8008 33.9262 8.8001 33.9263 8.79954 33.9263C7.79307 33.9252 6.97477 33.1063 6.97477 32.0997ZM6.97477 62.4127C6.97477 61.4061 7.79307 60.5872 8.79954 60.5861C8.80024 60.5861 8.80094 60.5862 8.8015 60.5862H18.6271H18.6287C19.6348 60.5875 20.4529 61.4064 20.4529 62.4128C20.4529 63.42 19.6335 64.2394 18.6263 64.2394H8.8015C7.7942 64.2393 6.97477 63.4199 6.97477 62.4127ZM68.0952 69.8906H3.90504C2.92854 69.8906 2.134 69.0962 2.134 68.1196C2.134 67.1429 2.9284 66.3485 3.90504 66.3485H68.0952C69.0717 66.3485 69.8663 67.1429 69.8663 68.1196C69.8663 69.0962 69.0717 69.8906 68.0952 69.8906Z" fill="url(#paint1_linear_86_539)"/>
<path d="M29.9044 13.3568V13.2865C29.9044 12.704 29.4323 12.2318 28.8497 12.2318C28.2671 12.2318 27.795 12.704 27.795 13.2865V13.3568C27.795 13.9393 28.2671 14.4115 28.8497 14.4115C29.4323 14.4115 29.9044 13.9393 29.9044 13.3568Z" fill="url(#paint2_linear_86_539)"/>
<path d="M44.2051 13.3568V13.2865C44.2051 12.704 43.733 12.2318 43.1504 12.2318C42.5678 12.2318 42.0957 12.704 42.0957 13.2865V13.3568C42.0957 13.9393 42.5678 14.4115 43.1504 14.4115C43.733 14.4115 44.2051 13.9393 44.2051 13.3568Z" fill="url(#paint3_linear_86_539)"/>
<path d="M7.74683 24.462C7.74683 25.0445 8.21891 25.5167 8.80152 25.5167H63.1987C63.7813 25.5167 64.2533 25.0445 64.2533 24.462C64.2533 23.8796 63.7813 23.4073 63.1987 23.4073H8.80152C8.21891 23.4073 7.74683 23.8796 7.74683 24.462Z" fill="url(#paint4_linear_86_539)"/>
</g>
<defs>
<linearGradient id="paint0_linear_86_539" x1="36.0013" y1="4.47079" x2="36.0013" y2="22.1722" gradientUnits="userSpaceOnUse">
<stop stop-color="#1F4FDE"/>
<stop offset="1" stop-color="#986BE5"/>
</linearGradient>
<linearGradient id="paint1_linear_86_539" x1="36.0001" y1="6.10352e-05" x2="36.0001" y2="72" gradientUnits="userSpaceOnUse">
<stop stop-color="#1F4FDE"/>
<stop offset="1" stop-color="#986BE5"/>
</linearGradient>
<linearGradient id="paint2_linear_86_539" x1="28.8497" y1="12.2318" x2="28.8497" y2="14.4115" gradientUnits="userSpaceOnUse">
<stop stop-color="#1F4FDE"/>
<stop offset="1" stop-color="#986BE5"/>
</linearGradient>
<linearGradient id="paint3_linear_86_539" x1="43.1504" y1="12.2318" x2="43.1504" y2="14.4115" gradientUnits="userSpaceOnUse">
<stop stop-color="#1F4FDE"/>
<stop offset="1" stop-color="#986BE5"/>
</linearGradient>
<linearGradient id="paint4_linear_86_539" x1="36.0001" y1="23.4073" x2="36.0001" y2="25.5167" gradientUnits="userSpaceOnUse">
<stop stop-color="#1F4FDE"/>
<stop offset="1" stop-color="#986BE5"/>
</linearGradient>
<clipPath id="clip0_86_539">
<rect width="72" height="72" fill="white"/>
</clipPath>
</defs>
</svg>
