<svg xmlns="http://www.w3.org/2000/svg" width="24" height="25" viewBox="0 0 24 25" fill="none">
    <path
                            d="M4 7.20001H20M10 11.2V17.2M14 11.2V17.2M5 7.20001L6 19.2C6 19.7304 6.21071 20.2392 6.58579 20.6142C6.96086 20.9893 7.46957 21.2 8 21.2H16C16.5304 21.2 17.0391 20.9893 17.4142 20.6142C17.7893 20.2392 18 19.7304 18 19.2L19 7.20001M9 7.20001V4.20001C9 3.9348 9.10536 3.68044 9.29289 3.49291C9.48043 3.30537 9.73478 3.20001 10 3.20001H14C14.2652 3.20001 14.5196 3.30537 14.7071 3.49291C14.8946 3.68044 15 3.9348 15 4.20001V7.20001"
                            stroke="#FA5858"
                            strokeWidth="2"
                            strokeLinecap="round"
                            strokeLinejoin="round"
                          />
</svg>