<svg width="19" height="24" viewBox="0 0 19 24" fill="none" xmlns="http://www.w3.org/2000/svg">
<path d="M13.2431 2.97298V2.15135C13.2431 0.956744 12.2485 0 11.0539 0H7.10252C5.91335 0 4.9187 0.956744 4.9187 2.15135V2.97298H5.99979V2.15135C5.99979 1.55677 6.50789 1.08109 7.10791 1.08109H11.0593C11.6539 1.08109 12.1674 1.55677 12.1674 2.15135V2.97298H13.2431Z" fill="#9D9D9D"/>
<path d="M3.58368 24H14.5838C15.4757 24 16.2054 23.2702 16.2054 22.3729L16.2325 8.59433H1.93494L1.96196 22.3729C1.96196 23.2702 2.69172 24 3.58357 24H3.58368ZM12.2704 12.2486C12.2704 11.9513 12.5137 11.7081 12.811 11.7081C13.1083 11.7081 13.3516 11.9513 13.3516 12.2486V19.2378C13.3516 19.5351 13.1083 19.7783 12.811 19.7783C12.5137 19.7783 12.2704 19.5351 12.2704 19.2378V12.2486ZM8.54067 12.2486C8.54067 11.9513 8.78392 11.7081 9.08124 11.7081C9.37856 11.7081 9.62181 11.9513 9.62181 12.2486V19.2378C9.62181 19.5351 9.37856 19.7783 9.08124 19.7783C8.78392 19.7783 8.54067 19.5351 8.54067 19.2378V12.2486ZM4.81091 12.2486C4.81091 11.9513 5.05415 11.7081 5.35148 11.7081C5.6488 11.7081 5.89205 11.9513 5.89205 12.2486V19.2378C5.89205 19.5351 5.6488 19.7783 5.35148 19.7783C5.05415 19.7783 4.81091 19.5351 4.81091 19.2378V12.2486Z" fill="#9D9D9D"/>
<path d="M18.1621 6.97294V4.05403C18.1621 3.75673 17.9188 3.51346 17.6215 3.51346H0.540569C0.243271 3.51346 0 3.7567 0 4.05403V6.97294C0 7.27024 0.243246 7.51351 0.540569 7.51351H17.6215C17.9188 7.51351 18.1621 7.27026 18.1621 6.97294Z" fill="#9D9D9D"/>
</svg>
