<svg width="16" height="23" viewBox="0 0 16 23" fill="none" xmlns="http://www.w3.org/2000/svg">
<path d="M15.2819 2.20904H11.3482V0.718138C11.3482 0.321562 11.0267 0 10.6301 0H5.36999C4.97342 0 4.65186 0.321519 4.65186 0.718138V2.20904H0.718138C0.321562 2.20904 0 2.53056 0 2.92718V5.13618C0 5.53275 0.321519 5.85432 0.718138 5.85432H0.936298L1.59267 21.3348C1.60893 21.7192 1.92537 22.0225 2.31012 22.0225H13.6899C14.0747 22.0225 14.3911 21.7192 14.4073 21.3348L15.0637 5.85427H15.2819C15.6784 5.85427 16 5.53275 16 5.13614V2.92718C16.0001 2.53052 15.6786 2.20904 15.2819 2.20904ZM6.08813 1.43623H9.91195V2.20904H6.08813V1.43623ZM13.0016 20.5862H2.99845L2.37382 5.85432H13.6262L13.0016 20.5862ZM14.5638 4.41804C13.9113 4.41804 1.82718 4.41804 1.43628 4.41804V3.64528H14.5638V4.41804Z" fill="#686868"/>
<path d="M5.1112 8.05644C4.71463 8.05644 4.39307 8.37796 4.39307 8.77458V17.6659C4.39307 18.0625 4.71459 18.384 5.1112 18.384C5.50778 18.384 5.82934 18.0625 5.82934 17.6659V8.77458C5.8293 8.37796 5.50778 8.05644 5.1112 8.05644Z" fill="#686868"/>
<path d="M7.99988 8.05644C7.6033 8.05644 7.28174 8.37796 7.28174 8.77458V17.6659C7.28174 18.0625 7.60321 18.384 7.99988 18.384C8.39645 18.384 8.71802 18.0625 8.71802 17.6659V8.77458C8.71797 8.37796 8.39645 8.05644 7.99988 8.05644Z" fill="#686868"/>
<path d="M10.8888 8.05644C10.4922 8.05644 10.1707 8.37796 10.1707 8.77458V17.6659C10.1707 18.0625 10.4922 18.384 10.8888 18.384C11.2854 18.384 11.6069 18.0625 11.6069 17.6659V8.77458C11.6069 8.37796 11.2854 8.05644 10.8888 8.05644Z" fill="#686868"/>
</svg>
