<svg xmlns="http://www.w3.org/2000/svg" width="21.509" height="24" viewBox="0 0 21.509 24">
  <g id="Group_6828" data-name="Group 6828" transform="translate(-46 -8048)">
    <g id="writing" transform="translate(46 8048)">
      <g id="Group_6824" data-name="Group 6824" transform="translate(0)">
        <g id="Group_6823" data-name="Group 6823">
          <path id="Path_1186" data-name="Path 1186" d="M117.99,200.937a.937.937,0,0,0-.937-.937H107.4a.937.937,0,1,0,0,1.875h9.656A.937.937,0,0,0,117.99,200.937Z" transform="translate(-102.714 -190.625)" fill="#50741e"/>
          <path id="Path_1187" data-name="Path 1187" d="M107.4,280a.938.938,0,1,0,0,1.875h5.865a.938.938,0,0,0,0-1.875Z" transform="translate(-102.714 -266.875)" fill="#50741e"/>
          <path id="Path_1188" data-name="Path 1188" d="M33.455,22.125H30.32a1.877,1.877,0,0,1-1.875-1.875V3.75A1.877,1.877,0,0,1,30.32,1.875H41.846A1.877,1.877,0,0,1,43.721,3.75V9.516a.938.938,0,1,0,1.875,0V3.75A3.754,3.754,0,0,0,41.846,0H30.32a3.754,3.754,0,0,0-3.75,3.75v16.5A3.754,3.754,0,0,0,30.32,24h3.135a.938.938,0,0,0,0-1.875Z" transform="translate(-26.57)" fill="#50741e"/>
          <path id="Path_1189" data-name="Path 1189" d="M253.977,272.847a2.815,2.815,0,0,0-3.977,0l-5.147,5.136a.938.938,0,0,0-.235.391l-1.121,3.69a.937.937,0,0,0,1.147,1.176l3.784-1.048a.937.937,0,0,0,.412-.24l5.136-5.127A2.816,2.816,0,0,0,253.977,272.847Zm-6.286,7.6-1.9.527.557-1.834,3.473-3.465L251.143,277Zm4.961-4.952-.182.181-1.326-1.326.181-.181a.938.938,0,0,1,1.326,1.325Z" transform="translate(-233.29 -259.273)" fill="#50741e"/>
          <path id="Path_1190" data-name="Path 1190" d="M117.053,120H107.4a.937.937,0,1,0,0,1.875h9.656a.937.937,0,1,0,0-1.875Z" transform="translate(-102.714 -114.375)" fill="#50741e"/>
        </g>
      </g>
    </g>
  </g>
</svg>
