<svg width="72" height="72" viewBox="0 0 72 72" fill="none" xmlns="http://www.w3.org/2000/svg">
<g clip-path="url(#clip0_86_565)">
<path d="M65.2534 27.7547C67.1795 25.8285 67.1795 22.6942 65.2532 20.7678L45.9321 1.44802C44.9992 0.514266 43.7584 0 42.4384 0C41.1182 0 39.8775 0.514266 38.9448 1.44773L19.5463 20.8463H13.0153C11.7931 20.8463 10.6232 21.1243 9.53845 21.6726C9.0187 21.9354 8.81016 22.5697 9.07298 23.0896C9.25861 23.457 9.62986 23.6687 10.015 23.6687C10.1751 23.6687 10.3375 23.6322 10.4901 23.5551C11.277 23.1573 12.1267 22.9556 13.0151 22.9556H17.4368L8.50598 31.8867C7.79569 30.9309 7.41136 29.7799 7.41136 28.5583C7.41136 27.6708 7.61316 26.8215 8.01098 26.0345C8.27367 25.5146 8.06513 24.8802 7.54523 24.6174C7.02534 24.3546 6.39098 24.5631 6.12816 25.083C5.58759 26.1526 5.30198 27.3544 5.30198 28.5583V64.2869C5.30198 66.3469 6.10439 68.2838 7.56127 69.7407C9.01828 71.1976 10.9551 72 13.0153 72H50.5664C55.695 72 59.8673 67.8277 59.8673 62.6991V61.8137C62.3406 61.6289 64.297 59.5588 64.297 57.0389V42.1509C64.297 40.8736 63.799 39.671 62.894 38.7641C62.0743 37.9446 61.0097 37.4601 59.8659 37.3759V33.1422L65.2534 27.7547ZM54.8288 35.1962C53.5165 34.5184 52.0594 34.162 50.5664 34.162H47.6179C48.2133 30.013 46.8485 25.8667 43.8405 22.8589C38.64 17.6598 30.178 17.6598 24.9772 22.859C21.9696 25.8668 20.6048 30.0132 21.2001 34.162H13.0153C12.6643 34.162 12.3158 34.1295 11.9772 34.0649C11.2932 33.936 10.6449 33.6803 10.0595 33.3165L34.6146 8.76108C36.8688 10.6568 39.6529 11.6077 42.4385 11.6077C45.2242 11.6077 48.0082 10.6568 50.2625 8.76108L57.9385 16.4365C56.0939 18.6254 55.0866 21.3652 55.0865 24.2609C55.0863 27.1571 56.0936 29.8972 57.9385 32.0863L54.8288 35.1962ZM40.7185 34.162C40.6844 32.916 40.1347 31.6967 39.176 30.8805C37.9609 29.8458 36.3261 29.6625 34.8034 30.3903C33.6915 30.9213 32.4294 31.4796 31.5024 31.5925C31.138 31.6375 30.7155 31.3903 30.4255 30.9656C30.1957 30.6291 30.0299 30.1319 30.1476 29.6314L31.1482 30.6319C31.3542 30.8379 31.624 30.9409 31.894 30.9409C32.1639 30.9409 32.4339 30.8379 32.6399 30.6319C33.0518 30.22 33.0518 29.5522 32.6399 29.1405L31.5322 28.0327C31.9205 27.8391 32.2484 27.7919 32.3571 27.7815C32.937 27.7262 33.3623 27.2114 33.307 26.6316C33.2518 26.0516 32.7354 25.6269 32.1571 25.6816C31.8974 25.7064 30.9594 25.8394 29.999 26.4995L29.5124 26.013C29.1004 25.6011 28.4327 25.6009 28.0208 26.013C27.6089 26.4248 27.6089 27.0927 28.0208 27.5044L28.5591 28.0427C28.5128 28.1194 28.4674 28.198 28.4235 28.2797C27.776 29.4867 27.8757 30.9718 28.684 32.1553C29.4242 33.2391 30.6013 33.8265 31.7566 33.6867C32.7483 33.5659 33.8944 33.1623 35.7131 32.2938C36.7023 31.8212 37.3989 32.1379 37.8089 32.4869C38.2898 32.8965 38.5758 33.524 38.6087 34.1625H37.6629L36.7023 33.2017C36.2904 32.7898 35.6226 32.7897 35.2108 33.2017C34.9498 33.4626 34.8547 33.8261 34.9244 34.1625H23.3367C22.7257 30.5712 23.866 26.9544 26.4694 24.351C30.8474 19.9741 37.9714 19.9741 42.3496 24.3509C44.953 26.9543 46.0935 30.5712 45.4825 34.1625H40.7185V34.162ZM63.7618 26.2633L59.4357 30.5893C57.9852 28.8037 57.1957 26.5933 57.1958 24.2612C57.196 21.9292 57.9853 19.7191 59.4357 17.9338L63.7618 22.2595C64.8655 23.3633 64.8655 25.1594 63.7618 26.2633ZM40.4369 2.93892C40.9714 2.40398 41.6821 2.10938 42.4384 2.10938C43.1945 2.10938 43.9054 2.40398 44.4402 2.93934L48.7659 7.26469C45.0903 10.2437 39.7868 10.2435 36.1111 7.26469L40.4369 2.93892ZM59.5073 59.7192H53.3872C53.0866 59.7192 52.7887 59.6987 52.5015 59.6579C51.924 59.5759 51.391 59.9774 51.3093 60.5544C51.2276 61.1311 51.6289 61.6648 52.2056 61.7465C52.5904 61.801 52.9879 61.8286 53.387 61.8286H57.7576V62.6991C57.7576 66.6645 54.5316 69.8906 50.5661 69.8906H13.0153C11.5186 69.8906 10.1115 69.3076 9.05288 68.2491C7.99439 67.1906 7.41136 65.7834 7.41136 64.2867V33.8562C7.51908 33.9702 7.62933 34.0822 7.74436 34.19C8.81747 35.1932 10.1461 35.8668 11.5843 36.1375C12.0504 36.2264 12.5318 36.2715 13.0153 36.2715H50.5664C51.9441 36.2715 53.2821 36.6619 54.4359 37.4003C56.5152 38.7311 57.7565 40.9977 57.7565 43.4631C57.7565 43.4723 57.7576 43.4811 57.7579 43.4902V44.8328H53.3888C48.7022 44.8328 44.8895 48.645 44.8895 53.3308C44.8895 55.5995 45.7732 57.7336 47.3782 59.3402C47.5336 59.4956 47.6931 59.643 47.852 59.7783C48.0504 59.9473 48.2936 60.03 48.5352 60.03C48.8336 60.03 49.13 59.904 49.3387 59.659C49.7164 59.2156 49.6631 58.5499 49.2195 58.1723C49.1032 58.0732 48.9853 57.9642 48.8699 57.8488C47.6633 56.6409 46.9987 55.0363 46.9987 53.3306C46.9987 49.808 49.8653 46.942 53.3887 46.942H59.5073C60.4995 46.942 61.4222 46.6386 62.1876 46.1197V57.0388C62.1875 58.5169 60.9853 59.7192 59.5073 59.7192ZM61.4018 40.255C61.9086 40.7628 62.1876 41.4361 62.1876 42.1509C62.1876 43.5073 61.1752 44.6287 59.8673 44.8055L59.8659 39.4972C60.4454 39.5744 60.9818 39.835 61.4018 40.255ZM57.7565 37.558C57.4128 37.1405 57.0295 36.7522 56.6121 36.3959L57.7565 35.2515V37.558Z" fill="url(#paint0_linear_86_565)"/>
<path d="M50.2716 16.4284C48.9395 15.0965 46.7724 15.0967 45.4404 16.4284C44.1086 17.7604 44.1086 19.9277 45.4404 21.2595C46.0856 21.9047 46.9434 22.2601 47.8561 22.2601C48.7688 22.2601 49.6266 21.9047 50.2719 21.2595C51.6036 19.9277 51.6036 17.7605 50.2716 16.4284ZM48.7803 19.7681C48.5333 20.0149 48.2051 20.1509 47.8561 20.1509C47.5071 20.1509 47.179 20.015 46.9322 19.7681C46.4227 19.2586 46.4227 18.4295 46.9322 17.92C47.187 17.6652 47.5214 17.5379 47.8561 17.5379C48.1908 17.5379 48.5255 17.6653 48.7801 17.92C49.2896 18.4296 49.2896 19.2586 48.7803 19.7681Z" fill="url(#paint1_linear_86_565)"/>
<path d="M53.3876 49.2279C51.1256 49.2279 49.2853 51.0681 49.2853 53.3302C49.2853 55.5922 51.1256 57.4324 53.3876 57.4324C55.6495 57.4324 57.4898 55.5922 57.4898 53.3302C57.4898 51.0683 55.6495 49.2279 53.3876 49.2279ZM53.3876 55.3232C52.2887 55.3232 51.3946 54.4292 51.3946 53.3304C51.3946 52.2315 52.2886 51.3374 53.3876 51.3374C54.4863 51.3374 55.3804 52.2314 55.3804 53.3304C55.3804 54.4291 54.4864 55.3232 53.3876 55.3232Z" fill="url(#paint2_linear_86_565)"/>
</g>
<defs>
<linearGradient id="paint0_linear_86_565" x1="36" y1="0" x2="36" y2="72" gradientUnits="userSpaceOnUse">
<stop stop-color="#1F4FDE"/>
<stop offset="1" stop-color="#996BE5"/>
</linearGradient>
<linearGradient id="paint1_linear_86_565" x1="47.8561" y1="15.4295" x2="47.8561" y2="22.2601" gradientUnits="userSpaceOnUse">
<stop stop-color="#1F4FDE"/>
<stop offset="1" stop-color="#996BE5"/>
</linearGradient>
<linearGradient id="paint2_linear_86_565" x1="53.3875" y1="49.2279" x2="53.3875" y2="57.4324" gradientUnits="userSpaceOnUse">
<stop stop-color="#1F4FDE"/>
<stop offset="1" stop-color="#996BE5"/>
</linearGradient>
<clipPath id="clip0_86_565">
<rect width="72" height="72" fill="white"/>
</clipPath>
</defs>
</svg>
