<svg width="20" height="24" viewBox="0 0 20 24" fill="none" xmlns="http://www.w3.org/2000/svg">
<path d="M17.1751 0H8.92513V6.18766C8.92513 7.68765 7.68765 8.92513 6.18766 8.92513H0V21.825C0 23.025 0.974991 24 2.17498 24H17.1748C18.3748 24 19.3498 23.025 19.3498 21.825V2.17519C19.3498 0.975206 18.3748 0.000214284 17.1748 0.000214284L17.1751 0ZM5.02517 21.2998H3.56268V16.5749H5.02517V21.2998ZM8.62514 21.2998H7.16265V14.8122H8.62514V21.2998ZM12.1876 21.2998H10.7251V13.0122H12.1876V21.2998ZM15.7501 21.2998H14.2876V11.2122H15.7501V21.2998ZM17.1751 7.64993H11.3628V6.18744H17.1751V7.64993ZM17.1751 4.19996H11.3628V2.73748H17.1751V4.19996Z" fill="#9D9D9D"/>
<path d="M8.17503 6.18782V0.225586L0.225098 8.17551H6.18733C7.27482 8.17551 8.17481 7.27552 8.17481 6.18803L8.17503 6.18782Z" fill="#9D9D9D"/>
</svg>
