<svg width="18" height="18" viewBox="0 0 18 18" fill="none" xmlns="http://www.w3.org/2000/svg">
<path d="M1.58398 2.91602H15.084" stroke="#0984E3" stroke-width="2" stroke-linecap="round"/>
<path fill-rule="evenodd" clip-rule="evenodd" d="M13.584 2.91602H3.08398V13.216C3.08398 14.3361 3.08398 14.8962 3.30197 15.324C3.49372 15.7003 3.79968 16.0063 4.176 16.198C4.60383 16.416 5.16388 16.416 6.28398 16.416H8.84398C8.92799 16.416 8.97 16.416 9.00208 16.3997C9.03031 16.3853 9.05325 16.3623 9.06764 16.3341C9.08398 16.302 9.08398 16.26 9.08398 16.176V15.116C9.08398 13.9959 9.08398 13.4359 9.30197 13.008C9.49372 12.6317 9.79968 12.3257 10.176 12.134C10.6038 11.916 11.1639 11.916 12.284 11.916H13.344C13.428 11.916 13.47 11.916 13.5021 11.8997C13.5303 11.8853 13.5533 11.8623 13.5676 11.8341C13.584 11.802 13.584 11.76 13.584 11.676V2.91602ZM7.33398 10.416V8.33023L6.79109 8.87312C6.40057 9.26365 5.7674 9.26365 5.37688 8.87312C4.98635 8.4826 4.98635 7.84943 5.37688 7.45891L7.54733 5.28846C7.56103 5.27476 7.575 5.26149 7.58924 5.24865C7.77233 5.04447 8.03815 4.91602 8.33398 4.91602C8.62981 4.91602 8.89564 5.04447 9.07873 5.24865C9.09296 5.26149 9.10694 5.27476 9.12064 5.28846L9.12064 5.28846L11.2911 7.45891C11.6816 7.84943 11.6816 8.4826 11.2911 8.87312C10.9006 9.26365 10.2674 9.26365 9.87688 8.87312L9.33398 8.33023V10.416C9.33398 10.9683 8.88627 11.416 8.33398 11.416C7.7817 11.416 7.33398 10.9683 7.33398 10.416Z" fill="#0984E3"/>
<path d="M11.3571 15.6429L12.6428 14.3572C13.064 13.936 13.2745 13.7255 13.2909 13.5451C13.3057 13.3816 13.2392 13.2212 13.1131 13.116C12.974 13 12.6762 13 12.0807 13H10.795C10.5197 13 10.382 13 10.2765 13.0527C10.1797 13.1011 10.1011 13.1797 10.0527 13.2765C10 13.382 10 13.5197 10 13.795V15.0807C10 15.6762 10 15.974 10.116 16.1131C10.2212 16.2392 10.3816 16.3057 10.5451 16.2909C10.7255 16.2745 10.936 16.064 11.3571 15.6429Z" fill="#0984E3"/>
</svg>
