<svg width="72" height="72" viewBox="0 0 72 72" fill="none" xmlns="http://www.w3.org/2000/svg">
<g clip-path="url(#clip0_86_531)">
<path d="M30.612 25.4091C29.0676 25.4091 27.8112 26.6655 27.8112 28.2099V29.5255C27.8112 31.0699 29.0676 32.3262 30.612 32.3262C32.1563 32.3262 33.4129 31.0699 33.4129 29.5255V28.2099C33.4127 26.6655 32.1563 25.4091 30.612 25.4091ZM31.3033 29.5255C31.3033 29.9067 30.9931 30.2168 30.6118 30.2168C30.2306 30.2168 29.9205 29.9067 29.9205 29.5255V28.2099C29.9205 27.8286 30.2306 27.5186 30.6118 27.5186C30.9931 27.5186 31.3033 27.8286 31.3033 28.2099V29.5255Z" fill="url(#paint0_linear_86_531)"/>
<path d="M30.612 34.4202C29.0676 34.4202 27.8112 35.6765 27.8112 37.2209V38.5365C27.8112 40.0809 29.0676 41.3374 30.612 41.3374C32.1563 41.3374 33.4129 40.0809 33.4129 38.5365V37.2209C33.4127 35.6765 32.1563 34.4202 30.612 34.4202ZM31.3033 38.5365C31.3033 38.9178 30.9931 39.228 30.6118 39.228C30.2306 39.228 29.9205 38.9178 29.9205 38.5365V37.2209C29.9205 36.8397 30.2306 36.5296 30.6118 36.5296C30.9931 36.5296 31.3033 36.8397 31.3033 37.2209V38.5365Z" fill="url(#paint1_linear_86_531)"/>
<path d="M30.612 43.4312C29.0676 43.4312 27.8112 44.6876 27.8112 46.232V47.5476C27.8112 49.092 29.0676 50.3484 30.612 50.3484C32.1563 50.3484 33.4129 49.092 33.4129 47.5476V46.232C33.4127 44.6876 32.1563 43.4312 30.612 43.4312ZM31.3033 47.5476C31.3033 47.9288 30.9931 48.2389 30.6118 48.2389C30.2306 48.2389 29.9205 47.9288 29.9205 47.5476V46.232C29.9205 45.8508 30.2306 45.5407 30.6118 45.5407C30.9931 45.5407 31.3033 45.8508 31.3033 46.232V47.5476Z" fill="url(#paint2_linear_86_531)"/>
<path d="M71.6778 4.13688C71.3863 3.27159 70.7751 2.57196 69.9568 2.16667L66.3011 0.35579C64.6142 -0.481654 62.5593 0.209818 61.7203 1.89807L57.6913 10.0274C57.241 9.95244 56.784 9.91405 56.3244 9.91405H52.3304C51.8923 9.45898 51.3374 9.13159 50.7098 8.97367C49.8249 8.75091 48.9063 8.88633 48.1232 9.35463L47.1869 9.91405H8.39104C3.8424 9.91405 0.141754 13.6153 0.141754 18.1647V57.5943C0.141754 61.7864 3.28481 65.2559 7.33731 65.7753V68.697C7.33731 70.5183 8.81897 72 10.6403 72H15.3796C17.2009 72 18.6825 70.5183 18.6825 68.697V65.8449H46.0337V68.697C46.0337 70.5183 47.5154 72 49.3367 72H54.076C55.8973 72 57.379 70.5183 57.379 68.697V65.7752C61.4319 65.2554 64.5751 61.7863 64.5751 57.5943V20.7176L67.2272 15.3679C67.4859 14.846 67.2726 14.2132 66.7507 13.9545C66.2287 13.6957 65.596 13.909 65.3373 14.4309L59.4094 26.3882C59.1977 26.8162 58.7693 27.0938 58.2911 27.1124L53.3679 27.3065C52.8906 27.3239 52.4423 27.0813 52.1966 26.6703L45.2503 15.0505C45.0711 14.7515 45.0194 14.4005 45.1046 14.0623C45.1899 13.7237 45.4019 13.4384 45.7009 13.2595L49.2056 11.1652C49.8017 10.7921 50.6494 11.0055 50.9976 11.6169L54.5218 17.5121C54.7198 17.8433 55.0816 18.0396 55.4685 18.0248C55.8541 18.0096 56.2008 17.785 56.3721 17.4392L63.6098 2.83592C63.931 2.18973 64.7174 1.92479 65.3641 2.24556L69.0206 4.05686C69.3337 4.21183 69.5674 4.47945 69.6789 4.81021C69.7903 5.14111 69.7664 5.49563 69.6111 5.80867L67.2036 10.6646C66.9448 11.1865 67.1581 11.8193 67.68 12.078C68.202 12.3368 68.8347 12.1235 69.0935 11.6016L71.501 6.74568C71.9063 5.92821 71.9692 5.0016 71.6778 4.13688ZM16.573 68.697C16.573 69.3552 16.0376 69.8906 15.3794 69.8906H10.6401C9.98198 69.8906 9.4466 69.355 9.4466 68.697V65.8449H16.573V68.697ZM54.0759 69.8906H49.3365C48.6784 69.8906 48.143 69.355 48.143 68.697V65.8449H55.2694V68.697C55.2694 69.3552 54.734 69.8906 54.0759 69.8906ZM61.2997 27.3242L62.4656 24.9724V57.5943C62.4656 60.976 59.7179 63.7278 56.3379 63.7351C56.3332 63.7351 56.3289 63.7344 56.3242 63.7344H8.39188C8.38724 63.7344 8.38274 63.7351 8.37796 63.7351C4.99837 63.7281 2.25105 60.9761 2.25105 57.5941V18.1646C2.25105 14.7783 5.0054 12.0233 8.3909 12.0233H43.9018C43.4978 12.4455 43.2057 12.9649 43.059 13.5468C42.836 14.4325 42.9714 15.3515 43.4401 16.1338L43.4696 16.1831L7.46556 16.1833C6.88308 16.1833 6.41085 16.6555 6.41085 17.238V22.3375C4.75227 22.9686 3.57014 24.5743 3.57014 26.4519C3.57014 28.3294 4.75227 29.9351 6.41085 30.5662V45.1914C4.75227 45.8225 3.57014 47.4282 3.57014 49.3057C3.57014 51.1833 4.75227 52.789 6.41085 53.4201V58.5199C6.41085 59.1024 6.88308 59.5746 7.46556 59.5746L52.5693 59.5737C55.7318 59.5737 58.3047 57.0015 58.3047 53.8397V29.2228L58.3736 29.2201C59.6242 29.1713 60.7456 28.4444 61.2997 27.3242ZM36.4015 35.1609H40.4024C41.5039 35.1609 42.4003 36.0565 42.4003 37.1574C42.4003 37.6902 42.1922 38.1921 41.8151 38.5701C41.4378 38.9474 40.9361 39.1553 40.4024 39.1553H36.4015V35.1609ZM51.8769 44.6724C51.4995 45.0497 50.9978 45.2576 50.4641 45.2576H43.9921C44.3293 44.6539 44.5097 43.9714 44.5097 43.2611C44.5097 42.5367 44.3204 41.8561 43.9897 41.2646H50.4641C51.5656 41.2646 52.462 42.1602 52.462 43.2611C52.4619 43.7949 52.2544 44.2958 51.8769 44.6724ZM52.4619 49.3649C52.4619 50.4658 51.5656 51.3614 50.464 51.3614H43.9893C44.3202 50.7697 44.5096 50.0886 44.5096 49.3635C44.5096 48.6392 44.3203 47.9585 43.9895 47.367H50.464C51.5656 47.367 52.4619 48.2627 52.4619 49.3649ZM52.4619 55.4672C52.4619 56.0011 52.2544 56.502 51.8767 56.8787C51.4994 57.256 50.9978 57.4638 50.4641 57.4638H43.9921C44.3293 56.86 44.5097 56.1776 44.5097 55.4672C44.5097 54.754 44.3271 54.0704 43.9935 53.4707H50.4641C51.5656 53.4707 52.4619 54.3664 52.4619 55.4672ZM36.4015 41.2647H40.4024C41.5039 41.2647 42.4003 42.1604 42.4003 43.2612C42.4003 43.7941 42.1924 44.2953 41.8151 44.6726C41.4378 45.0499 40.9361 45.2577 40.4024 45.2577H36.4015V41.2647ZM36.4015 47.367H40.4024C41.5039 47.367 42.4003 48.2627 42.4003 49.3649C42.4003 50.4658 41.5041 51.3614 40.4024 51.3614H36.4015V47.367ZM36.4015 53.8392V53.4709H40.4024C40.7873 53.4709 41.1597 53.58 41.4821 53.7883C42.057 54.1569 42.4002 54.7845 42.4002 55.4674C42.4002 56.0002 42.1923 56.5014 41.8149 56.8789C41.7147 56.979 41.6028 57.0691 41.479 57.1485C41.1597 57.3548 40.7873 57.4639 40.4022 57.4639H35.1067C35.9155 56.4751 36.4015 55.213 36.4015 53.8392ZM34.2921 53.8392C34.2921 55.8337 32.673 57.4569 30.6801 57.4642H25.3415C26.1499 56.4756 26.6359 55.2134 26.6359 53.8396V48.0682C26.6359 47.4857 26.1637 47.0135 25.5812 47.0135C24.9987 47.0135 24.5265 47.4857 24.5265 48.0682V53.8396C24.5265 55.8278 22.9177 57.4466 20.9336 57.4642L8.52014 57.465V53.7067H11.4129C13.8396 53.7067 15.8139 51.7324 15.8139 49.3057C15.8139 46.879 13.8396 44.9048 11.4129 44.9048H8.52014V30.8531H11.4129C13.8396 30.8531 15.8139 28.8788 15.8139 26.4521C15.8139 24.0254 13.8396 22.0512 11.4129 22.0512H8.52014V18.2931L20.9093 18.2933C22.9045 18.2976 24.5265 19.9222 24.5265 21.9185V43.8496C24.5265 44.4321 24.9987 44.9043 25.5812 44.9043C26.1637 44.9043 26.6359 44.4321 26.6359 43.8496V21.9185C26.6359 20.5445 26.1498 19.282 25.3409 18.2933H30.6665C32.6655 18.2933 34.2919 19.9197 34.2919 21.9187V53.8392H34.2921ZM7.97126 24.1603H11.4132C12.6767 24.1603 13.7047 25.1883 13.7047 26.4519C13.7047 27.7154 12.6767 28.7434 11.4132 28.7434H7.97126C6.70771 28.7434 5.67972 27.7154 5.67972 26.4519C5.67972 25.1883 6.70757 24.1603 7.97126 24.1603ZM7.97126 47.0139H11.4132C12.6767 47.0139 13.7047 48.0419 13.7047 49.3055C13.7047 50.569 12.6767 51.597 11.4132 51.597H7.97126C6.70771 51.597 5.67972 50.569 5.67972 49.3055C5.67972 48.0419 6.70757 47.0139 7.97126 47.0139ZM53.3166 29.4169C53.361 29.4169 53.4059 29.416 53.4506 29.4142L56.1953 29.3059V53.8395C56.1953 55.2286 55.4092 56.437 54.2585 57.0452C54.4637 56.5521 54.5714 56.0181 54.5714 55.4672C54.5714 54.2573 54.0448 53.1681 53.209 52.416C54.0448 51.6638 54.5714 50.5743 54.5714 49.3635C54.5714 48.1543 54.0455 47.0658 53.2107 46.3137C53.264 46.2656 53.3163 46.2163 53.3675 46.1652C54.1439 45.3909 54.5716 44.3597 54.5716 43.2612C54.5716 40.9972 52.7291 39.1553 50.4642 39.1553H43.9915C44.3292 38.5507 44.5099 37.8678 44.5099 37.1574C44.5099 34.8934 42.6674 33.0514 40.4025 33.0514H36.4016V21.9183C36.4016 20.544 35.9153 19.2815 35.1063 18.2926H44.7309L50.386 27.7524C51.0047 28.7878 52.1183 29.417 53.3166 29.4169ZM55.3405 14.7704L53.6984 12.0235H56.3244C56.4486 12.0235 56.5723 12.0287 56.6958 12.036L55.3405 14.7704Z" fill="url(#paint3_linear_86_531)"/>
</g>
<defs>
<linearGradient id="paint0_linear_86_531" x1="30.612" y1="25.4091" x2="30.612" y2="32.3262" gradientUnits="userSpaceOnUse">
<stop stop-color="#1F4FDE"/>
<stop offset="1" stop-color="#986BE5"/>
</linearGradient>
<linearGradient id="paint1_linear_86_531" x1="30.612" y1="34.4202" x2="30.612" y2="41.3374" gradientUnits="userSpaceOnUse">
<stop stop-color="#1F4FDE"/>
<stop offset="1" stop-color="#986BE5"/>
</linearGradient>
<linearGradient id="paint2_linear_86_531" x1="30.612" y1="43.4312" x2="30.612" y2="50.3484" gradientUnits="userSpaceOnUse">
<stop stop-color="#1F4FDE"/>
<stop offset="1" stop-color="#986BE5"/>
</linearGradient>
<linearGradient id="paint3_linear_86_531" x1="36.0001" y1="-3.05176e-05" x2="36.0001" y2="72" gradientUnits="userSpaceOnUse">
<stop stop-color="#1F4FDE"/>
<stop offset="1" stop-color="#986BE5"/>
</linearGradient>
<clipPath id="clip0_86_531">
<rect width="72" height="72" fill="white"/>
</clipPath>
</defs>
</svg>
