<svg xmlns="http://www.w3.org/2000/svg" width="16.003" height="16.003" viewBox="0 0 16.003 16.003">
  <g id="info-button" transform="translate(-2 -2)">
    <path id="Path_1182" data-name="Path 1182" d="M10,18a8,8,0,1,1,8-8A8.025,8.025,0,0,1,10,18ZM10,3.6A6.4,6.4,0,1,0,16.4,10,6.42,6.42,0,0,0,10,3.6Z" fill="#d98704"/>
    <path id="Path_1183" data-name="Path 1183" d="M11.8,15.6a.756.756,0,0,1-.8-.8v-4a.8.8,0,1,1,1.6,0v4A.756.756,0,0,1,11.8,15.6Z" transform="translate(-1.799 -1.599)" fill="#d98704"/>
    <circle id="Ellipse_6" data-name="Ellipse 6" cx="1" cy="1" r="1" transform="translate(9 6.003)" fill="#d98704"/>
  </g>
</svg>
