<svg width="25" height="24" viewBox="0 0 25 24" fill="none" xmlns="http://www.w3.org/2000/svg">
    <path d="M12.0005 1.86918e-05C9.92453 -0.00303213 7.88339 0.5333 6.07708 1.55646C4.27078 2.57962 2.76127 4.0545 1.69648 5.83659C0.631694 7.61867 0.048155 9.64682 0.00304568 11.7223C-0.0420636 13.7978 0.452805 15.8493 1.43916 17.676L0.0564929 22.2827C-0.00340382 22.4818 -0.0158801 22.6922 0.0200613 22.8971C0.0560027 23.1019 0.139365 23.2955 0.263485 23.4624C0.387606 23.6293 0.549042 23.7648 0.734892 23.8582C0.920741 23.9515 1.12585 24.0001 1.33383 24C1.46385 23.9998 1.59316 23.9809 1.71782 23.944L6.32449 22.5613C7.93237 23.4287 9.71706 23.9175 11.5425 23.9904C13.368 24.0634 15.186 23.7185 16.8579 22.9823C18.5299 22.246 20.0117 21.1377 21.1903 19.7418C22.3689 18.346 23.2133 16.6994 23.659 14.9277C24.1047 13.156 24.1401 11.306 23.7623 9.51854C23.3845 7.73112 22.6036 6.05356 21.4791 4.61374C20.3546 3.17392 18.9162 2.00986 17.2735 1.2103C15.6309 0.41074 13.8274 -0.00320557 12.0005 1.86918e-05ZM12.0005 5.33335C12.2642 5.33335 12.522 5.41155 12.7412 5.55805C12.9605 5.70456 13.1314 5.9128 13.2323 6.15644C13.3332 6.40007 13.3596 6.66816 13.3082 6.9268C13.2567 7.18544 13.1298 7.42302 12.9433 7.60949C12.7568 7.79596 12.5192 7.92295 12.2606 7.97439C12.002 8.02584 11.7339 7.99944 11.4902 7.89852C11.2466 7.7976 11.0384 7.6267 10.8919 7.40744C10.7453 7.18817 10.6672 6.93039 10.6672 6.66668C10.6672 6.31306 10.8076 5.97392 11.0577 5.72387C11.3077 5.47382 11.6469 5.33335 12.0005 5.33335ZM13.3338 18.6667H12.0005C11.6469 18.6667 11.3077 18.5262 11.0577 18.2761C10.8076 18.0261 10.6672 17.687 10.6672 17.3333V12C10.3135 12 9.97439 11.8595 9.72434 11.6095C9.47429 11.3594 9.33382 11.0203 9.33382 10.6667C9.33382 10.3131 9.47429 9.97392 9.72434 9.72387C9.97439 9.47382 10.3135 9.33334 10.6672 9.33334H12.0005C12.3541 9.33334 12.6932 9.47382 12.9433 9.72387C13.1933 9.97392 13.3338 10.3131 13.3338 10.6667V16C13.6874 16 14.0266 16.1405 14.2766 16.3905C14.5267 16.6406 14.6671 16.9797 14.6671 17.3333C14.6671 17.687 14.5267 18.0261 14.2766 18.2761C14.0266 18.5262 13.6874 18.6667 13.3338 18.6667Z" fill="#986BE5"/>
</svg>