<svg id="information_1_" data-name="information (1)" xmlns="http://www.w3.org/2000/svg" width="16" height="16" viewBox="0 0 16 16">
  <path id="Path_1195" data-name="Path 1195" d="M8,0a8,8,0,1,0,8,8A8.009,8.009,0,0,0,8,0ZM8,14.545A6.545,6.545,0,1,1,14.545,8,6.553,6.553,0,0,1,8,14.545Z" fill="#303030"/>
  <path id="Path_1196" data-name="Path 1196" d="M145.9,70a.9.9,0,1,0,.9.9A.9.9,0,0,0,145.9,70Z" transform="translate(-137.904 -67.009)" fill="#303030"/>
  <path id="Path_1197" data-name="Path 1197" d="M150.9,140a.9.9,0,0,0-.9.9v5.41a.9.9,0,1,0,1.8,0V140.9A.9.9,0,0,0,150.9,140Z" transform="translate(-142.902 -134.205)" fill="#303030"/>
</svg>
