<svg width="761" height="658" viewBox="0 0 761 658" fill="none" xmlns="http://www.w3.org/2000/svg">
<g clip-path="url(#clip0_2236_11011)">
<path opacity="0.4" d="M29.1978 597.866C29.3771 594.744 -44.1464 500.96 41.4754 414.375C80.1272 375.286 145.508 396.465 135.165 282.284C126.234 183.697 280.464 125.768 376.317 213.788C438.243 270.656 500.938 194.79 599.181 237.838C697.424 280.883 632.731 397.88 673.045 408.907C752.458 430.623 791.898 526.188 728.587 596.809L29.2016 597.87L29.1978 597.866Z" fill="url(#paint0_linear_2236_11011)"/>
<path d="M249.799 147.282H454.346C461.267 147.282 466.885 152.9 466.885 159.821V597.866H237.26V159.821C237.26 152.9 242.878 147.282 249.799 147.282Z" fill="url(#paint1_linear_2236_11011)" stroke="#4F4F4F" stroke-miterlimit="10"/>
<path d="M102.618 595.73C101.938 594.576 101.266 593.418 100.604 592.252" stroke="#4F4F4F" stroke-miterlimit="10"/>
<path d="M96.6823 585.122C75.2871 544.827 63.6184 498.648 64.7389 449.796C68.1678 300.384 189.928 181.486 338.409 180.615" stroke="#4F4F4F" stroke-miterlimit="10"/>
<path d="M342.477 180.623C343.814 180.634 345.155 180.656 346.496 180.686" stroke="#4F4F4F" stroke-miterlimit="10"/>
<path d="M35.1485 429.996C35.1485 433.447 35.1485 436.898 35.1485 440.346C35.1485 440.932 35.1485 440.936 35.7162 440.936C41.5618 440.936 47.4036 440.932 53.2492 440.947C53.7049 440.947 53.8319 440.787 53.8879 440.368C54.4632 436.271 56.2561 432.789 59.3563 430.048C63.0205 426.802 67.3309 425.356 72.2128 425.842C77.3226 426.346 81.3678 428.77 84.3597 432.924C85.9919 435.191 86.9332 437.75 87.288 440.518C87.3329 440.869 87.4711 440.943 87.7923 440.943C93.7051 440.936 99.6179 440.936 105.531 440.943C105.863 440.943 105.998 440.854 105.998 440.499C105.99 434.571 105.99 428.643 105.998 422.716C105.998 422.368 105.886 422.241 105.531 422.193C100.865 421.558 97.0556 419.388 94.2243 415.634C91.4939 412.011 90.3883 407.894 90.9635 403.375C91.5163 399.042 93.5071 395.467 96.8128 392.636C99.3415 390.47 102.296 389.218 105.594 388.789C105.927 388.744 106.005 388.617 106.005 388.314C106.001 382.402 105.998 376.489 106.005 370.576C106.005 370.176 105.859 370.049 105.49 370.087C105.351 370.102 105.213 370.087 105.071 370.087C98.2807 370.087 91.4901 370.087 84.6996 370.087C84.1281 370.087 84.1131 370.076 84.1169 369.504C84.1281 368.503 84.0907 367.502 83.9525 366.508C83.086 360.323 78.021 355.396 71.4919 354.933C68.8026 354.743 66.2514 355.31 63.9169 356.666C60.0772 358.9 57.8435 362.243 57.1824 366.635C57.033 367.629 57.0031 368.63 57.033 369.631C57.0442 369.982 56.906 370.117 56.5698 370.09C56.4316 370.079 56.2934 370.09 56.1515 370.09C49.3908 370.09 42.6263 370.09 35.8656 370.09C35.39 370.09 35.1522 370.322 35.1522 370.785C35.1522 377.602 35.1522 384.422 35.1522 391.239C35.1522 391.979 35.1522 391.994 34.394 391.979C32.8551 391.945 31.3348 392.053 29.852 392.479C22.7551 394.5 18.5978 401.728 20.3907 408.739C21.5897 413.419 24.533 416.579 29.0564 418.267C30.8306 418.928 32.687 419.063 34.562 419.022C35.1298 419.007 35.1522 419.044 35.1522 419.604C35.1522 423.07 35.1522 426.533 35.1522 429.999L35.1485 429.996Z" fill="white" stroke="#4F4F4F" stroke-miterlimit="10"/>
<path d="M104.941 548.924C120.133 533.732 120.133 509.1 104.941 493.908C89.7485 478.716 65.1171 478.716 49.9249 493.908C34.7327 509.1 34.7327 533.732 49.9249 548.924C65.1171 564.116 89.7485 564.116 104.941 548.924Z" fill="#1F4FDE" stroke="#4F4F4F" stroke-miterlimit="10"/>
<path d="M66.3852 513.011L53.4463 515.346L59.1194 546.782L72.0583 544.447L66.3852 513.011Z" fill="white" stroke="#4F4F4F" stroke-miterlimit="10"/>
<path d="M67.2334 517.941C67.2334 517.941 80.6913 511.759 74.8644 496.579C74.8644 496.579 80.4 492.971 82.5701 498.282C85.0092 504.251 83.0295 510.015 83.0295 510.015C83.0295 510.015 85.4574 509.548 89.6334 508.823C91.0191 508.584 92.5916 508.341 93.955 508.823C95.4752 509.361 96.338 511.064 96.2671 512.622C96.1998 514.105 95.0531 514.915 93.9326 515.666C94.2725 515.438 95.8039 516.462 96.0467 516.645C98.3438 518.348 97.4212 521.321 95.6321 523.021C95.6321 523.021 98.5306 523.491 98.8556 525.751C99.1805 528.011 97.0328 530.095 97.0328 530.095C97.0328 530.095 99.9201 531.462 98.1944 534.689C95.1017 540.46 78.8573 541.032 71.2861 540.37L67.2409 517.941H67.2334Z" fill="white" stroke="#4F4F4F" stroke-miterlimit="10"/>
<path d="M134.586 1H77.4118C70.1648 1 64.29 6.8748 64.29 14.1217V42.4233C64.29 49.6703 70.1648 55.5451 77.4118 55.5451H134.586C141.833 55.5451 147.708 49.6703 147.708 42.4233V14.1217C147.708 6.8748 141.833 1 134.586 1Z" fill="#E5E5E5" stroke="#4F4F4F" stroke-miterlimit="10"/>
<path d="M74.7295 13.3747L105.926 28.2707L135.213 13.3747" fill="#E5E5E5"/>
<path d="M74.7295 13.3747L105.926 28.2707L135.213 13.3747" stroke="#4F4F4F" stroke-miterlimit="10"/>
<path d="M445.781 250.908H263.298C259.471 250.908 256.369 254.01 256.369 257.837V286.217C256.369 290.043 259.471 293.145 263.298 293.145H445.781C449.607 293.145 452.71 290.043 452.71 286.217V257.837C452.71 254.01 449.607 250.908 445.781 250.908Z" fill="#E5E5E5" stroke="#4F4F4F" stroke-miterlimit="10"/>
<path d="M286.046 273.99C287.135 269.378 284.279 264.757 279.667 263.669C275.055 262.58 270.434 265.436 269.346 270.048C268.257 274.66 271.114 279.281 275.725 280.369C280.337 281.458 284.958 278.602 286.046 273.99Z" fill="#E5E5E5" stroke="#4F4F4F" stroke-miterlimit="10"/>
<path d="M396.917 273.985C398.005 269.373 395.149 264.752 390.537 263.664C385.925 262.576 381.304 265.432 380.216 270.043C379.127 274.655 381.984 279.276 386.595 280.365C391.207 281.453 395.828 278.597 396.917 273.985Z" fill="white" stroke="#4F4F4F" stroke-miterlimit="10"/>
<path d="M363.942 280.606H300.806C296.066 280.606 292.227 276.767 292.227 272.027C292.227 267.287 296.066 263.447 300.806 263.447H363.942C368.682 263.447 372.522 267.287 372.522 272.027C372.522 276.767 368.682 280.606 363.942 280.606Z" fill="#E5E5E5" stroke="#4F4F4F" stroke-miterlimit="10"/>
<path d="M420.669 259.215H412.31V284.842H420.669V259.215Z" fill="#E5E5E5" stroke="#4F4F4F" stroke-miterlimit="10"/>
<path d="M432.551 259.215H424.191V284.842H432.551V259.215Z" fill="#E5E5E5" stroke="#4F4F4F" stroke-miterlimit="10"/>
<path d="M445.781 321.204H263.298C259.471 321.204 256.369 324.306 256.369 328.133V356.513C256.369 360.34 259.471 363.442 263.298 363.442H445.781C449.607 363.442 452.71 360.34 452.71 356.513V328.133C452.71 324.306 449.607 321.204 445.781 321.204Z" fill="#E5E5E5" stroke="#4F4F4F" stroke-miterlimit="10"/>
<path d="M283.775 348.389C287.125 345.039 287.125 339.606 283.775 336.256C280.424 332.905 274.992 332.905 271.641 336.256C268.29 339.606 268.29 345.039 271.641 348.389C274.992 351.74 280.424 351.74 283.775 348.389Z" fill="white" stroke="#4F4F4F" stroke-miterlimit="10"/>
<path d="M394.649 348.39C397.999 345.04 397.999 339.607 394.649 336.257C391.298 332.906 385.866 332.906 382.515 336.257C379.164 339.607 379.164 345.04 382.515 348.39C385.866 351.741 391.298 351.741 394.649 348.39Z" fill="#E5E5E5" stroke="#4F4F4F" stroke-miterlimit="10"/>
<path d="M363.942 350.903H300.806C296.066 350.903 292.227 347.063 292.227 342.323C292.227 337.583 296.066 333.743 300.806 333.743H363.942C368.682 333.743 372.522 337.583 372.522 342.323C372.522 347.063 368.682 350.903 363.942 350.903Z" fill="#E5E5E5" stroke="#4F4F4F" stroke-miterlimit="10"/>
<path d="M420.669 329.508H412.31V355.135H420.669V329.508Z" fill="white" stroke="#4F4F4F" stroke-miterlimit="10"/>
<path d="M444.429 329.508H436.069V355.135H444.429V329.508Z" fill="#E5E5E5" stroke="#4F4F4F" stroke-miterlimit="10"/>
<path d="M445.781 180.615H263.298C259.471 180.615 256.369 183.717 256.369 187.544V215.924C256.369 219.751 259.471 222.853 263.298 222.853H445.781C449.607 222.853 452.71 219.751 452.71 215.924V187.544C452.71 183.717 449.607 180.615 445.781 180.615Z" fill="#E5E5E5" stroke="#4F4F4F" stroke-miterlimit="10"/>
<path d="M283.772 207.801C287.122 204.451 287.122 199.018 283.772 195.668C280.421 192.317 274.989 192.317 271.638 195.668C268.287 199.018 268.287 204.451 271.638 207.801C274.989 211.152 280.421 211.152 283.772 207.801Z" fill="white" stroke="#4F4F4F" stroke-miterlimit="10"/>
<path d="M394.646 207.802C397.996 204.451 397.996 199.019 394.646 195.668C391.295 192.318 385.863 192.318 382.512 195.668C379.162 199.019 379.162 204.451 382.512 207.802C385.863 211.153 391.295 211.153 394.646 207.802Z" fill="#E5E5E5" stroke="#4F4F4F" stroke-miterlimit="10"/>
<path d="M416.207 207.8C419.558 204.45 419.558 199.017 416.207 195.667C412.857 192.316 407.424 192.316 404.074 195.667C400.723 199.017 400.723 204.45 404.074 207.8C407.424 211.151 412.857 211.151 416.207 207.8Z" fill="#E5E5E5" stroke="#4F4F4F" stroke-miterlimit="10"/>
<path d="M363.942 193.154H300.806C296.068 193.154 292.227 196.996 292.227 201.734C292.227 206.473 296.068 210.314 300.806 210.314H363.942C368.681 210.314 372.522 206.473 372.522 201.734C372.522 196.996 368.681 193.154 363.942 193.154Z" fill="#E5E5E5" stroke="#4F4F4F" stroke-miterlimit="10"/>
<path d="M432.551 188.919H424.191V214.546H432.551V188.919Z" fill="#E5E5E5" stroke="#4F4F4F" stroke-miterlimit="10"/>
<path d="M444.429 188.919H436.069V214.546H444.429V188.919Z" fill="#E5E5E5" stroke="#4F4F4F" stroke-miterlimit="10"/>
<path d="M445.781 391.497H263.298C259.471 391.497 256.369 394.599 256.369 398.426V426.806C256.369 430.632 259.471 433.734 263.298 433.734H445.781C449.607 433.734 452.71 430.632 452.71 426.806V398.426C452.71 394.599 449.607 391.497 445.781 391.497Z" fill="#E5E5E5" stroke="#4F4F4F" stroke-miterlimit="10"/>
<path d="M283.771 418.682C287.121 415.331 287.121 409.899 283.771 406.548C280.42 403.198 274.988 403.198 271.637 406.549C268.287 409.899 268.287 415.331 271.637 418.682C274.988 422.033 280.42 422.033 283.771 418.682Z" fill="#E5E5E5" stroke="#4F4F4F" stroke-miterlimit="10"/>
<path d="M394.646 418.683C397.996 415.332 397.996 409.9 394.646 406.549C391.295 403.199 385.863 403.199 382.512 406.549C379.162 409.9 379.162 415.332 382.512 418.683C385.863 422.034 391.295 422.034 394.646 418.683Z" fill="white" stroke="#4F4F4F" stroke-miterlimit="10"/>
<path d="M363.942 404.036H300.806C296.068 404.036 292.227 407.877 292.227 412.616C292.227 417.354 296.068 421.195 300.806 421.195H363.942C368.681 421.195 372.522 417.354 372.522 412.616C372.522 407.877 368.681 404.036 363.942 404.036Z" fill="#E5E5E5" stroke="#4F4F4F" stroke-miterlimit="10"/>
<path d="M420.669 399.804H412.31V425.431H420.669V399.804Z" fill="#E5E5E5" stroke="#4F4F4F" stroke-miterlimit="10"/>
<path d="M432.551 399.804H424.191V425.431H432.551V399.804Z" fill="#E5E5E5" stroke="#4F4F4F" stroke-miterlimit="10"/>
<path d="M445.777 461.793H285.728C281.901 461.793 278.799 464.895 278.799 468.722V497.102C278.799 500.929 281.901 504.031 285.728 504.031H445.777C449.604 504.031 452.706 500.929 452.706 497.102V468.722C452.706 464.895 449.604 461.793 445.777 461.793Z" fill="#E5E5E5" stroke="#4F4F4F" stroke-miterlimit="10"/>
<path d="M396.918 484.86C398.006 480.248 395.15 475.627 390.538 474.539C385.926 473.45 381.305 476.307 380.217 480.918C379.128 485.53 381.985 490.151 386.596 491.24C391.208 492.328 395.829 489.472 396.918 484.86Z" fill="white" stroke="#4F4F4F" stroke-miterlimit="10"/>
<path d="M363.942 491.492H300.806C296.066 491.492 292.227 487.652 292.227 482.912C292.227 478.172 296.066 474.332 300.806 474.332H363.942C368.682 474.332 372.522 478.172 372.522 482.912C372.522 487.652 368.682 491.492 363.942 491.492Z" fill="white" stroke="#4F4F4F" stroke-miterlimit="10"/>
<path d="M420.669 470.097H412.31V495.724H420.669V470.097Z" fill="#E5E5E5" stroke="#4F4F4F" stroke-miterlimit="10"/>
<path d="M444.429 470.097H436.069V495.724H444.429V470.097Z" fill="#E5E5E5" stroke="#4F4F4F" stroke-miterlimit="10"/>
<path d="M445.781 532.086H263.298C259.471 532.086 256.369 535.188 256.369 539.015V567.395C256.369 571.221 259.471 574.323 263.298 574.323H445.781C449.607 574.323 452.71 571.221 452.71 567.395V539.015C452.71 535.188 449.607 532.086 445.781 532.086Z" fill="#E5E5E5" stroke="#4F4F4F" stroke-miterlimit="10"/>
<path d="M283.77 559.274C287.12 555.923 287.12 550.491 283.77 547.14C280.419 543.79 274.987 543.79 271.636 547.14C268.286 550.491 268.286 555.923 271.636 559.274C274.987 562.625 280.419 562.625 283.77 559.274Z" fill="white" stroke="#4F4F4F" stroke-miterlimit="10"/>
<path d="M394.645 559.271C397.995 555.921 397.995 550.488 394.645 547.138C391.294 543.787 385.862 543.787 382.511 547.138C379.161 550.488 379.161 555.921 382.511 559.271C385.862 562.622 391.294 562.622 394.645 559.271Z" fill="#E5E5E5" stroke="#4F4F4F" stroke-miterlimit="10"/>
<path d="M415.808 559.272C419.158 555.921 419.158 550.489 415.808 547.139C412.457 543.788 407.025 543.788 403.674 547.138C400.324 550.489 400.324 555.921 403.674 559.272C407.025 562.623 412.457 562.623 415.808 559.272Z" fill="#E5E5E5" stroke="#4F4F4F" stroke-miterlimit="10"/>
<path d="M363.942 561.784H300.806C296.066 561.784 292.227 557.945 292.227 553.205C292.227 548.465 296.066 544.625 300.806 544.625H363.942C368.682 544.625 372.522 548.465 372.522 553.205C372.522 557.945 368.682 561.784 363.942 561.784Z" fill="#E5E5E5" stroke="#4F4F4F" stroke-miterlimit="10"/>
<path d="M432.551 540.393H424.191V566.02H432.551V540.393Z" fill="#E5E5E5" stroke="#4F4F4F" stroke-miterlimit="10"/>
<path d="M444.429 540.393H436.069V566.02H444.429V540.393Z" fill="#E5E5E5" stroke="#4F4F4F" stroke-miterlimit="10"/>
<path d="M591.771 590.749H679.627L662.975 656.996H571.93L591.771 590.749Z" fill="white" stroke="#4F4F4F" stroke-miterlimit="10"/>
<path d="M584.069 647.964L598.495 599.784H668.04L655.934 647.964H584.069Z" fill="#E5E5E5" stroke="#4F4F4F" stroke-miterlimit="10"/>
<path d="M676.642 656.996L680.246 590.401L663.173 656.996H676.642Z" fill="#4F4F4F"/>
<path d="M650.971 616.79H605.61L606.798 612.458H652.158L650.971 616.79Z" fill="white"/>
<path d="M648.427 625.583H603.066L604.254 621.25H649.614L648.427 625.583Z" fill="white"/>
<path d="M645.311 634.536H599.951L601.139 630.203H646.499L645.311 634.536Z" fill="white"/>
<path d="M703.079 375.055H594.434C585.875 375.055 578.937 381.993 578.937 390.552V426.738C578.937 435.297 585.875 442.236 594.434 442.236H703.079C711.638 442.236 718.577 435.297 718.577 426.738V390.552C718.577 381.993 711.638 375.055 703.079 375.055Z" fill="#E5E5E5" stroke="#4F4F4F" stroke-miterlimit="10"/>
<path d="M696.812 392.136H596.836V397.432H696.812V392.136Z" fill="white"/>
<path d="M696.812 402.437H596.836V407.734H696.812V402.437Z" fill="white"/>
<path d="M696.812 412.735H596.836V418.032H696.812V412.735Z" fill="white"/>
<path d="M667.973 423.033H596.836V428.33H667.973V423.033Z" fill="white"/>
<path d="M501.801 197.584V557.989" stroke="#4F4F4F" stroke-miterlimit="10"/>
<path d="M188.164 120.411V391.497H237.259" fill="#F2F2F2"/>
<path d="M188.164 120.411V391.497H237.259" stroke="#4F4F4F" stroke-miterlimit="10"/>
<path d="M452.706 271.616H495.437" stroke="#4F4F4F" stroke-miterlimit="10"/>
<path d="M501.801 278.391C505.316 278.391 508.166 275.542 508.166 272.027C508.166 268.512 505.316 265.662 501.801 265.662C498.286 265.662 495.437 268.512 495.437 272.027C495.437 275.542 498.286 278.391 501.801 278.391Z" fill="#F2F2F2" stroke="#4F4F4F" stroke-miterlimit="10"/>
<path d="M452.706 412.205H495.437" stroke="#4F4F4F" stroke-miterlimit="10"/>
<path d="M508.102 413.655C508.666 410.185 506.309 406.916 502.84 406.353C499.37 405.789 496.101 408.146 495.537 411.615C494.974 415.085 497.33 418.354 500.8 418.918C504.27 419.481 507.539 417.125 508.102 413.655Z" fill="#F2F2F2" stroke="#4F4F4F" stroke-miterlimit="10"/>
<path d="M452.706 557.579H495.437" stroke="#4F4F4F" stroke-miterlimit="10"/>
<path d="M501.801 564.354C505.316 564.354 508.166 561.505 508.166 557.989C508.166 554.474 505.316 551.625 501.801 551.625C498.286 551.625 495.437 554.474 495.437 557.989C495.437 561.505 498.286 564.354 501.801 564.354Z" fill="#F2F2F2" stroke="#4F4F4F" stroke-miterlimit="10"/>
<path d="M237.26 201.734H194.529" stroke="#4F4F4F" stroke-miterlimit="10"/>
<path d="M188.165 207.684C191.68 207.684 194.529 204.835 194.529 201.319C194.529 197.804 191.68 194.955 188.165 194.955C184.649 194.955 181.8 197.804 181.8 201.319C181.8 204.835 184.649 207.684 188.165 207.684Z" fill="#F2F2F2" stroke="#4F4F4F" stroke-miterlimit="10"/>
<path d="M237.26 343.145H194.529" stroke="#4F4F4F" stroke-miterlimit="10"/>
<path d="M188.165 349.099C191.68 349.099 194.529 346.249 194.529 342.734C194.529 339.219 191.68 336.369 188.165 336.369C184.649 336.369 181.8 339.219 181.8 342.734C181.8 346.249 184.649 349.099 188.165 349.099Z" fill="#F2F2F2" stroke="#4F4F4F" stroke-miterlimit="10"/>
<path d="M372.522 163.855C399.1 163.855 420.646 142.31 420.646 115.731C420.646 89.1529 399.1 67.607 372.522 67.607C345.943 67.607 324.397 89.1529 324.397 115.731C324.397 142.31 345.943 163.855 372.522 163.855Z" fill="white" stroke="#4F4F4F" stroke-miterlimit="10"/>
<path d="M368.226 91.5346C365.567 92.0053 363.049 92.9017 360.749 94.1605L355.609 90.1862L352.3 93.1482L348.99 96.1102L352.378 101.653C350.873 103.801 349.707 106.206 348.949 108.799L342.502 109.624L342.259 114.062L342.017 118.499L348.333 120.027C348.803 122.686 349.7 125.204 350.959 127.505L346.984 132.644L349.946 135.954L352.908 139.263L358.451 135.875C360.599 137.38 363.005 138.546 365.597 139.304L366.422 145.751L370.86 145.994L375.297 146.237L376.825 139.92C379.484 139.45 382.002 138.553 384.303 137.294L389.442 141.269L392.752 138.307L396.061 135.345L392.677 129.802C394.182 127.654 395.348 125.248 396.106 122.656L402.553 121.831L402.796 117.393L403.039 112.956L396.722 111.428C396.252 108.769 395.355 106.251 394.096 103.95L398.071 98.8108L395.109 95.5014L392.147 92.192L386.604 95.5798C384.456 94.0746 382.05 92.9092 379.458 92.1509L378.633 85.704L374.195 85.4612L369.758 85.2184L368.23 91.5346H368.226ZM383.914 116.355C383.567 122.645 378.188 127.467 371.894 127.12C365.604 126.772 360.782 121.394 361.13 115.1C361.477 108.81 366.856 103.988 373.149 104.335C379.44 104.683 384.262 110.061 383.914 116.355Z" fill="#986BE5" stroke="#4F4F4F" stroke-miterlimit="10"/>
<path d="M237.259 445.422L209.806 472.879H220.858V520.398H253.661V472.879H264.713L237.259 445.422Z" fill="white" stroke="#4F4F4F" stroke-miterlimit="10"/>
<path d="M174.987 520.398L202.441 492.945H191.388V445.422H158.586V492.945H147.533L174.987 520.398Z" fill="white" stroke="#4F4F4F" stroke-miterlimit="10"/>
<path d="M531.686 166.69C530.211 159.672 524.724 154.136 517.772 152.654C524.724 151.171 530.211 145.635 531.686 138.617C533.161 145.635 538.648 151.171 545.596 152.654C538.648 154.136 533.161 159.672 531.686 166.69Z" fill="white"/>
<path d="M531.686 140.208C533.468 146.162 538.129 150.864 544.027 152.654C538.129 154.447 533.468 159.145 531.686 165.099C529.904 159.145 525.239 154.443 519.341 152.654C525.243 150.861 529.904 146.162 531.686 140.208ZM531.686 134.833C531.686 144.675 523.786 152.654 514.041 152.654C523.786 152.654 531.686 160.636 531.686 170.474C531.686 160.632 539.582 152.654 549.327 152.654C539.582 152.654 531.686 144.672 531.686 134.833Z" fill="#4F4F4F"/>
<path d="M117.954 120.411H324.398" stroke="#4F4F4F" stroke-miterlimit="10"/>
<path d="M194.35 121.882C195.163 118.462 193.051 115.03 189.631 114.217C186.211 113.403 182.779 115.516 181.966 118.936C181.153 122.356 183.265 125.787 186.685 126.601C190.105 127.414 193.537 125.301 194.35 121.882Z" fill="#F2F2F2" stroke="#4F4F4F" stroke-miterlimit="10"/>
<path d="M657.398 305.728C674.174 288.951 674.174 261.752 657.398 244.975C640.622 228.199 613.422 228.199 596.646 244.975C579.869 261.752 579.869 288.951 596.646 305.728C613.422 322.504 640.622 322.504 657.398 305.728Z" fill="#50AD4E" stroke="#4F4F4F" stroke-miterlimit="10"/>
<path d="M596.174 278.548L604.533 270.331L616.856 282.653L647.761 253.209L655.605 260.657L616.434 299.226L596.174 278.548Z" fill="white" stroke="#4F4F4F" stroke-miterlimit="10"/>
</g>
<defs>
<linearGradient id="paint0_linear_2236_11011" x1="380.002" y1="170.478" x2="380.002" y2="597.87" gradientUnits="userSpaceOnUse">
<stop stop-color="#D0D0D0"/>
<stop offset="1" stop-color="#E5E5E5" stop-opacity="0"/>
</linearGradient>
<linearGradient id="paint1_linear_2236_11011" x1="352.072" y1="147.282" x2="352.072" y2="597.866" gradientUnits="userSpaceOnUse">
<stop stop-color="#CFE7FE"/>
<stop offset="1" stop-color="#CFE7FE" stop-opacity="0"/>
</linearGradient>
<clipPath id="clip0_2236_11011">
<rect width="761" height="657" fill="white" transform="translate(0 0.5)"/>
</clipPath>
</defs>
</svg>
