<svg width="85" height="82" viewBox="0 0 85 82" fill="none" xmlns="http://www.w3.org/2000/svg">
<rect width="85" height="81.4" rx="16" fill="#F68B57"/>
<path d="M46.3896 26.0656L32 43.85H40.4L38.3322 55.2182C38.3282 55.2405 38.3292 55.2634 38.3351 55.2853C38.341 55.3072 38.3516 55.3275 38.3662 55.3448C38.3807 55.3622 38.3989 55.3761 38.4195 55.3856C38.44 55.3951 38.4624 55.4001 38.4851 55.4C38.5092 55.4 38.5329 55.3943 38.5545 55.3835C38.576 55.3727 38.5947 55.357 38.6091 55.3377L53 37.55H44.6L46.6777 26.1805C46.6805 26.1578 46.6784 26.1348 46.6716 26.113C46.6649 26.0912 46.6535 26.0711 46.6384 26.0541C46.6232 26.037 46.6046 26.0233 46.5838 26.014C46.563 26.0047 46.5404 25.9999 46.5176 26C46.4926 26.0001 46.468 26.0061 46.4457 26.0175C46.4235 26.0289 46.4043 26.0454 46.3896 26.0656Z" stroke="white" stroke-width="2" stroke-linecap="round" stroke-linejoin="round"/>
</svg>
