<svg width="146" height="48" viewBox="0 0 146 48" fill="none" xmlns="http://www.w3.org/2000/svg">
<path opacity="0.6" d="M30.2356 1.77832H20.1641V46.3517H30.2356V1.77832Z" fill="#7E62D1"/>
<path opacity="0.8" d="M47.4875 18.9912H2.91406V29.0627H47.4875V18.9912Z" fill="#7E62D1"/>
<path d="M13.0278 4.73392L5.90625 11.8555L37.4241 43.3733L44.5456 36.2518L13.0278 4.73392Z" fill="#7E62D1"/>
<path d="M37.4241 4.6804L5.90625 36.1982L13.0278 43.3198L44.5456 11.802L37.4241 4.6804Z" fill="#7E62D1"/>
<path d="M30.2297 1.76465H20.1641V8.80925H30.2297V1.76465Z" fill="#679CE0"/>
<path d="M13.0312 4.73587L5.92188 11.8613L10.9088 16.8369L18.0181 9.71147L13.0312 4.73587Z" fill="#679CE0"/>
<path d="M39.5625 31.2593L32.4531 38.3848L37.44 43.3604L44.5494 36.2349L39.5625 31.2593Z" fill="#679CE0"/>
<path d="M37.4166 4.69725L32.4297 9.67285L39.539 16.7983L44.5259 11.8227L37.4166 4.69725Z" fill="#679CE0"/>
<path d="M10.8931 31.2236L5.90625 36.1992L13.0156 43.3247L18.0025 38.3491L10.8931 31.2236Z" fill="#679CE0"/>
<path d="M30.2297 39.3359H20.1641V46.3805H30.2297V39.3359Z" fill="#679CE0"/>
<path d="M9.96648 18.999H2.92188V29.0647H9.96648V18.999Z" fill="#679CE0"/>
<path d="M47.4977 18.998H40.4531V29.0637H47.4977V18.998Z" fill="#679CE0"/>
<path d="M62.9172 21.0686L57.9777 13.7018H53.8851V13.8712L60.5463 23.4678L53.6875 33.3466V33.4595H57.8648L62.9172 26.0363L67.9695 33.4595H72.1469V33.3466L65.2599 23.4678L71.9493 13.8712V13.7018H67.8566L62.9172 21.0686Z" fill="white"/>
<path d="M89.5076 16.9477C88.0117 13.8994 84.8222 13.0244 81.7457 13.0244C78.1046 13.0526 74.0966 14.7179 74.0966 18.7824C74.0966 23.2138 77.8223 24.2863 81.8586 24.7661C84.4835 25.0484 86.4311 25.8105 86.4311 27.6734C86.4311 29.8185 84.2295 30.637 81.8868 30.637C79.4876 30.637 77.2014 29.6773 76.3264 27.504L73.2216 29.1128C74.6893 32.7257 77.7941 33.9676 81.8303 33.9676C86.2335 33.9676 90.1286 32.0765 90.1286 27.6734C90.1286 22.9597 86.2899 21.8872 82.169 21.3791C79.7981 21.0969 77.7659 20.617 77.7659 18.8953C77.7659 17.4276 79.0925 16.2703 81.8586 16.2703C84.0037 16.2703 85.8666 17.3429 86.544 18.4719L89.5076 16.9477Z" fill="white"/>
<path d="M94.4718 15.9881V19.5727H91.875V22.5363H94.4718V28.5483C94.4718 32.02 96.4475 33.7418 99.4676 33.6289C100.512 33.6007 101.331 33.4313 102.318 33.0362L101.359 30.1007C100.851 30.3548 100.23 30.5241 99.6934 30.5241C98.6209 30.5241 97.887 29.8749 97.887 28.5483V22.5363H101.754V19.5727H97.9152V15.6211L94.4718 15.9881Z" fill="white"/>
<path d="M115.257 21.4638C114.467 20.0807 112.689 19.2058 110.826 19.2058C106.761 19.1775 103.572 21.6896 103.572 26.4879C103.572 31.3709 106.62 33.9111 110.741 33.8829C112.294 33.8547 114.467 33.0644 115.257 31.4273L115.427 33.4595H118.673V19.5445H115.37L115.257 21.4638ZM111.136 22.2823C116.556 22.2823 116.556 30.7217 111.136 30.7217C108.85 30.7217 107.015 29.1411 107.015 26.4879C107.015 23.8347 108.85 22.2823 111.136 22.2823Z" fill="white"/>
<path d="M121.504 13.73V33.4595H124.948V27.1653L130.395 33.4595H134.544V33.2055L128.081 26.0927L133.754 19.742V19.5445H129.633L124.948 25.1331V13.73H121.504Z" fill="white"/>
<path d="M138.719 13.4395C139.284 13.4395 139.765 13.638 140.161 14.0341C140.564 14.4303 140.766 14.911 140.766 15.4764C140.766 16.0417 140.565 16.5258 140.161 16.9287C139.765 17.3248 139.284 17.5233 138.719 17.5233C138.154 17.5233 137.673 17.3248 137.277 16.9287C136.874 16.5258 136.672 16.0417 136.672 15.4764C136.672 14.911 136.873 14.4303 137.277 14.0341C137.673 13.638 138.154 13.4395 138.719 13.4395ZM139.879 14.3264C139.56 14.0081 139.174 13.849 138.719 13.849C138.271 13.849 137.887 14.0081 137.569 14.3264C137.251 14.6447 137.091 15.0283 137.091 15.4764C137.091 15.9312 137.251 16.3181 137.569 16.6364C137.887 16.9546 138.271 17.1138 138.719 17.1138C139.174 17.1138 139.561 16.9546 139.879 16.6364C140.197 16.3181 140.356 15.9312 140.356 15.4764C140.356 15.0283 140.197 14.6447 139.879 14.3264ZM138.056 16.6171V14.4236H139.118C139.229 14.4236 139.324 14.4629 139.401 14.5408C139.479 14.6187 139.519 14.7134 139.519 14.8239V15.545C139.519 15.6556 139.479 15.7494 139.401 15.8281C139.356 15.8801 139.298 15.9161 139.226 15.9353L139.626 16.6179H139.149L138.515 15.5358H139.11V14.834H138.467V16.6179L138.056 16.6171Z" fill="white"/>
</svg>
