<svg width="132" height="48" viewBox="0 0 132 48" fill="none" xmlns="http://www.w3.org/2000/svg">
<g clip-path="url(#clip0_2236_9467)">
<path d="M10.1106 13.0884H7.72158V21.1934H10.227C14.7107 21.1934 17.6885 22.2544 17.6885 26.5807V26.656C17.6885 31.0234 14.7107 31.8448 10.227 31.8448H7.72158H7.17394H-0.321777V40.1483H9.96002C19.701 40.1483 25.9304 34.3503 25.9304 26.5397V26.4644C25.9235 18.6606 19.7763 13.0884 10.1106 13.0884Z" fill="white"/>
<path d="M43.3041 31.0371V29.9418C42.4689 29.5927 41.2847 29.3257 40.0593 29.3257C37.6498 29.3257 36.2464 30.51 36.2464 32.2624V32.3514C36.2464 33.9738 37.4718 34.939 39.1831 34.939C41.5996 34.939 43.3041 33.3987 43.3041 31.0371ZM28.2305 32.8306V32.7416C28.2305 27.8334 31.9544 25.2869 37.5197 25.2869C39.7102 25.2869 41.8597 25.725 43.2151 26.2042V25.8072C43.2151 23.3497 41.6817 21.9532 38.478 21.9532C35.9795 21.9532 34.0491 22.4324 31.9475 23.2675L30.2362 17.3942C32.9127 16.2989 35.7604 15.5528 39.8334 15.5528C44.0844 15.5528 46.98 16.559 48.8625 18.4484C50.656 20.2008 51.4022 22.6583 51.4022 25.9852V39.6144H43.174V37.1706C41.5516 38.9641 39.32 40.1483 36.2054 40.1483C31.6942 40.1483 28.2305 37.5676 28.2305 32.8306Z" fill="white"/>
<path d="M56.1734 23.1033H53.4147V16.7028H56.1734V16.0456C56.1734 13.328 56.7895 11.3155 58.1859 9.91215C59.6303 8.46777 61.5607 7.85168 64.3673 7.85168C66.907 7.85168 68.4883 8.11181 69.8026 8.50884V14.3822C68.8374 14.0742 67.8722 13.903 66.6879 13.903C65.1545 13.903 64.3194 14.6013 64.3194 16.1415V16.7096H69.7547V23.1101H64.4495V40.162H56.1665V23.1033H56.1734Z" fill="white"/>
<path d="M85.1774 33.0496C86.2727 33.0496 87.3269 32.7416 88.3331 32.2624V38.7929C86.8477 39.6281 84.8694 40.1483 82.5488 40.1483C77.5516 40.1483 74.5739 37.9578 74.5739 32.3035V23.1033H71.7672L71.7467 16.7028H74.5533L74.567 11.6646L82.8979 9.95323L82.8773 16.7028H88.4221V23.1033H82.8979V30.688C82.8979 32.3514 83.644 33.0496 85.1774 33.0496Z" fill="white"/>
<path d="M90.4209 16.7028H98.7449V21.2139C100.1 17.9692 102.298 15.8677 106.241 16.0388V24.8078H105.542C101.202 24.8078 98.7449 27.3063 98.7449 32.7827V40.1483H90.4209V16.7028Z" fill="white"/>
<path d="M123.327 31.0371V29.9418C122.492 29.5927 121.307 29.3257 120.082 29.3257C117.672 29.3257 116.269 30.51 116.269 32.2624V32.3514C116.269 33.9738 117.494 34.939 119.206 34.939C121.615 34.939 123.327 33.3987 123.327 31.0371ZM108.246 32.8306V32.7416C108.246 27.8334 111.97 25.2869 117.536 25.2869C119.726 25.2869 121.876 25.725 123.231 26.2042V25.8072C123.231 23.3497 121.698 21.9532 118.494 21.9532C115.995 21.9532 114.065 22.4324 111.963 23.2675L110.252 17.3942C112.929 16.2989 115.776 15.5528 119.849 15.5528C124.1 15.5528 126.996 16.559 128.878 18.4484C130.672 20.2008 131.418 22.6583 131.418 25.9852V39.6144H123.176V37.1706C121.554 38.9641 119.322 40.1483 116.208 40.1483C111.71 40.1483 108.246 37.5676 108.246 32.8306Z" fill="white"/>
</g>
<defs>
<clipPath id="clip0_2236_9467">
<rect width="131.432" height="48" fill="white"/>
</clipPath>
</defs>
</svg>
