<svg width="115" height="48" viewBox="0 0 115 48" fill="none" xmlns="http://www.w3.org/2000/svg">
<g clip-path="url(#clip0_2236_9441)">
<path d="M114.146 34.0951L111.37 10.9508C110.623 4.71953 105.327 0.0188599 99.0497 0.0188599H72.533C66.2561 0.0188599 60.9593 4.71953 60.2124 10.9508L57.4389 34.0951C57.017 37.6154 58.1234 41.1559 60.4778 43.8077C62.8293 46.4614 66.2131 47.981 69.7596 47.981H101.826C105.369 47.981 108.753 46.4614 111.108 43.8077C113.459 41.1566 114.569 37.6162 114.146 34.0951ZM106.541 39.7855C105.281 41.2054 103.542 41.9863 101.647 41.9863H69.9393C68.0412 41.9863 66.3017 41.2054 65.045 39.7855C63.7848 38.3659 63.2179 36.5474 63.4425 34.663L66.1848 11.7781C66.5786 8.49428 69.3715 6.01378 72.6816 6.01378H98.9018C102.211 6.01378 105.005 8.49354 105.398 11.7781L108.144 34.663C108.368 36.5474 107.798 38.3659 106.541 39.7855Z" fill="white"/>
<path d="M101.724 26.9909C101.287 26.3218 100.617 25.8626 99.835 25.6982C99.0519 25.5336 98.2543 25.6836 97.585 26.1194C89.6011 31.3262 81.8314 31.3255 73.8324 26.1187C73.1631 25.6829 72.3634 25.5329 71.5824 25.699C70.8007 25.8641 70.1309 26.3239 69.6951 26.993C69.2592 27.6624 69.1099 28.4614 69.2753 29.243C69.4404 30.0247 69.9003 30.6946 70.5694 31.1304C75.5681 34.3846 80.664 36.0341 85.7155 36.0341C90.768 36.0341 95.8601 34.3838 100.852 31.129C101.521 30.6924 101.98 30.0218 102.144 29.2402C102.31 28.4592 102.16 27.6602 101.724 26.9909Z" fill="white"/>
<path d="M47.3323 14.4964L44.4958 15.4738C44.8054 16.4752 45.1867 17.905 45.1867 18.7388C45.1867 19.6445 44.6146 20.1926 43.5182 20.1926C42.3982 20.1926 41.7309 19.9301 41.7309 18.4524V15.9023H38.7278V18.4524C38.7278 19.9301 38.0606 20.1926 36.8685 20.1926C35.7005 20.1926 35.0335 19.9301 35.0335 18.4524V15.9023H32.0064V18.4285C32.0064 19.9301 31.1957 20.1919 29.4562 20.1919C27.6689 20.1919 27.049 19.8344 27.049 17.8796V6.94113H23.8789V18.0479C23.8789 19.8591 23.259 20.1926 21.4724 20.1926H21.4717C20.065 20.1926 19.2319 19.9077 19.2319 18.1196V9.91975H16.2519V11.6135C10.6028 12.7794 8.57764 15.1396 8.57764 18.0957C8.57764 20.9068 10.436 22.7195 13.1529 22.7195C15.1802 22.7195 16.2033 21.6942 16.6572 20.3115C17.0625 22.7666 18.4902 24.1951 21.2766 24.1966L21.281 24.1973C23.4025 24.1973 24.5938 23.2437 25.0942 21.79C25.7141 23.4105 27.12 24.1973 29.2649 24.1973C31.2427 24.1973 32.5298 23.4823 33.03 22.0046C33.5304 23.5062 34.7225 24.1973 36.4147 24.1973C38.1072 24.1973 39.2753 23.4823 39.7514 21.9807C40.2518 23.4823 41.4679 24.1973 43.422 24.1973C46.3773 24.1973 48.1886 22.2663 48.1886 18.7628C48.1901 17.4758 47.8325 15.7117 47.3323 14.4964ZM16.2526 18.0232C15.7769 18.4046 14.8699 18.6917 13.535 18.6917C12.319 18.6917 11.1045 18.3589 11.1045 17.5475C11.1045 16.6644 12.3669 15.7834 16.2519 15.1396V18.0232H16.2526Z" fill="white"/>
<path d="M17.8608 9.18019C18.828 9.18019 19.6242 8.47831 19.6242 7.4922C19.6242 6.44954 18.7896 5.80423 17.8608 5.80423C16.8935 5.80423 16.0778 6.46766 16.0778 7.4922C16.0778 8.5356 16.9501 9.18019 17.8608 9.18019Z" fill="white"/>
<path d="M13.8751 9.18019C14.8423 9.18019 15.6384 8.47831 15.6384 7.4922C15.6384 6.44954 14.8039 5.80423 13.8751 5.80423C12.9078 5.80423 12.0921 6.46766 12.0921 7.4922C12.0921 8.5356 12.9644 9.18019 13.8751 9.18019Z" fill="white"/>
<path d="M0.0377197 41.2618L0.506844 38.7132C1.42406 39.3657 3.05547 39.9566 4.42081 39.9566C5.60341 39.9566 6.29658 39.5695 6.29658 38.917C6.29658 37.1434 0.139954 38.7946 0.139954 34.4933C0.139954 32.2507 1.99542 30.7831 4.99215 30.7831C6.60255 30.7831 8.09113 31.2319 9.15119 31.7822L8.64147 34.2694C7.6423 33.7392 6.37851 33.2498 5.1553 33.2498C4.03434 33.2498 3.34117 33.6775 3.34117 34.2895C3.34117 36.145 9.49777 34.555 9.49777 38.5704C9.49777 40.7724 7.39796 42.3211 4.29899 42.3211C2.44352 42.3218 0.954938 41.7715 0.0377197 41.2618Z" fill="white"/>
<path d="M19.8119 31.1501H23.0327V42.0158H19.8119V40.2221C18.9353 41.5265 17.6918 42.2813 16.0814 42.2813C13.3493 42.2813 10.7195 40.3447 10.7195 36.5729C10.7195 32.801 13.2268 30.8237 16.0814 30.8237C17.6715 30.8237 18.915 31.4146 19.8119 32.5973V31.1501ZM19.8119 36.5323C19.221 34.5137 18.0384 33.4949 16.6927 33.4949C15.2454 33.4949 14.1237 34.5751 14.1237 36.5323C14.1237 38.4689 15.265 39.6108 16.713 39.6108C18.1203 39.6101 19.2819 38.3666 19.8119 36.5323Z" fill="white"/>
<path d="M25.398 42.0158V27.684H28.6188V42.0158H25.398Z" fill="white"/>
<path d="M30.984 42.0158V27.684H34.2048V42.0158H30.984Z" fill="white"/>
<path d="M45.1315 31.1501H48.3523V42.0158H45.1315V40.2221C44.255 41.5265 43.0114 42.2813 41.401 42.2813C38.669 42.2813 36.0391 40.3447 36.0391 36.5729C36.0391 32.801 38.5464 30.8237 41.401 30.8237C42.9912 30.8237 44.2346 31.4146 45.1315 32.5973V31.1501ZM45.1315 36.5323C44.5406 34.5137 43.3582 33.4949 42.0122 33.4949C40.565 33.4949 39.4433 34.5751 39.4433 36.5323C39.4433 38.4689 40.5847 39.6108 42.0326 39.6108C43.4393 39.6101 44.6016 38.3666 45.1315 36.5323Z" fill="white"/>
</g>
<defs>
<clipPath id="clip0_2236_9441">
<rect width="114.48" height="48" fill="white"/>
</clipPath>
</defs>
</svg>
