<svg width="30" height="33" viewBox="0 0 30 33" fill="none" xmlns="http://www.w3.org/2000/svg">
<path d="M29.9985 16.254C29.9983 16.2071 29.9936 16.1606 29.9847 16.1148C29.9794 16.0894 29.9705 16.0656 29.9624 16.0413C29.9556 16.0191 29.9509 15.9966 29.9418 15.9754C29.9295 15.945 29.913 15.9173 29.8968 15.8896C29.8884 15.8755 29.8826 15.8603 29.8732 15.847C29.845 15.8046 29.8128 15.7648 29.7764 15.7292L23.457 9.40801C23.164 9.11504 22.6893 9.11504 22.3966 9.40801C22.1036 9.70097 22.1036 10.1757 22.3966 10.4684L27.4385 15.5111H10.4371C10.023 15.5111 9.68713 15.8473 9.68713 16.2611C9.68713 16.6752 10.0233 17.011 10.4371 17.011H27.4391L22.396 22.0537C22.103 22.3467 22.103 22.8214 22.396 23.1141C22.5427 23.2609 22.7342 23.3339 22.9262 23.3339C23.1182 23.3339 23.3099 23.2606 23.4564 23.1141L29.7795 16.7918C29.7879 16.7835 29.7937 16.773 29.802 16.7644C29.8271 16.7369 29.852 16.7092 29.8726 16.678C29.8873 16.6563 29.8975 16.6328 29.9098 16.6098C29.9203 16.5891 29.9331 16.5703 29.942 16.5486C29.9532 16.5216 29.96 16.4934 29.9679 16.4649C29.9731 16.4458 29.9807 16.4277 29.9849 16.4084C29.9943 16.36 29.9995 16.3105 29.9995 16.2611C29.9995 16.2585 29.9987 16.2561 29.9987 16.254L29.9985 16.254ZM0.749438 25.7769C1.16352 25.7769 1.49937 25.4408 1.49937 25.027V2.62491C1.49937 2.00471 2.00421 1.49985 2.62442 1.49985H16.7417C17.3619 1.49985 17.8668 2.0047 17.8668 2.62491V10.9492C17.8668 11.3632 18.2029 11.6991 18.6167 11.6991C19.0308 11.6991 19.3666 11.363 19.3666 10.9492L19.3669 2.62491C19.3669 1.17789 18.189 0 16.742 0H2.62468C1.17767 0 -0.000226704 1.17789 -0.000226704 2.62491V25.027C-0.000226704 25.441 0.335898 25.7772 0.7497 25.7772L0.749438 25.7769ZM18.6167 20.5744C18.2026 20.5744 17.8668 20.9105 17.8668 21.3243V29.8977C17.8668 30.5179 17.3619 31.0228 16.7417 31.0228L2.62442 31.023C2.00422 31.023 1.49937 30.5182 1.49937 29.898V28.4954C1.49937 28.0813 1.16324 27.7455 0.749438 27.7455C0.335361 27.7455 -0.000488281 28.0816 -0.000488281 28.4954V29.898C-0.000488281 31.345 1.1774 32.5229 2.62442 32.5229H16.7417C18.1887 32.5229 19.3666 31.345 19.3666 29.898L19.3669 21.3239C19.3669 20.9096 19.0308 20.574 18.617 20.574L18.6167 20.5744Z" fill="#CFE7FE"/>
</svg>
