<svg width="58" height="48" viewBox="0 0 58 48" fill="none" xmlns="http://www.w3.org/2000/svg">
<g clip-path="url(#clip0_2236_9595)">
<path d="M57.6464 34.0951L54.8701 10.9508C54.1234 4.71953 48.8266 0.0188599 42.5497 0.0188599H16.033C9.75606 0.0188599 4.45926 4.71953 3.71238 10.9508L0.938941 34.0951C0.517021 37.6154 1.62342 41.1559 3.97782 43.8077C6.32934 46.4614 9.7131 47.981 13.2596 47.981H45.326C48.8693 47.981 52.2533 46.4614 54.6077 43.8077C56.959 41.1566 58.0685 37.6162 57.6464 34.0951ZM50.0413 39.7855C48.781 41.2054 47.0422 41.9863 45.1469 41.9863H13.4393C11.5412 41.9863 9.80166 41.2054 8.54502 39.7855C7.28478 38.3659 6.7179 36.5474 6.94254 34.663L9.68478 11.7781C10.0786 8.49428 12.8715 6.01378 16.1816 6.01378H42.4018C45.7109 6.01378 48.5048 8.49354 48.8984 11.7781L51.6435 34.663C51.8684 36.5474 51.2977 38.3659 50.0413 39.7855Z" fill="#004956"/>
<path d="M45.2238 26.9909C44.7872 26.3217 44.1167 25.8626 43.335 25.6982C42.5519 25.5336 41.7543 25.6836 41.085 26.1194C33.1011 31.3262 25.3314 31.3255 17.3324 26.1187C16.6631 25.6829 15.8634 25.5329 15.0824 25.6989C14.3007 25.8641 13.6309 26.3239 13.1951 26.993C12.7592 27.6624 12.6099 28.4613 12.7753 29.243C12.9404 30.0247 13.4003 30.6945 14.0694 31.1304C19.0681 34.3845 24.164 36.0341 29.2155 36.0341C34.268 36.0341 39.3601 34.3838 44.3516 31.1289C45.0207 30.6924 45.4796 30.0218 45.6443 29.2401C45.8096 28.4592 45.6603 27.6602 45.2238 26.9909Z" fill="#004956"/>
</g>
<defs>
<clipPath id="clip0_2236_9595">
<rect width="58" height="48" fill="white"/>
</clipPath>
</defs>
</svg>
