<svg width="100" height="114" viewBox="0 0 100 114" fill="none" xmlns="http://www.w3.org/2000/svg">
<g clip-path="url(#clip0_103_1002)">
<path d="M95.9825 102.273C95.6255 102.63 95.1793 102.808 94.6439 102.808C94.1084 102.808 93.6622 102.63 93.3052 102.273C92.9483 101.916 92.7698 101.469 92.7698 100.934C92.7698 100.398 92.9482 99.9076 93.3498 99.5507C93.7068 99.1937 94.153 99.0598 94.6439 99.0598C95.1793 99.0598 95.6255 99.2383 95.9825 99.5953C96.3395 99.9522 96.518 100.398 96.518 100.934C96.5626 101.469 96.3841 101.916 95.9825 102.273ZM93.573 99.8184C93.2606 100.131 93.1267 100.488 93.1267 100.889C93.1267 101.336 93.2606 101.692 93.573 102.005C93.8853 102.317 94.2423 102.451 94.6885 102.451C95.1347 102.451 95.4917 102.317 95.804 102.005C96.1164 101.692 96.2502 101.336 96.2502 100.889C96.2502 100.488 96.1164 100.086 95.804 99.8184C95.4917 99.506 95.1347 99.3276 94.6885 99.3276C94.2423 99.3722 93.8853 99.506 93.573 99.8184ZM95.2686 101.871C95.0901 102.005 94.9116 102.049 94.7331 102.049C94.4654 102.049 94.1977 101.96 93.9745 101.737C93.7514 101.514 93.6622 101.246 93.6622 100.934C93.6622 100.622 93.7514 100.354 93.9299 100.131C94.1084 99.9076 94.3761 99.8184 94.6885 99.8184C94.867 99.8184 95.0455 99.863 95.224 99.9523C95.4471 100.086 95.6255 100.309 95.6702 100.666H95.1793C95.1347 100.532 95.0901 100.398 95.0008 100.354C94.9116 100.309 94.8224 100.265 94.7331 100.265C94.5993 100.265 94.4654 100.309 94.3761 100.443C94.2869 100.577 94.2423 100.755 94.2423 100.979C94.2423 101.202 94.2869 101.38 94.3761 101.469C94.4654 101.559 94.5993 101.648 94.7331 101.648C94.867 101.648 94.9562 101.603 95.0455 101.559L95.1793 101.291H95.6255C95.5809 101.559 95.4471 101.737 95.2686 101.871ZM99.9985 82.059C99.9985 81.8805 99.9538 81.702 99.9538 81.5236C99.9538 81.3897 99.9092 81.3004 99.9092 81.2112C99.8646 80.9435 99.82 80.7204 99.7307 80.4526C99.5522 79.9618 99.2845 79.471 98.9275 79.0694C98.5706 78.6678 98.169 78.3554 97.7674 78.1323C97.3212 77.9092 96.875 77.7753 96.518 77.6861C96.3841 77.6861 96.2949 77.6415 96.2056 77.6415C96.6965 75.4996 96.0718 73.8486 95.6702 73.0901L95.7594 73.0008C96.2949 72.4654 96.7411 71.9745 97.1427 71.4837L97.2319 71.3945C97.5443 70.9482 97.7228 70.502 97.8566 70.1004C97.9459 69.7435 98.0351 69.4311 98.0351 69.1188V68.851V68.6725V68.271C97.9905 67.6016 97.9012 66.7538 97.455 65.8168C97.2319 65.3706 96.9196 64.8797 96.518 64.4335C96.1164 63.9873 95.6255 63.5857 95.0455 63.2733C95.0008 63.2287 94.9562 63.2287 94.9116 63.1841C93.7068 61.4439 92.3682 60.0606 91.1634 59.0343C90.5387 58.4988 89.9586 58.0526 89.4678 57.6956C88.9769 57.3387 88.5753 57.0709 88.3522 56.8925C87.8168 56.4909 87.4152 56.2678 87.2367 56.1785C86.7905 55.9108 86.4781 55.6877 86.2996 55.5538C86.1658 55.4199 86.0765 55.3753 86.0319 55.3307C86.0319 55.3307 86.0319 55.2861 85.9873 55.1968C85.9427 55.063 85.9427 54.8845 85.9427 54.5721C85.9427 54.1259 85.9427 53.4566 85.9873 52.5642C86.0765 51.1363 86.2104 49.2176 86.3889 46.5849C86.4335 45.7371 86.4335 44.9339 86.4335 44.2199C86.3889 43.0152 86.2104 41.9442 85.9873 40.9626C85.9427 40.7395 85.8534 40.5163 85.8088 40.2932C85.7642 40.1148 85.7196 40.0255 85.6749 39.9363C85.6303 39.8024 85.5857 39.6685 85.4965 39.4901C85.4518 39.4008 85.4518 39.3116 85.3626 39.2223C85.2733 38.9992 85.1841 38.7761 85.0502 38.553L85.0056 38.5084L84.961 38.3745L84.9164 38.2853C84.6933 37.8837 84.4255 37.5267 84.1578 37.2144C84.0239 36.5897 83.8008 35.6972 83.3992 34.6709C83.0423 33.7785 82.5961 32.7968 81.9267 31.8151C81.7036 31.4582 81.4359 31.1458 81.1682 30.8335L81.2574 30.7442C81.3913 30.6104 84.5148 27.3084 87.0136 23.0247C91.6096 15.0374 90.0925 10.1737 87.9953 7.4964L87.9506 7.40716L87.906 7.31791C85.898 5.08684 83.1315 3.74819 79.7849 3.30198C72.7793 2.40954 64.8367 5.89002 62.7395 6.8717L58.902 2.67727C58.545 2.3203 58.1881 1.96333 57.7865 1.6956C57.3849 1.42787 56.9387 1.16014 56.4924 0.937033C55.6 0.535439 54.6183 0.267709 53.5474 0.133845C51.4502 -0.133885 49.0406 0.133845 46.4526 0.803168C42.5705 1.78484 38.2422 3.74819 33.6908 6.47011C29.1394 9.19202 24.4096 12.7171 19.8135 16.9115C14.1912 21.9984 9.55058 27.3976 6.15934 32.5737C4.46372 35.1171 3.08046 37.6159 2.05416 40.0255C1.02787 42.3905 0.358542 44.6662 0.0908127 46.7187C-0.0876735 48.2359 -0.0876735 49.6638 0.224677 50.9578C0.358542 51.5379 0.537028 52.0733 0.804757 52.6088C1.11711 53.2781 1.5187 53.9028 2.00954 54.4383L5.98086 58.5881L6.42707 59.0343L6.38245 59.0789L6.24859 59.3466C6.15934 59.4805 6.11472 59.6144 6.02548 59.7036L5.89161 59.9713C5.84699 60.1052 5.75775 60.2391 5.71313 60.3729L5.57926 60.6407C5.53464 60.7745 5.4454 60.9084 5.40078 61.0423C5.35616 61.1315 5.31153 61.2207 5.31153 61.31L5.17767 61.7116C5.13305 61.8008 5.13305 61.8901 5.08843 61.9793C5.0438 62.1132 4.99918 62.247 4.95456 62.4255C4.95456 62.4701 4.90994 62.5148 4.90994 62.5594C4.90994 62.604 4.86532 62.6486 4.86532 62.6933C4.8207 62.8271 4.77608 63.0056 4.73145 63.1395C4.73145 63.2287 4.68683 63.318 4.68683 63.4072C4.68683 63.4518 4.64221 63.5411 4.64221 63.5857C4.64221 63.6749 4.59759 63.7642 4.59759 63.8534C4.59759 63.9427 4.55297 64.0319 4.55297 64.1211C4.50835 64.2996 4.50835 64.4781 4.46372 64.7012C4.46372 64.7458 4.46372 64.7905 4.4191 64.8797V64.9243C4.4191 65.0582 4.37448 65.1921 4.37448 65.2813C4.37448 65.4598 4.32986 65.6829 4.32986 65.8614V68.0925C4.32986 68.1817 4.32986 68.271 4.37448 68.3602C4.37448 68.4494 4.37448 68.5833 4.4191 68.7172V68.851C4.4191 68.9403 4.46372 69.0741 4.46372 69.1634C4.46372 69.2526 4.50835 69.3419 4.50835 69.4757C4.50835 69.5204 4.50835 69.565 4.55297 69.6096C4.55297 69.6542 4.59759 69.7435 4.59759 69.7881V69.8773C4.59759 69.9666 4.64221 70.0558 4.68683 70.2343C4.68683 70.2789 4.68683 70.2789 4.73145 70.3235C4.77608 70.4128 4.77608 70.502 4.77608 70.5467L4.8207 70.6359C4.8207 70.6805 4.8207 70.6805 4.86532 70.7251L4.90994 70.8144V70.9482C4.90994 70.9929 4.90994 70.9929 4.95456 71.0375L4.99918 71.1267C4.99918 71.216 5.0438 71.2606 5.0438 71.3498C5.08843 71.4391 5.08843 71.5283 5.13305 71.7068V71.6622V71.7068C5.13305 71.7514 5.13305 71.7514 5.17767 71.7961C5.22229 71.9299 5.26691 72.0192 5.26691 72.0638C5.31153 72.153 5.35616 72.2423 5.40078 72.4208L5.4454 72.4654C5.49002 72.5546 5.49002 72.6439 5.53464 72.6885L5.57926 72.7777C5.57926 72.8223 5.62389 72.867 5.62389 72.9116C5.62389 72.9562 5.66851 73.0455 5.71313 73.0901L5.75775 73.1793C5.80237 73.2239 5.80237 73.3132 5.84699 73.3578C5.89161 73.4024 5.89161 73.4471 5.89161 73.4917C5.93624 73.5809 5.98086 73.6702 6.02548 73.804L6.0701 73.8486C6.11472 73.8933 6.11472 73.9379 6.15934 73.9825C6.20397 74.0271 6.20397 74.1164 6.24859 74.161C6.29321 74.2056 6.33783 74.2949 6.38245 74.4287L6.42707 74.4733C6.47169 74.518 6.47169 74.5626 6.51632 74.6072C6.56094 74.6964 6.60556 74.7411 6.60556 74.7857C6.65018 74.8303 6.6948 74.9196 6.73942 75.0088V75.0534C6.78405 75.098 6.78405 75.1427 6.82867 75.1873C6.87329 75.2765 6.91791 75.3212 6.96253 75.3658C7.00715 75.4104 7.05177 75.4996 7.14102 75.6335C7.18564 75.6781 7.23026 75.7227 7.23026 75.7674C7.27488 75.8566 7.3195 75.9012 7.36413 75.9459C7.40875 75.9905 7.45337 76.0797 7.49799 76.169C7.54261 76.2136 7.58723 76.3028 7.63185 76.3475C7.67648 76.4367 7.7211 76.4813 7.81034 76.5259L7.9442 76.6598L7.98883 76.7044C8.07807 76.7937 8.12269 76.8829 8.21193 76.9722L8.30118 77.0614L8.43504 77.1953L8.70277 77.463L8.79202 77.5522L8.92588 77.6861L8.9705 77.7307C9.05974 77.82 9.19361 77.9092 9.28285 78.0431L9.32747 78.0877C9.3721 78.1323 9.41672 78.1323 9.46134 78.2216C9.5952 78.3554 9.72907 78.4447 9.86293 78.5785L9.95218 78.6231L9.9968 78.6678L10.086 78.7124C10.2199 78.8016 10.3091 78.8909 10.443 78.9801L10.4876 79.0247C10.5323 79.0694 10.5769 79.0694 10.5769 79.0694L10.6661 79.1586C10.7554 79.2478 10.8446 79.2925 10.9338 79.3817L11.0231 79.4263L11.1123 79.5156L11.157 79.5602C11.2462 79.6048 11.3801 79.6941 11.4693 79.7387C11.5139 79.7833 11.5586 79.8279 11.6478 79.8279L11.737 79.8726L11.7817 79.9172H11.8263C12.0048 80.0064 12.1386 80.0957 12.2725 80.1849L12.3617 80.2295L12.8972 80.4973H12.9418L13.0311 80.5419L13.2988 80.6757C13.3434 80.6757 13.388 80.7204 13.4327 80.7204C13.4773 80.765 13.5219 80.765 13.6111 80.8096H13.6558C13.745 80.8542 13.8343 80.8988 13.9235 80.8988H13.9681C14.0574 80.9435 14.1466 80.9881 14.2805 81.0327H14.3251L14.4143 81.0773C14.459 81.0773 14.5036 81.122 14.5482 81.122H14.5928C14.7267 81.1666 14.8605 81.2112 15.039 81.2558H15.0837C15.3068 81.3451 15.5299 81.3897 15.753 81.4343H15.7976C15.9761 81.4789 16.1992 81.5236 16.3777 81.5682H16.5562C16.7346 81.6128 16.9131 81.6574 17.0916 81.6574H17.2701C17.404 81.6574 17.4932 81.702 17.6271 81.702C17.6271 81.7467 17.6717 81.7913 17.6717 81.8359C17.9841 82.6837 18.2964 83.5315 18.6534 84.3347C23.9187 98.926 38.51 110.26 55.1538 112.357C71.7976 114.41 89.6016 103.343 96.8303 88.3953C97.1427 87.8152 97.4104 87.2797 97.6781 86.6997C98.3921 85.9411 98.9722 85.1825 99.3291 84.3793C99.9092 83.8885 100.043 82.9068 99.9985 82.059ZM7.58723 76.2582H7.63185H7.58723Z" fill="#664F44"/>
<path d="M85.7642 9.05812C84.961 8.16569 84.0239 7.49637 82.9976 7.00553C82.8191 6.91629 82.6406 6.87166 82.4175 6.82704C82.3283 6.78242 82.2391 6.69318 82.1498 6.64856C81.2574 6.29158 80.3203 6.06848 79.3387 5.93461C74.5195 5.30991 68.9865 7.09477 65.8629 8.34418C65.6845 8.43342 65.506 8.47804 65.3275 8.56728C65.0598 8.70115 64.792 8.79039 64.5243 8.92426C64.0781 9.10274 63.6319 9.32585 63.141 9.54896C63.0518 9.59358 63.0072 9.59358 62.9179 9.6382L62.0701 8.65653L61.6685 8.21031L61.3115 7.80872L61.1777 7.63023L57.9203 3.88202L57.6526 3.56967L57.2956 3.16808H57.251L56.3139 3.39118L55.243 3.61429C54.6629 3.34656 53.949 3.16808 53.1458 3.03421C51.5394 2.8111 49.4868 3.03421 47.1665 3.61429C44.8462 4.19437 42.2135 5.22067 39.447 6.60394C33.8693 9.37047 27.7115 13.6095 21.7322 19.0533C19.635 20.9275 17.7163 22.8908 15.9314 24.8095C14.1912 26.6836 12.6294 28.6024 11.2015 30.4318C8.30115 34.2247 6.11469 37.8836 4.6868 41.1856C3.74975 43.3721 3.16967 45.3801 2.94656 47.1203C2.76807 48.3697 2.8127 49.4852 3.0358 50.3777C3.12505 50.69 3.21429 50.9131 3.30353 51.1809C3.52664 51.7163 3.79437 52.1625 4.15134 52.5641L7.76569 56.357L8.16728 56.7586L8.2119 56.7139C8.30115 56.5801 8.43501 56.4462 8.56888 56.357L8.6135 56.3123L8.74736 56.1785C8.8366 56.0446 8.97047 55.9554 9.05971 55.8215C9.14896 55.7323 9.19358 55.6876 9.28282 55.643C9.37206 55.5984 9.41668 55.5092 9.50593 55.4645L9.59517 55.3753C9.68441 55.3307 9.72904 55.2414 9.81828 55.1968C9.90752 55.1076 10.0414 55.0183 10.1306 54.9291C10.1753 54.8845 10.2645 54.8398 10.3091 54.7952H10.3537C10.4876 54.706 10.5768 54.6167 10.7107 54.5275C10.8 54.4829 10.8446 54.4382 10.9338 54.349C11.0677 54.2598 11.1569 54.1705 11.2908 54.0813C11.38 54.0366 11.4247 53.992 11.5139 53.9474C11.6478 53.8582 11.7816 53.7689 11.9155 53.7243C12.0047 53.6797 12.0494 53.635 12.1386 53.5904C12.2725 53.5012 12.4063 53.4566 12.5402 53.3673C12.6294 53.3227 12.6741 53.2781 12.7633 53.2335L12.8525 53.1888C12.9864 53.1442 13.0757 53.055 13.2095 53.0103C13.2541 52.9657 13.3434 52.9657 13.388 52.9211C13.4772 52.8765 13.5665 52.8319 13.7004 52.7872L13.9681 52.6534L14.0573 52.6088L14.7266 52.341C14.8159 52.2964 14.8605 52.2964 14.9498 52.2518C15.039 52.2072 15.0836 52.2072 15.1729 52.1625L15.2621 52.1179C15.3067 52.1179 15.3514 52.0733 15.396 52.0733C15.4852 52.0287 15.5745 52.0287 15.7083 51.9841H15.7976C15.9314 51.9394 16.0207 51.9394 16.1545 51.8948C16.2438 51.8502 16.3776 51.8502 16.4669 51.8056C16.6008 51.7609 16.7346 51.7609 16.8685 51.7163C16.9131 51.7163 16.9577 51.6717 17.047 51.6717C17.0916 51.6717 17.1808 51.6717 17.2255 51.6271C17.3593 51.5825 17.4932 51.5825 17.627 51.5825C17.7609 51.5825 17.8502 51.5378 17.984 51.5378C18.0733 51.5378 18.1625 51.4932 18.2518 51.4932H18.6087C19.0549 51.4932 19.5904 51.4932 20.1259 51.5378H20.2151C20.7506 51.5825 21.3753 51.6717 22 51.8056C22.1338 51.8502 22.3123 51.8502 22.4462 51.8948C22.4908 51.8502 22.4908 51.7609 22.5354 51.7163C22.8924 51.1362 23.2047 50.5115 23.5617 49.9315C25.5697 46.5848 27.7115 43.6398 29.898 41.0518C30.6565 40.1593 31.4151 39.3562 32.1737 38.553C35.3418 35.251 38.5099 32.7075 41.3657 30.7442C41.9904 30.298 42.6597 29.8964 43.2398 29.4948C44.0876 28.9593 44.8908 28.5131 45.6494 28.0669C46.2741 27.7099 46.8542 27.3976 47.4342 27.1298C48.3713 26.639 49.2191 26.2374 49.9777 25.9251L50.647 25.6573C50.9594 25.5235 51.2717 25.3896 51.5394 25.3004C51.3163 25.2557 51.0486 25.2557 50.8255 25.2557H49.9331C49.7099 25.2557 49.4422 25.2557 49.2191 25.3004C48.7729 25.345 48.2821 25.3896 47.7912 25.4342C47.6127 25.4789 47.4789 25.4789 47.3004 25.5235C48.5052 24.8988 49.7099 24.4526 50.8255 24.0956C51.5841 23.8725 52.3426 23.694 53.0566 23.5601C54.0382 23.3816 54.9753 23.2478 55.8231 23.2032C56.4032 23.1585 56.9386 23.1585 57.4295 23.1585C57.9203 23.1585 58.4112 23.2032 58.8127 23.2032C60.2853 23.2924 61.1777 23.5155 61.1777 23.5155C60.9546 23.2032 60.6868 22.98 60.4191 22.7569C59.8837 22.3553 59.3036 22.0876 58.7681 21.8645C58.545 21.7753 58.3665 21.7306 58.188 21.6414C58.0542 21.5968 57.9203 21.5522 57.8311 21.5522C58.0988 21.5075 58.3219 21.4629 58.545 21.4629C58.8127 21.4183 59.0358 21.4183 59.3036 21.3737C61.4008 21.1952 63.2749 21.3737 64.6582 21.5968C66.3092 21.9091 67.3355 22.3107 67.3355 22.3107C67.1124 21.8645 66.7554 21.4629 66.3538 21.1059C66.0861 20.8828 65.7737 20.6597 65.506 20.4812C66.0861 20.6151 66.5769 20.749 67.1124 20.9275C68.451 21.329 69.5665 21.8199 70.459 22.2215L71.2622 22.6231C71.3514 22.6677 71.396 22.7123 71.4406 22.7123C72.2438 23.1585 72.69 23.4709 72.69 23.4709C72.5562 22.98 72.2885 22.5338 71.9315 22.1322C71.8422 22.043 71.753 21.9091 71.6637 21.8199H71.7084C71.753 21.8199 71.7976 21.8645 71.8869 21.8645C71.9315 21.8645 72.0207 21.9091 72.11 21.9537C72.4669 22.0876 73.0024 22.3107 73.6271 22.6231C73.6717 22.6231 73.6717 22.6677 73.7163 22.6677L73.9841 22.8016C74.2072 22.9354 74.4303 23.0247 74.6534 23.2032L75.3227 23.6047C75.4566 23.694 75.5458 23.7386 75.6797 23.8279C75.9028 24.0063 76.1705 24.1848 76.3936 24.4079C76.6614 24.631 76.8845 24.8541 77.1076 25.0773L77.2414 25.2111C77.4199 25.3896 77.5984 25.5681 77.7323 25.7466C78.0446 26.1036 78.3124 26.5051 78.5801 26.9067C78.8924 27.3976 79.1155 27.9777 79.3387 28.5577C79.3387 28.6024 79.3387 28.647 79.3833 28.647C79.5171 28.5131 79.7849 28.2454 80.0972 27.8884C82.6853 24.8541 90.4494 15.0374 85.7642 9.05812Z" fill="#132134"/>
<path d="M97.3212 82.3714C97.3212 82.3714 97.4104 81.7021 97.0534 81.0774C97.0534 81.0328 97.0088 80.9882 97.0088 80.9882L96.9642 80.9435L96.8303 80.8097C96.7411 80.7204 96.6518 80.6312 96.518 80.5419C96.4734 80.4973 96.3841 80.4527 96.2949 80.4081C96.0718 80.3188 95.8487 80.2296 95.5363 80.185C95.3132 80.1403 95.0901 80.1404 94.8224 80.1404H94.4654V80.2296C94.4654 80.2742 94.51 80.3188 94.51 80.4081C94.51 80.4527 94.51 80.4973 94.5546 80.4973C94.5992 80.6312 94.6439 80.8543 94.6885 81.0328C94.6885 81.0328 94.6885 81.0774 94.6439 81.1666V81.2113C94.51 81.5236 94.153 82.2376 93.3498 83.13C93.216 83.3085 93.0821 83.4423 92.9036 83.6208C90.6725 85.9411 85.8534 89.1985 75.6797 91.028C72.2439 91.5188 69.0311 91.5635 66.3538 91.2065C62.3379 90.7157 59.3482 89.4216 57.9203 87.6814C57.7865 87.5475 57.6972 87.369 57.5634 87.2352C57.4741 87.1013 57.4295 87.0121 57.3403 86.8782C57.2956 86.8336 57.2956 86.789 57.251 86.7443C56.6709 85.6734 56.4032 84.5133 56.4032 83.3977C56.4032 82.0145 56.8494 80.7204 57.5634 79.7388C58.1434 78.9356 58.902 78.3109 59.8391 78.0431C60.2853 77.9093 60.7761 77.82 61.267 77.8646C61.3562 77.8646 61.4901 77.8647 61.6685 77.9093C61.9809 77.9539 62.4717 77.9985 63.0518 78.0878C63.0964 78.0878 63.1857 78.0878 63.2303 78.1324C65.149 78.3555 68.1833 78.6678 71.8423 78.4447C78.5355 78.0431 87.3259 75.9459 95.3132 68.7172V68.6726C95.3578 68.0479 95.2686 66.977 94.51 66.1292C94.3761 65.9953 94.2423 65.8615 94.0638 65.7276C93.9745 65.6383 93.8407 65.5937 93.7514 65.5045C93.6176 65.4599 93.5283 65.3706 93.4391 65.326L93.0375 65.0583V65.0136C92.9929 64.9244 92.9482 64.8352 92.859 64.7459C90.8064 61.6224 87.9506 59.7929 86.7905 58.9451C86.255 58.5435 85.898 58.365 85.898 58.365C83.4439 56.8479 83.0869 56.3571 83.31 52.2965C83.3992 50.824 83.5331 48.9053 83.7116 46.2726C83.7116 45.9156 83.7562 45.6033 83.7562 45.2909V45.0678V43.9969C83.7562 43.7738 83.7116 43.5507 83.7116 43.3722C83.7116 43.2829 83.7116 43.1937 83.667 43.1045C83.6223 42.8814 83.6223 42.6582 83.5777 42.4351C83.5777 42.3459 83.5331 42.212 83.5331 42.1228C83.5331 41.9889 83.4885 41.8997 83.4439 41.7658C83.3992 41.6766 83.3992 41.5427 83.3546 41.4535C83.31 41.3196 83.2654 41.1857 83.2654 41.0519C83.2654 41.0072 83.2207 40.9626 83.2207 40.918C83.2207 40.8734 83.1761 40.8288 83.1761 40.7841V40.7395L83.1315 40.6057C83.0869 40.5164 83.0423 40.4272 83.0423 40.3379V40.2933L82.9976 40.2041L82.953 40.1148C82.8638 39.9363 82.8192 39.7578 82.7299 39.624L82.6853 39.4901C82.5961 39.3562 82.5068 39.1778 82.4176 39.0439L82.3729 38.9993L82.3283 38.9547C82.2391 38.8654 82.1945 38.7762 82.1052 38.6869L82.016 38.5531C81.9267 38.4192 81.8375 38.33 81.7482 38.2407V37.8837C81.7036 37.7053 81.659 37.4821 81.6144 37.259C81.6144 37.2144 81.5698 37.1252 81.5698 37.0806V37.0359C81.5698 36.9467 81.5251 36.9021 81.5251 36.8128C81.4805 36.6343 81.4359 36.4559 81.3466 36.2774C81.3466 36.2327 81.302 36.1435 81.302 36.0989L81.1682 35.6973C81.1235 35.608 81.1235 35.5188 81.0789 35.4742C81.0343 35.3403 80.9897 35.2064 80.9004 35.0726L80.7666 34.8049C80.7219 34.671 80.6327 34.5371 80.5881 34.4033L80.4542 34.1355C80.365 34.0017 80.3204 33.8678 80.2311 33.7339L80.0972 33.4662C80.008 33.3323 79.9188 33.1985 79.8295 33.02C79.7849 32.9307 79.7403 32.8861 79.6957 32.7969C79.651 32.7523 79.6064 32.663 79.5618 32.6184C79.4279 32.4845 79.3387 32.3507 79.2048 32.2168L79.1156 32.1722C78.9371 31.9937 78.8032 31.8152 78.6247 31.6813L78.5801 31.6367C78.4909 31.5921 78.4016 31.5029 78.357 31.4582H78.3124C78.2231 31.4136 78.1785 31.369 78.0893 31.3244L78.0446 31.2797C77.9554 31.2351 77.8215 31.1459 77.6431 31.0566C77.5984 31.012 77.5092 31.012 77.42 30.9674C77.0184 30.8335 76.5275 30.655 75.9028 30.4766C75.8582 30.4766 75.8136 30.4766 75.769 30.4319C75.2781 30.2981 74.698 30.1642 74.0733 30.075C73.8502 30.0303 73.6717 30.0303 73.4486 29.9857C73.3594 29.9857 73.2701 29.9857 73.1363 29.9411H73.0024C72.5116 29.8965 72.0654 29.8519 71.5745 29.8519H71.5299C70.9052 29.8519 70.2805 29.8965 69.7004 30.0303C69.8343 29.8072 70.2359 29.5395 70.5929 29.3164C71.0837 29.0487 71.5299 28.8702 71.5299 28.8702C71.2622 28.8702 70.9944 28.9148 70.7267 28.9594C70.6375 28.9594 70.5482 29.0041 70.459 29.0041C70.4144 29.0041 70.3251 29.004 70.2805 29.0487H70.2359C70.1913 29.0487 70.1466 29.0487 70.102 29.0933C68.7188 29.4056 67.3801 29.8965 66.6215 30.2088L66.3538 30.3427H66.3092C66.2199 30.3427 66.1753 30.3427 66.0861 30.3873C66.6215 29.361 67.4247 28.8256 68.0494 28.5578C68.1387 28.5132 68.2725 28.4686 68.3618 28.424C68.4064 28.424 68.4064 28.424 68.451 28.3793C68.5403 28.3347 68.6295 28.3347 68.6741 28.2901C68.808 28.2455 68.8972 28.2455 68.8972 28.2455H68.1833C66.6662 28.424 65.2829 28.9148 64.1227 29.5841C63.3195 30.0303 62.6056 30.5212 61.9809 31.012C61.8024 31.0566 61.6685 31.1013 61.4901 31.1013C59.7944 31.4582 57.8757 31.9045 55.8677 32.5292C55.1092 32.7523 54.3506 33.02 53.592 33.2877C53.012 33.5108 52.3873 33.7339 51.8072 33.957C51.361 34.1355 50.9594 34.314 50.5132 34.4925C47.4343 35.8758 44.3554 37.7053 41.812 40.1594L41.5442 40.4272L40.8749 41.0965L40.6072 41.3642C40.5179 41.4981 40.3841 41.6319 40.2948 41.7212C39.804 42.2567 39.3578 42.8367 38.9116 43.4614C38.5992 43.9076 38.2869 44.3985 38.0191 44.8893L37.9745 44.9339C37.3944 45.9602 36.859 47.0312 36.4574 48.2359C36.2343 48.816 36.0558 49.4407 35.8773 50.0654C35.8327 50.2439 35.788 50.3778 35.7434 50.5563L35.6988 50.6455C35.5203 51.3148 35.3865 52.0288 35.2972 52.7427C35.2972 52.8766 35.2526 53.0104 35.2526 53.1889C35.208 53.5459 35.1633 53.9029 35.1633 54.3045C35.1187 54.6614 35.1187 54.9738 35.1187 55.3308V56.714C35.1187 57.1156 35.1187 57.5172 35.1633 57.9188V57.9634C35.1633 58.365 35.208 58.7666 35.2526 59.2128C35.2526 59.3913 35.2972 59.5698 35.2972 59.7483V59.8822C35.2972 59.9714 35.2972 60.0606 35.3418 60.1945C35.3865 60.6407 35.4757 61.1316 35.5203 61.6224C35.5203 61.7563 35.5649 61.8901 35.5649 62.024C35.6542 62.4256 35.6988 62.8718 35.788 63.2734C35.788 63.2734 35.6988 62.7379 35.7434 61.9348C35.7434 61.7563 35.788 61.5332 35.788 61.3547C35.8327 60.9085 35.9219 60.373 36.1004 59.8822L36.2343 59.4806C36.2343 59.4359 36.2789 59.3913 36.3235 59.3021C36.4128 59.079 36.5466 58.8112 36.6805 58.5881C36.7251 58.7666 36.7251 58.9451 36.7697 59.079V61.4439C36.8143 62.961 36.9482 64.7905 37.2606 66.3523C37.2606 66.3523 37.3052 63.5411 37.796 63.1842C37.796 63.1842 38.6438 68.4495 39.4024 70.4128C39.4916 70.6806 39.6255 70.8591 39.7147 70.9929V70.4575L39.6255 67.5571V67.2447C40.2056 68.4495 40.8749 69.6543 41.6335 70.9483C41.8566 71.3053 42.0351 71.6622 42.2582 72.0192C40.8303 73.2686 39.4916 75.0981 38.51 77.2399C38.3761 77.5969 38.1976 77.9539 38.0637 78.3109C37.9745 78.534 37.9299 78.7125 37.8406 78.9356C37.8406 78.9802 37.796 79.0694 37.796 79.1141C37.7514 79.2479 37.7068 79.4264 37.6622 79.5603C37.6622 79.6495 37.6175 79.6941 37.6175 79.7834C37.5729 79.9172 37.5283 80.0957 37.4837 80.2296C37.4837 80.3188 37.439 80.3635 37.439 80.4527L37.3052 81.122C37.2606 81.3451 37.2159 81.5682 37.2159 81.7913C37.2159 81.8806 37.2159 81.9252 37.1713 82.0145C37.1713 82.1929 37.1267 82.3268 37.1267 82.5053C37.1267 82.5945 37.1267 82.6838 37.0821 82.773C37.0821 82.9515 37.0375 83.0854 37.0375 83.2639V84.8256C37.0375 85.0041 37.0374 85.1826 37.0821 85.4057V85.5396C37.0821 85.7627 37.1267 85.9858 37.1713 86.2535C37.1713 86.3427 37.1713 86.3874 37.2159 86.4766C37.2159 86.6551 37.2606 86.789 37.3052 86.9674C37.3052 87.0567 37.3498 87.1459 37.3498 87.2352C37.3944 87.369 37.3944 87.5475 37.439 87.6814C37.439 87.7706 37.4837 87.8599 37.4837 87.9491C37.5283 88.083 37.5729 88.2169 37.5729 88.3953C37.6175 88.4846 37.6175 88.5738 37.6622 88.7077C37.7068 88.8415 37.7514 89.02 37.796 89.1539C37.8406 89.2431 37.8406 89.3324 37.8853 89.4216C37.9299 89.5555 37.9745 89.734 38.0191 89.8678C38.0637 89.9571 38.0637 90.0463 38.1084 90.1356C38.153 90.3141 38.2422 90.4925 38.2869 90.6264C38.3315 90.7157 38.3315 90.7603 38.3761 90.8495L39.0454 92.322C39.09 92.4113 39.1347 92.4559 39.1793 92.5451L39.447 93.0806C39.4916 93.1698 39.5363 93.2591 39.6255 93.3483C39.7147 93.4822 39.804 93.6607 39.8932 93.7945C39.9379 93.8838 40.0271 93.973 40.0717 94.0623C40.161 94.1961 40.2502 94.3746 40.3841 94.5085C40.4733 94.5977 40.5179 94.687 40.6072 94.8208C40.6964 94.9547 40.8303 95.1332 40.9195 95.2671C41.0088 95.3563 41.0534 95.4455 41.1426 95.5794C41.2765 95.7133 41.3657 95.8918 41.4996 96.0256C41.5888 96.1149 41.6335 96.2041 41.7227 96.2934C41.8566 96.4718 41.9904 96.6057 42.1689 96.7842L42.392 97.0073C42.6151 97.2304 42.8383 97.4981 43.0614 97.7212C43.0614 97.7212 42.9275 97.5428 42.749 97.1858C42.7044 97.1412 42.6598 97.0519 42.6598 96.9627L42.5259 96.6949C42.4813 96.6057 42.4367 96.5165 42.392 96.3826C42.0351 95.5794 41.7227 94.4192 41.7673 93.1698L42.1689 93.7053C42.3028 94.0176 42.5259 94.4192 42.749 94.8655C42.8383 94.9993 42.9275 95.1778 42.9721 95.3117C43.3291 95.9364 43.6861 96.6503 44.1323 97.3196C44.6677 98.1675 45.2032 98.9706 45.7833 99.7292C45.7833 99.7292 45.1139 98.3013 44.8908 97.3643C44.8462 97.0965 44.8016 96.8734 44.8462 96.7396C44.8908 96.7842 44.9355 96.8734 45.0247 96.918C45.0693 96.9627 45.114 97.0519 45.2032 97.0965C45.2924 97.2304 45.4263 97.4089 45.6048 97.632L45.694 97.7212C45.7833 97.8105 45.8279 97.9443 45.9171 98.0336C46.0064 98.1674 46.0956 98.3013 46.2295 98.4352C47.1665 99.64 48.4606 101.246 49.353 102.094C49.6653 102.362 49.9331 102.585 50.1116 102.674L48.8175 100.354C51.7626 102.763 63.9889 105.842 75.9921 102.407C77.4646 102.005 78.8925 101.469 80.3204 100.845C81.1682 100.488 82.016 100.042 82.8638 99.5953L82.9976 99.5061C83.5777 99.1937 84.1578 98.8368 84.7379 98.4798C85.1841 98.2121 85.6303 97.8997 86.0319 97.632C86.7459 97.1412 87.4598 96.6057 88.1737 96.0256C88.2184 95.981 88.263 95.9364 88.3076 95.9364C88.9769 95.3563 89.6463 94.7316 90.2263 94.1069C91.0295 93.2591 91.7435 92.4113 92.3682 91.5635L92.4128 91.5188C92.5913 91.2957 92.7251 91.1172 92.859 90.8941L92.9036 90.8495C92.9482 90.7603 92.9929 90.7157 93.0375 90.6264C93.2606 90.3141 93.4391 90.0463 93.6622 89.734C93.7068 89.6447 93.7514 89.6001 93.7961 89.5109C93.8853 89.3324 93.9745 89.1985 94.1084 89.02C94.1977 88.8862 94.2423 88.7969 94.3315 88.6631C94.4208 88.5292 94.51 88.3953 94.5546 88.2615C94.6885 88.0384 94.8224 87.7706 94.9562 87.5475L95.0901 87.2798L95.3578 86.7443L95.4917 86.4766L95.5363 86.3874C95.6255 86.1643 95.7594 85.9412 95.8487 85.718V85.6734C96.2502 85.3164 96.518 84.9595 96.7857 84.6471C96.8303 84.6025 96.8749 84.5579 96.8749 84.5133C97.1427 83.6654 97.3212 82.9961 97.3212 82.3714ZM25.5251 73.7148C25.5251 73.6702 25.5251 73.6256 25.4805 73.5364C25.3466 72.7778 25.2127 71.9746 25.1681 71.1714V70.9929C25.0343 71.0376 24.9004 71.216 24.7219 71.4391C24.6773 71.5284 24.588 71.6176 24.5434 71.7515C24.1418 72.5101 23.7848 73.581 23.7848 73.581C23.8295 73.224 23.8741 72.867 23.8741 72.5101V72.3762C23.9187 72.0192 23.9633 71.6176 24.008 71.2607V71.1268C24.0526 70.6806 24.1418 70.279 24.2311 69.8774C24.2311 69.8328 24.2311 69.7881 24.2757 69.6989V69.6543C24.2757 69.6097 24.2757 69.565 24.3203 69.5204C24.3203 69.4312 24.3649 69.3866 24.3649 69.2973C24.4096 68.985 24.4988 68.6726 24.5434 68.3603C24.588 68.0925 24.6327 67.8248 24.6773 67.6017V67.5124C24.6773 67.4678 24.6773 67.4232 24.7219 67.4232V67.334C24.7219 67.2893 24.7665 67.2001 24.7665 67.1555C24.7665 67.1109 24.7665 67.0662 24.8111 67.0216C24.8111 66.9324 24.8558 66.8431 24.8558 66.7985C24.8558 66.7539 24.9004 66.6646 24.9004 66.62C24.9004 66.5308 24.945 66.4415 24.945 66.3969C24.945 66.3523 24.945 66.3077 24.9896 66.263C24.9896 66.2184 24.9896 66.1738 25.0343 66.1738C25.0343 66.0846 25.0789 66.0399 25.0789 65.9953V65.8615L24.9896 65.9507C24.9004 65.9953 24.8558 66.0846 24.7665 66.1292L24.6773 66.2184C24.588 66.3077 24.4988 66.3969 24.4542 66.4862L24.4095 66.5308L24.1418 66.9324L24.0972 66.977C24.0972 67.0216 24.0526 67.0216 24.0526 67.0662L23.9187 67.334V67.4232C23.8741 67.5571 23.7848 67.6909 23.7402 67.8248C23.6064 68.1818 23.4725 68.5387 23.3833 68.8511C23.3386 68.9403 23.3386 69.0742 23.294 69.1188C23.2494 69.2973 23.2048 69.4758 23.2048 69.5204V69.565V69.5204C23.2048 69.3866 23.2048 69.2973 23.2494 69.1634C23.2494 68.9403 23.294 68.6726 23.294 68.4495C23.294 68.271 23.3386 68.0479 23.3833 67.8694C23.3833 67.8248 23.3833 67.7356 23.4279 67.6909C23.4279 67.6017 23.4725 67.5125 23.4725 67.4232C23.4725 67.334 23.5171 67.2447 23.5171 67.1555V67.0216C23.5171 66.9324 23.5617 66.7985 23.5617 66.7093V66.4862V66.3969C23.5617 66.3523 23.5617 66.3077 23.6064 66.263C23.651 66.1292 23.6956 65.9507 23.6956 65.8168V65.7722C23.7402 65.683 23.7402 65.5491 23.7848 65.4599V65.4152C23.8295 65.1921 23.9187 64.969 23.9633 64.7459V64.6567C23.9633 64.612 23.9633 64.5674 24.008 64.5228C24.0972 64.1658 24.2311 63.8089 24.3203 63.4965V63.4519C24.4096 63.1842 24.5434 62.8718 24.6327 62.6041V62.5595C24.6773 62.4256 24.7219 62.3363 24.7665 62.2025C24.8558 62.024 24.9004 61.8455 24.9896 61.667C24.9896 61.6224 25.0343 61.5332 25.1235 61.3547C25.1681 61.3101 25.1681 61.2208 25.2127 61.1762C25.2574 61.0869 25.302 60.9977 25.3466 60.8638L25.3912 60.7746L26.1498 59.3913C26.1944 59.3467 26.1944 59.2575 26.239 59.2128V59.1682L26.2837 59.079C26.3729 58.9451 26.4621 58.7666 26.5514 58.6328C26.6853 58.4096 26.7745 58.1865 26.9084 58.0081C27.1315 57.6065 27.31 57.2495 27.4438 57.071C27.4884 56.9371 27.5331 56.8925 27.5777 56.8479C27.5331 56.8479 27.31 56.6694 26.953 56.4463C26.5068 56.1786 25.8821 55.8216 25.1235 55.4646C24.8558 55.3308 24.6327 55.2415 24.3649 55.1077C24.0526 54.9738 23.6956 54.8399 23.3386 54.7061C23.2494 54.6614 23.1601 54.6614 23.0709 54.6168C22.7586 54.5276 22.4908 54.4383 22.1785 54.3491C21.9554 54.3045 21.7323 54.2598 21.5538 54.2152C21.3753 54.1706 21.1968 54.1706 21.0183 54.126C20.9291 54.126 20.8398 54.126 20.7506 54.0814C20.6613 54.0814 20.5721 54.0814 20.4829 54.0367C20.2597 54.0367 19.992 53.9921 19.7689 53.9921H19.4119C18.8765 53.9921 18.3856 54.0367 17.8948 54.126H17.8056C16.9131 54.2598 16.0653 54.483 15.2175 54.7953C14.9498 54.8846 14.6821 55.0184 14.3697 55.1523C14.2805 55.1969 14.2358 55.2415 14.1466 55.2415L13.8789 55.3754C13.0757 55.777 12.3171 56.3124 11.6032 56.8925H11.5585C10.9338 57.3834 10.3984 57.9634 9.90755 58.5435L9.50595 59.079C9.32747 59.3021 9.1936 59.5252 9.05974 59.7483C8.79201 60.1499 8.52428 60.5961 8.30117 61.0423C8.21193 61.2208 8.12268 61.3547 8.07806 61.5332C8.07806 61.5778 8.03344 61.5778 8.03344 61.6224C7.58723 62.6933 7.23025 63.8089 7.09639 65.0136C7.05177 65.2367 7.05177 65.4599 7.00715 65.7276V65.8168C7.00715 65.9953 6.96252 66.1738 6.96252 66.3969V67.2001C6.96252 67.3786 6.96252 67.5571 7.00715 67.7356V67.9587C7.00715 68.0925 7.05177 68.2264 7.05177 68.3603V68.4049C7.05177 68.4941 7.05177 68.5387 7.09639 68.628C7.09639 68.7619 7.14101 68.8957 7.14101 68.985C7.14101 69.0742 7.18563 69.1634 7.18563 69.2527C7.23025 69.3866 7.23025 69.4758 7.27487 69.6097C7.27487 69.6989 7.3195 69.7881 7.36412 69.8774V69.922L7.40874 70.0112V70.1005L7.45336 70.1897C7.49798 70.279 7.49798 70.3682 7.5426 70.4575C7.58723 70.5467 7.58723 70.6806 7.63185 70.7698C7.67647 70.8591 7.72109 70.9483 7.72109 71.0822L7.76571 71.1714C7.81033 71.2607 7.81033 71.3053 7.85496 71.3945C7.89958 71.4838 7.9442 71.573 7.98882 71.7069L8.12268 71.9746C8.16731 72.0192 8.16731 72.0638 8.21193 72.1085C8.25655 72.1531 8.25655 72.1977 8.30117 72.2423L8.43504 72.5101C8.47966 72.5993 8.52428 72.7332 8.61352 72.8224C8.65814 72.9117 8.70276 73.0009 8.74739 73.0455C8.79201 73.1348 8.88125 73.2686 8.92587 73.3579C8.97049 73.4471 9.01512 73.4917 9.05974 73.581C9.10436 73.6702 9.1936 73.8041 9.28284 73.8933C9.32747 73.9826 9.37209 74.0272 9.41671 74.0718C9.50595 74.1611 9.55057 74.2949 9.63982 74.3842C9.68444 74.4288 9.72906 74.518 9.77368 74.5627C9.86292 74.6519 9.95217 74.7858 10.0414 74.875C10.086 74.9196 10.1307 74.9642 10.1753 75.0535C10.2645 75.1427 10.3538 75.2766 10.443 75.3658L10.5769 75.4997C10.6661 75.5889 10.7554 75.7228 10.8892 75.8121L11.0231 75.9459L11.3354 76.2583C11.3801 76.3029 11.4247 76.3475 11.4693 76.3475C11.5585 76.4368 11.6924 76.526 11.8263 76.6599C11.8709 76.7045 11.9155 76.7045 11.9601 76.7491C12.094 76.8384 12.1832 76.9276 12.3171 77.0168C12.3617 77.0615 12.4064 77.0615 12.4064 77.1061L12.8079 77.3738L12.8972 77.4184L13.2988 77.6862L13.388 77.7308C13.5219 77.82 13.7004 77.9093 13.8342 77.9985L13.9235 78.0431C14.0574 78.1324 14.2358 78.2216 14.3697 78.2662L14.4589 78.3109C14.6374 78.4001 14.7713 78.4447 14.9498 78.534L14.9944 78.5786C15.1729 78.6678 15.3514 78.7125 15.4852 78.8017H15.5299C15.7083 78.8463 15.8868 78.9356 16.0653 78.9802H16.1099C16.1992 79.0248 16.2884 79.0248 16.3777 79.0694C16.4669 79.114 16.5562 79.114 16.69 79.1587H16.7346C16.9131 79.2033 17.1362 79.2479 17.3147 79.2925C17.4932 79.3372 17.7163 79.3818 17.8948 79.3818C18.5195 79.471 19.1442 79.5156 19.7689 79.5603H20.2151C20.4382 79.5603 20.6167 79.5603 20.8398 79.5156C21.1076 79.471 21.4199 79.471 21.7323 79.4264C22 79.3818 22.2677 79.3372 22.4908 79.2925C22.8924 79.2033 23.294 79.1141 23.651 78.9802C24.8111 78.6678 25.7928 78.2216 26.4175 77.7308C26.4175 77.7308 26.0159 75.9459 25.7036 74.1611C25.6143 74.0718 25.5697 73.8933 25.5251 73.7148Z" fill="#90694C"/>
<path d="M54.1722 7.40719L54.0383 5.62233L54.9307 3.65898L55.2877 3.56974C54.7076 3.30201 53.9937 3.12352 53.1905 2.98966C51.5841 2.76655 49.5315 2.98966 47.2112 3.56974C44.8909 4.14982 42.2582 5.17611 39.4917 6.55938C33.914 9.32592 27.7562 13.565 21.7769 19.0088C19.6797 20.8829 17.761 22.8462 15.9761 24.765C14.2359 26.6391 12.6741 28.5578 11.2462 30.3873C8.34582 34.1801 6.15937 37.8391 4.73148 41.1411C3.79443 43.3275 3.21435 45.3355 2.99124 47.0757C2.81275 48.3251 2.85737 49.4407 3.08048 50.3331C3.16972 50.6455 3.25897 50.8686 3.34821 51.1363C3.57132 51.6718 3.83905 52.118 4.19602 52.5196L7.81036 56.3124L8.21196 56.714L8.25658 56.6694C8.34582 56.5355 8.47969 56.4016 8.61355 56.3124L8.65817 56.2678L8.79204 56.1339C8.88128 56.0001 9.01515 55.9108 9.10439 55.777C9.19363 55.6877 9.23825 55.6431 9.3275 55.5985C9.41674 55.5538 9.46136 55.4646 9.5506 55.42L9.63985 55.3307C9.72909 55.2861 9.77371 55.1969 9.86296 55.1522C9.9522 55.063 10.0861 54.9738 10.1753 54.8845C10.2199 54.8399 10.3092 54.7953 10.3538 54.7507H10.3984C10.5323 54.6614 10.6215 54.5722 10.7554 54.4829C10.8446 54.4383 10.8893 54.3937 10.9785 54.3044C11.1124 54.2152 11.2016 54.1259 11.3355 54.0367C11.4247 53.9921 11.4693 53.9475 11.5586 53.9028C11.6924 53.8136 11.8263 53.7244 11.9602 53.6797C12.0494 53.6351 12.094 53.5905 12.1833 53.5459C12.3171 53.4566 12.451 53.412 12.5849 53.3228C12.6741 53.2781 12.7187 53.2335 12.808 53.1889L12.8972 53.1443C13.745 50.7793 15.0391 48.1467 16.7347 45.4694C18.7873 42.1674 21.4199 38.6869 24.5434 35.2064C26.5068 33.02 28.6486 30.8335 30.9689 28.7363C33.9586 26.0144 37.0375 23.5602 40.0717 21.4184C42.1243 19.9905 44.1323 18.6964 46.0957 17.5809C46.2741 17.4917 46.4526 17.3578 46.6757 17.2686C47.2112 16.9562 47.702 16.6885 48.2375 16.4207C49.353 15.8407 50.4686 15.3052 51.5395 14.859L51.004 14.2343L50.9148 14.145L50.2455 13.3865L46.5419 8.92432L46.5865 5.71157L46.5419 5.66695L49.1745 4.86376L54.1722 7.40719Z" fill="#2F83C1"/>
<path d="M97.3211 82.3714C97.3211 82.3714 97.4103 81.7021 97.0534 81.0774C97.0534 81.0328 97.0088 80.9882 97.0088 80.9882L96.9641 80.9435L96.8303 80.8097C96.741 80.7204 96.6518 80.6312 96.5179 80.5419C96.4733 80.4973 96.3841 80.4527 96.2948 80.4081C96.0717 80.3188 95.8486 80.2296 95.5362 80.185C95.3131 80.1403 95.09 80.1403 94.8223 80.1403H94.4653V80.2296C94.4653 80.2742 94.5099 80.3188 94.5099 80.4081C94.5099 80.4527 94.5099 80.4973 94.5546 80.4973C94.5992 80.6312 94.6438 80.8543 94.6884 81.0328C94.6884 81.0328 94.6884 81.0774 94.6438 81.1666V81.2113C94.5099 81.5236 94.153 82.2376 93.3498 83.13C93.2159 83.3085 93.0821 83.4423 92.9036 83.6208C90.6725 85.9411 85.8534 89.1985 75.6797 91.028C72.2438 91.5188 69.031 91.5635 66.3537 91.2065C62.3378 90.7156 59.3482 89.4216 57.9203 87.6814C57.7864 87.5475 57.6972 87.369 57.5633 87.2352C57.4741 87.1013 57.4294 87.0121 57.3402 86.8782C57.2956 86.8336 57.2956 86.789 57.251 86.7443C56.6709 85.6734 56.4031 84.5133 56.4031 83.3977C56.4031 82.0144 56.8494 80.7204 57.5633 79.7387C58.1434 78.9356 58.902 78.3109 59.839 78.0431C60.2852 77.9093 60.7761 77.82 61.2669 77.8646C61.3561 77.8646 61.49 77.8646 61.6685 77.9093C61.9808 77.9539 62.4717 77.9985 63.0518 78.0878C63.0964 78.0878 63.1856 78.0878 63.2302 78.1324C65.149 78.3555 68.1832 78.6678 71.8422 78.4447C78.5354 78.0431 87.3259 75.9459 95.3131 68.7172V68.6726C95.3578 68.0479 95.2685 66.977 94.5099 66.1292C94.3761 65.9953 94.2422 65.8614 94.0637 65.7276C93.9745 65.6383 93.8406 65.5937 93.7514 65.5045C93.6175 65.4599 93.5283 65.3706 93.439 65.326L93.0374 65.0583V65.0136C92.9928 64.9244 92.9482 64.8352 92.859 64.7459C90.8064 61.6224 87.9506 59.7929 86.7904 58.9451C86.255 58.5435 85.898 58.365 85.898 58.365C83.4438 56.8479 83.0868 56.3571 83.3099 52.2965C83.3992 50.824 83.5331 48.9053 83.7115 46.2726C83.7115 45.9156 83.7562 45.6033 83.7562 45.2909V45.0678V43.9969C83.7562 43.7738 83.7115 43.5507 83.7115 43.3722C83.7115 43.2829 83.7115 43.1937 83.6669 43.1045C83.6223 42.8813 83.6223 42.6582 83.5777 42.4351C83.5777 42.3459 83.533 42.212 83.533 42.1228C83.533 41.9889 83.4884 41.8997 83.4438 41.7658C83.3992 41.6766 83.3992 41.5427 83.3546 41.4535C83.3099 41.3196 83.2653 41.1857 83.2653 41.0519C83.2653 41.0072 83.2207 40.9626 83.2207 40.918C83.2207 40.8734 83.1761 40.8288 83.1761 40.7841V40.7395L83.1315 40.6056C83.0868 40.5164 83.0422 40.4272 83.0422 40.3379V40.2933L82.9976 40.2041L82.953 40.1148C82.8637 39.9363 82.8191 39.7578 82.7299 39.624L82.6852 39.4901C82.596 39.3562 82.5068 39.1778 82.4175 39.0439L82.3729 38.9993L82.3283 38.9547C82.239 38.8654 82.1944 38.7762 82.1052 38.6869L82.0159 38.5531C81.9267 38.4192 81.8374 38.3299 81.7482 38.2407L81.3912 37.8837C81.2573 37.7945 81.1235 37.7052 80.9896 37.6606C80.945 37.616 80.9004 37.616 80.8558 37.616L80.588 37.4821C80.5434 37.4821 80.4988 37.4375 80.4542 37.4375C80.3649 37.3929 80.2757 37.3929 80.2311 37.3483C80.1864 37.3483 80.1418 37.3037 80.0526 37.3037C79.9633 37.3037 79.9187 37.259 79.8295 37.259H78.8478C78.8032 37.259 78.7585 37.259 78.7139 37.3037C78.6693 37.3037 78.6247 37.3037 78.5801 37.3483C78.4908 37.3483 78.4016 37.3929 78.2677 37.4375H78.1785C77.9107 37.5268 77.6876 37.616 77.4199 37.7052L77.3307 37.7499C77.2414 37.7945 77.1522 37.8391 77.0183 37.8837L76.8844 37.9284L76.6167 38.0622L76.4828 38.1515L76.2151 38.2853L76.0812 38.3746C75.992 38.4192 75.9028 38.5084 75.8135 38.5531L75.7243 38.5977C75.635 38.6869 75.5012 38.7315 75.4119 38.8208L75.3673 38.8654C75.2334 38.9547 75.1442 39.0439 75.0103 39.0885C74.7872 39.2224 74.5641 39.4009 74.341 39.5347C74.1625 39.6686 73.984 39.8025 73.7609 39.9363L73.6717 39.9809C73.4932 40.1148 73.2701 40.2487 73.0916 40.3379L73.0024 40.3825C72.8239 40.5164 72.6008 40.6057 72.4223 40.7395L72.333 40.7841C72.1546 40.918 71.9314 41.0072 71.7083 41.0965L71.6191 41.1411C71.396 41.2303 71.2175 41.3196 70.9944 41.4088L70.9051 41.4535C70.682 41.5427 70.4589 41.5873 70.2358 41.6766H70.1912C69.9681 41.7212 69.7004 41.7658 69.4773 41.8104C69.0757 41.8551 68.6294 41.8997 68.2279 41.8997C67.5585 41.8997 66.8892 41.8551 66.1753 41.7658L65.5059 41.6319C65.4167 41.6319 65.3275 41.5873 65.2828 41.5873C64.7028 41.4535 64.0781 41.3196 63.498 41.1857C63.2302 41.1411 63.0071 41.0519 62.7394 41.0072C62.3378 40.918 61.9362 40.8288 61.49 40.7395C61.4008 40.7395 61.3115 40.6949 61.2669 40.6949C61.2223 40.6949 61.133 40.6503 61.0884 40.6503C60.9992 40.6503 60.9099 40.6056 60.8207 40.6056C60.7314 40.6056 60.6422 40.561 60.5529 40.561H60.4637C60.3745 40.561 60.2852 40.5164 60.2406 40.5164C60.0621 40.4718 59.8836 40.4272 59.6605 40.4272C59.6159 40.4272 59.5267 40.4272 59.482 40.3825C59.3482 40.3825 59.2143 40.3379 59.0804 40.3379C58.9912 40.3379 58.9466 40.3379 58.8573 40.2933C58.7235 40.2933 58.6342 40.2487 58.5004 40.2487H56.4478C56.2247 40.2487 56.0462 40.2933 55.8231 40.2933H55.6446C55.5107 40.2933 55.3769 40.3379 55.243 40.3379H55.1984C55.1091 40.3379 55.0645 40.3825 54.9753 40.3825C54.8414 40.4272 54.7075 40.4272 54.5737 40.4718C54.4844 40.4718 54.3952 40.5164 54.3506 40.5164C54.2167 40.561 54.0828 40.6056 53.949 40.6056C53.8597 40.6056 53.8151 40.6503 53.7259 40.6949C53.592 40.7395 53.4135 40.7841 53.2796 40.8288C53.1904 40.8734 53.1458 40.8734 53.1012 40.918C52.878 41.0072 52.6549 41.0965 52.4764 41.1857C50.7808 42.1674 49.3083 43.5061 48.1928 45.0232C47.7912 45.5586 47.4342 46.0941 47.1219 46.6296C46.7649 47.2096 46.4972 47.8343 46.2294 48.459C46.1402 48.6375 46.0956 48.816 46.0063 48.9945C45.9171 49.3069 45.7832 49.6192 45.694 49.9316C45.694 49.9762 45.694 50.0208 45.6494 50.0208C45.5601 50.3778 45.4709 50.7347 45.3816 51.1363C45.2924 51.5379 45.2478 51.8949 45.2031 52.2965C45.1585 52.5196 45.1585 52.6981 45.1585 52.9212C45.1139 53.5013 45.1139 54.0367 45.1585 54.6168V54.7507C45.1585 54.8845 45.1585 55.0184 45.2031 55.1969C45.2478 55.5985 45.2924 56.0001 45.3816 56.4017C45.4262 56.5355 45.4709 56.6694 45.4709 56.8479C45.5155 56.9818 45.5155 57.1156 45.5601 57.2495C45.8278 58.2758 46.2294 59.2128 46.7203 60.016C48.5498 63.1842 51.584 65.1029 53.8151 66.1292C54.6629 66.4861 55.5553 66.8431 56.4924 67.1555L56.4031 67.2447C56.2247 67.2893 56.0462 67.334 55.8231 67.3786C55.5107 67.4678 55.1091 67.6017 54.7075 67.7356C54.2613 67.8694 53.7258 68.0925 53.1904 68.3156C51.7625 68.8957 50.1561 69.7435 48.7282 70.9037C48.5498 71.0375 48.3713 71.216 48.1928 71.3499C47.8804 71.6176 47.6127 71.8854 47.345 72.1977L47.2557 72.2869L47.1219 72.4208C47.0326 72.5547 46.8988 72.6439 46.8095 72.7778L46.6756 72.9117C46.5418 73.0901 46.4079 73.2686 46.3187 73.4471C46.1848 73.6256 46.0956 73.8041 45.9617 73.9826C45.1139 75.4551 44.6231 77.2399 44.7569 79.3818V79.2925C44.7569 79.2479 44.7569 79.2033 44.8015 79.1587V79.114C44.8015 79.0694 44.8462 79.0248 44.8462 78.9356V78.8909C44.8462 78.8463 44.8908 78.7571 44.8908 78.6678C44.8908 78.5786 44.9354 78.534 44.98 78.4447V78.4001C45.0247 78.3109 45.0246 78.2216 45.0693 78.1324V78.0878C45.1139 77.9985 45.1139 77.9093 45.1585 77.82V77.7754C45.2031 77.6862 45.2478 77.5969 45.2924 77.4631L45.337 77.4184C45.3816 77.3292 45.4262 77.1953 45.5155 77.1061C45.6047 76.9276 45.694 76.7937 45.7832 76.6152C45.8278 76.5706 45.8725 76.4814 45.9171 76.4368L45.9617 76.3921L46.2294 75.9905C46.3187 75.9013 46.4079 75.7674 46.4972 75.6782L46.5864 75.5889C46.6756 75.4997 46.7203 75.4105 46.8095 75.3658L46.8988 75.2766C46.988 75.1874 47.1219 75.0981 47.2111 74.9642C47.2111 74.9642 45.2924 79.3372 46.1402 82.773V82.7284V82.6391V82.5053V82.3268V82.1037C46.1402 82.0145 46.1402 81.9252 46.1848 81.836C46.1848 81.7467 46.1848 81.6575 46.2294 81.5682V81.5236C46.2294 81.4344 46.274 81.3005 46.274 81.2113V81.122C46.3187 80.9882 46.3187 80.8989 46.3633 80.765V80.7204C46.4079 80.5866 46.4525 80.4527 46.4525 80.3635C46.4525 80.3188 46.4972 80.2742 46.4972 80.2296L46.5418 80.1403C46.5864 80.0511 46.631 79.9172 46.6756 79.828C46.7203 79.6941 46.8095 79.5603 46.8988 79.4264C46.8988 79.3818 46.9434 79.3372 46.9434 79.3372L47.2111 78.9356C47.2111 78.9356 47.1219 80.0065 47.1219 81.3005C47.1219 81.5236 47.1219 81.7021 47.1665 81.9252C47.1665 82.0591 47.1665 82.1929 47.2111 82.3268C47.3004 80.9435 47.5681 79.6495 47.925 78.4447C47.5681 79.6495 47.3004 80.9435 47.2111 82.3268C47.1665 83.2192 47.1665 84.1117 47.2557 85.0487C47.3896 86.6105 47.7912 88.3061 48.4605 90.0463C48.4605 90.0463 47.8358 88.0384 48.7282 86.0304L48.996 86.5658C49.0852 87.1459 49.1745 87.9937 49.3529 88.9308C49.5314 90.4925 50.2454 95.1778 53.4581 98.4352C53.4581 98.4352 52.2533 96.8734 52.4318 94.8655C52.5657 95.1332 52.6996 95.3563 52.7888 95.5794C53.3243 96.6057 54.3952 98.4798 55.6 99.8184C55.6 99.8184 54.6629 97.989 54.886 97.5874C54.886 97.5874 58.0095 101.469 58.9912 101.826L57.6972 99.6846L57.6525 99.64C62.1593 102.942 68.4063 104.147 76.0812 102.005C77.4199 101.648 78.7585 101.157 80.1864 100.577C81.0342 100.22 81.882 99.7738 82.7299 99.3276L82.8637 99.2384C83.4438 98.926 84.0239 98.569 84.604 98.2121C85.0502 97.9443 85.4964 97.632 85.898 97.3643C86.6119 96.8734 87.3259 96.338 88.0398 95.7579C88.0844 95.7133 88.1291 95.6686 88.1737 95.6686C88.843 95.0886 89.5123 94.4639 90.0924 93.8392C90.8956 92.9914 91.6096 92.1435 92.2342 91.2957L92.2789 91.2511C92.4574 91.028 92.5912 90.8495 92.7251 90.6264L92.7697 90.5818C92.8143 90.4925 92.8589 90.4479 92.9036 90.3587C93.1267 90.0463 93.3052 89.7786 93.5283 89.4662C93.5729 89.377 93.6175 89.3324 93.6621 89.2431C93.7514 89.0647 93.8406 88.9308 93.9745 88.7523C94.0637 88.6184 94.1084 88.5292 94.1976 88.3953C94.2868 88.2615 94.3761 88.1276 94.4207 87.9937C94.5546 87.7706 94.6884 87.5029 94.8223 87.2798L94.9562 87.0121L95.2239 86.4766L95.3578 86.2089L95.4024 86.1196C95.4916 85.8965 95.6255 85.6734 95.7147 85.4503V85.4057C96.1163 85.0487 96.3841 84.6917 96.6518 84.3794C96.6964 84.3348 96.741 84.2901 96.741 84.2455C97.1426 83.6654 97.3211 82.9961 97.3211 82.3714ZM25.1681 70.9929C25.0342 71.0376 24.9003 71.216 24.7218 71.4391C24.6772 71.5284 24.588 71.6176 24.5434 71.7515C24.1418 72.5101 23.7848 73.581 23.7848 73.581C23.8294 73.224 23.874 72.867 23.874 72.5101V72.3762C23.9187 72.0192 23.9633 71.6176 24.0079 71.2607V71.1268C24.0525 70.6806 24.1418 70.279 24.231 69.8774C24.231 69.8328 24.231 69.7881 24.2756 69.6989V69.6543C24.2756 69.6097 24.2756 69.565 24.3203 69.5204C24.3203 69.4312 24.3649 69.3866 24.3649 69.2973C24.4095 68.985 24.4987 68.6726 24.5434 68.3603C24.588 68.0925 24.6326 67.8248 24.6772 67.6017V67.5124C24.6772 67.4678 24.6772 67.4232 24.7218 67.4232V67.334C24.7218 67.2893 24.7665 67.2001 24.7665 67.1555C24.7665 67.1109 24.7665 67.0662 24.8111 67.0216C24.8111 66.9324 24.8557 66.8431 24.8557 66.7985C24.8557 66.7539 24.9003 66.6646 24.9003 66.62C24.9003 66.5308 24.945 66.4415 24.945 66.3969C24.945 66.3523 24.945 66.3077 24.9896 66.263C24.9896 66.2184 24.9896 66.1738 25.0342 66.1738C25.0342 66.0846 25.0788 66.0399 25.0788 65.9953V65.8615L24.9896 65.9507C24.9003 65.9953 24.8557 66.0846 24.7665 66.1292L24.6772 66.2184C24.588 66.3077 24.4987 66.3969 24.4541 66.4861L24.4095 66.5308L24.1418 66.9324L24.0971 66.977C24.0971 67.0216 24.0525 67.0216 24.0525 67.0662L23.9187 67.334V67.4232C23.874 67.5571 23.7848 67.6909 23.7402 67.8248C23.6063 68.1818 23.4724 68.5387 23.3832 68.8511C23.3386 68.9403 23.3386 69.0742 23.294 69.1188C23.2493 69.2973 23.2047 69.4758 23.2047 69.5204V69.565V69.5204C23.2047 69.3866 23.2047 69.2973 23.2493 69.1634C23.2493 68.9403 23.294 68.6726 23.294 68.4495C23.294 68.271 23.3386 68.0479 23.3832 67.8694C23.3832 67.8248 23.3832 67.7356 23.4278 67.6909C23.4278 67.6017 23.4724 67.5124 23.4724 67.4232C23.4724 67.334 23.5171 67.2447 23.5171 67.1555V67.0216C23.5171 66.9324 23.5617 66.7985 23.5617 66.7093V66.4861V66.3969C23.5617 66.3523 23.5617 66.3077 23.6063 66.263C23.6509 66.1292 23.6955 65.9507 23.6955 65.8168V65.7722C23.7402 65.683 23.7402 65.5491 23.7848 65.4599V65.4152C23.8294 65.1921 23.9187 64.969 23.9633 64.7459V64.6567C23.9633 64.612 23.9633 64.5674 24.0079 64.5228C24.0971 64.1658 24.231 63.8089 24.3203 63.4965V63.4519C24.4095 63.1842 24.5434 62.8718 24.6326 62.6041V62.5595C24.6772 62.4256 24.7218 62.3363 24.7665 62.2025C24.8557 62.024 24.9003 61.8455 24.9896 61.667C24.9896 61.6224 25.0342 61.5332 25.1234 61.3547C25.1681 61.31 25.1681 61.2208 25.2127 61.1762C25.2573 61.0869 25.3019 60.9977 25.3465 60.8638L25.3912 60.7746C25.3465 60.73 25.2573 60.73 25.2127 60.6853H25.1681L25.0788 60.6407C24.6772 60.4622 24.231 60.2838 23.7848 60.1499H23.6955C23.3832 60.0606 23.1155 60.016 22.8031 59.9714C22.6246 59.9714 22.4461 59.9268 22.2677 59.9268H21.8214C21.5983 59.9268 21.3752 59.9714 21.1521 59.9714C21.0629 59.9714 21.0183 59.9714 20.929 60.016C20.8398 60.016 20.7059 60.0606 20.6167 60.0606C20.572 60.0606 20.5274 60.0606 20.4828 60.1053C20.3936 60.1053 20.3489 60.1499 20.2597 60.1499C20.1258 60.1945 19.9473 60.2391 19.8135 60.2838C19.7689 60.2838 19.6796 60.3284 19.635 60.3284C19.4565 60.4176 19.2334 60.4622 19.0549 60.5515C18.9657 60.5961 18.921 60.6407 18.8318 60.6407L18.5641 60.7746L18.4748 60.8192C18.3856 60.8638 18.2963 60.9085 18.2071 60.9977C18.1179 61.0423 18.0286 61.0869 17.9394 61.1762C17.8501 61.2208 17.7609 61.31 17.6716 61.3547C17.627 61.3993 17.5378 61.4439 17.4932 61.4885C17.3593 61.6224 17.1808 61.7563 17.0469 61.8901L16.8238 62.1132C16.69 62.2471 16.6007 62.381 16.4669 62.5148L16.4222 62.5595C16.3776 62.6487 16.2884 62.6933 16.2438 62.7826L16.1099 62.9164C15.8868 63.2288 15.6637 63.5858 15.4852 63.9427C15.4406 63.9873 15.4406 64.032 15.3959 64.0766C15.3067 64.2551 15.2621 64.4336 15.1728 64.612C15.1282 64.7013 15.1282 64.7459 15.0836 64.8352C15.039 65.0136 14.9497 65.1921 14.9051 65.4152V65.5937C14.8605 65.7276 14.8605 65.8614 14.8159 65.9953C14.8159 66.0846 14.8159 66.1292 14.7712 66.2184C14.7712 66.3077 14.7712 66.3523 14.7266 66.4415V66.62C14.7266 66.8431 14.682 67.0662 14.7266 67.2893C14.7266 67.4678 14.7266 67.6463 14.7712 67.8248V67.914C14.7712 68.0033 14.8159 68.0925 14.8159 68.1818C14.8605 68.5387 14.9497 68.8511 15.039 69.2081C15.1282 69.4758 15.2175 69.6989 15.3067 69.922C15.4852 70.3682 15.7083 70.7698 15.976 71.1714C16.5115 71.9746 17.2254 72.6885 18.0732 73.224C18.5195 73.5364 19.0549 73.7595 19.5904 73.9379C20.0812 74.1164 20.6167 74.2503 21.1967 74.2949C21.3306 74.2949 21.4645 74.3395 21.5537 74.3395H22.1338C22.3123 74.3395 22.4908 74.2949 22.6693 74.2949C22.7585 74.2949 22.8924 74.2949 22.9816 74.2503C23.2493 74.2057 23.4724 74.1611 23.7402 74.1164H23.7848C23.874 74.0718 23.9633 74.0718 24.0971 74.0272C24.4095 73.9379 24.7218 73.8041 24.9896 73.6702L25.0342 73.6256C25.1234 73.581 25.2127 73.5364 25.2573 73.5364C25.1234 72.7778 24.9896 71.9746 24.945 71.1714C25.1681 71.0822 25.1681 71.0376 25.1681 70.9929Z" fill="#FCE9CD"/>
<path d="M55.2876 7.94263L55.4215 8.03187L55.2876 7.94263Z" fill="#4D9ED7"/>
<path d="M94.5993 80.5419C94.5993 80.4972 94.5993 80.4526 94.5546 80.4526C94.51 80.3634 94.51 80.3187 94.51 80.2741C94.2869 79.5602 94.0192 79.0247 93.7514 78.6231C93.4391 78.1323 93.1714 77.8646 93.1714 77.8646L93.3052 77.3291C93.3498 77.106 93.3945 76.8829 93.3945 76.6598C93.573 75.0534 93.1714 73.804 92.8144 73.0901C92.7698 72.9562 92.7251 72.867 92.6805 72.7777C92.4128 72.9562 92.1897 73.1347 91.922 73.3132C87.1028 76.5705 81.7036 78.6678 75.8582 79.5602C71.8423 80.1849 67.6032 80.2295 63.1857 79.6941L63.2749 79.7387C63.2749 79.7387 60.5976 80.0956 59.8837 82.6391L59.9283 82.6837L59.7052 84.3793C59.7944 86.6996 60.8207 88.1275 62.0255 88.8861C63.2749 89.3769 64.7921 89.7339 66.4877 89.957C69.3881 90.314 72.7793 90.2247 76.1705 89.6893C80.7219 89.0646 87.1475 86.655 91.7435 83.5315C92.7698 82.8176 93.7514 82.059 94.5546 81.3004L94.5993 81.2558L94.6439 81.2112C94.6439 80.8988 94.5993 80.7203 94.5993 80.5419Z" fill="white"/>
<path d="M85.898 58.4988C83.4439 56.9817 83.0869 56.4909 83.31 52.4303C83.3992 50.9578 83.5331 49.0391 83.7116 46.4064C83.7116 46.0494 83.7562 45.7371 83.7562 45.4247V45.2016V44.1307C83.7562 43.9076 83.7116 43.6845 83.7116 43.506C83.7116 43.4168 83.7116 43.3275 83.667 43.2383C83.6223 43.0152 83.6224 42.7921 83.5777 42.5689C83.5777 42.4797 83.5331 42.3458 83.5331 42.2566C83.5331 42.1227 83.4885 42.0335 83.4439 41.8996C83.3992 41.8104 83.3992 41.6765 83.3546 41.5873C82.9977 41.0518 82.5961 40.6056 82.1052 40.204L82.016 40.1148L81.9267 40.0701H81.8821C81.7929 40.0255 81.7482 39.9809 81.659 39.9363C81.5698 39.8917 81.4805 39.847 81.4359 39.8024C80.722 39.3562 79.8741 39.0885 79.0263 38.9546C78.5355 38.8654 78.0447 38.8654 77.5538 38.8654C77.3307 38.8654 77.063 38.91 76.8399 38.91C76.2152 38.9992 75.5905 39.1331 74.9211 39.3116C74.698 39.4454 74.4749 39.6239 74.2518 39.7578C74.0733 39.8917 73.8949 40.0255 73.6717 40.1594L73.5825 40.204C73.404 40.3379 73.1809 40.4717 73.0024 40.561L72.9132 40.6056C72.7347 40.7395 72.5116 40.8287 72.3331 40.9626L72.2439 41.0072C72.0654 41.1411 71.8423 41.2303 71.6192 41.3195L71.5299 41.3642C71.3068 41.4534 71.1283 41.5427 70.9052 41.6319L70.816 41.6765C70.5929 41.7658 70.3697 41.8104 70.1466 41.8996H70.102C69.8789 41.9442 69.6112 41.9889 69.3881 42.0335C68.9865 42.0781 68.5403 42.1227 68.1387 42.1227C67.4693 42.1227 66.8 42.0781 66.0861 41.9889L65.4168 41.855C65.3275 41.855 65.2383 41.8104 65.1937 41.8104C64.6136 41.6765 63.9889 41.5427 63.4088 41.4088C63.1411 41.3642 62.9179 41.2749 62.6502 41.2303C62.2486 41.1411 61.847 41.0518 61.4008 40.9626C61.3116 40.9626 61.2223 40.9179 61.1777 40.9179C60.8207 40.9179 60.4638 40.9626 60.1514 41.0072H60.0622C59.0359 41.1411 58.0542 41.3642 57.0279 41.7211C56.9833 41.7211 56.9387 41.7658 56.8494 41.7658C56.6709 41.8104 56.5371 41.8996 56.3586 41.9442C56.1355 42.0335 55.957 42.1227 55.7339 42.212C54.2614 42.8367 52.8781 43.7291 51.5395 44.8446C51.004 45.2909 50.5132 45.7817 50.0223 46.2725C49.3084 47.0311 48.6837 47.8343 48.1036 48.6821C48.059 48.7267 48.059 48.7713 48.0144 48.816C47.702 49.2622 47.4343 49.753 47.2112 50.1992C47.1219 50.3777 47.0327 50.5562 46.9434 50.6901V50.7347C46.6757 51.3148 46.4526 51.8502 46.2741 52.4303C46.2741 52.4749 46.2741 52.5195 46.2295 52.5195C46.1849 52.6088 46.1849 52.698 46.1402 52.7873C46.051 53.055 45.9618 53.3227 45.9171 53.5905C45.8279 53.8582 45.7833 54.1259 45.7387 54.4383C45.7387 54.4829 45.694 54.5721 45.694 54.6168C45.6494 54.7953 45.6494 54.9737 45.6048 55.1076C45.5155 55.7323 45.4709 56.357 45.4263 56.9817V57.4279C45.694 58.4542 46.0956 59.3913 46.5865 60.1945C48.4159 63.3626 51.4502 65.2813 53.6813 66.3076C54.5291 66.6646 55.4215 67.0216 56.3586 67.3339L56.4032 67.3785L56.4478 67.3339C56.5817 67.2447 56.6709 67.1554 56.8048 67.0662C56.8494 67.0216 56.894 67.0216 56.9387 66.9769L57.3403 66.7092C57.3849 66.6646 57.4295 66.6646 57.4741 66.62L57.8757 66.3522C57.9203 66.3076 57.965 66.3076 58.0096 66.263C58.1434 66.1737 58.2773 66.0845 58.4558 65.9953C58.5004 65.9506 58.545 65.9506 58.5897 65.906C58.7235 65.8168 58.902 65.7275 59.0359 65.6383C59.0805 65.5937 59.1251 65.5937 59.1697 65.549C59.3036 65.4598 59.4821 65.3706 59.616 65.2813C59.6606 65.2367 59.7498 65.2367 59.7944 65.1921C59.9283 65.1028 60.1068 65.0136 60.2407 64.9243C60.2853 64.8797 60.3745 64.8351 60.4191 64.8351C60.553 64.7459 60.7315 64.6566 60.91 64.5674C60.9992 64.5227 61.0438 64.4781 61.1331 64.4781C61.3116 64.3889 61.4454 64.2996 61.6239 64.255C61.7132 64.2104 61.7578 64.1658 61.847 64.1658C62.0255 64.0765 62.1594 64.0319 62.3379 63.9427L62.6056 63.8088C62.7841 63.7196 62.9179 63.6749 63.0964 63.5857C63.1857 63.5411 63.2749 63.4965 63.4088 63.4518C63.5873 63.4072 63.7211 63.318 63.8996 63.2733C63.9889 63.2287 64.1227 63.1841 64.212 63.1395C64.3905 63.0949 64.5243 63.0056 64.7028 62.961C64.8367 62.9164 64.9259 62.8718 65.0598 62.8271C65.2383 62.7825 65.3721 62.6933 65.5506 62.6486L65.9522 62.5148C66.0861 62.4702 66.2646 62.4255 66.3984 62.3363C66.5323 62.2917 66.7108 62.247 66.8447 62.2024C66.9785 62.1578 67.157 62.1132 67.2909 62.0686C67.4694 62.0239 67.6478 61.9793 67.7817 61.9347C67.9156 61.8901 68.0494 61.8455 68.2279 61.8008C68.4064 61.7562 68.5849 61.7116 68.808 61.6223C68.8972 61.5777 68.9865 61.5777 69.0757 61.5331C69.7897 59.7036 71.9761 55.1522 75.6797 54.6614C76.0813 54.6168 76.4383 54.5721 76.7953 54.5721H77.063C77.0184 54.3044 76.9737 54.0367 76.9737 53.7243C76.8399 51.761 77.4646 50.11 78.3124 50.0654C78.9817 50.0207 79.5172 51.0024 79.6064 51.3148C79.8741 51.8948 80.0526 52.6534 80.0972 53.5012C80.1419 54.2598 80.0526 54.9737 79.9188 55.5984C80.008 55.6877 80.0526 55.7769 80.1419 55.8215C80.9897 56.8925 81.1235 58.3204 81.0789 59.3913C81.3913 59.3467 81.7482 59.3466 82.1052 59.302C82.1945 59.302 82.2837 59.302 82.373 59.2574H82.5514C82.953 59.2128 83.3992 59.1682 83.8455 59.1682C84.8271 59.0789 85.8088 59.0343 86.8351 58.9897C86.255 58.6773 85.898 58.4988 85.898 58.4988ZM95.2239 85.9857C93.6176 87.4136 91.922 88.5738 90.2263 89.5108C89.3785 89.957 88.5307 90.3586 87.7275 90.7156C85.8981 91.5188 84.1578 92.0542 82.5961 92.4558C79.1602 93.3036 76.7953 93.3036 76.7953 93.3036C78.6694 94.3299 81.0343 94.3299 82.6407 94.1961C83.7562 94.1068 84.5148 93.8837 84.5148 93.8837C84.4702 94.553 84.3809 95.1777 84.2917 95.8025C84.1578 96.4718 83.9793 97.0519 83.7562 97.5873V97.6319C83.4885 98.3013 83.1315 98.8813 82.7745 99.4168C82.7299 99.4614 82.6853 99.5507 82.6407 99.5953L82.7745 99.506C83.3546 99.1937 83.9347 98.8367 84.5148 98.4797C84.961 98.212 85.4072 97.8997 85.8088 97.6319C86.5228 97.1411 87.2367 96.6056 87.9506 96.0256C87.9953 95.9809 88.0399 95.9363 88.0845 95.9363C88.7538 95.3562 89.4231 94.7315 90.0032 94.1068C90.8064 93.259 91.5204 92.4112 92.1451 91.5634L92.1897 91.5188C92.3682 91.2957 92.502 91.1172 92.6359 90.8941L92.6805 90.8495C92.7251 90.7602 92.7698 90.7156 92.8144 90.6264C93.0375 90.314 93.216 90.0463 93.4391 89.7339C93.4837 89.6447 93.5283 89.6001 93.573 89.5108C93.6622 89.3323 93.7514 89.1985 93.8853 89.02C93.9745 88.8861 94.0192 88.7969 94.1084 88.663C94.1977 88.5291 94.2869 88.3953 94.3315 88.2614C94.4654 88.0383 94.5993 87.7706 94.7331 87.5475L94.867 87.2797L95.1347 86.7443L95.2686 86.4766L95.3132 86.3873C95.4024 86.1642 95.5363 85.9411 95.6255 85.718C95.4471 85.7626 95.3578 85.8518 95.2239 85.9857ZM54.5291 68.0032C54.0829 68.1371 53.5474 68.3602 53.012 68.5833C51.5841 69.1634 49.9777 70.0112 48.5498 71.1714C48.3713 71.3052 48.1928 71.4837 48.0144 71.6176C47.702 71.8853 47.4343 72.153 47.1665 72.4654L47.0773 72.5546L46.9434 72.6885C46.8542 72.8224 46.7203 72.9116 46.6311 73.0455L46.4972 73.1793C46.3634 73.3578 46.2295 73.5363 46.1402 73.7148C46.0064 73.8933 45.9171 74.0718 45.7833 74.2502C44.9355 75.7228 44.4446 77.5076 44.5785 79.6495V79.5602C44.5785 79.5156 44.5785 79.471 44.6231 79.4263V79.3817C44.6231 79.3371 44.6677 79.2925 44.6677 79.2032V79.1586C44.6677 79.114 44.7124 79.0247 44.7124 78.9355C44.7124 78.8463 44.757 78.8016 44.8016 78.7124V78.6678C44.8462 78.5785 44.8462 78.4893 44.8908 78.4V78.3554C44.9355 78.2662 44.9355 78.1769 44.9801 78.0877V78.0431C45.0247 77.9538 45.0693 77.8646 45.114 77.7307L45.1586 77.6861C45.2032 77.5969 45.2478 77.463 45.3371 77.3737C45.4263 77.1953 45.5155 77.0614 45.6048 76.8829C45.6494 76.8383 45.694 76.7491 45.7387 76.7044L45.7833 76.6598L46.051 76.2582C46.1402 76.169 46.2295 76.0351 46.3187 75.9459L46.408 75.8566C46.4972 75.7674 46.5418 75.6781 46.6311 75.6335L46.7203 75.5443C46.8096 75.455 46.9434 75.3658 47.0327 75.2319C47.0327 75.2319 45.114 79.6048 45.9618 83.0407V82.9961V82.9068V82.773V82.5945V82.3714C45.9618 82.2821 45.9618 82.1929 46.0064 82.1036C46.0064 82.0144 46.0064 81.9251 46.051 81.8359V81.7913C46.051 81.702 46.0956 81.5682 46.0956 81.4789V81.3897C46.1403 81.2558 46.1402 81.1666 46.1849 81.0327V80.9881C46.2295 80.8542 46.2741 80.7204 46.2741 80.6311C46.2741 80.5865 46.3187 80.5419 46.3187 80.4973L46.3634 80.408C46.408 80.3188 46.4526 80.1849 46.4972 80.0957C46.5418 79.9618 46.6311 79.8279 46.7203 79.6941C46.7203 79.6495 46.765 79.6048 46.765 79.6048L47.0327 79.2032C47.0327 79.2032 46.9434 80.2742 46.9434 81.5682C46.9434 81.7913 46.9434 81.9698 46.9881 82.1929C46.9881 82.3267 46.9881 82.4606 47.0327 82.5945C47.1219 81.2112 47.3897 79.9172 47.7466 78.7124C47.8359 78.4 47.9697 78.0431 48.059 77.7307C48.059 77.6861 48.1036 77.6415 48.1036 77.5969C48.2375 77.2845 48.3267 77.0168 48.4606 76.7044C48.5052 76.6598 48.5052 76.6152 48.5498 76.5259C48.6837 76.2582 48.8175 75.9459 48.9514 75.6781C48.996 75.6335 48.996 75.5889 48.996 75.5443C49.3084 74.9642 49.6207 74.4287 49.9331 73.9379C49.9777 73.8933 49.9777 73.8486 50.0223 73.804C50.1562 73.6255 50.2901 73.4471 50.4239 73.224C50.4685 73.1793 50.4685 73.1347 50.5132 73.0901C50.5578 73.0455 50.5578 73.0008 50.6024 72.9562C50.7809 72.7331 50.9148 72.51 51.0932 72.2869C51.1379 72.2423 51.1379 72.1977 51.1825 72.1977C51.361 71.9745 51.5395 71.7514 51.7179 71.5729C51.9411 71.3052 52.1642 71.0821 52.3873 70.8144C52.5658 70.6359 52.6996 70.4574 52.8781 70.3236L53.0566 70.1451C53.4136 69.7881 53.7705 69.4311 54.1275 69.1188C55.1092 68.2263 55.9124 67.6463 56.1801 67.4678C56.0016 67.5124 55.8231 67.557 55.6 67.6016C55.3323 67.7355 54.9753 67.8694 54.5291 68.0032Z" fill="#F2D2AC"/>
<path d="M80.2311 58.3203C80.2311 58.3203 80.2311 58.2311 80.1865 58.0526C80.008 57.4279 79.3833 55.9108 76.9291 56.1339C74.3411 56.4016 73.4487 58.4988 73.2256 59.2128C73.1809 59.3466 73.1809 59.4359 73.1809 59.4359L73.2702 59.4805C73.5825 59.2128 74.2072 59.2128 74.7873 59.6144C75.055 59.7929 75.2335 59.9713 75.412 60.1945C75.6351 60.5514 75.6797 60.9084 75.5459 61.1761L75.412 61.31C75.412 61.31 75.5013 61.3546 75.6797 61.3992C76.3937 61.6223 78.4017 62.0239 79.4726 60.6407C79.5172 60.5514 79.5618 60.5068 79.6064 60.4176C79.3833 60.3283 79.2941 60.016 79.2941 59.6144C79.2941 59.4359 79.3387 59.2574 79.3833 59.0343C79.5172 58.4988 79.9188 58.1865 80.2311 58.3203ZM67.3355 77.4184C65.6399 77.7753 64.1674 78.0431 63.0518 78.2216C63.0965 78.2216 63.1857 78.2216 63.2303 78.2662C65.149 78.4893 68.1833 78.8016 71.8423 78.5785C78.5355 78.1769 87.326 76.0797 95.3132 68.851V68.8064C95.3578 68.1817 95.2686 67.1108 94.51 66.263C94.3762 66.1291 94.2423 65.9953 94.0638 65.8614C94.0192 65.8614 94.0192 65.8168 93.9746 65.8168C93.7515 65.6829 93.573 65.5937 93.3945 65.4598L92.9929 65.1921V65.1474C92.5021 65.8614 91.922 66.5307 91.2973 67.1554C91.0742 67.3785 90.8511 67.6016 90.5833 67.8247C88.3969 69.7881 85.5411 71.4837 82.4622 72.8224C77.3754 75.0534 71.6638 76.5259 67.3355 77.4184ZM25.0343 65.7721C24.945 65.8168 24.9004 65.906 24.8112 65.9506L24.7219 66.0399C24.6327 66.1291 24.5434 66.2184 24.4988 66.3076L24.4542 66.3522L24.1865 66.7538L24.1418 66.7984C24.1418 66.8431 24.0972 66.8431 24.0972 66.8877L23.9634 67.1554V67.2447C23.9187 67.3785 23.8295 67.5124 23.7849 67.6463C23.651 68.0032 23.5171 68.3602 23.4279 68.6725C23.3833 68.7618 23.3833 68.8957 23.3387 68.9403C23.294 69.1188 23.2494 69.2972 23.2494 69.3419V69.3865V69.3419C23.2494 69.208 23.2494 69.1188 23.294 68.9849C23.294 68.7618 23.3387 68.4941 23.3387 68.271C23.3387 68.0925 23.3833 67.8694 23.4279 67.6909C23.4279 67.6463 23.4279 67.557 23.4725 67.5124C23.4725 67.4231 23.5171 67.3339 23.5171 67.2447C23.5171 67.1554 23.5618 67.0662 23.5618 66.9769V66.8431C23.5618 66.7538 23.6064 66.62 23.6064 66.5307V66.3076V66.2184C23.6064 66.1737 23.6064 66.1291 23.651 66.0845C23.6956 65.9506 23.7403 65.7722 23.7403 65.6383V65.5937C23.7849 65.5044 23.7849 65.3706 23.8295 65.2813V65.2367C23.8741 65.0136 23.9634 64.7905 24.008 64.5674V64.4781C24.008 64.4335 24.008 64.3889 24.0526 64.3443C24.1418 63.9873 24.2757 63.6303 24.365 63.318V63.2733C24.4542 63.0056 24.5881 62.6933 24.6773 62.4255V62.3809C24.7219 62.247 24.7665 62.1578 24.8112 62.0239C24.9004 61.8455 24.945 61.667 25.0343 61.4885C25.0343 61.4439 25.0789 61.3546 25.1681 61.1761C25.2128 61.1315 25.2128 61.0423 25.2574 60.9976C25.302 60.9084 25.3466 60.8192 25.3913 60.6853L25.4359 60.5961C25.3913 60.5514 25.302 60.5514 25.2574 60.5068H25.2128L25.1235 60.4622C24.7219 60.2837 24.2757 60.1052 23.8295 59.9713H23.7403C23.4279 59.8821 23.1602 59.8375 22.8478 59.7929C22.6693 59.7929 22.4909 59.7482 22.3124 59.7482H21.8661C21.643 59.7482 21.4199 59.7929 21.1968 59.7929C21.1076 59.7929 21.063 59.7929 20.9737 59.8375C20.8845 59.8375 20.7506 59.8821 20.6614 59.8821C20.6167 59.8821 20.5721 59.8821 20.5275 59.9267C20.4383 59.9267 20.3936 59.9713 20.3044 59.9713C20.1705 60.016 19.992 60.0606 19.8582 60.1052C19.8136 60.1052 19.7243 60.1498 19.6797 60.1498C19.5012 60.2391 19.2781 60.2837 19.0996 60.3729C19.0104 60.4176 18.9657 60.4622 18.8765 60.4622L18.6088 60.5961L18.5195 60.6407C18.4303 60.6853 18.341 60.7299 18.2518 60.8192C18.1626 60.8638 18.0733 60.9084 17.9841 60.9976C17.8948 61.0423 17.8056 61.1315 17.7163 61.1761C17.6717 61.2208 17.5825 61.2654 17.5379 61.31C17.404 61.4439 17.2255 61.5777 17.0916 61.7116L16.8685 61.9347C16.7347 62.0686 16.6454 62.2024 16.5116 62.3363L16.4669 62.3809C16.4223 62.4702 16.3331 62.5148 16.2885 62.604L16.1546 62.7379C15.9315 63.0502 15.7084 63.4072 15.5299 63.7642C15.4853 63.8088 15.4853 63.8534 15.4406 63.898C15.3514 64.0765 15.3068 64.255 15.2175 64.4335C15.1729 64.5227 15.1729 64.5674 15.1283 64.6566C15.1283 64.7012 15.1729 64.7459 15.1729 64.7905C15.2175 64.969 15.2622 65.1028 15.3068 65.2813V65.3706C15.3514 65.5044 15.4406 65.6829 15.4853 65.8168C15.6638 66.263 15.8422 66.6646 16.0653 67.0216C16.11 67.0662 16.11 67.1108 16.1546 67.1554V67.2L16.1992 67.2447C16.3331 67.5124 16.4669 67.7355 16.6008 67.914C16.8239 68.2263 17.0024 68.4494 17.1363 68.6279L17.2255 68.7172C17.2255 68.7618 17.2701 68.7618 17.2701 68.7618L17.3594 68.851C17.3594 68.7618 17.3148 68.6726 17.3148 68.6279C17.1809 68.0479 17.1363 67.5124 17.1363 66.9323V66.8431C17.1363 66.4861 17.1363 66.1291 17.1809 65.8168L17.3148 66.2184C17.3594 66.3968 17.4486 66.5753 17.4932 66.7538V66.8431C17.761 67.6016 18.0733 68.2263 18.3857 68.7172C18.7426 69.3419 19.055 69.7435 19.2781 70.0112C19.3227 70.0558 19.3673 70.1004 19.3673 70.1451L19.4566 70.2343C19.3227 69.6096 19.2335 69.0295 19.2335 68.4494V67.8694C19.2335 67.6016 19.2335 67.3785 19.2781 67.1554C19.3673 67.557 19.5012 67.9586 19.6351 68.3156V68.3602C20.1259 69.6542 20.706 70.5913 21.1076 71.1714L21.1522 71.216C21.2414 71.3052 21.2861 71.3945 21.3307 71.4837C21.3753 71.5283 21.4199 71.573 21.4199 71.6176L21.5092 71.7068L21.5538 71.7514V71.6622C21.5538 71.573 21.5092 71.4837 21.5092 71.3945C21.4646 71.0821 21.4199 70.7698 21.3753 70.502C21.3753 70.3235 21.3307 70.1004 21.3307 69.922V69.3865V69.2973V68.9403C21.3307 68.7172 21.3753 68.4494 21.3753 68.2263C21.4199 68.3602 21.4646 68.5387 21.5092 68.6725C21.5538 68.7618 21.5984 68.8957 21.643 68.9849V69.0295L21.6877 69.0741C21.7323 69.208 21.7769 69.3419 21.8215 69.4311C21.9108 69.6542 22 69.8773 22.1339 70.0558C22.2677 70.3235 22.357 70.5467 22.4909 70.7251C22.5801 70.859 22.6247 70.9482 22.6693 71.0375C22.7586 71.1714 22.8478 71.3052 22.8924 71.3945C22.9817 71.4837 23.0263 71.573 23.0709 71.6622L23.1156 71.7068C23.1602 71.7961 23.2494 71.8407 23.294 71.9299C23.3387 71.9745 23.3833 72.0192 23.3833 72.0638C23.4725 72.153 23.5171 72.2423 23.5618 72.2423L23.6064 72.2869V72.153C23.651 71.7961 23.6956 71.3945 23.7403 71.0375V70.9036C23.7849 70.4574 23.8741 70.0558 23.9634 69.6542C23.9634 69.6096 23.9634 69.565 24.008 69.4757V69.4311C24.008 69.3865 24.008 69.3419 24.0526 69.2973C24.0526 69.208 24.0972 69.1634 24.0972 69.0741C24.1418 68.7618 24.2311 68.4494 24.2757 68.1371C24.3203 67.8694 24.365 67.6016 24.4096 67.3785V67.2893C24.4096 67.2447 24.4096 67.2 24.4542 67.2V67.1108C24.4542 67.0662 24.4988 66.9769 24.4988 66.9323C24.4988 66.8877 24.4988 66.8431 24.5434 66.7984C24.5434 66.7092 24.5881 66.62 24.5881 66.5753C24.5881 66.5307 24.6327 66.4415 24.6327 66.3969C24.6327 66.3076 24.6773 66.2184 24.6773 66.1737C24.6773 66.1291 24.6773 66.0845 24.7219 66.0399C24.7219 65.9953 24.7219 65.9506 24.7666 65.9506C24.7666 65.8614 24.8112 65.8168 24.8112 65.7721V65.6383L25.0343 65.7721ZM79.1156 84.424C79.7403 84.2008 80.2758 84.0224 80.722 83.8439C81.5698 83.4869 82.016 83.2192 82.016 83.1299C81.9714 83.0407 81.4805 83.0853 80.5881 83.3084C80.1419 83.3977 79.6064 83.4869 78.9371 83.6654C78.6248 83.7546 78.2678 83.7993 77.9108 83.8439C77.5538 83.8885 77.1523 83.9777 76.7507 84.0224C75.9475 84.1562 75.055 84.2455 74.0734 84.3347L72.6008 84.4686C72.11 84.5132 71.5746 84.5132 71.0391 84.5578C68.8973 84.6024 66.5323 84.5132 64.1228 84.067C62.8734 83.8439 61.1331 83.2638 59.9283 82.5945L59.8837 82.5499C60.5977 80.0064 63.2749 79.6495 63.2749 79.6495L63.1857 79.6048H63.0518C62.6502 79.5602 62.3379 79.5156 62.0255 79.471C61.8024 79.4263 61.624 79.4263 61.4901 79.3817C61.3562 79.3817 61.2224 79.3371 61.1777 79.3371C59.5714 79.2479 58.6789 80.5865 58.4112 81.1666L58.2773 81.4343C58.0542 81.9698 57.8757 82.5499 57.8311 83.2192C57.7419 84.424 58.0542 85.718 58.9913 86.8335C59.616 87.5921 60.6869 88.2614 62.0702 88.7969C60.8654 88.0383 59.7945 86.5658 59.7498 84.2901C61.1331 84.8702 62.6949 85.2271 63.8996 85.4503C66.4431 85.9411 68.9419 85.9857 71.1283 85.8518C71.6638 85.8072 72.2439 85.7626 72.7347 85.718C73.2702 85.6287 73.761 85.5841 74.2518 85.5395C75.2335 85.361 76.0813 85.2271 76.9291 85.0487C77.3307 84.9594 77.7323 84.8702 78.0893 84.7363C78.4909 84.6471 78.8032 84.5578 79.1156 84.424Z" fill="#F2D2AC"/>
<path d="M77.0184 54.6168C78.357 54.6614 79.2494 55.063 79.8741 55.6877C80.008 55.1076 80.0972 54.3937 80.0526 53.5905C80.008 52.7427 79.8295 51.9841 79.5618 51.404C79.4725 51.047 78.9371 50.11 78.2678 50.1546C77.4199 50.1992 76.7952 51.8502 76.9291 53.8136C76.9291 54.0813 76.9737 54.349 77.0184 54.6168ZM79.2494 59.659C79.2494 60.016 79.3833 60.3283 79.5618 60.4622C79.8741 60.6407 80.2757 60.2837 80.4542 59.7036C80.4542 59.659 80.4988 59.6144 80.4988 59.5698C80.6327 59.0343 80.4988 58.4988 80.1865 58.365C79.8741 58.1865 79.4725 58.5435 79.2941 59.1235C79.2941 59.302 79.2494 59.4805 79.2494 59.659ZM73.1809 60.6407C73.3148 60.8638 73.5379 61.0869 73.8056 61.2654C74.3857 61.6224 75.0104 61.667 75.3674 61.3546L75.5012 61.2208C75.6351 60.953 75.5905 60.5961 75.3674 60.2391C75.2335 60.016 75.0104 59.7929 74.7427 59.659C74.1626 59.302 73.5379 59.2574 73.2255 59.5251C73.1809 59.5698 73.1363 59.6144 73.0917 59.7036C72.9578 59.9267 73.0024 60.2837 73.1809 60.6407ZM95.3578 68.8064C95.3132 68.8064 95.3132 68.8064 95.3578 68.8064V68.8064ZM94.6439 81.1666C93.7961 81.9698 92.859 82.7283 91.7881 83.4423C87.1921 86.5658 80.7666 89.02 76.2152 89.6001C72.7793 90.1355 69.4327 90.2248 66.5323 89.8678C64.8367 89.6447 63.3642 89.2877 62.0701 88.7969C60.6869 88.2614 59.6159 87.5921 58.9912 86.8335C58.0542 85.718 57.7865 84.3793 57.8311 83.2192C57.8757 82.5945 58.0096 81.9698 58.2773 81.4343L58.4112 81.1666C58.7235 80.5865 59.5713 79.2032 61.1777 79.3371C61.2223 79.3371 61.3562 79.3371 61.4901 79.3817C61.6239 79.3817 61.847 79.4264 62.0255 79.471C62.3379 79.5156 62.6502 79.5602 63.0518 79.6048H63.1857C67.6032 80.1403 71.8423 80.0957 75.8582 79.471C81.7036 78.5785 87.1028 76.4813 91.922 73.224C92.1897 73.0455 92.4128 72.867 92.6805 72.6885L95.3132 68.7618C87.3259 76.0351 78.5355 78.1323 71.8423 78.5339C68.1833 78.757 65.149 78.4893 63.2303 78.2216C63.141 78.2216 63.0964 78.2216 63.0518 78.1769C62.4717 78.0877 62.0255 78.0431 61.6685 77.9985C61.4901 77.9985 61.3562 77.9538 61.2669 77.9538C60.7761 77.9092 60.2853 77.9985 59.8391 78.1323C58.9466 78.4001 58.1434 79.0248 57.5634 79.8279C56.8494 80.8096 56.4032 82.1483 56.4032 83.4869C56.4032 84.6025 56.6709 85.7626 57.251 86.8335C57.2956 86.8782 57.2956 86.9228 57.3403 86.9674C57.4295 87.1013 57.4741 87.1905 57.5634 87.3244C57.6526 87.4582 57.7865 87.6367 57.9203 87.7706C59.3036 89.5108 62.3379 90.7602 66.3538 91.2957C69.0757 91.6527 72.2438 91.608 75.6797 91.1172C85.8534 89.2877 90.6725 85.9857 92.9036 83.71C93.0821 83.5315 93.216 83.3977 93.3498 83.2192C94.153 82.2821 94.51 81.5682 94.6439 81.3005V81.2558C94.6885 81.1666 94.6885 81.122 94.6885 81.122L94.6439 81.1666Z" fill="#664F44"/>
<path d="M62.2933 45.9156C61.9809 45.7371 61.624 45.6032 61.267 45.514C61.0439 45.4693 60.8208 45.4247 60.553 45.3801C60.4638 45.3801 60.3746 45.3801 60.2853 45.3355C59.0805 45.2462 58.0542 45.4247 58.0542 45.4247C57.8311 45.4693 57.608 45.514 57.4295 45.6032C55.8231 46.094 54.7076 46.9419 53.9044 47.9235C53.2797 48.7267 52.8335 49.5745 52.6104 50.4223C52.5658 50.5116 52.5658 50.5562 52.5658 50.6454C52.5212 50.8685 52.4319 51.0917 52.3873 51.2701C52.2534 51.9841 52.1642 52.6088 52.1642 53.1442C52.1642 53.8582 52.2088 54.3044 52.2088 54.3044C52.4765 53.6797 52.7889 53.1442 53.1012 52.6088C53.8598 51.3148 54.663 50.2438 55.5108 49.396C57.1172 47.745 58.7682 46.8526 60.0176 46.4064C61.3562 45.9602 62.2933 45.9156 62.2933 45.9156ZM81.6144 43.6399L81.5698 43.5506C81.3913 43.3275 81.1682 43.1044 80.9005 42.9259C80.2758 42.5243 79.4279 42.3012 78.2678 42.5243C78.2678 42.5243 76.8845 42.8367 76.0813 43.7737C76.0813 43.7737 78.4909 42.7474 81.0789 44.5769C81.3021 44.7554 81.5698 44.9339 81.7929 45.157C82.016 45.3801 82.2837 45.6032 82.5068 45.9156C82.5068 45.9156 82.4176 44.8 81.7483 43.8183C81.7036 43.7291 81.659 43.6845 81.6144 43.6399Z" fill="#E9B784"/>
<path d="M62.6056 61.3993C63.5427 61.1315 64.5244 60.8638 65.6399 60.5961C65.8184 59.7483 65.863 58.722 65.7291 57.6064C65.4168 55.0184 64.2566 53.0104 63.0965 53.1443C61.9363 53.2781 61.267 55.5092 61.5793 58.0973C61.7578 59.4359 62.1148 60.5961 62.6056 61.3993Z" fill="#664F44"/>
<path d="M57.2956 3.07886L54.886 3.61432L55.3768 7.98723L48.996 4.72985L46.3633 5.53304L46.4079 5.57766L54.1721 14.4127L54.2613 14.3681L54.3505 14.3235C54.5736 14.1896 54.8414 14.0111 55.0645 13.8773C55.1537 13.8327 55.243 13.788 55.3322 13.6988C55.6892 13.4757 56.0462 13.2526 56.4031 13.0741L53.1011 9.28125L58.4111 11.8693C58.5896 11.7801 58.7234 11.6908 58.9019 11.6016L58.4111 7.80874L60.8207 10.6199H60.8653C61.0884 10.5307 61.2669 10.3968 61.49 10.3075L61.5792 10.2629L61.6685 10.2183C61.7131 10.2183 61.7577 10.1737 61.7577 10.1737L62.0254 10.0398C62.0254 10.0398 62.0701 10.0398 62.0701 9.9952C62.3378 9.86133 62.6501 9.72747 62.9179 9.5936L57.2956 3.07886Z" fill="#FFD250"/>
<path d="M54.9307 3.74817V3.6143V3.74817ZM54.9307 3.6143L55.2877 3.52506C54.7076 3.25733 53.9936 3.07884 53.1904 2.94498C51.5841 2.72187 49.5315 2.94498 47.2112 3.52506C44.8908 4.10514 42.2582 5.13143 39.4916 6.5147C33.9139 9.28124 27.7562 13.5203 21.7769 18.9641C19.6797 20.8382 17.7609 22.8016 15.9761 24.7203L23.2048 33.6446C25.1681 31.5028 27.2653 29.3609 29.5856 27.2637C32.6645 24.4526 35.788 21.9538 38.8669 19.8119C41.8566 17.7147 44.8462 15.9298 47.6574 14.502L46.408 8.7904L46.4526 5.57765L46.408 5.53303L49.0406 4.72984L54.1721 7.36251L54.0383 5.57765L54.9307 3.6143Z" fill="#4D9ED7"/>
<path d="M54.9307 3.61438L54.0382 5.57773L54.1721 7.40721L55.4215 8.03191L54.9307 3.61438ZM53.1012 9.28132L58.4558 11.914L56.4032 13.0741L53.1012 9.28132ZM58.4558 7.80881L58.9466 11.6016L60.8653 10.62L58.4558 7.80881Z" fill="#132134"/>
<path d="M78.6247 6.42554H79.6064C80.4988 6.42554 81.3466 6.55941 82.1498 6.73789C82.1944 6.73789 82.2391 6.73789 82.2837 6.78251H82.3283L82.4176 6.82714H82.5068C82.4175 6.78251 82.3283 6.69327 82.2391 6.64865C81.3466 6.29168 80.4096 6.06857 79.4279 5.9347C74.6088 5.31 69.0757 7.09486 65.9522 8.34427C65.7737 8.43351 65.5952 8.47813 65.4167 8.56738C65.149 8.70124 64.8813 8.79048 64.6136 8.92435C64.1673 9.10283 63.7211 9.32594 63.2303 9.54905C63.141 9.59367 63.0964 9.59367 63.0072 9.63829C62.7394 9.77216 62.4271 9.90602 62.1594 10.0399C62.1594 10.0399 62.1147 10.0399 62.1147 10.0845L61.847 10.2184C61.8024 10.2184 61.7578 10.263 61.7578 10.263H61.5793L61.5347 10.3076C61.3116 10.3969 61.1331 10.4861 60.91 10.62H60.8653C60.8207 10.6646 60.7761 10.6646 60.7315 10.7092H60.6869C60.6422 10.7092 60.5976 10.7538 60.5976 10.7538C60.2853 10.9323 59.9729 11.0662 59.6606 11.2447C59.4375 11.3785 59.2143 11.4678 58.9912 11.6016H58.9466C58.7681 11.6909 58.6343 11.7801 58.4558 11.8694C57.9203 12.1371 57.4295 12.4495 56.894 12.7618C56.8494 12.8064 56.8048 12.8064 56.7155 12.851C56.6709 12.8957 56.6263 12.8957 56.5817 12.9403C56.5371 12.9849 56.4924 12.9849 56.4478 13.0295L56.4032 13.0742C56.0462 13.2973 55.6892 13.4757 55.3323 13.6989C55.243 13.7435 55.1538 13.7881 55.0645 13.8773C54.8414 14.0112 54.5737 14.1897 54.3506 14.3236L54.2614 14.3682L54.1721 14.4128L52.1641 15.7514C51.0486 16.51 49.9777 17.2686 48.9068 18.0718C48.7729 18.161 48.639 18.2949 48.5052 18.3841C45.694 20.4813 43.0167 22.757 40.4287 25.0773C37.7068 27.5762 35.0741 30.1196 32.6199 32.7076C31.2813 34.0463 30.1211 35.2511 29.2287 36.2327C27.3546 38.2407 26.3283 39.4901 26.3729 39.5347C26.3729 39.5347 26.5514 39.4009 26.8637 39.0885C26.6406 39.3562 26.3729 39.6686 26.1498 39.9363C30.255 35.5634 34.7617 31.1013 39.6255 26.9068C42.5705 24.3634 45.6494 21.9092 48.8175 19.6335C50.2008 18.6518 51.6287 17.6702 53.0566 16.7331C53.5028 16.4208 53.9936 16.153 54.4398 15.8407C54.663 15.7068 54.8861 15.573 55.1538 15.4391C55.2877 15.3499 55.4215 15.2606 55.5554 15.216C55.8231 15.0821 56.0462 14.9036 56.3139 14.7698C56.5371 14.6359 56.8048 14.502 57.0279 14.3236C57.1618 14.2343 57.2956 14.1897 57.4295 14.1004L58.3665 13.565C58.545 13.4757 58.7235 13.3419 58.902 13.2526C59.4821 12.9403 60.0622 12.6279 60.6869 12.3156C60.7315 12.271 60.7761 12.271 60.8207 12.2263L61.0885 12.0925C61.2223 12.0479 61.3116 11.9586 61.4454 11.914C61.49 11.8694 61.5347 11.8694 61.5793 11.8247L61.847 11.6909C61.847 11.6909 61.8916 11.6909 61.8916 11.6463H61.9363C62.204 11.5124 62.4717 11.3785 62.6948 11.2893C62.7394 11.2893 62.7841 11.2447 62.8287 11.2L63.0964 11.0662C63.4088 10.9323 63.6765 10.7985 63.9888 10.6646C64.0781 10.62 64.1673 10.5753 64.212 10.5307C64.2566 10.5307 64.3012 10.4861 64.3458 10.4861C64.4351 10.4415 64.5243 10.3969 64.6136 10.3969C64.9705 10.263 65.2829 10.0845 65.6399 9.95064C65.9522 9.81678 66.2199 9.68291 66.5323 9.54905C68.2279 8.8351 69.7897 8.25502 71.2622 7.76419C74.0287 7.00562 76.4829 6.51478 78.6247 6.42554Z" fill="white"/>
</g>
<defs>
<clipPath id="clip0_103_1002">
<rect width="100" height="113.071" fill="white"/>
</clipPath>
</defs>
</svg>
