<svg width="20" height="20" viewBox="0 0 20 20" fill="none" xmlns="http://www.w3.org/2000/svg">
<path fill-rule="evenodd" clip-rule="evenodd" d="M9.9999 19.6C15.3018 19.6 19.5999 15.302 19.5999 10C19.5999 4.69809 15.3018 0.400024 9.9999 0.400024C4.69797 0.400024 0.399902 4.69809 0.399902 10C0.399902 15.302 4.69797 19.6 9.9999 19.6ZM9.46554 6.60157C9.09731 6.35608 8.62386 6.33319 8.23367 6.54202C7.84348 6.75084 7.5999 7.15747 7.5999 7.60003V12.4C7.5999 12.8426 7.84348 13.2492 8.23367 13.458C8.62386 13.6669 9.09731 13.644 9.46554 13.3985L13.0655 10.9985C13.3994 10.7759 13.5999 10.4012 13.5999 10C13.5999 9.5988 13.3994 9.22413 13.0655 9.00157L9.46554 6.60157Z" fill="white"/>
</svg>
