<svg width="21" height="20" viewBox="0 0 21 20" fill="none" xmlns="http://www.w3.org/2000/svg">
<path fill-rule="evenodd" clip-rule="evenodd" d="M10.4999 19.6C15.8018 19.6 20.0999 15.302 20.0999 10C20.0999 4.69809 15.8018 0.400024 10.4999 0.400024C5.19797 0.400024 0.899902 4.69809 0.899902 10C0.899902 15.302 5.19797 19.6 10.4999 19.6ZM9.96554 6.60157C9.59731 6.35608 9.12386 6.33319 8.73367 6.54202C8.34348 6.75084 8.0999 7.15747 8.0999 7.60003V12.4C8.0999 12.8426 8.34348 13.2492 8.73367 13.458C9.12386 13.6669 9.59731 13.644 9.96554 13.3985L13.5655 10.9985C13.8994 10.7759 14.0999 10.4012 14.0999 10C14.0999 9.5988 13.8994 9.22413 13.5655 9.00157L9.96554 6.60157Z" fill="#007AFF"/>
</svg>
