<svg width="24" height="17" viewBox="0 0 24 17" fill="none" xmlns="http://www.w3.org/2000/svg">
    <g clip-path="url(#clip0_593_10563)">
        <path d="M21.8438 16.5H2.15625C0.967312 16.5 0 15.5327 0 14.3438V2.15625C0 0.967312 0.967312 0 2.15625 0H21.8438C23.0327 0 24 0.967312 24 2.15625V14.3438C24 15.5327 23.0327 16.5 21.8438 16.5ZM2.15625 1.5C1.79438 1.5 1.5 1.79438 1.5 2.15625V14.3438C1.5 14.7056 1.79438 15 2.15625 15H21.8438C22.2056 15 22.5 14.7056 22.5 14.3438V2.15625C22.5 1.79438 22.2056 1.5 21.8438 1.5H2.15625Z" fill="#1F4FDE"/>
        <path d="M17.1421 10.3927C16.9796 10.3927 16.8159 10.3401 16.6783 10.2316C16.353 9.97518 16.2972 9.50362 16.5536 9.17831C16.7639 8.91168 16.875 8.59064 16.875 8.25C16.875 7.90936 16.7639 7.58831 16.5537 7.32164C16.2972 6.99637 16.3531 6.52476 16.6783 6.26831C17.0036 6.01195 17.4752 6.06768 17.7317 6.393C18.1465 6.91931 18.375 7.57879 18.375 8.25C18.375 8.9212 18.1465 9.58068 17.7316 10.107C17.5836 10.2947 17.364 10.3927 17.1421 10.3927Z" fill="#1F4FDE"/>
        <path d="M19.0043 12.2545C18.8259 12.2545 18.6468 12.1913 18.5036 12.0627C18.1953 11.7861 18.1697 11.3119 18.4463 11.0036C19.1258 10.2464 19.5 9.2685 19.5 8.25C19.5 7.2315 19.1258 6.25359 18.4463 5.49638C18.1697 5.18808 18.1953 4.71389 18.5036 4.43728C18.8119 4.16067 19.286 4.18627 19.5627 4.49456C20.4896 5.52741 21 6.86114 21 8.25C21 9.63886 20.4896 10.9726 19.5627 12.0054C19.4147 12.1705 19.2099 12.2545 19.0043 12.2545Z" fill="#1F4FDE"/>
        <path d="M5.8125 8.25H4.6875C3.75698 8.25 3 7.49302 3 6.5625V5.4375C3 4.50698 3.75698 3.75 4.6875 3.75H5.8125C6.74302 3.75 7.5 4.50698 7.5 5.4375V6.5625C7.5 7.49302 6.74302 8.25 5.8125 8.25ZM4.6875 5.25C4.58409 5.25 4.5 5.33409 4.5 5.4375V6.5625C4.5 6.66591 4.58409 6.75 4.6875 6.75H5.8125C5.91591 6.75 6 6.66591 6 6.5625V5.4375C6 5.33409 5.91591 5.25 5.8125 5.25H4.6875Z" fill="#1F4FDE"/>
    </g>
    <defs>
        <clipPath id="clip0_593_10563">
            <rect width="24" height="16.5" fill="white"/>
        </clipPath>
    </defs>
</svg>