<svg width="48" height="48" viewBox="0 0 48 48" fill="none" xmlns="http://www.w3.org/2000/svg">
<path d="M24 48C19.2533 48 14.6131 46.5924 10.6663 43.9553C6.71954 41.3181 3.6434 37.5698 1.8269 33.1844C0.0103984 28.799 -0.464881 23.9734 0.461164 19.3178C1.38721 14.6623 3.67299 10.3859 7.02945 7.02945C10.3859 3.67299 14.6623 1.38721 19.3178 0.461164C23.9734 -0.464881 28.799 0.0103984 33.1844 1.8269C37.5698 3.6434 41.3181 6.71954 43.9553 10.6663C46.5924 14.6131 48 19.2533 48 24C48 30.3652 45.4714 36.4697 40.9706 40.9706C36.4697 45.4714 30.3652 48 24 48ZM24 38.08C26.7848 38.08 29.507 37.2542 31.8224 35.7071C34.1379 34.16 35.9425 31.961 37.0082 29.3882C38.0739 26.8154 38.3527 23.9844 37.8095 21.2531C37.2662 18.5219 35.9252 16.0131 33.9561 14.0439C31.9869 12.0748 29.4781 10.7338 26.7469 10.1906C24.0156 9.64727 21.1846 9.92611 18.6118 10.9918C16.039 12.0575 13.84 13.8621 12.2929 16.1776C10.7458 18.493 9.92001 21.2152 9.92001 24C9.92001 27.7343 11.4034 31.3156 14.0439 33.9561C16.6845 36.5966 20.2658 38.08 24 38.08Z" fill="#714B67"/>
</svg>
