<svg width="160" height="160" viewBox="0 0 160 160" fill="none" xmlns="http://www.w3.org/2000/svg">
    <g clip-path="url(#clip0_578_9286)">
        <path opacity="0.998" d="M13.6099 62.5726H44.4812V136.432H13.6099V62.5726Z" fill="url(#paint0_linear_578_9286)"/>
        <path opacity="0.998" d="M115.519 62.5726H146.39V136.432H115.519V62.5726Z" fill="url(#paint1_linear_578_9286)"/>
        <path opacity="0.998" d="M64.564 62.5726H95.4353V136.432H64.564V62.5726Z" fill="url(#paint2_linear_578_9286)"/>
        <path opacity="0.998" d="M80.0083 0C77.8863 0 74.4813 0.672353 70.2898 3.36359L4.74113 48.5581C-3.25086 53.7009 0.620557 66.2656 8.24753 66.2656H151.769C159.396 66.2656 163.267 53.7009 155.275 48.5581L89.7268 3.36359C85.5353 0.672353 82.1303 0 80.0083 0Z" fill="url(#paint3_linear_578_9286)"/>
        <path opacity="0.998" d="M9.62615 132.116H150.373C155.522 132.116 159.668 136.262 159.668 141.411V150.042C159.668 155.191 155.522 159.336 150.373 159.336H9.62615C4.47694 159.336 0.331543 155.191 0.331543 150.042V141.411C0.331543 136.262 4.47694 132.116 9.62615 132.116Z" fill="url(#paint4_linear_578_9286)"/>
        <path d="M88 32.8501C88 31.8652 87.806 30.8899 87.4291 29.98C87.0522 29.07 86.4997 28.2432 85.8033 27.5468C85.1069 26.8504 84.2801 26.2979 83.3701 25.921C82.4602 25.5441 81.4849 25.3501 80.5 25.3501C79.5151 25.3501 78.5398 25.5441 77.6299 25.921C76.7199 26.2979 75.8931 26.8504 75.1967 27.5468C74.5003 28.2432 73.9478 29.07 73.5709 29.98C73.194 30.8899 73 31.8652 73 32.8501C73 33.835 73.194 34.8103 73.5709 35.7202C73.9478 36.6302 74.5003 37.457 75.1967 38.1534C75.8931 38.8498 76.7199 39.4023 77.6299 39.7792C78.5398 40.1561 79.5151 40.3501 80.5 40.3501C81.4849 40.3501 82.4602 40.1561 83.3701 39.7792C84.2801 39.4023 85.1069 38.8498 85.8033 38.1534C86.4997 37.457 87.0522 36.6302 87.4291 35.7202C87.806 34.8103 88 33.835 88 32.8501Z" fill="url(#paint5_linear_578_9286)"/>
    </g>
    <defs>
        <linearGradient id="paint0_linear_578_9286" x1="32.0067" y1="146.061" x2="32.0067" y2="59.0054" gradientUnits="userSpaceOnUse">
            <stop stop-color="#EAF2FF"/>
            <stop offset="1" stop-color="#9BBAFF"/>
        </linearGradient>
        <linearGradient id="paint1_linear_578_9286" x1="133.917" y1="146.061" x2="133.917" y2="59.0054" gradientUnits="userSpaceOnUse">
            <stop stop-color="#EAF2FF"/>
            <stop offset="1" stop-color="#9BBAFF"/>
        </linearGradient>
        <linearGradient id="paint2_linear_578_9286" x1="82.9589" y1="146.061" x2="82.9589" y2="59.0054" gradientUnits="userSpaceOnUse">
            <stop stop-color="#EAF2FF"/>
            <stop offset="1" stop-color="#9BBAFF"/>
        </linearGradient>
        <linearGradient id="paint3_linear_578_9286" x1="80.0051" y1="1.24291" x2="80.0051" y2="62.0114" gradientUnits="userSpaceOnUse">
            <stop stop-color="#0984E3"/>
            <stop offset="1" stop-color="#1F4FDE"/>
        </linearGradient>
        <linearGradient id="paint4_linear_578_9286" x1="79.9979" y1="129.791" x2="79.9979" y2="159.334" gradientUnits="userSpaceOnUse">
            <stop stop-color="#1F4FDE"/>
            <stop offset="1" stop-color="#0984E3"/>
        </linearGradient>
        <linearGradient id="paint5_linear_578_9286" x1="79.7382" y1="25.7467" x2="79.7382" y2="40.9239" gradientUnits="userSpaceOnUse">
            <stop stop-color="#EAF2FF"/>
            <stop offset="1" stop-color="#9BBAFF"/>
        </linearGradient>
        <clipPath id="clip0_578_9286">
            <rect width="160" height="159.336" fill="white"/>
        </clipPath>
    </defs>
</svg>