<svg width="120" height="120" viewBox="0 0 120 120" fill="none" xmlns="http://www.w3.org/2000/svg">
<circle cx="60" cy="60" r="50" fill="white"/>
<path d="M120 60C120 75.913 113.679 91.1742 102.426 102.426C91.1742 113.679 75.913 120 60 120C44.087 120 28.8258 113.679 17.5736 102.426C6.32141 91.1742 0 75.913 0 60C0 44.087 6.32141 28.8258 17.5736 17.5736C28.8258 6.32141 44.087 0 60 0C75.913 0 91.1742 6.32141 102.426 17.5736C113.679 28.8258 120 44.087 120 60ZM50.925 38.1975C50.3643 37.7983 49.7045 37.5611 49.0179 37.5119C48.3313 37.4627 47.6445 37.6035 47.0326 37.9187C46.4207 38.234 45.9073 38.7115 45.5488 39.2991C45.1903 39.8867 45.0004 40.5617 45 41.25V78.75C45.0004 79.4383 45.1903 80.1133 45.5488 80.7009C45.9073 81.2885 46.4207 81.766 47.0326 82.0813C47.6445 82.3965 48.3313 82.5373 49.0179 82.4881C49.7045 82.4389 50.3643 82.2017 50.925 81.8025L77.175 63.0525C77.6611 62.7056 78.0574 62.2476 78.3307 61.7167C78.6041 61.1857 78.7468 60.5972 78.7468 60C78.7468 59.4028 78.6041 58.8142 78.3307 58.2833C78.0574 57.7524 77.6611 57.2944 77.175 56.9475L50.925 38.1975Z" fill="#ED6262"/>
</svg>
