<svg width="72" height="72" viewBox="0 0 72 72" fill="none" xmlns="http://www.w3.org/2000/svg">
<path d="M66.7012 14.6616C67.2839 14.6616 67.7559 14.1893 67.7559 13.6069V7.70344C67.7559 3.45572 64.3015 0 60.0553 0H21.6759C21.0933 0 20.6212 0.472219 20.6212 1.05469V7.37887H15.0746C12.5914 7.37887 10.5713 9.39895 10.5713 11.8821V21.6605C7.07667 21.6617 4.2442 24.495 4.2442 27.99V64.6186C4.2442 68.6953 7.54903 72 11.6256 72H60.0555C64.3016 72 67.7562 68.5443 67.7562 64.2966V18.1772C67.7562 17.5947 67.284 17.1225 66.7015 17.1225C66.1191 17.1225 65.6468 17.5947 65.6468 18.1772V64.2966C65.6468 67.3812 63.1385 69.8906 60.0555 69.8906H25.7646C27.1347 68.5495 27.9872 66.6814 27.9872 64.6172V27.99C27.9872 25.6629 29.8804 23.7698 32.2075 23.7698H37.5019C41.2867 23.7698 44.3659 20.6907 44.3659 16.9059V2.10938H60.0553C63.1384 2.10938 65.6467 4.61883 65.6467 7.70344V13.6069C65.6466 14.1893 66.1188 14.6616 66.7012 14.6616ZM22.7306 2.10938H42.2564V7.37887H22.7306V2.10938ZM6.35344 64.6172V27.9886C6.35344 25.659 8.24175 23.7704 10.5712 23.7698V69.7847C8.16469 69.2958 6.35344 67.1681 6.35344 64.6172ZM37.5019 21.6605H32.2073C28.7172 21.6605 25.8777 24.4998 25.8777 27.99V64.6172C25.8777 67.525 23.5128 69.8906 20.6058 69.8906H18.9928V56.1122C18.9928 55.5297 18.5207 55.0575 17.9381 55.0575C17.3555 55.0575 16.8834 55.5297 16.8834 56.1122V69.8906H12.6806V11.8821C12.6806 10.5621 13.7545 9.48825 15.0744 9.48825H42.2564V14.6616H21.3862C18.9034 14.6616 16.8833 16.6815 16.8833 19.1644V51.8934C16.8833 52.4759 17.3554 52.9481 17.938 52.9481C18.5206 52.9481 18.9927 52.4759 18.9927 51.8934V19.1644C18.9927 17.8446 20.0665 16.7709 21.3862 16.7709H42.2564V16.9059C42.2564 19.5276 40.1235 21.6605 37.5019 21.6605Z" fill="url(#paint0_linear_86_546)"/>
<path d="M36.2841 31.8967C34.189 31.8967 32.4844 33.6012 32.4844 35.6964V43.6476C32.4844 45.7427 34.1889 47.4472 36.2841 47.4472H52.6937C54.7888 47.4472 56.4933 45.7427 56.4933 43.6476V35.6963C56.4933 33.6012 54.7889 31.8966 52.6937 31.8966H36.2841V31.8967ZM54.3838 35.6963V43.6475C54.3838 44.5794 53.6255 45.3377 52.6936 45.3377H36.2841C35.352 45.3377 34.5938 44.5794 34.5938 43.6475V35.6963C34.5938 34.7643 35.352 34.006 36.2841 34.006H52.6937C53.6257 34.0061 54.3838 34.7643 54.3838 35.6963Z" fill="url(#paint1_linear_86_546)"/>
<path d="M49.1049 36.7439H37.5972C37.0146 36.7439 36.5425 37.2161 36.5425 37.7986C36.5425 38.3811 37.0146 38.8533 37.5972 38.8533H49.1049C49.6875 38.8533 50.1595 38.3811 50.1595 37.7986C50.1595 37.2161 49.6875 36.7439 49.1049 36.7439Z" fill="url(#paint2_linear_86_546)"/>
<path d="M44.4888 40.4906H37.5972C37.0146 40.4906 36.5425 40.9628 36.5425 41.5453C36.5425 42.1277 37.0146 42.5999 37.5972 42.5999H44.4888C45.0714 42.5999 45.5435 42.1277 45.5435 41.5453C45.5435 40.9628 45.0714 40.4906 44.4888 40.4906Z" fill="url(#paint3_linear_86_546)"/>
<defs>
<linearGradient id="paint0_linear_86_546" x1="36.0002" y1="0" x2="36.0002" y2="72" gradientUnits="userSpaceOnUse">
<stop stop-color="#1F4FDE"/>
<stop offset="1" stop-color="#986BE5"/>
</linearGradient>
<linearGradient id="paint1_linear_86_546" x1="44.4888" y1="31.8966" x2="44.4888" y2="47.4472" gradientUnits="userSpaceOnUse">
<stop stop-color="#1F4FDE"/>
<stop offset="1" stop-color="#986BE5"/>
</linearGradient>
<linearGradient id="paint2_linear_86_546" x1="43.351" y1="36.7439" x2="43.351" y2="38.8533" gradientUnits="userSpaceOnUse">
<stop stop-color="#1F4FDE"/>
<stop offset="1" stop-color="#986BE5"/>
</linearGradient>
<linearGradient id="paint3_linear_86_546" x1="41.043" y1="40.4906" x2="41.043" y2="42.5999" gradientUnits="userSpaceOnUse">
<stop stop-color="#1F4FDE"/>
<stop offset="1" stop-color="#986BE5"/>
</linearGradient>
</defs>
</svg>
