<svg width="22" height="24" viewBox="0 0 22 24" fill="none" xmlns="http://www.w3.org/2000/svg">
<path d="M18.1872 19.3771C16.103 21.4614 13.3775 22.4768 10.6519 22.4768C8.56771 22.4768 6.45667 21.8623 4.66646 20.633L4.88025 22.8242C4.93375 23.4121 4.50617 23.9465 3.9183 24H3.8115C3.27713 24 2.79606 23.5724 2.74276 23.038L2.28853 18.2283V18.0145C2.31518 17.8809 2.34202 17.7472 2.42217 17.6138C2.58247 17.3198 2.90305 17.106 3.25047 17.0525L8.06023 16.5983C8.64809 16.5448 9.18251 16.9724 9.236 17.5602C9.28949 18.1481 8.86191 18.6825 8.27405 18.736L5.97605 18.9498C9.26267 21.141 13.7785 20.7936 16.6911 17.8811C18.9356 15.6366 19.7373 12.3498 18.802 9.33038C18.6148 8.76914 18.9356 8.15461 19.4967 7.99433C20.0579 7.8072 20.6724 8.12797 20.8327 8.68903C22.0085 12.4832 20.993 16.5717 18.1875 19.3774L18.1872 19.3771ZM2.52879 14.6475C1.56684 11.6013 2.39515 8.34136 4.63965 6.09681C7.55218 3.18428 12.0413 2.83686 15.3547 5.02807L13.0567 5.24186C12.4689 5.29535 12.0413 5.82972 12.0948 6.41763C12.1483 6.97886 12.6025 7.37958 13.1635 7.37958H13.2703L18.0801 6.92535C18.5878 6.87185 18.9885 6.47112 19.042 5.99002V5.77623L18.5878 0.966469C18.5343 0.37861 17.9999 -0.0489722 17.412 0.00451727C16.8242 0.0580115 16.3966 0.592377 16.4501 1.18028L16.6639 3.37149C12.4957 0.485446 6.80386 0.886354 3.11638 4.57369C0.310827 7.37944 -0.704615 11.4677 0.497778 15.2621C0.63142 15.7163 1.05901 16.0102 1.51322 16.0102C1.62002 16.0102 1.72701 15.9836 1.83381 15.9567C2.39505 15.7964 2.7156 15.2087 2.52865 14.6475L2.52879 14.6475Z" fill="#9D9D9D"/>
</svg>
