<svg id="question-circle" xmlns="http://www.w3.org/2000/svg" width="32.177" height="32.177" viewBox="0 0 32.177 32.177">
  <path id="Path_96" data-name="Path 96" d="M16.089,30.166A14.078,14.078,0,1,0,2.011,16.089,14.078,14.078,0,0,0,16.089,30.166Zm0,2.011A16.089,16.089,0,1,0,0,16.089,16.089,16.089,0,0,0,16.089,32.177Z" fill="rgba(74,29,29,0.51)" fill-rule="evenodd"/>
  <path id="Path_97" data-name="Path 97" d="M11.813,12.969h2.655A2.567,2.567,0,0,1,17.2,10.186c1.377,0,2.64.69,2.64,2.349,0,1.277-.753,1.864-1.94,2.757-1.353.983-2.425,2.132-2.349,4l.014.931H18.2v-.714c0-1.444.549-1.864,2.031-2.989,1.225-.931,2.5-1.965,2.5-4.135,0-3.039-2.566-4.507-5.375-4.507-2.667,0-5.6,1.3-5.539,5.094Zm3.141,11.093a1.894,1.894,0,0,0,2.031,1.864,1.886,1.886,0,1,0,0-3.755,1.891,1.891,0,0,0-2.029,1.89Z" transform="translate(-1.254 -0.836)" fill="rgba(74,29,29,0.51)"/>
</svg>
