<svg width="80" height="24" viewBox="0 0 80 24" fill="none" xmlns="http://www.w3.org/2000/svg">
<path d="M30 9.4C30 7.15979 30 6.03968 30.436 5.18404C30.8195 4.43139 31.4314 3.81947 32.184 3.43597C33.0397 3 34.1598 3 36.4 3H41.6C43.8402 3 44.9603 3 45.816 3.43597C46.5686 3.81947 47.1805 4.43139 47.564 5.18404C48 6.03968 48 7.15979 48 9.4V14.6C48 16.8402 48 17.9603 47.564 18.816C47.1805 19.5686 46.5686 20.1805 45.816 20.564C44.9603 21 43.8402 21 41.6 21H36.4C34.1598 21 33.0397 21 32.184 20.564C31.4314 20.1805 30.8195 19.5686 30.436 18.816C30 17.9603 30 16.8402 30 14.6V9.4Z" fill="#AAAAAA"/>
<path d="M39 8L39 16" stroke="#F9F9F9" stroke-linejoin="round"/>
<path d="M43 12L35 12" stroke="#F9F9F9" stroke-linejoin="round"/>
<path d="M14.2017 2H7.38002V7.11646C7.38002 8.35677 6.35677 9.38002 5.11646 9.38002H0V20.0467C0 21.0389 0.806201 21.8451 1.79845 21.8451H14.2016C15.1938 21.8451 16 21.0389 16 20.0467V3.79863C16 2.80638 15.1938 2.00018 14.2016 2.00018L14.2017 2ZM4.15522 19.6124H2.94591V15.7054H4.15522V19.6124ZM7.13196 19.6124H5.92266V14.2479H7.13196V19.6124ZM10.0777 19.6124H8.86839V12.7595H10.0777V19.6124ZM13.0234 19.6124H11.8141V11.2711H13.0234V19.6124ZM14.2017 8.32558H9.3957V7.11628H14.2017V8.32558ZM14.2017 5.47287H9.3957V4.26357H14.2017V5.47287Z" fill="#9D9D9D"/>
<path d="M6.75977 7.11658V2.18652L0.186127 8.76017H5.11618C6.01541 8.76017 6.75959 8.01598 6.75959 7.11676L6.75977 7.11658Z" fill="#9D9D9D"/>
<circle cx="68.625" cy="10.625" r="6.125" stroke="#AAAAAA" stroke-width="2"/>
<path d="M76.5 18.5L73.875 15.875" stroke="#AAAAAA" stroke-width="2" stroke-linecap="round"/>
</svg>
