<svg width="110" height="110" viewBox="0 0 110 110" fill="none" xmlns="http://www.w3.org/2000/svg">
<circle cx="55" cy="55" r="55" fill="#EAEEFC"/>
<rect x="36" y="36" width="38" height="38" rx="9" fill="#EAEEFC" stroke="#3363F2" stroke-width="2"/>
<path d="M64.9199 49.62C64.8185 49.3757 64.6243 49.1815 64.3799 49.08C64.2597 49.0288 64.1306 49.0016 63.9999 49H58.9999C58.7347 49 58.4804 49.1054 58.2928 49.2929C58.1053 49.4804 57.9999 49.7348 57.9999 50C57.9999 50.2652 58.1053 50.5196 58.2928 50.7071C58.4804 50.8946 58.7347 51 58.9999 51H61.5899L55.9999 56.59L52.7099 53.29C52.617 53.1963 52.5064 53.1219 52.3845 53.0711C52.2627 53.0203 52.132 52.9942 51.9999 52.9942C51.8679 52.9942 51.7372 53.0203 51.6154 53.0711C51.4935 53.1219 51.3829 53.1963 51.2899 53.29L45.2899 59.29C45.1962 59.383 45.1218 59.4936 45.071 59.6154C45.0203 59.7373 44.9941 59.868 44.9941 60C44.9941 60.132 45.0203 60.2627 45.071 60.3846C45.1218 60.5064 45.1962 60.617 45.2899 60.71C45.3829 60.8037 45.4935 60.8781 45.6154 60.9289C45.7372 60.9797 45.8679 61.0058 45.9999 61.0058C46.132 61.0058 46.2627 60.9797 46.3845 60.9289C46.5064 60.8781 46.617 60.8037 46.7099 60.71L51.9999 55.41L55.2899 58.71C55.3829 58.8037 55.4935 58.8781 55.6154 58.9289C55.7372 58.9797 55.8679 59.0058 55.9999 59.0058C56.132 59.0058 56.2627 58.9797 56.3845 58.9289C56.5064 58.8781 56.617 58.8037 56.7099 58.71L62.9999 52.41V55C62.9999 55.2652 63.1053 55.5196 63.2928 55.7071C63.4804 55.8946 63.7347 56 63.9999 56C64.2652 56 64.5195 55.8946 64.707 55.7071C64.8946 55.5196 64.9999 55.2652 64.9999 55V50C64.9984 49.8693 64.9712 49.7402 64.9199 49.62Z" fill="#3363F2"/>
</svg>
