<svg width="19" height="15" viewBox="0 0 19 15" fill="none" xmlns="http://www.w3.org/2000/svg">
<path d="M4.517 12.8258C4.42137 12.7268 4.36845 12.5942 4.36965 12.4565C4.37084 12.3189 4.42606 12.1872 4.5234 12.0898C4.62074 11.9925 4.75241 11.9373 4.89007 11.9361C5.02772 11.9349 5.16034 11.9878 5.25935 12.0835C6.067 12.8911 7.09599 13.441 8.21621 13.6639C9.33642 13.8867 10.4976 13.7723 11.5528 13.3352C12.608 12.8982 13.5099 12.158 14.1445 11.2083C14.779 10.2587 15.1178 9.14216 15.1178 8C15.124 7.86497 15.182 7.73752 15.2798 7.64419C15.3776 7.55087 15.5076 7.49886 15.6428 7.49899C15.778 7.49913 15.9079 7.5514 16.0055 7.64492C16.1031 7.73844 16.1608 7.866 16.1668 8.00105C16.1667 9.35085 15.7663 10.6703 15.0164 11.7926C14.2665 12.9149 13.2006 13.7896 11.9535 14.3061C10.7065 14.8227 9.33424 14.9578 8.01037 14.6945C6.68651 14.4312 5.47044 13.7813 4.51595 12.8269" fill="white"/>
<path d="M12.7876 10.5368C12.6718 10.6141 12.53 10.6421 12.3934 10.6149C12.2569 10.5876 12.1367 10.5072 12.0595 10.3914C11.9822 10.2755 11.9541 10.1337 11.9814 9.99715C12.0086 9.86059 12.089 9.74046 12.2049 9.66318L15.3549 7.56318C15.4122 7.52492 15.4766 7.49833 15.5442 7.48493C15.6119 7.47153 15.6815 7.47158 15.7491 7.48508C15.8167 7.49859 15.881 7.52528 15.9383 7.56363C15.9956 7.60198 16.0448 7.65124 16.0831 7.7086C16.1213 7.76597 16.1479 7.8303 16.1613 7.89794C16.1747 7.96558 16.1747 8.03519 16.1612 8.10281C16.1477 8.17043 16.121 8.23472 16.0826 8.29203C16.0443 8.34933 15.995 8.39852 15.9376 8.43678L12.7876 10.5368Z" fill="white"/>
<path d="M18.1794 10.8591C18.22 10.9164 18.2487 10.9813 18.2638 11.0499C18.2789 11.1185 18.2801 11.1894 18.2673 11.2585C18.2545 11.3276 18.228 11.3933 18.1893 11.452C18.1506 11.5106 18.1005 11.5609 18.0421 11.5998C17.9836 11.6387 17.9179 11.6655 17.8489 11.6786C17.7799 11.6917 17.709 11.6908 17.6403 11.676C17.5717 11.6612 17.5067 11.6327 17.4492 11.5923C17.3917 11.5519 17.343 11.5004 17.3058 11.4408L15.2058 8.29084C15.1334 8.17499 15.1091 8.03552 15.1379 7.90202C15.1667 7.76852 15.2465 7.65151 15.3601 7.57582C15.4738 7.50012 15.6125 7.4717 15.7468 7.4966C15.8811 7.52149 16.0004 7.59773 16.0794 7.70914L18.1794 10.8591ZM14.0718 2.96524C14.1702 3.06382 14.2255 3.19747 14.2254 3.33679C14.2253 3.4761 14.1698 3.60967 14.0712 3.70811C14.0224 3.75686 13.9645 3.79551 13.9007 3.82186C13.837 3.84822 13.7687 3.86175 13.6997 3.86171C13.5604 3.86161 13.4268 3.80617 13.3284 3.70759C12.5207 2.89991 11.4916 2.34991 10.3713 2.12713C9.25095 1.90435 8.08973 2.0188 7.03446 2.45601C5.9792 2.89322 5.07729 3.63355 4.44281 4.58337C3.80832 5.53319 3.46975 6.64984 3.46992 7.79209C3.46978 7.93133 3.41434 8.06481 3.31578 8.16317C3.21723 8.26152 3.08364 8.3167 2.9444 8.31656C2.80516 8.31642 2.67168 8.26098 2.57332 8.16242C2.47496 8.06387 2.41978 7.93028 2.41992 7.79104C2.4198 6.44102 2.82004 5.1213 3.57004 3.99878C4.32004 2.87627 5.38609 2.00139 6.63336 1.48481C7.88064 0.968235 9.25309 0.833163 10.5771 1.09668C11.9012 1.3602 13.1173 2.01047 14.0718 2.96524Z" fill="white"/>
<path d="M5.80019 5.25425C5.85756 5.21599 5.92189 5.1894 5.98953 5.176C6.05717 5.1626 6.12678 5.16265 6.1944 5.17615C6.26202 5.18966 6.32631 5.21635 6.38362 5.2547C6.44092 5.29305 6.49011 5.34231 6.52837 5.39968C6.56663 5.45704 6.59322 5.52137 6.60662 5.58901C6.62002 5.65665 6.61997 5.72626 6.60647 5.79388C6.59296 5.8615 6.56627 5.92579 6.52792 5.9831C6.48957 6.0404 6.44031 6.08959 6.38294 6.12785L3.23294 8.22785C3.17558 8.26611 3.11125 8.29271 3.04361 8.30611C2.97597 8.31951 2.90636 8.31945 2.83874 8.30595C2.77112 8.29244 2.70683 8.26575 2.64952 8.2274C2.59222 8.18905 2.54303 8.13979 2.50477 8.08243C2.46651 8.02506 2.43991 7.96073 2.42651 7.89309C2.41311 7.82545 2.41317 7.75584 2.42667 7.68822C2.44018 7.6206 2.46687 7.55631 2.50522 7.499C2.54357 7.4417 2.59283 7.39251 2.65019 7.35425L5.80019 5.25425Z" fill="white"/>
<path d="M0.408256 4.93188C0.367629 4.87458 0.338912 4.80971 0.323807 4.74111C0.308702 4.67252 0.307515 4.60159 0.320317 4.53252C0.333119 4.46346 0.35965 4.39767 0.398337 4.33904C0.437025 4.28042 0.487084 4.23015 0.545548 4.19122C0.604013 4.15229 0.669695 4.12549 0.738705 4.1124C0.807715 4.09932 0.878649 4.10021 0.947308 4.11503C1.01597 4.12985 1.08095 4.1583 1.13842 4.19869C1.19588 4.23908 1.24466 4.29059 1.28186 4.35018L3.38186 7.50018C3.45418 7.61602 3.47852 7.7555 3.4497 7.88899C3.42088 8.02249 3.34118 8.1395 3.2275 8.2152C3.11382 8.29089 2.97512 8.31931 2.84084 8.29442C2.70655 8.26952 2.58725 8.19328 2.50826 8.08188L0.408256 4.93188Z" fill="white"/>
</svg>
