<svg width="24" height="24" viewBox="0 0 24 24" fill="none" xmlns="http://www.w3.org/2000/svg">
<g clip-path="url(#clip0_22_6779)">
<path d="M7.63637 12H16.3636H7.63637ZM8.72728 22.9091H15.2727C20.7273 22.9091 22.9091 20.7273 22.9091 15.2727V8.72728C22.9091 3.27273 20.7273 1.09091 15.2727 1.09091H8.72728C3.27273 1.09091 1.09091 3.27273 1.09091 8.72728V15.2727C1.09091 20.7273 3.27273 22.9091 8.72728 22.9091Z" fill="#FFFCF0"/>
<path d="M7.63637 12H16.3636M8.72728 22.9091H15.2727C20.7273 22.9091 22.9091 20.7273 22.9091 15.2727V8.72728C22.9091 3.27273 20.7273 1.09091 15.2727 1.09091H8.72728C3.27273 1.09091 1.09091 3.27273 1.09091 8.72728V15.2727C1.09091 20.7273 3.27273 22.9091 8.72728 22.9091Z" stroke="#A7A290" stroke-width="1.5" stroke-linecap="round" stroke-linejoin="round"/>
</g>
<defs>
<clipPath id="clip0_22_6779">
<rect width="24" height="24" fill="white"/>
</clipPath>
</defs>
</svg>
