<svg width="24" height="24" viewBox="0 0 24 24" fill="none" xmlns="http://www.w3.org/2000/svg">
<g clip-path="url(#clip0_429_4166)">
<path d="M12 0C10.8133 0 9.65328 0.351894 8.66658 1.01118C7.67989 1.67047 6.91085 2.60754 6.45673 3.7039C6.0026 4.80026 5.88378 6.00666 6.11529 7.17054C6.3468 8.33443 6.91825 9.40353 7.75736 10.2426C8.59648 11.0818 9.66557 11.6532 10.8295 11.8847C11.9933 12.1162 13.1997 11.9974 14.2961 11.5433C15.3925 11.0892 16.3295 10.3201 16.9888 9.33342C17.6481 8.34673 18 7.18669 18 6C18 4.4087 17.3679 2.88258 16.2426 1.75736C15.1174 0.632141 13.5913 0 12 0ZM12 10.2857C11.1524 10.2857 10.3238 10.0344 9.61899 9.56344C8.91421 9.09252 8.36489 8.42318 8.04052 7.64007C7.71614 6.85696 7.63127 5.99525 7.79664 5.1639C7.962 4.33255 8.37018 3.56891 8.96954 2.96954C9.56891 2.37017 10.3326 1.962 11.1639 1.79663C11.9952 1.63127 12.857 1.71614 13.6401 2.04052C14.4232 2.36489 15.0925 2.9142 15.5634 3.61898C16.0344 4.32377 16.2857 5.15237 16.2857 6C16.2857 6.56281 16.1749 7.1201 15.9595 7.64007C15.7441 8.16004 15.4284 8.63249 15.0305 9.03046C14.6325 9.42842 14.16 9.74411 13.6401 9.95948C13.1201 10.1749 12.5628 10.2857 12 10.2857Z" fill="#1F4FDE"/>
<path d="M16.4314 13.7144H7.56857C5.56196 13.7166 3.63818 14.5148 2.21929 15.9336C0.800398 17.3525 0.00226864 19.2763 0 21.2829C0 22.0036 0.28627 22.6947 0.795833 23.2042C1.3054 23.7138 1.99651 24.0001 2.71714 24.0001H21.2829C22.0035 24.0001 22.6946 23.7138 23.2042 23.2042C23.7137 22.6947 24 22.0036 24 21.2829C23.9977 19.2763 23.1996 17.3525 21.7807 15.9336C20.3618 14.5148 18.438 13.7166 16.4314 13.7144ZM21.2829 22.2858H2.71714C2.45117 22.2858 2.19609 22.1801 2.00802 21.9921C1.81994 21.804 1.71429 21.5489 1.71429 21.2829C1.71429 19.7303 2.33107 18.2412 3.42897 17.1433C4.52686 16.0454 6.01592 15.4286 7.56857 15.4286H16.4314C17.9841 15.4286 19.4731 16.0454 20.571 17.1433C21.6689 18.2412 22.2857 19.7303 22.2857 21.2829C22.2857 21.5489 22.1801 21.804 21.992 21.9921C21.8039 22.1801 21.5488 22.2858 21.2829 22.2858Z" fill="#1F4FDE"/>
</g>
<defs>
<clipPath id="clip0_429_4166">
<rect width="24" height="24" fill="white"/>
</clipPath>
</defs>
</svg>
