<svg xmlns="http://www.w3.org/2000/svg" width="512" height="512" viewBox="0 0 512 512">
  <g id="user-photo" transform="translate(-6983 -331)">
    <path id="Path_1236" data-name="Path 1236" d="M512,256c0,141.387-114.613,256-256,256S0,397.387,0,256,114.613,0,256,0,512,114.613,512,256Zm0,0" transform="translate(6983 331)" fill="#6777fa"/>
    <g id="user_account_people_man" data-name="user, account, people, man" transform="translate(7107.209 434.157)">
      <path id="Path_1239" data-name="Path 1239" d="M220.974,19.224a11.526,11.526,0,1,0-16.21,16.389,103.02,103.02,0,0,1,30.764,73.733c0,14.1-40.41,34.579-103.737,34.579s-103.737-20.492-103.737-34.6a103.029,103.029,0,0,1,30.37-73.339,11.526,11.526,0,1,0-16.3-16.3A125.945,125.945,0,0,0,5,109.347c0,37.433,65.32,57.632,126.79,57.632s126.79-20.2,126.79-57.632a125.868,125.868,0,0,0-37.607-90.122Z" transform="translate(0 135.707)" fill="#fff"/>
      <path id="Path_1240" data-name="Path 1240" d="M89.685,164.369A80.685,80.685,0,1,0,9,83.685a80.685,80.685,0,0,0,80.685,80.685Zm0-138.316A57.632,57.632,0,1,1,32.053,83.685,57.632,57.632,0,0,1,89.685,26.053Z" transform="translate(42.106 0)" fill="#fff"/>
    </g>
  </g>
</svg>
