<svg width="60" height="60" viewBox="0 0 60 60" fill="none" xmlns="http://www.w3.org/2000/svg">
    <path d="M32.9988 45.5101C32.9988 45.1165 32.9212 44.7267 32.7706 44.3631C32.62 43.9994 32.3992 43.669 32.1209 43.3907C31.8426 43.1123 31.5121 42.8916 31.1485 42.7409C30.7848 42.5903 30.3951 42.5128 30.0015 42.5128C29.6079 42.5128 29.2181 42.5903 28.8545 42.7409C28.4908 42.8916 28.1604 43.1123 27.8821 43.3907C27.6038 43.669 27.383 43.9994 27.2324 44.3631C27.0817 44.7267 27.0042 45.1165 27.0042 45.5101C27.0288 46.2882 27.3552 47.0262 27.9144 47.5679C28.4735 48.1096 29.2215 48.4125 30 48.4125C30.7785 48.4125 31.5265 48.1096 32.0856 47.5679C32.6447 47.0262 32.9711 46.2882 32.9958 45.5101H32.9988ZM32.2187 21.9489C32.1409 21.3838 31.8515 20.8693 31.4089 20.5095C30.9663 20.1497 30.4036 19.9714 29.8346 20.0107C29.2656 20.05 28.7327 20.3038 28.3437 20.721C27.9547 21.1382 27.7387 21.6875 27.7393 22.2579L27.7513 35.7622L27.7723 36.0682C27.85 36.6332 28.1394 37.1477 28.582 37.5075C29.0246 37.8673 29.5873 38.0456 30.1563 38.0063C30.7254 37.9671 31.2583 37.7132 31.6473 37.296C32.0362 36.8789 32.2523 36.3295 32.2517 35.7592L32.2397 22.2519L32.2187 21.9489ZM35.909 5.48333C33.3378 0.838892 26.6622 0.838892 24.0939 5.48333L0.853758 47.4902C-1.63647 51.9907 1.61883 57.5112 6.76431 57.5112H53.2387C58.3811 57.5112 61.6364 51.9907 59.1462 47.4902L35.906 5.48633L35.909 5.48333ZM28.0303 7.66153C28.2248 7.30945 28.5101 7.01594 28.8565 6.81155C29.2029 6.60715 29.5978 6.49934 30 6.49934C30.4022 6.49934 30.7971 6.60715 31.1435 6.81155C31.4899 7.01594 31.7752 7.30945 31.9697 7.66153L55.2068 49.6714C55.3963 50.014 55.4931 50.4 55.4877 50.7913C55.4824 51.1827 55.375 51.5659 55.1763 51.9031C54.9776 52.2403 54.6943 52.5199 54.3545 52.7141C54.0147 52.9084 53.6301 53.0106 53.2387 53.0108H6.76431C6.37264 53.0111 5.98766 52.9093 5.64744 52.7152C5.30721 52.5212 5.02353 52.2417 4.82443 51.9044C4.62533 51.5671 4.51771 51.1837 4.51222 50.7921C4.50673 50.4005 4.60356 50.0142 4.79313 49.6714L28.0303 7.66153Z" fill="#FA5858"/>
</svg>