<svg width="70" height="70" viewBox="0 0 70 70" fill="none" xmlns="http://www.w3.org/2000/svg">
    <path d="M35 7C27.5739 7 20.452 9.94999 15.201 15.201C9.94999 20.452 7 27.5739 7 35C7 42.4261 9.94999 49.548 15.201 54.799C20.452 60.05 27.5739 63 35 63C42.4261 63 49.548 60.05 54.799 54.799C60.05 49.548 63 42.4261 63 35C63 27.5739 60.05 20.452 54.799 15.201C49.548 9.94999 42.4261 7 35 7ZM0 35C0 15.6695 15.6695 0 35 0C54.3305 0 70 15.6695 70 35C70 54.3305 54.3305 70 35 70C15.6695 70 0 54.3305 0 35ZM20.2755 20.2755C20.9318 19.6194 21.8219 19.2507 22.75 19.2507C23.6781 19.2507 24.5682 19.6194 25.2245 20.2755L35 30.051L44.7755 20.2755C45.0984 19.9412 45.4846 19.6746 45.9116 19.4911C46.3386 19.3077 46.7979 19.2112 47.2626 19.2071C47.7273 19.2031 48.1882 19.2916 48.6183 19.4676C49.0485 19.6436 49.4393 19.9035 49.7679 20.2321C50.0965 20.5607 50.3564 20.9515 50.5324 21.3817C50.7084 21.8118 50.7969 22.2727 50.7929 22.7374C50.7888 23.2021 50.6923 23.6614 50.5089 24.0884C50.3254 24.5154 50.0588 24.9016 49.7245 25.2245L39.949 35L49.7245 44.7755C50.3621 45.4356 50.7148 46.3197 50.7069 47.2374C50.6989 48.1551 50.3308 49.0329 49.6819 49.6819C49.0329 50.3308 48.1551 50.6989 47.2374 50.7069C46.3197 50.7148 45.4356 50.3621 44.7755 49.7245L35 39.949L25.2245 49.7245C24.5644 50.3621 23.6803 50.7148 22.7626 50.7069C21.8449 50.6989 20.9671 50.3308 20.3181 49.6819C19.6692 49.0329 19.3011 48.1551 19.2931 47.2374C19.2852 46.3197 19.6379 45.4356 20.2755 44.7755L30.051 35L20.2755 25.2245C19.6194 24.5682 19.2507 23.6781 19.2507 22.75C19.2507 21.8219 19.6194 20.9318 20.2755 20.2755Z" fill="#FA5858"/>
</svg>