<svg width="200" height="200" viewBox="0 0 200 200" fill="none" xmlns="http://www.w3.org/2000/svg">
<g clip-path="url(#clip0_170_1662)">
<path d="M194.281 27.3419C191.339 24.3946 186.565 24.3895 183.623 27.3293L93.196 117.518L60.5702 82.0829C57.7511 79.0227 52.9847 78.8243 49.9194 81.643C46.8565 84.4622 46.6604 89.2309 49.4796 92.2938L87.4194 133.497C88.8089 135.007 90.7534 135.884 92.8038 135.927C92.8589 135.929 92.912 135.929 92.9647 135.929C94.9573 135.929 96.8741 135.138 98.2862 133.731L194.266 38.0024C197.216 35.0629 197.221 30.2891 194.281 27.3419Z" fill="url(#paint0_linear_170_1662)"/>
<path d="M192.462 92.4621C188.299 92.4621 184.925 95.8363 184.925 100C184.925 146.829 146.829 184.925 100 184.925C53.1734 184.925 15.0754 146.829 15.0754 100C15.0754 53.1734 53.1734 15.0754 100 15.0754C104.163 15.0754 107.538 11.7012 107.538 7.53789C107.538 3.37422 104.163 0 100 0C44.8594 0 0 44.8594 0 100C0 155.138 44.8594 200 100 200C155.138 200 200 155.138 200 100C200 95.8367 196.626 92.4621 192.462 92.4621Z" fill="url(#paint1_linear_170_1662)"/>
</g>
<defs>
<linearGradient id="paint0_linear_170_1662" x1="121.985" y1="25.1279" x2="121.985" y2="135.929" gradientUnits="userSpaceOnUse">
<stop stop-color="#3D72F9"/>
<stop offset="1" stop-color="#996BE5"/>
</linearGradient>
<linearGradient id="paint1_linear_170_1662" x1="100" y1="0" x2="100" y2="200" gradientUnits="userSpaceOnUse">
<stop stop-color="#3D72F9"/>
<stop offset="1" stop-color="#996BE5"/>
</linearGradient>
<clipPath id="clip0_170_1662">
<rect width="200" height="200" fill="white"/>
</clipPath>
</defs>
</svg>
