<svg width="20" height="20" viewBox="0 0 20 20" fill="none" xmlns="http://www.w3.org/2000/svg">
<path d="M9.99961 16.9994C10.9456 16.9994 11.8095 16.8964 12.5975 16.7184L10.8406 14.9614C10.5676 14.9824 10.2906 14.9994 9.99961 14.9994C4.64881 14.9994 2.57588 11.1536 2.0739 9.99961C2.45084 9.15845 2.95992 8.38301 3.58185 7.7027L2.1839 6.30475C0.645955 7.97169 0.0629766 9.65063 0.051977 9.68362C-0.0170002 9.88898 -0.0170002 10.1112 0.051977 10.3166C0.0729762 10.3826 2.36689 16.9994 9.99961 16.9994ZM9.99961 2.99987C8.16268 2.99987 6.65373 3.39585 5.39578 3.98083L1.70692 0.292969L0.292968 1.70692L18.2923 19.7063L19.7063 18.2923L16.3874 14.9734C19.0013 13.0225 19.9342 10.3586 19.9482 10.3166C20.0172 10.1112 20.0172 9.88898 19.9482 9.68362C19.9262 9.61663 17.6323 2.99987 9.99961 2.99987ZM14.9714 13.5575L12.6915 11.2776C12.8815 10.8876 12.9995 10.4586 12.9995 9.99961C12.9995 8.35867 11.6406 6.99972 9.99961 6.99972C9.54063 6.99972 9.11164 7.11772 8.72266 7.30871L6.91473 5.50078C7.90721 5.1602 8.95036 4.9908 9.99961 4.9998C15.3504 4.9998 17.4233 8.84565 17.9253 9.99961C17.6233 10.6916 16.7594 12.3415 14.9714 13.5575Z" fill="#7892DF" fill-opacity="0.6"/>
</svg>
