<svg xmlns="http://www.w3.org/2000/svg" width="20" height="14" viewBox="0 0 20 14">
  <g id="eye" transform="translate(-2 -5)">
    <path id="Path_28" data-name="Path 28" d="M15,12a3,3,0,1,1-3-3A3,3,0,0,1,15,12Z" fill="rgba(120,146,223,0.6)"/>
    <path id="Path_29" data-name="Path 29" d="M21.894,11.553A11.116,11.116,0,0,0,12,5a11.116,11.116,0,0,0-9.894,6.553,1,1,0,0,0,0,.894A11.116,11.116,0,0,0,12,19a11.115,11.115,0,0,0,9.894-6.553A1,1,0,0,0,21.894,11.553ZM12,17a9.028,9.028,0,0,1-7.87-5A9.028,9.028,0,0,1,12,7a9.028,9.028,0,0,1,7.87,5A9.028,9.028,0,0,1,12,17Z" fill="rgba(120,146,223,0.6)"/>
  </g>
</svg>
