<svg width="128" height="128" viewBox="0 0 128 128" fill="none" xmlns="http://www.w3.org/2000/svg">
<path d="M84 25V20H74V25C74 27.757 71.757 30 69 30H64V40H69C77.271 40 84 33.271 84 25ZM54 20H59V10H54C51.243 10 49 7.757 49 5V0H39V5C39 13.271 45.729 20 54 20ZM99 45C99 19.5833 114.601 15.019 115.265 14.8372L115.213 14.8507L112.787 5.14925C112.138 5.3115 106.276 6.903 100.465 12.7145C95.2345 17.9445 89 27.7913 89 45V50H99V45ZM74 10C76.7615 10 79 7.7615 79 5C79 2.2385 76.7615 0 74 0C71.2385 0 69 2.2385 69 5C69 7.7615 71.2385 10 74 10ZM112.965 58C108.101 58 17.915 58 15.1597 58L0 88H13.25V113C13.25 121.271 19.979 128 28.25 128H99.125C107.396 128 114.125 121.271 114.125 113V88H128L112.965 58ZM16.3403 78L21.3403 68H55.9098L50.9098 78H16.3403ZM104.125 113C104.125 115.757 101.882 118 99.125 118H28.25C25.493 118 23.25 115.757 23.25 113V88H57.0902L64 74.1803L70.91 88H104.125V113ZM77.09 78L72.09 68H106.785L111.785 78H77.09ZM49 45C49 47.7615 51.2385 50 54 50C56.7615 50 59 47.7615 59 45C59 42.2385 56.7615 40 54 40C51.2385 40 49 42.2385 49 45ZM29 45V50H39V45C39 27.7913 32.7655 17.9445 27.5355 12.7145C21.724 6.903 15.862 5.31175 15.2128 5.14925L10.362 3.9365L7.93675 13.638L12.7875 14.8507C12.9495 14.8912 29 19.2022 29 45Z" fill="url(#paint0_linear_111_42)"/>
<defs>
<linearGradient id="paint0_linear_111_42" x1="64" y1="128" x2="64" y2="0" gradientUnits="userSpaceOnUse">
<stop stop-color="#996BE5"/>
<stop offset="1" stop-color="#3D72F9"/>
</linearGradient>
</defs>
</svg>
