<svg width="17" height="14" viewBox="0 0 17 14" fill="none" xmlns="http://www.w3.org/2000/svg">
<path d="M13.9399 0.939973C14.2217 0.671751 14.5966 0.523467 14.9856 0.52641C15.3746 0.529353 15.7472 0.683294 16.0248 0.955749C16.3025 1.2282 16.4634 1.59786 16.4737 1.98672C16.484 2.37558 16.3428 2.75323 16.0799 3.03997L8.09995 13.02C7.96273 13.1678 7.79712 13.2864 7.61301 13.3687C7.42891 13.451 7.23009 13.4954 7.02845 13.4991C6.82681 13.5029 6.62649 13.4659 6.43946 13.3904C6.25244 13.315 6.08255 13.2026 5.93995 13.06L0.647949 7.76797C0.500575 7.63065 0.382371 7.46505 0.300387 7.28105C0.218403 7.09705 0.174319 6.89842 0.170766 6.69702C0.167212 6.49561 0.204262 6.29555 0.279704 6.10878C0.355146 5.922 0.467435 5.75233 0.609873 5.6099C0.75231 5.46746 0.921978 5.35517 1.10875 5.27973C1.29553 5.20429 1.49559 5.16724 1.69699 5.17079C1.8984 5.17434 2.09703 5.21843 2.28103 5.30041C2.46502 5.3824 2.63062 5.5006 2.76795 5.64797L6.95595 9.83397L13.9019 0.983974C13.9145 0.968575 13.9278 0.953885 13.9419 0.939973H13.9399Z" fill="#333333"/>
</svg>
