<svg width="18" height="19" viewBox="0 0 18 19" fill="none" xmlns="http://www.w3.org/2000/svg">
<path fill-rule="evenodd" clip-rule="evenodd" d="M9 0.80957C4.02955 0.80957 0 4.83912 0 9.80957C0 14.78 4.02955 18.8096 9 18.8096C13.9705 18.8096 18 14.78 18 9.80957C18 4.83912 13.9705 0.80957 9 0.80957ZM12.9011 8.28775C12.9729 8.20564 13.0276 8.10999 13.0619 8.00644C13.0963 7.90288 13.1095 7.7935 13.1009 7.68474C13.0924 7.57598 13.0621 7.47003 13.012 7.37313C12.9619 7.27623 12.8929 7.19033 12.8091 7.12049C12.7253 7.05064 12.6283 6.99827 12.524 6.96644C12.4196 6.93461 12.31 6.92398 12.2015 6.93516C12.0929 6.94634 11.9877 6.97911 11.8921 7.03154C11.7964 7.08398 11.7122 7.15502 11.6444 7.24048L8.12618 11.4615L6.30573 9.64021C6.15142 9.49117 5.94474 9.4087 5.73022 9.41056C5.51569 9.41243 5.31048 9.49848 5.15878 9.65017C5.00709 9.80187 4.92104 10.0071 4.91918 10.2216C4.91731 10.4361 4.99978 10.6428 5.14882 10.7971L7.60336 13.2517C7.68376 13.332 7.78 13.3947 7.88598 13.4358C7.99195 13.4769 8.10532 13.4954 8.21886 13.4903C8.3324 13.4851 8.44362 13.4564 8.54543 13.4058C8.64724 13.3553 8.7374 13.2841 8.81018 13.1968L12.9011 8.28775Z" fill="#E6E6E6"/>
</svg>
