<svg xmlns="http://www.w3.org/2000/svg" xmlns:xlink="http://www.w3.org/1999/xlink" width="803.35" height="1061.62" viewBox="0 0 803.35 1061.62">
  <defs>
    <clipPath id="clip-path">
      <rect id="Rectangle_1822" data-name="Rectangle 1822" width="803.35" height="1061.62" fill="#fff"/>
    </clipPath>
  </defs>
  <g id="section-six-bg" clip-path="url(#clip-path)">
    <path id="Path_1191" data-name="Path 1191" d="M319.56,27.66A23.05,23.05,0,1,1,296.5,50.71,23.059,23.059,0,0,1,319.56,27.66Zm50.73,23.05a50.73,50.73,0,1,0-50.73,50.71A50.729,50.729,0,0,0,370.29,50.71Z" transform="translate(164.23)" fill="#f7f7f7" fill-rule="evenodd"/>
    <path id="Path_1192" data-name="Path 1192" d="M305.54,51.7a13.82,13.82,0,1,0,13.82-13.81A13.821,13.821,0,0,0,305.54,51.7Z" transform="translate(164.63 0)" fill="#f7f7f7" fill-rule="evenodd"/>
    <path id="Path_1193" data-name="Path 1193" d="M789.54,898.62a13.815,13.815,0,0,0,13.82-13.81V801.93a13.82,13.82,0,0,0-27.64,0v82.88A13.815,13.815,0,0,0,789.54,898.62Z" transform="translate(-775.73 0)" fill="#f7f7f7" fill-rule="evenodd"/>
    <path id="Path_1194" data-name="Path 1194" d="M444.71,760.5a50.69,50.69,0,0,0-50.73,50.65v92.09a50.73,50.73,0,0,0,101.46,0V811.15A50.69,50.69,0,0,0,444.71,760.5Zm-23.06,50.65a23.06,23.06,0,0,1,46.12,0v92.09a23.06,23.06,0,0,1-46.12,0Z" transform="translate(-86.07 0)" fill="#f7f7f7" fill-rule="evenodd"/>
    <path id="Path_1195" data-name="Path 1195" d="M564.53,1005.97a13.823,13.823,0,0,1-13.82-13.82V949.32a50.547,50.547,0,0,1,15.89-36.85,50.547,50.547,0,0,1-15.89-36.85V833.25a50.658,50.658,0,0,1,50.66-50.66,13.82,13.82,0,1,1,0,27.64,23.029,23.029,0,0,0-23.03,23.03v42.37a23.029,23.029,0,0,0,23.03,23.03H694.4a49.741,49.741,0,0,1,49.74,49.74H716.51a22.111,22.111,0,0,0-22.11-22.11H601.37a23.029,23.029,0,0,0-23.03,23.03v42.83a13.823,13.823,0,0,1-13.82,13.82Z" transform="translate(-491.5 0)" fill="#f7f7f7" fill-rule="evenodd"/>
    <path id="Path_1196" data-name="Path 1196" d="M572.84,826.6a23.06,23.06,0,1,1,23.06,23.05,13.83,13.83,0,0,0,0,27.66,50.71,50.71,0,1,0-50.73-50.71,13.83,13.83,0,0,0,27.66,0Z" transform="translate(-388.45 0)" fill="#f7f7f7"/>
    <path id="Path_1197" data-name="Path 1197" d="M370.29,859.12a30.4,30.4,0,1,1,50.04,23.41,13.833,13.833,0,0,0,17.94,21.06,58.221,58.221,0,1,0-95.61-44.48,13.82,13.82,0,1,0,27.64,0Z" transform="translate(1.97 0)" fill="#f7f7f7"/>
    <path id="Path_1198" data-name="Path 1198" d="M32.232,639.42a23.023,23.023,0,1,1,0,32.6,13.813,13.813,0,0,0-19.51,19.56,50.65,50.65,0,1,0,0-71.72,13.813,13.813,0,0,0,19.51,19.56Z" transform="translate(695.587 0)" fill="#f7f7f7" fill-rule="evenodd"/>
    <path id="Path_1199" data-name="Path 1199" d="M95.43,690.94a13.813,13.813,0,1,0-19.54,0A13.8,13.8,0,0,0,95.43,690.94Z" transform="translate(632.03 0)" fill="#f7f7f7" fill-rule="evenodd"/>
    <path id="Path_1200" data-name="Path 1200" d="M550.69,948.35a13.82,13.82,0,1,0,13.82-13.81A13.815,13.815,0,0,0,550.69,948.35Z" transform="translate(-325.67 0)" fill="#f7f7f7" fill-rule="evenodd"/>
    <path id="Path_1201" data-name="Path 1201" d="M622.75,987.85a23.05,23.05,0,1,1-23.06,23.05A23.059,23.059,0,0,1,622.75,987.85Zm50.73,23.05a50.73,50.73,0,1,0-50.73,50.71A50.716,50.716,0,0,0,673.48,1010.9Z" transform="translate(-442.15 0)" fill="#f7f7f7" fill-rule="evenodd"/>
    <path id="Path_1202" data-name="Path 1202" d="M571.99,968.48a28.534,28.534,0,0,1-28.59,28.48H489.92a13.78,13.78,0,1,0,0,27.56H543.4a56.149,56.149,0,0,0,56.25-56.04Z" transform="translate(-272.39 0)" fill="#f7f7f7"/>
    <path id="Path_1203" data-name="Path 1203" d="M572.01,1010.71a13.82,13.82,0,1,0,13.82-13.81A13.815,13.815,0,0,0,572.01,1010.71Z" transform="translate(-368.31 0)" fill="#f7f7f7" fill-rule="evenodd"/>
    <path id="Path_1204" data-name="Path 1204" d="M608.73,1011.1a13.82,13.82,0,1,0,13.82-13.81A13.815,13.815,0,0,0,608.73,1011.1Z" transform="translate(-441.75 0)" fill="#f7f7f7" fill-rule="evenodd"/>
    <path id="Path_1205" data-name="Path 1205" d="M314.277,1008.31a23.062,23.062,0,1,1,46.12.6,13.831,13.831,0,1,0,27.66.36,50.729,50.729,0,1,0-101.45-1.32,13.831,13.831,0,1,0,27.66.36Z" transform="translate(128.683 0)" fill="#f7f7f7" fill-rule="evenodd"/>
    <path id="Path_1206" data-name="Path 1206" d="M583.08,941.02a23.05,23.05,0,1,1-46.1,0,91.3,91.3,0,0,0-91.26-91.33,13.84,13.84,0,0,0,0,27.68,63.626,63.626,0,0,1,63.6,63.66,50.7,50.7,0,1,0,101.4,0,13.83,13.83,0,1,0-27.66,0Z" transform="translate(-239.26 0)" fill="#f7f7f7" fill-rule="evenodd"/>
    <path id="Path_1207" data-name="Path 1207" d="M656.87,736.46a23.05,23.05,0,0,1,0,46.1,13.83,13.83,0,0,0,0,27.66,50.71,50.71,0,0,0,0-101.42,13.83,13.83,0,0,0,0,27.66Z" transform="translate(-547.16 0)" fill="#f7f7f7" fill-rule="evenodd"/>
    <path id="Path_1208" data-name="Path 1208" d="M525.06,760.5a63.553,63.553,0,0,1-63.56-63.54,13.82,13.82,0,0,0-27.64,0,91.174,91.174,0,0,0,91.19,91.16,13.81,13.81,0,1,0,0-27.62Z" transform="translate(-169.38 0)" fill="#f7f7f7"/>
    <path id="Path_1209" data-name="Path 1209" d="M112.84,479.14a92.28,92.28,0,0,1-92.29,92.27,13.84,13.84,0,0,0,0,27.68A119.965,119.965,0,0,0,140.53,479.14a13.84,13.84,0,1,0-27.68,0Z" transform="translate(656.11 0)" fill="#f7f7f7" fill-rule="evenodd"/>
    <path id="Path_1210" data-name="Path 1210" d="M20.94,347.32a84.82,84.82,0,0,1,84.83,84.81,13.83,13.83,0,0,0,27.66,0A112.479,112.479,0,0,0,20.94,319.67a13.83,13.83,0,1,0,0,27.66Z" transform="translate(662.81 0)" fill="#f7f7f7" fill-rule="evenodd"/>
    <path id="Path_1211" data-name="Path 1211" d="M301.99,778.65a66.306,66.306,0,0,1,66.32,66.3,13.82,13.82,0,0,0,27.64,0A93.942,93.942,0,0,0,302,751.02a13.81,13.81,0,1,0,0,27.62Z" transform="translate(119.22 0)" fill="#f7f7f7" fill-rule="evenodd"/>
    <path id="Path_1212" data-name="Path 1212" d="M374.06,1022.15a13.811,13.811,0,1,0-13.64-13.99A13.816,13.816,0,0,0,374.06,1022.15Z" transform="translate(54.87 0)" fill="#f7f7f7" fill-rule="evenodd"/>
    <path id="Path_1213" data-name="Path 1213" d="M583.07,863.5a13.82,13.82,0,1,0,13.82-13.81A13.815,13.815,0,0,0,583.07,863.5Z" transform="translate(-390.43 0)" fill="#f7f7f7" fill-rule="evenodd"/>
    <path id="Path_1214" data-name="Path 1214" d="M679.78,796.41A13.82,13.82,0,1,0,693.6,782.6,13.815,13.815,0,0,0,679.78,796.41Z" transform="translate(-583.85 0)" fill="#f7f7f7" fill-rule="evenodd"/>
    <path id="Path_1215" data-name="Path 1215" d="M716.5,992.55a13.82,13.82,0,1,0,13.82-13.81A13.815,13.815,0,0,0,716.5,992.55Z" transform="translate(-657.29 0)" fill="#f7f7f7" fill-rule="evenodd"/>
    <path id="Path_1216" data-name="Path 1216" d="M619.78,863.5a13.82,13.82,0,1,0,13.82-13.81A13.815,13.815,0,0,0,619.78,863.5Z" transform="translate(-463.85 0)" fill="#f7f7f7" fill-rule="evenodd"/>
    <path id="Path_1217" data-name="Path 1217" d="M656.89,863.5a13.82,13.82,0,1,0,13.82-13.81A13.815,13.815,0,0,0,656.89,863.5Z" transform="translate(-538.07 0)" fill="#f7f7f7" fill-rule="evenodd"/>
    <path id="Path_1218" data-name="Path 1218" d="M684.52,759.31a13.82,13.82,0,1,0,13.82-13.81A13.815,13.815,0,0,0,684.52,759.31Z" transform="translate(-593.33 0)" fill="#f7f7f7" fill-rule="evenodd"/>
    <path id="Path_1219" data-name="Path 1219" d="M721.23,759.31a13.82,13.82,0,1,0,13.82-13.81A13.815,13.815,0,0,0,721.23,759.31Z" transform="translate(-666.75 0)" fill="#f7f7f7" fill-rule="evenodd"/>
    <path id="Path_1220" data-name="Path 1220" d="M433.84,774.31a13.82,13.82,0,1,0,13.82-13.81A13.815,13.815,0,0,0,433.84,774.31Z" transform="translate(-91.97 0)" fill="#f7f7f7" fill-rule="evenodd"/>
    <path id="Path_1221" data-name="Path 1221" d="M431.87,940.06a13.82,13.82,0,1,0,13.82-13.81A13.815,13.815,0,0,0,431.87,940.06Z" transform="translate(-88.03 0)" fill="#f7f7f7" fill-rule="evenodd"/>
    <path id="Path_1222" data-name="Path 1222" d="M443.13,674.5a23.05,23.05,0,1,1-23.06,23.05A23.059,23.059,0,0,1,443.13,674.5Zm50.73,23.05a50.73,50.73,0,1,0-50.73,50.71A50.716,50.716,0,0,0,493.86,697.55Z" transform="translate(-82.91 0)" fill="#f7f7f7" fill-rule="evenodd"/>
    <path id="Path_1223" data-name="Path 1223" d="M332.42,635.79a13.825,13.825,0,0,1-13.82-13.83,23.04,23.04,0,0,0-23.03-23.05H203.46a23.04,23.04,0,0,0-23.03,23.05,13.82,13.82,0,1,1-27.64,0,50.637,50.637,0,0,1,15.89-36.89,50.621,50.621,0,0,1-15.89-36.89V505.76a50.69,50.69,0,0,1,50.66-50.72,13.83,13.83,0,0,1,0,27.66,23.042,23.042,0,0,0-23.03,23.06v42.42a23.048,23.048,0,0,0,23.03,23.06h92.11a50.69,50.69,0,0,1,50.66,50.72,13.825,13.825,0,0,1-13.82,13.83Z" transform="translate(304.34 0)" fill="#f7f7f7" fill-rule="evenodd"/>
    <path id="Path_1224" data-name="Path 1224" d="M240.33,608.16a13.825,13.825,0,0,1,13.82,13.83,23.048,23.048,0,0,0,23.04,23.05h92.16a23.048,23.048,0,0,0,23.04-23.05,13.82,13.82,0,1,1,27.64,0,50.7,50.7,0,0,1-50.69,50.71H277.18c-1.13,0-2.26-.04-3.37-.11a56.242,56.242,0,0,1-53.76,39.76H166.6a13.83,13.83,0,0,1,0-27.66h53.45a28.588,28.588,0,0,0,27.67-21.43A50.666,50.666,0,0,1,226.5,622a13.825,13.825,0,0,1,13.82-13.83Z" transform="translate(230.54 0)" fill="#f7f7f7"/>
    <path id="Path_1225" data-name="Path 1225" d="M392.37,622.17a23.06,23.06,0,1,1-23.06-23.05,13.83,13.83,0,1,0,0-27.66,50.71,50.71,0,1,0,50.73,50.71,13.83,13.83,0,0,0-27.66,0Z" transform="translate(64.73 0)" fill="#f7f7f7" fill-rule="evenodd"/>
    <path id="Path_1226" data-name="Path 1226" d="M439.16,289.24a23.05,23.05,0,1,0-23.06-23.05,13.83,13.83,0,0,1-27.66,0,50.73,50.73,0,1,1,50.73,50.71,13.83,13.83,0,0,1,0-27.66Z" transform="translate(-74.99 0)" fill="#f7f7f7"/>
    <path id="Path_1227" data-name="Path 1227" d="M318.57,621.97a13.82,13.82,0,1,0,13.82-13.81A13.815,13.815,0,0,0,318.57,621.97Z" transform="translate(138.57 0)" fill="#f7f7f7" fill-rule="evenodd"/>
    <path id="Path_1228" data-name="Path 1228" d="M152.77,621.97a13.82,13.82,0,1,0,13.82-13.81A13.815,13.815,0,0,0,152.77,621.97Z" transform="translate(470.17 0)" fill="#f7f7f7" fill-rule="evenodd"/>
    <path id="Path_1229" data-name="Path 1229" d="M392.39,698.54a13.82,13.82,0,1,0,13.82-13.81A13.815,13.815,0,0,0,392.39,698.54Z" transform="translate(-9.07 0)" fill="#f7f7f7" fill-rule="evenodd"/>
    <path id="Path_1230" data-name="Path 1230" d="M429.11,697.75a13.82,13.82,0,1,0,13.82-13.81A13.815,13.815,0,0,0,429.11,697.75Z" transform="translate(-82.51 0)" fill="#f7f7f7" fill-rule="evenodd"/>
    <path id="Path_1231" data-name="Path 1231" d="M124.52,117.72a50.712,50.712,0,0,0-50.7,50.72v92.22a50.7,50.7,0,1,0,101.4,0V231.15h29.03a50.712,50.712,0,0,0,50.7-50.72V88.21a23.042,23.042,0,0,1,23.04-23.05h42.4a23.042,23.042,0,0,1,23.04,23.05,13.83,13.83,0,1,0,27.66,0,50.705,50.705,0,0,0-50.7-50.72h-42.4A50.516,50.516,0,0,0,241.12,53.4a50.554,50.554,0,0,0-36.87-15.91H162.77a13.83,13.83,0,0,0,0,27.66h41.48A23.042,23.042,0,0,1,227.29,88.2v92.22a23.048,23.048,0,0,1-23.04,23.05H175.22V168.43a50.712,50.712,0,0,0-50.7-50.72Zm23.04,142.94a23.04,23.04,0,1,1-46.08,0V168.44a23.04,23.04,0,1,1,46.08,0Z" transform="translate(358.44 0)" fill="#f7f7f7" fill-rule="evenodd"/>
    <path id="Path_1232" data-name="Path 1232" d="M131.347,324.74a30.387,30.387,0,1,1,55.11,2.75,13.816,13.816,0,1,0,24.53,12.72,58.154,58.154,0,1,0-105.21-5.02,13.814,13.814,0,1,0,25.58-10.44Z" transform="translate(484.393 0)" fill="#f7f7f7" fill-rule="evenodd"/>
    <path id="Path_1233" data-name="Path 1233" d="M400.7,118a63.553,63.553,0,0,1-63.56-63.54,13.82,13.82,0,0,0-27.64,0,91.174,91.174,0,0,0,91.19,91.16,13.81,13.81,0,1,0,0-27.62Z" transform="translate(79.34 0)" fill="#f7f7f7" fill-rule="evenodd"/>
    <path id="Path_1234" data-name="Path 1234" d="M308.7,131.81A13.82,13.82,0,1,0,322.52,118,13.821,13.821,0,0,0,308.7,131.81Z" transform="translate(158.31 0)" fill="#f7f7f7" fill-rule="evenodd"/>
    <path id="Path_1235" data-name="Path 1235" d="M230.91,635.82a23.05,23.05,0,0,1,0,46.1,13.83,13.83,0,0,0,0,27.66,50.71,50.71,0,0,0,0-101.42,13.83,13.83,0,0,0,0,27.66Z" transform="translate(304.76 0)" fill="#f7f7f7" fill-rule="evenodd"/>
    <path id="Path_1236" data-name="Path 1236" d="M259.73,408.9a23.05,23.05,0,0,1,0,46.1,13.83,13.83,0,0,0,0,27.66,50.71,50.71,0,0,0,0-101.42,13.83,13.83,0,0,0,0,27.66Z" transform="translate(247.12 0)" fill="#f7f7f7" fill-rule="evenodd"/>
    <path id="Path_1237" data-name="Path 1237" d="M725.18,756.55a63.553,63.553,0,0,1,63.56-63.54,13.81,13.81,0,1,0,0-27.62,91.181,91.181,0,0,0-91.19,91.16,13.82,13.82,0,0,0,27.64,0Z" transform="translate(-696.76 0)" fill="#f7f7f7"/>
    <path id="Path_1238" data-name="Path 1238" d="M388.49,616.43a73.762,73.762,0,0,1,73.77-73.75,13.83,13.83,0,1,0,0-27.66A101.426,101.426,0,0,0,360.82,616.43a13.83,13.83,0,1,0,27.66,0Z" transform="translate(-33.56 0)" fill="#f7f7f7" fill-rule="evenodd"/>
    <path id="Path_1239" data-name="Path 1239" d="M253.83,621.97a13.82,13.82,0,1,0,13.82-13.81A13.815,13.815,0,0,0,253.83,621.97Z" transform="translate(268.05 0)" fill="#f7f7f7" fill-rule="evenodd"/>
    <path id="Path_1240" data-name="Path 1240" d="M166.59,525.28a13.82,13.82,0,1,0,13.82-13.81A13.815,13.815,0,0,0,166.59,525.28Z" transform="translate(442.53 0)" fill="#f7f7f7" fill-rule="evenodd"/>
    <path id="Path_1241" data-name="Path 1241" d="M476.88,315.33a13.81,13.81,0,1,1,13.82-13.81A13.815,13.815,0,0,1,476.88,315.33Z" transform="translate(-150.41 0)" fill="#f7f7f7" fill-rule="evenodd"/>
    <path id="Path_1242" data-name="Path 1242" d="M476.88,352.03a13.81,13.81,0,1,1,13.82-13.81A13.815,13.815,0,0,1,476.88,352.03Z" transform="translate(-150.41 0)" fill="#f7f7f7" fill-rule="evenodd"/>
    <path id="Path_1243" data-name="Path 1243" d="M609.13,81.1a50.682,50.682,0,0,0,50.66,50.71H751.9a50.71,50.71,0,0,0,0-101.42H659.79A50.682,50.682,0,0,0,609.13,81.1Zm50.66-23.05H751.9a23.05,23.05,0,0,1,0,46.1H659.79a23.05,23.05,0,0,1,0-46.1Z" transform="translate(-608.34 0)" fill="#f7f7f7" fill-rule="evenodd"/>
    <path id="Path_1244" data-name="Path 1244" d="M558.56,67.01a50.691,50.691,0,0,0,50.59-50.79,13.8,13.8,0,1,1,27.6,0,78.342,78.342,0,0,1-78.18,78.5,13.85,13.85,0,0,1,0-27.7Z" transform="translate(-378.17 0)" fill="#f7f7f7"/>
    <path id="Path_1245" data-name="Path 1245" d="M622.94,67.09A13.81,13.81,0,1,1,609.12,80.9,13.821,13.821,0,0,1,622.94,67.09Z" transform="translate(-442.53 0)" fill="#f7f7f7" fill-rule="evenodd"/>
    <path id="Path_1246" data-name="Path 1246" d="M774.9,204.63a23.06,23.06,0,1,1-23.06-23.05A23.052,23.052,0,0,1,774.9,204.63Zm-23.06,50.71a50.71,50.71,0,1,0-50.73-50.71A50.716,50.716,0,0,0,751.84,255.34Z" transform="translate(-700.33 0)" fill="#f7f7f7" fill-rule="evenodd"/>
    <path id="Path_1247" data-name="Path 1247" d="M765.84,481.07a13.836,13.836,0,0,0-13.85-13.82,23.061,23.061,0,0,1-23.09-23.03V352.09a23.061,23.061,0,0,1,23.09-23.03,13.82,13.82,0,1,0,0-27.64,50.753,50.753,0,0,0-41.27,21.13,28.211,28.211,0,0,1-20.6-27.58V241.53a13.85,13.85,0,0,0-27.7,0v53.44a55.985,55.985,0,0,0,38.9,53.65q-.12,1.725-.12,3.48v92.13a50.727,50.727,0,0,0,50.79,50.67,13.836,13.836,0,0,0,13.85-13.82Z" transform="translate(-624.91 0)" fill="#f7f7f7"/>
    <path id="Path_1248" data-name="Path 1248" d="M690.84,594.54a50.682,50.682,0,0,0-50.66-50.71H548.07a50.71,50.71,0,0,0,0,101.42h92.11A50.682,50.682,0,0,0,690.84,594.54Zm-50.66-23.05a23.05,23.05,0,0,1,0,46.1H548.07a23.05,23.05,0,0,1,0-46.1Z" transform="translate(-384.9 0)" fill="#f7f7f7" fill-rule="evenodd"/>
    <path id="Path_1249" data-name="Path 1249" d="M509.24,481.08a13.825,13.825,0,0,1,13.84-13.81,23.04,23.04,0,0,0,23.06-23.02V352.16a23.046,23.046,0,0,0-23.06-23.02,13.81,13.81,0,1,1,0-27.62,50.6,50.6,0,0,1,36.9,15.89,50.643,50.643,0,0,1,36.9-15.89h42.43a50.7,50.7,0,0,1,50.74,50.65,13.84,13.84,0,0,1-27.68,0,23.046,23.046,0,0,0-23.06-23.02H596.88a23.04,23.04,0,0,0-23.06,23.02v92.08a50.693,50.693,0,0,1-50.74,50.65,13.825,13.825,0,0,1-13.84-13.81Z" transform="translate(-395.94 0)" fill="#f7f7f7" fill-rule="evenodd"/>
    <path id="Path_1250" data-name="Path 1250" d="M676.06,301.48a23.05,23.05,0,1,1,23.06-23.05,13.83,13.83,0,1,0,27.66,0,50.73,50.73,0,1,0-50.73,50.71,13.83,13.83,0,1,0,0-27.66Z" transform="translate(-548.75 0)" fill="#f7f7f7" fill-rule="evenodd"/>
    <path id="Path_1251" data-name="Path 1251" d="M562.72,419.16a23.05,23.05,0,1,1-23.06,23.05,13.83,13.83,0,0,0-27.66,0,50.73,50.73,0,1,0,50.73-50.71,13.83,13.83,0,1,0,0,27.66Z" transform="translate(-322.11 0)" fill="#f7f7f7" fill-rule="evenodd"/>
    <path id="Path_1252" data-name="Path 1252" d="M626.939,608.16a30.391,30.391,0,1,1-23.42,50.02,13.833,13.833,0,0,0-21.07,17.93,58.217,58.217,0,1,0,44.49-95.57,13.81,13.81,0,1,0,0,27.62Z" transform="translate(-461.099 0)" fill="#f7f7f7" fill-rule="evenodd"/>
    <path id="Path_1253" data-name="Path 1253" d="M675.84,301.51a13.81,13.81,0,1,0,13.82,13.81A13.815,13.815,0,0,0,675.84,301.51Z" transform="translate(-548.33 0)" fill="#f7f7f7" fill-rule="evenodd"/>
    <path id="Path_1254" data-name="Path 1254" d="M676.24,467.27a13.81,13.81,0,1,0,13.82,13.81A13.815,13.815,0,0,0,676.24,467.27Z" transform="translate(-549.13 0)" fill="#f7f7f7" fill-rule="evenodd"/>
    <path id="Path_1255" data-name="Path 1255" d="M752.03,227.71a13.81,13.81,0,1,0,13.82,13.81A13.815,13.815,0,0,0,752.03,227.71Z" transform="translate(-700.71 0)" fill="#f7f7f7" fill-rule="evenodd"/>
    <path id="Path_1256" data-name="Path 1256" d="M751.64,190.62a13.81,13.81,0,1,0,13.82,13.81A13.815,13.815,0,0,0,751.64,190.62Z" transform="translate(-699.93 0)" fill="#f7f7f7" fill-rule="evenodd"/>
    <path id="Path_1257" data-name="Path 1257" d="M736.19,379.63a23.06,23.06,0,0,1-46.12,0,13.83,13.83,0,0,0-27.66,0,50.73,50.73,0,0,0,101.46,0,13.83,13.83,0,0,0-27.66,0Z" transform="translate(-622.93 0)" fill="#f7f7f7" fill-rule="evenodd"/>
    <path id="Path_1258" data-name="Path 1258" d="M509.27,351.27c0,17.57-14.59,32.29-33.16,32.29s-33.16-14.71-33.16-32.29a13.82,13.82,0,1,0-27.64,0c0,33.37,27.48,59.96,60.79,59.96s60.79-26.59,60.79-59.96a13.82,13.82,0,1,0-27.64,0Z" transform="translate(-148.85 0)" fill="#f7f7f7" fill-rule="evenodd"/>
    <path id="Path_1259" data-name="Path 1259" d="M700.28,442.42a63.635,63.635,0,0,1-63.68,63.59,50.68,50.68,0,1,0,0,101.36,13.82,13.82,0,1,0,0-27.64,23.04,23.04,0,1,1,0-46.08,91.3,91.3,0,0,0,91.36-91.23,13.84,13.84,0,0,0-27.68,0Z" transform="translate(-510.45 0)" fill="#f7f7f7" fill-rule="evenodd"/>
    <path id="Path_1260" data-name="Path 1260" d="M406.21,591.58A104.991,104.991,0,0,1,511.22,486.6a13.81,13.81,0,1,0,0-27.62,132.619,132.619,0,0,0-132.64,132.6,13.82,13.82,0,0,0,27.64,0Z" transform="translate(-100.27 0)" fill="#f7f7f7"/>
    <path id="Path_1261" data-name="Path 1261" d="M109.29,184.33a89.512,89.512,0,0,1-89.53,89.5,13.84,13.84,0,0,0,0,27.68A117.2,117.2,0,0,0,136.98,184.33a13.84,13.84,0,0,0-27.68,0Z" transform="translate(660.45 0)" fill="#f7f7f7"/>
    <path id="Path_1262" data-name="Path 1262" d="M588.58,208.38a63.553,63.553,0,0,1,63.56,63.54,13.82,13.82,0,0,0,27.64,0,91.174,91.174,0,0,0-91.19-91.16,13.81,13.81,0,1,0,0,27.62Z" transform="translate(-451.2 0)" fill="#f7f7f7" fill-rule="evenodd"/>
    <path id="Path_1263" data-name="Path 1263" d="M788.76,1033.2a63.553,63.553,0,0,1-63.56-63.54,13.82,13.82,0,0,0-27.64,0,91.174,91.174,0,0,0,91.19,91.16,13.81,13.81,0,1,0,0-27.62Z" transform="translate(-696.78 0)" fill="#f7f7f7" fill-rule="evenodd"/>
    <path id="Path_1264" data-name="Path 1264" d="M599.71,668.91A42.3,42.3,0,0,1,557.4,711.2a13.79,13.79,0,1,0,0,27.58,69.889,69.889,0,0,0,69.9-69.88,13.8,13.8,0,0,0-27.6,0Z" transform="translate(-367.55 0)" fill="#f7f7f7" fill-rule="evenodd"/>
    <path id="Path_1265" data-name="Path 1265" d="M676.24,365.84a13.81,13.81,0,1,0,13.82,13.81A13.815,13.815,0,0,0,676.24,365.84Z" transform="translate(-549.13 0)" fill="#f7f7f7" fill-rule="evenodd"/>
    <path id="Path_1266" data-name="Path 1266" d="M599.65,428.2a13.81,13.81,0,1,0,13.82,13.81A13.815,13.815,0,0,0,599.65,428.2Z" transform="translate(-395.95 0)" fill="#f7f7f7" fill-rule="evenodd"/>
    <path id="Path_1267" data-name="Path 1267" d="M486.35,428.59a13.81,13.81,0,1,0,13.82,13.81A13.815,13.815,0,0,0,486.35,428.59Z" transform="translate(-169.35 0)" fill="#f7f7f7" fill-rule="evenodd"/>
    <path id="Path_1268" data-name="Path 1268" d="M449.25,428.59a13.81,13.81,0,1,0,13.82,13.81A13.815,13.815,0,0,0,449.25,428.59Z" transform="translate(-95.15 0)" fill="#f7f7f7" fill-rule="evenodd"/>
    <path id="Path_1269" data-name="Path 1269" d="M296.87,455.03a13.81,13.81,0,1,0,13.82,13.81A13.815,13.815,0,0,0,296.87,455.03Z" transform="translate(209.61 0)" fill="#f7f7f7" fill-rule="evenodd"/>
    <path id="Path_1270" data-name="Path 1270" d="M523.07,337.43a13.81,13.81,0,1,0,13.82,13.81A13.815,13.815,0,0,0,523.07,337.43Z" transform="translate(-242.79 0)" fill="#f7f7f7" fill-rule="evenodd"/>
    <path id="Path_1271" data-name="Path 1271" d="M36.35,771.35A23.06,23.06,0,1,0,59.41,748.3,23.052,23.052,0,0,0,36.35,771.35Zm23.06,50.71a50.71,50.71,0,1,1,50.73-50.71A50.716,50.716,0,0,1,59.41,822.06Z" transform="translate(684.53 0)" fill="#f7f7f7" fill-rule="evenodd"/>
    <path id="Path_1272" data-name="Path 1272" d="M351.7,1047.8a13.817,13.817,0,0,0-13.83-13.81,23.037,23.037,0,0,1-23.05-23.02V918.88a23.037,23.037,0,0,1,23.05-23.02,13.81,13.81,0,1,0,0-27.62,50.688,50.688,0,0,0-50.72,50.65v90.25a23.037,23.037,0,0,1-23.05,23.02H171.88a23.037,23.037,0,0,1-23.05-23.02,13.83,13.83,0,0,0-27.66,0,50.688,50.688,0,0,0,50.72,50.65h92.22a50.6,50.6,0,0,0,36.02-14.99,50.634,50.634,0,0,0,37.76,16.83,13.817,13.817,0,0,0,13.83-13.81Z" transform="translate(330.46 0)" fill="#f7f7f7" fill-rule="evenodd"/>
    <path id="Path_1273" data-name="Path 1273" d="M110,915.25a56.251,56.251,0,0,0,38.82-53.52V808.26a13.78,13.78,0,1,0-27.56,0v53.47a28.574,28.574,0,0,1-20.69,27.49,50.446,50.446,0,0,0-40.99-20.99,13.81,13.81,0,0,0,0,27.62,23,23,0,0,1,22.98,23.02v92.09a23,23,0,0,1-22.98,23.02,13.81,13.81,0,0,0,0,27.62,50.609,50.609,0,0,0,50.56-50.65V918.86c0-1.22-.04-2.43-.13-3.63Z" transform="translate(608.74 0)" fill="#f7f7f7"/>
    <path id="Path_1274" data-name="Path 1274" d="M135.19,868.2a23.05,23.05,0,1,0-23.06-23.05,13.83,13.83,0,0,1-27.66,0,50.73,50.73,0,1,1,50.73,50.71,13.83,13.83,0,1,1,0-27.66Z" transform="translate(532.95 0)" fill="#f7f7f7" fill-rule="evenodd"/>
    <path id="Path_1275" data-name="Path 1275" d="M135.41,868.24a13.81,13.81,0,1,1-13.82,13.81A13.815,13.815,0,0,1,135.41,868.24Z" transform="translate(532.53 0)" fill="#f7f7f7" fill-rule="evenodd"/>
    <path id="Path_1276" data-name="Path 1276" d="M135.01,1033.99a13.81,13.81,0,1,1-13.82,13.81A13.815,13.815,0,0,1,135.01,1033.99Z" transform="translate(533.33 0)" fill="#f7f7f7" fill-rule="evenodd"/>
    <path id="Path_1277" data-name="Path 1277" d="M219.1,882.05a13.81,13.81,0,1,1-13.82,13.81A13.815,13.815,0,0,1,219.1,882.05Z" transform="translate(365.15 0)" fill="#f7f7f7" fill-rule="evenodd"/>
    <path id="Path_1278" data-name="Path 1278" d="M255.81,882.05a13.81,13.81,0,1,1-13.82,13.81A13.815,13.815,0,0,1,255.81,882.05Z" transform="translate(291.73 0)" fill="#f7f7f7" fill-rule="evenodd"/>
    <path id="Path_1279" data-name="Path 1279" d="M271.6,762.07a13.81,13.81,0,1,1-13.82,13.81A13.815,13.815,0,0,1,271.6,762.07Z" transform="translate(260.15 0)" fill="#f7f7f7" fill-rule="evenodd"/>
    <path id="Path_1280" data-name="Path 1280" d="M269.63,724.19A13.81,13.81,0,1,1,255.81,738,13.815,13.815,0,0,1,269.63,724.19Z" transform="translate(264.09 0)" fill="#f7f7f7" fill-rule="evenodd"/>
    <path id="Path_1281" data-name="Path 1281" d="M308.31,724.19A13.81,13.81,0,1,1,294.49,738,13.815,13.815,0,0,1,308.31,724.19Z" transform="translate(186.73 0)" fill="#f7f7f7" fill-rule="evenodd"/>
    <path id="Path_1282" data-name="Path 1282" d="M789.54,912.44a13.81,13.81,0,1,1-13.82,13.81A13.815,13.815,0,0,1,789.54,912.44Z" transform="translate(-775.73 0)" fill="#f7f7f7" fill-rule="evenodd"/>
    <path id="Path_1283" data-name="Path 1283" d="M789.54,871a13.81,13.81,0,1,1-13.82,13.81A13.815,13.815,0,0,1,789.54,871Z" transform="translate(-775.73 0)" fill="#f7f7f7" fill-rule="evenodd"/>
    <path id="Path_1284" data-name="Path 1284" d="M788.75,746.29a13.81,13.81,0,1,1-13.82,13.81A13.815,13.815,0,0,1,788.75,746.29Z" transform="translate(-774.15 0)" fill="#f7f7f7" fill-rule="evenodd"/>
    <path id="Path_1285" data-name="Path 1285" d="M59.61,794.44a13.81,13.81,0,1,1-13.82,13.81A13.815,13.815,0,0,1,59.61,794.44Z" transform="translate(684.13 0)" fill="#f7f7f7" fill-rule="evenodd"/>
    <path id="Path_1286" data-name="Path 1286" d="M59.61,757.34a13.81,13.81,0,1,1-13.82,13.81A13.815,13.815,0,0,1,59.61,757.34Z" transform="translate(684.13 0)" fill="#f7f7f7" fill-rule="evenodd"/>
    <path id="Path_1287" data-name="Path 1287" d="M75.06,928.19a23.06,23.06,0,0,0,46.12,0,13.83,13.83,0,0,1,27.66,0,50.73,50.73,0,0,1-101.46,0,13.83,13.83,0,0,1,27.66,0Z" transform="translate(607.13 0)" fill="#f7f7f7" fill-rule="evenodd"/>
    <path id="Path_1288" data-name="Path 1288" d="M310.3,996.89a63.553,63.553,0,0,0-63.56-63.54,13.81,13.81,0,1,1,0-27.62,91.181,91.181,0,0,1,91.19,91.16,13.82,13.82,0,0,1-27.64,0Z" transform="translate(232.5 0)" fill="#f7f7f7" fill-rule="evenodd"/>
    <path id="Path_1289" data-name="Path 1289" d="M337.92,994.52a13.81,13.81,0,1,1-13.82,13.81A13.815,13.815,0,0,1,337.92,994.52Z" transform="translate(127.51 0)" fill="#f7f7f7" fill-rule="evenodd"/>
    <path id="Path_1290" data-name="Path 1290" d="M599.65,391.5a13.81,13.81,0,1,0,13.82,13.81A13.815,13.815,0,0,0,599.65,391.5Z" transform="translate(-395.95 0)" fill="#f7f7f7" fill-rule="evenodd"/>
    <path id="Path_1291" data-name="Path 1291" d="M599.65,354.79a13.81,13.81,0,1,0,13.82,13.81A13.815,13.815,0,0,0,599.65,354.79Z" transform="translate(-395.95 0)" fill="#f7f7f7" fill-rule="evenodd"/>
    <path id="Path_1292" data-name="Path 1292" d="M511.22,580.53a13.81,13.81,0,1,0,13.82,13.81A13.815,13.815,0,0,0,511.22,580.53Z" transform="translate(-219.09 0)" fill="#f7f7f7" fill-rule="evenodd"/>
    <path id="Path_1293" data-name="Path 1293" d="M677.03,579.74a13.81,13.81,0,1,0,13.82,13.81A13.815,13.815,0,0,0,677.03,579.74Z" transform="translate(-550.71 0)" fill="#f7f7f7" fill-rule="evenodd"/>
    <path id="Path_1294" data-name="Path 1294" d="M277.93,425.78a28.646,28.646,0,0,1-57.29,0c0-56.73-46.19-102.56-102.99-102.56a13.84,13.84,0,0,0,0,27.68c41.7,0,75.35,33.61,75.35,74.89a56.28,56.28,0,0,0,112.56,0,13.82,13.82,0,1,0-27.64,0Z" transform="translate(393.96 0)" fill="#f7f7f7" fill-rule="evenodd"/>
    <path id="Path_1295" data-name="Path 1295" d="M381.31,351.24c-41.94,0-75.7,33.53-75.7,74.59a13.85,13.85,0,0,1-27.7,0c0-56.59,46.43-102.22,103.4-102.22a13.81,13.81,0,1,1,0,27.62Z" transform="translate(130.28 0)" fill="#f7f7f7" fill-rule="evenodd"/>
    <path id="Path_1296" data-name="Path 1296" d="M277.91,337.43a13.82,13.82,0,1,0,13.82-13.81A13.815,13.815,0,0,0,277.91,337.43Z" transform="translate(219.89 0)" fill="#f7f7f7" fill-rule="evenodd"/>
    <path id="Path_1297" data-name="Path 1297" d="M295.68,525.28a13.825,13.825,0,0,0-13.84-13.81H221.88a13.81,13.81,0,1,0,0,27.62h59.96A13.826,13.826,0,0,0,295.68,525.28Z" transform="translate(299.63 0)" fill="#f7f7f7" fill-rule="evenodd"/>
    <path id="Path_1298" data-name="Path 1298" d="M237.23,751.84a93.108,93.108,0,0,0-93.12,93.1,13.83,13.83,0,1,1-27.66,0A120.769,120.769,0,0,1,237.24,724.19a13.83,13.83,0,1,1,0,27.66Z" transform="translate(435.83 0)" fill="#f7f7f7" fill-rule="evenodd"/>
    <path id="Path_1299" data-name="Path 1299" d="M159.88,296.78a13.834,13.834,0,0,0-13.82,13.84V427.78a13.82,13.82,0,1,0,27.64,0V310.62A13.834,13.834,0,0,0,159.88,296.78Z" transform="translate(483.59 0)" fill="#f7f7f7"/>
    <path id="Path_1300" data-name="Path 1300" d="M130.27,724.19A13.81,13.81,0,1,1,116.45,738,13.815,13.815,0,0,1,130.27,724.19Z" transform="translate(542.81 0)" fill="#f7f7f7" fill-rule="evenodd"/>
    <path id="Path_1301" data-name="Path 1301" d="M110.63,324.5a13.813,13.813,0,1,0,19.54,0A13.8,13.8,0,0,0,110.63,324.5Z" transform="translate(562.55 0)" fill="#f7f7f7" fill-rule="evenodd"/>
    <path id="Path_1302" data-name="Path 1302" d="M69.18,418.43a13.813,13.813,0,1,0,19.54,0A13.8,13.8,0,0,0,69.18,418.43Z" transform="translate(645.45 0)" fill="#f7f7f7" fill-rule="evenodd"/>
    <path id="Path_1303" data-name="Path 1303" d="M429.11,1061.62a13.815,13.815,0,0,0,13.82-13.81v-44.2a13.82,13.82,0,0,0-27.64,0v44.2A13.815,13.815,0,0,0,429.11,1061.62Z" transform="translate(-54.87 0)" fill="#f7f7f7" fill-rule="evenodd"/>
    <path id="Path_1304" data-name="Path 1304" d="M733.48,621.97a13.8,13.8,0,0,0,13.79,13.81H786.8a13.81,13.81,0,0,0,0-27.62H747.27A13.8,13.8,0,0,0,733.48,621.97Z" transform="translate(-730.72 0)" fill="#f7f7f7" fill-rule="evenodd"/>
    <path id="Path_1305" data-name="Path 1305" d="M789.54,555.67a13.825,13.825,0,0,0,13.82-13.83V432.15a13.82,13.82,0,1,0-27.64,0V541.84A13.825,13.825,0,0,0,789.54,555.67Z" transform="translate(-775.73 0)" fill="#f7f7f7" fill-rule="evenodd"/>
    <path id="Path_1306" data-name="Path 1306" d="M20.92,1061.62a13.815,13.815,0,0,0,13.82-13.81V984.27a13.82,13.82,0,0,0-27.64,0v63.54A13.815,13.815,0,0,0,20.92,1061.62Z" transform="translate(761.51 0)" fill="#f7f7f7" fill-rule="evenodd"/>
    <path id="Path_1307" data-name="Path 1307" d="M775.71,428.59a13.82,13.82,0,1,0,13.82-13.81A13.815,13.815,0,0,0,775.71,428.59Z" transform="translate(-775.71 0)" fill="#f7f7f7" fill-rule="evenodd"/>
    <path id="Path_1308" data-name="Path 1308" d="M123.22,468.83a42.3,42.3,0,0,1-42.31,42.29,13.79,13.79,0,1,0,0,27.58,69.889,69.889,0,0,0,69.9-69.88,13.8,13.8,0,0,0-27.6,0Z" transform="translate(585.43 0)" fill="#f7f7f7" fill-rule="evenodd"/>
    <path id="Path_1309" data-name="Path 1309" d="M146.75,534.66a13.813,13.813,0,1,0-19.54,0A13.8,13.8,0,0,0,146.75,534.66Z" transform="translate(529.39 0)" fill="#f7f7f7" fill-rule="evenodd"/>
    <path id="Path_1310" data-name="Path 1310" d="M456.74,260.87a88.415,88.415,0,0,1,88.43-88.4,13.81,13.81,0,1,0,0-27.62A116.045,116.045,0,0,0,429.11,260.88a13.82,13.82,0,0,0,27.64,0Z" transform="translate(-184.75 0)" fill="#f7f7f7" fill-rule="evenodd"/>
    <path id="Path_1311" data-name="Path 1311" d="M433.16,148.88a13.813,13.813,0,1,0,19.54,0A13.8,13.8,0,0,0,433.16,148.88Z" transform="translate(-82.51 0)" fill="#f7f7f7" fill-rule="evenodd"/>
    <path id="Path_1312" data-name="Path 1312" d="M433.16,109.81a13.813,13.813,0,1,0,19.54,0A13.8,13.8,0,0,0,433.16,109.81Z" transform="translate(-82.51 0)" fill="#f7f7f7" fill-rule="evenodd"/>
    <path id="Path_1313" data-name="Path 1313" d="M610.66,17.39A119.922,119.922,0,0,1,490.72,137.3a13.84,13.84,0,1,0,0,27.68A147.6,147.6,0,0,0,638.34,17.4a13.84,13.84,0,1,0-27.68,0Z" transform="translate(-311.87 0)" fill="#f7f7f7" fill-rule="evenodd"/>
    <path id="Path_1314" data-name="Path 1314" d="M159.95,296.78a13.81,13.81,0,1,0,13.75,13.88A13.815,13.815,0,0,0,159.95,296.78Z" transform="translate(483.59 0)" fill="#f7f7f7" fill-rule="evenodd"/>
    <path id="Path_1315" data-name="Path 1315" d="M19.81,170.49a13.81,13.81,0,1,0,13.75,13.88A13.815,13.815,0,0,0,19.81,170.49Z" transform="translate(763.87 0)" fill="#f7f7f7" fill-rule="evenodd"/>
    <path id="Path_1316" data-name="Path 1316" d="M20.99,296.78a13.81,13.81,0,1,0,13.75,13.88A13.815,13.815,0,0,0,20.99,296.78Z" transform="translate(761.51 0)" fill="#f7f7f7" fill-rule="evenodd"/>
    <path id="Path_1317" data-name="Path 1317" d="M57.71,296.78a13.81,13.81,0,1,0,13.75,13.88A13.815,13.815,0,0,0,57.71,296.78Z" transform="translate(688.07 0)" fill="#f7f7f7" fill-rule="evenodd"/>
    <path id="Path_1318" data-name="Path 1318" d="M429.11,24.48V79.31a13.82,13.82,0,0,0,27.64,0V24.48a13.82,13.82,0,0,0-27.64,0Z" transform="translate(-82.51 0)" fill="#f7f7f7"/>
    <path id="Path_1319" data-name="Path 1319" d="M490.7,3.55a13.81,13.81,0,1,0,13.82,13.81A13.821,13.821,0,0,0,490.7,3.55Z" transform="translate(-178.05 0)" fill="#f7f7f7" fill-rule="evenodd"/>
    <path id="Path_1320" data-name="Path 1320" d="M122.95,161.45A23.05,23.05,0,1,1,99.89,184.5a13.83,13.83,0,0,0-27.66,0,50.73,50.73,0,1,0,50.73-50.71,13.83,13.83,0,0,0,0,27.66Z" transform="translate(557.43 0)" fill="#f7f7f7" fill-rule="evenodd"/>
    <path id="Path_1321" data-name="Path 1321" d="M73.78,90.35a23.06,23.06,0,0,1-46.12,0A13.83,13.83,0,0,0,0,90.35a50.725,50.725,0,0,0,101.45,0,13.83,13.83,0,0,0-27.66,0Z" transform="translate(701.9 0)" fill="#f7f7f7"/>
    <path id="Path_1322" data-name="Path 1322" d="M159.88,169.7a13.81,13.81,0,1,0,13.82,13.81A13.815,13.815,0,0,0,159.88,169.7Z" transform="translate(483.59 0)" fill="#f7f7f7" fill-rule="evenodd"/>
    <path id="Path_1323" data-name="Path 1323" d="M87.64,75.77a13.81,13.81,0,1,0,13.82,13.81A13.821,13.821,0,0,0,87.64,75.77Z" transform="translate(628.07 0)" fill="#f7f7f7" fill-rule="evenodd"/>
    <path id="Path_1324" data-name="Path 1324" d="M159.88,132.6a13.81,13.81,0,1,0,13.82,13.81A13.821,13.821,0,0,0,159.88,132.6Z" transform="translate(483.59 0)" fill="#f7f7f7" fill-rule="evenodd"/>
    <path id="Path_1325" data-name="Path 1325" d="M159.88,95.9a13.81,13.81,0,1,0,13.82,13.81A13.821,13.821,0,0,0,159.88,95.9Z" transform="translate(483.59 0)" fill="#f7f7f7" fill-rule="evenodd"/>
    <path id="Path_1326" data-name="Path 1326" d="M50.14,74.59A13.81,13.81,0,1,0,63.96,88.4,13.821,13.821,0,0,0,50.14,74.59Z" transform="translate(703.07 0)" fill="#f7f7f7" fill-rule="evenodd"/>
    <path id="Path_1327" data-name="Path 1327" d="M50.14,37.89A13.81,13.81,0,1,0,63.96,51.7,13.821,13.821,0,0,0,50.14,37.89Z" transform="translate(703.07 0)" fill="#f7f7f7" fill-rule="evenodd"/>
    <path id="Path_1328" data-name="Path 1328" d="M50.14.79A13.81,13.81,0,1,0,63.96,14.6,13.821,13.821,0,0,0,50.14.79Z" transform="translate(703.07 0)" fill="#f7f7f7" fill-rule="evenodd"/>
    <path id="Path_1329" data-name="Path 1329" d="M268.83,51.3a13.82,13.82,0,1,0,13.82-13.81A13.821,13.821,0,0,0,268.83,51.3Z" transform="translate(238.05 0)" fill="#f7f7f7" fill-rule="evenodd"/>
  </g>
</svg>
