<svg width="36" height="35" viewBox="0 0 36 35" fill="none" xmlns="http://www.w3.org/2000/svg">
<path d="M35.3997 8.39926H31.7997C31.0114 8.41239 31.0109 9.58616 31.7997 9.59925H34.7997V28.1991H5.99992V24.8991C5.98733 24.1117 4.81302 24.1095 4.79993 24.8991V28.7991C4.79993 29.1304 5.06832 29.3991 5.39992 29.3991H14.8922L13.82 33.4453C13.7136 33.8123 14.0171 34.2093 14.4001 34.1991H26.4C26.7817 34.209 27.0876 33.8123 26.9802 33.4453L25.9077 29.3991H35.4C35.7316 29.3991 36 29.1304 36 28.7991V8.99926C36 8.66792 35.7316 8.39926 35.4 8.39926H35.3997ZM25.6201 32.9991H15.1802L16.134 29.3991H24.6663L25.6201 32.9991Z" fill="#CFE7FE"/>
<path d="M29.3998 23.3998C29.7314 23.3998 29.9998 23.1312 29.9998 22.7998V0.599996C29.9998 0.268661 29.7314 0 29.3998 0H0.599996C0.268394 0 0 0.268661 0 0.599996V22.7998C0 23.1312 0.268394 23.3998 0.599996 23.3998H29.3998ZM28.7998 22.1998H13.1999V1.19999H28.7998V22.1998ZM1.19999 1.19999H11.9999V22.1998H1.19999V1.19999Z" fill="#CFE7FE"/>
<path d="M14.6036 10.6504C14.8506 10.8685 15.2312 10.8457 15.4503 10.5963L18.2055 7.46372L20.9208 10.0357C21.1517 10.2548 21.5149 10.2548 21.7457 10.0357L26.8123 5.23571C27.378 4.69545 26.561 3.82679 25.9873 4.36438L21.3333 8.77356L18.5789 6.16437C18.4611 6.05241 18.3111 5.99616 18.1388 6.00071C17.9765 6.00794 17.8236 6.0816 17.7159 6.20374L14.5496 9.80372C14.3307 10.0526 14.3548 10.4316 14.6037 10.6504L14.6036 10.6504Z" fill="#CFE7FE"/>
<path d="M22.6016 12.5999H15.6355C15.3039 12.5999 15.0355 12.8686 15.0355 13.1999V16.1999C15.0355 16.5312 15.3039 16.7999 15.6355 16.7999H22.6016C22.9332 16.7999 23.2016 16.5312 23.2016 16.1999V13.1999C23.2018 12.8686 22.9334 12.5999 22.6018 12.5999H22.6016ZM22.0016 15.5999H16.2355V13.7999H22.0016V15.5999Z" fill="#CFE7FE"/>
<path d="M19.4328 17.9992H15.633C15.3014 17.9992 15.033 18.2678 15.033 18.5992C15.033 18.9305 15.3014 19.1992 15.633 19.1992H19.4328C20.2203 19.1863 20.2222 18.0125 19.4328 17.9992Z" fill="#CFE7FE"/>
<path d="M7.55993 10.6799H4.20023C3.41166 10.693 3.41139 11.8668 4.20023 11.8799H6.00021V12.7202C6.00021 13.0515 6.26861 13.3202 6.60021 13.3202C6.93181 13.3202 7.20021 13.0515 7.20021 12.7202V11.8799C10.1337 12.1459 10.4911 7.97191 7.55994 7.79994H5.6405C4.91193 7.8219 4.51655 6.86511 5.04693 6.36639C5.20577 6.20755 5.41657 6.11996 5.6405 6.11996H9.0002C9.78767 6.10791 9.78959 4.93259 9.0002 4.91997H7.20021V4.0797C7.20021 3.74837 6.93182 3.47971 6.60022 3.47971C6.26862 3.47971 6.00022 3.74837 6.00022 4.0797V4.91997C4.77369 4.76944 3.5796 5.68577 3.60024 6.95996C3.60024 8.08466 4.51552 8.99994 5.6405 8.99994H7.55994C8.66427 9.01842 8.66297 10.6614 7.55994 10.6799L7.55993 10.6799Z" fill="#CFE7FE"/>
<path d="M4.20001 17.3999H8.99997C9.78717 17.387 9.78991 16.2133 8.99997 16.1999H4.20001C3.41281 16.2127 3.41007 17.3865 4.20001 17.3999Z" fill="#CFE7FE"/>
<path d="M9.59987 19.1992H3.59991C2.81292 19.2117 2.80977 20.3858 3.59991 20.3991H9.59987C10.3869 20.3866 10.39 19.2125 9.59987 19.1992Z" fill="#CFE7FE"/>
</svg>
