<svg width="31" height="36" viewBox="0 0 31 36" fill="none" xmlns="http://www.w3.org/2000/svg">
<path d="M24.6667 0H6C2.69196 0 0 2.69196 0 6V30.6667H10.6667V36H30.6667V6C30.6667 2.69196 27.9753 0 24.6667 0ZM24.6667 1.33333C27.2393 1.33333 29.3333 3.42682 29.3333 6V30.6606H12V6C12 4.11726 11.128 2.4339 9.76724 1.33333H24.6667ZM6 1.33333C8.57318 1.33333 10.6667 3.42682 10.6667 6V25.3326H1.33333V6C1.33333 3.42682 3.42682 1.33333 6 1.33333ZM1.33333 29.3333V26.6661H10.6667V29.3333H1.33333ZM12 34.6667V31.9941H29.3333V34.6667H12ZM13.3321 7.33257C13.3321 6.96472 13.6309 6.66591 13.9988 6.66591H27.3352C27.7039 6.66591 28.0018 6.96472 28.0018 7.33257C28.0018 7.70043 27.7039 7.99924 27.3352 7.99924H13.9988C13.63 7.99924 13.3321 7.70043 13.3321 7.33257ZM13.3321 15.331C13.3321 14.9632 13.6309 14.6644 13.9988 14.6644H27.3352C27.7039 14.6644 28.0018 14.9632 28.0018 15.331C28.0018 15.6989 27.7039 15.9977 27.3352 15.9977H13.9988C13.63 15.9977 13.3321 15.6992 13.3321 15.331ZM13.3321 19.3298C13.3321 18.9611 13.6309 18.6632 13.9988 18.6632H27.3352C27.7039 18.6632 28.0018 18.9611 28.0018 19.3298C28.0018 19.6986 27.7039 19.9965 27.3352 19.9965H13.9988C13.63 19.9965 13.3321 19.6986 13.3321 19.3298ZM13.3321 23.3292C13.3321 22.9605 13.6309 22.6626 13.9988 22.6626H27.3352C27.7039 22.6626 28.0018 22.9605 28.0018 23.3292C28.0018 23.698 27.7039 23.9959 27.3352 23.9959H13.9988C13.63 23.9959 13.3321 23.6977 13.3321 23.3292ZM13.3321 27.3283C13.3321 26.9596 13.6309 26.6616 13.9988 26.6616H27.3352C27.7039 26.6616 28.0018 26.9596 28.0018 27.3283C28.0018 27.6971 27.7039 27.995 27.3352 27.995H13.9988C13.63 27.995 13.3321 27.6971 13.3321 27.3283ZM13.3321 11.3321C13.3321 10.9643 13.6309 10.6654 13.9988 10.6654H27.3352C27.7039 10.6654 28.0018 10.9643 28.0018 11.3321C28.0018 11.7 27.7039 11.9988 27.3352 11.9988H13.9988C13.63 11.9988 13.3321 11.7 13.3321 11.3321Z" fill="#CFE7FE"/>
</svg>
