<svg width="27" height="36" viewBox="0 0 27 36" fill="none" xmlns="http://www.w3.org/2000/svg">
<path d="M24.202 27.0707H23.8382V2.18168C23.8382 0.969484 22.8684 0 21.6565 0H2.18168C0.969484 0 0 0.969773 0 2.18168V31.3939C0 32.6061 0.969772 33.5756 2.18168 33.5756L12.5252 33.5759V33.9395C12.5252 35.0708 13.4544 36 14.5857 36H24.2019C25.3332 36 26.2624 35.0708 26.2624 33.9395V29.1313C26.2624 28 25.3332 27.0707 24.2019 27.0707L24.202 27.0707ZM24.202 28.2829C24.6868 28.2829 25.0507 28.6464 25.0507 29.1315L25.0504 29.899H13.7372V29.1312C13.7372 28.6465 14.1008 28.2826 14.5859 28.2826L22.6263 28.2829L24.202 28.2829ZM2.18175 32.3233C1.65641 32.3233 1.21198 31.8788 1.21198 31.3535L1.21226 2.18168C1.21226 1.65634 1.65672 1.21191 2.18204 1.21191H21.6973C22.2226 1.21191 22.667 1.65637 22.667 2.18168L22.6668 27.0707H14.5859C13.4546 27.0707 12.5254 27.9999 12.5254 29.1312V32.3233H2.18175ZM24.202 34.7474H14.5858C14.1011 34.7474 13.7372 34.3838 13.7372 33.8988V31.1108H25.0504V33.8988C25.0504 34.3838 24.6868 34.7474 24.202 34.7474Z" fill="#CFE7FE"/>
<path d="M15.7577 33.5353H14.9497C14.7073 33.5353 14.5455 33.3332 14.5455 33.1312L14.5458 32.7273C14.5458 32.4849 14.7479 32.3231 14.95 32.3231L15.7577 32.3234C16.0001 32.3234 16.1619 32.5255 16.1619 32.7276V33.1314C16.1619 33.3335 15.9598 33.5353 15.7577 33.5353H15.7577Z" fill="#CFE7FE"/>
<path d="M10.5049 8.88882H19.7978V10.101H10.5049V8.88882Z" fill="#CFE7FE"/>
<path d="M4.04047 14.5453H19.7981V15.7575H4.04047V14.5453Z" fill="#CFE7FE"/>
<path d="M4.04047 20.202H19.7981V21.4142H4.04047V20.202Z" fill="#CFE7FE"/>
<path d="M5.77776 11.5959C5.57568 11.5959 5.41419 11.515 5.293 11.3535L4.36377 10.0202C4.16169 9.73724 4.24258 9.37367 4.52527 9.17157C4.80823 8.96949 5.1718 9.05038 5.3739 9.33307L5.81836 9.93901L7.47501 7.43403C7.67708 7.15106 8.04065 7.07045 8.32364 7.27253C8.6066 7.47461 8.68721 7.83818 8.48513 8.12116L6.26283 11.313C6.18194 11.515 5.97986 11.5959 5.77778 11.5959L5.77776 11.5959Z" fill="#CFE7FE"/>
</svg>
