<svg width="36" height="36" viewBox="0 0 36 36" fill="none" xmlns="http://www.w3.org/2000/svg">
<path d="M10.6969 14.7834C10.9597 14.9487 11.3068 14.8699 11.472 14.6074C11.6375 14.3446 11.5588 13.9976 11.296 13.8323L1.76209 7.84111L14.6584 1.19075L34.3174 12.5593L21.3986 20.213L21.114 20.0332C20.8562 19.9035 20.542 19.9905 20.3876 20.234C20.2329 20.4775 20.2878 20.7987 20.5147 20.9767L21.0915 21.3436V21.3438C21.1802 21.4028 21.2846 21.4338 21.3911 21.4336C21.4917 21.4328 21.5902 21.4045 21.6757 21.3514L35.7179 13.0307C35.8924 12.9324 36.0002 12.7479 36.0002 12.5475C36.0002 12.3474 35.8924 12.1626 35.7179 12.0646L14.9503 0.0669497C14.7818 -0.0223166 14.5799 -0.0223166 14.4112 0.0669497L0.376712 7.26423C0.19617 7.35375 0.0785696 7.53454 0.0695377 7.7359C0.0627673 7.9355 0.162566 8.12381 0.331822 8.23013L10.6969 14.7834Z" fill="#CFE7FE"/>
<path d="M21.144 8.66454C20.2729 7.92055 19.1502 7.53738 18.0061 7.59355C15.8268 7.65348 14.1493 8.93409 14.1791 10.5143C14.1931 11.1427 14.4637 11.7382 14.9281 12.1618C15.7626 12.8721 16.8281 13.253 17.9236 13.2327H18.0733C20.2451 13.1728 21.9301 11.8922 21.9003 10.312H21.9005C21.8837 9.68259 21.6104 9.08732 21.144 8.66454H21.144ZM20.7919 10.3346C20.7919 11.2559 19.5562 12.072 18.0585 12.1094C17.2029 12.1716 16.3561 11.9035 15.6919 11.3606C15.4379 11.1352 15.2867 10.816 15.2727 10.4767C15.2727 9.55541 16.5084 8.73926 18.0061 8.7019H18.126C18.9417 8.6658 19.7418 8.9326 20.3727 9.4509C20.62 9.67182 20.7704 9.98099 20.792 10.312L20.7919 10.3346Z" fill="#CFE7FE"/>
<path d="M21.5715 17.0898C22.3067 17.0702 23.0354 17.235 23.6909 17.569C23.7744 17.6196 23.8705 17.6457 23.968 17.644C24.068 17.6457 24.1663 17.6199 24.2526 17.569L29.6448 14.3787C29.7865 14.2917 29.8825 14.1462 29.9068 13.9817C29.9362 13.818 29.8893 13.65 29.7794 13.5249C29.5758 13.313 29.4565 13.0339 29.4439 12.74C29.4316 12.4464 29.5269 12.158 29.7122 11.9296C29.8073 11.8007 29.8426 11.6372 29.8095 11.4802C29.7729 11.3265 29.6756 11.1941 29.54 11.1134L16.2919 3.45967C16.1309 3.38193 15.9433 3.38193 15.7826 3.45967C15.2603 3.6896 14.6979 3.81423 14.1274 3.82677C13.5419 3.84758 12.9581 3.74828 12.4125 3.53464C12.2623 3.46744 12.0908 3.46744 11.9406 3.53464L7.10256 5.98346C6.82924 6.12364 6.71916 6.45714 6.85557 6.73246C6.92778 6.88191 6.96615 7.04565 6.9679 7.21165C6.94333 7.69686 6.69408 8.1427 6.29388 8.41751C6.15196 8.5311 6.07397 8.70638 6.0845 8.88792C6.09478 9.06921 6.19233 9.23446 6.34629 9.33125L19.3851 17.5691H19.3849C19.5574 17.6744 19.7743 17.6744 19.9465 17.5691C20.4478 17.3013 20.9982 17.1383 21.5644 17.0899L21.5715 17.0898ZM19.7215 16.4682L7.52168 8.76957C7.88653 8.33301 8.08312 7.78061 8.07584 7.21161C8.07559 7.06818 8.06055 6.92525 8.03096 6.78483L12.2323 4.63541C12.8527 4.84077 13.5039 4.93706 14.1571 4.92001C14.7767 4.90747 15.3897 4.78836 15.9692 4.5682L28.4913 11.8104C28.3729 12.1 28.3142 12.411 28.319 12.7239C28.3273 13.0654 28.4118 13.4004 28.5663 13.7051L23.9529 16.4686C23.2042 16.1436 22.3952 15.9802 21.5788 15.9892C20.9336 16.0215 20.302 16.1848 19.7215 16.4686L19.7215 16.4682Z" fill="#CFE7FE"/>
<path d="M0.309451 11.8851L4.19638 14.3415V14.3417C4.2859 14.3987 4.38971 14.4298 4.49603 14.4315C4.74879 14.4345 4.97246 14.2683 5.04242 14.0253C5.11238 13.7821 5.01133 13.5223 4.79543 13.3904L0.908497 10.9416C0.783873 10.8435 0.623391 10.8029 0.466921 10.8297C0.310452 10.8566 0.172541 10.9483 0.0875302 11.0822C0.00252624 11.2164 -0.0220471 11.3801 0.0203265 11.5331C0.0627001 11.686 0.167771 11.8139 0.309444 11.8851L0.309451 11.8851Z" fill="#CFE7FE"/>
<path d="M35.1265 15.7194L21.3764 23.8603L21.1144 23.6956C20.8516 23.5301 20.5045 23.6088 20.3391 23.8716C20.1738 24.1341 20.2525 24.4812 20.5151 24.6466L21.0693 24.9912C21.1583 25.0501 21.2623 25.0814 21.3689 25.0809C21.4687 25.0817 21.567 25.0559 21.6535 25.0062L35.6957 16.6856C35.9529 16.5301 36.0394 16.1979 35.8905 15.9366C35.821 15.8034 35.6997 15.7046 35.5552 15.6635C35.4108 15.6226 35.2556 15.6427 35.1264 15.7194L35.1265 15.7194Z" fill="#CFE7FE"/>
<path d="M0.309361 15.0228L1.8971 16.0264V16.0266C1.98587 16.0853 2.09018 16.1166 2.1965 16.1164C2.44951 16.1194 2.67318 15.9531 2.74314 15.7102C2.8131 15.4669 2.71205 15.2072 2.49615 15.0753L0.908407 14.0717C0.650134 13.9281 0.324651 14.0063 0.159663 14.2515C-0.00859197 14.5066 0.0578603 14.8493 0.309361 15.0229V15.0228Z" fill="#CFE7FE"/>
<path d="M35.1263 18.85L21.3763 26.998L21.1142 26.8257C20.8562 26.6783 20.528 26.757 20.3652 27.0055C20.212 27.261 20.2882 27.5915 20.5375 27.7545L21.0917 28.1066V28.1063C21.1804 28.1652 21.2847 28.1966 21.3913 28.1963C21.4916 28.1943 21.5899 28.166 21.6759 28.1138L35.6956 19.8156C35.9529 19.6602 36.0394 19.3279 35.8904 19.0666C35.7392 18.7958 35.3974 18.6985 35.1264 18.8495L35.1263 18.85Z" fill="#CFE7FE"/>
<path d="M9.76861 16.3561C5.27512 16.3561 0.556964 17.5244 0.0697418 19.6886C0.0366427 19.7591 0.0185877 19.8356 0.017334 19.9133V32.2332C0.0323795 34.6446 5.05774 35.9403 9.7682 35.9403C14.4788 35.9403 19.5492 34.6446 19.5492 32.1958V19.9132C19.5477 19.8354 19.5299 19.759 19.4966 19.6885C19.04 17.5242 14.2619 16.356 9.76818 16.356L9.76861 16.3561ZM18.4558 28.6156C18.4558 29.6941 15.1607 31.1994 9.79814 31.1994C4.43581 31.1994 1.14048 29.7017 1.14048 28.6156V26.1219C2.88549 27.3802 6.38296 28.0466 9.79814 28.0466C13.2131 28.0466 16.7104 27.3801 18.4558 26.1219V28.6156ZM18.4558 24.3393C18.4558 25.4554 15.1607 26.9532 9.76861 26.9532C4.37655 26.9532 1.14112 25.4554 1.14112 24.3396V21.8456C2.88613 23.0963 6.3836 23.7628 9.79878 23.7628C13.2138 23.7628 16.711 23.0963 18.4564 21.8456L18.4558 24.3393ZM9.76861 17.4797C15.1309 17.4797 18.4263 18.9774 18.4263 20.0635C18.4263 21.1492 15.161 22.6397 9.76861 22.6397C4.37623 22.6397 1.11095 21.142 1.11095 20.0635C1.11095 18.985 4.43619 17.4797 9.76861 17.4797ZM9.76861 34.8169C4.40628 34.8169 1.11095 33.3191 1.11095 32.2331V30.4059C2.85596 31.6566 6.35343 32.3231 9.76861 32.3231C13.1838 32.3231 16.6809 31.6566 18.4263 30.4059V32.2331C18.4561 33.3116 15.161 34.8169 9.76861 34.8169Z" fill="#CFE7FE"/>
</svg>
