<svg width="250" height="230" viewBox="0 0 250 230" fill="none" xmlns="http://www.w3.org/2000/svg">
<g clip-path="url(#clip0_424_2701)">
<path d="M2.73555 69.5956C-15.5208 6.60106 62.5001 -11.9878 91.7032 49.3393C115.634 99.5941 161.572 102.886 187.728 60.808C241.874 -26.2988 282.403 161.688 213.9 198.912C160.939 227.691 133.609 142.795 89.8287 168.462C80.3405 174.025 79.4376 187.664 72.4962 196.191C56.8556 215.404 15.5436 211.805 8.89814 187.529C-2.42899 146.151 29.1335 160.682 2.73555 69.5956V69.5956Z" fill="url(#paint0_linear_424_2701)"/>
<path opacity="0.1" d="M222.248 216.723H220.121V208.097C220.121 206.209 218.591 204.679 216.703 204.679H211.997V193.242C211.997 190.691 209.929 188.623 207.378 188.623H206.055V169.187C221.02 167.734 232.718 155.122 232.718 139.775C232.718 126.53 224.004 115.321 211.997 111.564V101.433H215.239C217.936 101.433 220.122 99.247 220.122 96.5502V84.746C220.122 83.1835 219.374 81.7153 218.11 80.7963L127.871 15.2002C126.159 13.9561 123.841 13.9561 122.129 15.2002L87.6105 40.2925C83.8234 28.3374 72.6417 19.6714 59.4333 19.6714C43.1105 19.6714 29.8786 32.9033 29.8786 49.226C29.8786 59.1381 34.7629 67.9033 42.2507 73.2651L31.8903 80.7963C30.6262 81.7153 29.8786 83.1835 29.8786 84.746V96.5502C29.8786 99.247 32.0646 101.433 34.7614 101.433H38.0031V113.854C38.0031 116.403 40.0734 118.473 42.6222 118.473H43.9455V188.623H42.6222C40.0715 188.623 38.0036 190.691 38.0036 193.242V204.678H33.2971C31.4094 204.678 29.8791 206.208 29.8791 208.096V216.722H27.7521C25.8644 216.722 24.3342 218.252 24.3342 220.14V225.969C24.3342 227.857 25.8644 229.387 27.7521 229.387H222.249C224.136 229.387 225.667 227.857 225.667 225.969V220.14C225.666 218.253 224.136 216.723 222.248 216.723V216.723ZM184.032 117.257C177.657 122.678 173.608 130.751 173.608 139.775C173.608 150.748 179.593 160.317 188.472 165.415V188.623H187.148C184.597 188.623 182.529 190.691 182.529 193.242V204.678H163.822V193.242C163.822 190.691 161.754 188.623 159.203 188.623H157.881V118.474H159.205C161.753 118.474 163.824 116.403 163.824 113.854V101.434H182.53V113.854C182.529 115.202 183.11 116.412 184.032 117.257ZM134.356 101.433V113.854C134.356 116.403 136.421 118.473 138.975 118.473H140.293V188.623H138.972C136.421 188.623 134.354 190.691 134.354 193.242V204.678H115.647V193.242C115.647 190.691 113.579 188.623 111.028 188.623H109.707V118.474H111.026C113.579 118.474 115.645 116.403 115.645 113.854V101.434H134.356V101.433ZM62.8527 188.623H61.5285V118.474H62.8517C65.4054 118.474 67.4708 116.403 67.4708 113.854V101.434H86.1769V113.854C86.1769 116.403 88.2472 118.474 90.796 118.474H92.1193V188.623H90.7975C88.2467 188.623 86.1788 190.691 86.1788 193.242V204.678H67.4718V193.242C67.4713 190.691 65.4035 188.623 62.8527 188.623V188.623Z" fill="#1F4FDE"/>
<path d="M43.9455 101.813H61.5285V181.921H43.9455V101.813Z" fill="white"/>
<path d="M92.1193 101.813H109.707V181.921H92.1193V101.813Z" fill="white"/>
<path d="M140.293 101.813H157.881V181.921H140.293V101.813Z" fill="white"/>
<path d="M188.472 101.813H206.055V181.92H188.472V101.813Z" fill="white"/>
<path d="M67.4708 86.96V102.136C67.4708 104.685 65.4054 106.755 62.8517 106.755H42.6222C40.0734 106.755 38.0031 104.685 38.0031 102.136V86.96H67.4708Z" fill="#9BACF2"/>
<path d="M42.6222 176.905H62.8527C65.4035 176.905 67.4713 178.973 67.4713 181.523V196.702H38.0036V181.523C38.0036 178.973 40.0715 176.905 42.6222 176.905V176.905Z" fill="#9BACF2"/>
<path d="M115.645 86.96V102.136C115.645 104.685 113.579 106.755 111.026 106.755H90.796C88.2472 106.755 86.1769 104.685 86.1769 102.136V86.96H115.645Z" fill="#9BACF2"/>
<path d="M90.7975 176.905H111.028C113.579 176.905 115.647 178.973 115.647 181.523V196.702H86.1784V181.523C86.1784 178.973 88.2462 176.905 90.7975 176.905Z" fill="#9BACF2"/>
<path d="M163.823 86.96V102.136C163.823 104.685 161.753 106.755 159.204 106.755H138.975C136.421 106.755 134.356 104.685 134.356 102.136V86.96H163.823Z" fill="#9BACF2"/>
<path d="M138.972 176.905H159.203C161.753 176.905 163.821 178.973 163.821 181.523V196.702H134.353V181.523C134.354 178.973 136.421 176.905 138.972 176.905Z" fill="#9BACF2"/>
<path d="M211.997 86.96V102.136C211.997 104.685 209.927 106.755 207.378 106.755H187.148C184.595 106.755 182.529 104.685 182.529 102.136V86.96H211.997Z" fill="#9BACF2"/>
<path d="M187.147 176.905H207.378C209.929 176.905 211.997 178.973 211.997 181.523V196.702H182.528V181.523C182.529 178.973 184.597 176.905 187.147 176.905Z" fill="#9BACF2"/>
<path d="M215.239 89.7143H34.7614C32.0646 89.7143 29.8786 87.5283 29.8786 84.8315V73.0273C29.8786 71.4648 30.6266 69.9965 31.8903 69.0776L122.129 3.48144C123.841 2.2373 126.159 2.2373 127.871 3.48144L218.11 69.0776C219.374 69.9965 220.122 71.4648 220.122 73.0273V84.8315C220.122 87.5283 217.935 89.7143 215.239 89.7143V89.7143Z" fill="white"/>
<path d="M205.561 80.6829H44.4391V71.2948L122.202 16.9066C123.882 15.7313 126.118 15.7313 127.799 16.9066L205.562 71.2948V80.6829H205.561Z" fill="#9BACF2"/>
<path d="M29.8786 196.378V207.578H220.121V196.378C220.121 194.49 218.591 192.96 216.703 192.96H33.2966C31.4089 192.96 29.8786 194.49 29.8786 196.378V196.378Z" fill="white"/>
<path d="M24.3342 208.422V214.251C24.3342 216.139 25.8644 217.669 27.7521 217.669H222.249C224.136 217.669 225.667 216.139 225.667 214.251V208.422C225.667 206.534 224.136 205.004 222.249 205.004H27.7521C25.8644 205.004 24.3342 206.534 24.3342 208.422V208.422Z" fill="#9BACF2"/>
<path d="M203.164 157.611C219.486 157.611 232.718 144.379 232.718 128.057C232.718 111.734 219.486 98.502 203.164 98.502C186.841 98.502 173.609 111.734 173.609 128.057C173.609 144.379 186.841 157.611 203.164 157.611Z" fill="#9BACF2"/>
<path d="M203.164 150.392C215.499 150.392 225.499 140.392 225.499 128.057C225.499 115.721 215.499 105.722 203.164 105.722C190.828 105.722 180.829 115.721 180.829 128.057C180.829 140.392 190.828 150.392 203.164 150.392Z" fill="white"/>
<path d="M206.345 125.615H205.605V120.645H210.221C211.569 120.645 212.663 119.551 212.663 118.203C212.663 116.855 211.569 115.762 210.221 115.762H205.605V114.534C205.605 113.186 204.512 112.093 203.164 112.093C201.815 112.093 200.722 113.186 200.722 114.534V115.762H199.982C195.919 115.762 192.614 119.067 192.614 123.13C192.614 127.193 195.919 130.498 199.982 130.498H200.722V135.469H196.106C194.758 135.469 193.665 136.562 193.665 137.91C193.665 139.258 194.758 140.352 196.106 140.352H200.722V141.579C200.722 142.927 201.815 144.02 203.164 144.02C204.512 144.02 205.605 142.927 205.605 141.579V140.352H206.345C210.408 140.352 213.713 137.046 213.713 132.983C213.713 128.92 210.408 125.615 206.345 125.615ZM199.982 125.615C198.611 125.615 197.497 124.5 197.497 123.13C197.497 121.759 198.611 120.645 199.982 120.645H200.722V125.615H199.982ZM206.345 135.468H205.605V130.498H206.345C207.715 130.498 208.83 131.612 208.83 132.983C208.83 134.354 207.715 135.468 206.345 135.468V135.468Z" fill="#9BACF2"/>
<path d="M59.4337 67.062C75.7563 67.062 88.9884 53.8299 88.9884 37.5073C88.9884 21.1847 75.7563 7.95264 59.4337 7.95264C43.1112 7.95264 29.8791 21.1847 29.8791 37.5073C29.8791 53.8299 43.1112 67.062 59.4337 67.062Z" fill="#9BACF2"/>
<path d="M222.563 202.578V196.377C222.563 193.146 219.935 190.518 216.704 190.518H214.438V181.523C214.438 178.012 211.858 175.099 208.496 174.56V159.599C223.608 157.053 235.16 143.881 235.16 128.056C235.16 114.381 226.533 102.687 214.438 98.1171V92.1542H215.239C219.277 92.1542 222.563 88.8686 222.563 84.83V73.0283C222.563 70.6894 221.435 68.4745 219.546 67.1035L211.816 61.4833C210.727 60.6909 209.199 60.9316 208.406 62.0224C207.613 63.1132 207.855 64.6396 208.945 65.4326L216.676 71.0541C217.305 71.5107 217.681 72.2485 217.681 73.0283V84.83C217.681 86.1762 216.585 87.2714 215.239 87.2714H34.7609C33.4147 87.2714 32.3195 86.1762 32.3195 84.83V73.0283C32.3195 72.2485 32.695 71.5107 33.3259 71.0527L42.3146 64.5175C47.2692 67.6689 53.1398 69.5034 59.4337 69.5034C77.0763 69.5034 91.4298 55.1499 91.4298 37.5073C91.4298 34.7588 91.0807 32.0903 90.4259 29.5434L123.564 5.45751C124.422 4.83398 125.577 4.833 126.436 5.45703L198.447 57.8007C198.881 58.1157 199.383 58.2675 199.881 58.2675C200.636 58.2675 201.38 57.9184 201.858 57.2612C202.65 56.1704 202.409 54.6435 201.318 53.851L129.306 1.50732C126.731 -0.363769 123.27 -0.363281 120.693 1.50781L88.7555 24.7212C83.8107 13.4258 72.5314 5.51074 59.4333 5.51074C41.7907 5.51074 27.4372 19.8642 27.4372 37.5068C27.4372 47.0244 31.6188 55.5791 38.236 61.4453L30.4553 67.102C28.5646 68.4741 27.4362 70.6894 27.4362 73.0278V84.8295C27.4362 88.8681 30.7219 92.1537 34.7604 92.1537H35.5617V102.135C35.5617 106.028 38.7287 109.195 42.6217 109.195H59.088V174.463H46.3869V119.744C46.3869 118.396 45.2936 117.303 43.9455 117.303C42.5973 117.303 41.5041 118.396 41.5041 119.744V174.561C38.1418 175.099 35.5622 178.012 35.5622 181.524V190.518H33.2966C30.0656 190.518 27.4372 193.147 27.4372 196.378V202.579C24.3532 202.744 21.8928 205.298 21.8928 208.422V214.251C21.8928 217.482 24.5212 220.111 27.7521 220.111H222.248C225.479 220.111 228.107 217.482 228.107 214.251V208.422C228.107 205.298 225.647 202.743 222.563 202.578ZM32.32 37.5073C32.32 22.5566 44.4831 10.394 59.4333 10.394C74.3834 10.394 86.5465 22.5571 86.5465 37.5073C86.5465 52.4575 74.3834 64.6206 59.4333 64.6206C44.4831 64.6206 32.32 52.458 32.32 37.5073ZM209.555 181.523V190.518H184.97V181.523C184.97 180.323 185.946 179.346 187.147 179.346H207.378C208.579 179.346 209.555 180.323 209.555 181.523ZM166.263 190.518V181.523C166.263 178.012 163.684 175.099 160.321 174.56V109.098C163.684 108.559 166.263 105.647 166.263 102.135V92.1542H180.088V102.135C180.088 103.207 180.342 104.253 180.801 105.202C174.862 111.014 171.167 119.11 171.167 128.056C171.167 139.399 177.105 149.374 186.03 155.057V174.56C182.667 175.098 180.086 178.012 180.086 181.523V190.518L166.263 190.518ZM118.088 190.518V181.523C118.088 178.012 115.508 175.099 112.146 174.56V109.098C115.508 108.559 118.088 105.647 118.088 102.135V92.1542H131.912V102.135C131.912 105.647 134.492 108.559 137.854 109.098V174.561C134.492 175.099 131.912 178.012 131.912 181.524V190.518H118.088ZM69.9132 190.518V181.523C69.9132 178.012 67.3336 175.099 63.9713 174.56V109.098C67.3336 108.559 69.9132 105.647 69.9132 102.135V92.1542H83.7374V102.135C83.7374 105.647 86.317 108.559 89.6793 109.098V174.561C86.317 175.099 83.7374 178.012 83.7374 181.524V190.518H69.9132ZM107.263 174.463H94.5621V109.195H107.263V174.463ZM88.6202 181.523C88.6202 180.323 89.5968 179.346 90.7975 179.346H111.028C112.229 179.346 113.205 180.323 113.205 181.523V190.518H88.6198L88.6202 181.523ZM155.439 174.463H142.737V109.195H155.439V174.463ZM136.795 181.523C136.795 180.323 137.772 179.346 138.972 179.346H159.203C160.404 179.346 161.38 180.323 161.38 181.523V190.518H136.795V181.523ZM203.613 174.463H190.913V157.61C194.689 159.181 198.826 160.052 203.164 160.052C203.314 160.052 203.463 160.043 203.613 160.041V174.463ZM230.277 128.057C230.277 143.007 218.114 155.17 203.164 155.17C188.213 155.17 176.05 143.007 176.05 128.057C176.05 113.106 188.213 100.943 203.164 100.943C218.114 100.943 230.277 113.106 230.277 128.057ZM209.556 92.1542V96.7026C207.49 96.2821 205.352 96.06 203.164 96.06C196.409 96.06 190.14 98.1694 184.971 101.757V92.1542H209.556ZM161.38 92.1542V102.135C161.38 103.335 160.404 104.312 159.203 104.312H138.972C137.772 104.312 136.795 103.336 136.795 102.135V92.1542H161.38ZM113.205 92.1542V102.135C113.205 103.335 112.229 104.312 111.028 104.312H90.7975C89.5973 104.312 88.6202 103.336 88.6202 102.135V92.1542H113.205ZM40.445 102.135V92.1542H65.0304V102.135C65.0304 103.335 64.0539 104.312 62.8532 104.312H42.6222C41.422 104.312 40.445 103.336 40.445 102.135ZM40.445 181.523C40.445 180.323 41.4216 179.346 42.6222 179.346H62.8527C64.0534 179.346 65.0299 180.323 65.0299 181.523V190.518H40.445V181.523ZM32.32 196.378C32.32 195.839 32.758 195.401 33.2966 195.401H216.703C217.242 195.401 217.68 195.839 217.68 196.378V202.563H32.32V196.378ZM223.225 214.251C223.225 214.79 222.787 215.228 222.248 215.228H27.7521C27.2136 215.228 26.7756 214.79 26.7756 214.251V208.422C26.7756 207.884 27.2136 207.446 27.7521 207.446H222.248C222.787 207.446 223.225 207.884 223.225 208.422V214.251Z" fill="#1F4FDE"/>
<path d="M59.4337 59.8423C71.769 59.8423 81.7687 49.8426 81.7687 37.5073C81.7687 25.1721 71.769 15.1724 59.4337 15.1724C47.0985 15.1724 37.0988 25.1721 37.0988 37.5073C37.0988 49.8426 47.0985 59.8423 59.4337 59.8423Z" fill="white"/>
<path d="M69.6803 51.1782C70.8805 50.5639 71.3551 49.0928 70.7409 47.8926C70.1261 46.6924 68.6549 46.2178 67.4552 46.832C65.963 47.5962 64.3634 47.9834 62.7023 47.9834C59.4372 47.9834 56.5182 46.4809 54.5954 44.1323H61.3156C62.6637 44.1323 63.757 43.039 63.757 41.6909C63.757 40.3428 62.6637 39.2495 61.3156 39.2495H52.3835C52.2878 38.6816 52.2262 38.102 52.2262 37.5073C52.2262 36.9126 52.2878 36.333 52.3835 35.7651H61.3156C62.6637 35.7651 63.757 34.6719 63.757 33.3237C63.757 31.9756 62.6637 30.8823 61.3156 30.8823H54.5954C56.5182 28.5337 59.4377 27.0312 62.7023 27.0312C64.3634 27.0312 65.9625 27.4185 67.4552 28.1831C68.6559 28.7974 70.1266 28.3227 70.7409 27.1226C71.3551 25.9224 70.8805 24.4512 69.6803 23.8369C67.4923 22.7168 65.1442 22.1484 62.7018 22.1484C56.6042 22.1484 51.3254 25.7207 48.8473 30.8823H46.3932C45.0451 30.8823 43.9518 31.9756 43.9518 33.3237C43.9518 34.6719 45.0451 35.7651 46.3932 35.7651H47.4445C47.3796 36.3374 47.3429 36.918 47.3429 37.5073C47.3429 38.0967 47.3796 38.6772 47.4445 39.2495H46.3932C45.0451 39.2495 43.9518 40.3428 43.9518 41.6909C43.9518 43.039 45.0451 44.1323 46.3932 44.1323H48.8473C51.3254 49.2939 56.6042 52.8662 62.7018 52.8662C65.1442 52.8662 67.4923 52.2983 69.6803 51.1782" fill="#9BACF2"/>
<path d="M20.8185 183.754C20.1936 183.754 19.569 183.516 19.092 183.04C18.1384 182.086 18.1384 180.54 19.092 179.587L23.9748 174.704C24.9284 173.751 26.4738 173.751 27.4274 174.704C28.381 175.658 28.381 177.204 27.4274 178.157L22.5446 183.04C22.0681 183.516 21.4435 183.754 20.8185 183.754V183.754Z" fill="#9BACF2"/>
<path d="M230.277 197.232C229.652 197.232 229.027 196.994 228.551 196.518C227.597 195.564 227.597 194.018 228.551 193.065L233.434 188.182C234.386 187.229 235.933 187.229 236.886 188.182C237.839 189.136 237.839 190.682 236.886 191.635L232.003 196.518C231.527 196.994 230.902 197.232 230.277 197.232V197.232Z" fill="#9BACF2"/>
<path d="M192.866 26.7871C192.242 26.7871 191.616 26.5488 191.14 26.0723L188.472 23.4043L185.803 26.0723C184.851 27.0254 183.304 27.0254 182.351 26.0723C181.397 25.1186 181.397 23.5727 182.351 22.6196L186.746 18.2251C187.698 17.272 189.245 17.272 190.198 18.2251L194.592 22.6196C195.546 23.5732 195.546 25.1191 194.592 26.0723C194.116 26.5488 193.491 26.7871 192.866 26.7871Z" fill="#9BACF2"/>
<path d="M213.225 45.5967C212.601 45.5967 211.975 45.3584 211.499 44.8818L208.831 42.2139L206.162 44.8818C205.21 45.835 203.663 45.835 202.71 44.8818C201.756 43.9282 201.756 42.3823 202.71 41.4292L207.105 37.0347C208.057 36.0815 209.604 36.0815 210.557 37.0347L214.951 41.4292C215.905 42.3828 215.905 43.9287 214.951 44.8818C214.475 45.3584 213.85 45.5967 213.225 45.5967Z" fill="#9BACF2"/>
<path d="M25.2131 65.1089C24.5881 65.1089 23.9636 64.8706 23.4865 64.394L20.8185 61.7261L18.1506 64.394C17.197 65.3472 15.6516 65.3472 14.6979 64.394C13.7443 63.4404 13.7443 61.8945 14.6979 60.9414L19.0925 56.5469C20.0461 55.5938 21.5915 55.5938 22.5451 56.5469L26.9396 60.9414C27.8932 61.895 27.8932 63.4409 26.9396 64.394C26.4626 64.8706 25.8381 65.1089 25.2131 65.1089Z" fill="#9BACF2"/>
</g>
<defs>
<linearGradient id="paint0_linear_424_2701" x1="20.8625" y1="203.976" x2="204.938" y2="19.9009" gradientUnits="userSpaceOnUse">
<stop stop-color="#CEDBFC" stop-opacity="0"/>
<stop offset="1" stop-color="#B4C2FC"/>
</linearGradient>
<clipPath id="clip0_424_2701">
<rect width="250" height="229.492" fill="white"/>
</clipPath>
</defs>
</svg>
