<svg width="28" height="28" viewBox="0 0 28 28" fill="none" xmlns="http://www.w3.org/2000/svg">
<path d="M3.5 9.9C3.5 7.65979 3.5 6.53969 3.93597 5.68404C4.31947 4.93139 4.93139 4.31947 5.68404 3.93597C6.53969 3.5 7.65979 3.5 9.9 3.5H18.1C20.3402 3.5 21.4603 3.5 22.316 3.93597C23.0686 4.31947 23.6805 4.93139 24.064 5.68404C24.5 6.53969 24.5 7.65979 24.5 9.9V18.1C24.5 20.3402 24.5 21.4603 24.064 22.316C23.6805 23.0686 23.0686 23.6805 22.316 24.064C21.4603 24.5 20.3402 24.5 18.1 24.5H9.9C7.65979 24.5 6.53969 24.5 5.68404 24.064C4.93139 23.6805 4.31947 23.0686 3.93597 22.316C3.5 21.4603 3.5 20.3402 3.5 18.1V9.9Z" fill="#AAAAAA"/>
<path d="M14 9.33301L14 18.6663" stroke="#F9F9F9" stroke-linejoin="round"/>
<path d="M18.6667 14L9.33335 14" stroke="#F9F9F9" stroke-linejoin="round"/>
</svg>
