<svg width="24" height="24" viewBox="0 0 24 24" fill="none" xmlns="http://www.w3.org/2000/svg">
<path d="M13.9506 16.8028C13.9037 16.7563 13.8403 16.7302 13.7743 16.7302C13.7082 16.7302 13.6449 16.7563 13.5979 16.8028L9.97141 20.4293C8.29234 22.1084 5.45853 22.2863 3.6047 20.4293C1.74774 18.5723 1.92563 15.7417 3.6047 14.0626L7.23122 10.4361C7.32797 10.3393 7.32797 10.1801 7.23122 10.0834L5.98909 8.84126C5.94216 8.7948 5.8788 8.76873 5.81276 8.76873C5.74672 8.76873 5.68335 8.7948 5.63643 8.84126L2.0099 12.4678C-0.630415 15.1081 -0.630415 19.3807 2.0099 22.0179C4.65021 24.655 8.92277 24.6582 11.56 22.0179L15.1865 18.3913C15.2832 18.2946 15.2832 18.1354 15.1865 18.0387L13.9506 16.8028ZM22.0213 2.00953C19.381 -0.630781 15.1085 -0.630781 12.4713 2.00953L8.84163 5.63606C8.79516 5.68298 8.7691 5.74635 8.7691 5.81239C8.7691 5.87843 8.79516 5.9418 8.84163 5.98872L10.0806 7.22774C10.1774 7.32449 10.3366 7.32449 10.4333 7.22774L14.0598 3.60121C15.7389 1.92214 18.5727 1.74425 20.4265 3.60121C22.2835 5.45817 22.1056 8.28886 20.4265 9.96792L16.8 13.5944C16.7535 13.6414 16.7275 13.7047 16.7275 13.7708C16.7275 13.8368 16.7535 13.9002 16.8 13.9471L18.0421 15.1892C18.1389 15.286 18.2981 15.286 18.3948 15.1892L22.0213 11.5627C24.6585 8.92241 24.6585 4.64984 22.0213 2.00953ZM15.0773 7.6553C15.0303 7.60884 14.967 7.58277 14.9009 7.58277C14.8349 7.58277 14.7715 7.60884 14.7246 7.6553L7.65567 14.7211C7.60921 14.768 7.58314 14.8314 7.58314 14.8974C7.58314 14.9635 7.60921 15.0268 7.65567 15.0738L8.89156 16.3097C8.98831 16.4064 9.14748 16.4064 9.24423 16.3097L16.31 9.24386C16.4068 9.14711 16.4068 8.98794 16.31 8.8912L15.0773 7.6553Z" fill="#AAAAAA"/>
</svg>
