<svg xmlns="http://www.w3.org/2000/svg" width="20.3" height="13.939" viewBox="0 0 20.3 13.939">
  <g id="Group_6945" data-name="Group 6945" transform="translate(-6612 12994)">
    <rect id="Rectangle_1842" data-name="Rectangle 1842" width="20.3" height="13.939" rx="3" transform="translate(6612 -12994)" fill="#2d6a3a"/>
    <path id="Symbol" d="M76.949,125.42a.13.13,0,0,0-.06.023.443.443,0,0,0-.187.314c0,.082-.019.082.035.134.039.056.078.051.156.01a.165.165,0,0,0,.075-.11c.019-.093-.1.044-.113-.06s.049-.136.12-.23c0-.044,0-.08-.026-.081Zm1.143.006c-.022,0-.049.031-.086.1a.418.418,0,0,0-.059.4.6.6,0,0,1-.055.79.2.2,0,0,1-.253.035.271.271,0,0,1-.151-.212,2.919,2.919,0,0,0-.023-.686.125.125,0,0,0-.208-.042,1.567,1.567,0,0,0-.376.773c-.058.188-.12.133-.164.058-.106-.1-.114-.875-.241-.748-.2.586.117,1.227.341,1.164.161.067.263-.24.329-.576.045-.095.08-.106.1-.057-.006.447.032.546.147.682a.371.371,0,0,0,.484.008l.2-.2a.12.12,0,0,1,.166-.008c.061.055.053.151.184.217a.4.4,0,0,0,.4-.084c.073-.126.091-.169.125-.216.052-.071.141-.039.141-.017-.008.039-.061.077-.025.147.062.047.077.017.113.006.13-.062.228-.344.228-.344.006-.106-.054-.1-.092-.075s-.053.041-.1.071c-.063.01-.187.051-.247-.043a3.761,3.761,0,0,1-.11-.386c0-.008-.083-.18-.006-.191.039.007.122.029.135-.041.041-.068-.088-.261-.176-.358a.189.189,0,0,0-.282-.008c-.071.065-.06.139-.074.208a.326.326,0,0,0,.066.282.864.864,0,0,1,.157.572.231.231,0,0,1-.206.106c-.055-.012-.145-.035-.192-.388-.035-.266.009-.638-.1-.811-.025-.066-.047-.13-.084-.125Zm-.362.028c-.035,0-.071.043-.1.12a1.945,1.945,0,0,0-.054.364c-.021.091.1.129.148.013a1.119,1.119,0,0,0,.085-.4C77.794,125.484,77.764,125.452,77.73,125.455Zm1.336.024c-.035,0-.063.024-.073.076a.793.793,0,0,0,.013.289,1.042,1.042,0,0,0,.163.247c.231.311.454.624.67.947.035.24.059.475.075.709a14.357,14.357,0,0,1,.013,1.693c.1,0,.25-.155.3-.388a11.262,11.262,0,0,0-.016-1.17c0-.079-.007-.173-.013-.272.25.409.494.842.731,1.317.087-.041.068-.529.017-.6-.191-.411-.454-.815-.538-.971-.03-.056-.134-.212-.256-.394-.022-.258-.047-.477-.063-.543-.039-.273.112.031.091-.128a1.748,1.748,0,0,0-.378-.708c-.057-.081-.056-.1-.145.02a.521.521,0,0,0-.035.314,1.459,1.459,0,0,0-.093-.124c-.153-.132-.163-.139-.291-.247a.315.315,0,0,0-.176-.067Zm3.96.041c-.017,0-.035.006-.056.035a.238.238,0,0,0-.082.181c.01.144.035.291.045.435,0,.019.007.038.01.058a.48.48,0,0,0-.035-.043c-.28-.295.129-.048-.053-.276a2.192,2.192,0,0,0-.332-.325c-.066-.043-.106-.125-.128.014a2.8,2.8,0,0,0-.01.367.5.5,0,0,0,.11.229c.187.23.378.474.57.73.041.521.051,1,.092,1.52-.006.223-.074.52-.141.547,0,0-.1.057-.165-.006a1.988,1.988,0,0,1-.241-.322.147.147,0,0,0-.235,0,3.222,3.222,0,0,0-.413.78c-.035.054-.129.1-.236,0a1.1,1.1,0,0,1-.146-.759.839.839,0,0,0-.08.817.64.64,0,0,0,.3.339.209.209,0,0,0,.31-.033c.141-.147.144-.522.212-.6a.124.124,0,0,1,.22-.053.542.542,0,0,0,.2.174.338.338,0,0,0,.444.031.511.511,0,0,0,.237-.29,9.987,9.987,0,0,0,.019-1.632c.1.141.2.284.3.429a10.684,10.684,0,0,1,.048,1.336c-.01.086.3-.256.3-.418V128.4c.15.24.295.483.432.729.085-.045.056-.526,0-.593-.144-.241-.328-.5-.47-.7-.028-.254-.067-.554-.084-.646-.027-.143-.054-.358-.1-.529a1.908,1.908,0,0,1-.035-.3c.017-.047.08,0,.111-.053a1.9,1.9,0,0,0-.267-.745c-.038-.071-.106-.045-.192.067-.079.074-.05.242-.02.4.078.409.148.825.2,1.24-.1-.152-.227-.336-.35-.514,0-.017-.016-.08-.016-.081s-.017-.334-.031-.412c0-.032-.01-.041.023-.035a.19.19,0,0,0,.062.041c.035.006.067-.054.045-.109l-.329-.608a.091.091,0,0,0-.045-.03Zm-10.221.011c-.061,0-.128.035-.1.109-.016.04.119.176.141.249.021.053-.021.223.023.238s.1-.117.117-.242c.012-.068,0-.3-.157-.35l-.025,0Zm11.644,0c-.014,0-.031.024-.056.079a.727.727,0,0,0-.059.446,24.488,24.488,0,0,1,.284,2.892.933.933,0,0,1-.057.238,1.9,1.9,0,0,1-.278.324c-.092.068-.287.134-.353.184-.2.117-.2.252-.04.257a1.008,1.008,0,0,0,.847-.4,1.345,1.345,0,0,0,.137-.523,12.209,12.209,0,0,0-.154-2.56,1.263,1.263,0,0,1-.027-.24c.018-.047.111,0,.144-.049.048-.049-.239-.418-.34-.575-.02-.04-.032-.071-.05-.071Zm-2.963.016c-.012,0-.029.02-.061.062a1.4,1.4,0,0,0-.077.629,13.7,13.7,0,0,1,.378,3.03c.1,0,.207-.22.255-.438a3.713,3.713,0,0,0-.025-.661c-.008-.177-.2-1.612-.239-1.746-.047-.253.187-.033.162-.18-.081-.186-.282-.456-.346-.617-.024-.043-.026-.083-.046-.08Zm-7.217.02a.076.076,0,0,0-.058.059c-.005.022.01.059-.01.071s-.055,0-.054-.058a.106.106,0,0,0-.023-.052.045.045,0,0,0-.031-.007c-.019,0-.019.006-.029.022a.185.185,0,0,0-.011.051c0,.022-.011.029-.028.032s-.014,0-.028-.007-.019-.013-.019-.029a.177.177,0,0,0-.009-.055.06.06,0,0,0-.035-.019c-.075,0-.081.087-.077.12-.006.006-.008.16.095.2.138.066.4.038.386-.185,0-.02,0-.086-.006-.1a.06.06,0,0,0-.065-.041Zm1.852,0A.31.31,0,0,0,76,125.6a.24.24,0,0,0-.041.317c.071.033.141.1.093.141-.2.212-.714.564-.741.63a0,0,0,0,0,0,0v.005h0a1.42,1.42,0,0,0,.385,0,5.4,5.4,0,0,0,.638-.643c-.027-.024-.053-.041-.08-.064a.045.045,0,0,1,0-.075.207.207,0,0,0,.021-.317.338.338,0,0,0-.157-.031Zm4.842,0c-.014,0-.031.023-.057.078a.87.87,0,0,0-.1.446c.135.933.176,1.751.264,2.684a.369.369,0,0,1-.066.274,2.633,2.633,0,0,1-.891.649c-.037.042.093.222.262.222a1,1,0,0,0,.762-.609,1.089,1.089,0,0,0,.173-.468,10.212,10.212,0,0,0-.19-2.371.391.391,0,0,1,.008-.166c.018-.022.08,0,.113-.053.048-.049-.129-.459-.23-.616-.02-.04-.033-.071-.05-.071Zm-7.5.029a.125.125,0,0,0-.093.079,2.717,2.717,0,0,0,.01.437,4.792,4.792,0,0,1,.123.7c.009.332-.192.144-.182-.021a1.471,1.471,0,0,0-.007-.635c-.033-.085-.071-.106-.15-.092-.063,0-.226.174-.272.468a2.8,2.8,0,0,0-.054.285c-.022.152-.123.26-.193-.021-.061-.2-.1-.705-.2-.589-.029.392-.064,1.082.269,1.153.4.038.18-.681.326-.811.028-.065.079-.066.083.016v.612a.294.294,0,0,0,.229.3c.106-.008.176-.005.217.1q.025.529.05,1.058s.244.071.256-.6a6.219,6.219,0,0,1-.025-.794c0-.074.1-.078.164-.042.106.074.152.166.317.129.249-.068.4-.189.4-.381a1.649,1.649,0,0,0-.114-.545c.011-.033-.048-.119-.035-.152.045.071.113.065.128,0a.539.539,0,0,0-.215-.331c-.088-.078-.217-.061-.264.1a.882.882,0,0,0,.2.588.56.56,0,0,1,.051.294.157.157,0,0,1-.2-.04s-.2-.148-.2-.181a.711.711,0,0,0-.018-.469.631.631,0,0,0-.131-.258.09.09,0,0,0-.149,0,.888.888,0,0,0,.017.624c.045.134.116.218.083.218-.028.076-.084.058-.125-.03a2.174,2.174,0,0,1-.071-.572c-.017-.151-.035-.473-.136-.555a.094.094,0,0,0-.088-.045Zm1.415,0c-.02,0-.042.014-.068.02a.2.2,0,0,0-.141.247c.1.615.167,1.085.268,1.7.016.071-.045.167-.123.157-.132-.09-.165-.271-.391-.263a.44.44,0,0,0-.374.353.877.877,0,0,0,0,.4.328.328,0,0,0,.374.092c.1-.041.181-.139.216-.115s0,.358-.468.6c-.286.129-.514.159-.635-.074-.076-.146.006-.7-.181-.574-.553,1.425,1.3,1.622,1.5.059.013-.044.054-.089.083-.078.013.005.024.023.028.055-.043,1.416-1.429,1.514-1.666,1.068a1.385,1.385,0,0,1-.082-.479.239.239,0,0,0-.056-.153c-.056-.042-.132.068-.148.259a1.728,1.728,0,0,0-.017.344c.074,1.12,1.859.638,2.149-.286a3.088,3.088,0,0,0,.045-.882H75.2c.176.191.426.024.48-.042a.08.08,0,0,1,.123-.011.286.286,0,0,0,.431-.123,3.9,3.9,0,0,0,.06-.531.534.534,0,0,0-.192.08.051.051,0,0,0-.014.025l-.023.152a.054.054,0,0,1,0,.011.049.049,0,0,1-.017.016c-.032.017-.087.007-.09-.039-.043-.195-.219-.22-.326.082-.071.058-.2.071-.217-.018.018-.2-.064-.23-.228-.134-.053-.4-.106-.784-.157-1.185.068,0,.131.047.193-.031a2.309,2.309,0,0,0-.291-.677h0l-.012-.011,0,0-.005,0-.011,0a.052.052,0,0,0-.022,0Zm5.516,0c-.071,0-.149.042-.119.131-.018.048.152.212.179.3.049.138-.037.269.014.289s.113-.141.137-.294a.452.452,0,0,0-.182-.423.135.135,0,0,0-.029,0Zm-4.3.154a.1.1,0,0,1,.09.068c.02.045.01.087-.023.1s-.076-.022-.1-.066-.01-.088.023-.1Zm7.971.207a.106.106,0,0,0-.106.141c-.016.053.138.23.163.327.023.071-.035.292.013.313s.1-.154.126-.317c.012-.09-.054-.4-.167-.459a.118.118,0,0,0-.027,0Zm-4.409.109c.006.026.012.053.016.08.013.058.025.116.035.173-.051-.071-.093-.127-.111-.147-.115-.137,0-.09.059-.106Zm1.015.5a.078.078,0,0,0-.058.06c-.005.022.011.058-.009.071s-.056,0-.055-.056a.108.108,0,0,0-.023-.054.047.047,0,0,0-.031-.007c-.019,0-.019.006-.029.022a.183.183,0,0,0-.011.051c0,.022-.01.029-.026.032s-.015,0-.029-.007-.019-.013-.019-.03a.164.164,0,0,0-.01-.054.056.056,0,0,0-.035-.018c-.075,0-.08.086-.075.119-.006.006-.01.161.093.2.138.066.4.037.388-.186,0-.02-.005-.086-.007-.1a.059.059,0,0,0-.065-.041Zm-4.634.044a.112.112,0,0,0-.065.02.284.284,0,0,0-.093.376.184.184,0,0,0,.2.064c.12.015.191-.225.191-.225s0-.067-.138.06c-.06.011-.068-.011-.083-.044a.3.3,0,0,1,.019-.188C76.08,126.644,76.067,126.62,76.039,126.617Zm6.553.03a.155.155,0,0,0-.158.133c0,.055.025.085.02.134-.007.028-.035.047-.106.013.011-.01-.045-.089-.045-.089-.054-.033-.127,0-.174.032a.266.266,0,0,0-.016.212c.078.144.346.39.473.392,0-.13.015-.3.022-.41,0-.041.012-.085.051-.1s.106.039.106,0a.553.553,0,0,0-.071-.262.133.133,0,0,0-.1-.057Zm-5.424.451-.005,0,0,0a.656.656,0,0,1-.065.059c-.06.068-.071.116-.067.253,0,.014.114.322.207.538a1.667,1.667,0,0,1,.079.724,1.783,1.783,0,0,1-.732.766.388.388,0,0,1-.307,0,.19.19,0,0,1-.081-.174,1.724,1.724,0,0,0,.735-.76.777.777,0,0,0,.02-.547.52.52,0,0,0-.123-.254c.041-.02.148.059.164.01a.781.781,0,0,0-.212-.388.178.178,0,0,0-.259-.016c-.089.049-.108.227-.065.383.048.117.176.138.267.374,0,.015.031.176-.015.241a2.94,2.94,0,0,1-.552.518l0,0h0v-.074c0-.071.026-.232.024-.259h0c-.159.1-.212.417-.24.51a7.591,7.591,0,0,0-1.121.766c-.137.214.944-.247,1.069-.3l0,0c.024.026.026.118.1.2a.569.569,0,0,0,.583.188,1.862,1.862,0,0,0,.842-.7c.033-.048.084-.085.131-.048a1.32,1.32,0,0,0,1.195.627c.135-.165.071-.247.016-.28-.017-.011-.291-.118-.333-.224-.027-.1.038-.187.169-.253a5.814,5.814,0,0,0,1.1-.212.969.969,0,0,1,.122-.377.174.174,0,0,1,.062-.067v0a.03.03,0,0,0,0-.011l-.061-.035-1.2-.005a.117.117,0,0,1-.032-.017l0,0h0v-.011a.093.093,0,0,1,.038-.022c.286-.039.795-.122.829-.612a.4.4,0,1,0-.79.017c-.011.066.022.2-.045.21-.441.04-.922.317-.938.514h-.018a.115.115,0,0,1-.06-.122,2.365,2.365,0,0,0-.3-1.026c-.062-.062-.089-.087-.106-.09h-.008Zm1.147.181a.075.075,0,0,0-.057.059c-.006.022.011.059-.01.071s-.056,0-.055-.056a.108.108,0,0,0-.023-.054.043.043,0,0,0-.029-.007c-.019,0-.02.006-.031.022a.2.2,0,0,0-.01.051c0,.022-.01.03-.026.033s-.014,0-.028-.007-.02-.013-.02-.029a.176.176,0,0,0-.008-.055.06.06,0,0,0-.035-.018c-.075,0-.08.086-.076.119-.006.006-.01.161.093.2.138.066.467.027.388-.186,0-.02-.005-.086-.007-.1a.059.059,0,0,0-.065-.041Zm4.631.19a.022.022,0,0,0-.012,0s-.639.455-.655.471c-.063.056-.032.255,0,.232a2.544,2.544,0,0,0,.678-.47c.028,0,.042-.225-.011-.234Zm-4.026.067a.164.164,0,0,1,.093.025c.048.028.077.071.073.1a.009.009,0,0,0,0,0l0,0v.007l-.006.007a.116.116,0,0,1-.126-.01.123.123,0,0,1-.073-.1v0a.035.035,0,0,1,0-.01l0,0,.005-.005a.06.06,0,0,1,.03-.012Zm-5.6.117a1.066,1.066,0,0,0-.83.672c.35-.168.693-.329,1.049-.5C73.479,127.736,73.533,127.659,73.317,127.653Zm1.074.149a.09.09,0,0,1,.085.062.106.106,0,0,1-.019.106h0a.011.011,0,0,1,0,0c-.014.018-.063.011-.1.011a.1.1,0,0,1-.088-.043c-.012-.038.025-.075.041-.1l.007-.008a.113.113,0,0,1,.058-.025Zm8.43.132a.111.111,0,0,0-.089.152c-.016.052.08.235.106.332.022.071-.029.265.018.285s.156-.116.152-.291c.013-.09-.032-.42-.145-.476a.114.114,0,0,0-.041,0Zm-7.16.323c-.052,0-.1.032-.078.106,0,.053.147.118.156.241.022.051-.032.213.013.229s.1-.113.12-.233c.012-.066-.051-.3-.159-.338a.193.193,0,0,0-.051,0Zm2.143.293h.014a3.892,3.892,0,0,0,.5.058c.139.009.208.118.078.163s-.252.079-.253.265a.267.267,0,0,1,0,.163l0,.005h0l-.006,0h-.006c-.03,0-.075-.025-.108-.042a.679.679,0,0,1-.334-.491.125.125,0,0,1,.126-.13Zm-5.233.227c-.008,0-.025.025-.047.054a1.04,1.04,0,0,0-.106.923.23.23,0,0,0,.224.074.411.411,0,0,0,.149-.4c-.041-.065-.074-.075-.115-.02-.087.176-.123.056-.131-.043a2.263,2.263,0,0,1,.025-.5c.011-.071.01-.095,0-.095Zm6.717.413a.09.09,0,0,0-.046.01.829.829,0,0,0-.186.158c-.027.02-.024.038-.016.074s.059.033.1.01c.056-.007.083.029.079.1a.123.123,0,0,0,.012.121.093.093,0,0,0,.117.015,2.178,2.178,0,0,1,.4-.141c.049,0,.047-.133-.031-.137a.46.46,0,0,0-.3.09c-.063.014-.073-.024-.087-.057-.016-.085.035-.144.025-.208a.144.144,0,0,0-.075-.03Zm4.3.16c-.025,0-.051,0-.089.007s-.055.026-.063.077c0,.075.049.071.1.1a.082.082,0,0,1,0,.124c-.045.041-.077.064-.122.106-.021.035-.035.092.03.109.12.034.4-.146.4-.15a.088.088,0,0,0,.026-.1c-.026-.03-.085-.012-.125-.017-.019,0-.081-.009-.051-.064a.38.38,0,0,0,.05-.1c.019-.041,0-.069-.065-.091a.388.388,0,0,0-.083-.007Zm-1.8,1.639a.189.189,0,0,0-.065.348c-2.1,0-5.326-.035-6.016-.035-.388,0-1.611-.046-1.634-.046a1.24,1.24,0,0,0,1.14.47c.933,0,5.255-.011,6.487-.011a.43.43,0,0,0,.077.451l.005,0,.008,0h0c.081.019.117-.04.145-.083a8.661,8.661,0,0,0,.944,0c.046.068.092.132.18.121.153-.033.274-.049.278-.361,0,0-.016-.529-.364-.5-.083.012-.314.035-.314.035-.268-.032-.464-.035-.765-.046.028-.035.077-.178.017-.23a.1.1,0,0,0-.071-.018h-.006l0-.005,0,0c-.016-.022-.024-.076-.035-.09h0Zm.141.758c.307.015.594,0,.9.018a.111.111,0,0,1-.007.153l-.005,0h-.008l-.257-.007a.094.094,0,0,0,0-.015c-.024-.071-.195-.065-.235-.011l0,0,0,0,0,.005a.026.026,0,0,0,0,.007.031.031,0,0,0,0,.008,2.409,2.409,0,0,1-.39-.009c-.039-.049-.035-.138.012-.159Z" transform="translate(6543.649 -13115.42)" fill="#fff"/>
  </g>
</svg>
