<svg width="28" height="24" viewBox="0 0 28 24" fill="none" xmlns="http://www.w3.org/2000/svg">
    <path d="M8.37656 4L10.0332 5.44L7.0699 8H18.3982C20.2547 8 22.0352 8.63214 23.348 9.75736C24.6607 10.8826 25.3982 12.4087 25.3982 14C25.3982 15.5913 24.6607 17.1174 23.348 18.2426C22.0352 19.3679 20.2547 20 18.3982 20H16.0649V18H18.3982C19.6359 18 20.8229 17.5786 21.6981 16.8284C22.5732 16.0783 23.0649 15.0609 23.0649 14C23.0649 12.9391 22.5732 11.9217 21.6981 11.1716C20.8229 10.4214 19.6359 10 18.3982 10H7.0699L10.0332 12.51L8.37656 13.92L2.60156 9L8.37656 4Z" fill="#AAAAAA"/>
</svg>