<svg width="48" height="51" viewBox="0 0 48 51" fill="none" xmlns="http://www.w3.org/2000/svg">
    <path d="M24.0005 15.1079C24.7901 15.1079 25.5472 14.7943 26.1055 14.236C26.6638 13.6777 26.9774 12.9206 26.9774 12.1311C26.9774 11.3416 26.6638 10.5844 26.1055 10.0261C25.5472 9.46785 24.7901 9.15422 24.0005 9.15422C23.211 9.15422 22.4539 9.46785 21.8956 10.0261C21.3373 10.5844 21.0237 11.3416 21.0237 12.1311C21.0237 12.9206 21.3373 13.6777 21.8956 14.236C22.4539 14.7943 23.211 15.1079 24.0005 15.1079ZM26.9218 1.03735C26.0961 0.36631 25.0645 0 24.0005 0C22.9365 0 21.905 0.36631 21.0793 1.03735L1.22568 17.1719C-1.18755 19.1405 0.201648 23.0462 3.31344 23.0462H4.1549V39.7165C1.79724 40.9191 0.185771 43.3681 0.185771 46.1981V48.8455C0.185771 49.3718 0.394858 49.8766 0.767036 50.2488C1.13921 50.621 1.644 50.8301 2.17033 50.8301H45.8307C46.3571 50.8301 46.8619 50.621 47.2341 50.2488C47.6062 49.8766 47.8153 49.3718 47.8153 48.8455V46.1981C47.8153 43.3721 46.2038 40.9191 43.8462 39.7165V23.0462H44.6876C47.7994 23.0462 49.1886 19.1366 46.7714 17.1719L26.9258 1.03338L26.9218 1.03735ZM23.5878 4.11739C23.7057 4.02202 23.8528 3.96999 24.0045 3.96999C24.1562 3.96999 24.3033 4.02202 24.4213 4.11739L42.8182 19.077H5.17893L23.5878 4.11739ZM39.8771 38.9227H35.9079V23.0462H39.8771V38.9227ZM31.9388 38.9227H25.9851V23.0462H31.9388V38.9227ZM22.016 38.9227H16.0623V23.0462H22.016V38.9227ZM40.5399 42.8918C42.3657 42.8918 43.8462 44.3723 43.8462 46.1981V46.8609H4.1549V46.1981C4.1549 44.3723 5.63538 42.8918 7.46118 42.8918H40.5399ZM12.0932 38.9227H8.12403V23.0462H12.0932V38.9227Z" fill="#986BE5"/>
</svg>