<svg width="36" height="38" viewBox="0 0 36 38" fill="none" xmlns="http://www.w3.org/2000/svg">
<g clip-path="url(#clip0_429_4170)">
<path d="M4.98243 37.3117H31.0177C33.747 37.3117 35.965 35.0937 35.965 32.3645V7.71106C35.965 4.98178 33.747 2.76378 31.0177 2.76378H29.0554V1.38189C29.0554 0.621828 28.4335 0 27.6734 0C26.9134 0 26.2915 0.621828 26.2915 1.38189V2.76378H9.70862V1.38189C9.70862 0.621828 9.08668 0 8.32662 0C7.56655 0 6.94473 0.621828 6.94473 1.38189V2.76378H4.98243C2.25315 2.76378 0.0351562 4.98178 0.0351562 7.71106V32.3645C0.0351562 35.0937 2.25315 37.3117 4.98243 37.3117ZM2.79905 7.71106C2.79905 6.50883 3.7802 5.52768 4.98243 5.52768H6.94473V6.90957C6.94473 7.66963 7.56655 8.29146 8.32662 8.29146C9.08668 8.29146 9.70851 7.66963 9.70851 6.90957V5.52768H26.2915V6.90957C26.2915 7.66963 26.9134 8.29146 27.6734 8.29146C28.4335 8.29146 29.0553 7.66963 29.0553 6.90957V5.52768H31.0176C32.2198 5.52768 33.201 6.50883 33.201 7.71106V32.3645C33.201 33.5667 32.2198 34.5478 31.0176 34.5478H4.98243C3.7802 34.5478 2.79905 33.5667 2.79905 32.3645V7.71106Z" fill="#1F4FDE"/>
<path d="M10.054 15.892C11.008 15.892 11.7814 15.1186 11.7814 14.1646C11.7814 13.2106 11.008 12.4373 10.054 12.4373C9.10003 12.4373 8.32666 13.2106 8.32666 14.1646C8.32666 15.1186 9.10003 15.892 10.054 15.892Z" fill="#1F4FDE"/>
<path d="M17.6546 15.892C18.6086 15.892 19.382 15.1186 19.382 14.1646C19.382 13.2106 18.6086 12.4373 17.6546 12.4373C16.7006 12.4373 15.9272 13.2106 15.9272 14.1646C15.9272 15.1186 16.7006 15.892 17.6546 15.892Z" fill="#1F4FDE"/>
<path d="M25.2552 15.892C26.2092 15.892 26.9826 15.1186 26.9826 14.1646C26.9826 13.2106 26.2092 12.4373 25.2552 12.4373C24.3012 12.4373 23.5278 13.2106 23.5278 14.1646C23.5278 15.1186 24.3012 15.892 25.2552 15.892Z" fill="#1F4FDE"/>
<path d="M10.054 22.8016C11.008 22.8016 11.7814 22.0283 11.7814 21.0743C11.7814 20.1203 11.008 19.3469 10.054 19.3469C9.10003 19.3469 8.32666 20.1203 8.32666 21.0743C8.32666 22.0283 9.10003 22.8016 10.054 22.8016Z" fill="#1F4FDE"/>
<path d="M17.6546 22.8016C18.6086 22.8016 19.382 22.0283 19.382 21.0743C19.382 20.1203 18.6086 19.3469 17.6546 19.3469C16.7006 19.3469 15.9272 20.1203 15.9272 21.0743C15.9272 22.0283 16.7006 22.8016 17.6546 22.8016Z" fill="#1F4FDE"/>
<path d="M25.2552 22.8016C26.2092 22.8016 26.9826 22.0283 26.9826 21.0743C26.9826 20.1203 26.2092 19.3469 25.2552 19.3469C24.3012 19.3469 23.5278 20.1203 23.5278 21.0743C23.5278 22.0283 24.3012 22.8016 25.2552 22.8016Z" fill="#1F4FDE"/>
<path d="M10.054 29.7111C11.008 29.7111 11.7814 28.9377 11.7814 27.9837C11.7814 27.0297 11.008 26.2563 10.054 26.2563C9.10003 26.2563 8.32666 27.0297 8.32666 27.9837C8.32666 28.9377 9.10003 29.7111 10.054 29.7111Z" fill="#1F4FDE"/>
<path d="M17.6546 29.7111C18.6086 29.7111 19.382 28.9377 19.382 27.9837C19.382 27.0297 18.6086 26.2563 17.6546 26.2563C16.7006 26.2563 15.9272 27.0297 15.9272 27.9837C15.9272 28.9377 16.7006 29.7111 17.6546 29.7111Z" fill="#1F4FDE"/>
<path d="M25.2552 29.7111C26.2092 29.7111 26.9826 28.9377 26.9826 27.9837C26.9826 27.0297 26.2092 26.2563 25.2552 26.2563C24.3012 26.2563 23.5278 27.0297 23.5278 27.9837C23.5278 28.9377 24.3012 29.7111 25.2552 29.7111Z" fill="#1F4FDE"/>
</g>
<defs>
<clipPath id="clip0_429_4170">
<rect width="36" height="37.3117" fill="white"/>
</clipPath>
</defs>
</svg>
