<svg width="24" height="25" viewBox="0 0 24 25" fill="none" xmlns="http://www.w3.org/2000/svg">
    <g clip-path="url(#clip0_578_9525)">
        <path d="M3.32162 24.8745H20.6785C22.498 24.8745 23.9767 23.3958 23.9767 21.5763V5.1407C23.9767 3.32118 22.498 1.84252 20.6785 1.84252H19.3703V0.921261C19.3703 0.414552 18.9557 0 18.449 0C17.9422 0 17.5277 0.414552 17.5277 0.921261V1.84252H6.47241V0.921261C6.47241 0.414552 6.05779 0 5.55108 0C5.04437 0 4.62982 0.414552 4.62982 0.921261V1.84252H3.32162C1.5021 1.84252 0.0234375 3.32118 0.0234375 5.1407V21.5763C0.0234375 23.3958 1.5021 24.8745 3.32162 24.8745V24.8745ZM1.86604 5.1407C1.86604 4.33922 2.52013 3.68512 3.32162 3.68512H4.62982V4.60638C4.62982 5.11309 5.04437 5.52764 5.55108 5.52764C6.05779 5.52764 6.47234 5.11309 6.47234 4.60638V3.68512H17.5277V4.60638C17.5277 5.11309 17.9422 5.52764 18.449 5.52764C18.9557 5.52764 19.3702 5.11309 19.3702 4.60638V3.68512H20.6784C21.4799 3.68512 22.134 4.33922 22.134 5.1407V21.5763C22.134 22.3778 21.4799 23.0319 20.6784 23.0319H3.32162C2.52013 23.0319 1.86604 22.3778 1.86604 21.5763V5.1407Z" fill="#1F4FDE"/>
        <path d="M6.70285 10.5947C7.33884 10.5947 7.85442 10.0791 7.85442 9.44308C7.85442 8.80708 7.33884 8.2915 6.70285 8.2915C6.06685 8.2915 5.55127 8.80708 5.55127 9.44308C5.55127 10.0791 6.06685 10.5947 6.70285 10.5947Z" fill="#1F4FDE"/>
        <path d="M11.7697 10.5947C12.4057 10.5947 12.9213 10.0791 12.9213 9.44308C12.9213 8.80708 12.4057 8.2915 11.7697 8.2915C11.1337 8.2915 10.6182 8.80708 10.6182 9.44308C10.6182 10.0791 11.1337 10.5947 11.7697 10.5947Z" fill="#1F4FDE"/>
        <path d="M16.8366 10.5947C17.4726 10.5947 17.9882 10.0791 17.9882 9.44308C17.9882 8.80708 17.4726 8.2915 16.8366 8.2915C16.2006 8.2915 15.6851 8.80708 15.6851 9.44308C15.6851 10.0791 16.2006 10.5947 16.8366 10.5947Z" fill="#1F4FDE"/>
        <path d="M6.70285 15.2011C7.33884 15.2011 7.85442 14.6855 7.85442 14.0495C7.85442 13.4135 7.33884 12.8979 6.70285 12.8979C6.06685 12.8979 5.55127 13.4135 5.55127 14.0495C5.55127 14.6855 6.06685 15.2011 6.70285 15.2011Z" fill="#1F4FDE"/>
        <path d="M11.7697 15.2011C12.4057 15.2011 12.9213 14.6855 12.9213 14.0495C12.9213 13.4135 12.4057 12.8979 11.7697 12.8979C11.1337 12.8979 10.6182 13.4135 10.6182 14.0495C10.6182 14.6855 11.1337 15.2011 11.7697 15.2011Z" fill="#1F4FDE"/>
        <path d="M16.8366 15.2011C17.4726 15.2011 17.9882 14.6855 17.9882 14.0495C17.9882 13.4135 17.4726 12.8979 16.8366 12.8979C16.2006 12.8979 15.6851 13.4135 15.6851 14.0495C15.6851 14.6855 16.2006 15.2011 16.8366 15.2011Z" fill="#1F4FDE"/>
        <path d="M6.70285 19.8073C7.33884 19.8073 7.85442 19.2917 7.85442 18.6557C7.85442 18.0197 7.33884 17.5042 6.70285 17.5042C6.06685 17.5042 5.55127 18.0197 5.55127 18.6557C5.55127 19.2917 6.06685 19.8073 6.70285 19.8073Z" fill="#1F4FDE"/>
        <path d="M11.7697 19.8073C12.4057 19.8073 12.9213 19.2917 12.9213 18.6557C12.9213 18.0197 12.4057 17.5042 11.7697 17.5042C11.1337 17.5042 10.6182 18.0197 10.6182 18.6557C10.6182 19.2917 11.1337 19.8073 11.7697 19.8073Z" fill="#1F4FDE"/>
        <path d="M16.8366 19.8073C17.4726 19.8073 17.9882 19.2917 17.9882 18.6557C17.9882 18.0197 17.4726 17.5042 16.8366 17.5042C16.2006 17.5042 15.6851 18.0197 15.6851 18.6557C15.6851 19.2917 16.2006 19.8073 16.8366 19.8073Z" fill="#1F4FDE"/>
    </g>
    <defs>
        <clipPath id="clip0_578_9525">
            <rect width="24" height="24.8745" fill="white"/>
        </clipPath>
    </defs>
</svg>