<svg width="24" height="25" viewBox="0 0 24 25" fill="none" xmlns="http://www.w3.org/2000/svg">
<g id="calendar">
<path id="Vector" d="M16 3.20001V7.20001M8 3.20001V7.20001M4 11.2H20M11 15.2H12V18.2M4 7.20001C4 6.66958 4.21071 6.16087 4.58579 5.7858C4.96086 5.41073 5.46957 5.20001 6 5.20001H18C18.5304 5.20001 19.0391 5.41073 19.4142 5.7858C19.7893 6.16087 20 6.66958 20 7.20001V19.2C20 19.7304 19.7893 20.2392 19.4142 20.6142C19.0391 20.9893 18.5304 21.2 18 21.2H6C5.46957 21.2 4.96086 20.9893 4.58579 20.6142C4.21071 20.2392 4 19.7304 4 19.2V7.20001Z" stroke="#676793" stroke-width="2" stroke-linecap="round" stroke-linejoin="round"/>
</g>
</svg>
