<svg width="24" height="17" viewBox="0 0 24 17" fill="none" xmlns="http://www.w3.org/2000/svg">
<g clip-path="url(#clip0_429_4142)">
<path fill-rule="evenodd" clip-rule="evenodd" d="M23.1887 0.811302C22.9322 0.553297 22.6271 0.348741 22.291 0.20948C21.9549 0.0702189 21.5946 -0.000978838 21.2308 1.01638e-05H2.76923C2.40544 -0.000978838 2.04506 0.0702189 1.70897 0.20948C1.37289 0.348741 1.06777 0.553297 0.811292 0.811302C0.293643 1.33169 0.00212004 2.03524 0 2.76924V4.61539C0 4.86021 0.0972524 5.095 0.270363 5.26811C0.443473 5.44122 0.678262 5.53847 0.923077 5.53847H19.3846C19.6294 5.53847 19.8642 5.44122 20.0373 5.26811C20.2104 5.095 20.3077 4.86021 20.3077 4.61539C20.3077 4.37058 20.2104 4.13579 20.0373 3.96268C19.8642 3.78957 19.6294 3.69232 19.3846 3.69232H1.84615V2.76924C1.84615 2.52443 1.94341 2.28964 2.11652 2.11653C2.28963 1.94342 2.52442 1.84616 2.76923 1.84616H21.2308C21.4756 1.84616 21.7104 1.94342 21.8835 2.11653C22.0566 2.28964 22.1538 2.52443 22.1538 2.76924V13.8462C22.1538 14.091 22.0566 14.3258 21.8835 14.4989C21.7104 14.672 21.4756 14.7692 21.2308 14.7692H2.76923C2.52442 14.7692 2.28963 14.672 2.11652 14.4989C1.94341 14.3258 1.84615 14.091 1.84615 13.8462V8.3077C1.84615 8.06289 1.7489 7.8281 1.57579 7.65499C1.40268 7.48188 1.16789 7.38463 0.923077 7.38463C0.678262 7.38463 0.443473 7.48188 0.270363 7.65499C0.0972524 7.8281 0 8.06289 0 8.3077V13.8462C0.000195758 14.5805 0.292016 15.2848 0.811305 15.8041C1.33059 16.3234 2.03485 16.6152 2.76923 16.6154H21.2308C21.9652 16.6152 22.6694 16.3234 23.1887 15.8041C23.708 15.2848 23.9998 14.5805 24 13.8462V2.76924C23.9979 2.03524 23.7064 1.33169 23.1887 0.811302Z" fill="#1F4FDE"/>
<path fill-rule="evenodd" clip-rule="evenodd" d="M17.0585 12.298C17.3079 12.5766 17.6359 12.7728 17.9992 12.8608C18.3625 12.9489 18.744 12.9245 19.0931 12.7911C19.4423 12.6576 19.7427 12.4213 19.9547 12.1134C20.1666 11.8054 20.2801 11.4404 20.2801 11.0666C20.2801 10.6928 20.1666 10.3278 19.9547 10.0199C19.7427 9.71194 19.4423 9.47562 19.0931 9.34215C18.744 9.20868 18.3625 9.18435 17.9992 9.27239C17.6359 9.36042 17.3079 9.55667 17.0585 9.83518C16.8092 9.55667 16.4812 9.36042 16.1179 9.27239C15.7546 9.18435 15.3731 9.20868 15.0239 9.34215C14.6747 9.47562 14.3743 9.71194 14.1623 10.0199C13.9504 10.3278 13.8369 10.6928 13.8369 11.0666C13.8369 11.4404 13.9504 11.8054 14.1623 12.1134C14.3743 12.4213 14.6747 12.6576 15.0239 12.7911C15.3731 12.9245 15.7546 12.9489 16.1179 12.8608C16.4812 12.7728 16.8092 12.5766 17.0585 12.298Z" fill="#1F4FDE"/>
</g>
<defs>
<clipPath id="clip0_429_4142">
<rect width="24" height="16.6154" fill="white"/>
</clipPath>
</defs>
</svg>
