<svg width="160" height="160" viewBox="0 0 160 160" fill="none" xmlns="http://www.w3.org/2000/svg">
<g clip-path="url(#clip0_428_4080)">
<path d="M159.767 79.8048C159.767 95.5573 155.091 110.876 146.245 124.107C145.043 125.905 143.068 126.877 141.057 126.877C139.866 126.877 138.661 126.537 137.597 125.825C134.734 123.912 133.966 120.04 135.879 117.177C143.349 106.004 147.297 93.0817 147.297 79.8048C147.297 74.0998 146.584 68.4337 145.176 62.9661C144.318 59.632 146.326 56.2321 149.66 55.3736C152.996 54.5163 156.394 56.5231 157.252 59.8573C158.921 66.3404 159.767 73.0513 159.767 79.8048ZM114.794 137.443C104.321 143.786 92.2769 147.14 79.962 147.14C42.8336 147.14 12.6267 116.933 12.6267 79.8048C12.6267 42.6764 42.8336 12.4695 79.962 12.4695C93.7089 12.4695 106.927 16.583 118.19 24.3655C121.022 26.3223 124.906 25.6124 126.864 22.78C128.821 19.9475 128.112 16.0642 125.278 14.1061C111.922 4.87821 96.2528 0 79.962 0C58.6458 0 38.6045 8.30123 23.5315 23.3742C8.45846 38.4472 0.157227 58.4885 0.157227 79.8048C0.157227 101.121 8.45846 121.162 23.5315 136.235C38.6045 151.308 58.6458 159.61 79.962 159.61C94.5553 159.61 108.834 155.633 121.255 148.108C124.201 146.324 125.142 142.491 123.358 139.545C121.573 136.599 117.74 135.659 114.794 137.443ZM80.5636 97.8831C79.576 97.9221 78.6542 97.5714 77.9382 96.8895L45.2849 65.9288C42.7861 63.5591 38.8395 63.6639 36.471 66.1626C34.1013 68.6614 34.206 72.6081 36.7048 74.9765L69.352 105.932C72.3671 108.799 76.2675 110.355 80.4004 110.355C80.622 110.355 80.8437 110.35 81.0653 110.342C85.443 110.165 89.4639 108.27 92.3865 105.006C92.4608 104.924 92.5314 104.84 92.6008 104.754L158.391 22.9225C160.549 20.2386 160.122 16.3139 157.439 14.1573C154.756 11.9995 150.83 12.4257 148.672 15.1095L83.0112 96.7811C82.3658 97.4545 81.5012 97.8454 80.5636 97.8831Z" fill="url(#paint0_linear_428_4080)"/>
</g>
<defs>
<linearGradient id="paint0_linear_428_4080" x1="0.157227" y1="79.8047" x2="159.767" y2="79.8047" gradientUnits="userSpaceOnUse">
<stop offset="0.0208" stop-color="#B48EF5"/>
<stop offset="1" stop-color="#4876FF"/>
</linearGradient>
<clipPath id="clip0_428_4080">
<rect width="160" height="159.766" fill="white"/>
</clipPath>
</defs>
</svg>
