<svg width="30" height="30" viewBox="0 0 30 30" fill="none" xmlns="http://www.w3.org/2000/svg">
<path d="M1.66669 6.66699H3.33335V8.33366H1.66669V6.66699Z" fill="#9D9D9D"/>
<path d="M5.83333 8.33366H25.8333C26.0543 8.33366 26.2663 8.24586 26.4226 8.08958C26.5789 7.9333 26.6667 7.72134 26.6667 7.50033C26.6667 7.27931 26.5789 7.06735 26.4226 6.91107C26.2663 6.75479 26.0543 6.66699 25.8333 6.66699H5.83333C5.61232 6.66699 5.40036 6.75479 5.24408 6.91107C5.0878 7.06735 5 7.27931 5 7.50033C5 7.72134 5.0878 7.9333 5.24408 8.08958C5.40036 8.24586 5.61232 8.33366 5.83333 8.33366Z" fill="#9D9D9D"/>
<path d="M1.66669 11.667H3.33335V13.3337H1.66669V11.667Z" fill="#9D9D9D"/>
<path d="M25.8333 11.667H5.83333C5.61232 11.667 5.40036 11.7548 5.24408 11.9111C5.0878 12.0674 5 12.2793 5 12.5003C5 12.7213 5.0878 12.9333 5.24408 13.0896C5.40036 13.2459 5.61232 13.3337 5.83333 13.3337H25.8333C26.0543 13.3337 26.2663 13.2459 26.4226 13.0896C26.5789 12.9333 26.6667 12.7213 26.6667 12.5003C26.6667 12.2793 26.5789 12.0674 26.4226 11.9111C26.2663 11.7548 26.0543 11.667 25.8333 11.667Z" fill="#9D9D9D"/>
<path d="M1.66669 16.667H3.33335V18.3337H1.66669V16.667Z" fill="#9D9D9D"/>
<path d="M25.8333 16.667H5.83333C5.61232 16.667 5.40036 16.7548 5.24408 16.9111C5.0878 17.0673 5 17.2793 5 17.5003C5 17.7213 5.0878 17.9333 5.24408 18.0896C5.40036 18.2459 5.61232 18.3337 5.83333 18.3337H25.8333C26.0543 18.3337 26.2663 18.2459 26.4226 18.0896C26.5789 17.9333 26.6667 17.7213 26.6667 17.5003C26.6667 17.2793 26.5789 17.0673 26.4226 16.9111C26.2663 16.7548 26.0543 16.667 25.8333 16.667Z" fill="#9D9D9D"/>
<path d="M1.66669 21.667H3.33335V23.3337H1.66669V21.667Z" fill="#9D9D9D"/>
<path d="M25.8333 21.667H5.83333C5.61232 21.667 5.40036 21.7548 5.24408 21.9111C5.0878 22.0673 5 22.2793 5 22.5003C5 22.7213 5.0878 22.9333 5.24408 23.0896C5.40036 23.2459 5.61232 23.3337 5.83333 23.3337H25.8333C26.0543 23.3337 26.2663 23.2459 26.4226 23.0896C26.5789 22.9333 26.6667 22.7213 26.6667 22.5003C26.6667 22.2793 26.5789 22.0673 26.4226 21.9111C26.2663 21.7548 26.0543 21.667 25.8333 21.667Z" fill="#9D9D9D"/>
</svg>
