<svg width="30" height="30" viewBox="0 0 30 30" fill="none" xmlns="http://www.w3.org/2000/svg">
<path d="M15 2.5C12.5277 2.5 10.111 3.23311 8.05538 4.60663C5.99976 5.98015 4.39761 7.93238 3.45151 10.2165C2.50542 12.5005 2.25787 15.0139 2.74019 17.4386C3.2225 19.8634 4.41301 22.0907 6.16117 23.8388C7.90933 25.587 10.1366 26.7775 12.5614 27.2598C14.9861 27.7421 17.4995 27.4946 19.7836 26.5485C22.0676 25.6024 24.0199 24.0002 25.3934 21.9446C26.7669 19.889 27.5 17.4723 27.5 15C27.5 13.3585 27.1767 11.733 26.5485 10.2165C25.9203 8.69989 24.9996 7.3219 23.8388 6.16117C22.6781 5.00043 21.3001 4.07969 19.7836 3.45151C18.267 2.82332 16.6415 2.5 15 2.5ZM18.3875 16.6125C18.5047 16.7287 18.5977 16.867 18.6611 17.0193C18.7246 17.1716 18.7573 17.335 18.7573 17.5C18.7573 17.665 18.7246 17.8284 18.6611 17.9807C18.5977 18.133 18.5047 18.2713 18.3875 18.3875C18.2713 18.5047 18.1331 18.5977 17.9807 18.6611C17.8284 18.7246 17.665 18.7572 17.5 18.7572C17.335 18.7572 17.1716 18.7246 17.0193 18.6611C16.867 18.5977 16.7287 18.5047 16.6125 18.3875L15 16.7625L13.3875 18.3875C13.2713 18.5047 13.1331 18.5977 12.9807 18.6611C12.8284 18.7246 12.665 18.7572 12.5 18.7572C12.335 18.7572 12.1716 18.7246 12.0193 18.6611C11.867 18.5977 11.7287 18.5047 11.6125 18.3875C11.4953 18.2713 11.4024 18.133 11.3389 17.9807C11.2754 17.8284 11.2428 17.665 11.2428 17.5C11.2428 17.335 11.2754 17.1716 11.3389 17.0193C11.4024 16.867 11.4953 16.7287 11.6125 16.6125L13.2375 15L11.6125 13.3875C11.3771 13.1521 11.2449 12.8329 11.2449 12.5C11.2449 12.1671 11.3771 11.8479 11.6125 11.6125C11.8479 11.3771 12.1671 11.2449 12.5 11.2449C12.8329 11.2449 13.1521 11.3771 13.3875 11.6125L15 13.2375L16.6125 11.6125C16.8479 11.3771 17.1671 11.2449 17.5 11.2449C17.8329 11.2449 18.1521 11.3771 18.3875 11.6125C18.6229 11.8479 18.7551 12.1671 18.7551 12.5C18.7551 12.8329 18.6229 13.1521 18.3875 13.3875L16.7625 15L18.3875 16.6125Z" fill="#9D9D9D"/>
</svg>
