<svg width="16" height="14" viewBox="0 0 16 14" fill="none" xmlns="http://www.w3.org/2000/svg">
<g clip-path="url(#clip0_211_1407)">
<path fill-rule="evenodd" clip-rule="evenodd" d="M0 1.14286C0 0.839753 0.120408 0.549063 0.334735 0.334735C0.549062 0.120408 0.839753 0 1.14286 0H14.8571C15.1602 0 15.4509 0.120408 15.6653 0.334735C15.8796 0.549063 16 0.839753 16 1.14286C16 1.44596 15.8796 1.73665 15.6653 1.95098C15.4509 2.16531 15.1602 2.28571 14.8571 2.28571H1.14286C0.839753 2.28571 0.549062 2.16531 0.334735 1.95098C0.120408 1.73665 0 1.44596 0 1.14286ZM0 6.85714C0 6.55404 0.120408 6.26335 0.334735 6.04902C0.549062 5.83469 0.839753 5.71429 1.14286 5.71429H14.8571C15.1602 5.71429 15.4509 5.83469 15.6653 6.04902C15.8796 6.26335 16 6.55404 16 6.85714C16 7.16025 15.8796 7.45094 15.6653 7.66527C15.4509 7.87959 15.1602 8 14.8571 8H1.14286C0.839753 8 0.549062 7.87959 0.334735 7.66527C0.120408 7.45094 0 7.16025 0 6.85714ZM0 12.5714C0 12.2683 0.120408 11.9776 0.334735 11.7633C0.549062 11.549 0.839753 11.4286 1.14286 11.4286H8C8.30311 11.4286 8.59379 11.549 8.80812 11.7633C9.02245 11.9776 9.14286 12.2683 9.14286 12.5714C9.14286 12.8745 9.02245 13.1652 8.80812 13.3796C8.59379 13.5939 8.30311 13.7143 8 13.7143H1.14286C0.839753 13.7143 0.549062 13.5939 0.334735 13.3796C0.120408 13.1652 0 12.8745 0 12.5714Z" fill="#1F4FDE"/>
</g>
<defs>
<clipPath id="clip0_211_1407">
<rect width="16" height="13.7143" fill="white"/>
</clipPath>
</defs>
</svg>
