<svg width="21" height="25" viewBox="0 0 21 25" fill="none" xmlns="http://www.w3.org/2000/svg">
<path d="M13.2087 24.9322H3.90786C1.75973 24.9322 0.012207 23.1846 0.012207 21.0365V7.84C0.012207 5.69187 1.75973 3.94435 3.90786 3.94435H13.2087C15.3569 3.94435 17.1044 5.69187 17.1044 7.84V21.0365C17.1044 23.1846 15.3569 24.9322 13.2087 24.9322ZM3.90786 5.89217C2.83389 5.89217 1.96003 6.76603 1.96003 7.84V21.0365C1.96003 22.1105 2.83389 22.9843 3.90786 22.9843H13.2087C14.2827 22.9843 15.1566 22.1105 15.1566 21.0365V7.84C15.1566 6.76603 14.2827 5.89217 13.2087 5.89217H3.90786ZM21 18.6017V3.89565C21 1.74753 19.2525 0 17.1044 0H6.29395C5.75601 0 5.32003 0.435978 5.32003 0.973913C5.32003 1.51185 5.75601 1.94783 6.29395 1.94783H17.1044C18.1783 1.94783 19.0522 2.82168 19.0522 3.89565V18.6017C19.0522 19.1397 19.4882 19.5757 20.0261 19.5757C20.5641 19.5757 21 19.1397 21 18.6017Z" fill="#9D9D9D"/>
</svg>
