<svg width="24" height="17" viewBox="0 0 24 17" fill="none" xmlns="http://www.w3.org/2000/svg">
<g clip-path="url(#clip0_429_4149)">
<path d="M21.8438 16.5H2.15625C0.967312 16.5 0 15.5327 0 14.3438V2.15625C0 0.967312 0.967312 0 2.15625 0H21.8438C23.0327 0 24 0.967312 24 2.15625V14.3438C24 15.5327 23.0327 16.5 21.8438 16.5ZM2.15625 1.5C1.79438 1.5 1.5 1.79438 1.5 2.15625V14.3438C1.5 14.7056 1.79438 15 2.15625 15H21.8438C22.2056 15 22.5 14.7056 22.5 14.3438V2.15625C22.5 1.79438 22.2056 1.5 21.8438 1.5H2.15625Z" fill="#1F4FDE"/>
<path d="M17.1421 10.3928C16.9796 10.3928 16.8159 10.3402 16.6783 10.2318C16.353 9.97531 16.2972 9.50374 16.5536 9.17843C16.7639 8.91181 16.875 8.59076 16.875 8.25012C16.875 7.90948 16.7639 7.58843 16.5537 7.32176C16.2972 6.99649 16.3531 6.52488 16.6783 6.26843C17.0036 6.01207 17.4752 6.06781 17.7317 6.39312C18.1465 6.91943 18.375 7.57892 18.375 8.25012C18.375 8.92132 18.1465 9.58081 17.7316 10.1071C17.5836 10.2948 17.364 10.3928 17.1421 10.3928Z" fill="#1F4FDE"/>
<path d="M19.0042 12.2544C18.8257 12.2544 18.6467 12.1911 18.5035 12.0626C18.1952 11.786 18.1695 11.3118 18.4462 11.0035C19.1257 10.2463 19.4999 9.26838 19.4999 8.24988C19.4999 7.23138 19.1257 6.25347 18.4462 5.49625C18.1695 5.18796 18.1952 4.71377 18.5035 4.43716C18.8118 4.16055 19.2859 4.18614 19.5626 4.49444C20.4894 5.52729 20.9999 6.86102 20.9999 8.24988C20.9999 9.63874 20.4894 10.9725 19.5626 12.0053C19.4145 12.1704 19.2098 12.2544 19.0042 12.2544Z" fill="#1F4FDE"/>
<path d="M5.8125 8.25H4.6875C3.75698 8.25 3 7.49302 3 6.5625V5.4375C3 4.50698 3.75698 3.75 4.6875 3.75H5.8125C6.74302 3.75 7.5 4.50698 7.5 5.4375V6.5625C7.5 7.49302 6.74302 8.25 5.8125 8.25ZM4.6875 5.25C4.58409 5.25 4.5 5.33409 4.5 5.4375V6.5625C4.5 6.66591 4.58409 6.75 4.6875 6.75H5.8125C5.91591 6.75 6 6.66591 6 6.5625V5.4375C6 5.33409 5.91591 5.25 5.8125 5.25H4.6875Z" fill="#1F4FDE"/>
</g>
<defs>
<clipPath id="clip0_429_4149">
<rect width="24" height="16.5" fill="white"/>
</clipPath>
</defs>
</svg>
