<svg width="25" height="25" viewBox="0 0 25 25" fill="none" xmlns="http://www.w3.org/2000/svg">
<path d="M6.25 0.78125C6.25 0.57405 6.16769 0.375336 6.02118 0.228823C5.87466 0.08231 5.67595 0 5.46875 0C5.26155 0 5.06284 0.08231 4.91632 0.228823C4.76981 0.375336 4.6875 0.57405 4.6875 0.78125V1.5625H3.125C2.2962 1.5625 1.50134 1.89174 0.915291 2.47779C0.32924 3.06384 0 3.8587 0 4.6875L0 6.25H25V4.6875C25 3.8587 24.6708 3.06384 24.0847 2.47779C23.4987 1.89174 22.7038 1.5625 21.875 1.5625H20.3125V0.78125C20.3125 0.57405 20.2302 0.375336 20.0837 0.228823C19.9372 0.08231 19.7385 0 19.5312 0C19.324 0 19.1253 0.08231 18.9788 0.228823C18.8323 0.375336 18.75 0.57405 18.75 0.78125V1.5625H6.25V0.78125ZM25 10.9375V7.8125H0V15.625H7.8125C8.2269 15.625 8.62433 15.7896 8.91735 16.0826C9.21038 16.3757 9.375 16.7731 9.375 17.1875C9.375 17.6019 9.21038 17.9993 8.91735 18.2924C8.62433 18.5854 8.2269 18.75 7.8125 18.75H0V21.875C0 22.7038 0.32924 23.4987 0.915291 24.0847C1.50134 24.6708 2.2962 25 3.125 25H21.875C22.7038 25 23.4987 24.6708 24.0847 24.0847C24.6708 23.4987 25 22.7038 25 21.875V14.0625H15.625C15.2106 14.0625 14.8132 13.8979 14.5201 13.6049C14.2271 13.3118 14.0625 12.9144 14.0625 12.5C14.0625 12.0856 14.2271 11.6882 14.5201 11.3951C14.8132 11.1021 15.2106 10.9375 15.625 10.9375H25Z" fill="#7892DF"/>
</svg>
