<svg width="22" height="22" viewBox="0 0 22 22" fill="none" xmlns="http://www.w3.org/2000/svg">
<path d="M15.3398 8.32278C15.4358 8.23322 15.5133 8.12562 15.5678 8.00611C15.6223 7.8866 15.6527 7.75754 15.6573 7.62628C15.6619 7.49503 15.6406 7.36415 15.5946 7.24113C15.5486 7.11811 15.4788 7.00534 15.3893 6.90928C15.2997 6.81322 15.1921 6.73574 15.0726 6.68126C14.9531 6.62679 14.824 6.59638 14.6928 6.59179C14.5615 6.58719 14.4306 6.60849 14.3076 6.65447C14.1846 6.70046 14.0718 6.77022 13.9758 6.85978L11.0498 9.58778L8.32176 6.66078C8.13923 6.47383 7.89078 6.36574 7.62956 6.35965C7.36834 6.35356 7.11512 6.44994 6.92407 6.62819C6.73302 6.80643 6.61932 7.05237 6.6073 7.31338C6.59529 7.57439 6.6859 7.82974 6.85977 8.02478L9.58777 10.9508L6.66077 13.6788C6.56131 13.7674 6.48057 13.8751 6.4233 13.9954C6.36602 14.1157 6.33336 14.2462 6.32723 14.3793C6.3211 14.5124 6.34163 14.6453 6.38761 14.7704C6.43359 14.8954 6.5041 15.01 6.59498 15.1074C6.68587 15.2049 6.79531 15.2831 6.91687 15.3377C7.03843 15.3922 7.16966 15.4219 7.30286 15.425C7.43605 15.4281 7.56853 15.4046 7.6925 15.3557C7.81647 15.3069 7.92944 15.2339 8.02476 15.1408L10.9508 12.4138L13.6788 15.3398C13.7668 15.4411 13.8744 15.5236 13.9951 15.5824C14.1157 15.6413 14.247 15.6752 14.381 15.6822C14.5151 15.6892 14.6492 15.6692 14.7753 15.6233C14.9015 15.5774 15.0171 15.5066 15.1153 15.415C15.2134 15.3235 15.2922 15.2131 15.3468 15.0905C15.4014 14.9679 15.4308 14.8355 15.4332 14.7013C15.4356 14.5671 15.4109 14.4338 15.3607 14.3093C15.3104 14.1848 15.2356 14.0717 15.1408 13.9768L12.4138 11.0508L15.3398 8.32278V8.32278Z" fill="#FA5858"/>
<path fill-rule="evenodd" clip-rule="evenodd" d="M0 11C0 4.925 4.925 0 11 0C17.075 0 22 4.925 22 11C22 17.075 17.075 22 11 22C4.925 22 0 17.075 0 11ZM11 20C9.8181 20 8.64778 19.7672 7.55585 19.3149C6.46392 18.8626 5.47177 18.1997 4.63604 17.364C3.80031 16.5282 3.13738 15.5361 2.68508 14.4442C2.23279 13.3522 2 12.1819 2 11C2 9.8181 2.23279 8.64778 2.68508 7.55585C3.13738 6.46392 3.80031 5.47177 4.63604 4.63604C5.47177 3.80031 6.46392 3.13738 7.55585 2.68508C8.64778 2.23279 9.8181 2 11 2C13.3869 2 15.6761 2.94821 17.364 4.63604C19.0518 6.32387 20 8.61305 20 11C20 13.3869 19.0518 15.6761 17.364 17.364C15.6761 19.0518 13.3869 20 11 20Z" fill="#FA5858"/>
</svg>
