<svg width="19" height="24" viewBox="0 0 19 24" fill="none" xmlns="http://www.w3.org/2000/svg">
<path d="M13.2433 2.97298V2.15135C13.2433 0.956744 12.2487 0 11.0541 0H7.10277C5.91359 0 4.91895 0.956744 4.91895 2.15135V2.97298H6.00003V2.15135C6.00003 1.55677 6.50813 1.08109 7.10815 1.08109H11.0595C11.6541 1.08109 12.1676 1.55677 12.1676 2.15135V2.97298H13.2433Z" fill="#CCE6FF"/>
<path d="M3.5838 24H14.584C15.4759 24 16.2056 23.2702 16.2056 22.3729L16.2326 8.59433H1.93506L1.96209 22.3729C1.96209 23.2702 2.69184 24 3.58369 24H3.5838ZM12.2706 12.2486C12.2706 11.9513 12.5138 11.7081 12.8111 11.7081C13.1085 11.7081 13.3517 11.9513 13.3517 12.2486V19.2378C13.3517 19.5351 13.1085 19.7783 12.8111 19.7783C12.5138 19.7783 12.2706 19.5351 12.2706 19.2378V12.2486ZM8.5408 12.2486C8.5408 11.9513 8.78404 11.7081 9.08136 11.7081C9.37869 11.7081 9.62193 11.9513 9.62193 12.2486V19.2378C9.62193 19.5351 9.37869 19.7783 9.08136 19.7783C8.78404 19.7783 8.5408 19.5351 8.5408 19.2378V12.2486ZM4.81103 12.2486C4.81103 11.9513 5.05428 11.7081 5.3516 11.7081C5.64892 11.7081 5.89217 11.9513 5.89217 12.2486V19.2378C5.89217 19.5351 5.64892 19.7783 5.3516 19.7783C5.05428 19.7783 4.81103 19.5351 4.81103 19.2378V12.2486Z" fill="#CCE6FF"/>
<path d="M18.1621 6.97294V4.05403C18.1621 3.75673 17.9188 3.51346 17.6215 3.51346H0.540569C0.243271 3.51346 0 3.7567 0 4.05403V6.97294C0 7.27024 0.243246 7.51351 0.540569 7.51351H17.6215C17.9188 7.51351 18.1621 7.27026 18.1621 6.97294Z" fill="#CCE6FF"/>
</svg>
