<svg width="14" height="18" viewBox="0 0 14 18" fill="none" xmlns="http://www.w3.org/2000/svg">
<path d="M9.93291 2.22979V1.61355C9.93291 0.717576 9.18694 0 8.29096 0H5.32736C4.43546 0 3.68945 0.717576 3.68945 1.61355V2.22979H4.50029V1.61355C4.50029 1.1676 4.88137 0.810836 5.3314 0.810836H8.295C8.74095 0.810836 9.12611 1.1676 9.12611 1.61355V2.22979H9.93291Z" fill="white"/>
<path d="M2.68776 17.9998H10.9381C11.607 17.9998 12.1543 17.4525 12.1543 16.7795L12.1746 6.44531H1.45117L1.47144 16.7795C1.47144 17.4525 2.01877 17.9998 2.68768 17.9998H2.68776ZM9.20299 9.1861C9.20299 8.96313 9.38543 8.78067 9.60842 8.78067C9.83142 8.78067 10.0139 8.96311 10.0139 9.1861V14.4281C10.0139 14.6511 9.83142 14.8335 9.60842 14.8335C9.38543 14.8335 9.20299 14.6511 9.20299 14.4281V9.1861ZM6.4056 9.1861C6.4056 8.96313 6.58803 8.78067 6.81103 8.78067C7.03403 8.78067 7.21647 8.96311 7.21647 9.1861V14.4281C7.21647 14.6511 7.03403 14.8335 6.81103 14.8335C6.58803 14.8335 6.4056 14.6511 6.4056 14.4281V9.1861ZM3.6082 9.1861C3.6082 8.96313 3.79064 8.78067 4.01364 8.78067C4.23664 8.78067 4.41908 8.96311 4.41908 9.1861V14.4281C4.41908 14.6511 4.23664 14.8335 4.01364 14.8335C3.79064 14.8335 3.6082 14.6511 3.6082 14.4281V9.1861Z" fill="white"/>
<path d="M13.6219 5.22944V3.0402C13.6219 2.81722 13.4395 2.63477 13.2165 2.63477H0.405437C0.182458 2.63477 0 2.8172 0 3.0402V5.22944C0 5.45242 0.182439 5.63488 0.405437 5.63488H13.2165C13.4394 5.63488 13.6219 5.45244 13.6219 5.22944Z" fill="white"/>
</svg>
