<svg width="20" height="21" viewBox="0 0 20 21" fill="none" xmlns="http://www.w3.org/2000/svg">
<path d="M18.0658 17.156C18.0658 18.0903 17.3066 18.8781 16.3726 18.8781H2.82256C1.88831 18.8781 1.12929 18.0903 1.12929 17.156L1.12911 3.60602C1.12911 2.67177 1.88832 1.94029 2.82238 1.94029H10.7262L10.7264 0.812042H2.82256C1.26598 0.812042 0 2.05053 0 3.60711V17.1558C0 18.7123 1.26598 20.0059 2.82256 20.0059H16.3712C17.9278 20.0059 19.1938 18.7113 19.1938 17.1558V9.27969H18.0644V17.1558L18.0658 17.156Z" fill="#686868"/>
<path d="M19.3383 0.640226C18.4857 -0.213409 16.9982 -0.213409 16.1446 0.640226L8.57069 8.21411C8.49862 8.28617 8.44661 8.37742 8.42229 8.47593L7.62509 11.6686C7.57734 11.8605 7.63362 12.0641 7.77349 12.2053C7.88053 12.3123 8.02484 12.3707 8.17217 12.3707C8.21779 12.3707 8.26341 12.3654 8.30903 12.3537L11.5028 11.5552C11.6024 11.5309 11.6925 11.4789 11.7646 11.4068L19.3385 3.83295C19.7647 3.40675 20.0001 2.83944 20.0001 2.23606C20.0001 1.6329 19.7656 1.06664 19.3383 0.640258L19.3383 0.640226ZM11.0773 10.498L8.94827 11.0304L9.48062 8.90133L15.7462 2.63574L17.3431 4.23263L11.0773 10.498ZM18.5399 3.03413L18.1412 3.43282L16.5443 1.83592L16.943 1.43724C17.3692 1.01104 18.1137 1.01104 18.5399 1.43724C18.7531 1.65043 18.8708 1.93356 18.8708 2.23566C18.8708 2.53796 18.7531 2.8211 18.5399 3.03409V3.03413Z" fill="#686868"/>
</svg>
