<svg width="21" height="15" viewBox="0 0 21 15" fill="none" xmlns="http://www.w3.org/2000/svg">
<path d="M12.0388 14.2112H17.1078C17.7341 14.2112 18.2663 14.0699 18.7083 13.8238L12.0388 9.84528V14.2112ZM20.1681 11.7433C20.2404 11.4211 20.2771 11.0799 20.2771 10.726V9.14196H15.8069L20.1669 11.7433M0.110921 2.72973C0.0358383 3.0668 -0.00135353 3.41119 3.76239e-05 3.75651V5.34056H4.48733L0.110921 2.72973ZM8.23709 0.271606H3.16814C2.54624 0.271606 2.01748 0.411003 1.57743 0.653679L8.23709 4.62647V0.271606ZM1.59771 13.8393C2.03364 14.075 2.55543 14.2112 3.16814 14.2112H8.23709V9.87855L1.59771 13.8393ZM3.76239e-05 9.14228V10.7263C3.76239e-05 11.091 0.0386884 11.4423 0.11504 11.7728L4.52472 9.14228H3.76239e-05ZM18.7282 0.669203C18.2828 0.416389 17.7433 0.271606 17.1078 0.271606H12.0388V4.65974L18.7282 0.669203ZM20.2759 5.34056V3.75651C20.2759 3.40992 20.2401 3.07569 20.1707 2.75951L15.8443 5.34056H20.2759Z" fill="#2E3192"/>
<path d="M15.8443 5.34056L20.1706 2.75951C19.9723 1.85217 19.4895 1.10101 18.7282 0.669203L12.0388 4.65974V0.271606H11.4052V5.97418H20.2758V5.34056H15.8443ZM0 8.50866V9.14228H4.52468L0.115002 11.7728C0.324413 12.6772 0.821805 13.4198 1.59767 13.8393L8.23705 9.87855V14.2112H8.87067V8.50866H0ZM20.2758 8.50866H11.4052V14.2112H12.0388V9.84528L18.7083 13.8241C19.4752 13.397 19.9641 12.65 20.1668 11.7439L15.8069 9.14228H20.2758V8.50866ZM8.23705 0.271606V4.62647L1.5774 0.653679C0.807548 1.0782 0.315543 1.82397 0.110567 2.72973L4.48729 5.34056H0V5.97418H8.87067V0.271606H8.23705Z" fill="#E6E7E8"/>
<path d="M11.4052 5.97418V0.271606H8.87067V5.97418H0V8.50866H8.87067V14.2112H11.4052V8.50866H20.2758V5.97418H11.4052Z" fill="#BE1E2D"/>
<path d="M6.95052 5.34052L0.598488 1.54862C0.461943 1.75138 0.352326 1.97441 0.261719 2.21202L5.50397 5.34052H6.94957M19.9879 12.3388L14.6614 9.14223H13.1863L19.6216 13.0133C19.7709 12.8048 19.8939 12.5787 19.9879 12.3401M19.2367 1.02905L12.0293 5.34052L13.4926 5.34147L19.7119 1.618C19.5732 1.3655 19.4268 1.20266 19.2367 1.02905ZM0.574727 12.9044C0.717238 13.1214 0.88874 13.3179 1.08447 13.4885L8.25736 9.14223H6.81176L0.574727 12.9044Z" fill="#BE1E2D"/>
</svg>
