<svg width="24" height="24" viewBox="0 0 24 24" fill="none" xmlns="http://www.w3.org/2000/svg">
<path d="M2.11133 3.88889H20.1113" stroke="#CCE6FF" stroke-width="2" stroke-linecap="round"/>
<path fill-rule="evenodd" clip-rule="evenodd" d="M18.1113 3.88889H4.11133V18.6889C4.11133 19.809 4.11133 20.369 4.32932 20.7969C4.52106 21.1732 4.82702 21.4792 5.20335 21.6709C5.63117 21.8889 6.19122 21.8889 7.31133 21.8889H11.8713C11.9553 21.8889 11.9973 21.8889 12.0294 21.8725C12.0577 21.8582 12.0806 21.8352 12.095 21.807C12.1113 21.7749 12.1113 21.7329 12.1113 21.6489V19.0889C12.1113 17.9688 12.1113 17.4087 12.3293 16.9809C12.5211 16.6046 12.827 16.2986 13.2033 16.1069C13.6312 15.8889 14.1912 15.8889 15.3113 15.8889H17.8713C17.9553 15.8889 17.9973 15.8889 18.0294 15.8725C18.0577 15.8582 18.0806 15.8352 18.095 15.807C18.1113 15.7749 18.1113 15.7329 18.1113 15.6489V3.88889ZM10.1113 13.8889V10.3031L8.81843 11.596C8.42791 11.9865 7.79475 11.9865 7.40422 11.596C7.0137 11.2055 7.0137 10.5723 7.40422 10.1818L10.2982 7.28784C10.3166 7.2694 10.3355 7.2517 10.3549 7.23477C10.5383 7.02292 10.8091 6.88889 11.1113 6.88889C11.4135 6.88889 11.6844 7.02292 11.8677 7.23477C11.8871 7.2517 11.9061 7.2694 11.9245 7.28784L14.8184 10.1818C15.209 10.5723 15.209 11.2055 14.8184 11.596C14.4279 11.9865 13.7947 11.9865 13.4042 11.596L12.1113 10.3031V13.8889C12.1113 14.4412 11.6636 14.8889 11.1113 14.8889C10.559 14.8889 10.1113 14.4412 10.1113 13.8889Z" fill="#CCE6FF"/>
<path d="M14.2561 21.7439L17.7439 18.2561C17.8384 18.1616 17.7715 18 17.6379 18H14.5C14.2239 18 14 18.2239 14 18.5V21.6379C14 21.7715 14.1616 21.8384 14.2561 21.7439Z" fill="#CCE6FF"/>
</svg>
