<svg width="30" height="30" viewBox="0 0 30 30" fill="none" xmlns="http://www.w3.org/2000/svg">
<path d="M6.25 5.75C6.25 4.64543 7.14543 3.75 8.25 3.75H14.75C14.8881 3.75 15 3.86193 15 4V10.5C15 11.6046 15.8954 12.5 17 12.5H23.5C23.6381 12.5 23.75 12.6119 23.75 12.75V24.25C23.75 25.3546 22.8546 26.25 21.75 26.25H8.25C7.14543 26.25 6.25 25.3546 6.25 24.25V5.75Z" fill="#9D9D9D"/>
<path d="M16.25 10.25V4.35355C16.25 4.13083 16.5193 4.01929 16.6768 4.17678L23.3232 10.8232C23.4807 10.9807 23.3692 11.25 23.1464 11.25H17.25C16.6977 11.25 16.25 10.8023 16.25 10.25Z" fill="#222222"/>
<path d="M10.625 16.875L18.125 16.875" stroke="#222222" stroke-linecap="round"/>
<path d="M10.625 20.625L16.875 20.625" stroke="#222222" stroke-linecap="round"/>
</svg>
