<svg width="28" height="24" viewBox="0 0 28 24" fill="none" xmlns="http://www.w3.org/2000/svg">
<path d="M8.37668 4L10.0334 5.44L7.07002 8H18.3984C20.2549 8 22.0353 8.63214 23.3481 9.75736C24.6609 10.8826 25.3984 12.4087 25.3984 14C25.3984 15.5913 24.6609 17.1174 23.3481 18.2426C22.0353 19.3679 20.2549 20 18.3984 20H16.065V18H18.3984C19.636 18 20.823 17.5786 21.6982 16.8284C22.5734 16.0783 23.065 15.0609 23.065 14C23.065 12.9391 22.5734 11.9217 21.6982 11.1716C20.823 10.4214 19.636 10 18.3984 10H7.07002L10.0334 12.51L8.37668 13.92L2.60168 9L8.37668 4Z" fill="#AAAAAA"/>
</svg>
