<svg width="24" height="27" viewBox="0 0 24 27" fill="none" xmlns="http://www.w3.org/2000/svg">
<path d="M20.572 5.70229H18.3704V2.37119C18.3704 1.06372 17.3067 0 15.9992 0H6.0686C5.82763 0.0275125 5.58334 0.0941558 5.40612 0.274676L0.274676 5.40612C0.0942505 5.58332 0.0270103 5.82748 0 6.0686V18.1514C0 19.4584 1.06372 20.5221 2.37119 20.5221H6.31738V22.8256C6.31738 24.6997 7.84207 26.2244 9.71616 26.2244H20.572C22.446 26.2244 23.9707 24.6997 23.9707 22.8256V9.10107C23.9707 7.22698 22.446 5.70229 20.572 5.70229ZM22.0976 22.8256C22.0976 23.6666 21.413 24.3512 20.572 24.3512H9.71616C8.87515 24.3512 8.19055 23.6666 8.19055 22.8256V9.10107C8.19055 8.26006 8.87515 7.57546 9.71616 7.57546H20.572C21.413 7.57546 22.0976 8.26006 22.0976 9.10107V22.8256ZM1.87317 18.1514V7.00518H4.63399C5.94146 7.00518 7.00518 5.94146 7.00518 4.63399V1.87317H15.9992C16.2736 1.87317 16.4973 2.0968 16.4973 2.37119V5.70229H9.71616C7.84207 5.70229 6.31738 7.22698 6.31738 9.10107V18.6489H2.37119C2.0968 18.6489 1.87317 18.4258 1.87317 18.1514ZM3.19756 5.13201L5.13201 3.19756V4.63399C5.13201 4.90838 4.90838 5.13201 4.63399 5.13201H3.19756Z" fill="#1F4FDE"/>
<path d="M15.1441 21.0342C14.7493 21.0342 14.4268 21.3571 14.4268 21.7514C14.4268 22.1532 14.7493 22.4687 15.1441 22.4687C15.5384 22.4687 15.8613 22.1532 15.8613 21.7514C15.8613 21.3571 15.5384 21.0342 15.1441 21.0342Z" fill="#1F4FDE"/>
<path d="M19.15 11.7078H11.1378C10.6205 11.7078 10.2012 12.1271 10.2012 12.6443C10.2012 13.1616 10.6205 13.5809 11.1378 13.5809H19.15C19.6672 13.5809 20.0865 13.1616 20.0865 12.6443C20.0865 12.1271 19.6672 11.7078 19.15 11.7078Z" fill="#1F4FDE"/>
<path d="M15.1441 18.9468C15.5384 18.9468 15.8613 18.6242 15.8613 18.2295C15.8613 17.8278 15.5384 17.5122 15.1441 17.5122C14.7493 17.5122 14.4268 17.8278 14.4268 18.2295C14.4268 18.6242 14.7493 18.9468 15.1441 18.9468Z" fill="#1F4FDE"/>
<path d="M11.1416 18.9468C11.536 18.9468 11.8589 18.6242 11.8589 18.2295C11.8589 17.8278 11.536 17.5122 11.1416 17.5122C10.7469 17.5122 10.4243 17.8278 10.4243 18.2295C10.4243 18.6242 10.7469 18.9468 11.1416 18.9468Z" fill="#1F4FDE"/>
<path d="M19.1499 17.5122C18.7551 17.5122 18.4326 17.8278 18.4326 18.2295C18.4326 18.6242 18.7551 18.9468 19.1499 18.9468C19.5442 18.9468 19.8672 18.6242 19.8672 18.2295C19.8672 17.8278 19.5442 17.5122 19.1499 17.5122Z" fill="#1F4FDE"/>
<path d="M11.1382 21.0342C10.7435 21.0342 10.4209 21.3497 10.4209 21.7514C10.4209 22.1461 10.7435 22.4687 11.1382 22.4687C11.5325 22.4687 11.8554 22.1461 11.8554 21.7514C11.8554 21.3497 11.5325 21.0342 11.1382 21.0342Z" fill="#1F4FDE"/>
<path d="M19.1499 21.041C18.7551 21.041 18.4326 21.3566 18.4326 21.7583C18.4326 22.153 18.7551 22.4756 19.1499 22.4756C19.5442 22.4756 19.8672 22.153 19.8672 21.7583C19.8672 21.3566 19.5442 21.041 19.1499 21.041Z" fill="#1F4FDE"/>
</svg>
