<svg width="19" height="24" viewBox="0 0 19 24" fill="none" xmlns="http://www.w3.org/2000/svg">
<path d="M13.2431 2.97298V2.15135C13.2431 0.956744 12.2485 0 11.0539 0H7.10252C5.91335 0 4.9187 0.956744 4.9187 2.15135V2.97298H5.99979V2.15135C5.99979 1.55677 6.50789 1.08109 7.10791 1.08109H11.0593C11.6539 1.08109 12.1674 1.55677 12.1674 2.15135V2.97298H13.2431Z" fill="#9D9D9D"/>
<path d="M3.58356 23.9999H14.5837C15.4756 23.9999 16.2053 23.2701 16.2053 22.3729L16.2324 8.59424H1.93481L1.96184 22.3729C1.96184 23.2701 2.6916 23.9999 3.58345 23.9999H3.58356ZM12.2703 12.2485C12.2703 11.9512 12.5136 11.708 12.8109 11.708C13.1082 11.708 13.3515 11.9512 13.3515 12.2485V19.2377C13.3515 19.535 13.1082 19.7782 12.8109 19.7782C12.5136 19.7782 12.2703 19.535 12.2703 19.2377V12.2485ZM8.54055 12.2485C8.54055 11.9512 8.7838 11.708 9.08112 11.708C9.37844 11.708 9.62169 11.9512 9.62169 12.2485V19.2377C9.62169 19.535 9.37844 19.7782 9.08112 19.7782C8.7838 19.7782 8.54055 19.535 8.54055 19.2377V12.2485ZM4.81079 12.2485C4.81079 11.9512 5.05403 11.708 5.35135 11.708C5.64868 11.708 5.89192 11.9512 5.89192 12.2485V19.2377C5.89192 19.535 5.64868 19.7782 5.35135 19.7782C5.05403 19.7782 4.81079 19.535 4.81079 19.2377V12.2485Z" fill="#9D9D9D"/>
<path d="M18.1621 6.97315V4.05424C18.1621 3.75694 17.9188 3.51367 17.6215 3.51367H0.540569C0.243271 3.51367 0 3.75692 0 4.05424V6.97315C0 7.27045 0.243246 7.51372 0.540569 7.51372H17.6215C17.9188 7.51372 18.1621 7.27048 18.1621 6.97315Z" fill="#9D9D9D"/>
</svg>
