<svg width="24" height="24" viewBox="0 0 24 24" fill="none" xmlns="http://www.w3.org/2000/svg">
<path d="M11.9693 1.86433e-05C9.89876 -0.00302425 7.86292 0.531915 6.0613 1.55242C4.25969 2.57292 2.7541 4.04398 1.69208 5.82143C0.630054 7.59889 0.0480299 9.62177 0.00303777 11.6918C-0.0419544 13.7619 0.451629 15.8082 1.43542 17.6301L0.0563462 22.2248C-0.00339499 22.4235 -0.0158389 22.6333 0.0200092 22.8376C0.0558572 23.0419 0.139003 23.235 0.262801 23.4015C0.386599 23.5679 0.547617 23.7031 0.732984 23.7962C0.918351 23.8893 1.12293 23.9378 1.33036 23.9377C1.46004 23.9375 1.58903 23.9187 1.71336 23.8818L6.30807 22.5028C7.91177 23.3678 9.69183 23.8554 11.5125 23.9281C13.3332 24.0009 15.1465 23.657 16.8142 22.9226C18.4818 22.1882 19.9597 21.0828 21.1353 19.6906C22.3108 18.2983 23.153 16.6561 23.5976 14.889C24.0422 13.1219 24.0774 11.2766 23.7006 9.49382C23.3238 7.71105 22.5449 6.03784 21.4233 4.60176C20.3017 3.16568 18.8671 2.00464 17.2287 1.20716C15.5903 0.409674 13.7915 -0.00319725 11.9693 1.86433e-05ZM11.9693 5.3195C12.2323 5.3195 12.4895 5.39749 12.7082 5.54362C12.9269 5.68975 13.0973 5.89745 13.198 6.14045C13.2986 6.38345 13.325 6.65084 13.2736 6.90881C13.2223 7.16678 13.0957 7.40374 12.9097 7.58973C12.7237 7.77572 12.4867 7.90237 12.2288 7.95369C11.9708 8.005 11.7034 7.97866 11.4604 7.87801C11.2174 7.77735 11.0097 7.6069 10.8636 7.38821C10.7174 7.16951 10.6395 6.91239 10.6395 6.64937C10.6395 6.29667 10.7796 5.95841 11.029 5.70901C11.2784 5.45961 11.6166 5.3195 11.9693 5.3195ZM13.2992 18.6182H11.9693C11.6166 18.6182 11.2784 18.4781 11.029 18.2287C10.7796 17.9793 10.6395 17.641 10.6395 17.2883V11.9689C10.2867 11.9689 9.94849 11.8287 9.69909 11.5793C9.44969 11.3299 9.30958 10.9917 9.30958 10.639C9.30958 10.2863 9.44969 9.94802 9.69909 9.69862C9.94849 9.44922 10.2867 9.30911 10.6395 9.30911H11.9693C12.322 9.30911 12.6603 9.44922 12.9097 9.69862C13.1591 9.94802 13.2992 10.2863 13.2992 10.639V15.9585C13.6519 15.9585 13.9902 16.0986 14.2396 16.348C14.489 16.5974 14.6291 16.9356 14.6291 17.2883C14.6291 17.641 14.489 17.9793 14.2396 18.2287C13.9902 18.4781 13.6519 18.6182 13.2992 18.6182Z" fill="#986BE5"/>
</svg>
