<svg xmlns="http://www.w3.org/2000/svg" width="16.98" height="16.979" viewBox="0 0 16.98 16.979">
  <g id="bx-layer" transform="translate(-3.002 -3)">
    <path id="Path_74" data-name="Path 74" d="M19.98,8.093a.849.849,0,0,0-.438-.742l-7.66-4.245a.851.851,0,0,0-.822,0L3.438,7.317a.849.849,0,0,0,0,1.484L11.1,13.08a.844.844,0,0,0,.826,0l7.622-4.245a.849.849,0,0,0,.436-.743Zm-8.471,3.273L5.6,8.064l5.87-3.245L17.383,8.1,11.51,11.37Z" fill="#fff"/>
    <path id="Path_75" data-name="Path 75" d="M19.054,16.689,11.824,20.7,4.6,16.689l-.824,1.484,7.641,4.245a.849.849,0,0,0,.824,0l7.641-4.245-.824-1.484Z" transform="translate(-0.334 -5.941)" fill="#fff"/>
    <path id="Path_76" data-name="Path 76" d="M19.054,22.689,11.824,26.7,4.6,22.689l-.824,1.484,7.641,4.245a.849.849,0,0,0,.824,0l7.641-4.245-.824-1.484Z" transform="translate(-0.334 -8.545)" fill="#fff"/>
  </g>
</svg>
