<svg id="Layer_1" data-name="Layer 1" xmlns="http://www.w3.org/2000/svg" width="119.201" height="37.649" viewBox="0 0 119.201 37.649">
  <g id="Group_31" data-name="Group 31" transform="translate(0 0)">
    <g id="Group_26" data-name="Group 26" transform="translate(18.872 0)">
      <rect id="Rectangle_12" data-name="Rectangle 12" width="10.512" height="5.292" transform="translate(14.789 5.241) rotate(90)" fill="#7259ff"/>
      <rect id="Rectangle_13" data-name="Rectangle 13" width="5.5" height="15.753" fill="#7259ff"/>
    </g>
    <path id="Path_105" data-name="Path 105" d="M33.662,19.543v8.864l-5.254,5.254H5.254L0,28.407V5.251L5.254,0h9.63V5.251H5.254V28.407H28.407V19.543Z" transform="translate(0 0)" fill="#fff"/>
    <g id="Group_30" data-name="Group 30" transform="translate(43.405)">
      <g id="Group_28" data-name="Group 28" transform="translate(0 21.375)">
        <path id="Path_106" data-name="Path 106" d="M221.777,72.281l.01,2.789s-2.721.327-3.627.327a6.531,6.531,0,0,1-4.815-1.791A6.306,6.306,0,0,1,217.9,62.78a5.773,5.773,0,0,1,4.338,1.8,6.248,6.248,0,0,1,1.733,4.505,6.844,6.844,0,0,1-.143,1.434h-8.483a2.822,2.822,0,0,0,2.929,1.733l3.5.027Zm-6.508-4.437h5.139a2.381,2.381,0,0,0-2.534-1.887A2.459,2.459,0,0,0,215.269,67.844Z" transform="translate(-182.908 -62.777)" fill="#fff"/>
        <path id="Path_107" data-name="Path 107" d="M267.383,62.77a4.267,4.267,0,0,1,3.3,1.349,5.1,5.1,0,0,1,1.243,3.6V75.05h-3.586V68.024a2.149,2.149,0,0,0-.443-1.434,1.577,1.577,0,0,0-1.277-.524,1.679,1.679,0,0,0-1.372.6,2.523,2.523,0,0,0-.49,1.648V75.05h-3.586V68.024a2.149,2.149,0,0,0-.443-1.434,1.577,1.577,0,0,0-1.277-.524,1.679,1.679,0,0,0-1.372.6,2.523,2.523,0,0,0-.49,1.648V75.05H254V62.859h3.586V64.2a3.594,3.594,0,0,1,3.2-1.434,3.512,3.512,0,0,1,3.13,1.577,3.923,3.923,0,0,1,3.463-1.577Z" transform="translate(-210.909 -62.77)" fill="#fff"/>
        <path id="Path_108" data-name="Path 108" d="M133.062,63.033a5.46,5.46,0,0,0-3.984,1.594,5.541,5.541,0,0,0,0,7.826,5.567,5.567,0,0,0,3.984,1.72,3.987,3.987,0,0,0,1.512-.266,4.36,4.36,0,0,0,1.369-.971V74.2h3.232V63.03h-6.116Zm2.881,7.989h-2.881a2.262,2.262,0,0,1-1.709-.715,2.469,2.469,0,0,1-.678-1.771,2.5,2.5,0,0,1,.678-1.781,2.275,2.275,0,0,1,1.709-.7h2.881Z" transform="translate(-127.46 -62.941)" fill="#fff"/>
        <path id="Path_109" data-name="Path 109" d="M152.37,63.04V79.222h3.358V63.04Z" transform="translate(-143.887 -62.948)" fill="#fff"/>
        <path id="Path_110" data-name="Path 110" d="M174.893,62.91a5.49,5.49,0,0,0-4.12,1.74,6.3,6.3,0,0,0,0,8.547,5.332,5.332,0,0,0,4.018,1.812,3.95,3.95,0,0,0,1.563-.289,6.824,6.824,0,0,0,1.519-.991V75.1h3.344V62.913h-6.324Zm2.98,8.725h-2.98a2.274,2.274,0,0,1-1.767-.78,3.027,3.027,0,0,1,0-3.875,2.3,2.3,0,0,1,1.767-.766h2.98v5.425Z" transform="translate(-154.92 -62.862)" fill="#fff"/>
        <rect id="Rectangle_14" data-name="Rectangle 14" width="3.358" height="12.191" transform="translate(22.938 0.048)" fill="#fff"/>
        <g id="Group_27" data-name="Group 27" transform="translate(63.602 0.048)">
          <path id="Path_111" data-name="Path 111" d="M320.022,62.91a5.49,5.49,0,0,0-4.12,1.74,6.3,6.3,0,0,0,0,8.547,5.332,5.332,0,0,0,4.018,1.812,3.95,3.95,0,0,0,1.563-.289A6.824,6.824,0,0,0,323,73.729V75.1h3.344V62.913h-6.324Zm2.983,8.725h-2.98a2.274,2.274,0,0,1-1.767-.78,3.027,3.027,0,0,1,0-3.875,2.3,2.3,0,0,1,1.767-.766h2.98v5.425Z" transform="translate(-314.23 -62.91)" fill="#fff"/>
          <rect id="Rectangle_15" data-name="Rectangle 15" width="3.358" height="12.191" transform="translate(8.762)" fill="#fff"/>
        </g>
      </g>
      <g id="Group_29" data-name="Group 29">
        <path id="Path_112" data-name="Path 112" d="M202.48,25.144h28.431V14.24h-3.358V21.8H202.48Z" transform="translate(-176.933 -9.391)" fill="#fff"/>
        <path id="Path_113" data-name="Path 113" d="M311.65,15.753V12.413H295.3V0H291.94V15.753Z" transform="translate(-235.929 0)" fill="#fff"/>
        <rect id="Rectangle_16" data-name="Rectangle 16" width="2.486" height="6.709" transform="translate(69.088 2.486) rotate(-90)" fill="#fff"/>
        <rect id="Rectangle_17" data-name="Rectangle 17" width="2.486" height="6.709" transform="translate(3.903 2.486) rotate(-90)" fill="#fff"/>
        <path id="Path_114" data-name="Path 114" d="M250.43,9.365V5.653l4.624-2.513,1.134,1.876-3.552,1.921h4.5V9.365Z" transform="translate(-208.554 -2.071)" fill="#fff"/>
        <path id="Path_115" data-name="Path 115" d="M323.539,23.833h-2.922a5.532,5.532,0,0,1-4.039-1.614,5.347,5.347,0,0,1-1.638-3.967,5.358,5.358,0,0,1,1.638-3.967,5.532,5.532,0,0,1,4.039-1.614h6.2V23.836h-3.276Zm0-3.061V15.735h-2.922a2.313,2.313,0,0,0-1.733.712,2.7,2.7,0,0,0,0,3.6,2.293,2.293,0,0,0,1.733.725Z" transform="translate(-251.096 -8.355)" fill="#fff"/>
        <path id="Path_116" data-name="Path 116" d="M144.657,20.768h-5.421v-8.1h-6.177a5.449,5.449,0,0,0-3.981,1.59,5.283,5.283,0,0,0-1.618,3.913,5.283,5.283,0,0,0,1.618,3.913,5.566,5.566,0,0,0,3.981,1.72,4.043,4.043,0,0,0,1.512-.266,4.346,4.346,0,0,0,1.308-.906v1.471h3.354l5.425,0V20.761Zm-8.776-.109h-2.823a2.259,2.259,0,0,1-1.709-.712,2.656,2.656,0,0,1,0-3.552,2.275,2.275,0,0,1,1.709-.7h2.823Z" transform="translate(-127.46 -8.355)" fill="#fff"/>
        <path id="Path_117" data-name="Path 117" d="M180.3,12.653l-1.754.014a5.821,5.821,0,0,0-4.366,1.658,5.276,5.276,0,0,0-1.454,3.8v.429a5.441,5.441,0,0,0,.467,2.2,5.605,5.605,0,0,0,5.1,3.344h5.357V12.65H180.3Zm-.024,5.541v2.483H179c-1.938,0-2.843-.838-2.843-2.636a2.725,2.725,0,0,1,.582-1.832,1.86,1.86,0,0,1,.232-.232,2.044,2.044,0,0,1,1.376-.463H180.3s-.024,1.475-.024,2.68Z" transform="translate(-157.314 -8.342)" fill="#fff"/>
      </g>
    </g>
  </g>
</svg>
