<svg width="48" height="48" viewBox="0 0 48 48" fill="none" xmlns="http://www.w3.org/2000/svg">
<g clip-path="url(#clip0_2236_9606)">
<path opacity="0.6" d="M29.4632 0.812134H18.9539V47.3235H29.4632V0.812134Z" fill="#7E62D1"/>
<path opacity="0.8" d="M47.4652 18.7734H0.953796V29.2828H47.4652V18.7734Z" fill="#7E62D1"/>
<path d="M11.5073 3.89624L4.07611 11.3275L36.9643 44.2156L44.3954 36.7845L11.5073 3.89624Z" fill="#7E62D1"/>
<path d="M36.9643 3.84039L4.07611 36.7285L11.5073 44.1598L44.3954 11.2716L36.9643 3.84039Z" fill="#7E62D1"/>
<path d="M29.4571 0.797913H18.9539V8.1488H29.4571V0.797913Z" fill="#679CE0"/>
<path d="M11.5108 3.89832L4.09241 11.3335L9.29615 16.5255L16.7146 9.09025L11.5108 3.89832Z" fill="#679CE0"/>
<path d="M39.1957 31.575L31.7772 39.0103L36.9809 44.2022L44.3994 36.7669L39.1957 31.575Z" fill="#679CE0"/>
<path d="M36.9565 3.85797L31.7527 9.0499L39.1711 16.4852L44.3749 11.2932L36.9565 3.85797Z" fill="#679CE0"/>
<path d="M9.27978 31.5377L4.07611 36.7296L11.4946 44.165L16.6983 38.973L9.27978 31.5377Z" fill="#679CE0"/>
<path d="M29.4571 40.0027H18.9539V47.3536H29.4571V40.0027Z" fill="#679CE0"/>
<path d="M8.31286 18.7816H0.961975V29.285H8.31286V18.7816Z" fill="#679CE0"/>
<path d="M47.4759 18.7805H40.125V29.2839H47.4759V18.7805Z" fill="#679CE0"/>
</g>
<defs>
<clipPath id="clip0_2236_9606">
<rect width="48" height="48" fill="white"/>
</clipPath>
</defs>
</svg>
