<svg width="229" height="96" viewBox="0 0 229 96" fill="none" xmlns="http://www.w3.org/2000/svg">
<g clip-path="url(#clip0_2236_10062)">
<path d="M228.293 68.1902L222.74 21.9016C221.247 9.43905 210.653 0.0377045 198.099 0.0377045H145.066C132.512 0.0377045 121.919 9.43905 120.425 21.9016L114.878 68.1902C114.034 75.2309 116.247 82.3118 120.956 87.6154C125.659 92.9227 132.426 95.9621 139.519 95.9621H203.652C210.739 95.9621 217.507 92.9227 222.215 87.6154C226.918 82.3133 229.137 75.2323 228.293 68.1902ZM213.083 79.571C210.562 82.4107 207.084 83.9726 203.294 83.9726H139.879C136.082 83.9726 132.603 82.4107 130.09 79.571C127.57 76.7318 126.436 73.0949 126.885 69.3259L132.37 23.5562C133.157 16.9885 138.743 12.0276 145.363 12.0276H197.804C204.422 12.0276 210.01 16.9871 210.797 23.5562L216.287 69.3259C216.737 73.0949 215.595 76.7318 213.083 79.571Z" fill="#004956"/>
<path d="M203.447 53.9818C202.574 52.6435 201.233 51.7253 199.67 51.3965C198.103 51.0672 196.508 51.3672 195.17 52.2389C179.202 62.6525 163.663 62.651 147.665 52.2374C146.326 51.3658 144.727 51.0658 143.165 51.3979C141.601 51.7282 140.262 52.6478 139.39 53.9861C138.518 55.3248 138.22 56.9227 138.55 58.4861C138.881 60.0494 139.8 61.3891 141.139 62.2608C151.136 68.7691 161.328 72.0682 171.431 72.0682C181.536 72.0682 191.72 68.7677 201.703 62.2579C203.041 61.3848 203.959 60.0437 204.288 58.4803C204.619 56.9184 204.32 55.3205 203.447 53.9818Z" fill="#004956"/>
<path d="M94.6646 28.9929L88.9915 30.9477C89.6107 32.9503 90.3734 35.81 90.3734 37.4777C90.3734 39.2889 89.2291 40.3852 87.0365 40.3852C84.7963 40.3852 83.4619 39.8603 83.4619 36.9049V31.8047H77.4557V36.9049C77.4557 39.8603 76.1213 40.3852 73.7371 40.3852C71.4009 40.3852 70.067 39.8603 70.067 36.9049V31.8047H64.0128V36.857C64.0128 39.8603 62.3913 40.3838 58.9123 40.3838C55.3377 40.3838 54.0979 39.6689 54.0979 35.7593V13.8823H47.7578V36.0957C47.7578 39.7182 46.5179 40.3852 42.9448 40.3852H42.9433C40.13 40.3852 38.4638 39.8153 38.4638 36.2393V19.8395H32.5037V23.227C21.2056 25.5589 17.1553 30.2792 17.1553 36.1914C17.1553 41.8137 20.872 45.439 26.3058 45.439C30.3604 45.439 32.4065 43.3885 33.3143 40.6231C34.125 45.5333 36.9803 48.3902 42.5532 48.3931L42.5619 48.3946C46.8051 48.3946 49.1875 46.4875 50.1883 43.5799C51.4281 46.821 54.24 48.3946 58.5297 48.3946C62.4854 48.3946 65.0597 46.9646 66.06 44.0092C67.0608 47.0124 69.4449 48.3946 72.8294 48.3946C76.2144 48.3946 78.5505 46.9646 79.5029 43.9613C80.5037 46.9646 82.9358 48.3946 86.844 48.3946C92.7547 48.3946 96.3773 44.5327 96.3773 37.5255C96.3801 34.9515 95.6649 31.4233 94.6646 28.9929ZM32.5051 36.0464C31.5538 36.8092 29.7397 37.3834 27.07 37.3834C24.6381 37.3834 22.2091 36.7178 22.2091 35.0951C22.2091 33.3288 24.7338 31.5669 32.5037 30.2792V36.0464H32.5051Z" fill="#004956"/>
<path d="M35.7217 18.3604C37.6562 18.3604 39.2484 16.9566 39.2484 14.9844C39.2484 12.8991 37.5793 11.6085 35.7217 11.6085C33.7872 11.6085 32.1558 12.9353 32.1558 14.9844C32.1558 17.0712 33.9003 18.3604 35.7217 18.3604Z" fill="#004956"/>
<path d="M27.75 18.3604C29.6845 18.3604 31.2768 16.9566 31.2768 14.9844C31.2768 12.8991 29.6076 11.6085 27.75 11.6085C25.8155 11.6085 24.1841 12.9353 24.1841 14.9844C24.1841 17.0712 25.9286 18.3604 27.75 18.3604Z" fill="#004956"/>
<path d="M0.0756836 82.5235L1.01393 77.4264C2.84837 78.7315 6.11119 79.9133 8.84186 79.9133C11.2071 79.9133 12.5934 79.139 12.5934 77.8339C12.5934 74.2867 0.280153 77.5891 0.280153 68.9866C0.280153 64.5014 3.99109 61.5662 9.98455 61.5662C13.2053 61.5662 16.1825 62.4638 18.3026 63.5645L17.2832 68.5387C15.2849 67.4784 12.7573 66.4997 10.3109 66.4997C8.06892 66.4997 6.68258 67.355 6.68258 68.579C6.68258 72.2899 18.9958 69.1099 18.9958 77.1408C18.9958 81.5448 14.7962 84.6422 8.59822 84.6422C4.88729 84.6437 1.91012 83.543 0.0756836 82.5235Z" fill="#004956"/>
<path d="M39.6238 62.3002H46.0654V84.0317H39.6238V80.4442C37.8706 83.053 35.3836 84.5626 32.1628 84.5626C26.6987 84.5626 21.439 80.6894 21.439 73.1458C21.439 65.6021 26.4536 61.6474 32.1628 61.6474C35.343 61.6474 37.83 62.8291 39.6238 65.1946V62.3002ZM39.6238 73.0646C38.442 69.0274 36.0768 66.9898 33.3853 66.9898C30.4908 66.9898 28.2474 69.1502 28.2474 73.0646C28.2474 76.9378 30.5299 79.2216 33.4259 79.2216C36.2406 79.2202 38.5638 76.7333 39.6238 73.0646Z" fill="#004956"/>
<path d="M50.7959 84.0317V55.368H57.2375V84.0317H50.7959Z" fill="#004956"/>
<path d="M61.9678 84.0317V55.368H68.4094V84.0317H61.9678Z" fill="#004956"/>
<path d="M90.2629 62.3002H96.7045V84.0317H90.2629V80.4442C88.51 83.053 86.0226 84.5626 82.8018 84.5626C77.338 84.5626 72.0781 80.6894 72.0781 73.1458C72.0781 65.6021 77.0927 61.6474 82.8018 61.6474C85.9823 61.6474 88.4692 62.8291 90.2629 65.1946V62.3002ZM90.2629 73.0646C89.0812 69.0274 86.7162 66.9898 84.0244 66.9898C81.13 66.9898 78.8864 69.1502 78.8864 73.0646C78.8864 76.9378 81.1693 79.2216 84.0652 79.2216C86.8784 79.2202 89.2031 76.7333 90.2629 73.0646Z" fill="#004956"/>
</g>
<defs>
<clipPath id="clip0_2236_10062">
<rect width="228.96" height="96" fill="white"/>
</clipPath>
</defs>
</svg>
