<svg xmlns="http://www.w3.org/2000/svg" width="23.718" height="24.886" viewBox="0 0 23.718 24.886">
  <defs>
    <style>
      .cls-1 {
        fill: #1d4a44;
      }

      .cls-2 {
        fill: #4aa596;
        stroke: #fff;
      }

      .cls-3 {
        stroke: none;
      }

      .cls-4 {
        fill: none;
      }
    </style>
  </defs>
  <g id="Group_6586" data-name="Group 6586" transform="translate(-1786 -22)">
    <path id="notification" class="cls-1" d="M24.155,16.731l-2.183-2.183V10.828a8.142,8.142,0,0,0-7.277-8.086V1.125H13.077V2.742A8.207,8.207,0,0,0,5.8,10.828v3.719L3.617,16.731a.736.736,0,0,0-.242.566v2.426a.76.76,0,0,0,.809.809h5.66a4.043,4.043,0,0,0,8.086,0h5.66a.76.76,0,0,0,.809-.809V17.3A.736.736,0,0,0,24.155,16.731ZM13.886,22.956A2.426,2.426,0,0,1,11.46,20.53h4.851a2.426,2.426,0,0,1-2.426,2.426Zm8.894-4.043H4.991V17.62l2.183-2.183a.736.736,0,0,0,.242-.566V10.828a6.468,6.468,0,1,1,12.937,0V14.87a.736.736,0,0,0,.242.566L22.78,17.62Z" transform="translate(1782.627 22.312)"/>
    <g id="Ellipse_1" data-name="Ellipse 1" class="cls-2" transform="translate(1798.718 22)">
      <circle class="cls-3" cx="5.5" cy="5.5" r="5.5"/>
      <circle class="cls-4" cx="5.5" cy="5.5" r="5"/>
    </g>
  </g>
</svg>
