<svg width="160" height="183" viewBox="0 0 160 183" fill="none" xmlns="http://www.w3.org/2000/svg">
    <g clip-path="url(#clip0_578_9295)">
        <path d="M80 37.3548C85.9781 37.3548 90.6651 32.6679 90.6651 26.6897C90.6651 20.7116 85.9781 16.0247 80 16.0247C74.0219 16.0247 69.3349 20.7116 69.3349 26.6897C69.3349 32.6679 74.0219 37.3548 80 37.3548ZM80 107.477C77.0525 107.477 74.6675 109.862 74.6675 112.81V155.382C74.6675 158.329 77.0525 160.714 80 160.714C82.9475 160.714 85.3325 158.329 85.3325 155.382V112.81C85.3325 109.862 82.9475 107.477 80 107.477ZM133.325 150.049H117.328V48.0199C117.328 45.0724 114.943 42.6874 111.995 42.6874C109.048 42.6874 106.663 45.0724 106.663 48.0199V155.382C106.663 158.329 109.048 160.714 111.995 160.714H133.325C136.273 160.714 138.658 158.329 138.658 155.382C138.658 152.434 136.273 150.049 133.325 150.049ZM133.325 42.6874C130.378 42.6874 127.993 45.0724 127.993 48.0199V112.721C127.993 115.669 130.378 118.054 133.325 118.054C136.273 118.054 138.658 115.669 138.658 112.721V48.0199C138.658 45.0724 136.273 42.6874 133.325 42.6874ZM26.6746 118.054C29.6221 118.054 32.0071 115.669 32.0071 112.721V48.0199C32.0071 45.0724 29.6221 42.6874 26.6746 42.6874C23.7271 42.6874 21.342 45.0724 21.342 48.0199V112.721C21.342 115.669 23.7271 118.054 26.6746 118.054ZM48.0047 42.6874C45.0573 42.6874 42.6722 45.0724 42.6722 48.0199V150.049H26.6746C23.7271 150.049 21.342 152.434 21.342 155.382C21.342 158.329 23.7271 160.714 26.6746 160.714H48.0047C50.9522 160.714 53.3373 158.329 53.3373 155.382V48.0199C53.3373 45.0724 50.9522 42.6874 48.0047 42.6874ZM90.6651 42.6874C87.7176 42.6874 85.3325 45.0724 85.3325 48.0199V112.721C85.3325 115.669 87.7176 118.054 90.6651 118.054C93.6126 118.054 95.9976 115.669 95.9976 112.721V48.0199C95.9976 45.0724 93.6126 42.6874 90.6651 42.6874ZM74.6675 48.0199C74.6675 45.0724 72.2824 42.6874 69.3349 42.6874C66.3874 42.6874 64.0024 45.0724 64.0024 48.0199V112.721C64.0024 115.669 66.3874 118.054 69.3349 118.054C72.2824 118.054 74.6675 115.669 74.6675 112.721V48.0199Z" fill="url(#paint0_linear_578_9295)"/>
        <path d="M16.0096 53.3524H143.991C146.337 53.3524 148.47 51.8593 149.109 49.6193C149.749 47.2733 148.897 44.9267 146.977 43.5402L82.9863 0.879869C81.1729 -0.29329 78.8269 -0.29329 77.0132 0.879869L13.0227 43.5402C11.1029 44.9267 10.2504 47.2733 10.89 49.6193C11.5303 51.8593 13.6636 53.3524 16.0096 53.3524ZM80.0001 21.3572C82.9867 21.3572 85.3326 23.7031 85.3326 26.6897C85.3326 29.6756 82.9867 32.0223 80.0001 32.0223C77.0135 32.0223 74.6675 29.6756 74.6675 26.6897C74.6675 23.7031 77.0135 21.3572 80.0001 21.3572ZM16.0096 118.054H143.991C146.938 118.054 149.323 115.669 149.323 112.721C149.323 109.774 146.938 107.389 143.991 107.389H16.0096C13.0621 107.389 10.677 109.774 10.677 112.721C10.677 115.669 13.0621 118.054 16.0096 118.054ZM80.0001 150.049C71.1786 150.049 64.0025 157.225 64.0025 166.047C64.0025 174.868 71.1786 182.044 80.0001 182.044C88.8215 182.044 95.9977 174.868 95.9977 166.047C95.9977 157.225 88.8215 150.049 80.0001 150.049ZM16.0096 139.384C7.18814 139.384 0.0119629 146.56 0.0119629 155.382C0.0119629 164.203 7.18814 171.379 16.0096 171.379C24.831 171.379 32.0072 164.203 32.0072 155.382C32.0072 146.56 24.831 139.384 16.0096 139.384ZM143.991 139.384C135.169 139.384 127.993 146.56 127.993 155.382C127.993 164.203 135.169 171.379 143.991 171.379C152.812 171.379 159.988 164.203 159.988 155.382C159.988 146.56 152.812 139.384 143.991 139.384Z" fill="url(#paint1_linear_578_9295)"/>
    </g>
    <defs>
        <linearGradient id="paint0_linear_578_9295" x1="80" y1="160.714" x2="80" y2="16.0247" gradientUnits="userSpaceOnUse">
            <stop stop-color="#E4D8FF"/>
            <stop offset="0.9973" stop-color="#B7B6F6"/>
        </linearGradient>
        <linearGradient id="paint1_linear_578_9295" x1="80.0001" y1="182.044" x2="80.0001" y2="0" gradientUnits="userSpaceOnUse">
            <stop stop-color="#9BACF2"/>
            <stop offset="1" stop-color="#996BE4"/>
        </linearGradient>
        <clipPath id="clip0_578_9295">
            <rect width="160" height="182.044" fill="white"/>
        </clipPath>
    </defs>
</svg>