<svg width="48" height="48" viewBox="0 0 48 48" fill="none" xmlns="http://www.w3.org/2000/svg">
    <path d="M26.7692 36C26.7692 36.5477 26.6068 37.0831 26.3025 37.5385C25.9982 37.9939 25.5658 38.3488 25.0597 38.5584C24.5537 38.768 23.9969 38.8229 23.4598 38.716C22.9226 38.6092 22.4291 38.3454 22.0419 37.9581C21.6546 37.5709 21.3908 37.0774 21.284 36.5402C21.1771 36.0031 21.232 35.4463 21.4416 34.9403C21.6512 34.4342 22.0061 34.0018 22.4615 33.6975C22.9169 33.3932 23.4523 33.2308 24 33.2308C24.7345 33.2308 25.4388 33.5225 25.9581 34.0419C26.4775 34.5612 26.7692 35.2655 26.7692 36ZM24 11.0769C18.9092 11.0769 14.7692 14.8038 14.7692 19.3846V20.3077C14.7692 20.7973 14.9637 21.2669 15.31 21.6131C15.6562 21.9593 16.1258 22.1538 16.6154 22.1538C17.105 22.1538 17.5746 21.9593 17.9208 21.6131C18.267 21.2669 18.4615 20.7973 18.4615 20.3077V19.3846C18.4615 16.8462 20.9469 14.7692 24 14.7692C27.0531 14.7692 29.5385 16.8462 29.5385 19.3846C29.5385 21.9231 27.0531 24 24 24C23.5104 24 23.0408 24.1945 22.6946 24.5407C22.3484 24.8869 22.1539 25.3565 22.1539 25.8461V27.6923C22.1539 28.1819 22.3484 28.6515 22.6946 28.9977C23.0408 29.344 23.5104 29.5385 24 29.5385C24.4896 29.5385 24.9592 29.344 25.3054 28.9977C25.6517 28.6515 25.8462 28.1819 25.8462 27.6923V27.5261C30.0554 26.7531 33.2308 23.3954 33.2308 19.3846C33.2308 14.8038 29.0908 11.0769 24 11.0769ZM48 24C48 28.7467 46.5924 33.3869 43.9553 37.3337C41.3181 41.2805 37.5698 44.3566 33.1844 46.1731C28.799 47.9896 23.9734 48.4649 19.3178 47.5388C14.6623 46.6128 10.3859 44.327 7.02945 40.9706C3.67299 37.6141 1.38721 33.3377 0.461164 28.6822C-0.464881 24.0266 0.0103988 19.201 1.8269 14.8156C3.6434 10.4302 6.71954 6.68188 10.6663 4.04473C14.6131 1.40758 19.2533 0 24 0C30.3631 0.00671958 36.4637 2.53744 40.9631 7.03686C45.4626 11.5363 47.9933 17.6369 48 24ZM44.3077 24C44.3077 19.9835 43.1167 16.0572 40.8852 12.7176C38.6538 9.37807 35.4822 6.77518 31.7714 5.23814C28.0607 3.7011 23.9775 3.29894 20.0382 4.08251C16.0989 4.86609 12.4804 6.80021 9.6403 9.64029C6.80022 12.4804 4.8661 16.0989 4.08252 20.0382C3.29895 23.9775 3.70111 28.0607 5.23815 31.7714C6.77519 35.4822 9.37808 38.6538 12.7177 40.8852C16.0572 43.1167 19.9835 44.3077 24 44.3077C29.3841 44.3016 34.5459 42.1601 38.353 38.353C42.1601 34.5458 44.3016 29.3841 44.3077 24Z" fill="#F4B35D"/>
</svg>