<svg width="24" height="24" viewBox="0 0 24 24" fill="none" xmlns="http://www.w3.org/2000/svg">
<path d="M23.8858 9.57432C23.9994 9.30016 24.0291 8.99848 23.9711 8.70745C23.9132 8.41642 23.7702 8.14911 23.5603 7.93934L16.0604 0.439453L13.9395 2.56042L18.8789 7.49985H0.000173777V10.4998H22.4998C22.7965 10.4999 23.0865 10.412 23.3332 10.2473C23.5799 10.0825 23.7722 9.84835 23.8858 9.57432ZM0.114172 14.4252C0.000616888 14.6994 -0.0290695 15.0011 0.0288701 15.2921C0.0868098 15.5832 0.229772 15.8505 0.439668 16.0602L7.93956 23.5601L10.0605 21.4391L5.1211 16.4997H23.9998V13.4998H1.50015C1.20346 13.4995 0.91337 13.5873 0.666633 13.7521C0.419896 13.9168 0.227621 14.1511 0.114172 14.4252Z" fill="white"/>
</svg>
