<svg width="110" height="110" viewBox="0 0 110 110" fill="none" xmlns="http://www.w3.org/2000/svg">
<circle cx="55" cy="55" r="55" fill="#EAEEFC"/>
<rect x="36" y="36" width="38" height="38" rx="9" fill="#EAEEFC" stroke="#3363F2" stroke-width="2"/>
<path d="M58.4448 58.0026C57.2146 57.9854 56.7766 57.4662 55.6146 55.9167C54.4526 54.3672 53.2094 54.4396 52.7844 54.9058C52.4302 55.2933 54.5193 59.8417 55.1427 60.5662C55.4394 60.9246 55.7603 61.2622 56.1032 61.5766C56.1032 61.5766 56.0808 63.7459 56.0136 65.3125M61.7969 64.9292C61.529 63.5816 61.3322 62.2209 61.2073 60.8526C61.2412 60.6839 61.2203 58.4266 61.2052 57.8875C61.1901 57.3485 60.6177 52.8 60.2302 51.9407C59.8427 51.0813 58.4448 49.9526 58.4448 49.9526" stroke="#3363F2" stroke-linecap="round" stroke-linejoin="round"/>
<path d="M54.9505 60.2969H49.2016C49.0437 60.2969 48.8874 60.2658 48.7416 60.2054C48.5958 60.1449 48.4633 60.0564 48.3517 59.9448C48.2402 59.8331 48.1517 59.7006 48.0913 59.5548C48.031 59.4089 47.9999 59.2526 48 59.0948V46.2016C48 45.8829 48.1266 45.5773 48.3519 45.3519C48.5773 45.1266 48.8829 45 49.2016 45H57.2432C57.5619 45 57.8675 45.1266 58.0929 45.3519C58.3182 45.5773 58.4448 45.8829 58.4448 46.2016V58.0026M48 47.1729H58.4448M48 58.1234H53.8266" stroke="#3363F2" stroke-linecap="round" stroke-linejoin="round"/>
<path d="M56.1849 53.0459C56.4007 53.0459 56.5756 52.871 56.5756 52.6553C56.5756 52.4395 56.4007 52.2646 56.1849 52.2646C55.9692 52.2646 55.7943 52.4395 55.7943 52.6553C55.7943 52.871 55.9692 53.0459 56.1849 53.0459Z" fill="#3363F2"/>
<path d="M54.2902 53.0459C54.5059 53.0459 54.6808 52.871 54.6808 52.6553C54.6808 52.4395 54.5059 52.2646 54.2902 52.2646C54.0744 52.2646 53.8995 52.4395 53.8995 52.6553C53.8995 52.871 54.0744 53.0459 54.2902 53.0459Z" fill="#3363F2"/>
<path d="M52.3959 53.0459C52.6116 53.0459 52.7865 52.871 52.7865 52.6553C52.7865 52.4395 52.6116 52.2646 52.3959 52.2646C52.1801 52.2646 52.0052 52.4395 52.0052 52.6553C52.0052 52.871 52.1801 53.0459 52.3959 53.0459Z" fill="#3363F2"/>
</svg>
