<svg width="24" height="25" viewBox="0 0 24 25" fill="none" xmlns="http://www.w3.org/2000/svg">
<path d="M23.9757 5.8305C23.9568 5.61753 23.8166 5.43467 23.6157 5.36123C23.4149 5.28779 23.1899 5.33697 23.038 5.48754L19.9368 8.58623L16.5024 7.49981L15.4111 4.06287L18.5123 0.959333C18.6611 0.807761 18.7096 0.584087 18.6368 0.384324C18.5642 0.184737 18.3832 0.0445437 18.1717 0.0239648C15.9871 -0.165751 13.8581 0.780308 12.5347 2.52889C11.2114 4.2773 10.8793 6.58316 11.6552 8.63403C11.5617 8.71316 11.4682 8.79714 11.377 8.88581L1.02076 18.6519C0.390376 19.2249 0.0218406 20.0309 0.000940545 20.8828C-0.0199715 21.7345 0.3086 22.5576 0.91018 23.1609C1.51178 23.7641 2.33404 24.0949 3.18593 24.0763C4.03765 24.0577 4.84466 23.6914 5.4195 23.0625L5.43389 23.0481L15.1139 12.6199C15.1984 12.5321 15.2783 12.4401 15.3536 12.344C17.4055 13.1253 19.7152 12.7961 21.4669 11.4724C23.2188 10.1489 24.1666 8.01737 23.9758 5.83023L23.9757 5.8305ZM3.86065 21.763C3.64534 21.9786 3.35305 22.0997 3.04824 22.0999C2.7436 22.1001 2.45118 21.9791 2.23567 21.7636C2.02016 21.5481 1.89907 21.2559 1.89907 20.951C1.89907 20.6462 2.02019 20.354 2.23567 20.1385C2.45114 19.9232 2.74357 19.802 3.04824 19.8022C3.35306 19.8024 3.64531 19.9235 3.86065 20.1391C4.07579 20.3546 4.19675 20.6466 4.19675 20.951C4.19675 21.2555 4.0758 21.5475 3.86065 21.7629V21.763Z" fill="#9D9D9D"/>
</svg>
