<svg width="24" height="24" viewBox="0 0 24 24" fill="none" xmlns="http://www.w3.org/2000/svg">
<g clip-path="url(#clip0_21_6690)">
<path d="M7.63634 12H16.3636H7.63634ZM12 16.3636V7.63637V16.3636ZM8.72725 22.9091H15.2727C20.7272 22.9091 22.9091 20.7273 22.9091 15.2727V8.72728C22.9091 3.27273 20.7272 1.09091 15.2727 1.09091H8.72725C3.2727 1.09091 1.09088 3.27273 1.09088 8.72728V15.2727C1.09088 20.7273 3.2727 22.9091 8.72725 22.9091Z" fill="white"/>
<path d="M7.63634 12H16.3636M12 16.3636V7.63637M8.72725 22.9091H15.2727C20.7272 22.9091 22.9091 20.7273 22.9091 15.2727V8.72728C22.9091 3.27273 20.7272 1.09091 15.2727 1.09091H8.72725C3.2727 1.09091 1.09088 3.27273 1.09088 8.72728V15.2727C1.09088 20.7273 3.2727 22.9091 8.72725 22.9091Z" stroke="#9BACF2" stroke-width="1.5" stroke-linecap="round" stroke-linejoin="round"/>
</g>
<defs>
<clipPath id="clip0_21_6690">
<rect width="24" height="24" fill="white"/>
</clipPath>
</defs>
</svg>
