<svg width="24" height="24" viewBox="0 0 24 24" fill="none" xmlns="http://www.w3.org/2000/svg">
<g clip-path="url(#clip0_429_4155)">
<path d="M13.125 16.6875H20.25V18.5625H13.125V16.6875Z" fill="#1F4FDE"/>
<path d="M13.125 5.4375H20.25V7.3125H13.125V5.4375Z" fill="#1F4FDE"/>
<path d="M5.46375 7.3125H7.96875L10.7812 11.0625H24V1.6875H10.7812L7.96875 5.4375H5.46375C5.18081 4.63978 4.54772 4.00669 3.75 3.72375V0H1.875V3.72375C0.783844 4.1108 0 5.15283 0 6.375C0 7.59717 0.783844 8.6392 1.875 9.02625V14.9738C0.783844 15.3608 0 16.4028 0 17.625C0 18.8472 0.783844 19.8892 1.875 20.2762V24H3.75V20.2762C4.54772 19.9933 5.18081 19.3603 5.46375 18.5625H7.96875L10.7812 22.3125H24V12.9375H10.7812L7.96875 16.6875H5.46375C5.18081 15.8897 4.54777 15.2567 3.75 14.9738V9.02625C4.54772 8.74331 5.18081 8.11022 5.46375 7.3125ZM11.7188 3.5625H22.125V9.1875H11.7188L9.60938 6.375L11.7188 3.5625ZM2.8125 5.4375C3.32944 5.4375 3.75 5.85806 3.75 6.375C3.75 6.89194 3.32944 7.3125 2.8125 7.3125C2.29556 7.3125 1.875 6.89194 1.875 6.375C1.875 5.85806 2.29556 5.4375 2.8125 5.4375ZM2.8125 18.5625C2.29556 18.5625 1.875 18.1419 1.875 17.625C1.875 17.1081 2.29556 16.6875 2.8125 16.6875C3.32944 16.6875 3.75 17.1081 3.75 17.625C3.75 18.1419 3.32944 18.5625 2.8125 18.5625ZM11.7188 14.8125H22.125V20.4375H11.7188L9.60938 17.625L11.7188 14.8125Z" fill="#1F4FDE"/>
</g>
<defs>
<clipPath id="clip0_429_4155">
<rect width="24" height="24" fill="white"/>
</clipPath>
</defs>
</svg>
