<svg xmlns="http://www.w3.org/2000/svg" width="16" height="16" viewBox="0 0 16 16">
  <g id="Layer_2" data-name="Layer 2" transform="translate(2.005 -8)">
    <path id="Path_1235" data-name="Path 1235" d="M16.568,4.1C15.424,2.8,12.97,2,9.995,2s-5.429.8-6.573,2.1c-1.9,2.208-1.9,9.6,0,11.792C4.566,17.2,7.02,18,9.995,18s5.429-.8,6.573-2.1c1.9-2.208,1.9-9.584,0-11.792ZM9.995,5.8a1,1,0,1,1-1,1A1,1,0,0,1,9.995,5.8Zm.8,8.6H9.2a.8.8,0,0,1,0-1.6V10.4a.8.8,0,0,1,0-1.6h.8a.8.8,0,0,1,.8.8v3.2a.8.8,0,0,1,0,1.6Z" transform="translate(-4 6)" fill="#d87d44"/>
  </g>
</svg>
