<svg width="24" height="16" viewBox="0 0 24 16" fill="none" xmlns="http://www.w3.org/2000/svg">
<path d="M17.6233 0L15.9666 1.44L18.93 4H7.60165C5.74513 4 3.96466 4.63214 2.6519 5.75736C1.33915 6.88258 0.601648 8.4087 0.601648 10C0.601648 11.5913 1.33915 13.1174 2.6519 14.2426C3.96466 15.3679 5.74513 16 7.60165 16H9.93498V14H7.60165C6.36397 14 5.17699 13.5786 4.30182 12.8284C3.42665 12.0783 2.93498 11.0609 2.93498 10C2.93498 8.93913 3.42665 7.92172 4.30182 7.17157C5.17699 6.42143 6.36397 6 7.60165 6H18.93L15.9666 8.51L17.6233 9.92L23.3983 5L17.6233 0Z" fill="#9BACF2"/>
</svg>
