<svg width="24" height="24" viewBox="0 0 24 24" fill="none" xmlns="http://www.w3.org/2000/svg">
<path d="M13.1667 12.0001C12.8362 12.0001 12.5589 11.8881 12.3349 11.6641C12.1109 11.4401 11.9993 11.1632 12.0001 10.8334V3.83339C12.0001 3.50284 12.1121 3.22556 12.3361 3.00156C12.5601 2.77756 12.8369 2.66595 13.1667 2.66672C13.4973 2.66672 13.7746 2.77872 13.9986 3.00272C14.2226 3.22672 14.3342 3.50361 14.3334 3.83339V8.03339L21.2167 1.15006C21.4306 0.936168 21.7028 0.829224 22.0334 0.829224C22.3639 0.829224 22.6362 0.936168 22.8501 1.15006C23.0639 1.36395 23.1709 1.63617 23.1709 1.96672C23.1709 2.29728 23.0639 2.5695 22.8501 2.78339L15.9667 9.66672H20.1667C20.4973 9.66672 20.7746 9.77872 20.9986 10.0027C21.2226 10.2267 21.3342 10.5036 21.3334 10.8334C21.3334 11.1639 21.2214 11.4412 20.9974 11.6652C20.7734 11.8892 20.4965 12.0008 20.1667 12.0001H13.1667ZM1.15006 22.8501C0.936168 22.6362 0.829224 22.3639 0.829224 22.0334C0.829224 21.7028 0.936168 21.4306 1.15006 21.2167L8.03339 14.3334H3.83339C3.50284 14.3334 3.22556 14.2214 3.00156 13.9974C2.77756 13.7734 2.66595 13.4965 2.66672 13.1667C2.66672 12.8362 2.77872 12.5589 3.00272 12.3349C3.22672 12.1109 3.50361 11.9993 3.83339 12.0001H10.8334C11.1639 12.0001 11.4412 12.1121 11.6652 12.3361C11.8892 12.5601 12.0008 12.8369 12.0001 13.1667V20.1667C12.0001 20.4973 11.8881 20.7746 11.6641 20.9986C11.4401 21.2226 11.1632 21.3342 10.8334 21.3334C10.5028 21.3334 10.2256 21.2214 10.0016 20.9974C9.77756 20.7734 9.66595 20.4965 9.66672 20.1667V15.9667L2.78339 22.8501C2.5695 23.0639 2.29728 23.1709 1.96672 23.1709C1.63617 23.1709 1.36395 23.0639 1.15006 22.8501Z" fill="#9BACF2"/>
</svg>
