<svg width="24" height="24" viewBox="0 0 24 24" fill="none" xmlns="http://www.w3.org/2000/svg">
<g clip-path="url(#clip0_429_4160)">
<path d="M23.2969 3.51562H23.0625V2.10938C23.0625 0.946266 22.1162 0 20.9531 0H11.5781C10.415 0 9.46875 0.946266 9.46875 2.10938V9.14062C9.46875 10.3037 10.415 11.25 11.5781 11.25H20.9531C22.1162 11.25 23.0625 10.3037 23.0625 9.14062V7.73438H23.2969C23.6852 7.73438 24 7.41956 24 7.03125V4.21875C24 3.83044 23.6852 3.51562 23.2969 3.51562ZM21.6562 9.14062C21.6562 9.52833 21.3408 9.84375 20.9531 9.84375H11.5781C11.1904 9.84375 10.875 9.52833 10.875 9.14062V2.10938C10.875 1.72167 11.1904 1.40625 11.5781 1.40625H20.9531C21.3408 1.40625 21.6562 1.72167 21.6562 2.10938V3.51562H20.9531C19.79 3.51562 18.8438 4.46189 18.8438 5.625C18.8438 6.78811 19.79 7.73438 20.9531 7.73438H21.6562V9.14062ZM22.5938 6.32812H20.9531C20.5654 6.32812 20.25 6.0127 20.25 5.625C20.25 5.2373 20.5654 4.92188 20.9531 4.92188H22.5938V6.32812Z" fill="#1F4FDE"/>
<path d="M13.8281 16.2656H13.5938V14.8594C13.5938 13.6963 12.6475 12.75 11.4844 12.75H2.10938C0.946266 12.75 0 13.6963 0 14.8594V21.8906C0 23.0537 0.946266 24 2.10938 24H11.4844C12.6475 24 13.5938 23.0537 13.5938 21.8906V20.4844H13.8281C14.2164 20.4844 14.5312 20.1696 14.5312 19.7812V16.9688C14.5312 16.5804 14.2164 16.2656 13.8281 16.2656ZM12.1875 21.8906C12.1875 22.2783 11.8721 22.5938 11.4844 22.5938H2.10938C1.72167 22.5938 1.40625 22.2783 1.40625 21.8906V14.8594C1.40625 14.4717 1.72167 14.1562 2.10938 14.1562H11.4844C11.8721 14.1562 12.1875 14.4717 12.1875 14.8594V16.2656H11.4844C10.3213 16.2656 9.375 17.2119 9.375 18.375C9.375 19.5381 10.3213 20.4844 11.4844 20.4844H12.1875V21.8906ZM13.125 19.0781H11.4844C11.0967 19.0781 10.7812 18.7627 10.7812 18.375C10.7812 17.9873 11.0967 17.6719 11.4844 17.6719H13.125V19.0781Z" fill="#1F4FDE"/>
<path d="M19.5 12.9844C19.1117 12.9844 18.7969 13.2992 18.7969 13.6875V17.6719H16.6875C16.2992 17.6719 15.9844 17.9867 15.9844 18.375C15.9844 18.7633 16.2992 19.0781 16.6875 19.0781H19.5C19.8883 19.0781 20.2031 18.7633 20.2031 18.375V13.6875C20.2031 13.2992 19.8883 12.9844 19.5 12.9844Z" fill="#1F4FDE"/>
<path d="M4.5 11.0156C4.88831 11.0156 5.20312 10.7008 5.20312 10.3125V6.32812H7.3125C7.70081 6.32812 8.01562 6.01331 8.01562 5.625C8.01562 5.23669 7.70081 4.92188 7.3125 4.92188H4.5C4.11169 4.92188 3.79688 5.23669 3.79688 5.625V10.3125C3.79688 10.7008 4.11169 11.0156 4.5 11.0156Z" fill="#1F4FDE"/>
</g>
<defs>
<clipPath id="clip0_429_4160">
<rect width="24" height="24" fill="white"/>
</clipPath>
</defs>
</svg>
