<svg width="30" height="29" viewBox="0 0 30 29" fill="none" xmlns="http://www.w3.org/2000/svg">
<path d="M23.0769 25.3846C23.0769 25.0721 22.9627 24.8017 22.7344 24.5733C22.506 24.345 22.2356 24.2308 21.9231 24.2308C21.6106 24.2308 21.3401 24.345 21.1118 24.5733C20.8834 24.8017 20.7692 25.0721 20.7692 25.3846C20.7692 25.6971 20.8834 25.9675 21.1118 26.1959C21.3401 26.4243 21.6106 26.5385 21.9231 26.5385C22.2356 26.5385 22.506 26.4243 22.7344 26.1959C22.9627 25.9675 23.0769 25.6971 23.0769 25.3846ZM27.6923 25.3846C27.6923 25.0721 27.5781 24.8017 27.3498 24.5733C27.1214 24.345 26.851 24.2308 26.5385 24.2308C26.226 24.2308 25.9555 24.345 25.7272 24.5733C25.4988 24.8017 25.3846 25.0721 25.3846 25.3846C25.3846 25.6971 25.4988 25.9675 25.7272 26.1959C25.9555 26.4243 26.226 26.5385 26.5385 26.5385C26.851 26.5385 27.1214 26.4243 27.3498 26.1959C27.5781 25.9675 27.6923 25.6971 27.6923 25.3846ZM30 21.3462V27.1154C30 27.5962 29.8317 28.0048 29.4952 28.3413C29.1587 28.6779 28.75 28.8462 28.2692 28.8462H1.73077C1.25 28.8462 0.841346 28.6779 0.504808 28.3413C0.168269 28.0048 0 27.5962 0 27.1154V21.3462C0 20.8654 0.168269 20.4567 0.504808 20.1202C0.841346 19.7837 1.25 19.6154 1.73077 19.6154H9.42909C9.68149 20.2885 10.1052 20.8413 10.7001 21.274C11.2951 21.7067 11.9591 21.9231 12.6923 21.9231H17.3077C18.0409 21.9231 18.7049 21.7067 19.2999 21.274C19.8948 20.8413 20.3185 20.2885 20.5709 19.6154H28.2692C28.75 19.6154 29.1587 19.7837 29.4952 20.1202C29.8317 20.4567 30 20.8654 30 21.3462ZM24.1406 9.66346C23.9363 10.1442 23.5817 10.3846 23.0769 10.3846H18.4615V18.4615C18.4615 18.774 18.3474 19.0445 18.119 19.2728C17.8906 19.5012 17.6202 19.6154 17.3077 19.6154H12.6923C12.3798 19.6154 12.1094 19.5012 11.881 19.2728C11.6526 19.0445 11.5385 18.774 11.5385 18.4615V10.3846H6.92308C6.41827 10.3846 6.0637 10.1442 5.85938 9.66346C5.65505 9.19471 5.73918 8.78005 6.11178 8.41947L14.1887 0.342548C14.405 0.114183 14.6755 0 15 0C15.3245 0 15.595 0.114183 15.8113 0.342548L23.8882 8.41947C24.2608 8.78005 24.345 9.19471 24.1406 9.66346Z" fill="#7892DF"/>
</svg>
