<svg width="33" height="36" viewBox="0 0 33 36" fill="none" xmlns="http://www.w3.org/2000/svg">
<path d="M9.03065 0H3.89016C1.74512 0 0 1.74512 0 3.89017V10.8141C0 12.9591 1.74512 14.7042 3.89016 14.7042H9.03065C11.1757 14.7042 12.9211 12.9591 12.9211 10.8141V3.89017C12.9211 1.74512 11.1757 0 9.03065 0ZM11.2249 10.8142C11.2249 12.0241 10.2405 13.0082 9.03065 13.0082H3.89016C2.68031 13.0082 1.6962 12.0241 1.6962 10.8142V3.8903C1.6962 2.68044 2.68031 1.69633 3.89016 1.69633H9.03065C10.2405 1.69633 11.2249 2.68044 11.2249 3.8903V10.8142Z" fill="white"/>
<path d="M9.03065 16.6798H3.89016C1.74512 16.6798 0 18.4252 0 20.5702V32.1099C0 34.2549 1.74512 36 3.89016 36H9.03065C11.1757 36 12.9211 34.2549 12.9211 32.1099V20.5702C12.9211 18.4252 11.1757 16.6798 9.03065 16.6798ZM11.2249 32.1097C11.2249 33.3196 10.2405 34.3037 9.03065 34.3037H3.89016C2.68031 34.3037 1.6962 33.3196 1.6962 32.1097V20.5701C1.6962 19.3603 2.68031 18.3759 3.89016 18.3759H9.03065C10.2405 18.3759 11.2249 19.3603 11.2249 20.5701V32.1097Z" fill="white"/>
<path d="M28.2283 21.2955H23.0878C20.9428 21.2955 19.1974 23.0407 19.1974 25.1857V32.1096C19.1974 34.2547 20.9428 35.9998 23.0878 35.9998H28.2283C30.3734 35.9998 32.1185 34.2547 32.1185 32.1096V25.1857C32.1185 23.0407 30.3734 21.2955 28.2283 21.2955ZM30.4223 32.1097C30.4223 33.3196 29.4382 34.3037 28.2283 34.3037H23.0878C21.878 34.3037 20.8936 33.3196 20.8936 32.1097V25.1858C20.8936 23.976 21.878 22.9919 23.0878 22.9919H28.2283C29.4382 22.9919 30.4223 23.976 30.4223 25.1858V32.1097Z" fill="white"/>
<path d="M28.2283 0H23.0878C20.9428 0 19.1974 1.74512 19.1974 3.89017V15.4298C19.1974 17.5748 20.9428 19.3202 23.0878 19.3202H28.2283C30.3734 19.3202 32.1185 17.5748 32.1185 15.4298V3.89017C32.1185 1.74512 30.3734 0 28.2283 0ZM30.4223 15.4299C30.4223 16.6398 29.4382 17.6242 28.2283 17.6242H23.0878C21.878 17.6242 20.8936 16.6398 20.8936 15.4299V3.8903C20.8936 2.68044 21.878 1.69633 23.0878 1.69633H28.2283C29.4382 1.69633 30.4223 2.68044 30.4223 3.8903V15.4299Z" fill="white"/>
</svg>
