<svg xmlns="http://www.w3.org/2000/svg" width="23.984" height="24" viewBox="0 0 23.984 24">
  <g id="Group_6829" data-name="Group 6829" transform="translate(-12 -8047)">
    <path id="trash" d="M25.312,5.94H20.934c-1.107,0-1.155-.14-1.459-1.05l-.246-.747A2.761,2.761,0,0,0,16.6,2.25H11.882A2.761,2.761,0,0,0,9.257,4.143l-.246.747c-.3.91-.352,1.05-1.459,1.05H3.172a.922.922,0,0,0,0,1.845h1.6l.943,14.144a4.236,4.236,0,0,0,4.6,4.3h7.854a4.236,4.236,0,0,0,4.6-4.3l.938-14.144h1.6a.922.922,0,0,0,0-1.845Zm-14.3-1.214a.92.92,0,0,1,.874-.631H16.6a.92.92,0,0,1,.874.631l.246.747c.053.161.108.317.167.467h-7.3c.059-.151.114-.307.167-.467ZM20.93,21.8a2.427,2.427,0,0,1-2.761,2.583H10.315A2.427,2.427,0,0,1,7.554,21.8L6.616,7.785h.931c.154,0,.28-.016.419-.026a.808.808,0,0,0,.125.026h12.3a.808.808,0,0,0,.123-.026c.139.01.266.026.419.026h.934Zm-3.306-8.793v6.15a.922.922,0,1,1-1.845,0v-6.15a.922.922,0,0,1,1.845,0Zm-4.92,0v6.15a.922.922,0,0,1-1.845,0v-6.15a.922.922,0,0,1,1.845,0Z" transform="translate(9.75 8044.75)" fill="#bc4d4d"/>
  </g>
</svg>
