<svg id="eye-off" xmlns="http://www.w3.org/2000/svg" width="18.003" height="18.003" viewBox="0 0 18.003 18.003">
  <path id="Line_2" data-name="Line 2" d="M15.018,16.253a1.232,1.232,0,0,1-.874-.362L-1.388.359a1.236,1.236,0,0,1,0-1.747,1.236,1.236,0,0,1,1.747,0L15.892,14.144a1.236,1.236,0,0,1-.874,2.109Z" transform="translate(1.75 1.75)" fill="#9e9e9e"/>
  <g id="eye" transform="translate(0 2.118)">
    <path id="Path_3" data-name="Path 3" d="M8.252,2.25c5.641,0,8.742,6.073,8.871,6.331a1.236,1.236,0,0,1,0,1.105c-.129.259-3.23,6.331-8.871,6.331S-.49,9.945-.62,9.686a1.236,1.236,0,0,1,0-1.105C-.49,8.323,2.611,2.25,8.252,2.25ZM14.6,9.136c-.8-1.293-3.073-4.415-6.343-4.415A6.66,6.66,0,0,0,3.417,7.155,12.652,12.652,0,0,0,1.908,9.132c.8,1.293,3.073,4.415,6.343,4.415a6.66,6.66,0,0,0,4.835-2.434A12.652,12.652,0,0,0,14.6,9.136Z" transform="translate(0.75 -2.25)" fill="#2a51d6"/>
    <path id="Ellipse_3" data-name="Ellipse 3" d="M1.6-1.75A3.354,3.354,0,1,1-1.75,1.6,3.357,3.357,0,0,1,1.6-1.75Zm0,4.236A.883.883,0,1,0,.721,1.6.884.884,0,0,0,1.6,2.486Z" transform="translate(7.398 5.28)" fill="#2a51d6"/>
  </g>
  <g id="eye-2" data-name="eye" transform="translate(0 2.118)">
    <path id="Path_3-2" data-name="Path 3" d="M8.252,2.25c5.641,0,8.742,6.073,8.871,6.331a1.236,1.236,0,0,1,0,1.105c-.129.259-3.23,6.331-8.871,6.331S-.49,9.945-.62,9.686a1.236,1.236,0,0,1,0-1.105C-.49,8.323,2.611,2.25,8.252,2.25ZM14.6,9.136c-.8-1.293-3.073-4.415-6.343-4.415A6.66,6.66,0,0,0,3.417,7.155,12.652,12.652,0,0,0,1.908,9.132c.8,1.293,3.073,4.415,6.343,4.415a6.66,6.66,0,0,0,4.835-2.434A12.652,12.652,0,0,0,14.6,9.136Z" transform="translate(0.75 -2.25)" fill="#9e9e9e"/>
    <path id="Ellipse_3-2" data-name="Ellipse 3" d="M1.6-1.75A3.354,3.354,0,1,1-1.75,1.6,3.357,3.357,0,0,1,1.6-1.75Zm0,4.236A.883.883,0,1,0,.721,1.6.884.884,0,0,0,1.6,2.486Z" transform="translate(7.398 5.28)" fill="#9e9e9e"/>
  </g>
</svg>
