<svg width="53" height="21" viewBox="0 0 53 21" fill="none" xmlns="http://www.w3.org/2000/svg">
<path d="M14.2017 0H7.38002V5.11646C7.38002 6.35677 6.35677 7.38002 5.11646 7.38002H0V18.0467C0 19.0389 0.806201 19.8451 1.79845 19.8451H14.2016C15.1938 19.8451 16 19.0389 16 18.0467V1.79863C16 0.806379 15.1938 0.000177187 14.2016 0.000177187L14.2017 0ZM4.15522 17.6124H2.94591V13.7054H4.15522V17.6124ZM7.13196 17.6124H5.92266V12.2479H7.13196V17.6124ZM10.0777 17.6124H8.86839V10.7595H10.0777V17.6124ZM13.0234 17.6124H11.8141V9.27114H13.0234V17.6124ZM14.2017 6.32558H9.3957V5.11628H14.2017V6.32558ZM14.2017 3.47287H9.3957V2.26357H14.2017V3.47287Z" fill="#9D9D9D"/>
<path d="M6.75968 5.11645V0.186399L0.186035 6.76004H5.11609C6.01531 6.76004 6.7595 6.01586 6.7595 5.11663L6.75968 5.11645Z" fill="#9D9D9D"/>
<circle cx="41.625" cy="9.625" r="6.125" stroke="#AAAAAA" stroke-width="2"/>
<path d="M49.5 17.5L46.875 14.875" stroke="#AAAAAA" stroke-width="2" stroke-linecap="round"/>
</svg>
