<svg width="25" height="23" viewBox="0 0 25 23" fill="none" xmlns="http://www.w3.org/2000/svg">
<path d="M23.5498 0H1.11634C0.41673 0 0.0684488 0.852891 0.569496 1.34231L8.52419 9.11316V21.3282C8.52419 21.9872 9.28787 22.3459 9.79595 21.939L15.8495 17.0906C16.035 16.9421 16.1429 16.7174 16.1429 16.4798V9.11316L24.0966 1.34236C24.5971 0.853453 24.2501 0 23.5498 0ZM14.8134 8.22389C14.6627 8.37113 14.5777 8.57292 14.5777 8.78363V16.104L10.0892 19.6988V8.78363C10.0892 8.57292 10.0043 8.37113 9.85356 8.22389L3.03728 1.56516H21.6289L14.8134 8.22389Z" fill="#686868"/>
</svg>
