<svg width="20" height="20" viewBox="0 0 20 20" fill="none" xmlns="http://www.w3.org/2000/svg">
<path d="M14.8 5.19981C14.8 5.64231 14.4425 5.9998 14 5.9998H5.99999C5.55749 5.9998 5.19999 5.64231 5.19999 5.19981V1.7998H1.79999V18.1998H18.2V5.7448L14.8 2.3448V5.19981ZM9.99999 15.4498C8.01249 15.4498 6.39999 13.8373 6.39999 11.8498C6.39999 9.86231 8.01249 8.24981 9.99999 8.24981C11.9875 8.24981 13.6 9.86231 13.6 11.8498C13.6 13.8373 11.9875 15.4498 9.99999 15.4498Z" fill="white" fill-opacity="0.15"/>
<path d="M10 8.25C8.01252 8.25 6.40002 9.8625 6.40002 11.85C6.40002 13.8375 8.01252 15.45 10 15.45C11.9875 15.45 13.6 13.8375 13.6 11.85C13.6 9.8625 11.9875 8.25 10 8.25ZM10 13.85C8.89502 13.85 8.00002 12.955 8.00002 11.85C8.00002 10.745 8.89502 9.85 10 9.85C11.105 9.85 12 10.745 12 11.85C12 12.955 11.105 13.85 10 13.85Z" fill="white"/>
<path d="M19.5325 4.5325L15.4675 0.4675C15.45 0.45 15.4325 0.435 15.415 0.4175C15.4125 0.415 15.4075 0.4125 15.405 0.41C15.3875 0.3925 15.3675 0.3775 15.35 0.3625C15.1876 0.229908 15.0007 0.130524 14.8 0.0700001V0H0.8C0.3575 0 0 0.3575 0 0.8V19.2C0 19.6425 0.3575 20 0.8 20H19.2C19.6425 20 20 19.6425 20 19.2V5.6625C20 5.2375 19.8325 4.8325 19.5325 4.5325ZM6.8 1.8H13.2V4.4H6.8V1.8ZM18.2 18.2H1.8V1.8H5.2V5.2C5.2 5.6425 5.5575 6 6 6H14C14.4425 6 14.8 5.6425 14.8 5.2V2.345L18.2 5.745V18.2Z" fill="white"/>
</svg>
