<?xml version="1.0" encoding="UTF-8"?>
<svg id="Layer_2" data-name="Layer 2" xmlns="http://www.w3.org/2000/svg" viewBox="0 0 350.04 110.56">
  <defs>
    <style>
      .cls-1 {
        fill: #7259ff;
      }

      .cls-1, .cls-2 {
        stroke-width: 0px;
      }

      .cls-2 {
        fill: #1a1a3a;
      }
    </style>
  </defs>
  <g id="Layer_1-2" data-name="Layer 1">
    <g>
      <g>
        <rect class="cls-1" x="75.64" y="23.05" width="30.87" height="15.54" transform="translate(121.9 -60.25) rotate(90)"/>
        <rect class="cls-1" x="55.42" y="0" width="16.15" height="46.26"/>
      </g>
      <polygon class="cls-2" points="98.85 57.39 98.85 83.42 83.42 98.85 15.43 98.85 0 83.42 0 15.42 15.43 0 43.71 0 43.71 15.42 15.43 15.42 15.43 83.42 83.42 83.42 83.42 57.39 98.85 57.39"/>
      <g>
        <g>
          <path class="cls-2" d="M241.6,90.68l.03,8.19s-7.99.96-10.65.96c-5.89,0-10.61-1.75-14.14-5.26-3.53-3.51-5.3-7.93-5.3-13.26s1.74-9.69,5.23-13.23c3.48-3.53,7.96-5.3,13.44-5.3,5.1,0,9.34,1.77,12.74,5.3,3.39,3.53,5.09,7.94,5.09,13.23,0,1.5-.14,2.9-.42,4.21h-24.91c1.22,3.28,4.2,5.09,8.6,5.09l10.29.08ZM222.49,77.65h15.09c-1.03-3.69-3.51-5.54-7.44-5.54s-6.62,1.85-7.65,5.54Z"/>
          <path class="cls-2" d="M293.3,62.77c4.02,0,7.25,1.32,9.68,3.96,2.43,2.64,3.65,6.16,3.65,10.56v21.54h-10.53v-20.63c0-1.78-.43-3.18-1.3-4.21-.87-1.03-2.12-1.54-3.75-1.54-1.73,0-3.08.59-4.03,1.75-.96,1.17-1.44,2.78-1.44,4.84v19.79h-10.53v-20.63c0-1.78-.43-3.18-1.3-4.21-.87-1.03-2.12-1.54-3.75-1.54-1.73,0-3.08.59-4.03,1.75-.96,1.17-1.44,2.78-1.44,4.84v19.79h-10.53v-35.8h10.53v3.95c1.92-2.81,5.05-4.21,9.4-4.21,4.07,0,7.13,1.54,9.19,4.63,2.15-3.09,5.54-4.63,10.17-4.63Z"/>
          <path class="cls-2" d="M143.91,63.04c-4.63,0-8.53,1.56-11.7,4.68-3.16,3.12-4.75,6.95-4.75,11.49s1.58,8.37,4.75,11.49c3.16,3.12,7.07,5.05,11.7,5.05,1.29-.02,2.99-.14,4.44-.78,2.44-1.07,4.02-2.85,4.02-2.85v3.7h9.49v-32.79h-17.96ZM152.37,86.5h-8.46c-2.01,0-3.69-.7-5.02-2.1-1.33-1.4-1.99-3.13-1.99-5.2s.67-3.85,1.99-5.23c1.33-1.38,3.01-2.06,5.02-2.06h8.46v14.59Z"/>
          <polygon class="cls-2" points="152.37 63.04 152.37 63.76 152.37 67.06 152.37 95.54 152.37 110.56 161.87 110.56 162.23 110.56 162.23 63.04 152.37 63.04"/>
          <path class="cls-2" d="M186.11,62.91c-4.79,0-8.82,1.7-12.1,5.11-3.27,3.41-4.91,7.59-4.91,12.55s1.64,9.14,4.91,12.55c3.27,3.41,7.01,5.32,11.8,5.32,1.34-.02,3.1-.16,4.59-.85,2.53-1.17,4.46-2.91,4.46-2.91v4.04h9.82v-35.8h-18.57ZM194.86,88.53h-8.75c-2.08,0-3.82-.76-5.19-2.29-1.37-1.53-2.06-3.42-2.06-5.67s.69-4.21,2.06-5.71c1.38-1.5,3.11-2.25,5.19-2.25h8.75v15.93Z"/>
          <rect class="cls-2" x="194.82" y="62.91" width="9.86" height="35.8"/>
          <g>
            <path class="cls-2" d="M331.24,62.91c-4.79,0-8.82,1.7-12.1,5.11-3.27,3.41-4.91,7.59-4.91,12.55s1.64,9.14,4.91,12.55c3.27,3.41,7.01,5.32,11.8,5.32,1.34-.02,3.1-.16,4.59-.85,2.53-1.17,4.46-2.91,4.46-2.91v4.04h9.82v-35.8h-18.57ZM340,88.53h-8.75c-2.08,0-3.82-.76-5.19-2.29-1.37-1.53-2.06-3.42-2.06-5.67s.69-4.21,2.06-5.71c1.38-1.5,3.11-2.25,5.19-2.25h8.75v15.93Z"/>
            <rect class="cls-2" x="339.96" y="62.91" width="9.86" height="35.8"/>
          </g>
        </g>
        <g>
          <path class="cls-2" d="M202.48,46.26h83.49V14.24h-9.86v22.21h-73.63v9.81Z"/>
          <polygon class="cls-2" points="349.82 46.26 349.82 36.45 301.8 36.45 301.8 0 291.94 0 291.94 46.26 349.82 46.26"/>
          <rect class="cls-2" x="336.54" y="-6.2" width="7.3" height="19.7" transform="translate(336.54 343.84) rotate(-90)"/>
          <rect class="cls-2" x="145.12" y="-6.2" width="7.3" height="19.7" transform="translate(145.12 152.42) rotate(-90)"/>
          <polygon class="cls-2" points="250.43 21.42 250.43 10.52 264.01 3.14 267.34 8.65 256.91 14.29 270.12 14.29 270.12 21.42 250.43 21.42"/>
          <path class="cls-2" d="M340.19,45.45h-8.58c-4.7,0-8.65-1.58-11.86-4.74-3.21-3.16-4.81-7.04-4.81-11.65,0-4.6,1.6-8.48,4.81-11.65,3.21-3.16,7.16-4.74,11.86-4.74h18.2s0,32.79,0,32.79h-9.62ZM340.19,36.46v-14.79s-8.58,0-8.58,0c-2.05,0-3.74.7-5.09,2.09-1.35,1.4-2.02,3.16-2.02,5.3,0,2.09.67,3.85,2.02,5.27,1.35,1.42,3.05,2.13,5.09,2.13h8.58Z"/>
          <path class="cls-2" d="M177.96,36.45h-15.92V12.67h-18.14c-4.62,0-8.53,1.55-11.69,4.67-3.16,3.12-4.75,6.94-4.75,11.49s1.59,8.37,4.75,11.49c3.16,3.12,7.07,5.05,11.69,5.05,1.3-.02,2.99-.15,4.44-.78,1.99-.87,3.38-2.19,3.84-2.66v4.32h9.85s15.93-.01,15.93-.01v-9.81ZM152.19,36.13h-8.29c-2.01,0-3.69-.69-5.02-2.09-1.32-1.41-2-3.14-2-5.2s.67-3.86,2-5.23c1.33-1.38,3.01-2.06,5.02-2.06h8.29v14.58Z"/>
          <path class="cls-2" d="M194.97,12.66l-5.15.04c-5.38,0-9.69,1.64-12.82,4.87-2.84,2.95-4.27,6.7-4.27,11.15v1.26c.01,2.3.49,4.49,1.37,6.46.9,2.07,2.24,3.92,3.87,5.43,2.92,2.72,6.83,4.39,11.12,4.39h15.73s0-33.61,0-33.61h-9.86ZM194.9,28.93v7.29h-3.77c-5.69,0-8.35-2.46-8.35-7.74,0-2.26.56-4.01,1.71-5.38.21-.25.44-.48.68-.68,1.07-.91,2.41-1.36,4.04-1.36h5.76s-.07,4.33-.07,7.87Z"/>
        </g>
      </g>
    </g>
  </g>
</svg>