<svg width="32" height="33" viewBox="0 0 32 33" fill="none" xmlns="http://www.w3.org/2000/svg">
<path d="M4.00183 28.4758H27.9991M4.00183 9.81127V11.1445C4.00183 12.2052 4.42321 13.2225 5.17327 13.9726C5.92333 14.7226 6.94063 15.144 8.00137 15.144C9.06212 15.144 10.0794 14.7226 10.8295 13.9726C11.5795 13.2225 12.0009 12.2052 12.0009 11.1445M4.00183 9.81127H27.9991M4.00183 9.81127L6.66819 4.47855H25.3327L27.9991 9.81127M12.0009 11.1445V9.81127M12.0009 11.1445C12.0009 12.2052 12.4223 13.2225 13.1724 13.9726C13.9224 14.7226 14.9397 15.144 16.0005 15.144C17.0612 15.144 18.0785 14.7226 18.8286 13.9726C19.5786 13.2225 20 12.2052 20 11.1445M20 11.1445V9.81127M20 11.1445C20 12.2052 20.4214 13.2225 21.1714 13.9726C21.9215 14.7226 22.9388 15.144 23.9995 15.144C25.0603 15.144 26.0776 14.7226 26.8276 13.9726C27.5777 13.2225 27.9991 12.2052 27.9991 11.1445V9.81127M6.66819 28.4758V14.944M25.3327 28.4758V14.944M12.0009 28.4758V23.1431C12.0009 22.4359 12.2818 21.7577 12.7819 21.2577C13.2819 20.7576 13.9601 20.4767 14.6673 20.4767H17.3336C18.0408 20.4767 18.719 20.7576 19.219 21.2577C19.7191 21.7577 20 22.4359 20 23.1431V28.4758" stroke="#676793" stroke-width="2.66636" stroke-linecap="round" stroke-linejoin="round"/>
</svg>
