<svg width="32" height="33" viewBox="0 0 32 33" fill="none" xmlns="http://www.w3.org/2000/svg">
<path d="M12.0009 7.15855H9.33457C8.62741 7.15855 7.94921 7.43947 7.44917 7.93951C6.94913 8.43955 6.66821 9.11775 6.66821 9.82491V25.8231C6.66821 26.5302 6.94913 27.2084 7.44917 27.7085C7.94921 28.2085 8.62741 28.4894 9.33457 28.4894H22.6664C23.3735 28.4894 24.0517 28.2085 24.5518 27.7085C25.0518 27.2084 25.3327 26.5302 25.3327 25.8231V9.82491C25.3327 9.11775 25.0518 8.43955 24.5518 7.93951C24.0517 7.43947 23.3735 7.15855 22.6664 7.15855H20M12.0009 7.15855C12.0009 6.45139 12.2819 5.77319 12.7819 5.27315C13.2819 4.77311 13.9601 4.49219 14.6673 4.49219H17.3337C18.0408 4.49219 18.719 4.77311 19.2191 5.27315C19.7191 5.77319 20 6.45139 20 7.15855M12.0009 7.15855C12.0009 7.86571 12.2819 8.54391 12.7819 9.04395C13.2819 9.54399 13.9601 9.82491 14.6673 9.82491H17.3337C18.0408 9.82491 18.719 9.54399 19.2191 9.04395C19.7191 8.54391 20 7.86571 20 7.15855M18.6668 15.1576H15.3339C14.8035 15.1576 14.2949 15.3683 13.9198 15.7434C13.5448 16.1184 13.3341 16.627 13.3341 17.1574C13.3341 17.6878 13.5448 18.1964 13.9198 18.5715C14.2949 18.9465 14.8035 19.1572 15.3339 19.1572H16.6671C17.1974 19.1572 17.7061 19.3679 18.0811 19.7429C18.4562 20.1179 18.6668 20.6266 18.6668 21.1569C18.6668 21.6873 18.4562 22.196 18.0811 22.571C17.7061 22.946 17.1974 23.1567 16.6671 23.1567H13.3341M16.0005 23.1567V24.4899M16.0005 13.8245V15.1576" stroke="#676793" stroke-width="2.66636" stroke-linecap="round" stroke-linejoin="round"/>
</svg>
