<svg width="32" height="33" viewBox="0 0 32 33" fill="none" xmlns="http://www.w3.org/2000/svg">
<path d="M12.0009 7.13758H9.33457C8.62741 7.13758 7.94921 7.4185 7.44917 7.91854C6.94913 8.41858 6.66821 9.09678 6.66821 9.80395V25.8021C6.66821 26.5093 6.94913 27.1875 7.44917 27.6875C7.94921 28.1876 8.62741 28.4685 9.33457 28.4685H22.6664C23.3735 28.4685 24.0517 28.1876 24.5518 27.6875C25.0518 27.1875 25.3327 26.5093 25.3327 25.8021V9.80395C25.3327 9.09678 25.0518 8.41858 24.5518 7.91854C24.0517 7.4185 23.3735 7.13758 22.6664 7.13758H20M12.0009 7.13758C12.0009 6.43042 12.2819 5.75222 12.7819 5.25218C13.2819 4.75214 13.9601 4.47122 14.6673 4.47122H17.3337C18.0408 4.47122 18.719 4.75214 19.2191 5.25218C19.7191 5.75222 20 6.43042 20 7.13758M12.0009 7.13758C12.0009 7.84475 12.2819 8.52295 12.7819 9.02299C13.2819 9.52303 13.9601 9.80395 14.6673 9.80395H17.3337C18.0408 9.80395 18.719 9.52303 19.2191 9.02299C19.7191 8.52295 20 7.84475 20 7.13758M12.0009 23.1358V16.4698M16.0005 23.1358V21.8026M20 23.1358V19.1362" stroke="white" stroke-width="2.66636" stroke-linecap="round" stroke-linejoin="round"/>
</svg>
