<svg width="32" height="33" viewBox="0 0 32 33" fill="none" xmlns="http://www.w3.org/2000/svg">
<path d="M13.7674 6.22336C14.3353 3.88229 17.6656 3.88229 18.2335 6.22336C18.3188 6.57505 18.4858 6.90165 18.7211 7.17658C18.9564 7.45151 19.2533 7.667 19.5876 7.80551C19.9219 7.94401 20.2842 8.00162 20.645 7.97365C21.0058 7.94568 21.3548 7.83291 21.6638 7.64453C23.7209 6.39134 26.0766 8.74574 24.8234 10.8042C24.6353 11.113 24.5227 11.4619 24.4948 11.8224C24.4669 12.183 24.5245 12.545 24.6628 12.8791C24.8012 13.2132 25.0164 13.51 25.291 13.7452C25.5656 13.9805 25.8919 14.1477 26.2433 14.2331C28.5844 14.801 28.5844 18.1313 26.2433 18.6993C25.8916 18.7845 25.565 18.9515 25.2901 19.1868C25.0151 19.4221 24.7996 19.719 24.6611 20.0533C24.5226 20.3876 24.465 20.7499 24.493 21.1107C24.521 21.4715 24.6337 21.8206 24.8221 22.1295C26.0753 24.1866 23.7209 26.5424 21.6625 25.2892C21.3536 25.1011 21.0048 24.9885 20.6442 24.9606C20.2837 24.9327 19.9217 24.9902 19.5875 25.1286C19.2534 25.2669 18.9567 25.4821 18.7214 25.7568C18.4861 26.0314 18.319 26.3576 18.2335 26.709C17.6656 29.0501 14.3353 29.0501 13.7674 26.709C13.6822 26.3573 13.5151 26.0307 13.2798 25.7558C13.0445 25.4809 12.7476 25.2654 12.4133 25.1269C12.079 24.9884 11.7167 24.9307 11.3559 24.9587C10.9952 24.9867 10.6461 25.0995 10.3371 25.2878C8.28001 26.541 5.92428 24.1866 7.17747 22.1282C7.36558 21.8194 7.47817 21.4705 7.50608 21.11C7.53398 20.7494 7.47642 20.3874 7.33808 20.0533C7.19973 19.7192 6.9845 19.4224 6.70989 19.1871C6.43527 18.9519 6.10901 18.7847 5.75763 18.6993C3.41656 18.1313 3.41656 14.801 5.75763 14.2331C6.10932 14.1479 6.43592 13.9808 6.71085 13.7456C6.98578 13.5103 7.20127 13.2134 7.33978 12.8791C7.47828 12.5447 7.53589 12.1825 7.50792 11.8217C7.47995 11.4609 7.36718 11.1118 7.1788 10.8028C5.92561 8.74574 8.28001 6.39001 10.3384 7.6432C11.6716 8.45377 13.3994 7.73652 13.7674 6.22336Z" stroke="white" stroke-width="2.66636" stroke-linecap="round" stroke-linejoin="round"/>
<path d="M12.0009 16.4662C12.0009 17.5269 12.4223 18.5442 13.1724 19.2943C13.9224 20.0444 14.9397 20.4657 16.0005 20.4657C17.0612 20.4657 18.0785 20.0444 18.8286 19.2943C19.5786 18.5442 20 17.5269 20 16.4662C20 15.4054 19.5786 14.3881 18.8286 13.6381C18.0785 12.888 17.0612 12.4666 16.0005 12.4666C14.9397 12.4666 13.9224 12.888 13.1724 13.6381C12.4223 14.3881 12.0009 15.4054 12.0009 16.4662Z" stroke="white" stroke-width="2.66636" stroke-linecap="round" stroke-linejoin="round"/>
</svg>
