<svg width="32" height="33" viewBox="0 0 32 33" fill="none" xmlns="http://www.w3.org/2000/svg">
<path d="M12.0009 15.154V8.48807C12.0009 7.42732 12.4223 6.41002 13.1724 5.65996C13.9224 4.9099 14.9397 4.48853 16.0005 4.48853C17.0612 4.48853 18.0785 4.9099 18.8286 5.65996C19.5786 6.41002 20 7.42732 20 8.48807V15.154M8.44268 11.1544H23.5596C23.9441 11.1544 24.324 11.2375 24.6733 11.398C25.0226 11.5585 25.3331 11.7927 25.5835 12.0845C25.8338 12.3762 26.0181 12.7187 26.1237 13.0883C26.2293 13.458 26.2538 13.8461 26.1953 14.2261L24.5222 25.0942C24.3769 26.0387 23.8983 26.8999 23.173 27.522C22.4477 28.1442 21.5235 28.4861 20.568 28.4858H11.433C10.4776 28.4857 9.55386 28.1437 8.82881 27.5216C8.10376 26.8995 7.62534 26.0384 7.48012 25.0942L5.80698 14.2261C5.74855 13.8461 5.77297 13.458 5.87858 13.0883C5.98419 12.7187 6.16849 12.3762 6.41884 12.0845C6.66919 11.7927 6.97967 11.5585 7.329 11.398C7.67833 11.2375 8.05824 11.1544 8.44268 11.1544Z" stroke="white" stroke-width="2.66636" stroke-linecap="round" stroke-linejoin="round"/>
</svg>
