<svg width="276" height="229" viewBox="0 0 276 229" fill="none" xmlns="http://www.w3.org/2000/svg">
<path d="M273.392 100.048C267.872 77.0508 237.108 68.9485 218.621 69.9063C193.95 71.1843 182.772 63.4041 188.179 38.2511C191.267 23.8783 194.377 14.1001 172.115 6.51951C152.888 -0.0264676 90.8728 -7.13187 77.9577 15.0058C71.6551 25.8093 94.8534 35.6634 83.9056 50.2605C76.1826 60.5581 53.2966 52.944 40.9297 68.8382C32.1535 80.1174 37.6835 98.5965 60.597 108.4C80.1195 116.752 108.838 121.568 114.096 145.65C116.732 157.721 103.28 174.635 110.027 192.402C115.241 206.132 130.942 212.193 151.675 192.028C192.586 152.239 183.934 209.049 190.141 220.676C197.253 233.996 221.858 228.545 232.916 217.399C263.149 186.926 281.366 133.271 273.392 100.048V100.048Z" fill="url(#paint0_linear_405_11166)"/>
<path d="M157.393 199.318H52.6115C48.9062 199.318 45.3527 197.846 42.7326 195.226C40.1126 192.606 38.6406 189.052 38.6406 185.347V24.6818C38.6406 20.9765 40.1126 17.423 42.7326 14.8029C45.3527 12.1829 48.9062 10.7109 52.6115 10.7109H150.408C155.966 10.7109 161.296 12.9188 165.226 16.8489C169.156 20.779 171.364 26.1093 171.364 31.6673V185.347C171.364 189.052 169.892 192.606 167.272 195.226C164.652 197.846 161.099 199.318 157.393 199.318Z" fill="#9BACF2"/>
<path d="M143.421 213.289H38.6389C34.9336 213.289 31.38 211.817 28.7599 209.197C26.1399 206.577 24.668 203.023 24.668 199.318V38.6525C24.668 34.9472 26.1399 31.3937 28.7599 28.7736C31.38 26.1536 34.9336 24.6816 38.6389 24.6816H118.971L157.391 59.6089V199.318C157.391 203.023 155.92 206.577 153.299 209.197C150.679 211.817 147.126 213.289 143.421 213.289Z" fill="#CFE7FE"/>
<path d="M118.973 24.6816V45.638C118.973 49.3433 120.445 52.8968 123.065 55.5169C125.685 58.1369 129.238 59.6089 132.944 59.6089H157.393L118.973 24.6816Z" fill="#9BACF2"/>
<path d="M108.493 84.0588V70.0879L80.5508 101.522L108.493 132.957V118.986H150.157C157.987 118.986 165.741 120.528 172.974 123.525C180.208 126.521 186.781 130.913 192.318 136.45C192.318 122.555 186.798 109.229 176.973 99.4037C167.148 89.5785 153.822 84.0588 139.927 84.0588H108.493Z" fill="white"/>
<path d="M87.5363 181.856V195.827L115.478 164.392L87.5363 132.958V146.928H45.8716C38.0416 146.928 30.2883 145.386 23.0544 142.39C15.8205 139.393 9.24754 135.001 3.71094 129.465C3.71094 143.36 9.23067 156.686 19.0559 166.511C28.8811 176.336 42.2069 181.856 56.1018 181.856H87.5363Z" fill="#3D72F9"/>
<path d="M167.869 132.957H174.855V185.348C174.856 188.414 174.049 191.427 172.516 194.083L166.469 190.584C167.388 188.992 167.871 187.186 167.869 185.348V132.957ZM174.855 80.5659V31.6678C174.848 25.1858 172.269 18.9713 167.686 14.3878C163.102 9.80425 156.888 7.22603 150.406 7.21875H52.6096C48.3558 7.217 44.2479 8.76966 41.0587 11.5847L45.6805 16.8237C47.5935 15.1349 50.0578 14.2033 52.6096 14.2042H150.406C155.036 14.2094 159.475 16.051 162.749 19.3249C166.023 22.5989 167.864 27.0378 167.869 31.6678V80.5659H174.855ZM153.899 77.0732V63.1023H132.942C128.312 63.0971 123.873 61.2555 120.599 57.9816C117.325 54.7077 115.484 50.2688 115.479 45.6387V28.1751H38.6387C35.8607 28.1783 33.1974 29.2833 31.2331 31.2477C29.2688 33.212 28.1638 35.8753 28.1605 38.6533V132.957H21.1751V38.6533C21.1803 34.0232 23.0219 29.5843 26.2958 26.3104C29.5697 23.0364 34.0087 21.1948 38.6387 21.1896H118.971C119.84 21.1898 120.678 21.5135 121.321 22.0978L159.741 57.025C160.101 57.3524 160.389 57.7514 160.586 58.1965C160.782 58.6416 160.884 59.1229 160.884 59.6096V77.0732H153.899ZM148.357 56.1169L122.464 32.5777V45.6387C122.467 48.4167 123.572 51.08 125.537 53.0443C127.501 55.0087 130.164 56.1136 132.942 56.1169H148.357ZM153.899 199.319C153.895 202.097 152.79 204.76 150.826 206.724C148.862 208.689 146.198 209.793 143.42 209.797H38.6387C35.8607 209.793 33.1974 208.689 31.2331 206.724C29.2688 204.76 28.1638 202.097 28.1605 199.319V181.855H21.1751V199.319C21.1803 203.949 23.0219 208.388 26.2958 211.661C29.5697 214.935 34.0087 216.777 38.6387 216.782H143.42C148.05 216.777 152.489 214.935 155.763 211.661C159.037 208.388 160.879 203.949 160.884 199.319V129.464H153.899V199.319ZM52.6096 94.5368V101.522H70.0732V94.5368H52.6096ZM45.6242 94.5368H38.6387V101.522H45.6242V94.5368ZM52.6096 115.493H73.5659V108.508H52.6096V115.493ZM45.6242 108.508H38.6387V115.493H45.6242V108.508ZM52.6096 129.464H77.0587V122.479H52.6096V129.464ZM38.6387 129.464H45.6242V122.479H38.6387V129.464ZM115.479 143.435H122.464V136.45H115.479V143.435ZM146.913 136.45H129.45V143.435H146.913V136.45ZM115.479 157.406H122.464V150.42H115.479V157.406ZM129.45 157.406H146.913V150.42H129.45V157.406ZM129.45 171.377H146.913V164.391H129.45V171.377ZM115.479 178.362V185.348H122.464V178.362H115.479ZM129.45 185.348H146.913V178.362H129.45V185.348ZM80.5514 80.5659H38.6387V87.5514H80.5514V80.5659ZM101.508 199.319H146.913V192.333H101.508V199.319ZM38.6387 199.319H77.0587V192.333H38.6387V199.319ZM80.5514 73.5805H94.5223V66.5951H80.5514V73.5805ZM111.986 52.6242H80.5514V59.6096H111.986V52.6242ZM40.3851 73.5805C39.9219 73.5805 39.4777 73.3965 39.1502 73.069C38.8227 72.7415 38.6387 72.2973 38.6387 71.8341V49.1314C38.6387 48.4828 38.8194 47.8471 39.1603 47.2953C39.5013 46.7436 39.9892 46.2977 40.5693 46.0076L54.5402 39.0222C55.0252 38.7796 55.56 38.6534 56.1023 38.6534C56.6446 38.6534 57.1794 38.7796 57.6644 39.0222L71.6353 46.0076C72.2155 46.2977 72.7033 46.7436 73.0443 47.2953C73.3853 47.8471 73.5659 48.4828 73.5659 49.1314V71.8341C73.5659 72.2973 73.382 72.7415 73.0544 73.069C72.7269 73.3965 72.2827 73.5805 71.8196 73.5805H40.3851ZM66.5805 59.6096H59.595V66.5951H66.5805V59.6096ZM45.6242 52.6242H66.5805V51.2899L56.1023 46.0509L45.6242 51.2899V52.6242ZM45.6242 66.5951H52.6096V59.6096H45.6242V66.5951ZM195.811 136.45C195.811 139.538 191.967 141.038 189.849 138.919C184.649 133.691 178.463 129.545 171.65 126.723C164.837 123.901 157.532 122.458 150.158 122.479H111.986V132.957C111.986 133.665 111.77 134.356 111.368 134.939C110.966 135.522 110.396 135.969 109.734 136.221C109.072 136.473 108.349 136.517 107.662 136.349C106.974 136.18 106.353 135.806 105.883 135.277L77.941 103.842C77.3729 103.203 77.0591 102.378 77.0591 101.522C77.0591 100.667 77.3729 99.8415 77.941 99.2023L105.883 67.7677C106.353 67.2384 106.974 66.8647 107.662 66.696C108.349 66.5274 109.072 66.5719 109.734 66.8235C110.396 67.0752 110.966 67.5221 111.368 68.1051C111.77 68.6881 111.986 69.3796 111.986 70.0878V80.5659H139.928C154.744 80.5828 168.948 86.476 179.425 96.9525C189.901 107.429 195.794 121.633 195.811 136.45ZM188.127 128.175C186.161 116.813 180.248 106.51 171.432 99.0785C162.615 91.6474 151.458 87.5654 139.928 87.5514H108.493C107.567 87.5514 106.678 87.1834 106.023 86.5284C105.368 85.8734 105 84.985 105 84.0587V79.2745L85.2229 101.522L105 123.77V118.986C105 118.06 105.368 117.171 106.023 116.516C106.678 115.861 107.567 115.493 108.493 115.493H150.158C163.861 115.454 177.199 119.909 188.127 128.175ZM56.1023 185.348C41.2863 185.331 27.0819 179.438 16.6053 168.961C6.12876 158.485 0.235621 144.28 0.21875 129.464C0.218725 128.773 0.423557 128.098 0.80734 127.524C1.19112 126.949 1.73662 126.501 2.37485 126.237C3.01308 125.973 3.71537 125.904 4.3929 126.038C5.07044 126.173 5.6928 126.506 6.18127 126.994C11.3814 132.223 17.5669 136.368 24.3799 139.19C31.1928 142.012 38.4979 143.455 45.8721 143.435H84.0441V132.957C84.0442 132.249 84.2596 131.557 84.6618 130.974C85.0639 130.391 85.6338 129.944 86.2958 129.693C86.9578 129.441 87.6806 129.396 88.3685 129.565C89.0563 129.734 89.6767 130.107 90.1472 130.637L118.089 162.071C118.657 162.711 118.971 163.536 118.971 164.391C118.971 165.247 118.657 166.072 118.089 166.711L90.1472 198.146C89.6767 198.675 89.0563 199.049 88.3685 199.218C87.6806 199.386 86.9578 199.342 86.2958 199.09C85.6338 198.838 85.0639 198.391 84.6618 197.808C84.2596 197.226 84.0442 196.534 84.0441 195.826V185.348H56.1023ZM56.1023 178.362H87.5368C88.4632 178.362 89.3516 178.73 90.0066 179.385C90.6616 180.04 91.0296 180.929 91.0296 181.855V186.639L110.807 164.391L91.0296 142.144V146.928C91.0296 147.854 90.6616 148.742 90.0066 149.397C89.3516 150.052 88.4632 150.42 87.5368 150.42H45.8721C32.1692 150.46 18.8313 146.005 7.90274 137.738C9.86928 149.1 15.7816 159.404 24.5985 166.835C33.4154 174.266 44.5715 178.348 56.1023 178.362Z" fill="#1F4FDE"/>
<defs>
<linearGradient id="paint0_linear_405_11166" x1="36.9766" y1="114.248" x2="275.266" y2="114.248" gradientUnits="userSpaceOnUse">
<stop stop-color="#D2DEFF" stop-opacity="0"/>
<stop offset="1" stop-color="#B7C5FF"/>
</linearGradient>
</defs>
</svg>
