<svg width="250" height="230" viewBox="0 0 250 230" fill="none" xmlns="http://www.w3.org/2000/svg">
<g clip-path="url(#clip0_1260_5824)">
<path d="M2.73555 69.5949C-15.5208 6.60033 62.5001 -11.9885 91.7032 49.3386C115.634 99.5934 161.572 102.885 187.728 60.8073C241.874 -26.2995 282.403 161.688 213.9 198.911C160.939 227.69 133.609 142.794 89.8287 168.462C80.3405 174.025 79.4376 187.664 72.4962 196.191C56.8556 215.403 15.5436 211.804 8.89814 187.528C-2.42899 146.15 29.1335 160.682 2.73555 69.5949V69.5949Z" fill="url(#paint0_linear_1260_5824)"/>
<path opacity="0.1" d="M222.25 216.722H220.123V208.095C220.123 206.207 218.593 204.677 216.705 204.677H211.998V193.241C211.998 190.69 209.931 188.622 207.38 188.622H206.056V169.186C221.022 167.732 232.72 155.121 232.72 139.774C232.72 126.528 224.006 115.319 211.999 111.563V101.432H215.241C217.937 101.432 220.123 99.2455 220.123 96.5488V84.7446C220.123 83.1821 219.375 81.7138 218.112 80.7949L127.873 15.1987C126.161 13.9546 123.843 13.9546 122.131 15.1987L87.6122 40.291C83.8251 28.3359 72.6435 19.6699 59.435 19.6699C43.1123 19.6699 29.8804 32.9018 29.8804 49.2246C29.8804 59.1367 34.7646 67.9018 42.2524 73.2636L31.8921 80.7949C30.6279 81.7138 29.8804 83.1821 29.8804 84.7446V96.5488C29.8804 99.2455 32.0664 101.432 34.7632 101.432H38.0049V113.852C38.0049 116.401 40.0752 118.472 42.624 118.472H43.9472V188.621H42.624C40.0732 188.621 38.0054 190.689 38.0054 193.24V204.676H33.2988C31.4111 204.676 29.8809 206.206 29.8809 208.094V216.721H27.7539C25.8662 216.721 24.3359 218.251 24.3359 220.139V225.968C24.3359 227.855 25.8662 229.386 27.7539 229.386H222.25C224.138 229.386 225.668 227.855 225.668 225.968V220.139C225.668 218.252 224.138 216.722 222.25 216.722V216.722ZM184.034 117.255C177.659 122.677 173.61 130.75 173.61 139.774C173.61 150.746 179.595 160.316 188.473 165.414V188.622H187.149C184.599 188.622 182.531 190.69 182.531 193.241V204.677H163.824V193.241C163.824 190.69 161.756 188.622 159.205 188.622H157.883V118.472H159.206C161.755 118.472 163.826 116.402 163.826 113.853V101.432H182.532V113.853C182.531 115.2 183.112 116.411 184.034 117.255ZM134.357 101.432V113.852C134.357 116.401 136.423 118.472 138.976 118.472H140.295V188.621H138.974C136.423 188.621 134.355 190.689 134.355 193.24V204.676H115.648V193.241C115.648 190.69 113.58 188.622 111.03 188.622H109.709V118.472H111.027C113.581 118.472 115.646 116.402 115.646 113.853V101.432H134.357V101.432ZM62.8545 188.622H61.5302V118.472H62.8535C65.4072 118.472 67.4726 116.402 67.4726 113.853V101.432H86.1787V113.853C86.1787 116.402 88.249 118.472 90.7978 118.472H92.121V188.622H90.7993C88.2485 188.622 86.1806 190.69 86.1806 193.241V204.677H67.4736V193.241C67.4731 190.69 65.4052 188.622 62.8545 188.622V188.622Z" fill="#1F4FDE"/>
<path d="M43.9453 101.812H61.5283V181.92H43.9453V101.812Z" fill="white"/>
<path d="M92.1211 101.812H109.709V181.92H92.1211V101.812Z" fill="white"/>
<path d="M140.293 101.812H157.881V181.92H140.293V101.812Z" fill="white"/>
<path d="M188.473 101.811H206.056V181.918H188.473V101.811Z" fill="white"/>
<path d="M67.4717 86.959V102.135C67.4717 104.684 65.4062 106.754 62.8525 106.754H42.623C40.0742 106.754 38.0039 104.684 38.0039 102.135V86.959H67.4717Z" fill="#9BACF2"/>
<path d="M42.6226 176.904H62.853C65.4038 176.904 67.4717 178.972 67.4717 181.523V196.701H38.0039V181.523C38.0039 178.972 40.0718 176.904 42.6226 176.904V176.904Z" fill="#9BACF2"/>
<path d="M115.644 86.959V102.135C115.644 104.684 113.578 106.754 111.024 106.754H90.7949C88.2461 106.754 86.1758 104.684 86.1758 102.135V86.959H115.644Z" fill="#9BACF2"/>
<path d="M90.7988 176.904H111.029C113.58 176.904 115.648 178.972 115.648 181.523V196.701H86.1797V181.523C86.1797 178.972 88.2476 176.904 90.7988 176.904Z" fill="#9BACF2"/>
<path d="M163.823 86.959V102.135C163.823 104.684 161.753 106.754 159.204 106.754H138.975C136.421 106.754 134.355 104.684 134.355 102.135V86.959H163.823Z" fill="#9BACF2"/>
<path d="M138.975 176.904H159.205C161.756 176.904 163.824 178.972 163.824 181.523V196.701H134.355V181.523C134.356 178.972 136.424 176.904 138.975 176.904Z" fill="#9BACF2"/>
<path d="M211.999 86.959V102.135C211.999 104.684 209.929 106.754 207.38 106.754H187.15C184.597 106.754 182.531 104.684 182.531 102.135V86.959H211.999Z" fill="#9BACF2"/>
<path d="M187.146 176.904H207.377C209.928 176.904 211.996 178.972 211.996 181.523V196.701H182.527V181.523C182.528 178.972 184.596 176.904 187.146 176.904Z" fill="#9BACF2"/>
<path d="M215.239 89.7128H34.7617C32.0649 89.7128 29.8789 87.5268 29.8789 84.83V73.0258C29.8789 71.4633 30.627 69.9951 31.8906 69.0761L122.129 3.47998C123.841 2.23584 126.16 2.23584 127.871 3.47998L218.11 69.0761C219.374 69.9951 220.122 71.4633 220.122 73.0258V84.83C220.122 87.5268 217.935 89.7128 215.239 89.7128V89.7128Z" fill="white"/>
<path d="M205.563 80.6812H44.4414V71.293L122.204 16.9049C123.885 15.7296 126.121 15.7296 127.801 16.9049L205.564 71.293V80.6812H205.563Z" fill="#9BACF2"/>
<path d="M29.8789 196.377V207.577H220.121V196.377C220.121 194.489 218.591 192.959 216.703 192.959H33.2969C31.4092 192.959 29.8789 194.489 29.8789 196.377V196.377Z" fill="white"/>
<path d="M24.3359 208.422V214.251C24.3359 216.139 25.8662 217.669 27.7539 217.669H222.25C224.138 217.669 225.668 216.139 225.668 214.251V208.422C225.668 206.534 224.138 205.004 222.25 205.004H27.7539C25.8662 205.004 24.3359 206.534 24.3359 208.422V208.422Z" fill="#9BACF2"/>
<path d="M203.164 157.611C219.487 157.611 232.719 144.379 232.719 128.057C232.719 111.734 219.487 98.502 203.164 98.502C186.841 98.502 173.609 111.734 173.609 128.057C173.609 144.379 186.841 157.611 203.164 157.611Z" fill="#9BACF2"/>
<path d="M203.163 150.393C215.498 150.393 225.498 140.393 225.498 128.058C225.498 115.722 215.498 105.723 203.163 105.723C190.828 105.723 180.828 115.722 180.828 128.058C180.828 140.393 190.828 150.393 203.163 150.393Z" fill="white"/>
<path d="M206.345 125.614H205.604V120.644H210.221C211.569 120.644 212.662 119.55 212.662 118.202C212.662 116.854 211.569 115.761 210.221 115.761H205.604V114.533C205.604 113.185 204.511 112.092 203.163 112.092C201.815 112.092 200.722 113.185 200.722 114.533V115.761H199.981C195.918 115.761 192.613 119.066 192.613 123.129C192.613 127.192 195.918 130.497 199.981 130.497H200.722V135.468H196.106C194.758 135.468 193.665 136.561 193.665 137.909C193.665 139.257 194.758 140.351 196.106 140.351H200.722V141.578C200.722 142.926 201.815 144.02 203.163 144.02C204.511 144.02 205.604 142.926 205.604 141.578V140.351H206.345C210.407 140.351 213.712 137.045 213.712 132.982C213.712 128.919 210.407 125.614 206.345 125.614ZM199.981 125.614C198.611 125.614 197.496 124.5 197.496 123.129C197.496 121.758 198.611 120.644 199.981 120.644H200.722V125.614H199.981ZM206.345 135.467H205.604V130.497H206.345C207.715 130.497 208.83 131.611 208.83 132.982C208.83 134.353 207.715 135.467 206.345 135.467V135.467Z" fill="#9BACF2"/>
<path d="M59.4336 67.0605C75.7562 67.0605 88.9882 53.8284 88.9882 37.5058C88.9882 21.1832 75.7562 7.95117 59.4336 7.95117C43.111 7.95117 29.8789 21.1832 29.8789 37.5058C29.8789 53.8284 43.111 67.0605 59.4336 67.0605Z" fill="#9BACF2"/>
<path d="M222.565 202.578V196.377C222.565 193.146 219.936 190.517 216.705 190.517H214.44V181.523C214.44 178.011 211.86 175.099 208.498 174.56V159.599C223.61 157.052 235.161 143.881 235.161 128.055C235.161 114.38 226.535 102.686 214.44 98.1164V92.1535H215.241C219.279 92.1535 222.565 88.8678 222.565 84.8293V73.0275C222.565 70.6887 221.436 68.4738 219.548 67.1027L211.818 61.4826C210.729 60.6901 209.201 60.9309 208.408 62.0217C207.615 63.1125 207.856 64.6389 208.947 65.4318L216.678 71.0534C217.307 71.51 217.682 72.2477 217.682 73.0275V84.8293C217.682 86.1755 216.587 87.2707 215.241 87.2707H34.7627C33.4165 87.2707 32.3213 86.1755 32.3213 84.8293V73.0275C32.3213 72.2477 32.6968 71.51 33.3276 71.0519L42.3164 64.5168C47.271 67.6682 53.1416 69.5026 59.4355 69.5026C77.0781 69.5026 91.4316 55.1491 91.4316 37.5066C91.4316 34.758 91.0825 32.0896 90.4277 29.5427L123.566 5.45678C124.424 4.83325 125.579 4.83227 126.437 5.45629L198.449 57.8C198.883 58.1149 199.385 58.2668 199.883 58.2668C200.638 58.2668 201.382 57.9177 201.86 57.2604C202.652 56.1696 202.411 54.6428 201.32 53.8503L129.308 1.50659C126.733 -0.364501 123.271 -0.364013 120.695 1.50708L88.7573 24.7204C83.8124 13.425 72.5332 5.51 59.435 5.51C41.7925 5.51 27.439 19.8635 27.439 37.5061C27.439 47.0236 31.6206 55.5783 38.2378 61.4445L30.457 67.1013C28.5664 68.4733 27.438 70.6887 27.438 73.027V84.8288C27.438 88.8674 30.7236 92.153 34.7622 92.153H35.5635V102.134C35.5635 106.027 38.7305 109.194 42.6235 109.194H59.0898V174.462H46.3887V119.743C46.3887 118.395 45.2954 117.302 43.9472 117.302C42.5991 117.302 41.5058 118.395 41.5058 119.743V174.56C38.1435 175.099 35.564 178.011 35.564 181.523V190.518H33.2983C30.0674 190.518 27.439 193.146 27.439 196.377V202.578C24.355 202.743 21.8945 205.297 21.8945 208.421V214.251C21.8945 217.482 24.5229 220.11 27.7539 220.11H222.25C225.481 220.11 228.109 217.482 228.109 214.251V208.421C228.109 205.297 225.649 202.743 222.565 202.578ZM32.3218 37.5066C32.3218 22.5559 44.4848 10.3933 59.435 10.3933C74.3852 10.3933 86.5483 22.5564 86.5483 37.5066C86.5483 52.4567 74.3852 64.6198 59.435 64.6198C44.4848 64.6198 32.3218 52.4572 32.3218 37.5066ZM209.557 181.523V190.517H184.972V181.523C184.972 180.322 185.948 179.345 187.149 179.345H207.38C208.58 179.345 209.557 180.322 209.557 181.523ZM166.265 190.518V181.523C166.265 178.011 163.685 175.099 160.323 174.56V109.097C163.685 108.559 166.265 105.646 166.265 102.134V92.1535H180.09V102.134C180.09 103.207 180.344 104.253 180.803 105.201C174.864 111.013 171.169 119.109 171.169 128.055C171.169 139.398 177.107 149.374 186.032 155.057V174.56C182.669 175.098 180.088 178.011 180.088 181.523V190.517L166.265 190.518ZM118.09 190.518V181.523C118.09 178.011 115.51 175.098 112.148 174.56V109.097C115.51 108.559 118.09 105.646 118.09 102.134V92.1535H131.914V102.134C131.914 105.646 134.494 108.558 137.856 109.097V174.56C134.494 175.099 131.914 178.011 131.914 181.523V190.518H118.09ZM69.915 190.518V181.523C69.915 178.011 67.3354 175.099 63.9731 174.56V109.097C67.3354 108.559 69.915 105.646 69.915 102.134V92.1535H83.7392V102.134C83.7392 105.646 86.3188 108.558 89.6811 109.097V174.56C86.3188 175.099 83.7392 178.011 83.7392 181.523V190.518H69.915ZM107.265 174.463H94.5639V109.194H107.265V174.463ZM88.622 181.523C88.622 180.322 89.5986 179.345 90.7993 179.345H111.03C112.23 179.345 113.207 180.322 113.207 181.523V190.517H88.6215L88.622 181.523ZM155.44 174.463H142.739V109.194H155.44V174.463ZM136.797 181.523C136.797 180.322 137.773 179.345 138.974 179.345H159.205C160.406 179.345 161.382 180.322 161.382 181.523V190.517H136.797V181.523ZM203.615 174.463H190.915V157.609C194.691 159.18 198.827 160.051 203.165 160.051C203.316 160.051 203.465 160.042 203.615 160.04V174.463ZM230.279 128.056C230.279 143.006 218.116 155.169 203.165 155.169C188.215 155.169 176.052 143.006 176.052 128.056C176.052 113.106 188.215 100.943 203.165 100.943C218.116 100.943 230.279 113.105 230.279 128.056ZM209.557 92.1535V96.7018C207.492 96.2814 205.354 96.0593 203.165 96.0593C196.411 96.0593 190.142 98.1686 184.973 101.756V92.1535H209.557ZM161.382 92.1535V102.134C161.382 103.335 160.406 104.312 159.205 104.312H138.974C137.773 104.312 136.797 103.335 136.797 102.134V92.1535H161.382ZM113.207 92.1535V102.134C113.207 103.335 112.23 104.312 111.03 104.312H90.7993C89.5991 104.312 88.622 103.335 88.622 102.134V92.1535H113.207ZM40.4468 102.134V92.1535H65.0322V102.134C65.0322 103.335 64.0556 104.312 62.855 104.312H42.624C41.4238 104.312 40.4468 103.335 40.4468 102.134ZM40.4468 181.523C40.4468 180.322 41.4233 179.345 42.624 179.345H62.8545C64.0551 179.345 65.0317 180.322 65.0317 181.523V190.517H40.4468V181.523ZM32.3218 196.377C32.3218 195.838 32.7598 195.4 33.2983 195.4H216.705C217.243 195.4 217.681 195.838 217.681 196.377V202.562H32.3218V196.377ZM223.226 214.251C223.226 214.789 222.788 215.227 222.25 215.227H27.7539C27.2153 215.227 26.7773 214.789 26.7773 214.251V208.421C26.7773 207.883 27.2153 207.445 27.7539 207.445H222.25C222.788 207.445 223.226 207.883 223.226 208.421V214.251Z" fill="#1F4FDE"/>
<path d="M59.4365 59.8418C71.7718 59.8418 81.7715 49.8421 81.7715 37.5068C81.7715 25.1716 71.7718 15.1719 59.4365 15.1719C47.1013 15.1719 37.1016 25.1716 37.1016 37.5068C37.1016 49.8421 47.1013 59.8418 59.4365 59.8418Z" fill="white"/>
<path d="M69.6816 51.1782C70.8818 50.5639 71.3564 49.0928 70.7422 47.8926C70.1274 46.6924 68.6562 46.2178 67.4565 46.832C65.9643 47.5962 64.3647 47.9834 62.7036 47.9834C59.4385 47.9834 56.5195 46.4809 54.5967 44.1323H61.3169C62.665 44.1323 63.7583 43.039 63.7583 41.6909C63.7583 40.3428 62.665 39.2495 61.3169 39.2495H52.3848C52.2891 38.6816 52.2275 38.102 52.2275 37.5073C52.2275 36.9126 52.2891 36.333 52.3848 35.7651H61.3169C62.665 35.7651 63.7583 34.6719 63.7583 33.3237C63.7583 31.9756 62.665 30.8823 61.3169 30.8823H54.5967C56.5195 28.5337 59.439 27.0312 62.7036 27.0312C64.3647 27.0312 65.9638 27.4185 67.4565 28.1831C68.6572 28.7974 70.1279 28.3227 70.7422 27.1226C71.3564 25.9224 70.8818 24.4512 69.6816 23.8369C67.4936 22.7168 65.1455 22.1484 62.7031 22.1484C56.6055 22.1484 51.3267 25.7207 48.8486 30.8823H46.3945C45.0464 30.8823 43.9531 31.9756 43.9531 33.3237C43.9531 34.6719 45.0464 35.7651 46.3945 35.7651H47.4458C47.3809 36.3374 47.3442 36.918 47.3442 37.5073C47.3442 38.0967 47.3809 38.6772 47.4458 39.2495H46.3945C45.0464 39.2495 43.9531 40.3428 43.9531 41.6909C43.9531 43.039 45.0464 44.1323 46.3945 44.1323H48.8486C51.3267 49.2939 56.6055 52.8662 62.7031 52.8662C65.1455 52.8662 67.4936 52.2983 69.6816 51.1782" fill="#9BACF2"/>
<path d="M20.8207 183.753C20.1957 183.753 19.5712 183.515 19.0941 183.039C18.1405 182.085 18.1405 180.539 19.0941 179.586L23.9769 174.703C24.9305 173.75 26.4759 173.75 27.4296 174.703C28.3832 175.657 28.3832 177.203 27.4296 178.156L22.5468 183.039C22.0702 183.515 21.4457 183.753 20.8207 183.753V183.753Z" fill="#9BACF2"/>
<path d="M230.277 197.232C229.653 197.232 229.027 196.994 228.551 196.517C227.598 195.563 227.598 194.018 228.551 193.064L233.434 188.182C234.387 187.229 235.933 187.229 236.886 188.182C237.84 189.135 237.84 190.681 236.886 191.634L232.003 196.517C231.527 196.994 230.902 197.232 230.277 197.232V197.232Z" fill="#9BACF2"/>
<path d="M192.867 26.7866C192.243 26.7866 191.617 26.5483 191.141 26.0718L188.473 23.4038L185.804 26.0718C184.851 27.0249 183.305 27.0249 182.352 26.0718C181.398 25.1182 181.398 23.5723 182.352 22.6191L186.746 18.2246C187.699 17.2715 189.246 17.2715 190.199 18.2246L194.593 22.6191C195.547 23.5727 195.547 25.1186 194.593 26.0718C194.117 26.5483 193.492 26.7866 192.867 26.7866Z" fill="#9BACF2"/>
<path d="M213.226 45.5952C212.602 45.5952 211.976 45.3569 211.5 44.8804L208.832 42.2124L206.163 44.8804C205.211 45.8335 203.664 45.8335 202.711 44.8804C201.758 43.9268 201.758 42.3809 202.711 41.4277L207.106 37.0332C208.058 36.0801 209.605 36.0801 210.558 37.0332L214.953 41.4277C215.906 42.3813 215.906 43.9272 214.953 44.8804C214.476 45.3569 213.851 45.5952 213.226 45.5952Z" fill="#9BACF2"/>
<path d="M25.2147 65.1089C24.5897 65.1089 23.9652 64.8706 23.4882 64.394L20.8202 61.7261L18.1522 64.394C17.1986 65.3472 15.6532 65.3472 14.6996 64.394C13.746 63.4404 13.746 61.8945 14.6996 60.9414L19.0941 56.5469C20.0477 55.5938 21.5931 55.5938 22.5467 56.5469L26.9413 60.9414C27.8949 61.895 27.8949 63.4409 26.9413 64.394C26.4642 64.8706 25.8397 65.1089 25.2147 65.1089Z" fill="#9BACF2"/>
</g>
<defs>
<linearGradient id="paint0_linear_1260_5824" x1="20.8625" y1="203.976" x2="204.938" y2="19.9001" gradientUnits="userSpaceOnUse">
<stop stop-color="#CEDBFC" stop-opacity="0"/>
<stop offset="1" stop-color="#B4C2FC"/>
</linearGradient>
<clipPath id="clip0_1260_5824">
<rect width="250" height="229.492" fill="white"/>
</clipPath>
</defs>
</svg>
