<svg width="236" height="230" viewBox="0 0 236 230" fill="none" xmlns="http://www.w3.org/2000/svg">
<path d="M233.107 159.225C222.523 111.607 209.197 85.2398 232.51 34.9975C244.131 9.95109 220.483 -7.57623 198.778 3.27632C185.425 9.95293 184.211 26.3231 182.006 37.4043C180.051 47.2327 167.048 48.3677 157.716 44.7159C105.444 24.2581 125.865 88.1495 83.6336 109.938C54.4293 125.006 22.3538 141.244 5.68044 171.501C-4.34852 189.701 -2.8113 235.851 24.3208 228.408C63.6167 217.629 97.966 170.424 142.845 186.974C164.039 194.789 172.738 225.261 196.503 227.703C231.271 231.276 239.239 186.813 233.107 159.225V159.225Z" fill="url(#paint0_linear_1432_6653)"/>
<g clip-path="url(#clip0_1432_6653)">
<path fill-rule="evenodd" clip-rule="evenodd" d="M117.999 61.68C124.941 61.68 130.589 56.0249 130.589 49.0844C130.589 42.1435 124.941 36.4887 117.999 36.4887C111.057 36.4887 105.409 42.1435 105.409 49.0844C105.409 56.0249 111.058 61.68 117.999 61.68ZM92.6383 113.828C92.7374 114.579 92.5866 115.237 92.1113 115.839L92.0862 115.871L92.0596 115.902C91.1015 117.017 89.2629 117.479 87.8502 117.513C85.5482 117.57 83.1328 116.503 82.5221 114.089C82.3655 113.47 81.7402 113.084 81.1175 113.239C80.5003 113.392 80.1205 114.029 80.2732 114.645C80.8727 117.064 82.7268 118.761 85.0844 119.46L86.4635 119.87V121.409C86.4635 122.05 86.9801 122.565 87.6209 122.565C88.2524 122.565 88.7782 122.041 88.7782 121.409V119.885L90.2098 119.503C91.5345 119.15 92.8947 118.471 93.8038 117.421C94.7526 116.325 95.1185 114.982 94.9442 113.549C94.4881 109.794 91.1385 108.487 87.8175 107.943C85.921 107.632 83.3113 106.855 83.2091 104.533C83.1231 102.584 84.6529 101.328 86.3979 100.934C88.7721 100.397 91.2658 101.391 92.2462 103.714C92.496 104.306 93.1777 104.585 93.7706 104.336C94.3509 104.093 94.6362 103.406 94.3917 102.825C93.5914 100.922 92.0619 99.4975 90.101 98.849L88.7786 98.4114V96.8989C88.7786 96.2666 88.2528 95.7423 87.6212 95.7423C86.9805 95.7423 86.4638 96.2578 86.4638 96.8989V98.4488L85.1426 98.8864C82.5749 99.7373 80.7601 101.872 80.8904 104.654C81.0593 108.253 84.2813 109.706 87.4439 110.226C89.5316 110.569 92.3623 111.318 92.6383 113.828ZM139.112 185.806L133.367 180.058C132.981 179.672 132.36 179.673 131.974 180.059C131.597 180.436 131.597 181.062 131.974 181.438L138.416 187.877C138.793 188.254 139.414 188.255 139.791 187.878C143.668 183.998 147.502 180.075 151.364 176.181C151.745 175.798 151.736 175.187 151.354 174.807C150.975 174.429 150.362 174.425 149.984 174.807L139.112 185.806ZM29.7529 70.8752L117.999 19.543L206.246 70.8748L29.7529 70.8752ZM59.8603 164.319H43.7014V83.9605H59.8603V164.319ZM176.138 83.9605H192.315V164.319H176.138V83.9605ZM155.17 105.265H146.196V96.2346L155.17 105.265ZM105.827 109.152C105.827 119.187 97.6565 127.361 87.6209 127.361C77.5779 127.361 69.3974 119.198 69.3974 109.152C69.3974 99.1073 77.5798 90.9427 87.6209 90.9427C97.655 90.9427 105.827 99.1177 105.827 109.152ZM141.663 163.135C151.706 163.135 159.887 171.297 159.887 181.344C159.887 191.388 151.705 199.553 141.663 199.553C131.629 199.553 123.458 191.378 123.458 181.344C123.457 171.308 131.627 163.135 141.663 163.135ZM209.374 178.75V188.558H161.06L161.617 186.189C161.991 184.601 162.183 182.975 162.183 181.344C162.183 181.122 162.183 180.9 162.183 180.677V178.75H209.374ZM76.8638 188.558H26.625V178.75H76.8638V188.558Z" fill="white"/>
<path fill-rule="evenodd" clip-rule="evenodd" d="M118 40.7292C122.609 40.7292 126.347 44.4763 126.347 49.0839C126.347 53.6907 122.609 57.4386 118 57.4386C113.39 57.4386 109.652 53.6907 109.652 49.0839C109.652 44.4763 113.39 40.7292 118 40.7292ZM118 63.6073C126.003 63.6073 132.517 57.0912 132.517 49.0839C132.517 41.0758 126.002 34.5605 118 34.5605C109.997 34.5605 103.482 41.0758 103.482 49.0839C103.482 57.0912 109.997 63.6073 118 63.6073ZM152.715 173.441C153.858 174.57 153.858 176.405 152.733 177.538C148.868 181.437 145.039 185.362 141.155 189.24C140.03 190.373 138.179 190.373 137.054 189.24L130.612 182.801C129.487 181.668 129.487 179.829 130.612 178.695C131.755 177.562 133.588 177.562 134.731 178.695L139.105 183.071L148.614 173.452C149.757 172.315 151.59 172.31 152.715 173.441ZM87.6216 124.492C85.9159 124.492 84.5364 123.111 84.5364 121.407V121.307C81.4695 120.397 79.1651 118.142 78.4029 115.108C78.0038 113.454 79.0016 111.78 80.6533 111.368C82.3045 110.96 83.9743 111.962 84.3915 113.616C84.7724 115.119 86.4603 115.617 87.8031 115.586C89.1279 115.551 90.2166 115.089 90.5979 114.645C90.6708 114.553 90.7795 114.437 90.7252 114.059C90.6889 113.685 90.5617 112.691 87.1319 112.128C80.2905 111.002 79.0749 107.019 78.9657 104.744C78.8027 101.217 80.9983 98.2293 84.5368 97.0565V96.8984C84.5368 95.1943 85.9159 93.8141 87.6219 93.8141C89.3098 93.8141 90.7071 95.1943 90.7071 96.8984V97.0183C93.1205 97.8164 95.1169 99.5899 96.169 102.077C96.8225 103.645 96.0784 105.454 94.5177 106.113C92.939 106.772 91.1423 106.032 90.4711 104.463C89.727 102.678 87.8216 102.586 86.8235 102.813C86.4059 102.905 85.0816 103.302 85.136 104.448C85.1722 105.361 86.7872 105.82 88.1301 106.04C93.4471 106.911 96.3687 109.36 96.8588 113.315C97.0947 115.335 96.5503 117.193 95.2618 118.682C94.1731 119.939 92.558 120.872 90.7071 121.365V121.408C90.7067 123.111 89.3091 124.492 87.6216 124.492ZM91.2507 153.442C91.2507 151.738 92.6297 150.357 94.3358 150.357H141.663C143.369 150.357 144.749 151.738 144.749 153.442C144.749 155.146 143.369 156.527 141.663 156.527H94.3358C92.6301 156.527 91.2507 155.146 91.2507 153.442ZM91.2507 139.494C91.2507 137.789 92.6297 136.409 94.3358 136.409H141.663C143.369 136.409 144.749 137.789 144.749 139.494C144.749 141.193 143.369 142.578 141.663 142.578H94.3358C92.6301 142.578 91.2507 141.193 91.2507 139.494ZM190.388 162.39H178.066V85.8874H190.388V162.39ZM199.77 174.508H168.666V168.559H199.77V174.508ZM207.446 186.63H163.494C163.893 184.933 164.111 183.163 164.111 181.343C164.111 181.12 164.111 180.9 164.111 180.676H207.446V186.63H207.446ZM141.663 197.625C150.646 197.625 157.959 190.319 157.959 181.344C157.959 172.364 150.646 165.062 141.663 165.062C132.699 165.062 125.385 172.364 125.385 181.344C125.385 190.319 132.699 197.625 141.663 197.625ZM81.0885 130.633V194.039H123.172C121.23 191.229 119.923 187.959 119.433 184.428H94.3362C92.6305 184.428 91.2511 183.047 91.2511 181.343C91.2511 179.639 92.6301 178.259 94.3362 178.259H119.433C119.832 175.468 120.722 172.843 122.029 170.475H94.3362C92.6305 170.475 91.2511 169.095 91.2511 167.391C91.2511 165.691 92.6301 164.306 94.3362 164.306H127.073C130.993 160.937 136.11 158.893 141.663 158.893C146.618 158.893 151.191 160.504 154.911 163.227V109.505H146.073C143.805 109.505 141.954 107.651 141.954 105.376V96.5472H106.186C108.509 99.9747 109.924 104.085 110.051 108.507H128.307C130.013 108.507 131.392 109.887 131.392 111.591C131.392 113.296 130.013 114.676 128.307 114.676H109.38C108.654 117.525 107.383 120.158 105.678 122.456H141.663C143.369 122.456 144.749 123.836 144.749 125.54C144.749 127.244 143.369 128.625 141.663 128.625H98.7637C95.4789 130.514 91.6682 131.601 87.6216 131.601C85.353 131.601 83.1574 131.262 81.0885 130.633ZM28.553 186.63V180.676H74.9368V186.63H28.553ZM36.2292 168.559H67.3332V174.508H36.2292V168.559ZM45.6295 85.8874H57.9329V162.39H45.6295V85.8874ZM71.3255 109.151C71.3255 118.131 78.6388 125.432 87.6216 125.432C96.5862 125.432 103.9 118.131 103.9 109.151C103.9 100.176 96.5862 92.8699 87.6216 92.8699C78.6388 92.8699 71.3255 100.176 71.3255 109.151ZM148.124 100.908L150.537 103.337H148.124V100.908ZM165.581 162.39H171.896V85.8874H64.1031V162.39H70.4183C72.1239 162.39 73.5034 163.771 73.5034 165.475V174.508H74.9372V127.661C69.0392 123.609 65.156 116.827 65.156 109.151C65.156 96.7751 75.2456 86.7016 87.6219 86.7016C92.1405 86.7016 96.3687 88.0583 99.9076 90.3793H144.168C145.565 90.3793 146.836 90.904 147.834 91.8949L159.557 103.627C160.555 104.621 161.081 105.885 161.081 107.286V170.079C161.607 171 162.098 171.968 162.497 172.97V165.475C162.496 163.771 163.875 162.39 165.581 162.39ZM28.553 78.7895V75.1153H207.446V78.7895C207.446 79.2907 207.029 79.7187 206.521 79.7187H29.4783C28.9887 79.7187 28.553 79.2907 28.553 78.7895ZM118 21.7725L36.9008 68.947H199.098L118 21.7725ZM206.521 85.8874C210.423 85.8874 213.616 82.7032 213.616 78.7895V72.031C213.616 70.9322 213.036 69.9178 212.074 69.3673L119.56 15.5375C118.598 14.9823 117.419 14.9823 116.457 15.5375L23.9254 69.3673C22.9819 69.9178 22.3828 70.9322 22.3828 72.031V78.7895C22.3828 82.7032 25.5766 85.8874 29.4783 85.8874H39.4592V162.39H33.1441C31.438 162.39 30.059 163.771 30.059 165.475V174.508H25.4679C23.7623 174.508 22.3828 175.893 22.3828 177.592V189.714C22.3828 191.418 23.7619 192.798 25.4679 192.798H74.9368V195.035C74.9368 197.887 77.2416 200.208 80.1085 200.208H129.523C133.025 202.471 137.199 203.794 141.663 203.794C149.865 203.794 157.052 199.376 160.971 192.798H210.531C212.237 192.798 213.616 191.418 213.616 189.714V177.592C213.616 175.893 212.237 174.508 210.531 174.508H205.94V165.475C205.94 163.771 204.561 162.39 202.855 162.39H196.54V85.8874H206.521Z" fill="#1F4FDE"/>
</g>
<defs>
<linearGradient id="paint0_linear_1432_6653" x1="44.813" y1="261.49" x2="264.43" y2="41.8738" gradientUnits="userSpaceOnUse">
<stop stop-color="#D1DDFF" stop-opacity="0"/>
<stop offset="1" stop-color="#B6C4FF"/>
</linearGradient>
<clipPath id="clip0_1432_6653">
<rect width="192" height="188.916" fill="white" transform="translate(22 15)"/>
</clipPath>
</defs>
</svg>
