<svg width="254" height="230" viewBox="0 0 254 230" fill="none" xmlns="http://www.w3.org/2000/svg">
<path d="M247.08 120.89C235.576 95.5327 208.634 80.9392 196.602 56.5468C184.798 32.6198 176.386 -8.66747 144.065 1.61341C89.6902 18.909 -8.48518 93.2887 18.649 157.849C25.1932 173.42 43.9069 179.635 55.773 191.631C76.7048 212.791 98.3326 226.762 129.44 229.141C190.781 233.831 278.87 190.967 247.08 120.89Z" fill="url(#paint0_linear_1260_7241)"/>
<g clip-path="url(#clip0_1260_7241)">
<path fill-rule="evenodd" clip-rule="evenodd" d="M14.0221 180.54C13.1962 180.54 12.5296 181.221 12.5296 182.046C12.5296 182.872 13.1951 183.554 14.0221 183.554H43.4268C44.261 183.554 44.937 182.883 44.937 182.046C44.937 181.21 44.2595 180.54 43.4268 180.54H14.0221ZM14.0221 169.506C13.1977 169.506 12.5296 170.189 12.5296 171.012C12.5296 171.838 13.1958 172.518 14.0221 172.518H43.4268C44.2595 172.518 44.937 171.848 44.937 171.012C44.937 170.178 44.258 169.506 43.4268 169.506H14.0221ZM148.957 180.54C148.125 180.54 147.447 181.21 147.447 182.046C147.447 182.883 148.124 183.554 148.957 183.554H178.344C179.178 183.554 179.855 182.883 179.855 182.046C179.855 181.21 179.177 180.54 178.344 180.54H148.957ZM148.957 169.506C148.126 169.506 147.447 170.178 147.447 171.012C147.447 171.848 148.125 172.518 148.957 172.518H178.344C179.177 172.518 179.855 171.848 179.855 171.012C179.855 170.178 179.176 169.506 178.344 169.506H148.957ZM51.4381 28.4839C52.2708 28.4839 52.9482 27.8141 52.9482 26.9779C52.9482 26.1436 52.2693 25.4719 51.4381 25.4719H16.2198C15.3887 25.4719 14.7097 26.1436 14.7097 26.9779C14.7097 27.8141 15.3872 28.4839 16.2198 28.4839H51.4381ZM51.4381 41.7055C52.27 41.7055 52.9482 41.0368 52.9482 40.2014C52.9482 39.3671 52.2693 38.6954 51.4381 38.6954H16.2198C15.3887 38.6954 14.7097 39.3671 14.7097 40.2014C14.7097 41.0368 15.3879 41.7055 16.2198 41.7055H51.4381ZM178.344 33.7619C179.177 33.7619 179.855 33.0921 179.855 32.2559C179.855 31.4205 179.176 30.7518 178.344 30.7518H148.957C148.126 30.7518 147.447 31.4205 147.447 32.2559C147.447 33.0921 148.125 33.7619 148.957 33.7619H178.344ZM178.344 44.7976C179.177 44.7976 179.855 44.1278 179.855 43.2916C179.855 42.4554 179.177 41.7857 178.344 41.7857H148.957C148.125 41.7857 147.447 42.4554 147.447 43.2916C147.447 44.1278 148.125 44.7976 148.957 44.7976H178.344ZM136.691 137.593L104.14 131.5C103.327 131.348 102.535 131.882 102.384 132.7C102.233 133.518 102.777 134.309 103.593 134.462L134.585 140.264L132.629 142.278C123.03 152.167 109.967 157.719 96.1921 157.719C83.7376 157.719 71.8073 153.177 62.4929 144.896L61.2999 143.835L96.8098 108.24H147.079L146.984 109.836C146.398 119.602 143.01 128.934 137.249 136.828L136.691 137.593ZM52.9588 165.937V187.126C52.9588 189.766 50.8087 191.903 48.1766 191.903H9.2719C6.64693 191.903 4.50781 189.756 4.50781 187.126V165.937C4.50781 163.306 6.64618 161.16 9.2719 161.16H48.177C50.8099 161.16 52.9588 163.295 52.9588 165.937ZM144.208 161.16H183.112C185.738 161.16 187.876 163.306 187.876 165.937V187.126C187.876 189.756 185.737 191.903 183.112 191.903H144.208C141.575 191.903 139.425 189.766 139.425 187.126V165.937C139.425 163.295 141.574 161.16 144.208 161.16ZM57.1453 52.3131H10.5303C7.20943 52.3131 4.50781 49.6163 4.50781 46.2874V20.8949C4.50781 17.5641 7.2083 14.8711 10.5303 14.8711H57.1453C60.4605 14.8711 63.1501 17.575 63.1501 20.8949V46.2874C63.1501 49.6057 60.459 52.3131 57.1453 52.3131ZM139.425 48.3709V27.1782C139.425 24.5379 141.575 22.399 144.208 22.399H183.112C185.738 22.399 187.876 24.548 187.876 27.1782V48.3705C187.876 50.9995 185.736 53.1478 183.112 53.1478H144.208C141.576 53.1481 139.425 51.0104 139.425 48.3709Z" fill="white"/>
<path fill-rule="evenodd" clip-rule="evenodd" d="M16.2179 43.2121H51.4362C53.1023 43.2121 54.4494 41.8643 54.4494 40.2021C54.4494 38.5417 53.1023 37.1901 51.4362 37.1901H16.2179C14.5519 37.1901 13.2048 38.5417 13.2048 40.2021C13.2048 41.8643 14.5519 43.2121 16.2179 43.2121ZM16.2179 29.9905H51.4362C53.1023 29.9905 54.4494 28.6427 54.4494 26.9786C54.4494 25.3179 53.1023 23.9667 51.4362 23.9667H16.2179C14.5519 23.9667 13.2048 25.3183 13.2048 26.9786C13.2048 28.6423 14.5519 29.9905 16.2179 29.9905ZM6.00855 46.288V20.8956C6.00855 18.4021 8.02894 16.3777 10.5284 16.3777H57.1434C59.6249 16.3777 61.6453 18.4025 61.6453 20.8956V46.288C61.6453 48.7778 59.6245 50.8078 57.1434 50.8078H10.5284C8.02931 50.8078 6.00855 48.7781 6.00855 46.288ZM0 46.288V20.8956C0 15.0811 4.71448 10.3535 10.5284 10.3535H57.1434C62.9393 10.3535 67.6719 15.0811 67.6719 20.8956V46.288C67.6719 52.1026 62.9393 56.8302 57.1434 56.8302H10.5284C4.71486 56.8302 0 52.1026 0 46.288ZM181.356 43.2923C181.356 41.6282 180.009 40.2804 178.343 40.2804H148.955C147.289 40.2804 145.942 41.6282 145.942 43.2923C145.942 44.9564 147.289 46.3042 148.955 46.3042H178.343C180.009 46.3042 181.356 44.9564 181.356 43.2923ZM148.955 35.2685H178.343C180.009 35.2685 181.356 33.9207 181.356 32.2566C181.356 30.5944 180.009 29.2466 178.343 29.2466H148.955C147.289 29.2466 145.942 30.5944 145.942 32.2566C145.942 33.9203 147.289 35.2685 148.955 35.2685ZM138.126 80.6334L118.328 87.4441C118.009 87.5559 117.672 87.6094 117.353 87.6094C116.113 87.6094 114.943 86.8225 114.518 85.576C113.968 84.0026 114.801 82.2903 116.379 81.747L134.475 75.5207C126.003 65.1099 113.401 58.2089 99.2041 57.3508V103.722H145.482C144.968 95.2864 142.345 87.414 138.126 80.6334ZM100.905 132.427C101.206 130.793 102.783 129.712 104.414 130.021L136.034 135.94C141.458 128.508 144.897 119.505 145.481 109.747H97.4309L63.4887 143.77C72.1913 151.508 83.6591 156.214 96.1902 156.214C110.051 156.214 122.582 150.467 131.551 141.228L103.315 135.943C101.685 135.634 100.603 134.061 100.905 132.427ZM71.1456 101.833C72.67 101.2 73.4144 99.4387 72.7764 97.9026C72.1383 96.3628 70.3836 95.6294 68.8592 96.2653L46.8281 105.353C47.5371 79.7102 67.8135 58.8873 93.1771 57.3508V105.488L59.2348 139.508C52.553 131.957 48.1394 122.352 47.0581 111.773L71.1456 101.833ZM183.11 162.666H144.206C142.398 162.666 140.927 164.131 140.927 165.938V187.126C140.927 188.931 142.398 190.398 144.206 190.398H183.11C184.9 190.398 186.372 188.931 186.372 187.126V165.938C186.372 164.131 184.9 162.666 183.11 162.666ZM48.1748 162.666H9.27003C7.47998 162.666 6.00893 164.131 6.00893 165.938V187.126C6.00893 188.931 7.47998 190.398 9.27003 190.398H48.1751C49.9829 190.398 51.4543 188.931 51.4543 187.126V165.938C51.4539 164.131 49.9829 162.666 48.1748 162.666ZM144.206 51.6429C142.398 51.6429 140.927 50.1742 140.927 48.3715V27.1789C140.927 25.3744 142.398 23.9057 144.206 23.9057H183.11C184.9 23.9057 186.372 25.3744 186.372 27.1789V48.3712C186.372 50.1738 184.9 51.6425 183.11 51.6425H144.206V51.6429ZM164.624 71.5065L143.94 78.6297C148.796 86.879 151.579 96.4866 151.579 106.734C151.579 117.958 148.247 128.409 142.504 137.151L164.199 141.212C165.617 141.48 166.663 142.727 166.663 144.176V156.642H183.111C188.215 156.642 192.381 160.81 192.381 165.937V187.126C192.381 192.249 188.216 196.423 183.111 196.423H144.206C139.084 196.423 134.918 192.249 134.918 187.126V165.937C134.918 160.81 139.083 156.642 144.206 156.642H160.654V146.677L138.481 142.526C128.325 154.574 113.135 162.235 96.1906 162.235C68.1506 162.235 44.9317 141.262 41.2982 114.152L31.7272 118.096V156.642H48.1755C53.2977 156.642 57.4628 160.81 57.4628 165.937V187.126C57.4628 192.249 53.2977 196.423 48.1755 196.423H9.27003C4.16552 196.423 0.000375746 192.249 0.000375746 187.126V165.937C0.000375746 160.81 4.16552 156.642 9.27003 156.642H25.7183V116.079C25.7183 114.859 26.4627 113.76 27.5794 113.296L40.8195 107.839C40.8019 107.469 40.8019 107.103 40.8019 106.734C40.8019 76.1291 65.6515 51.2321 96.1906 51.2321C114.287 51.2321 130.363 59.9663 140.484 73.4492L160.654 66.5105V57.6663H144.206C139.084 57.6663 134.918 53.4944 134.918 48.3708V27.1789C134.918 22.0533 139.083 17.8837 144.206 17.8837H183.111C188.215 17.8837 192.381 22.0533 192.381 27.1789V48.3712C192.381 53.4948 188.216 57.6667 183.111 57.6667H166.663V68.6599C166.662 69.9437 165.847 71.0893 164.624 71.5065ZM145.942 171.013C145.942 169.353 147.289 168.001 148.955 168.001H178.343C180.009 168.001 181.356 169.353 181.356 171.013C181.356 172.677 180.009 174.025 178.343 174.025H148.955C147.289 174.025 145.942 172.677 145.942 171.013ZM178.343 179.035C180.009 179.035 181.356 180.383 181.356 182.047C181.356 183.713 180.009 185.061 178.343 185.061H148.955C147.289 185.061 145.942 183.713 145.942 182.047C145.942 180.383 147.289 179.035 148.955 179.035H178.343ZM43.4246 179.035C45.0906 179.035 46.4377 180.383 46.4377 182.047C46.4377 183.713 45.0906 185.061 43.4246 185.061H14.0202C12.3718 185.061 11.0248 183.713 11.0248 182.047C11.0248 180.383 12.3718 179.035 14.0202 179.035H43.4246ZM14.0202 168.001H43.425C45.091 168.001 46.4381 169.353 46.4381 171.013C46.4381 172.677 45.091 174.025 43.425 174.025H14.0202C12.3718 174.025 11.0248 172.677 11.0248 171.013C11.0248 169.353 12.3718 168.001 14.0202 168.001Z" fill="#1F4FDE"/>
</g>
<defs>
<linearGradient id="paint0_linear_1260_7241" x1="63.9536" y1="206.505" x2="217.143" y2="53.6181" gradientUnits="userSpaceOnUse">
<stop stop-color="#D0DCFF" stop-opacity="0"/>
<stop offset="1" stop-color="#B5C3FF"/>
</linearGradient>
<clipPath id="clip0_1260_7241">
<rect width="192.382" height="186.739" fill="white" transform="translate(0 10.0195)"/>
</clipPath>
</defs>
</svg>
