<svg width="261" height="233" viewBox="0 0 261 233" fill="none" xmlns="http://www.w3.org/2000/svg">
<path d="M254.08 120.65C242.576 95.3438 215.634 80.7791 203.602 56.4349C191.798 32.5553 183.386 -8.65033 151.065 1.61022C96.6902 18.8716 -1.48518 93.1041 25.649 157.537C32.1932 173.077 50.9069 179.28 62.773 191.252C83.7048 212.371 105.333 226.313 136.44 228.687C197.781 233.369 285.87 190.589 254.08 120.65V120.65Z" fill="url(#paint0_linear_405_10801)"/>
<g clip-path="url(#clip0_405_10801)">
<rect width="210" height="210" transform="translate(0 23)" fill="white"/>
<path d="M80.5509 138.479H73.5654V159.435L56.1018 152.449L38.6382 159.435V138.479H31.6527C24.2421 138.479 17.135 141.422 11.8949 146.662C6.6548 151.903 3.71094 159.01 3.71094 166.42V229.289H108.493V166.42C108.493 159.01 105.549 151.903 100.309 146.662C95.0686 141.422 87.9615 138.479 80.5509 138.479Z" fill="#C2D2FF"/>
<path d="M45.6248 54.6525C45.6248 52.7999 44.8889 51.0231 43.5789 49.7131C42.2688 48.4031 40.4921 47.6671 38.6394 47.6671H35.1467C31.4414 47.6671 27.8878 49.139 25.2678 51.7591C22.6477 54.3791 21.1758 57.9327 21.1758 61.638V87.0615C22.2323 86.431 23.4382 86.0946 24.6685 86.087H31.654V79.1016C31.654 77.2489 32.3899 75.4722 33.6999 74.1621C35.01 72.8521 36.7867 72.1162 38.6394 72.1162H73.5666C75.4193 72.1162 77.1961 72.8521 78.5061 74.1621C79.8161 75.4722 80.5521 77.2489 80.5521 79.1016V86.087H87.5375C88.7678 86.0946 89.9737 86.431 91.0303 87.0615V61.638C91.0303 56.08 88.8224 50.7497 84.8923 46.8196C80.9622 42.8895 75.6319 40.6816 70.0739 40.6816H59.5957C55.8904 40.6816 52.3369 42.1536 49.7168 44.7736C47.0968 47.3937 45.6248 50.9472 45.6248 54.6525Z" fill="#C2D2FF"/>
<path d="M171.363 61.6382H206.291L171.363 26.7109V61.6382Z" fill="#C2D2FF"/>
<path d="M115.48 124.507C115.48 133.771 119.16 142.654 125.71 149.205C132.261 155.755 141.144 159.435 150.408 159.435C159.671 159.435 168.555 155.755 175.105 149.205C181.655 142.654 185.335 133.771 185.335 124.507H150.408V89.5801C141.144 89.5801 132.261 93.2599 125.71 99.81C119.16 106.36 115.48 115.244 115.48 124.507Z" fill="#C2D2FF"/>
<path d="M45.6255 96.5661C46.5519 96.5661 47.4403 96.1981 48.0953 95.5431C48.7503 94.8881 49.1183 93.9997 49.1183 93.0733V89.5806C49.1183 88.6543 48.7503 87.7659 48.0953 87.1109C47.4403 86.4559 46.5519 86.0879 45.6255 86.0879C44.6992 86.0879 43.8108 86.4559 43.1558 87.1109C42.5008 87.7659 42.1328 88.6543 42.1328 89.5806V93.0733C42.1328 93.9997 42.5008 94.8881 43.1558 95.5431C43.8108 96.1981 44.6992 96.5661 45.6255 96.5661Z" fill="#1F4FDE"/>
<path d="M66.5787 96.5661C67.505 96.5661 68.3934 96.1981 69.0484 95.5431C69.7034 94.8881 70.0714 93.9997 70.0714 93.0733V89.5806C70.0714 88.6543 69.7034 87.7659 69.0484 87.1109C68.3934 86.4559 67.505 86.0879 66.5787 86.0879C65.6523 86.0879 64.7639 86.4559 64.1089 87.1109C63.4539 87.7659 63.0859 88.6543 63.0859 89.5806V93.0733C63.0859 93.9997 63.4539 94.8881 64.1089 95.5431C64.7639 96.1981 65.6523 96.5661 66.5787 96.5661Z" fill="#1F4FDE"/>
<path d="M56.1021 162.928C55.1758 162.928 54.2874 163.296 53.6324 163.951C52.9774 164.606 52.6094 165.494 52.6094 166.42V169.913C52.6094 170.84 52.9774 171.728 53.6324 172.383C54.2874 173.038 55.1758 173.406 56.1021 173.406C57.0284 173.406 57.9168 173.038 58.5718 172.383C59.2268 171.728 59.5948 170.84 59.5948 169.913V166.42C59.5948 165.494 59.2268 164.606 58.5718 163.951C57.9168 163.296 57.0284 162.928 56.1021 162.928Z" fill="#1F4FDE"/>
<path d="M56.1021 180.391C55.1758 180.391 54.2874 180.759 53.6324 181.414C52.9774 182.069 52.6094 182.957 52.6094 183.883V187.376C52.6094 188.302 52.9774 189.191 53.6324 189.846C54.2874 190.501 55.1758 190.869 56.1021 190.869C57.0284 190.869 57.9168 190.501 58.5718 189.846C59.2268 189.191 59.5948 188.302 59.5948 187.376V183.883C59.5948 182.957 59.2268 182.069 58.5718 181.414C57.9168 180.759 57.0284 180.391 56.1021 180.391Z" fill="#1F4FDE"/>
<path d="M56.1021 197.855C55.1758 197.855 54.2874 198.223 53.6324 198.878C52.9774 199.533 52.6094 200.422 52.6094 201.348V204.841C52.6094 205.767 52.9774 206.656 53.6324 207.311C54.2874 207.966 55.1758 208.334 56.1021 208.334C57.0284 208.334 57.9168 207.966 58.5718 207.311C59.2268 206.656 59.5948 205.767 59.5948 204.841V201.348C59.5948 200.422 59.2268 199.533 58.5718 198.878C57.9168 198.223 57.0284 197.855 56.1021 197.855Z" fill="#1F4FDE"/>
<path d="M59.5948 222.304V218.811C59.5948 217.885 59.2268 216.996 58.5718 216.341C57.9168 215.686 57.0284 215.318 56.1021 215.318C55.1758 215.318 54.2874 215.686 53.6324 216.341C52.9774 216.996 52.6094 217.885 52.6094 218.811V222.304C52.6094 223.23 52.9774 224.119 53.6324 224.774C54.2874 225.429 55.1758 225.797 56.1021 225.797C57.0284 225.797 57.9168 225.429 58.5718 224.774C59.2268 224.119 59.5948 223.23 59.5948 222.304Z" fill="#1F4FDE"/>
<path d="M69.046 104.579C68.7217 104.254 68.3365 103.997 67.9125 103.821C67.4884 103.645 67.0339 103.555 66.5749 103.555C66.1159 103.555 65.6615 103.645 65.2374 103.821C64.8134 103.997 64.4282 104.254 64.1038 104.579C61.9798 106.698 59.1021 107.888 56.102 107.888C53.1019 107.888 50.2242 106.698 48.1002 104.579C47.4335 103.986 46.565 103.67 45.6728 103.697C44.7807 103.724 43.9327 104.091 43.3029 104.723C42.6731 105.356 42.3094 106.205 42.2863 107.098C42.2633 107.99 42.5827 108.857 43.1789 109.521C46.6141 112.95 51.2694 114.876 56.123 114.876C60.9765 114.876 65.6318 112.95 69.067 109.521C69.3904 109.196 69.6464 108.809 69.8203 108.384C69.9943 107.96 70.0829 107.505 70.0809 107.046C70.079 106.587 69.9866 106.133 69.809 105.709C69.6314 105.286 69.3722 104.902 69.046 104.579Z" fill="#1F4FDE"/>
<path d="M208.769 59.1589L173.842 24.2316C173.176 23.5883 172.288 23.2256 171.362 23.2188H66.5805C65.6542 23.2188 64.7658 23.5867 64.1108 24.2417C63.4558 24.8968 63.0878 25.7851 63.0878 26.7115V37.1896H59.5951C56.5254 37.1893 53.5102 37.9999 50.8545 39.5394C48.1988 41.0788 45.9968 43.2925 44.4716 45.9564C42.7475 44.7962 40.7168 44.1761 38.6387 44.1751H35.146C30.5143 44.1751 26.0724 46.015 22.7973 49.2901C19.5223 52.5651 17.6824 57.0071 17.6824 61.6387V85.3194C16.5882 86.2939 15.7116 87.4881 15.1098 88.8241C14.508 90.1601 14.1945 91.6079 14.1896 93.0732V96.5659C14.1979 99.3424 15.3045 102.003 17.2678 103.966C19.231 105.929 21.8914 107.036 24.6678 107.044H28.405C28.9527 111.313 30.4757 115.398 32.856 118.984C35.2363 122.57 38.4101 125.559 42.1314 127.721V134.986H31.6533C23.3203 134.999 15.3323 138.315 9.43999 144.207C3.54768 150.099 0.231682 158.087 0.21875 166.42V229.289C0.21875 230.216 0.586732 231.104 1.24174 231.759C1.89676 232.414 2.78515 232.782 3.71147 232.782H108.493C109.42 232.782 110.308 232.414 110.963 231.759C111.618 231.104 111.986 230.216 111.986 229.289V225.797H206.289C207.216 225.797 208.104 225.429 208.759 224.774C209.414 224.119 209.782 223.23 209.782 222.304V61.6387C209.775 60.7127 209.413 59.8249 208.769 59.1589ZM174.855 35.1289L197.872 58.146H174.855V35.1289ZM28.1605 100.059H24.6678C23.7415 100.059 22.8531 99.6907 22.1981 99.0357C21.5431 98.3807 21.1751 97.4923 21.1751 96.5659V93.0732C21.1751 92.1469 21.5431 91.2585 22.1981 90.6035C22.8531 89.9485 23.7415 89.5805 24.6678 89.5805H28.1605V100.059ZM28.1605 79.1023V82.5951H24.6678V61.6387C24.6761 58.8623 25.7827 56.2019 27.746 54.2387C29.7092 52.2754 32.3696 51.1688 35.146 51.1605H38.6387C39.565 51.1605 40.4534 51.5285 41.1084 52.1835C41.7635 52.8385 42.1314 53.7269 42.1314 54.6533C42.1314 55.5796 42.4994 56.468 43.1544 57.123C43.8094 57.778 44.6978 58.146 45.6242 58.146C46.5505 58.146 47.4389 57.778 48.0939 57.123C48.7489 56.468 49.1169 55.5796 49.1169 54.6533C49.1252 51.8768 50.2318 49.2165 52.195 47.2532C54.1583 45.29 56.8186 44.1834 59.5951 44.1751H70.0732C74.7049 44.1751 79.1468 46.015 82.4219 49.2901C85.6969 52.5651 87.5368 57.0071 87.5368 61.6387V82.5951H84.0441V79.1023C84.0358 76.3259 82.9292 73.6655 80.966 71.7023C79.0027 69.7391 76.3424 68.6325 73.5659 68.6242H38.6387C35.8623 68.6325 33.2019 69.7391 31.2387 71.7023C29.2754 73.6655 28.1688 76.3259 28.1605 79.1023ZM91.0296 93.0732V96.5659C91.0296 97.4923 90.6616 98.3807 90.0066 99.0357C89.3516 99.6907 88.4632 100.059 87.5368 100.059H84.0441V89.5805H87.5368C88.4632 89.5805 89.3516 89.9485 90.0066 90.6035C90.6616 91.2585 91.0296 92.1469 91.0296 93.0732ZM35.146 103.551V79.1023C35.146 78.176 35.514 77.2876 36.169 76.6326C36.824 75.9776 37.7124 75.6096 38.6387 75.6096H73.5659C74.4923 75.6096 75.3807 75.9776 76.0357 76.6326C76.6907 77.2876 77.0587 78.176 77.0587 79.1023V103.551C77.0587 109.109 74.8508 114.44 70.9207 118.37C66.9906 122.3 61.6603 124.508 56.1023 124.508C50.5444 124.508 45.214 122.3 41.284 118.37C37.3539 114.44 35.146 109.109 35.146 103.551ZM68.3269 141.971H70.0732V154.266L61.6208 150.913L68.3269 141.971ZM56.1023 146.617L49.1169 137.326V130.585C53.6951 131.796 58.5095 131.796 63.0878 130.585V137.326L56.1023 146.617ZM42.1314 141.971H43.8778L50.5838 150.913L42.1314 154.266V141.971ZM105 225.797H91.0296V173.406C91.0296 172.48 90.6616 171.591 90.0066 170.936C89.3516 170.281 88.4632 169.913 87.5368 169.913C86.6105 169.913 85.7221 170.281 85.0671 170.936C84.4121 171.591 84.0441 172.48 84.0441 173.406V225.797H28.1605V173.406C28.1605 172.48 27.7926 171.591 27.1375 170.936C26.4825 170.281 25.5941 169.913 24.6678 169.913C23.7415 169.913 22.8531 170.281 22.1981 170.936C21.5431 171.591 21.1751 172.48 21.1751 173.406V225.797H7.2042V166.42C7.21159 159.938 9.78984 153.724 14.3733 149.14C18.9568 144.557 25.1712 141.979 31.6533 141.971H35.146V159.435C35.1451 160.007 35.2848 160.571 35.5528 161.076C35.8208 161.582 36.2088 162.014 36.6828 162.334C37.263 162.718 37.9428 162.924 38.6387 162.928C39.0816 162.934 39.5212 162.851 39.931 162.683L56.1023 156.222L72.2736 162.683C72.6834 162.851 73.1231 162.934 73.5659 162.928C74.2618 162.924 74.9416 162.718 75.5219 162.334C75.9959 162.014 76.3839 161.582 76.6519 161.076C76.9198 160.571 77.0595 160.007 77.0587 159.435V141.971H80.5514C87.0334 141.979 93.2478 144.557 97.8313 149.14C102.415 153.724 104.993 159.938 105 166.42V225.797ZM202.797 218.811H111.986V166.42C111.973 158.087 108.657 150.099 102.765 144.207C96.8724 138.315 88.8844 134.999 80.5514 134.986H70.0732V127.721C73.7946 125.559 76.9683 122.57 79.3487 118.984C81.729 115.398 83.252 111.313 83.7996 107.044H87.5368C90.3133 107.036 92.9736 105.929 94.9369 103.966C96.9001 102.003 98.0067 99.3424 98.015 96.5659V93.0732C98.0102 91.6079 97.6967 90.1601 97.0949 88.8241C96.4931 87.4881 95.6165 86.2939 94.5223 85.3194V61.6387C94.5149 55.1567 91.9366 48.9423 87.3532 44.3588C82.7697 39.7753 76.5552 37.197 70.0732 37.1896V30.2042H167.869V61.6387C167.869 62.565 168.237 63.4534 168.892 64.1084C169.547 64.7635 170.436 65.1314 171.362 65.1314H202.797V218.811Z" fill="#1F4FDE"/>
<path d="M115.479 82.5949V78.7529C121.56 77.6107 125.957 73.5941 125.957 68.624C125.957 62.7492 119.821 58.1458 111.987 58.1458C107.722 58.1458 105.001 56.0781 105.001 54.6531C105.001 53.228 107.722 51.1603 111.987 51.1603C116.251 51.1603 118.972 53.228 118.972 54.6531C118.972 55.5794 119.34 56.4678 119.995 57.1228C120.65 57.7778 121.538 58.1458 122.465 58.1458C123.391 58.1458 124.279 57.7778 124.934 57.1228C125.589 56.4678 125.957 55.5794 125.957 54.6531C125.957 49.6899 121.56 45.6733 115.479 44.5242V40.6822C115.479 39.7558 115.111 38.8675 114.456 38.2124C113.801 37.5574 112.913 37.1895 111.987 37.1895C111.06 37.1895 110.172 37.5574 109.517 38.2124C108.862 38.8675 108.494 39.7558 108.494 40.6822V44.5242C102.413 45.6663 98.0156 49.6829 98.0156 54.6531C98.0156 60.5278 104.152 65.1312 111.987 65.1312C116.251 65.1312 118.972 67.1989 118.972 68.624C118.972 70.049 116.251 72.1167 111.987 72.1167C107.722 72.1167 105.001 70.049 105.001 68.624C105.001 67.6976 104.633 66.8092 103.978 66.1542C103.323 65.4992 102.435 65.1312 101.508 65.1312C100.582 65.1312 99.6936 65.4992 99.0386 66.1542C98.3836 66.8092 98.0156 67.6976 98.0156 68.624C98.0156 73.5871 102.413 77.6038 108.494 78.7529V82.5949C108.494 83.5212 108.862 84.4096 109.517 85.0646C110.172 85.7196 111.06 86.0876 111.987 86.0876C112.913 86.0876 113.801 85.7196 114.456 85.0646C115.111 84.4096 115.479 83.5212 115.479 82.5949Z" fill="#1F4FDE"/>
<path d="M153.897 86.2625V86.0879H146.912V86.2625C137.066 87.1613 127.945 91.8213 121.447 99.2731C114.949 106.725 111.574 116.395 112.024 126.272C112.474 136.148 116.714 145.471 123.863 152.302C131.011 159.132 140.517 162.943 150.404 162.943C160.291 162.943 169.798 159.132 176.946 152.302C184.095 145.471 188.335 136.148 188.785 126.272C189.234 116.395 185.859 106.725 179.361 99.2731C172.864 91.8213 163.743 87.1613 153.897 86.2625ZM153.897 93.2829C160.975 94.0856 167.572 97.2654 172.61 102.303C177.647 107.34 180.827 113.937 181.629 121.015H153.897V93.2829ZM150.404 155.942C142.393 155.91 134.696 152.819 128.886 147.302C123.077 141.784 119.593 134.257 119.147 126.258C118.701 118.258 121.327 110.39 126.487 104.262C131.647 98.1329 138.953 94.2059 146.912 93.2829V125.94L169.999 149.027C164.452 153.508 157.535 155.949 150.404 155.942ZM174.923 144.102L158.822 128.001H181.629C180.978 133.898 178.651 139.486 174.923 144.102Z" fill="#1F4FDE"/>
<path d="M195.812 208.333C195.812 209.259 195.444 210.148 194.789 210.803C194.133 211.458 193.245 211.826 192.319 211.826H129.45C128.523 211.826 127.635 211.458 126.98 210.803C126.325 210.148 125.957 209.259 125.957 208.333V166.42C125.957 165.494 126.325 164.606 126.98 163.951C127.635 163.296 128.523 162.928 129.45 162.928C130.376 162.928 131.264 163.296 131.919 163.951C132.574 164.606 132.942 165.494 132.942 166.42V199.916L144.434 188.39C145.1 187.746 145.987 187.384 146.913 187.377H162.945L176.916 173.406H171.362C170.436 173.406 169.548 173.038 168.893 172.383C168.238 171.728 167.87 170.84 167.87 169.913C167.87 168.987 168.238 168.098 168.893 167.443C169.548 166.788 170.436 166.42 171.362 166.42H185.333C186.26 166.42 187.148 166.788 187.803 167.443C188.458 168.098 188.826 168.987 188.826 169.913V183.884C188.826 184.81 188.458 185.699 187.803 186.354C187.148 187.009 186.26 187.377 185.333 187.377C184.407 187.377 183.519 187.009 182.864 186.354C182.209 185.699 181.841 184.81 181.841 183.884V178.331L166.857 193.349C166.191 193.993 165.303 194.355 164.377 194.362H148.345L137.867 204.84H192.319C193.245 204.84 194.133 205.208 194.789 205.863C195.444 206.518 195.812 207.407 195.812 208.333Z" fill="#1F4FDE"/>
<path d="M132.942 65.1319H157.391C158.317 65.1319 159.206 64.7639 159.861 64.1089C160.516 63.4539 160.884 62.5655 160.884 61.6392C160.884 60.7129 160.516 59.8245 159.861 59.1695C159.206 58.5145 158.317 58.1465 157.391 58.1465H132.942C132.016 58.1465 131.127 58.5145 130.472 59.1695C129.817 59.8245 129.449 60.7129 129.449 61.6392C129.449 62.5655 129.817 63.4539 130.472 64.1089C131.127 64.7639 132.016 65.1319 132.942 65.1319Z" fill="#1F4FDE"/>
<path d="M192.318 72.1172H132.942C132.016 72.1172 131.127 72.4852 130.472 73.1402C129.817 73.7952 129.449 74.6836 129.449 75.6099C129.449 76.5362 129.817 77.4246 130.472 78.0796C131.127 78.7347 132.016 79.1026 132.942 79.1026H192.318C193.245 79.1026 194.133 78.7347 194.788 78.0796C195.443 77.4246 195.811 76.5362 195.811 75.6099C195.811 74.6836 195.443 73.7952 194.788 73.1402C194.133 72.4852 193.245 72.1172 192.318 72.1172Z" fill="#1F4FDE"/>
<path d="M132.942 51.1612H157.391C158.317 51.1612 159.206 50.7932 159.861 50.1382C160.516 49.4832 160.884 48.5948 160.884 47.6685C160.884 46.7422 160.516 45.8538 159.861 45.1988C159.206 44.5438 158.317 44.1758 157.391 44.1758H132.942C132.016 44.1758 131.127 44.5438 130.472 45.1988C129.817 45.8538 129.449 46.7422 129.449 47.6685C129.449 48.5948 129.817 49.4832 130.472 50.1382C131.127 50.7932 132.016 51.1612 132.942 51.1612Z" fill="#1F4FDE"/>
</g>
<defs>
<linearGradient id="paint0_linear_405_10801" x1="70.9536" y1="206.097" x2="223.841" y2="53.2094" gradientUnits="userSpaceOnUse">
<stop stop-color="#D0DCFF" stop-opacity="0"/>
<stop offset="1" stop-color="#B5C3FF"/>
</linearGradient>
<clipPath id="clip0_405_10801">
<rect width="210" height="210" fill="white" transform="translate(0 23)"/>
</clipPath>
</defs>
</svg>
