<svg width="239" height="230" viewBox="0 0 239 230" fill="none" xmlns="http://www.w3.org/2000/svg">
<path d="M236.94 100.484C231.408 77.3862 200.577 69.2487 182.048 70.2106C157.322 71.4942 146.12 63.6801 151.538 38.4176C154.634 23.9823 157.751 14.1615 135.439 6.54789C116.17 -0.0265828 54.016 -7.16291 41.0722 15.0711C34.7556 25.9217 58.0055 35.8187 47.0333 50.4793C39.2932 60.8217 16.3563 53.1745 3.96197 69.1379C-4.83375 80.4662 0.708526 99.0257 23.6729 108.872C43.2388 117.26 72.0207 122.097 77.291 146.284C79.933 158.407 66.4504 175.395 73.2124 193.239C78.438 207.03 94.1739 213.116 114.954 192.864C155.955 152.902 147.284 209.959 153.505 221.636C160.632 235.015 185.292 229.54 196.374 218.346C226.675 187.74 244.932 133.851 236.94 100.484Z" fill="url(#paint0_linear_1260_7555)"/>
<g clip-path="url(#clip0_1260_7555)">
<path d="M138.948 101.52V114.316C138.948 111.962 137.026 110.058 134.699 110.058H121.524C119.175 110.058 117.275 111.962 117.275 114.316V190.705H107.197C105.66 190.705 104.272 191.325 103.269 192.352C102.243 193.358 101.603 194.77 101.603 196.31C101.603 198.857 103.289 200.996 105.596 201.702C102.671 201.809 99.6601 201.874 96.5853 201.895C94.2364 201.938 91.8452 201.938 89.4323 201.938C51.746 201.938 21.1914 200.098 21.1914 162.289C21.1914 134.9 37.2692 96.0852 60.5217 76.8705C63.4895 74.3885 66.5856 72.2699 69.767 70.5156H109.14C112.321 72.2703 115.417 74.4098 118.385 76.8705C123.638 81.2141 128.527 86.5422 132.905 92.5332C135.062 95.4005 137.047 98.3964 138.948 101.52Z" fill="#E8EDFC"/>
<path d="M115.204 28.4705C115.204 34.3124 113.261 41.5233 109.952 48.0068C108.82 50.2749 107.517 52.4357 106.087 54.4262H72.8419C71.3897 52.4362 70.0876 50.2749 68.956 48.0068C65.6463 41.5233 63.7031 34.3124 63.7031 28.4705C63.7031 14.2413 75.233 13.5566 89.475 13.5566C103.696 13.5562 115.204 14.2413 115.204 28.4705Z" fill="#E8EDFC"/>
<path d="M138.94 114.31V190.708H117.277V114.31C117.277 111.961 119.178 110.057 121.521 110.057H134.678C137.039 110.057 138.94 111.961 138.94 114.31Z" fill="#9BACF2"/>
<path d="M160.604 95.2626V190.707H138.941V95.2626C138.941 92.9143 140.842 91.0098 143.185 91.0098H156.341C158.685 91.0098 160.604 92.9143 160.604 95.2626Z" fill="white"/>
<path d="M182.268 124.091V190.708H160.605V124.091C160.605 121.742 162.506 119.838 164.849 119.838H178.006C180.348 119.838 182.268 121.742 182.268 124.091Z" fill="#9BACF2"/>
<path d="M203.928 100.239V190.707H182.266V100.239C182.266 97.8909 184.166 95.9863 186.509 95.9863H199.666C202.009 95.9863 203.928 97.8909 203.928 100.239Z" fill="white"/>
<path d="M221.904 196.326C221.904 199.414 219.394 201.929 216.313 201.929H107.204C104.123 201.929 101.613 199.414 101.613 196.326C101.613 194.773 102.241 193.368 103.256 192.351C104.271 191.333 105.654 190.705 107.204 190.705H216.313C219.394 190.705 221.904 193.219 221.904 196.326Z" fill="#9BACF2"/>
<path d="M125.252 62.4735C125.252 66.921 121.668 70.5133 117.272 70.5133H61.6791C57.241 70.5133 53.6562 66.9214 53.6562 62.4735C53.6562 58.0255 57.241 54.4336 61.6791 54.4336H117.272C121.668 54.4336 125.252 58.0259 125.252 62.4735Z" fill="#9BACF2"/>
<path d="M216.312 188.566H206.064V100.24C206.064 96.7154 203.194 93.8472 199.666 93.8472H186.511C182.993 93.8472 180.13 96.7154 180.13 100.24V118.09C179.462 117.852 178.753 117.699 178.004 117.699H164.848C164.105 117.699 163.402 117.852 162.738 118.087V95.263C162.738 91.7387 159.869 88.8709 156.341 88.8709H143.185C139.954 88.8709 137.304 91.3002 136.889 94.4267C130.636 85.3137 123.686 77.9581 116.386 72.6526H117.271C122.849 72.6526 127.386 68.0858 127.386 62.4732C127.386 56.8606 122.849 52.2938 117.271 52.2938H110.029C114.479 44.8741 117.344 35.7417 117.344 28.4756C117.344 11.4102 101.891 11.4102 89.4763 11.4102C77.0404 11.4102 61.5646 11.4102 61.5646 28.4756C61.5646 35.7417 64.4291 44.8741 68.8796 52.2938H61.6796C56.0789 52.2938 51.5206 56.8606 51.5206 62.4732C51.5206 68.0858 56.0789 72.6526 61.6796 72.6526H62.4578C36.5877 91.4481 19.0586 133.226 19.0586 162.294C19.0586 204.077 56.4453 204.077 89.4325 204.077C89.646 204.077 87.1387 204.069 107.204 204.069H216.312C220.572 204.069 224.038 200.596 224.038 196.327C224.038 192.047 220.572 188.566 216.312 188.566ZM184.401 100.24C184.401 99.0753 185.348 98.1267 186.511 98.1267H199.667C200.839 98.1267 201.794 99.0753 201.794 100.24V188.566H184.401C184.401 167.762 184.401 121.035 184.401 100.24ZM119.413 188.566V114.31C119.413 113.178 120.363 112.201 121.529 112.201H134.687C135.855 112.201 136.805 113.146 136.805 114.31V188.566H119.413ZM164.849 121.978H178.004C179.176 121.978 180.131 122.926 180.131 124.091V188.566H162.738V124.091C162.738 122.926 163.685 121.978 164.849 121.978ZM143.186 93.1504H156.341C157.513 93.1504 158.468 94.0979 158.468 95.263V188.566H141.076C141.076 184.134 141.074 210.549 141.08 101.528C141.08 101.518 141.076 101.508 141.076 101.498V95.2626C141.076 94.0979 142.022 93.1504 143.186 93.1504ZM65.835 28.4756C65.835 16.5504 74.7658 15.6896 89.4763 15.6896C104.16 15.6896 113.074 16.5504 113.074 28.4756C113.074 35.7579 109.844 45.1933 104.971 52.2938H73.9378C69.065 45.1933 65.835 35.7579 65.835 28.4756ZM55.791 62.4732C55.791 59.2198 58.4327 56.5732 61.6796 56.5732H117.272C120.495 56.5732 123.117 59.2198 123.117 62.4732C123.117 65.7266 120.495 68.3731 117.272 68.3731C99.1741 68.3703 79.3149 68.3703 61.6796 68.3731C58.4327 68.3731 55.791 65.7266 55.791 62.4732ZM89.4329 199.798C49.5022 199.798 23.3294 197.187 23.3294 162.294C23.3294 132.367 43.3824 87.8731 70.302 72.6526H108.603C118.79 78.4022 128.523 88.5731 136.806 102.123V108.282C136.447 108.157 135.5 107.917 134.679 107.917H121.523C118.015 107.917 115.136 110.803 115.136 114.311V188.561H107.198C102.875 188.561 99.4745 192.188 99.4745 196.319C99.4745 197.366 99.7504 198.666 100.265 199.716C96.6076 199.785 92.94 199.798 89.4329 199.798ZM216.312 199.789H107.205C105.294 199.789 103.76 198.169 103.748 196.338C103.748 196.334 103.747 196.331 103.747 196.327C103.747 194.492 105.234 192.846 107.205 192.846C161.218 192.847 158.204 192.849 216.312 192.846C218.218 192.846 219.768 194.408 219.768 196.327C219.768 198.236 218.218 199.789 216.312 199.789Z" fill="#1F4FDE"/>
<path d="M108.27 154.291C108.27 145.117 100.824 137.654 91.6702 137.654H87.2393C80.4394 137.654 74.9075 132.11 74.9075 125.296C74.9075 118.482 80.4394 112.938 87.2393 112.938H106.135C107.315 112.938 108.27 111.98 108.27 110.798C108.27 109.616 107.315 108.658 106.135 108.658H91.5889V101.829C91.5889 100.648 90.6338 99.6895 89.4535 99.6895C88.2732 99.6895 87.3181 100.647 87.3181 101.829V108.658H87.2389C78.0853 108.658 70.6367 116.121 70.6367 125.296C70.6367 134.47 78.0849 141.933 87.2389 141.933H91.6698C98.4672 141.933 103.999 147.477 103.999 154.291C103.999 161.104 98.4672 166.648 91.6698 166.648H72.7721C71.5918 166.648 70.6367 167.606 70.6367 168.788C70.6367 169.97 71.5918 170.928 72.7721 170.928H87.3181V177.757C87.3181 178.939 88.2732 179.897 89.4535 179.897C90.6338 179.897 91.5889 178.939 91.5889 177.757V170.928H91.6702C100.824 170.928 108.27 163.464 108.27 154.291Z" fill="#1F4FDE"/>
</g>
<defs>
<linearGradient id="paint0_linear_1260_7555" x1="4.70652e-07" y1="114.745" x2="238.819" y2="114.745" gradientUnits="userSpaceOnUse">
<stop stop-color="#D2DEFF" stop-opacity="0"/>
<stop offset="1" stop-color="#B7C5FF"/>
</linearGradient>
<clipPath id="clip0_1260_7555">
<rect width="205.094" height="193.44" fill="white" transform="translate(19 11.0234)"/>
</clipPath>
</defs>
</svg>
