<svg width="240" height="230" viewBox="0 0 240 230" fill="none" xmlns="http://www.w3.org/2000/svg">
<path d="M233.08 120.65C221.576 95.3438 194.634 80.7791 182.602 56.4349C170.798 32.5553 162.386 -8.65033 130.065 1.61022C75.6902 18.8716 -22.4852 93.1041 4.64896 157.537C11.1932 173.077 29.9069 179.28 41.773 191.252C62.7048 212.371 84.3326 226.313 115.44 228.687C176.781 233.369 264.87 190.589 233.08 120.65V120.65Z" fill="url(#paint0_linear_1432_6624)"/>
<g clip-path="url(#clip0_1432_6624)">
<path d="M182.707 53.228V102.033C179.3 102.033 176.513 104.82 176.513 108.227V114.42H157.933V84.1957V74.1622C157.933 72.4589 156.539 71.0654 154.836 71.0654H144.802H137.556C138.702 68.1854 139.352 65.0267 139.352 61.7131C139.352 52.4848 134.366 44.4022 126.965 40.0977H169.576C168.121 41.7389 167.223 43.9067 167.223 46.2912C167.223 51.4318 171.373 55.5815 176.513 55.5815C178.898 55.5815 181.065 54.6835 182.707 53.228Z" fill="#9BACF2"/>
<path d="M59.5795 40.0977H102.191C94.7899 44.4022 89.8041 52.4848 89.8041 61.7131C89.8041 65.0267 90.4544 68.1854 91.6002 71.0654H77.417H46.4492V53.228C48.0905 54.6835 50.2583 55.5815 52.6428 55.5815C57.7834 55.5815 61.9331 51.4318 61.9331 46.2912C61.9331 43.9067 61.035 41.7389 59.5795 40.0977Z" fill="#9BACF2"/>
<path d="M46.45 71.0645H77.4177C70.7597 74.9045 66.0216 81.6864 65.0306 89.6451H61.9338C55.09 89.6451 49.5467 95.1883 49.5467 102.032H21.6758V84.1948C23.3171 85.6503 25.4848 86.5483 27.8693 86.5483C33.01 86.5483 37.1597 82.3986 37.1597 77.258C37.1597 74.8735 36.2616 72.7057 34.8061 71.0645H46.45Z" fill="#9BACF2"/>
<path d="M142.449 77.258C142.449 82.3986 146.599 86.5483 151.74 86.5483C154.124 86.5483 156.292 85.6503 157.933 84.1948V114.419V145.387H145.546V108.226C145.546 104.819 142.759 102.032 139.353 102.032H133.159H112.782C113.928 99.1522 114.579 95.9935 114.579 92.6799C114.579 83.4515 109.593 75.369 102.191 71.0645H137.557H144.803C143.348 72.7057 142.449 74.8735 142.449 77.258Z" fill="#9BACF2"/>
<path d="M34.8061 71.0645C36.2616 72.7057 37.1597 74.8735 37.1597 77.258C37.1597 82.3986 33.01 86.5483 27.8693 86.5483C25.4848 86.5483 23.3171 85.6503 21.6758 84.1948V74.1612C21.6758 72.458 23.0693 71.0645 24.7726 71.0645H34.8061Z" fill="white"/>
<path d="M59.5834 40.0977C61.0389 41.7389 61.937 43.9067 61.937 46.2912C61.937 51.4318 57.7873 55.5815 52.6467 55.5815C50.2622 55.5815 48.0944 54.6835 46.4531 53.228V43.1944C46.4531 41.4912 47.8467 40.0977 49.5499 40.0977H59.5834Z" fill="white"/>
<path d="M182.71 43.1944V53.228C181.069 54.6835 178.901 55.5815 176.517 55.5815C171.376 55.5815 167.227 51.4318 167.227 46.2912C167.227 43.9067 168.125 41.7389 169.58 40.0977H179.614C181.317 40.0977 182.71 41.4912 182.71 43.1944Z" fill="white"/>
<path d="M157.937 74.1612V84.1948C156.296 85.6503 154.128 86.5483 151.743 86.5483C146.603 86.5483 142.453 82.3986 142.453 77.258C142.453 74.8735 143.351 72.7057 144.807 71.0645H154.84C156.543 71.0645 157.937 72.458 157.937 74.1612Z" fill="white"/>
<path d="M139.353 61.7131C139.353 65.0267 138.703 68.1854 137.557 71.0654H102.192H91.6008C90.455 68.1854 89.8047 65.0267 89.8047 61.7131C89.8047 52.4848 94.7905 44.4022 102.192 40.0977H126.966C134.367 44.4022 139.353 52.4848 139.353 61.7131Z" fill="white"/>
<path d="M114.58 92.6799C114.58 95.9935 113.929 99.1522 112.784 102.032H99.0958V95.8386C99.0958 92.4322 96.3087 89.6451 92.9022 89.6451H65.0312C66.0222 81.6864 70.7603 74.9045 77.4183 71.0645H91.6016H102.193C109.594 75.369 114.58 83.4515 114.58 92.6799Z" fill="white"/>
<path d="M92.9045 89.6445C96.3109 89.6445 99.098 92.4316 99.098 95.8381V102.032H86.7109V95.8381C86.7109 94.1349 87.3922 92.5865 88.538 91.4716C89.6529 90.3258 91.2013 89.6445 92.9045 89.6445Z" fill="#E8EDFC"/>
<path d="M176.515 145.387V173.258C176.515 177.531 174.78 181.402 171.993 184.22C169.175 187.007 165.304 188.742 161.031 188.742C152.484 188.742 145.547 181.805 145.547 173.258V145.387H157.934H176.515Z" fill="#A4C2F7"/>
<path d="M188.902 102.033V173.259C188.902 188.65 176.422 201.13 161.031 201.13C153.351 201.13 146.352 198.002 141.336 192.954C138.301 189.951 135.978 186.204 134.616 182.054C133.656 179.298 133.16 176.325 133.16 173.259V102.033H139.354C142.76 102.033 145.547 104.82 145.547 108.227V145.388V173.259C145.547 181.806 152.484 188.743 161.031 188.743C165.305 188.743 169.176 187.009 171.994 184.222C174.781 181.404 176.515 177.533 176.515 173.259V145.388V114.42V108.227C176.515 104.82 179.302 102.033 182.709 102.033H188.902Z" fill="#E8EDFC"/>
<path d="M133.162 182.549H6.19443L4.80088 182.828C3.68604 179.855 3.09766 176.604 3.09766 173.259V108.227C3.09766 104.82 5.88475 102.033 9.2912 102.033H21.6783H49.5493V133.001C49.5493 139.845 55.0925 145.388 60.7906 145.202H73.1777C81.1673 145.388 86.7106 139.845 86.7106 133.001V102.033H99.0977H112.785H133.162V173.259C133.162 176.325 133.658 179.298 134.618 182.054L133.162 182.549Z" fill="#E8EDFC"/>
<path d="M161.033 201.129H30.9685C18.953 201.129 8.70272 193.511 4.80078 182.827L6.19433 182.548H133.162L134.618 182.053C135.98 186.202 138.303 189.95 141.338 192.953C146.354 198.001 153.353 201.129 161.033 201.129Z" fill="#A4C2F7"/>
<path d="M86.7082 95.8381V102.032V132.999C86.7082 139.843 81.1649 145.386 73.1753 145.201H60.7882C55.0901 145.386 49.5469 139.843 49.5469 132.999V102.032C49.5469 95.1878 55.0901 89.6445 61.934 89.6445H65.0307H92.9017C91.1985 89.6445 89.6501 90.3258 88.5353 91.4716C87.3895 92.5865 86.7082 94.1349 86.7082 95.8381Z" fill="#E8EDFC"/>
<path d="M68.1271 126.807C71.5477 126.807 74.3207 124.034 74.3207 120.613C74.3207 117.193 71.5477 114.42 68.1271 114.42C64.7065 114.42 61.9336 117.193 61.9336 120.613C61.9336 124.034 64.7065 126.807 68.1271 126.807Z" fill="#9BACF2"/>
<path d="M58.8398 120.613C58.8398 125.735 63.0081 129.903 68.1302 129.903C73.2522 129.903 77.4205 125.735 77.4205 120.613C77.4205 115.491 73.2522 111.322 68.1302 111.322C63.0081 111.322 58.8398 115.491 58.8398 120.613ZM68.1302 117.516C69.8396 117.516 71.2269 118.906 71.2269 120.613C71.2269 122.319 69.8396 123.709 68.1302 123.709C66.4207 123.709 65.0334 122.319 65.0334 120.613C65.0334 118.906 66.4207 117.516 68.1302 117.516Z" fill="#1F4FDE"/>
<path d="M185.806 98.9355V43.1935C185.806 39.7778 183.029 37 179.613 37H49.5484C46.1326 37 43.3548 39.7778 43.3548 43.1935V67.9677H24.7742C21.3585 67.9677 18.5806 70.7455 18.5806 74.1613V98.9355H9.29032C4.16826 98.9355 0 103.104 0 108.226V173.258C0 190.334 13.8921 204.226 30.9677 204.226H161.032C178.108 204.226 192 190.334 192 173.258V98.9355H185.806ZM96 98.9355H89.8064V95.8387C89.8064 94.1324 91.1938 92.7419 92.9032 92.7419C94.6126 92.7419 96 94.1324 96 95.8387V98.9355ZM92.9032 86.5484H68.8754C70.399 81.4573 73.759 77.0134 78.3329 74.1613H101.255C107.57 78.1406 111.484 85.1486 111.484 92.6769C111.484 94.8168 111.177 96.9133 110.58 98.9355H102.194V95.8387C102.194 90.7166 98.0253 86.5484 92.9032 86.5484ZM84.1424 92.7419C83.8018 93.7112 83.6129 94.7517 83.6129 95.8387V133C83.6129 135.422 82.6777 137.664 80.9837 139.317C79.073 141.185 76.289 142.179 73.1737 142.092L60.6782 142.095C58.9378 142.095 57.0797 141.358 55.5778 139.903C53.7135 138.103 52.6452 135.589 52.6452 133V102.032C52.6452 96.9102 56.8134 92.7419 61.9355 92.7419H84.1424ZM92.9032 61.7092C92.9032 54.1809 96.8175 47.1729 103.129 43.1935H126.033C132.344 47.1729 136.258 54.1809 136.258 61.7092C136.258 63.849 135.951 65.9486 135.354 67.9677H93.8075C93.2098 65.9517 92.9032 63.8521 92.9032 61.7092ZM154.839 82.6124C153.903 83.1512 152.841 83.4516 151.742 83.4516C148.326 83.4516 145.548 80.6738 145.548 77.2581C145.548 76.1587 145.849 75.0965 146.391 74.1613H154.839V82.6124ZM110.651 74.1613H139.798C139.538 75.1677 139.355 76.199 139.355 77.2581C139.355 84.0895 144.91 89.6452 151.742 89.6452C152.801 89.6452 153.832 89.4625 154.839 89.2023V142.29H148.645V108.226C148.645 103.104 144.477 98.9355 139.355 98.9355H116.953C117.414 96.8916 117.677 94.8044 117.677 92.6769C117.677 85.768 115.076 79.2214 110.651 74.1613ZM148.645 148.484H173.419V173.258C173.419 180.09 167.864 185.645 161.032 185.645C154.201 185.645 148.645 180.09 148.645 173.258V148.484ZM173.419 142.29H161.032V117.516H173.419V142.29ZM173.419 108.226V111.323H161.032V74.1613C161.032 70.7455 158.254 67.9677 154.839 67.9677H141.724C142.188 65.9239 142.452 63.8366 142.452 61.7092C142.452 54.8034 139.85 48.2537 135.425 43.1935H164.569C164.312 44.2 164.129 45.2312 164.129 46.2903C164.129 53.1218 169.685 58.6774 176.516 58.6774C177.575 58.6774 178.606 58.4947 179.613 58.2346V99.5053C176.018 100.787 173.419 104.194 173.419 108.226ZM179.613 51.6446C178.678 52.1835 177.615 52.4839 176.516 52.4839C173.1 52.4839 170.323 49.7061 170.323 46.2903C170.323 45.191 170.623 44.1288 171.165 43.1935H179.613V51.6446ZM57.9995 43.1935C58.5383 44.1288 58.8387 45.191 58.8387 46.2903C58.8387 49.7061 56.0609 52.4839 52.6452 52.4839C51.5458 52.4839 50.4836 52.1835 49.5484 51.6446V43.1935H57.9995ZM49.5484 58.2346C50.5548 58.4947 51.5861 58.6774 52.6452 58.6774C59.4766 58.6774 65.0323 53.1218 65.0323 46.2903C65.0323 45.2312 64.8495 44.2 64.5894 43.1935H93.7332C89.311 48.2537 86.7097 54.8003 86.7097 61.7092C86.7097 63.8397 86.9698 65.927 87.4343 67.9677H49.5484V58.2346ZM33.2253 74.1613C33.7641 75.0965 34.0645 76.1587 34.0645 77.2581C34.0645 80.6738 31.2867 83.4516 27.871 83.4516C26.7716 83.4516 25.7094 83.1512 24.7742 82.6124V74.1613H33.2253ZM24.7742 89.2023C25.7806 89.4625 26.8119 89.6452 27.871 89.6452C34.7025 89.6452 40.2581 84.0895 40.2581 77.2581C40.2581 76.199 40.0754 75.1677 39.8152 74.1613H68.8506C65.7352 77.6823 63.5179 81.9404 62.465 86.5484H61.9355C54.4599 86.5484 48.2044 91.8779 46.7644 98.9355H24.7742V89.2023ZM6.19355 108.226C6.19355 106.519 7.5809 105.129 9.29032 105.129H46.4516V133C46.4516 137.258 48.2075 141.398 51.2764 144.359C53.8808 146.874 57.2222 148.292 60.4088 148.292C60.5357 148.292 60.6596 148.289 60.7866 148.286H73.0963C77.8994 148.357 82.1946 146.796 85.3099 143.752C88.2085 140.925 89.8064 137.103 89.8064 133V105.129H130.065V173.258C130.065 175.379 130.281 177.451 130.69 179.452H7.008C6.49394 177.467 6.19355 175.401 6.19355 173.258V108.226ZM30.9677 198.032C21.823 198.032 13.8364 193.037 9.54426 185.645H132.666C134.834 190.585 138.259 194.836 142.529 198.032H30.9677ZM185.806 173.258C185.806 186.918 174.692 198.032 161.032 198.032C147.372 198.032 136.258 186.918 136.258 173.258V105.129H139.355C141.064 105.129 142.452 106.519 142.452 108.226V173.258C142.452 183.505 150.785 191.839 161.032 191.839C171.279 191.839 179.613 183.505 179.613 173.258V108.226C179.613 106.519 181 105.129 182.71 105.129H185.806V173.258Z" fill="#1F4FDE"/>
</g>
<defs>
<linearGradient id="paint0_linear_1432_6624" x1="49.9536" y1="206.097" x2="202.841" y2="53.2094" gradientUnits="userSpaceOnUse">
<stop stop-color="#D0DCFF" stop-opacity="0"/>
<stop offset="1" stop-color="#B5C3FF"/>
</linearGradient>
<clipPath id="clip0_1432_6624">
<rect width="192" height="167.226" fill="white" transform="translate(0 37)"/>
</clipPath>
</defs>
</svg>
