<svg width="241" height="230" viewBox="0 0 241 230" fill="none" xmlns="http://www.w3.org/2000/svg">
<path d="M233.541 120.89C222.016 95.5327 195.02 80.9392 182.963 56.5468C171.137 32.6198 162.708 -8.66747 130.323 1.61341C75.8402 18.909 -22.5297 93.2887 4.65818 157.849C11.2154 173.42 29.9662 179.635 41.8557 191.631C62.829 212.791 84.4997 226.762 115.668 229.141C177.131 233.831 265.394 190.967 233.541 120.89Z" fill="url(#paint0_linear_1260_7179)"/>
<g clip-path="url(#clip0_1260_7179)">
<path fill-rule="evenodd" clip-rule="evenodd" d="M161.681 59.7688V127.168C158.391 126.498 155.04 126.164 151.681 126.172C133.133 126.172 116.107 136.396 107.447 152.733H21.6775C14.3135 152.733 8.34375 146.787 8.34375 139.452V59.7688C8.34375 52.4342 14.3135 46.4883 21.6775 46.4883H148.348C155.712 46.4883 161.681 52.4342 161.681 59.7688Z" fill="#E8EDFC"/>
<path fill-rule="evenodd" clip-rule="evenodd" d="M141.684 126.172C123.135 126.173 106.11 136.396 97.4492 152.733H107.45C115.31 137.934 130.104 128.054 146.834 126.431C145.123 126.259 143.404 126.172 141.684 126.172Z" fill="#9BACF2"/>
<path fill-rule="evenodd" clip-rule="evenodd" d="M148.348 46.4883H138.348C145.712 46.4883 151.681 52.4342 151.681 59.7688V126.172C155.04 126.164 158.391 126.498 161.682 127.168V59.7688C161.682 52.4342 155.712 46.4883 148.348 46.4883Z" fill="#9BACF2"/>
<path fill-rule="evenodd" clip-rule="evenodd" d="M161.681 99.6094V127.167C158.391 126.497 155.04 126.163 151.681 126.17H8.34375V99.6094H161.681Z" fill="#A4C2F7"/>
<path fill-rule="evenodd" clip-rule="evenodd" d="M151.684 99.6094V126.17C155.042 126.163 158.393 126.497 161.684 127.167V99.6094H151.684Z" fill="#7FACFA"/>
<path d="M45.0123 63.0879H31.6786C27.9966 63.0879 25.0117 66.0608 25.0117 69.7282V76.3684C25.0117 80.0358 27.9966 83.0087 31.6786 83.0087H45.0123C48.6943 83.0087 51.6791 80.0358 51.6791 76.3684V69.7282C51.6791 66.0608 48.6943 63.0879 45.0123 63.0879Z" fill="#E8EDFC"/>
<path fill-rule="evenodd" clip-rule="evenodd" d="M201.683 175.974C201.683 203.479 179.296 225.776 151.681 225.776C124.066 225.776 101.68 203.479 101.68 175.974C101.68 148.469 124.066 126.172 151.681 126.172C155.04 126.165 158.391 126.498 161.681 127.168C184.96 131.911 201.677 152.308 201.683 175.974Z" fill="#E8EDFC"/>
<path fill-rule="evenodd" clip-rule="evenodd" d="M161.684 127.168C158.393 126.498 155.042 126.165 151.684 126.172C150.044 126.172 148.43 126.278 146.834 126.431C148.462 126.594 150.081 126.84 151.684 127.168C175.911 132.081 192.896 153.893 191.646 178.487C190.395 203.082 171.285 223.073 146.684 225.524C148.33 225.686 149.997 225.776 151.684 225.776C177.372 225.802 198.901 206.436 201.482 180.979C204.064 155.523 186.859 132.26 161.684 127.168Z" fill="#9BACF2"/>
<path fill-rule="evenodd" clip-rule="evenodd" d="M18.344 99.6105V59.7688C18.344 52.4342 24.3137 46.4883 31.6778 46.4883H21.6775C14.3135 46.4883 8.34375 52.4342 8.34375 59.7688V139.452C8.34375 146.787 14.3135 152.733 21.6775 152.733H31.6778C24.3137 152.733 18.344 146.787 18.344 139.452V99.6105Z" fill="white"/>
<path fill-rule="evenodd" clip-rule="evenodd" d="M5.01172 73.0488H11.6786V99.6099H5.01172V73.0488Z" fill="white"/>
<path d="M8.34515 89.65C10.1861 89.65 11.6786 88.1636 11.6786 86.3299C11.6786 84.4962 10.1861 83.0098 8.34515 83.0098C6.50415 83.0098 5.01172 84.4962 5.01172 86.3299C5.01172 88.1636 6.50415 89.65 8.34515 89.65Z" fill="#1F4FDE"/>
<path fill-rule="evenodd" clip-rule="evenodd" d="M179.52 156.856L135.186 194.706L124.032 183.6C122.724 182.341 120.645 182.359 119.359 183.64C118.073 184.921 118.055 186.992 119.319 188.294L132.652 201.575C133.884 202.8 135.854 202.875 137.176 201.748L183.844 161.906C184.8 161.15 185.266 159.934 185.057 158.736C184.848 157.538 183.998 156.55 182.841 156.16C181.685 155.77 180.407 156.041 179.51 156.866L179.52 156.856Z" fill="#1F4FDE"/>
<path d="M45.0137 86.3306C50.5367 86.3306 55.014 81.8712 55.014 76.3702V69.7299C55.014 64.229 50.5367 59.7695 45.0137 59.7695H31.68C26.157 59.7695 21.6797 64.229 21.6797 69.7299V76.3702C21.6797 81.8712 26.157 86.3306 31.68 86.3306H45.0137ZM28.3465 76.3702V69.7299C28.3465 67.8963 29.839 66.4098 31.68 66.4098H45.0137C46.8547 66.4098 48.3471 67.8963 48.3471 69.7299V76.3702C48.3471 78.2039 46.8547 79.6904 45.0137 79.6904H31.68C29.839 79.6904 28.3465 78.2039 28.3465 76.3702Z" fill="#1F4FDE"/>
<path fill-rule="evenodd" clip-rule="evenodd" d="M75.0131 69.7282H141.682C143.523 69.7282 145.015 68.2417 145.015 66.408C145.015 64.5744 143.523 63.0879 141.682 63.0879H75.0131C73.1721 63.0879 71.6797 64.5744 71.6797 66.408C71.6797 68.2417 73.1721 69.7282 75.0131 69.7282Z" fill="#1F4FDE"/>
<path fill-rule="evenodd" clip-rule="evenodd" d="M75.0131 83.0094H108.347C110.188 83.0094 111.681 81.5229 111.681 79.6893C111.681 77.8556 110.188 76.3691 108.347 76.3691H75.0131C73.1721 76.3691 71.6797 77.8556 71.6797 79.6893C71.6797 81.5229 73.1721 83.0094 75.0131 83.0094Z" fill="#1F4FDE"/>
<path d="M165.016 124.601V59.7687C165.005 50.6049 157.55 43.1789 148.349 43.168H21.6789C12.4784 43.1789 5.02274 50.6049 5.01172 59.7687V73.0492C5.01172 74.8829 6.50415 76.3693 8.34515 76.3693C10.1861 76.3693 11.6786 74.8829 11.6786 73.0492V59.7687C11.6786 54.2677 16.1559 49.8082 21.6789 49.8082H148.349C153.872 49.8082 158.349 54.2677 158.349 59.7687V96.2902H8.34515C6.50415 96.2902 5.01172 97.7766 5.01172 99.6103V139.452C5.02274 148.616 12.4784 156.042 21.6789 156.053H102.274C93.9148 176.558 99.1948 200.077 115.527 215.084C131.859 230.09 155.82 233.439 175.668 223.49C195.516 213.54 207.092 192.377 204.721 170.372C202.351 148.366 186.532 130.13 165.016 124.601ZM158.349 123.313C156.139 123.019 153.912 122.865 151.683 122.851H11.6786V102.93H158.349V123.313ZM21.6789 149.412C16.1559 149.412 11.6786 144.953 11.6786 139.452V129.492H125.919C117.454 134.182 110.421 141.065 105.565 149.412H21.6789ZM151.683 222.455C125.909 222.455 105.015 201.645 105.015 175.973C105.015 150.302 125.909 129.492 151.683 129.492C177.457 129.492 198.351 150.302 198.351 175.973C198.323 201.633 177.445 222.428 151.683 222.455Z" fill="#1F4FDE"/>
</g>
<defs>
<linearGradient id="paint0_linear_1260_7179" x1="50.0526" y1="206.505" x2="203.243" y2="53.3149" gradientUnits="userSpaceOnUse">
<stop stop-color="#D0DCFF" stop-opacity="0"/>
<stop offset="1" stop-color="#B5C3FF"/>
</linearGradient>
<clipPath id="clip0_1260_7179">
<rect width="200.396" height="186.369" fill="white" transform="translate(5.01172 42.8574)"/>
</clipPath>
</defs>
</svg>
