<svg width="242" height="230" viewBox="0 0 242 230" fill="none" xmlns="http://www.w3.org/2000/svg">
<g clip-path="url(#clip0_1260_7153)">
<path d="M241.131 203.818C234.87 170.434 210.477 144.764 193.698 116.09C176.475 86.6592 197.783 75.579 218.955 51.9141C242.332 25.7844 209.028 -23.4431 169.219 13.1223C149.849 30.9129 116.785 2.89816 59.9328 4.21088C6.87196 5.43625 -15.5486 65.0196 11.5293 100.338C33.3658 128.82 72.5755 137.439 105.615 147.917C139.178 158.561 161.376 183.602 181.069 210.746C197.299 233.118 248.003 240.457 241.131 203.818Z" fill="url(#paint0_linear_1260_7153)"/>
<g opacity="0.1">
<path d="M203.009 120.172H183.887C191.259 114.676 196.181 105.922 196.181 96.3831V67.6624C196.181 51.286 182.858 37.9628 166.481 37.9628C163.362 37.9628 160.334 38.4869 157.477 39.4394V31.1862C157.477 25.9684 153.251 21.7422 148.033 21.7422H36.405C31.1871 21.7422 26.9609 25.9684 26.9609 31.1862V195.928C26.9609 201.146 31.1871 205.372 36.405 205.372H56.0084V212.526C56.0084 219.047 61.2924 224.331 67.8135 224.331H203.01C209.526 224.331 214.815 219.047 214.815 212.526V131.977C214.814 125.456 209.526 120.172 203.009 120.172Z" fill="#1F4FDE"/>
<path d="M191.564 39.8001H194.344V42.58C194.344 43.8842 195.401 44.941 196.705 44.941C198.009 44.941 199.066 43.8842 199.066 42.58V37.4391C199.066 36.1349 198.009 35.0781 196.705 35.0781H191.564C190.26 35.0781 189.203 36.1349 189.203 37.4391C189.203 38.7434 190.26 39.8001 191.564 39.8001Z" fill="#1F4FDE"/>
</g>
<path d="M157.477 19.8522V184.594C157.477 189.812 153.251 194.038 148.033 194.038H36.405C31.1871 194.038 26.9609 189.812 26.9609 184.594V19.8522C26.9609 14.6344 31.1871 10.4082 36.405 10.4082H148.033C153.251 10.4082 157.477 14.6344 157.477 19.8522Z" fill="#9BACF2"/>
<path d="M92.9367 125.009C93.0123 124.981 93.0926 124.952 93.1776 124.924C93.0926 124.957 93.0123 124.985 92.9367 125.014C92.762 125.08 92.5826 125.113 92.3984 125.127C92.5826 125.113 92.762 125.07 92.9367 125.009Z" fill="white"/>
<path d="M93.1797 124.924C93.3544 124.858 93.548 124.787 93.7605 124.707C93.548 124.792 93.3544 124.863 93.1797 124.924Z" fill="white"/>
<path d="M93.7578 124.706C94.0789 124.583 94.4425 124.437 94.8486 124.271C94.4425 124.441 94.0789 124.583 93.7578 124.706Z" fill="white"/>
<path d="M95.2656 124.098C95.837 123.852 96.4792 123.564 97.1733 123.238C96.4792 123.569 95.837 123.852 95.2656 124.098Z" fill="white"/>
<path d="M117.262 47.1738H67.1767C66.4849 47.1738 65.8347 47.5058 65.4286 48.0658L59.6408 56.0545C59.374 56.4228 59.2305 56.8662 59.2305 57.321V80.567C59.2305 112.168 86.6819 123.301 91.5012 125.012C91.9663 125.177 92.472 125.177 92.9372 125.012C97.7565 123.3 125.208 112.168 125.208 80.567V57.321C125.208 56.8662 125.064 56.4228 124.798 56.0545L119.01 48.0658C118.604 47.5058 117.954 47.1738 117.262 47.1738Z" fill="white"/>
<path d="M92.2198 116.49C89.7077 115.457 84.9305 113.177 80.251 109.218C71.6111 101.906 67.2305 92.3722 67.2305 80.8802V60.2894L70.6931 55.5098H113.746L117.209 60.2894V80.8802C117.209 92.3722 112.828 101.907 104.188 109.218C99.5092 113.177 94.732 115.457 92.2198 116.49Z" fill="#9BACF2"/>
<path d="M87.0741 97.7669L73.1182 83.811C72.5648 83.2575 72.5648 82.3608 73.1182 81.8074L77.5295 77.3961C78.0829 76.8427 78.9796 76.8427 79.5331 77.3961L88.0761 85.9387L104.904 69.1104C105.458 68.557 106.355 68.557 106.908 69.1104L111.319 73.5217C111.873 74.0751 111.873 74.9718 111.319 75.5252L89.0781 97.7664C88.5242 98.3198 87.6275 98.3198 87.0741 97.7669Z" fill="white"/>
<path d="M157.478 33.8639V19.8522C157.478 14.6363 153.25 10.4082 148.034 10.4082H36.405C31.189 10.4082 26.9609 14.6363 26.9609 19.8522V33.8639H157.478Z" fill="white"/>
<path d="M57.7946 25.9571C56.4909 25.9571 55.4336 24.9003 55.4336 23.5961V23.5309C55.4336 22.2267 56.4909 21.1699 57.7946 21.1699C59.0984 21.1699 60.1556 22.2267 60.1556 23.5309V23.5961C60.1556 24.9003 59.0984 25.9571 57.7946 25.9571Z" fill="#9BACF2"/>
<path d="M50.2673 25.9571C48.9635 25.9571 47.9062 24.9003 47.9062 23.5961V23.5309C47.9062 22.2267 48.9635 21.1699 50.2673 21.1699C51.571 21.1699 52.6283 22.2267 52.6283 23.5309V23.5961C52.6283 24.9003 51.5715 25.9571 50.2673 25.9571Z" fill="#9BACF2"/>
<path d="M42.736 25.9571C41.4323 25.9571 40.375 24.9003 40.375 23.5961V23.5309C40.375 22.2267 41.4323 21.1699 42.736 21.1699C44.0398 21.1699 45.097 22.2267 45.097 23.5309V23.5961C45.097 24.9003 44.0398 25.9571 42.736 25.9571Z" fill="#9BACF2"/>
<path d="M141.7 25.9564H72.068C70.7643 25.9564 69.707 24.8996 69.707 23.5954C69.707 22.2912 70.7643 21.2344 72.068 21.2344H141.7C143.004 21.2344 144.061 22.2912 144.061 23.5954C144.061 24.8996 143.004 25.9564 141.7 25.9564Z" fill="#9BACF2"/>
<path d="M214.814 120.645V201.193C214.814 207.714 209.525 212.998 203.009 212.998H67.8129C61.2917 212.998 56.0078 207.714 56.0078 201.193V120.645C56.0078 114.124 61.2917 108.84 67.8129 108.84H203.009C209.526 108.84 214.814 114.124 214.814 120.645Z" fill="white"/>
<path d="M75.2096 119.285C73.3656 119.285 71.8711 120.78 71.8711 122.624V130.466C71.8711 132.31 73.3661 133.804 75.2096 133.804H85.598L93.7293 126.545L85.598 119.285H75.2096Z" fill="#9BACF2"/>
<path d="M93.7276 133.804H85.5963C83.7523 133.804 82.2578 132.31 82.2578 130.466V122.624C82.2578 120.78 83.7523 119.285 85.5963 119.285H93.7276C95.5715 119.285 97.0661 120.78 97.0661 122.624V130.466C97.0661 132.309 95.5715 133.804 93.7276 133.804Z" fill="#1F4FDE"/>
<path d="M113.266 147.127V158.383C113.266 159.687 114.323 160.744 115.627 160.744H130.131L136.782 159.327L141.221 160.744H165.099L170.671 159.327L176.189 160.744H182.996L188.819 159.327L194.086 160.744H214.813V144.766H203.53L198.294 146.182L192.44 144.766H185.633L180.384 146.182L174.543 144.766H150.664L145.281 146.182L139.574 144.766H115.627C114.322 144.766 113.266 145.822 113.266 147.127Z" fill="#9BACF2"/>
<path d="M99.8222 164.904H95.2347L86.906 163.488L78.5774 164.904H73.9899C72.6862 164.904 71.6289 163.847 71.6289 162.543V142.965C71.6289 141.661 72.6862 140.604 73.9899 140.604H78.5774L86.906 142.02L95.2347 140.604H99.8222C101.126 140.604 102.183 141.661 102.183 142.965V162.543C102.183 163.847 101.126 164.904 99.8222 164.904Z" fill="#9BACF2"/>
<path d="M92.874 147.643H80.9391C79.6354 147.643 78.5781 146.585 78.5781 145.282V140.604H95.235V145.282C95.235 146.585 94.1782 147.643 92.874 147.643Z" fill="#1F4FDE"/>
<path d="M80.9391 157.865H92.874C94.1778 157.865 95.235 158.922 95.235 160.226V164.904H78.5781V160.226C78.5781 158.922 79.6354 157.865 80.9391 157.865Z" fill="#1F4FDE"/>
<path d="M79.6813 155.148C78.3776 155.148 77.3203 154.091 77.3203 152.787V152.722C77.3203 151.418 78.3776 150.361 79.6813 150.361C80.9851 150.361 82.0423 151.418 82.0423 152.722V152.787C82.0423 154.091 80.9851 155.148 79.6813 155.148Z" fill="white"/>
<path d="M86.9079 155.148C85.6041 155.148 84.5469 154.091 84.5469 152.787V152.722C84.5469 151.418 85.6041 150.361 86.9079 150.361C88.2116 150.361 89.2689 151.418 89.2689 152.722V152.787C89.2689 154.091 88.2116 155.148 86.9079 155.148Z" fill="white"/>
<path d="M94.1344 155.148C92.8307 155.148 91.7734 154.091 91.7734 152.787V152.722C91.7734 151.418 92.8307 150.361 94.1344 150.361C95.4382 150.361 96.4955 151.418 96.4955 152.722V152.787C96.4955 154.091 95.4382 155.148 94.1344 155.148Z" fill="white"/>
<path d="M56.0078 195.58V201.194C56.0078 207.713 61.2932 212.999 67.8129 212.999L203.008 212.999C209.528 212.999 214.813 207.714 214.813 201.194V195.58H56.0078Z" fill="#9BACF2"/>
<path d="M202.935 188.974C201.631 188.974 200.574 187.917 200.574 186.613V186.549C200.574 185.244 201.631 184.188 202.935 184.188C204.239 184.188 205.296 185.244 205.296 186.549V186.613C205.296 187.917 204.239 188.974 202.935 188.974Z" fill="white"/>
<path d="M195.408 188.974C194.104 188.974 193.047 187.917 193.047 186.613V186.549C193.047 185.244 194.104 184.188 195.408 184.188C196.712 184.188 197.769 185.244 197.769 186.549V186.613C197.769 187.917 196.712 188.974 195.408 188.974Z" fill="white"/>
<path d="M187.877 188.974C186.573 188.974 185.516 187.917 185.516 186.613V186.549C185.516 185.244 186.573 184.188 187.877 184.188C189.18 184.188 190.238 185.244 190.238 186.549V186.613C190.238 187.917 189.181 188.974 187.877 188.974Z" fill="white"/>
<path d="M98.736 188.973C97.4323 188.973 96.375 187.916 96.375 186.612V176.257C96.375 174.953 97.4323 173.896 98.736 173.896C100.04 173.896 101.097 174.953 101.097 176.257V186.612C101.097 187.916 100.04 188.973 98.736 188.973Z" fill="#9BACF2"/>
<path d="M116.767 188.973C115.464 188.973 114.406 187.916 114.406 186.612V176.257C114.406 174.953 115.464 173.896 116.767 173.896C118.071 173.896 119.128 174.953 119.128 176.257V186.612C119.128 187.916 118.071 188.973 116.767 188.973Z" fill="#9BACF2"/>
<path d="M107.689 188.973C106.385 188.973 105.328 187.916 105.328 186.612V176.257C105.328 174.953 106.385 173.896 107.689 173.896C108.993 173.896 110.05 174.953 110.05 176.257V186.612C110.05 187.916 108.993 188.973 107.689 188.973Z" fill="#9BACF2"/>
<path d="M71.6305 188.973C70.3268 188.973 69.2695 187.916 69.2695 186.612V176.257C69.2695 174.953 70.3268 173.896 71.6305 173.896C72.9343 173.896 73.9915 174.953 73.9915 176.257V186.612C73.9915 187.916 72.9343 188.973 71.6305 188.973Z" fill="#9BACF2"/>
<path d="M89.6618 188.973C88.358 188.973 87.3008 187.916 87.3008 186.612V176.257C87.3008 174.953 88.358 173.896 89.6618 173.896C90.9655 173.896 92.0228 174.953 92.0228 176.257V186.612C92.0228 187.916 90.9655 188.973 89.6618 188.973Z" fill="#9BACF2"/>
<path d="M80.5837 188.973C79.2799 188.973 78.2227 187.916 78.2227 186.612V176.257C78.2227 174.953 79.2799 173.896 80.5837 173.896C81.8874 173.896 82.9447 174.953 82.9447 176.257V186.612C82.9447 187.916 81.8874 188.973 80.5837 188.973Z" fill="#9BACF2"/>
<path d="M152.947 188.973C151.643 188.973 150.586 187.916 150.586 186.612V176.257C150.586 174.953 151.643 173.896 152.947 173.896C154.251 173.896 155.308 174.953 155.308 176.257V186.612C155.308 187.916 154.251 188.973 152.947 188.973Z" fill="#9BACF2"/>
<path d="M143.873 188.973C142.569 188.973 141.512 187.916 141.512 186.612V176.257C141.512 174.953 142.569 173.896 143.873 173.896C145.176 173.896 146.234 174.953 146.234 176.257V186.612C146.234 187.916 145.177 188.973 143.873 188.973Z" fill="#9BACF2"/>
<path d="M134.795 188.973C133.491 188.973 132.434 187.916 132.434 186.612V176.257C132.434 174.953 133.491 173.896 134.795 173.896C136.098 173.896 137.156 174.953 137.156 176.257V186.612C137.156 187.916 136.098 188.973 134.795 188.973Z" fill="#9BACF2"/>
<path d="M168.692 133.343H108.834C107.53 133.343 106.473 132.286 106.473 130.982C106.473 129.678 107.53 128.621 108.834 128.621H168.692C169.996 128.621 171.053 129.678 171.053 130.982C171.053 132.286 169.996 133.343 168.692 133.343Z" fill="#9BACF2"/>
<path d="M117.299 124.265H108.834C107.53 124.265 106.473 123.208 106.473 121.904C106.473 120.6 107.53 119.543 108.834 119.543H117.299C118.603 119.543 119.66 120.6 119.66 121.904C119.66 123.208 118.603 124.265 117.299 124.265Z" fill="#9BACF2"/>
<path d="M176.192 160.919H165.102L174.546 144.766H185.636L176.192 160.919Z" fill="#1F4FDE"/>
<path d="M141.222 160.919H130.133L139.577 144.766H150.667L141.222 160.919Z" fill="#1F4FDE"/>
<path d="M194.09 160.919H183L192.444 144.766H203.534L194.09 160.919Z" fill="#1F4FDE"/>
<path d="M166.481 26.6289C150.443 26.6289 136.781 40.3213 136.781 56.3285V85.0492C136.781 101.194 150.344 114.749 166.48 114.749C182.443 114.749 196.18 100.989 196.18 85.0492V56.3285C196.181 39.9521 182.858 26.6289 166.481 26.6289Z" fill="#9BACF2"/>
<path d="M166.48 107.667C154.009 107.667 143.863 97.5209 143.863 85.05V74.3551C143.863 73.0509 144.921 71.9941 146.224 71.9941C147.528 71.9941 148.585 73.0509 148.585 74.3551V85.05C148.585 94.9172 156.613 102.945 166.48 102.945C167.784 102.945 168.841 104.001 168.841 105.306C168.841 106.61 167.784 107.667 166.48 107.667Z" fill="white"/>
<path d="M176.614 104.948C175.799 104.948 175.007 104.526 174.569 103.771C173.915 102.643 174.299 101.198 175.427 100.544C180.947 97.3433 184.377 91.4063 184.377 85.0505V69.0348C184.377 67.7306 185.434 66.6738 186.738 66.6738C188.042 66.6738 189.099 67.7306 189.099 69.0348V85.0505C189.099 93.085 184.768 100.587 177.795 104.629C177.423 104.845 177.016 104.948 176.614 104.948Z" fill="white"/>
<path d="M186.736 62.0196C185.432 62.0196 184.375 60.9628 184.375 59.6586V56.3276C184.375 50.6792 181.78 45.4765 177.257 42.052C176.217 41.2654 176.012 39.7841 176.799 38.7447C177.586 37.7054 179.067 37.5 180.106 38.2872C185.82 42.6116 189.097 49.1875 189.097 56.3276V59.6586C189.097 60.9628 188.039 62.0196 186.736 62.0196Z" fill="white"/>
<path d="M146.224 66.708C144.921 66.708 143.863 65.6512 143.863 64.347V56.3295C143.863 43.8591 154.009 33.7129 166.48 33.7129C167.363 33.7129 168.252 33.7644 169.122 33.8664C170.418 34.0175 171.344 35.1904 171.193 36.4857C171.042 37.7804 169.867 38.7116 168.574 38.5563C167.885 38.476 167.18 38.4349 166.48 38.4349C156.613 38.4349 148.585 46.4623 148.585 56.3295V64.347C148.585 65.6507 147.528 66.708 146.224 66.708Z" fill="white"/>
<path d="M166.481 98.222C159.218 98.222 153.309 92.3124 153.309 85.0495V56.3288C153.309 49.0654 159.218 43.1562 166.481 43.1562C173.745 43.1562 179.654 49.0654 179.654 56.3288V70.823C179.654 72.1272 178.596 73.184 177.293 73.184C175.989 73.184 174.932 72.1272 174.932 70.823V56.3288C174.932 51.6696 171.141 47.8783 166.481 47.8783C161.821 47.8783 158.031 51.6691 158.031 56.3288V85.0495C158.031 89.7092 161.821 93.5 166.481 93.5C171.141 93.5 174.932 89.7092 174.932 85.0495V79.9993C174.932 78.6951 175.989 77.6383 177.293 77.6383C178.596 77.6383 179.654 78.6951 179.654 79.9993V85.0495C179.654 92.3124 173.745 98.222 166.481 98.222Z" fill="white"/>
<path d="M165.115 64.9699C163.811 64.9699 162.754 63.9131 162.754 62.6089V58.2165C162.754 56.9123 163.811 55.8555 165.115 55.8555C166.419 55.8555 167.476 56.9123 167.476 58.2165V62.6089C167.476 63.9131 166.419 64.9699 165.115 64.9699Z" fill="white"/>
<path d="M167.849 87.4096C166.546 87.4096 165.488 86.3528 165.488 85.0486V69.0329C165.488 67.7287 166.546 66.6719 167.849 66.6719C169.153 66.6719 170.21 67.7287 170.21 69.0329V85.0486C170.21 86.3528 169.153 87.4096 167.849 87.4096Z" fill="white"/>
<path d="M203.007 106.476H190.306C195.422 100.793 198.541 93.2797 198.541 85.0497V56.329C198.541 38.6507 184.159 24.2684 166.481 24.2684C164.203 24.2684 161.982 24.5111 159.837 24.9649V19.8519C159.837 13.3426 154.541 8.04688 148.032 8.04688H36.4027C29.8934 8.04688 24.5977 13.3426 24.5977 19.8519V44.4088C24.5977 45.713 25.6549 46.7698 26.9587 46.7698C28.2624 46.7698 29.3197 45.713 29.3197 44.4088V19.8519C29.3197 15.9463 32.4971 12.7689 36.4027 12.7689H148.032C151.938 12.7689 155.115 15.9463 155.115 19.8519V26.357C143.032 30.9543 134.42 42.6522 134.42 56.329V85.0497C134.42 102.728 148.802 117.11 166.481 117.11C173.375 117.11 179.763 114.916 184.997 111.198H203.007C208.214 111.198 212.451 115.434 212.451 120.642V201.193C212.451 206.4 208.214 210.637 203.007 210.637L67.8112 210.636C62.6037 210.636 58.3672 206.4 58.3672 201.192V120.641C58.3672 115.434 62.6037 111.197 67.8112 111.197L132.802 111.198C134.106 111.198 135.163 110.141 135.163 108.837C135.163 107.533 134.106 106.476 132.802 106.476L67.8112 106.475C60 106.475 53.6451 112.83 53.6451 120.641V191.679H36.4027C32.4971 191.679 29.3197 188.501 29.3197 184.596V57.8117C29.3197 56.5075 28.2624 55.4507 26.9587 55.4507C25.6549 55.4507 24.5977 56.5075 24.5977 57.8117V184.596C24.5977 191.105 29.8934 196.401 36.4027 196.401H53.6451V201.193C53.6451 209.004 60 215.359 67.8112 215.359L203.007 215.359C210.818 215.359 217.173 209.005 217.173 201.193V120.642C217.173 112.831 210.818 106.476 203.007 106.476ZM166.481 112.389C151.406 112.389 139.142 100.124 139.142 85.0502V56.3295C139.142 41.2549 151.406 28.9909 166.481 28.9909C181.556 28.9909 193.82 41.2549 193.82 56.3295V85.0502C193.82 100.124 181.555 112.389 166.481 112.389Z" fill="#1F4FDE"/>
<path d="M191.564 28.4662H194.344V31.246C194.344 32.5502 195.401 33.607 196.705 33.607C198.009 33.607 199.066 32.5502 199.066 31.246V26.1051C199.066 24.8009 198.009 23.7441 196.705 23.7441H191.564C190.26 23.7441 189.203 24.8009 189.203 26.1051C189.203 27.4094 190.26 28.4662 191.564 28.4662Z" fill="#1F4FDE"/>
<path d="M30.8532 209.601C30.2487 209.601 29.6448 209.37 29.1835 208.909L26.8394 206.565L24.4954 208.909C23.5732 209.831 22.0787 209.831 21.1565 208.909C20.2343 207.987 20.2343 206.492 21.1565 205.571L25.1702 201.557C26.0924 200.635 27.5869 200.635 28.5092 201.557L32.5229 205.571C33.4451 206.492 33.4451 207.987 32.5229 208.909C32.062 209.37 31.4576 209.601 30.8532 209.601Z" fill="#9BACF2"/>
<path d="M217.81 86.4036C217.206 86.4036 216.602 86.1732 216.14 85.7118L213.796 83.3678L211.452 85.7118C210.53 86.634 209.036 86.634 208.114 85.7118C207.191 84.7901 207.191 83.2951 208.114 82.3733L212.127 78.3596C213.049 77.4374 214.544 77.4374 215.466 78.3596L219.48 82.3733C220.402 83.2951 220.402 84.7901 219.48 85.7118C219.019 86.1727 218.415 86.4036 217.81 86.4036Z" fill="#9BACF2"/>
<path d="M229.974 107.318C229.37 107.318 228.766 107.087 228.305 106.626L225.961 104.282L223.617 106.626C222.694 107.548 221.2 107.548 220.278 106.626C219.355 105.704 219.355 104.209 220.278 103.287L224.291 99.2737C225.214 98.3515 226.708 98.3515 227.63 99.2737L231.644 103.287C232.566 104.209 232.566 105.704 231.644 106.626C231.183 107.087 230.579 107.318 229.974 107.318Z" fill="#9BACF2"/>
<path d="M45.8018 227.301C41.8962 227.301 38.7188 224.123 38.7188 220.218C38.7188 216.312 41.8962 213.135 45.8018 213.135C49.7074 213.135 52.8848 216.312 52.8848 220.218C52.8848 224.123 49.7074 227.301 45.8018 227.301ZM45.8018 217.857C44.4999 217.857 43.4408 218.916 43.4408 220.218C43.4408 221.52 44.4999 222.579 45.8018 222.579C47.1036 222.579 48.1628 221.52 48.1628 220.218C48.1628 218.916 47.1032 217.857 45.8018 217.857Z" fill="#9BACF2"/>
<path d="M214.813 40.1875C210.908 40.1875 207.73 37.0101 207.73 33.1045C207.73 29.1989 210.908 26.0215 214.813 26.0215C218.719 26.0215 221.897 29.1989 221.897 33.1045C221.897 37.0101 218.719 40.1875 214.813 40.1875ZM214.813 30.7435C213.512 30.7435 212.452 31.8026 212.452 33.1045C212.452 34.4064 213.512 35.4655 214.813 35.4655C216.115 35.4655 217.175 34.4064 217.175 33.1045C217.175 31.8026 216.115 30.7435 214.813 30.7435Z" fill="#9BACF2"/>
</g>
<defs>
<linearGradient id="paint0_linear_1260_7153" x1="80.144" y1="169.878" x2="229.407" y2="20.6147" gradientUnits="userSpaceOnUse">
<stop stop-color="#D1DDFF" stop-opacity="0"/>
<stop offset="1" stop-color="#B6C4FF"/>
</linearGradient>
<clipPath id="clip0_1260_7153">
<rect width="241.767" height="229.49" fill="white"/>
</clipPath>
</defs>
</svg>
