<svg width="250" height="230" viewBox="0 0 250 230" fill="none" xmlns="http://www.w3.org/2000/svg">
<path d="M249.302 203.879C243.037 170.472 218.627 144.784 201.836 116.09C184.602 86.6391 205.924 75.5512 227.111 51.8699C250.504 25.7221 217.177 -23.5395 177.34 13.0512C157.957 30.8542 124.87 2.82004 67.9782 4.13367C14.8806 5.35988 -7.55551 64.9845 19.5412 100.327C41.3928 128.829 80.6297 137.454 113.693 147.939C147.278 158.591 169.492 183.649 189.198 210.812C205.44 233.199 256.178 240.543 249.302 203.879Z" fill="url(#paint0_linear_1260_7556)"/>
<g clip-path="url(#clip0_1260_7556)">
<path d="M190.319 84.2688L94.7992 93.927L90.0667 93.4119L3.59375 84.2688L30.9908 54.1353C34.0345 50.7679 38.3634 48.8491 42.9026 48.8555H151.01C155.549 48.8491 159.878 50.7679 162.922 54.1353L190.319 84.2688Z" fill="#E8EDFC"/>
<path d="M180.66 84.2688L90.0667 93.4119L3.59375 84.2688L30.9908 54.1353C34.0345 50.7679 38.3634 48.8491 42.9026 48.8555H141.352C145.891 48.8491 150.22 50.7679 153.263 54.1353L180.66 84.2688Z" fill="#E8EDFC"/>
<path d="M132.37 13.4421V68.1718H61.543V13.4421C61.543 11.664 62.9843 10.2227 64.7624 10.2227H129.15C130.928 10.2227 132.37 11.664 132.37 13.4421Z" fill="#E8EDFC"/>
<path d="M122.711 13.4421V68.1718H61.543V13.4421C61.543 11.664 62.9843 10.2227 64.7624 10.2227H119.492C121.27 10.2227 122.711 11.664 122.711 13.4421Z" fill="white"/>
<path d="M190.319 84.2695V145.438C190.319 149.707 188.623 153.802 185.604 156.82C182.585 159.839 178.491 161.535 174.222 161.535H19.6907C15.4215 161.535 11.3272 159.839 8.30845 156.82C5.28968 153.802 3.59375 149.707 3.59375 145.438V84.2695H190.319Z" fill="#E8EDFC"/>
<path d="M180.66 84.2695V145.438C180.66 149.707 178.965 153.802 175.946 156.82C172.927 159.839 168.833 161.535 164.564 161.535H19.6907C15.4215 161.535 11.3272 159.839 8.30845 156.82C5.28968 153.802 3.59375 149.707 3.59375 145.438V84.2695H180.66Z" fill="#E8EDFC"/>
<path d="M148.47 132.56V161.534H45.4492V132.56C45.4492 118.336 56.9802 106.805 71.2044 106.805H122.715C136.939 106.805 148.47 118.336 148.47 132.56Z" fill="#7FACFA"/>
<path d="M138.812 132.56V161.534H45.4492V132.56C45.4492 118.336 56.9802 106.805 71.2044 106.805H113.057C127.281 106.805 138.812 118.336 138.812 132.56Z" fill="#E8EDFC"/>
<path d="M171.005 113.245C174.561 113.245 177.444 110.362 177.444 106.806C177.444 103.25 174.561 100.367 171.005 100.367C167.449 100.367 164.566 103.25 164.566 106.806C164.566 110.362 167.449 113.245 171.005 113.245Z" fill="#A4C2F7"/>
<path d="M135.59 142.218V155.096H58.3242V142.218C58.3348 138.666 61.2114 135.79 64.763 135.779H129.151C132.703 135.79 135.579 138.666 135.59 142.218Z" fill="#E8EDFC"/>
<path d="M125.932 142.218V155.096H58.3242V142.218C58.3348 138.666 61.2114 135.79 64.763 135.779H119.493C123.044 135.79 125.921 138.666 125.932 142.218Z" fill="#E8EDFC"/>
<path d="M158.127 187.291H35.7897C34.5703 187.291 33.4556 186.602 32.9102 185.511C32.3649 184.421 32.4826 183.115 33.2142 182.14L48.6673 161.536L58.3255 148.658H135.591L145.249 161.536L160.702 182.14C161.434 183.115 161.552 184.421 161.006 185.511C160.461 186.602 159.346 187.291 158.127 187.291Z" fill="#E8EDFC"/>
<path d="M148.469 187.291H35.7897C34.5703 187.291 33.4556 186.602 32.9102 185.511C32.3649 184.421 32.4826 183.115 33.2142 182.14L48.6673 161.536L58.3255 148.658H125.933L135.591 161.536L151.044 182.14C151.776 183.115 151.893 184.421 151.348 185.511C150.803 186.602 149.688 187.291 148.469 187.291Z" fill="#E8EDFC"/>
<path d="M133.82 196.949H60.0955C59.0045 196.946 57.9889 196.392 57.3973 195.475C56.8056 194.558 56.7185 193.404 57.1659 192.409L70.3332 163.435C70.8575 162.286 72.0001 161.545 73.2628 161.535H120.652C121.915 161.545 123.058 162.286 123.582 163.435L136.749 192.409C137.197 193.404 137.11 194.558 136.518 195.475C135.926 196.392 134.911 196.946 133.82 196.949Z" fill="#E8EDFC"/>
<path d="M125.61 196.949H60.0955C59.0045 196.946 57.9889 196.392 57.3973 195.475C56.8056 194.558 56.7185 193.404 57.1659 192.409L70.3332 163.435C70.8575 162.286 72.0001 161.545 73.2628 161.535H112.411C113.679 161.527 114.83 162.274 115.34 163.435L128.54 192.409C128.987 193.404 128.9 194.558 128.308 195.475C127.717 196.392 126.701 196.946 125.61 196.949Z" fill="white"/>
<path d="M18.4837 161.671H28.1419C19.2518 161.671 12.0449 154.464 12.0449 145.574V84.4056L39.442 54.272C42.4857 50.9046 46.8146 48.9858 51.3537 48.9922L41.6955 48.9922C37.1564 48.9858 32.8275 50.9046 29.7838 54.272L2.38672 84.4056V145.574C2.38672 154.464 9.59358 161.671 18.4837 161.671Z" fill="white"/>
<path d="M122.714 164.755H71.2038C69.4257 164.755 67.9844 163.314 67.9844 161.536C67.9844 159.758 69.4257 158.316 71.2038 158.316H122.714C124.492 158.316 125.933 159.758 125.933 161.536C125.933 163.314 124.492 164.755 122.714 164.755Z" fill="#1F4FDE"/>
<path d="M122.714 164.755H71.2038C69.4257 164.755 67.9844 163.314 67.9844 161.536C67.9844 159.758 69.4257 158.316 71.2038 158.316H122.714C124.492 158.316 125.933 159.758 125.933 161.536C125.933 163.314 124.492 164.755 122.714 164.755Z" fill="#1F4FDE"/>
<path d="M122.714 164.755H71.2038C69.4257 164.755 67.9844 163.314 67.9844 161.536C67.9844 159.758 69.4257 158.316 71.2038 158.316H122.714C124.492 158.316 125.933 159.758 125.933 161.536C125.933 163.314 124.492 164.755 122.714 164.755Z" fill="#1F4FDE"/>
<path d="M0.375 145.438V103.586V84.2695H6.81379V103.586V145.438H0.375Z" fill="white"/>
<path d="M3.5944 129.342C1.81637 129.342 0.375 130.783 0.375 132.561V145.439H6.81379V132.561C6.81379 130.783 5.37242 129.342 3.5944 129.342Z" fill="#1F4FDE"/>
<path d="M6.81379 84.2695H0.375V106.805C0.375 108.583 1.81637 110.025 3.5944 110.025C5.37242 110.025 6.81379 108.583 6.81379 106.805V84.2695Z" fill="#1F4FDE"/>
<path d="M0.375 119.682C0.387492 120.535 0.720876 121.351 1.30862 121.968L1.79153 122.354C1.97094 122.476 2.16583 122.574 2.37103 122.644C2.55344 122.737 2.74878 122.802 2.95052 122.837C3.16346 122.873 3.37857 122.895 3.5944 122.902C4.44666 122.889 5.26287 122.556 5.88017 121.968C6.17119 121.66 6.40067 121.3 6.55624 120.906C7.04197 119.705 6.77725 118.331 5.88017 117.397C5.57237 117.105 5.21176 116.876 4.81777 116.72C4.43072 116.555 4.0151 116.468 3.5944 116.463C2.74214 116.475 1.92592 116.809 1.30862 117.397C0.720876 118.014 0.387492 118.83 0.375 119.682H0.375Z" fill="#1F4FDE"/>
<path d="M48.6659 164.755H19.6914C9.02765 164.744 0.385648 156.102 0.375 145.438C0.375 143.66 1.81637 142.219 3.5944 142.219C5.37242 142.219 6.81379 143.66 6.81379 145.438C6.81379 152.55 12.5793 158.316 19.6914 158.316H48.6659C50.444 158.316 51.8853 159.757 51.8853 161.535C51.8853 163.313 50.444 164.755 48.6659 164.755Z" fill="#1F4FDE"/>
<path d="M174.222 164.755H145.248C143.47 164.755 142.028 163.314 142.028 161.536C142.028 159.758 143.47 158.316 145.248 158.316H174.222C181.334 158.316 187.1 152.551 187.1 145.439V87.4896H3.5944C1.81637 87.4896 0.375 86.0482 0.375 84.2702C0.375 82.4922 1.81637 81.0508 3.5944 81.0508H190.319C192.097 81.0508 193.539 82.4922 193.539 84.2702V145.439C193.528 156.102 184.886 164.744 174.222 164.755Z" fill="#1F4FDE"/>
<path d="M190.321 87.4889H3.59561C2.32085 87.4893 1.16588 86.7376 0.65022 85.5718C0.134561 84.4059 0.355343 83.0457 1.21326 82.1028L28.6168 51.9596C32.281 47.9366 37.4693 45.6416 42.9109 45.6367H61.5447C63.3228 45.6367 64.7641 47.0781 64.7641 48.8561C64.7641 50.6341 63.3228 52.0755 61.5447 52.0755H42.9109C39.2826 52.0783 35.8233 53.6092 33.3815 56.2929L10.8747 81.0501H183.041L160.535 56.2929C158.093 53.6092 154.634 52.0783 151.005 52.0755H132.371C130.593 52.0755 129.152 50.6341 129.152 48.8561C129.152 47.0781 130.593 45.6367 132.371 45.6367H151.005C156.447 45.6416 161.635 47.9366 165.299 51.9596L192.703 82.1028C193.561 83.0457 193.782 84.4059 193.266 85.5718C192.75 86.7376 191.595 87.4893 190.321 87.4889Z" fill="#1F4FDE"/>
<path d="M148.467 164.754H145.247C143.469 164.754 142.028 163.313 142.028 161.535C142.028 159.757 143.469 158.316 145.247 158.316V132.56C145.233 120.12 135.152 110.039 122.711 110.025H71.2011C58.7608 110.039 48.6795 120.12 48.6654 132.56V158.316C50.4434 158.316 51.8847 159.757 51.8847 161.535C51.8847 163.313 50.4434 164.754 48.6654 164.754H45.446C43.6679 164.754 42.2266 163.313 42.2266 161.535V132.56C42.2461 116.566 55.207 103.605 71.2011 103.586H122.711C138.706 103.605 151.666 116.566 151.686 132.56V161.535C151.686 163.313 150.245 164.754 148.467 164.754Z" fill="#1F4FDE"/>
<path d="M122.714 164.755H71.2038C69.4257 164.755 67.9844 163.314 67.9844 161.536C67.9844 159.758 69.4257 158.316 71.2038 158.316H122.714C124.492 158.316 125.933 159.758 125.933 161.536C125.933 163.314 124.492 164.755 122.714 164.755Z" fill="#1F4FDE"/>
<path d="M171.006 116.463C165.672 116.463 161.348 112.139 161.348 106.805C161.348 101.471 165.672 97.1465 171.006 97.1465C176.34 97.1465 180.664 101.471 180.664 106.805C180.664 112.139 176.34 116.463 171.006 116.463ZM171.006 103.585C169.228 103.585 167.786 105.027 167.786 106.805C167.786 108.583 169.228 110.024 171.006 110.024C172.784 110.024 174.225 108.583 174.225 106.805C174.225 105.027 172.784 103.585 171.006 103.585Z" fill="#1F4FDE"/>
<path d="M158.127 190.509H134.433C132.655 190.509 131.213 189.068 131.213 187.29C131.213 185.512 132.655 184.07 134.433 184.07H158.127L133.982 151.876H59.9359L35.7904 184.07H59.4851C61.2632 184.07 62.7045 185.512 62.7045 187.29C62.7045 189.068 61.2632 190.509 59.4851 190.509H35.7904C33.3516 190.509 31.122 189.131 30.0314 186.95C28.9407 184.768 29.1761 182.158 30.6394 180.207L55.7506 146.725C56.3586 145.915 57.3128 145.438 58.3262 145.438H135.592C136.605 145.438 137.559 145.915 138.167 146.725L163.278 180.207C164.742 182.158 164.977 184.768 163.886 186.95C162.796 189.131 160.566 190.509 158.127 190.509Z" fill="#1F4FDE"/>
<path d="M135.59 151.877H58.3249C56.5468 151.877 55.1055 150.436 55.1055 148.658V142.219C55.1055 136.885 59.4296 132.561 64.7637 132.561H129.152C134.486 132.561 138.81 136.885 138.81 142.219V148.658C138.81 150.436 137.368 151.877 135.59 151.877ZM61.5443 145.438H132.371V142.219C132.371 140.441 130.93 138.999 129.152 138.999H64.7637C62.9856 138.999 61.5443 140.441 61.5443 142.219V145.438Z" fill="#1F4FDE"/>
<path d="M133.812 200.169H60.1067C57.918 200.169 55.8791 199.057 54.6938 197.217C53.5085 195.376 53.3392 193.06 54.2442 191.067L68.2744 160.203C68.7968 159.054 69.9421 158.317 71.204 158.316H122.714C123.976 158.317 125.122 159.054 125.644 160.203L139.674 191.067C140.579 193.06 140.41 195.376 139.225 197.217C138.039 199.057 136 200.169 133.812 200.169ZM73.287 164.755L60.1164 193.73H133.841L120.657 164.755H73.287Z" fill="#1F4FDE"/>
<path d="M132.37 71.3918H61.5436C59.7656 71.3918 58.3242 69.9504 58.3242 68.1724V13.4427C58.3242 9.88665 61.207 7.00391 64.763 7.00391H129.151C132.707 7.00391 135.59 9.88665 135.59 13.4427V68.1724C135.59 69.9504 134.148 71.3918 132.37 71.3918ZM64.763 64.953H129.151V13.4427H64.763V64.953Z" fill="#1F4FDE"/>
<path d="M138.81 71.3919H55.1061C53.3281 71.3919 51.8867 69.9505 51.8867 68.1725C51.8867 66.3945 53.3281 64.9531 55.1061 64.9531H138.81C140.588 64.9531 142.03 66.3945 142.03 68.1725C142.03 69.9505 140.588 71.3919 138.81 71.3919Z" fill="#1F4FDE"/>
<path d="M109.834 177.632H84.0788C82.3007 177.632 80.8594 176.191 80.8594 174.413C80.8594 172.635 82.3007 171.193 84.0788 171.193H109.834C111.612 171.193 113.053 172.635 113.053 174.413C113.053 176.191 111.612 177.632 109.834 177.632Z" fill="#1F4FDE"/>
<path d="M116.274 187.29H77.6413C75.8632 187.29 74.4219 185.849 74.4219 184.071C74.4219 182.293 75.8632 180.852 77.6413 180.852H116.274C118.052 180.852 119.493 182.293 119.493 184.071C119.493 185.849 118.052 187.29 116.274 187.29Z" fill="#1F4FDE"/>
<path d="M16.4733 103.586C14.6953 103.586 13.2539 102.145 13.2539 100.367V97.1471C13.2539 95.3691 14.6953 93.9277 16.4733 93.9277C18.2513 93.9277 19.6927 95.3691 19.6927 97.1471V100.367C19.6927 102.145 18.2513 103.586 16.4733 103.586Z" fill="#1F4FDE"/>
<path d="M16.4733 135.781C14.6953 135.781 13.2539 134.339 13.2539 132.561V113.245C13.2539 111.467 14.6953 110.025 16.4733 110.025C18.2513 110.025 19.6927 111.467 19.6927 113.245V132.561C19.6927 134.339 18.2513 135.781 16.4733 135.781Z" fill="#1F4FDE"/>
<path d="M171.005 129.341C172.783 129.341 174.224 127.9 174.224 126.122C174.224 124.344 172.783 122.902 171.005 122.902C169.227 122.902 167.785 124.344 167.785 126.122C167.785 127.9 169.227 129.341 171.005 129.341Z" fill="#1F4FDE"/>
<path d="M171.005 138.999C172.783 138.999 174.224 137.558 174.224 135.78C174.224 134.002 172.783 132.561 171.005 132.561C169.227 132.561 167.785 134.002 167.785 135.78C167.785 137.558 169.227 138.999 171.005 138.999Z" fill="#1F4FDE"/>
<path d="M171.005 148.658C172.783 148.658 174.224 147.216 174.224 145.438C174.224 143.66 172.783 142.219 171.005 142.219C169.227 142.219 167.785 143.66 167.785 145.438C167.785 147.216 169.227 148.658 171.005 148.658Z" fill="#1F4FDE"/>
</g>
<defs>
<linearGradient id="paint0_linear_1260_7556" x1="88.2034" y1="169.915" x2="237.57" y2="20.5488" gradientUnits="userSpaceOnUse">
<stop stop-color="#D1DDFF" stop-opacity="0"/>
<stop offset="1" stop-color="#B6C4FF"/>
</linearGradient>
<clipPath id="clip0_1260_7556">
<rect width="193.918" height="193.164" fill="white" transform="translate(0 7.00391)"/>
</clipPath>
</defs>
</svg>
