<svg width="208" height="230" viewBox="0 0 208 230" fill="none" xmlns="http://www.w3.org/2000/svg">
<g clip-path="url(#clip0_1260_5875)">
<path d="M207.796 57.3094C205.924 25.5144 176.962 7.48779 147.13 1.82316C33.5955 -19.7368 -61.8444 156.535 49.9166 181.839C93.3717 191.678 109.172 205.609 130.151 225.056C138.756 233.032 152.032 229.684 157.629 219.512C165.44 205.315 158.692 188.5 160.495 173.321C165.493 131.253 210.413 101.76 207.796 57.3094Z" fill="url(#paint0_linear_1260_5875)"/>
<g opacity="0.1">
<path d="M128.236 118.814H114.554L125.961 107.408C126.836 106.532 126.836 105.113 125.961 104.238C125.085 103.363 123.667 103.363 122.791 104.238L108.216 118.814H99.7685L85.1928 104.238C84.3174 103.363 82.8988 103.363 82.0234 104.238C81.1481 105.114 81.1481 106.533 82.0234 107.408L93.4298 118.814H79.7478C78.8321 118.814 78.0898 119.556 78.0898 120.472V124.332C78.0898 125.248 78.8321 125.99 79.7478 125.99H81.1225L86.2408 148.668C86.4967 149.802 87.5043 150.608 88.6665 150.608H119.318C120.48 150.608 121.488 149.802 121.744 148.668L126.862 125.99H128.236C129.152 125.99 129.894 125.248 129.894 124.332V120.472C129.894 119.556 129.152 118.814 128.236 118.814Z" fill="#1F4FDE"/>
<path d="M186.659 195.716L162.579 171.636L168.321 165.894C171.141 163.074 169.294 158.246 165.311 158.029L155.623 157.501C159.464 150.756 162.022 143.188 162.961 135.133H176.776C180.596 135.133 183.692 132.036 183.692 128.216C183.692 124.397 180.596 121.3 176.776 121.3H162.961C162.024 113.256 159.471 105.698 155.639 98.9582L165.505 98.3401C169.486 98.0908 171.294 93.2483 168.451 90.4514L162.662 84.7562L186.546 60.481C187.975 59.0288 187.956 56.6931 186.504 55.2641L176.607 45.5261C175.154 44.0971 172.819 44.1164 171.39 45.5687L147.506 69.8439L141.718 64.1488C138.875 61.3519 134.062 63.2385 133.878 67.2223L133.44 76.6775C126.653 72.7842 119.028 70.1922 110.908 69.246V55.4309C110.908 51.6111 107.811 48.5144 103.991 48.5144C100.172 48.5144 97.0749 51.6111 97.0749 55.4309V69.2455C89.0307 70.1832 81.4728 72.7358 74.7333 76.5681L74.1152 66.7014C73.866 62.7212 69.0234 60.9131 66.2265 63.7557L60.5314 69.544L36.2562 45.6601C34.8039 44.2312 32.4682 44.25 31.0398 45.7022L21.3017 55.5999C19.8727 57.0521 19.8916 59.3878 21.3438 60.8167L45.6191 84.7007L39.924 90.489C37.1271 93.3321 39.0136 98.1446 42.9974 98.3289L52.4527 98.7672C48.5594 105.554 45.9673 113.179 45.0211 121.299H31.2047C27.3849 121.299 24.2882 124.396 24.2882 128.216C24.2882 132.036 27.3849 135.132 31.2047 135.132H45.0193C45.9646 143.242 48.5509 150.857 52.4352 157.638L42.8029 158.162C38.8209 158.379 36.9733 163.207 39.7931 166.027L45.5352 171.77L21.455 195.85C20.0144 197.29 20.0144 199.626 21.455 201.067L31.2733 210.885C32.7139 212.326 35.0495 212.326 36.4901 210.885L60.5704 186.805L66.3126 192.547C69.1328 195.367 73.9601 193.52 74.1771 189.537L74.7046 179.849C81.4504 183.69 89.0181 186.248 97.0731 187.187V201.002C97.0731 204.821 100.17 207.918 103.99 207.918C107.809 207.918 110.906 204.821 110.906 201.002V187.187C119.016 186.242 126.631 183.656 133.411 179.771L133.936 189.404C134.153 193.386 138.981 195.233 141.801 192.413L147.543 186.671L171.624 210.751C173.064 212.192 175.4 212.192 176.84 210.751L186.659 200.933C188.1 199.493 188.1 197.157 186.659 195.716ZM139.557 156.626L137.264 156.501C134.523 156.352 132.259 158.615 132.409 161.356L132.535 163.674C124.72 169.978 114.789 173.759 103.99 173.759C93.2534 173.759 83.3746 170.022 75.58 163.783L75.7051 161.49C75.8543 158.749 73.5908 156.485 70.8499 156.634L68.5317 156.761C62.2279 148.946 58.4472 139.015 58.4472 128.216C58.4472 117.346 62.2768 107.356 68.655 99.518L71.0543 99.6291C73.7961 99.756 76.0412 97.4745 75.8696 94.735L75.7315 92.5271C83.5019 86.3613 93.3229 82.6734 103.99 82.6734C114.859 82.6734 124.85 86.503 132.688 92.8812L132.577 95.2805C132.45 98.0223 134.731 100.267 137.471 100.096L139.679 99.9577C145.845 107.728 149.533 117.549 149.533 128.216C149.533 138.953 145.796 148.832 139.557 156.626Z" fill="#1F4FDE"/>
</g>
<path d="M176.776 110.541H162.962C159.789 83.3181 138.131 61.66 110.907 58.487V44.6724C110.907 40.8526 107.811 37.7559 103.991 37.7559C100.171 37.7559 97.0745 40.8526 97.0745 44.6724V58.487C69.8513 61.66 48.1932 83.3181 45.0202 110.541H31.2056C27.3858 110.541 24.2891 113.638 24.2891 117.458C24.2891 121.278 27.3858 124.374 31.2056 124.374H45.0202C48.1932 151.598 69.8513 173.256 97.0745 176.429V190.243C97.0745 194.063 100.171 197.16 103.991 197.16C107.811 197.16 110.907 194.063 110.907 190.243V176.429C138.131 173.256 159.789 151.598 162.962 124.374H176.776C180.596 124.374 183.693 121.278 183.693 117.458C183.693 113.638 180.596 110.541 176.776 110.541ZM103.991 163C78.8789 163 58.4485 142.57 58.4485 117.458C58.4485 92.3457 78.8789 71.9149 103.991 71.9149C129.103 71.9149 149.533 92.3453 149.533 117.457C149.533 142.569 129.103 163 103.991 163Z" fill="#9BACF2"/>
<path d="M80.6719 113.229L86.2428 137.912C86.4988 139.046 87.5064 139.851 88.6686 139.851H119.32C120.482 139.851 121.49 139.046 121.746 137.912L127.317 113.229H80.6719Z" fill="#9BACF2"/>
<path d="M128.237 115.233H79.7478C78.8321 115.233 78.0898 114.491 78.0898 113.575V109.715C78.0898 108.799 78.8321 108.057 79.7478 108.057H128.237C129.153 108.057 129.895 108.799 129.895 109.715V113.575C129.895 114.491 129.153 115.233 128.237 115.233Z" fill="white"/>
<path d="M42.9972 87.5703L71.0559 88.8706C73.7977 88.9974 76.0428 86.716 75.8711 83.9764L74.1154 55.9424C73.8662 51.9622 69.0236 50.1541 66.2267 52.9967L60.5316 58.785L36.2564 34.9011C34.8041 33.4721 32.4685 33.4914 31.0395 34.9437L21.3015 44.8413C19.8725 46.2935 19.8918 48.6292 21.344 50.0581L45.6193 73.9421L39.9242 79.7304C37.1268 82.5731 39.0134 87.3856 42.9972 87.5703Z" fill="white"/>
<path d="M47.1554 62.7816C46.5879 62.7816 46.0205 62.5674 45.5839 62.138L31.0364 47.8249C30.1543 46.9567 30.1426 45.5381 31.0109 44.6555C31.8786 43.7734 33.2977 43.7618 34.1802 44.63L48.7277 58.9431C49.6098 59.8113 49.6215 61.2299 48.7533 62.1124C48.3145 62.5584 47.7354 62.7816 47.1554 62.7816Z" fill="#9BACF2"/>
<path d="M133.876 56.464L132.575 84.5227C132.449 87.2645 134.73 89.5096 137.469 89.3379L165.503 87.5822C169.483 87.333 171.291 82.4904 168.449 79.6935L162.661 73.9984L186.545 49.7232C187.974 48.2709 187.955 45.9353 186.502 44.5063L176.605 34.7683C175.153 33.3393 172.817 33.3586 171.389 34.8108L147.505 59.0861L141.716 53.391C138.873 50.5936 134.06 52.4802 133.876 56.464Z" fill="white"/>
<path d="M160.905 62.8637C160.337 62.8637 159.769 62.6495 159.333 62.2201C158.451 61.3519 158.44 59.9332 159.308 59.0507L173.621 44.5032C174.489 43.6211 175.908 43.6094 176.79 44.4776C177.672 45.3459 177.684 46.7645 176.816 47.647L162.503 62.1945C162.064 62.6405 161.484 62.8637 160.905 62.8637Z" fill="#9BACF2"/>
<path d="M74.1775 178.778L75.7055 150.731C75.8548 147.99 73.5913 145.727 70.8504 145.876L42.8034 147.404C38.8213 147.621 36.9738 152.449 39.7935 155.269L45.5357 161.011L21.4554 185.092C20.0149 186.532 20.0149 188.868 21.4554 190.308L31.2737 200.127C32.7143 201.567 35.05 201.567 36.4906 200.127L60.5709 176.046L66.313 181.789C69.1328 184.608 73.9606 182.761 74.1775 178.778Z" fill="white"/>
<path d="M32.7493 191.07C32.1755 191.07 31.6023 190.852 31.1643 190.414C30.289 189.539 30.289 188.12 31.1643 187.245L45.5953 172.814C46.4711 171.939 47.8897 171.94 48.7647 172.814C49.6401 173.69 49.6401 175.109 48.7647 175.984L34.3337 190.414C33.8967 190.852 33.323 191.07 32.7493 191.07Z" fill="#9BACF2"/>
<path d="M165.311 147.271L137.264 145.743C134.524 145.594 132.26 147.858 132.409 150.598L133.937 178.645C134.154 182.627 138.982 184.475 141.802 181.655L147.544 175.913L171.625 199.993C173.065 201.434 175.401 201.434 176.842 199.993L186.66 190.175C188.1 188.735 188.1 186.399 186.66 184.958L162.58 160.878L168.322 155.136C171.142 152.316 169.294 147.488 165.311 147.271Z" fill="white"/>
<path d="M175.363 190.938C174.79 190.938 174.216 190.719 173.778 190.281L159.348 175.851C158.473 174.976 158.473 173.557 159.348 172.682C160.223 171.807 161.642 171.807 162.517 172.682L176.948 187.112C177.823 187.987 177.823 189.407 176.948 190.281C176.51 190.719 175.937 190.938 175.363 190.938Z" fill="#9BACF2"/>
<path d="M128.235 105.815H116.795L125.96 96.6498C126.835 95.7744 126.835 94.3553 125.96 93.4804C125.084 92.6055 123.666 92.6055 122.79 93.4804L110.456 105.815H97.5264L85.1917 93.4804C84.3164 92.6059 82.8977 92.6055 82.0224 93.4804C81.147 94.3558 81.147 95.7749 82.0224 96.6498L91.1872 105.815H79.7467C77.5966 105.815 75.8477 107.564 75.8477 109.714V113.575C75.8477 115.583 77.3734 117.24 79.3263 117.45L84.0555 138.404C84.5445 140.574 86.4405 142.089 88.6668 142.089H119.316C121.543 142.089 123.439 140.573 123.928 138.405L128.657 117.45C130.61 117.24 132.135 115.583 132.135 113.575V109.714C132.135 107.564 130.386 105.815 128.235 105.815ZM80.3294 110.297H105.974L103.279 112.992H80.3294V110.297ZM119.554 137.419C119.529 137.531 119.433 137.606 119.316 137.606H88.6664C88.5489 137.606 88.453 137.531 88.4274 137.418L83.9264 117.474H98.8159C98.0337 118.354 98.0557 119.698 98.8993 120.541C99.3372 120.979 99.9104 121.198 100.484 121.198C101.058 121.198 101.631 120.979 102.069 120.541L105.137 117.474H124.056L119.554 137.419ZM127.653 112.992H109.618L112.313 110.297H127.653V112.992Z" fill="#1F4FDE"/>
<path d="M188.244 183.374L165.748 160.878L169.906 156.721C171.844 154.782 172.44 151.987 171.46 149.427C170.48 146.866 168.171 145.182 165.433 145.034L159.245 144.697C162.078 138.991 163.985 132.932 164.926 126.618H176.777C181.826 126.618 185.934 122.51 185.934 117.46C185.934 112.411 181.826 108.303 176.777 108.303H164.926C163.984 101.995 162.077 95.935 159.245 90.2206L165.645 89.8199C168.382 89.6486 170.678 87.9463 171.636 85.378C172.596 82.8097 171.977 80.0195 170.023 78.0966L165.831 73.973L172.748 66.9431C173.616 66.0605 173.604 64.6419 172.722 63.7737C171.839 62.9055 170.421 62.9167 169.553 63.7992L161.065 72.4266C160.648 72.8502 160.416 73.4221 160.421 74.0165C160.426 74.6108 160.667 75.1791 161.09 75.5955L166.879 81.2906C167.896 82.2911 167.563 83.4712 167.437 83.8092C167.311 84.1472 166.788 85.2565 165.365 85.3457L137.331 87.1014C136.65 87.1462 136.008 86.9042 135.521 86.4255C135.035 85.9468 134.784 85.3076 134.815 84.6263L136.116 56.5676C136.182 55.1427 137.282 54.6026 137.618 54.4708C137.954 54.3391 139.129 53.9872 140.145 54.9876L145.934 60.6828C146.817 61.5514 148.236 61.5393 149.103 60.6572L172.987 36.382C173.547 35.8127 174.465 35.8055 175.035 36.3649L184.932 46.1034C185.208 46.3746 185.362 46.7372 185.364 47.1236C185.368 47.5104 185.22 47.8753 184.949 48.1509L178.256 54.9536C177.388 55.8361 177.4 57.2547 178.282 58.123C179.165 58.9912 180.583 58.9795 181.451 58.0974L188.144 51.2947C189.255 50.1657 189.86 48.6717 189.847 47.0877C189.834 45.5037 189.205 44.0197 188.076 42.909L178.178 33.1704C175.847 30.8778 172.085 30.9083 169.792 33.2386L147.479 55.9164L143.289 51.7932C141.334 49.8703 138.535 49.2975 135.982 50.2979C133.429 51.2988 131.765 53.6219 131.638 56.3601L131.364 62.2699C125.618 59.4022 119.513 57.4735 113.147 56.5241V44.6727C113.147 39.6235 109.039 35.5155 103.99 35.5155C98.941 35.5155 94.8331 39.6235 94.8331 44.6727V56.5241C88.5208 57.4659 82.4608 59.373 76.7522 62.2045L76.3515 55.803C76.1803 53.0666 74.478 50.7708 71.9096 49.812C69.3413 48.8528 66.5512 49.4714 64.6283 51.4256L60.5046 55.6165L37.8269 33.3045C36.6978 32.1933 35.2048 31.5819 33.6198 31.6017C32.0358 31.6147 30.5518 32.2435 29.4411 33.3726L19.7026 43.2702C18.5919 44.3993 17.9872 45.8937 18.0002 47.4772C18.0132 49.0608 18.6421 50.5453 19.7711 51.656L42.4489 73.9685L38.3253 78.1594C36.4024 80.1136 35.83 82.9137 36.8305 85.4658C37.8309 88.0185 40.154 89.6832 42.8927 89.81L48.8016 90.0839C45.9338 95.831 44.0042 101.937 43.0549 108.302H31.2035C26.1543 108.302 22.0463 112.41 22.0463 117.459C22.0463 122.509 26.1543 126.617 31.2035 126.617H43.0554C44.0065 132.974 45.9361 139.081 48.8056 144.833L42.6811 145.167C39.9434 145.316 37.6341 146.999 36.6543 149.56C35.6745 152.12 36.2702 154.916 38.2087 156.854L42.366 161.011L19.8702 183.507C17.5583 185.819 17.5583 189.581 19.8702 191.893L29.6885 201.712C30.8445 202.868 32.363 203.445 33.8812 203.445C35.3997 203.445 36.9183 202.867 38.0743 201.712L60.5696 179.216L64.7269 183.373C66.6654 185.312 69.4606 185.907 72.0208 184.928C74.5815 183.947 76.265 181.638 76.4138 178.901L76.7509 172.714C82.4554 175.543 88.514 177.448 94.8317 178.391V190.242C94.8317 195.291 98.9397 199.399 103.989 199.399C109.038 199.399 113.146 195.291 113.146 190.242V178.39C119.51 177.44 125.615 175.51 131.364 172.642L131.698 178.767C131.847 181.505 133.53 183.814 136.091 184.794C138.651 185.774 141.447 185.179 143.385 183.24L147.543 179.082L170.038 201.578C171.159 202.698 172.648 203.315 174.232 203.315C175.816 203.315 177.305 202.698 178.425 201.578L188.243 191.759C189.363 190.639 189.979 189.15 189.979 187.566C189.979 185.982 189.364 184.493 188.244 183.374ZM154.363 90.5254C157.763 96.8538 159.906 103.669 160.736 110.802C160.868 111.932 161.825 112.785 162.962 112.785H176.777C179.354 112.785 181.451 114.882 181.451 117.459C181.451 120.037 179.354 122.134 176.777 122.134H162.962C161.825 122.134 160.868 122.986 160.736 124.116C159.904 131.275 157.753 138.101 154.34 144.429L143.796 143.854C148.963 136.065 151.775 126.841 151.775 117.459C151.775 107.979 149.059 98.9757 143.888 91.1816L154.363 90.5254ZM97.3332 60.7132C98.4632 60.5819 99.3153 59.6245 99.3153 58.4874V44.6727C99.3153 42.095 101.413 39.9978 103.99 39.9978C106.568 39.9978 108.665 42.095 108.665 44.6727V58.4869C108.665 59.6245 109.517 60.5815 110.647 60.7128C117.872 61.5541 124.758 63.736 131.136 67.2003L130.644 77.8228C122.805 72.5458 113.492 69.6745 103.99 69.6745C94.5099 69.6745 85.5078 72.3899 77.7137 77.5601L77.0579 67.0869C83.3787 63.6876 90.1926 61.5442 97.3332 60.7132ZM43.0997 85.3323C41.6748 85.2659 41.1343 84.1655 41.003 83.8294C40.8712 83.4937 40.5193 82.3193 41.5198 81.3023L47.2153 75.5135C47.6322 75.09 47.8639 74.518 47.859 73.9237C47.854 73.3293 47.6133 72.761 47.1898 72.3446L22.9145 48.4602C22.3453 47.9004 22.3381 46.982 22.8979 46.4132L32.6364 36.5155C32.9076 36.2399 33.2698 36.0861 33.6561 36.0834C34.0501 36.0969 34.4078 36.2278 34.6835 36.4989L58.9587 60.3829C59.8413 61.2511 61.2603 61.2394 62.1281 60.3573L67.8237 54.569C68.8236 53.552 70.0043 53.8846 70.3418 54.0105C70.6797 54.1369 71.7891 54.6591 71.8783 56.0827L73.634 84.1162C73.6765 84.7975 73.4367 85.4403 72.958 85.9266C72.4798 86.4129 71.8415 86.6621 71.1589 86.6317L43.0997 85.3323ZM73.4672 150.61L71.9392 178.657C71.8617 180.081 70.7568 180.613 70.4198 180.741C70.0831 180.87 68.9057 181.212 67.8972 180.204L62.155 174.462C61.7346 174.041 61.1649 173.805 60.5701 173.805C59.9753 173.805 59.4056 174.042 58.9852 174.462L34.9049 198.542C34.3406 199.107 33.4217 199.107 32.8574 198.542L23.0391 188.725C22.4748 188.16 22.4748 187.241 23.0391 186.677L47.1198 162.597C47.5403 162.176 47.776 161.607 47.776 161.012C47.776 160.417 47.5398 159.847 47.1198 159.427L41.3781 153.685C40.3696 152.676 40.7116 151.499 40.8402 151.162C40.9689 150.826 41.5005 149.72 42.9249 149.643L70.972 148.115C71.0168 148.112 71.0616 148.111 71.1064 148.111C71.7375 148.111 72.326 148.355 72.777 148.805C73.2592 149.288 73.5044 149.929 73.4672 150.61ZM110.647 174.202C109.517 174.333 108.666 175.29 108.666 176.428V190.242C108.666 192.819 106.568 194.917 103.991 194.917C101.413 194.917 99.3157 192.819 99.3157 190.242V176.428C99.3157 175.29 98.4637 174.333 97.3341 174.202C90.1715 173.367 83.3456 171.218 77.0203 167.81L77.5944 157.273C85.4222 162.498 94.4687 165.24 103.991 165.24C113.432 165.24 122.705 162.397 130.524 157.171L131.099 167.732C124.728 171.186 117.855 173.361 110.647 174.202ZM132.168 145.502C130.793 146.877 130.066 148.779 130.171 150.72L130.234 151.863C122.722 157.602 113.452 160.758 103.99 160.758C94.4575 160.758 85.4554 157.716 77.8827 151.965L77.9432 150.854C78.0489 148.913 77.3215 147.011 75.9463 145.636C74.5716 144.261 72.6685 143.534 70.7281 143.639L53.7195 144.565C50.265 138.19 48.0844 131.315 47.2435 124.115C47.1118 122.986 46.1548 122.134 45.0177 122.134H31.2035C28.6258 122.134 26.5285 120.037 26.5285 117.459C26.5285 114.881 28.6258 112.784 31.2035 112.784H45.0177C46.1553 112.784 47.1122 111.932 47.2435 110.802C48.0849 103.577 50.2668 96.6902 53.732 90.3116L64.3544 90.8037C59.0771 98.6427 56.2053 107.957 56.2053 117.459C56.2053 123.974 57.5033 130.3 60.0622 136.259C60.4266 137.108 61.2536 137.616 62.1227 137.616C62.4176 137.616 62.718 137.557 63.0062 137.434C64.1433 136.945 64.6695 135.627 64.181 134.49C61.8628 129.093 60.6875 123.363 60.6875 117.459C60.6875 107.916 63.8878 98.5866 69.7066 91.0516L70.9505 91.1094C71.0562 91.1143 71.1616 91.1166 71.2669 91.1166C73.097 91.1166 74.8625 90.3806 76.1521 89.0704C77.5156 87.6845 78.2278 85.7769 78.1063 83.8366L78.0427 82.8227C85.5737 77.154 94.5166 74.1567 103.99 74.1567C113.532 74.1567 122.861 77.3566 130.395 83.175L130.338 84.4183C130.248 86.3605 130.991 88.2565 132.377 89.62C133.661 90.883 135.393 91.5877 137.184 91.5877C137.326 91.5877 137.468 91.5832 137.611 91.5742L138.625 91.5106C144.294 99.042 147.292 107.986 147.292 117.459C147.292 126.999 144.251 135.997 138.502 143.566L137.385 143.505C135.445 143.398 133.543 144.127 132.168 145.502ZM185.074 188.59L175.256 198.408C174.692 198.973 173.773 198.973 173.209 198.408L149.128 174.328C148.691 173.891 148.117 173.672 147.544 173.672C146.97 173.672 146.397 173.891 145.959 174.328L140.216 180.07C139.208 181.079 138.031 180.737 137.694 180.608C137.357 180.479 136.252 179.948 136.174 178.523L134.646 150.476C134.609 149.795 134.854 149.154 135.337 148.672C135.82 148.189 136.459 147.944 137.142 147.981L165.189 149.509C166.614 149.587 167.145 150.692 167.273 151.029C167.402 151.366 167.744 152.543 166.736 153.551L160.994 159.293C160.118 160.169 160.118 161.588 160.994 162.463L185.074 186.543C185.348 186.817 185.498 187.18 185.498 187.567C185.498 187.954 185.348 188.317 185.074 188.59Z" fill="#1F4FDE"/>
<path d="M142.746 40.2861C142.283 40.2861 141.821 40.1436 141.428 39.8581L139.699 38.6013L137.969 39.8581C137.183 40.4282 136.12 40.4287 135.334 39.8581C134.549 39.2875 134.22 38.2759 134.52 37.3525L135.181 35.319L133.451 34.0621C132.666 33.4916 132.337 32.4799 132.637 31.5566C132.938 30.6332 133.798 30.008 134.769 30.008H136.907L137.568 27.9744C137.868 27.0511 138.728 26.4258 139.699 26.4258C140.67 26.4258 141.53 27.0511 141.83 27.9744L142.491 30.008H144.629C145.6 30.008 146.461 30.6332 146.761 31.5566C147.061 32.4799 146.732 33.4916 145.947 34.0621L144.217 35.319L144.878 37.3525C145.178 38.2759 144.849 39.2875 144.064 39.8581C143.67 40.1436 143.208 40.2861 142.746 40.2861Z" fill="#9BACF2"/>
<path d="M62.8862 209.499C62.4241 209.499 61.962 209.357 61.5689 209.071L59.8392 207.815L58.1095 209.071C57.3242 209.642 56.2606 209.642 55.4749 209.071C54.6896 208.501 54.3606 207.489 54.6609 206.566L55.3216 204.532L53.5919 203.275C52.8066 202.704 52.4776 201.693 52.7779 200.769C53.0782 199.846 53.9384 199.221 54.9092 199.221H57.0477L57.7084 197.187C58.0082 196.264 58.8688 195.639 59.8397 195.639C60.8105 195.639 61.6711 196.264 61.971 197.187L62.6316 199.221H64.7701C65.741 199.221 66.6015 199.846 66.9014 200.769C67.2013 201.693 66.8727 202.704 66.0874 203.275L64.3577 204.532L65.0184 206.566C65.3183 207.489 64.9897 208.501 64.2045 209.071C63.8109 209.357 63.3488 209.499 62.8862 209.499Z" fill="#9BACF2"/>
<path d="M187.739 158.816C184.032 158.816 181.016 155.8 181.016 152.092C181.016 148.385 184.032 145.369 187.739 145.369C191.446 145.369 194.462 148.385 194.462 152.092C194.462 155.8 191.446 158.816 187.739 158.816ZM187.739 149.851C186.503 149.851 185.498 150.857 185.498 152.092C185.498 153.328 186.503 154.334 187.739 154.334C188.975 154.334 189.98 153.328 189.98 152.092C189.98 150.857 188.975 149.851 187.739 149.851Z" fill="#9BACF2"/>
<path d="M20.239 163.296C16.5317 163.296 13.5156 160.28 13.5156 156.573C13.5156 152.866 16.5317 149.85 20.239 149.85C23.9462 149.85 26.9623 152.866 26.9623 156.573C26.9623 160.28 23.9462 163.296 20.239 163.296ZM20.239 154.332C19.0032 154.332 17.9978 155.337 17.9978 156.573C17.9978 157.809 19.0032 158.814 20.239 158.814C21.4747 158.814 22.4801 157.809 22.4801 156.573C22.4801 155.337 21.4747 154.332 20.239 154.332Z" fill="#9BACF2"/>
<path d="M114.794 28.7279C111.086 28.7279 108.07 25.7118 108.07 22.0046C108.07 18.2973 111.086 15.2812 114.794 15.2812C118.501 15.2812 121.517 18.2973 121.517 22.0046C121.517 25.7118 118.501 28.7279 114.794 28.7279ZM114.794 19.7635C113.558 19.7635 112.553 20.7688 112.553 22.0046C112.553 23.2403 113.558 24.2457 114.794 24.2457C116.029 24.2457 117.035 23.2403 117.035 22.0046C117.035 20.7688 116.029 19.7635 114.794 19.7635Z" fill="#9BACF2"/>
</g>
<defs>
<linearGradient id="paint0_linear_1260_5875" x1="40.1126" y1="188.791" x2="198.762" y2="30.1418" gradientUnits="userSpaceOnUse">
<stop stop-color="#D0DCFF" stop-opacity="0"/>
<stop offset="1" stop-color="#B5C3FF"/>
</linearGradient>
<clipPath id="clip0_1260_5875">
<rect width="207.975" height="229.49" fill="white"/>
</clipPath>
</defs>
</svg>
