<svg width="272" height="230" viewBox="0 0 272 230" fill="none" xmlns="http://www.w3.org/2000/svg">
<g clip-path="url(#clip0_1260_6080)">
<path d="M216.862 59.3761C204.274 54.4697 193.639 45.5169 187.134 33.6748C176.196 13.7607 155.032 0.261719 130.707 0.261719C105.458 0.261719 83.6157 14.8051 73.0809 35.9703C66.6286 48.9327 55.6492 59.1105 42.2219 64.5295C22.3811 72.5373 5.72506 90.838 0.439348 119.449C-0.140752 122.588 -0.149251 125.816 0.430848 128.956C8.63724 173.351 44.2034 192.934 76.5737 187.741C94.7024 184.833 113.054 190.88 126.492 203.392C153.815 228.834 197.614 236.81 240.133 209.539C245.114 206.344 251.797 199.64 254.989 194.656C291.626 137.46 264.487 77.9382 216.862 59.3761Z" fill="url(#paint0_linear_1260_6080)"/>
<path opacity="0.1" d="M210.503 8.25423V207.436C210.503 211.839 206.924 215.418 202.52 215.418H69.4671C65.0638 215.418 61.4844 211.839 61.4844 207.436V8.25423C61.4844 3.85089 65.0638 0.271484 69.4671 0.271484H202.521C206.924 0.271484 210.503 3.85036 210.503 8.25423Z" fill="#1F4FDE"/>
<path d="M210.504 19.4121V218.59C210.504 222.994 206.924 226.575 202.52 226.575H69.4687C65.0648 226.575 61.4844 222.994 61.4844 218.59V19.4121C61.4844 15.0082 65.0648 11.4277 69.4687 11.4277H202.52C206.924 11.4277 210.504 15.0082 210.504 19.4121Z" fill="white"/>
<path d="M98.8086 37.0645H173.18V162.859H98.8086V37.0645Z" fill="white"/>
<path d="M171.587 173.886H100.402C99.522 173.886 98.8086 173.172 98.8086 172.292V153.43C98.8086 152.549 99.522 151.836 100.402 151.836H171.587C172.467 151.836 173.18 152.549 173.18 153.43V172.292C173.18 173.172 172.467 173.886 171.587 173.886Z" fill="#6583FE"/>
<path d="M98.8086 48.2578H173.18V174.052H98.8086V48.2578Z" stroke="#1F4FDE" stroke-width="10" stroke-miterlimit="10" stroke-linecap="round" stroke-linejoin="round"/>
<path d="M76.3897 74.7835C68.16 74.7835 61.4883 68.1118 61.4883 59.8821V37.0664H91.2917V59.8821C91.2917 68.1118 84.62 74.7835 76.3897 74.7835Z" fill="#6583FE"/>
<path d="M135.995 74.7835C127.765 74.7835 121.094 68.1118 121.094 59.8821V37.0664H150.897V59.8821C150.897 68.1118 144.225 74.7835 135.995 74.7835Z" fill="#6583FE"/>
<path d="M195.601 74.7835C187.371 74.7835 180.699 68.1118 180.699 59.8821V37.0664H210.503V59.8821C210.502 68.1118 203.83 74.7835 195.601 74.7835Z" fill="#6583FE"/>
<path d="M106.191 74.7835C97.9607 74.7835 91.2891 68.1118 91.2891 59.8821V37.0664H121.092V59.8821C121.092 68.1118 114.421 74.7835 106.191 74.7835Z" fill="white"/>
<path d="M106.191 74.7835C97.9607 74.7835 91.2891 68.1118 91.2891 59.8821V37.0664H121.092V59.8821C121.092 68.1118 114.421 74.7835 106.191 74.7835V74.7835Z" stroke="#1F4FDE" stroke-width="10" stroke-miterlimit="10" stroke-linecap="round" stroke-linejoin="round"/>
<path d="M165.8 74.7835C157.57 74.7835 150.898 68.1118 150.898 59.8821V37.0664H180.702V59.8821C180.701 68.1118 174.03 74.7835 165.8 74.7835Z" fill="white"/>
<path d="M165.8 74.7835C157.57 74.7835 150.898 68.1118 150.898 59.8821V37.0664H180.702V59.8821C180.701 68.1118 174.03 74.7835 165.8 74.7835Z" stroke="#1F4FDE" stroke-width="10" stroke-miterlimit="10" stroke-linecap="round" stroke-linejoin="round"/>
<path d="M210.501 37.0647V19.411C210.501 15.0024 206.927 11.4277 202.518 11.4277H69.4677C65.059 11.4277 61.4844 15.0018 61.4844 19.411V37.0647H210.501Z" fill="white"/>
<path d="M79.0977 24.2089V24.2864C79.0977 25.7537 80.2865 26.9426 81.7538 26.9426C83.221 26.9426 84.4099 25.7537 84.4099 24.2864V24.2089C84.4099 22.7416 83.221 21.5527 81.7538 21.5527C80.2865 21.5527 79.0977 22.7422 79.0977 24.2089Z" fill="#1F4FDE"/>
<path d="M89.3828 24.2089V24.2864C89.3828 25.7537 90.5717 26.9426 92.0389 26.9426C93.5062 26.9426 94.6951 25.7537 94.6951 24.2864V24.2089C94.6951 22.7416 93.5062 21.5527 92.0389 21.5527C90.5717 21.5527 89.3828 22.7422 89.3828 24.2089Z" fill="#1F4FDE"/>
<path d="M99.668 24.2089V24.2864C99.668 25.7537 100.857 26.9426 102.324 26.9426C103.791 26.9426 104.98 25.7537 104.98 24.2864V24.2089C104.98 22.7416 103.791 21.5527 102.324 21.5527C100.857 21.5527 99.668 22.7422 99.668 24.2089Z" fill="#1F4FDE"/>
<path d="M202.521 8.77344H69.4709C63.6046 8.77344 58.832 13.546 58.832 19.4123V37.0661C58.832 38.5333 60.0209 39.7222 61.4882 39.7222C61.5811 39.7222 61.6688 39.7041 61.7591 39.6946C61.8494 39.7041 61.9371 39.7222 62.03 39.7222H195.966C197.433 39.7222 198.622 38.5333 198.622 37.0661C198.622 35.5988 197.433 34.4099 195.966 34.4099H64.1438V19.4123C64.1438 16.4752 66.5332 14.0857 69.4704 14.0857H202.521C205.458 14.0857 207.848 16.4752 207.848 19.4123V218.589C207.848 221.526 205.458 223.916 202.521 223.916H69.4709C66.5338 223.916 64.1443 221.526 64.1443 218.589V51.696C64.1443 50.2288 62.9554 49.0399 61.4882 49.0399C60.0209 49.0399 58.832 50.2288 58.832 51.696V218.589C58.832 224.455 63.6046 229.228 69.4709 229.228H202.521C208.388 229.228 213.16 224.455 213.16 218.589V19.4123C213.16 13.546 208.387 8.77344 202.521 8.77344Z" fill="#1F4FDE"/>
<path d="M159.519 99.5618C159.015 98.9589 158.269 98.6109 157.483 98.6109H126.36L124.648 93.3157C124.294 92.2198 123.273 91.4766 122.12 91.4766H114.512C113.044 91.4766 111.855 92.6654 111.855 94.1327C111.855 95.5999 113.044 96.7888 114.512 96.7888H120.188L126.637 116.739H126.18C124.713 116.739 123.524 117.927 123.524 119.395C123.524 120.862 124.713 122.051 126.18 122.051H154.247C155.534 122.051 156.635 121.129 156.862 119.862L160.098 101.734C160.236 100.96 160.024 100.165 159.519 99.5618ZM152.023 116.739H132.22L128.077 103.923H154.311L152.023 116.739Z" fill="#1F4FDE"/>
<path d="M131.865 138.362C128.054 138.362 124.953 135.261 124.953 131.449C124.953 127.638 128.054 124.537 131.865 124.537C135.677 124.537 138.778 127.638 138.778 131.449C138.778 135.261 135.676 138.362 131.865 138.362ZM131.865 129.85C130.983 129.85 130.265 130.568 130.265 131.451C130.265 132.333 130.983 133.051 131.865 133.051C132.748 133.051 133.466 132.333 133.466 131.451C133.466 130.568 132.748 129.85 131.865 129.85Z" fill="#1F4FDE"/>
<path d="M151.701 138.362C147.89 138.362 144.789 135.261 144.789 131.449C144.789 127.638 147.89 124.537 151.701 124.537C155.513 124.537 158.614 127.638 158.614 131.449C158.614 135.261 155.513 138.362 151.701 138.362ZM151.701 129.85C150.819 129.85 150.101 130.568 150.101 131.451C150.101 132.333 150.819 133.051 151.701 133.051C152.584 133.051 153.301 132.333 153.301 131.451C153.301 130.568 152.584 129.85 151.701 129.85Z" fill="#1F4FDE"/>
<path d="M125.334 194.693H173.191C174.696 194.693 175.915 193.474 175.915 191.969C175.915 190.464 174.696 189.244 173.191 189.244H125.334C123.829 189.244 122.609 190.464 122.609 191.969C122.609 193.474 123.829 194.693 125.334 194.693Z" fill="#1F4FDE"/>
<path d="M98.8028 194.693H111.874C113.379 194.693 114.599 193.474 114.599 191.969C114.599 190.464 113.379 189.244 111.874 189.244H98.8028C97.2978 189.244 96.0781 190.464 96.0781 191.969C96.0781 193.474 97.2984 194.693 98.8028 194.693Z" fill="#1F4FDE"/>
<path d="M98.8028 205.5H173.191C174.696 205.5 175.916 204.28 175.916 202.775C175.916 201.27 174.696 200.051 173.191 200.051H98.8028C97.2978 200.051 96.0781 201.27 96.0781 202.775C96.0781 204.28 97.2984 205.5 98.8028 205.5Z" fill="#1F4FDE"/>
<path d="M43.2854 55.0064C42.6059 55.0064 41.9254 54.7472 41.4075 54.2282L35.5672 48.3879C34.5297 47.3509 34.5297 45.669 35.5672 44.6321L41.4075 38.7918C42.4439 37.7543 44.1268 37.7543 45.1633 38.7918L51.0036 44.6321C52.0411 45.669 52.0411 47.3509 51.0036 48.3879L45.1638 54.2282C44.6453 54.7472 43.9653 55.0064 43.2854 55.0064ZM41.2019 46.51L43.2859 48.594L45.3699 46.51L43.2859 44.426L41.2019 46.51Z" fill="#6583FE"/>
<path d="M227.621 131.18C226.942 131.18 226.261 130.921 225.743 130.402L219.903 124.562C218.866 123.525 218.866 121.843 219.903 120.806L225.743 114.966C226.78 113.928 228.463 113.928 229.499 114.966L235.34 120.806C236.377 121.843 236.377 123.525 235.34 124.562L229.499 130.402C228.981 130.921 228.301 131.18 227.621 131.18ZM225.538 122.684L227.622 124.768L229.706 122.684L227.622 120.6L225.538 122.684Z" fill="#6583FE"/>
<path d="M238.797 163.333C238.118 163.333 237.437 163.073 236.919 162.554L231.079 156.714C230.041 155.677 230.041 153.995 231.079 152.958L236.919 147.118C237.956 146.08 239.639 146.08 240.675 147.118L246.515 152.958C247.553 153.995 247.553 155.677 246.515 156.714L240.675 162.554C240.157 163.073 239.477 163.333 238.797 163.333ZM236.714 154.836L238.798 156.92L240.882 154.836L238.798 152.752L236.714 154.836Z" fill="#6583FE"/>
<path d="M33.1923 145.123C31.725 145.123 30.5362 143.934 30.5362 142.467C30.5362 140.71 29.1077 139.282 27.3514 139.282C25.8842 139.282 24.6953 138.093 24.6953 136.626C24.6953 135.159 25.8842 133.97 27.3514 133.97C29.1077 133.97 30.5362 132.541 30.5362 130.785C30.5362 129.318 31.725 128.129 33.1923 128.129C34.6595 128.129 35.8484 129.318 35.8484 130.785C35.8484 132.541 37.2769 133.97 39.0331 133.97C40.5004 133.97 41.6893 135.159 41.6893 136.626C41.6893 138.093 40.5004 139.282 39.0331 139.282C37.2769 139.282 35.8484 140.71 35.8484 142.467C35.8484 143.933 34.6595 145.123 33.1923 145.123Z" fill="#6583FE"/>
</g>
<defs>
<linearGradient id="paint0_linear_1260_6080" x1="17.453" y1="50.936" x2="276.323" y2="189.772" gradientUnits="userSpaceOnUse">
<stop stop-color="#D2DEFF" stop-opacity="0"/>
<stop offset="1" stop-color="#B7C5FF"/>
</linearGradient>
<clipPath id="clip0_1260_6080">
<rect width="271.988" height="229.49" fill="white"/>
</clipPath>
</defs>
</svg>
