<svg width="285" height="230" viewBox="0 0 285 230" fill="none" xmlns="http://www.w3.org/2000/svg">
<path d="M282.107 159.225C271.523 111.607 258.197 85.2398 281.51 34.9975C293.131 9.95109 269.483 -7.57623 247.778 3.27632C234.425 9.95293 233.211 26.3231 231.006 37.4043C229.051 47.2327 216.048 48.3677 206.716 44.7159C154.444 24.2581 174.865 88.1495 132.634 109.938C103.429 125.006 71.3538 141.244 54.6804 171.501C44.6515 189.701 46.1887 235.851 73.3208 228.408C112.617 217.629 146.966 170.424 191.845 186.974C213.039 194.789 221.738 225.261 245.503 227.703C280.271 231.276 288.239 186.813 282.107 159.225V159.225Z" fill="url(#paint0_linear_405_11061)"/>
<g clip-path="url(#clip0_405_11061)">
<path d="M121.577 114.332C118.161 117.989 113.503 121.08 107.878 123.331C102.479 125.488 96.7077 126.701 90.3086 127.017V137.281C95.0654 136.762 106.873 133.567 114.73 125.832C118.156 122.458 120.44 118.612 121.577 114.337V114.332Z" fill="#9BACF2"/>
<path d="M122.002 102.259C122.026 102.15 122.049 102.037 122.073 101.924H90.3086V121.343C95.9621 121.036 101.049 119.96 105.773 118.073C114.612 114.538 120.525 108.776 122.002 102.259Z" fill="#9BACF2"/>
<path d="M219.763 12.6719H12.8874C9.03664 12.6719 5.89844 15.8054 5.89844 19.6609C5.89844 23.5164 9.03192 26.6499 12.8874 26.6499H219.763C223.614 26.6499 226.752 23.5164 226.752 19.6609C226.752 15.8054 223.619 12.6719 219.763 12.6719Z" fill="#9BACF2"/>
<path d="M75.3545 89.8023C75.3545 88.2403 76.6239 86.9708 78.1859 86.9708H112.782C111.833 82.2706 108.544 77.8724 103.277 74.3614C96.614 69.916 87.7044 67.4668 78.1812 67.4668C75.01 67.4668 71.8906 67.7452 68.8657 68.2879V85.2672C68.8657 86.8293 67.5963 88.0987 66.0342 88.0987H43.3967C43.208 89.5899 43.2551 91.0104 43.5053 92.3695C43.5572 92.5394 43.5949 92.714 43.6185 92.8933C45.4306 101.02 54.3026 106.635 60.3808 108.981C64.9441 110.736 70.0738 111.793 75.3545 112.072V89.807V89.8023Z" fill="#9BACF2"/>
<path d="M44.3133 105.189C45.578 109.489 47.8054 112.882 49.9054 115.331C55.9317 122.348 65.4879 126.945 75.3508 127.69V117.733C69.3717 117.445 63.5437 116.26 58.3432 114.26C53.072 112.23 48.0792 109.12 44.3086 105.189H44.3133Z" fill="#9BACF2"/>
<path d="M23.2294 67.0977H14.0932C12.5312 67.0977 11.2617 68.3671 11.2617 69.9291C11.2617 71.4911 12.5312 72.7606 14.0932 72.7606H23.2294C24.7914 72.7606 26.0608 71.4911 26.0608 69.9291C26.0608 68.3671 24.7914 67.0977 23.2294 67.0977Z" fill="#1F4FDE"/>
<path d="M55.8541 67.0977H34.269C32.7069 67.0977 31.4375 68.3671 31.4375 69.9291C31.4375 71.4911 32.7069 72.7606 34.269 72.7606H55.8541C57.4162 72.7606 58.6856 71.4911 58.6856 69.9291C58.6856 68.3671 57.4162 67.0977 55.8541 67.0977Z" fill="#1F4FDE"/>
<path d="M84.6453 99.0932V139.767C84.6453 140.914 85.306 141.966 86.3631 142.509C86.9671 142.816 87.9015 142.967 89.0955 142.967C94.7017 142.967 105.919 139.635 114.093 133.736C124.805 126.001 129.505 115.223 127.712 102.538C127.91 101.396 128.014 100.24 128.014 99.0932C128.014 97.5312 126.744 96.2617 125.182 96.2617H87.4721C85.9101 96.2617 84.6406 97.5312 84.6406 99.0932H84.6453ZM90.3083 101.925H122.073C122.049 102.038 122.025 102.146 122.002 102.26C120.529 108.777 114.612 114.539 105.773 118.073C101.044 119.966 95.9617 121.042 90.3083 121.344V101.925ZM90.3083 127.016C96.7074 126.7 102.479 125.492 107.877 123.33C113.503 121.079 118.16 117.988 121.577 114.331C120.44 118.607 118.156 122.453 114.73 125.827C106.872 133.561 95.0698 136.756 90.3083 137.275V127.011V127.016Z" fill="#1F4FDE"/>
<path d="M219.762 7.00863H12.8863C5.91145 7.00863 0.234375 12.6857 0.234375 19.6605C0.234375 26.6354 5.91145 32.3124 12.8863 32.3124H16.0858V51.7599H3.91056C2.34853 51.7599 1.07909 53.0293 1.07909 54.5913V85.2702C1.07909 86.8322 2.34853 88.1017 3.91056 88.1017H16.0811V207.821C16.0811 212.879 20.1962 216.994 25.255 216.994H207.393C212.452 216.994 216.567 212.879 216.567 207.821V32.3077H219.767C226.742 32.3077 232.419 26.6306 232.419 19.6558C232.419 12.681 226.742 7.00391 219.767 7.00391L219.762 7.00863ZM6.74202 82.434V57.4181H63.2061V82.434H6.74202ZM60.3793 108.974C54.2964 106.634 45.4292 101.018 43.6171 92.8868C43.5982 92.7075 43.5604 92.5329 43.5038 92.363C43.2537 91.0039 43.2065 89.5835 43.3953 88.0922H66.0328C67.5948 88.0922 68.8643 86.8228 68.8643 85.2608V68.2814C71.8845 67.7387 75.0085 67.4603 78.1798 67.4603C87.6982 67.4603 96.6126 69.9095 103.276 74.3549C108.542 77.8706 111.832 82.2689 112.78 86.9644H78.1845C76.6225 86.9644 75.353 88.2338 75.353 89.7958V112.061C70.0723 111.782 64.9427 110.73 60.3793 108.97V108.974ZM75.353 117.733V127.69C65.4901 126.945 55.9339 122.353 49.9076 115.331C47.8029 112.882 45.5755 109.493 44.3155 105.19C48.0861 109.121 53.0789 112.23 58.3501 114.26C63.5505 116.261 69.3786 117.445 75.3577 117.733H75.353ZM210.904 207.816C210.904 209.751 209.328 211.327 207.393 211.327H25.255C23.3202 211.327 21.744 209.751 21.744 207.816V88.0969H37.6993C37.5294 89.9232 37.6144 91.6929 37.9306 93.3965C36.6564 102.821 39.2991 111.669 45.6085 119.016C53.2582 127.921 65.7402 133.457 78.1845 133.457C79.7465 133.457 81.0159 132.187 81.0159 130.625V115.699C81.0159 115.576 81.0065 115.454 80.9876 115.336C81.0018 115.218 81.0159 115.095 81.0159 114.972V92.632H115.895C117.457 92.632 118.726 91.3626 118.726 89.8005C118.726 82.099 114.356 74.9448 106.419 69.65C98.8353 64.5911 88.8072 61.8021 78.1798 61.8021C75.0227 61.8021 71.9034 62.0522 68.8643 62.543V54.5913C68.8643 53.0293 67.5948 51.7599 66.0328 51.7599H21.744V32.3124H210.904V207.816ZM219.767 26.6448H12.8863C9.0355 26.6448 5.8973 23.5113 5.8973 19.6558C5.8973 15.8003 9.03078 12.6668 12.8863 12.6668H219.762C223.613 12.6668 226.751 15.8003 226.751 19.6558C226.751 23.5113 223.618 26.6448 219.762 26.6448H219.767Z" fill="#1F4FDE"/>
<path d="M144.859 86.284H192.177C193.739 86.284 195.009 85.0146 195.009 83.4526C195.009 81.8905 193.739 80.6211 192.177 80.6211H144.859C143.297 80.6211 142.027 81.8905 142.027 83.4526C142.027 85.0146 143.297 86.284 144.859 86.284Z" fill="#1F4FDE"/>
<path d="M127.875 160.115H122.212V187.958H119.154V168.652H113.492V187.958H110.434V175.452H104.771V187.958H101.713V160.115H96.0497V187.958H92.9918V167.704H87.3289V187.958H84.2709V176.467H78.608V187.958H75.55V160.115H69.8871V187.958H66.8291V164.476H61.1662V187.958H58.1082V169.601H52.4453V187.958H49.3873V173.112H43.7244V187.958H40.4682C38.9062 187.958 37.6367 189.227 37.6367 190.789C37.6367 192.351 38.9062 193.621 40.4682 193.621H192.178C193.74 193.621 195.009 192.351 195.009 190.789C195.009 189.227 193.74 187.958 192.178 187.958H188.922V160.115H183.259V187.958H180.201V165.618H174.538V187.958H171.48V168.841H165.817V187.958H162.759V175.452H157.096V187.958H154.038V179.846H148.375V187.958H145.317V173.017H139.654V187.958H136.596V164.669H130.933V187.958H127.875V160.115Z" fill="#1F4FDE"/>
<path d="M144.859 105.104H192.177C193.739 105.104 195.009 103.835 195.009 102.273C195.009 100.711 193.739 99.4414 192.177 99.4414H144.859C143.297 99.4414 142.027 100.711 142.027 102.273C142.027 103.835 143.297 105.104 144.859 105.104Z" fill="#1F4FDE"/>
<path d="M144.859 142.745H192.177C193.739 142.745 195.009 141.476 195.009 139.913C195.009 138.351 193.739 137.082 192.177 137.082H144.859C143.297 137.082 142.027 138.351 142.027 139.913C142.027 141.476 143.297 142.745 144.859 142.745Z" fill="#1F4FDE"/>
<path d="M144.859 67.4657H192.177C193.739 67.4657 195.009 66.1962 195.009 64.6342C195.009 63.0722 193.739 61.8027 192.177 61.8027H144.859C143.297 61.8027 142.027 63.0722 142.027 64.6342C142.027 66.1962 143.297 67.4657 144.859 67.4657Z" fill="#1F4FDE"/>
<path d="M144.859 123.925H192.177C193.739 123.925 195.009 122.655 195.009 121.093C195.009 119.531 193.739 118.262 192.177 118.262H144.859C143.297 118.262 142.027 119.531 142.027 121.093C142.027 122.655 143.297 123.925 144.859 123.925Z" fill="#1F4FDE"/>
</g>
<defs>
<linearGradient id="paint0_linear_405_11061" x1="93.813" y1="261.49" x2="313.43" y2="41.8738" gradientUnits="userSpaceOnUse">
<stop stop-color="#D1DDFF" stop-opacity="0"/>
<stop offset="1" stop-color="#B6C4FF"/>
</linearGradient>
<clipPath id="clip0_405_11061">
<rect width="232.652" height="210" fill="white" transform="translate(0 7)"/>
</clipPath>
</defs>
</svg>
