<svg width="36" height="36" viewBox="0 0 36 36" fill="none" xmlns="http://www.w3.org/2000/svg">
<path d="M5.1423 8.99944C7.27254 8.99944 8.99944 7.27254 8.99944 5.1423C8.99944 3.01206 7.27254 1.28516 5.1423 1.28516C3.01206 1.28516 1.28516 3.01206 1.28516 5.1423C1.28516 7.27254 3.01206 8.99944 5.1423 8.99944Z" stroke="#CFE7FE" stroke-width="1.71429" stroke-linecap="round" stroke-linejoin="round"/>
<path d="M9 5.14258H34.7143" stroke="#CFE7FE" stroke-width="1.71429" stroke-linecap="round" stroke-linejoin="round"/>
<path d="M17.9978 21.8569C20.128 21.8569 21.8549 20.13 21.8549 17.9997C21.8549 15.8695 20.128 14.1426 17.9978 14.1426C15.8675 14.1426 14.1406 15.8695 14.1406 17.9997C14.1406 20.13 15.8675 21.8569 17.9978 21.8569Z" stroke="#CFE7FE" stroke-width="1.71429" stroke-linecap="round" stroke-linejoin="round"/>
<path d="M1.28516 18H14.1423M21.8566 18H34.7137" stroke="#CFE7FE" stroke-width="1.71429" stroke-linecap="round" stroke-linejoin="round"/>
<path d="M30.8571 34.7143C32.9874 34.7143 34.7143 32.9874 34.7143 30.8571C34.7143 28.7269 32.9874 27 30.8571 27C28.7269 27 27 28.7269 27 30.8571C27 32.9874 28.7269 34.7143 30.8571 34.7143Z" stroke="#CFE7FE" stroke-width="1.71429" stroke-linecap="round" stroke-linejoin="round"/>
<path d="M26.9994 30.8574H1.28516" stroke="#CFE7FE" stroke-width="1.71429" stroke-linecap="round" stroke-linejoin="round"/>
</svg>
