<svg width="255" height="243" viewBox="0 0 255 243" fill="none" xmlns="http://www.w3.org/2000/svg">
<path d="M252.94 100.484C247.408 77.3862 216.577 69.2487 198.048 70.2106C173.322 71.4942 162.12 63.6801 167.538 38.4176C170.634 23.9823 173.751 14.1615 151.439 6.54789C132.17 -0.0265828 70.016 -7.16291 57.0722 15.0711C50.7556 25.9217 74.0055 35.8187 63.0333 50.4793C55.2932 60.8217 32.3563 53.1745 19.962 69.1379C11.1663 80.4662 16.7085 99.0257 39.6729 108.872C59.2388 117.26 88.0207 122.097 93.291 146.284C95.933 158.407 82.4504 175.395 89.2124 193.239C94.438 207.03 110.174 213.116 130.954 192.864C171.955 152.902 163.284 209.959 169.505 221.636C176.632 235.015 201.292 229.54 212.374 218.346C242.675 187.74 260.932 133.851 252.94 100.484V100.484Z" fill="url(#paint0_linear_411_8371)"/>
<g clip-path="url(#clip0_411_8371)">
<path d="M177.666 239.922H136.865C130.416 239.922 125.188 234.693 125.188 228.244V191.467C125.188 185.017 130.416 179.789 136.865 179.789H177.666C184.115 179.789 189.344 185.017 189.344 191.467V228.244C189.344 234.694 184.115 239.922 177.666 239.922Z" fill="#E4EAFF"/>
<path d="M178.174 179.803C178.182 179.974 178.187 180.146 178.187 180.319V217.083C178.187 223.536 172.956 228.767 166.503 228.767H125.715C125.542 228.767 125.371 228.761 125.199 228.754C125.47 234.967 130.59 239.922 136.87 239.922H177.658C184.111 239.922 189.342 234.691 189.342 228.238V191.474C189.342 185.194 184.388 180.073 178.174 179.803Z" fill="#B7B6F6"/>
<path d="M152.975 187.513H19.8398C10.7791 187.513 3.43359 180.167 3.43359 171.106V52.4844C3.43359 43.4236 10.7791 36.0781 19.8398 36.0781H152.975C162.036 36.0781 169.381 43.4236 169.381 52.4844V171.106C169.381 180.168 162.036 187.513 152.975 187.513Z" fill="#E4EAFF"/>
<path d="M154.396 36.1445C154.437 36.6162 154.462 37.0924 154.462 37.5747V156.178C154.462 165.244 147.112 172.594 138.046 172.594H4.93022C4.44787 172.594 3.97168 172.569 3.5 172.528C4.22516 180.924 11.2659 187.513 19.8496 187.513H152.965C162.032 187.513 169.381 180.164 169.381 171.097V52.4942C169.382 43.9104 162.792 36.8697 154.396 36.1445Z" fill="#B7B6F6"/>
<path d="M152.965 36.0781H19.8493C10.7832 36.0781 3.43359 43.4277 3.43359 52.4938V72.3482H169.381V52.4938C169.381 43.4277 162.032 36.0781 152.965 36.0781Z" fill="#FFF4F1"/>
<path d="M154.395 36.1445C154.435 36.6162 154.46 37.0924 154.46 37.5747V72.349H169.38V52.4942C169.38 43.9104 162.79 36.8697 154.395 36.1445Z" fill="#8EA4FD"/>
<path d="M141.848 121.986C150.801 121.986 158.059 114.729 158.059 105.775C158.059 96.8224 150.801 89.5645 141.848 89.5645C132.895 89.5645 125.637 96.8224 125.637 105.775C125.637 114.729 132.895 121.986 141.848 121.986Z" fill="#FFF4F1"/>
<path d="M148.972 91.2109C150.025 93.361 150.619 95.7776 150.619 98.3333C150.619 107.287 143.36 114.545 134.408 114.545C131.852 114.545 129.435 113.951 127.285 112.898C129.922 118.28 135.452 121.987 141.849 121.987C150.803 121.987 158.061 114.729 158.061 105.776C158.06 99.378 154.353 93.8478 148.972 91.2109Z" fill="#8EA4FD"/>
<path d="M27.6295 61.0714C31.2649 61.0714 34.2121 58.1243 34.2121 54.4888C34.2121 50.8534 31.2649 47.9062 27.6295 47.9062C23.994 47.9062 21.0469 50.8534 21.0469 54.4888C21.0469 58.1243 23.994 61.0714 27.6295 61.0714Z" fill="#64A1D9"/>
<path d="M29.944 48.334C30.2155 49.0554 30.3714 49.8335 30.3714 50.6501C30.3714 54.2858 27.4244 57.2327 23.7888 57.2327C22.9726 57.2327 22.1941 57.0773 21.4727 56.8054C22.4107 59.2962 24.8089 61.0718 27.6279 61.0718C31.2631 61.0718 34.2105 58.1248 34.2105 54.4892C34.2105 51.6702 32.4349 49.272 29.944 48.334Z" fill="#4278C3"/>
<path d="M88.7196 153.972C93.1923 153.972 96.8182 150.347 96.8182 145.874C96.8182 141.401 93.1923 137.775 88.7196 137.775C84.2469 137.775 80.6211 141.401 80.6211 145.874C80.6211 150.347 84.2469 153.972 88.7196 153.972Z" fill="#B7C5FF"/>
<path d="M91.4583 138.26C91.6318 138.919 91.7335 139.608 91.7335 140.322C91.7335 144.795 88.1078 148.421 83.635 148.421C82.6732 148.421 81.7544 148.244 80.8984 147.936C81.8119 151.408 84.9631 153.972 88.7218 153.972C93.1945 153.972 96.8203 150.347 96.8203 145.874C96.8203 142.363 94.5821 139.383 91.4583 138.26Z" fill="#9BACF2"/>
<path d="M52.6602 122.922L80.8285 176.458C81.8354 178.373 84.1552 179.176 86.131 178.296L98.8819 172.614C101.039 171.652 101.506 168.796 99.7674 167.198L92.682 160.684C87.5251 155.943 84.8763 149.067 85.5194 142.092L87.2872 122.922H52.6602Z" fill="#FFF4F1"/>
<path d="M99.7663 167.198L92.6808 160.684C87.5239 155.943 84.8751 149.067 85.5183 142.092L87.286 122.922H77.5038L75.6503 143.023C74.8706 151.478 78.0817 159.812 84.3325 165.559L92.9208 173.454C93.3617 173.86 93.6787 174.334 93.8916 174.838L98.8812 172.614C101.038 171.652 101.505 168.796 99.7663 167.198Z" fill="#8EA4FD"/>
<path d="M40.3478 113.894H25.704C21.2226 113.894 17.5898 110.261 17.5898 105.78V105.77C17.5898 101.289 21.2226 97.6562 25.704 97.6562H40.3478V113.894Z" fill="#B7C5FF"/>
<path d="M31.1129 97.6562V101.412C31.1129 105.087 28.1339 108.066 24.4589 108.066H17.9219C18.9116 111.434 22.0197 113.894 25.7075 113.894H40.3463V97.6562H31.1129Z" fill="#9BACF2"/>
<path d="M124.356 65.0395C119.545 76.6616 108.206 84.2401 95.6279 84.2401H74.3945V127.313H95.6279C108.206 127.313 119.545 134.892 124.356 146.514C125.272 148.728 127.433 150.172 129.83 150.172H135.983C137.796 150.172 139.266 148.702 139.266 146.889V64.6642C139.266 62.8509 137.796 61.3809 135.983 61.3809H129.83C127.433 61.3809 125.272 62.825 124.356 65.0395Z" fill="#B7C5FF"/>
<path d="M135.984 61.3809H129.83C129.443 61.3809 129.064 61.4223 128.694 61.4945V127.644C128.694 129.457 127.224 130.927 125.411 130.927H119.257C116.86 130.927 114.7 129.483 113.783 127.269C108.973 115.647 97.6336 108.068 85.0553 108.068H74.3945V127.313H95.6279C108.206 127.313 119.545 134.892 124.356 146.514C125.272 148.729 127.433 150.173 129.83 150.173H135.983C137.796 150.173 139.266 148.703 139.266 146.889V64.6642C139.266 62.8509 137.797 61.3809 135.984 61.3809Z" fill="#9BACF2"/>
<path d="M80.6238 127.311H45.7539C41.2233 127.311 37.5508 123.639 37.5508 119.108V92.4414C37.5508 87.9108 41.2233 84.2383 45.7539 84.2383H80.6238V127.311Z" fill="#FFF4F1"/>
<path d="M37.5508 108.066V119.104C37.5508 123.637 41.2254 127.312 45.7588 127.312H80.6237V108.066H37.5508Z" fill="#8EA4FD"/>
<path d="M177.66 179.789H136.872C130.419 179.789 125.188 185.02 125.188 191.473V199.596H189.344V191.473C189.344 185.02 184.113 179.789 177.66 179.789Z" fill="#B7B6F6"/>
<path d="M178.176 179.803C178.183 179.974 178.189 180.146 178.189 180.319V199.597H189.344V191.474C189.344 185.194 184.389 180.073 178.176 179.803Z" fill="#3D72F9"/>
<path d="M143.811 221.806H103.01C96.5603 221.806 91.332 216.578 91.332 210.129V173.351C91.332 166.902 96.5603 161.674 103.01 161.674H143.811C150.26 161.674 155.488 166.902 155.488 173.351V210.129C155.488 216.578 150.26 221.806 143.811 221.806Z" fill="#E4EAFF"/>
<path d="M144.319 161.686C144.326 161.857 144.332 162.028 144.332 162.202V198.965C144.332 205.418 139.101 210.65 132.648 210.65H91.8597C91.6866 210.65 91.5152 210.644 91.3438 210.636C91.614 216.85 96.7349 221.805 103.015 221.805H143.803C150.256 221.805 155.487 216.573 155.487 210.12V173.357C155.487 167.077 150.532 161.956 144.319 161.686Z" fill="#B7B6F6"/>
<path d="M143.804 161.674H103.016C96.5632 161.674 91.332 166.905 91.332 173.358V181.481H155.488V173.358C155.488 166.905 150.257 161.674 143.804 161.674Z" fill="#B7B6F6"/>
<path d="M144.32 161.686C144.328 161.857 144.333 162.028 144.333 162.202V181.48H155.489V173.357C155.489 167.077 150.534 161.956 144.32 161.686Z" fill="#3D72F9"/>
<path d="M177.659 176.712H171.64C172.18 174.911 172.459 173.027 172.459 171.097V52.4935C172.459 41.7449 163.714 33 152.965 33H19.849C9.10041 33 0.355469 41.7449 0.355469 52.4935V89.5646C0.355469 91.2643 1.73359 92.6425 3.43328 92.6425C5.13297 92.6425 6.51109 91.2643 6.51109 89.5646V75.4257H102.881C104.581 75.4257 105.959 74.0476 105.959 72.3479C105.959 70.6482 104.581 69.2701 102.881 69.2701H6.51109V52.4935C6.51109 45.139 12.4945 39.1556 19.849 39.1556H152.965C160.32 39.1556 166.303 45.139 166.303 52.4935V69.2701H142.343V64.6632C142.343 61.1556 139.49 58.3021 135.982 58.3021H129.828C126.173 58.3021 122.908 60.4842 121.51 63.8618C117.16 74.3708 107 81.1618 95.6262 81.1618H45.7573C39.5344 81.1618 34.4714 86.2247 34.4714 92.4476V94.5796H25.7081C19.534 94.5796 14.5112 99.6024 14.5112 105.776C14.5112 111.951 19.534 116.973 25.7081 116.973H34.4719V119.105C34.4719 125.328 39.5348 130.391 45.7577 130.391H53.1114L58.4959 140.625C59.2908 142.144 61.1792 142.7 62.6529 141.916C64.1573 141.124 64.7352 139.263 63.9436 137.759L60.0673 130.391H83.5073L82.4544 141.811C81.7276 149.692 84.7722 157.595 90.5989 162.951L91.6653 163.932C89.5366 166.491 88.254 169.777 88.254 173.358V173.981L84.8776 175.486C84.3854 175.705 83.803 175.504 83.5524 175.026L70.3987 150.027C69.6071 148.523 67.7458 147.945 66.2417 148.736C64.7373 149.528 64.1594 151.389 64.951 152.893L78.1043 177.893C79.3807 180.319 81.8814 181.728 84.4757 181.728C85.4518 181.728 86.4411 181.529 87.3837 181.109L88.254 180.721V184.435H19.849C12.4945 184.435 6.51109 178.452 6.51109 171.098V104.652C6.51109 102.953 5.13297 101.574 3.43328 101.574C1.73359 101.574 0.355469 102.953 0.355469 104.652V171.097C0.355469 181.846 9.10041 190.591 19.849 190.591H88.2536V210.121C88.2536 218.261 94.876 224.883 103.016 224.883H122.109V228.238C122.109 236.378 128.731 243 136.871 243H177.659C185.799 243 192.421 236.378 192.421 228.238V191.474C192.421 183.334 185.799 176.712 177.659 176.712ZM186.265 191.474V196.519H158.566V182.867H177.659C182.405 182.867 186.265 186.728 186.265 191.474ZM94.4096 173.357C94.4096 168.612 98.2704 164.751 103.016 164.751H143.804C148.549 164.751 152.41 168.612 152.41 173.357V178.402H94.41L94.4096 173.357ZM142.343 92.6552C149.356 92.916 154.982 98.7001 154.982 105.776C154.982 112.851 149.356 118.635 142.343 118.896V92.6552ZM127.198 66.2157C127.64 65.148 128.672 64.4582 129.828 64.4582H135.982C136.095 64.4582 136.187 64.55 136.187 64.6632V146.888C136.187 147.002 136.095 147.094 135.982 147.094H129.828C128.672 147.094 127.64 146.404 127.198 145.336C121.893 132.517 109.5 124.234 95.6266 124.234H83.7009V87.317H95.6266C109.5 87.3174 121.893 79.0343 127.198 66.2157ZM25.7081 110.817C22.9284 110.817 20.6672 108.556 20.6672 105.776C20.6672 102.996 22.9284 100.735 25.7081 100.735H34.4719V110.817L25.7081 110.817ZM40.6279 119.105V92.4472C40.6279 89.6184 42.9293 87.3174 45.7577 87.3174H64.5687V124.235H45.7577C42.9289 124.234 40.6279 121.933 40.6279 119.105ZM70.7248 124.234V87.317H77.5448V124.234H70.7248V124.234ZM95.6266 130.39C107.001 130.39 117.161 137.181 121.511 147.69C122.909 151.068 126.173 153.25 129.829 153.25H135.982C139.49 153.25 142.343 150.397 142.343 146.889V125.053C152.751 124.789 161.139 116.247 161.139 105.776C161.139 95.306 152.751 86.7637 142.343 86.5V75.4266H166.303V171.098C166.303 173.07 165.872 174.969 165.06 176.713H158.567V173.358C158.567 165.218 151.944 158.596 143.805 158.596H103.017C100.707 158.596 98.5202 159.13 96.5716 160.08L94.7652 158.42C94.0454 157.758 93.3879 157.04 92.783 156.285C96.9428 154.656 99.8979 150.606 99.8979 145.875C99.8979 139.904 95.1902 135.011 89.2909 134.713L89.6896 130.391H95.6266V130.39ZM89.6974 150.798C88.722 148.13 88.3188 145.252 88.5842 142.375L88.7245 140.854C91.4914 140.856 93.7419 143.107 93.7419 145.875C93.7419 148.308 92 150.342 89.6974 150.798ZM94.4096 210.121V184.558H152.41V210.121C152.41 214.867 148.549 218.728 143.804 218.728H103.016C98.2704 218.727 94.4096 214.867 94.4096 210.121ZM177.659 236.844H136.871C132.126 236.844 128.265 232.983 128.265 228.238V224.883H136.266C136.246 225.023 136.232 225.165 136.232 225.311C136.232 227.011 137.611 228.389 139.31 228.389H175.74C177.44 228.389 178.818 227.01 178.818 225.311C178.818 223.611 177.44 222.233 175.74 222.233H152.228C154.536 220.622 156.365 218.371 157.453 215.737H175.74C177.439 215.737 178.817 214.359 178.817 212.659C178.817 210.959 177.439 209.581 175.74 209.581H158.565V202.675H186.265V228.238C186.265 232.984 182.405 236.844 177.659 236.844Z" fill="#1F4FDE"/>
<path d="M17.9688 54.4885C17.9688 59.8152 22.3025 64.1489 27.6292 64.1489C32.9559 64.1489 37.2896 59.8152 37.2896 54.4885C37.2896 49.1618 32.9559 44.8281 27.6292 44.8281C22.3025 44.8281 17.9688 49.1618 17.9688 54.4885ZM31.1339 54.4885C31.1339 56.4208 29.5618 57.9929 27.6296 57.9929C25.6973 57.9929 24.1252 56.4208 24.1252 54.4885C24.1252 52.5563 25.6973 50.9842 27.6296 50.9842C29.5618 50.9842 31.1339 52.5559 31.1339 54.4885Z" fill="#1F4FDE"/>
<path d="M50.3591 51.8184C48.6594 51.8184 47.2812 53.1965 47.2812 54.8962C47.2812 56.5959 48.6594 57.974 50.3591 57.974H74.993C76.6927 57.974 78.0709 56.5959 78.0709 54.8962C78.0709 53.1965 76.6927 51.8184 74.993 51.8184H50.3591Z" fill="#1F4FDE"/>
<path d="M88.0973 51.8184C86.3977 51.8184 85.0195 53.1965 85.0195 54.8962C85.0195 56.5959 86.3977 57.974 88.0973 57.974H97.017C98.7167 57.974 100.095 56.5959 100.095 54.8962C100.095 53.1965 98.7167 51.8184 97.017 51.8184H88.0973Z" fill="#1F4FDE"/>
<path d="M194.266 105.57H182.211C180.511 105.57 179.133 106.948 179.133 108.648C179.133 110.348 180.511 111.726 182.211 111.726H194.266C195.966 111.726 197.344 110.348 197.344 108.648C197.344 106.948 195.966 105.57 194.266 105.57Z" fill="#1F4FDE"/>
<path d="M182.212 86.9154C182.929 86.9154 183.649 86.6664 184.232 86.1587L193.22 78.3329C194.502 77.2169 194.636 75.2723 193.52 73.9906C192.404 72.7084 190.459 72.5739 189.178 73.6903L180.19 81.5161C178.908 82.6321 178.773 84.5767 179.89 85.8584C180.498 86.5577 181.353 86.9154 182.212 86.9154Z" fill="#1F4FDE"/>
<path d="M193.22 138.965L184.232 131.14C182.95 130.023 181.006 130.158 179.89 131.44C178.773 132.722 178.908 134.666 180.19 135.782L189.178 143.608C189.76 144.116 190.481 144.365 191.198 144.365C192.057 144.365 192.912 144.007 193.52 143.308C194.636 142.026 194.502 140.081 193.22 138.965Z" fill="#1F4FDE"/>
<path d="M144.964 194.543C144.964 192.843 143.586 191.465 141.886 191.465H105.457C103.757 191.465 102.379 192.843 102.379 194.543C102.379 196.242 103.757 197.62 105.457 197.62H141.886C143.586 197.62 144.964 196.243 144.964 194.543Z" fill="#1F4FDE"/>
<path d="M129.003 204.117H105.457C103.757 204.117 102.379 205.495 102.379 207.195C102.379 208.895 103.757 210.273 105.457 210.273H129.003C130.703 210.273 132.081 208.895 132.081 207.195C132.081 205.495 130.703 204.117 129.003 204.117Z" fill="#1F4FDE"/>
</g>
<defs>
<linearGradient id="paint0_linear_411_8371" x1="16" y1="114.745" x2="254.819" y2="114.745" gradientUnits="userSpaceOnUse">
<stop stop-color="#D2DEFF" stop-opacity="0"/>
<stop offset="1" stop-color="#B7C5FF"/>
</linearGradient>
<clipPath id="clip0_411_8371">
<rect width="197.695" height="210" fill="white" transform="translate(0 33)"/>
</clipPath>
</defs>
</svg>
