<svg width="246" height="230" viewBox="0 0 246 230" fill="none" xmlns="http://www.w3.org/2000/svg">
<g clip-path="url(#clip0_1260_7267)">
<path d="M238.215 46.8208C146.389 -48.0704 110.593 191.933 63.6428 114.745C56.1542 102.433 78.3902 65.9141 93.0593 50.1172C171.694 -34.5631 -27.7782 -16.3 3.32296 141.837C12.0301 186.108 56.0793 195.82 97.9933 189.718C125.17 185.761 140.026 225.533 167.862 228.988C192.733 232.076 206.184 211.275 200.162 188.384C187.46 140.109 270.758 80.4502 238.215 46.8208Z" fill="url(#paint0_linear_1260_7267)"/>
<path opacity="0.1" d="M217.772 178.18H203.09V171.454C203.09 159.206 193.16 149.276 180.912 149.276H174.642V147.553C181.917 144.409 187.084 137.279 187.34 128.869L187.585 120.832C187.946 108.961 178.422 99.1433 166.546 99.1433H166.057C159.431 99.1433 153.539 102.202 149.686 106.966C148.386 95.9564 139.027 87.4149 127.668 87.4149H121.399V85.6913C128.674 82.5471 133.841 75.4175 134.097 67.0071L134.341 58.9701C134.702 47.1 125.178 37.2819 113.303 37.2819H112.814C105.893 37.2819 99.7759 40.6196 95.9437 45.7509V31.1514C95.9437 28.3822 93.6987 26.1367 90.929 26.1367H36.1332C33.364 26.1367 31.1185 28.3817 31.1185 31.1514V69.3428C31.1185 72.112 33.3635 74.3575 36.1332 74.3575H57.6947L67.3496 84.0124C69.308 85.9707 72.4829 85.9707 74.4413 84.0124L84.0962 74.3575H90.929C91.8047 74.3575 92.6272 74.1318 93.3435 73.7377C95.3527 79.1119 99.4907 83.431 104.718 85.6913V87.4144H98.4489C87.0896 87.4144 77.7309 95.9559 76.4308 106.966C72.5775 102.202 66.6861 99.1429 60.0597 99.1429H59.5705C47.6951 99.1429 38.1708 108.961 38.5323 120.831L38.7767 128.868C39.0326 137.279 44.1995 144.408 51.4745 147.552V149.276H45.2053C32.9569 149.276 23.0273 159.205 23.0273 171.454V196.459C23.0273 197.9 24.1959 199.068 25.6372 199.068H93.9935C95.4348 199.068 96.6034 197.9 96.6034 196.459V183.055H129.514V196.459C129.514 197.9 130.683 199.068 132.124 199.068H157.962V221.385C157.962 224.154 160.207 226.4 162.976 226.4H217.772C220.541 226.4 222.787 224.155 222.787 221.385V183.194C222.786 180.425 220.541 178.18 217.772 178.18ZM110.658 178.254H96.6034V171.454C96.6034 159.206 86.6739 149.276 74.4254 149.276H68.1557V147.554C72.8512 145.523 76.6675 141.831 78.852 137.206C78.8616 137.206 78.8707 137.207 78.8803 137.207H110.658V178.254ZM151.692 149.276C139.444 149.276 129.514 159.206 129.514 171.454V178.254H115.459V137.207H147.237C147.246 137.207 147.255 137.205 147.265 137.205C149.449 141.831 153.266 145.523 157.961 147.554V149.276H151.692V149.276Z" fill="#1F4FDE"/>
<path d="M147.236 125.683H78.8794C77.4381 125.683 76.2695 124.515 76.2695 123.073V98.0686C76.2695 85.8201 86.1991 75.8906 98.4475 75.8906H127.667C139.916 75.8906 149.845 85.8201 149.845 98.0686V123.073C149.846 124.515 148.677 125.683 147.236 125.683Z" fill="#6E80F8"/>
<path d="M113.059 84.9854C108.453 84.9854 104.719 81.2512 104.719 76.6451V68.3047H121.399V76.6451C121.399 81.2517 117.665 84.9854 113.059 84.9854Z" fill="white"/>
<path d="M91.7756 47.4461L92.0199 55.4835C92.3661 66.8533 101.683 75.8913 113.058 75.8913C124.433 75.8913 133.751 66.8533 134.097 55.4835L134.341 47.4461C134.702 35.5759 125.178 25.7578 113.303 25.7578H112.814C100.938 25.7578 91.4145 35.5759 91.7756 47.4461Z" fill="white"/>
<path d="M113.058 67.8175C109.019 67.8175 105.329 65.6018 103.427 62.0346C102.804 60.8646 103.246 59.4108 104.416 58.7867C105.587 58.1635 107.041 58.6057 107.664 59.7757C108.73 61.7744 110.796 63.0164 113.058 63.0164C115.319 63.0164 117.386 61.7744 118.451 59.7757C119.075 58.6052 120.529 58.163 121.699 58.7867C122.869 59.4104 123.311 60.8646 122.688 62.0346C120.786 65.6018 117.096 67.8175 113.058 67.8175Z" fill="#6E80F8"/>
<path d="M93.9935 187.545H25.6372C24.1959 187.545 23.0273 186.376 23.0273 184.935V159.93C23.0273 147.681 32.9569 137.752 45.2053 137.752H74.4249C86.6734 137.752 96.6029 147.681 96.6029 159.93V184.935C96.6034 186.376 95.4348 187.545 93.9935 187.545Z" fill="white"/>
<path d="M59.8169 146.847C55.2108 146.847 51.4766 143.113 51.4766 138.506V130.166H68.1573V138.506C68.1573 143.113 64.4231 146.847 59.8169 146.847Z" fill="#6E80F8"/>
<path d="M38.5334 109.307L38.7778 117.345C39.1239 128.715 48.4408 137.753 59.816 137.753C71.1911 137.753 80.5085 128.715 80.8541 117.345L81.0985 109.307C81.4595 97.4373 71.9357 87.6191 60.0603 87.6191H59.5711C47.6962 87.6191 38.1719 97.4373 38.5334 109.307Z" fill="white"/>
<path d="M59.8155 129.679C55.7773 129.679 52.0872 127.463 50.185 123.896C49.5614 122.726 50.004 121.272 51.1741 120.648C52.3446 120.025 53.7983 120.467 54.422 121.637C55.4878 123.636 57.5542 124.878 59.8155 124.878C62.0768 124.878 64.1436 123.636 65.209 121.637C65.8326 120.467 67.2869 120.024 68.4569 120.648C69.6269 121.272 70.0691 122.726 69.4459 123.896C67.5437 127.463 63.8536 129.679 59.8155 129.679Z" fill="#6E80F8"/>
<path d="M200.478 187.545H132.122C130.68 187.545 129.512 186.376 129.512 184.935V159.93C129.512 147.681 139.441 137.752 151.69 137.752H180.909C193.158 137.752 203.087 147.681 203.087 159.93V184.935C203.088 186.376 201.919 187.545 200.478 187.545Z" fill="white"/>
<path d="M166.301 146.847C161.695 146.847 157.961 143.113 157.961 138.506V130.166H174.642V138.506C174.642 143.113 170.907 146.847 166.301 146.847Z" fill="#6E80F8"/>
<path d="M145.018 109.307L145.262 117.345C145.608 128.715 154.925 137.753 166.3 137.753C177.675 137.753 186.993 128.715 187.338 117.345L187.583 109.307C187.944 97.4373 178.42 87.6191 166.545 87.6191H166.055C154.181 87.6191 144.657 97.4373 145.018 109.307Z" fill="white"/>
<path d="M166.3 129.679C162.262 129.679 158.572 127.463 156.669 123.896C156.046 122.726 156.488 121.272 157.658 120.648C158.829 120.025 160.283 120.467 160.906 121.637C161.972 123.636 164.039 124.878 166.3 124.878C168.561 124.878 170.628 123.636 171.693 121.637C172.317 120.467 173.771 120.024 174.941 120.648C176.111 121.272 176.553 122.726 175.93 123.896C174.028 127.463 170.338 129.679 166.3 129.679Z" fill="#6E80F8"/>
<path d="M90.9281 14.6133H36.1319C33.3626 14.6133 31.1172 16.8583 31.1172 19.628V57.8193C31.1172 60.5886 33.3622 62.834 36.1319 62.834H57.6934L67.3483 72.4889C69.3066 74.4473 72.4816 74.4473 74.4399 72.4889L84.0948 62.834H90.9277C93.6969 62.834 95.9424 60.5891 95.9424 57.8193V19.628C95.9424 16.8583 93.6974 14.6133 90.9281 14.6133Z" fill="white"/>
<path d="M162.976 214.876H217.771C220.541 214.876 222.786 212.631 222.786 209.861V171.67C222.786 168.9 220.541 166.655 217.771 166.655H196.21L186.555 157C184.597 155.042 181.422 155.042 179.463 157L169.808 166.655H162.976C160.206 166.655 157.961 168.9 157.961 171.67V209.861C157.961 212.631 160.206 214.876 162.976 214.876Z" fill="white"/>
<path d="M166.299 76.3706C164.973 76.3706 163.898 75.2961 163.898 73.9701C163.898 72.2935 162.534 70.9296 160.858 70.9296C159.532 70.9296 158.457 69.8551 158.457 68.5291C158.457 67.203 159.532 66.1285 160.858 66.1285C162.534 66.1285 163.898 64.7645 163.898 63.088C163.898 61.762 164.973 60.6875 166.299 60.6875C167.625 60.6875 168.699 61.762 168.699 63.088C168.699 64.7645 170.064 66.1285 171.74 66.1285C173.066 66.1285 174.141 67.203 174.141 68.5291C174.141 69.8551 173.066 70.9296 171.74 70.9296C170.064 70.9296 168.699 72.2935 168.699 73.9701C168.699 75.2961 167.624 76.3706 166.299 76.3706Z" fill="#6E80F8"/>
<path d="M179.353 58.666C178.027 58.666 176.953 57.5915 176.953 56.2655C176.953 54.589 175.589 53.2245 173.912 53.2245C172.586 53.2245 171.512 52.15 171.512 50.824C171.512 49.4979 172.586 48.4234 173.912 48.4234C175.589 48.4234 176.953 47.0595 176.953 45.3829C176.953 44.0569 178.027 42.9824 179.353 42.9824C180.679 42.9824 181.754 44.0569 181.754 45.3829C181.754 47.0595 183.118 48.4234 184.795 48.4234C186.121 48.4234 187.195 49.4979 187.195 50.824C187.195 52.15 186.121 53.2245 184.795 53.2245C183.118 53.2245 181.754 54.589 181.754 56.2655C181.754 57.5915 180.679 58.666 179.353 58.666Z" fill="#6E80F8"/>
<path d="M105.627 213.707C104.301 213.707 103.226 212.632 103.226 211.306C103.226 209.629 101.862 208.265 100.186 208.265C98.8601 208.265 97.7852 207.191 97.7852 205.865C97.7852 204.539 98.8601 203.464 100.186 203.464C101.862 203.464 103.226 202.1 103.226 200.424C103.226 199.098 104.301 198.023 105.627 198.023C106.952 198.023 108.027 199.098 108.027 200.424C108.027 202.1 109.391 203.464 111.068 203.464C112.393 203.464 113.468 204.539 113.468 205.865C113.468 207.191 112.393 208.265 111.068 208.265C109.391 208.265 108.027 209.629 108.027 211.306C108.027 212.632 106.952 213.707 105.627 213.707Z" fill="#6E80F8"/>
<path d="M201.127 113.524C200.513 113.524 199.898 113.29 199.43 112.82C198.492 111.883 198.492 110.363 199.43 109.426L204.231 104.625C205.168 103.687 206.689 103.687 207.625 104.625C208.563 105.562 208.563 107.082 207.625 108.019L202.824 112.82C202.356 113.29 201.741 113.524 201.127 113.524Z" fill="#6E80F8"/>
<path d="M21.7251 134.967C21.1106 134.967 20.4965 134.733 20.0275 134.264C19.0898 133.327 19.0898 131.807 20.0275 130.87L24.8285 126.068C25.7661 125.131 27.2857 125.131 28.2233 126.068C29.161 127.006 29.161 128.526 28.2233 129.463L23.4223 134.264C22.9537 134.733 22.3396 134.967 21.7251 134.967Z" fill="#6E80F8"/>
<path d="M46.7482 31.4671H60.471C61.7966 31.4671 62.8715 30.3921 62.8715 29.0665C62.8715 27.741 61.7966 26.666 60.471 26.666H46.7482C45.4226 26.666 44.3477 27.741 44.3477 29.0665C44.3477 30.3921 45.4221 31.4671 46.7482 31.4671Z" fill="#1F4FDE"/>
<path d="M79.6752 36.4512H46.7482C45.4226 36.4512 44.3477 37.5261 44.3477 38.8517C44.3477 40.1773 45.4226 41.2522 46.7482 41.2522H79.6752C81.0008 41.2522 82.0757 40.1773 82.0757 38.8517C82.0757 37.5261 81.0008 36.4512 79.6752 36.4512Z" fill="#1F4FDE"/>
<path d="M79.6752 46.2363H46.7482C45.4226 46.2363 44.3477 47.3113 44.3477 48.6369C44.3477 49.9624 45.4226 51.0374 46.7482 51.0374H79.6752C81.0008 51.0374 82.0757 49.9624 82.0757 48.6369C82.0757 47.3113 81.0008 46.2363 79.6752 46.2363Z" fill="#1F4FDE"/>
<path d="M217.771 164.255H205.489V159.932C205.489 146.378 194.464 135.351 180.913 135.351H180.578C185.98 131.222 189.516 124.784 189.74 117.418L189.984 109.38C190.179 102.985 187.833 96.9331 183.378 92.3409C178.923 87.7482 172.945 85.2186 166.546 85.2186H166.057C160.514 85.2186 155.288 87.1198 151.093 90.6135C147.918 80.5904 138.542 73.4891 127.669 73.4891H127.268C128.002 72.9279 128.71 72.3263 129.383 71.6743C133.785 67.4062 136.311 61.6819 136.497 55.5539L136.742 47.5164C136.936 41.1219 134.589 35.0712 130.134 30.479C125.679 25.8858 119.702 23.3566 113.304 23.3566H112.815C107.454 23.3566 102.418 25.1339 98.3439 28.3463V19.6276C98.3439 15.5391 95.0172 12.2129 90.9286 12.2129H82.5806C81.255 12.2129 80.1801 13.2874 80.1801 14.6134C80.1801 15.9395 81.255 17.0139 82.5806 17.0139H90.9286C92.3699 17.0139 93.5428 18.1864 93.5428 19.6276V57.819C93.5428 59.2603 92.3704 60.4327 90.9286 60.4327H84.0958C83.4592 60.4327 82.8485 60.6852 82.3981 61.136L72.7432 70.7909C71.724 71.8097 70.0657 71.8088 69.0464 70.7909L59.3915 61.136C58.9412 60.6857 58.331 60.4327 57.6939 60.4327H36.1324C34.6911 60.4327 33.5182 59.2603 33.5182 57.819V19.6276C33.5182 18.1864 34.6906 17.0139 36.1324 17.0139H68.1808C69.5064 17.0139 70.5813 15.9395 70.5813 14.6134C70.5813 13.2874 69.5064 12.2129 68.1808 12.2129H36.1329C32.0443 12.2129 28.7176 15.5395 28.7176 19.6276V57.819C28.7176 61.9076 32.0443 65.2337 36.1329 65.2337H56.7001L65.6521 74.1858C67.0977 75.6318 68.9965 76.3544 70.8953 76.3544C72.7941 76.3544 74.6929 75.6318 76.1385 74.1858L85.0906 65.2337H90.9291C91.293 65.2337 91.6483 65.1987 91.9988 65.1478C93.6268 68.4677 96.0043 71.308 98.8777 73.4896H98.4504C87.5746 73.4896 78.1963 80.5903 75.0213 90.6125C70.8267 87.1198 65.6022 85.219 60.0598 85.219H59.5706C53.1718 85.219 47.1945 87.7487 42.7396 92.3409C38.2847 96.9336 35.9379 102.985 36.1329 109.381L36.3777 117.418C36.6019 124.784 40.1374 131.223 45.5395 135.351H45.2064C31.652 135.351 20.625 146.379 20.625 159.932V184.936C20.625 187.697 22.8733 189.944 25.6373 189.944H93.9946C96.7557 189.944 99.0021 187.697 99.0021 184.936V171.532H127.112V184.936C127.112 187.697 129.361 189.944 132.125 189.944H157.959C159.285 189.944 160.359 188.869 160.359 187.544L160.361 171.671C160.361 170.229 161.534 169.057 162.976 169.057H169.808C170.445 169.057 171.055 168.804 171.505 168.353L181.16 158.699C182.18 157.679 183.838 157.679 184.857 158.699L194.512 168.353C194.962 168.804 195.572 169.057 196.209 169.057H217.77C219.212 169.057 220.385 170.229 220.385 171.671V209.862C220.385 211.303 219.212 212.476 217.77 212.476H162.976C161.534 212.476 160.361 211.303 160.361 209.861L160.359 201.942C160.359 200.616 159.284 199.541 157.958 199.542C156.632 199.542 155.558 200.617 155.558 201.943L155.56 209.862C155.56 213.95 158.887 217.277 162.976 217.277H217.771C221.86 217.277 225.187 213.95 225.187 209.862V171.671C225.187 167.582 221.86 164.255 217.771 164.255ZM166.057 90.0196H166.546C171.635 90.0196 176.388 92.0308 179.931 95.6839C183.474 99.3356 185.34 104.149 185.185 109.234L184.94 117.272C184.632 127.41 176.445 135.352 166.301 135.352C156.158 135.352 147.971 127.41 147.663 117.272L147.418 109.234C147.263 104.148 149.129 99.336 152.672 95.6834C156.215 92.0308 160.968 90.0196 166.057 90.0196ZM172.163 139.424C171.72 142.265 169.265 144.449 166.303 144.449C163.339 144.449 160.881 142.265 160.437 139.423C162.31 139.899 164.274 140.153 166.301 140.153C168.328 140.153 170.291 139.899 172.163 139.424ZM96.2674 62.9518C97.5503 61.6181 98.3439 59.8109 98.3439 57.819V35.0515C101.903 30.6638 107.131 28.1581 112.815 28.1581H113.304C118.392 28.1581 123.145 30.1693 126.688 33.8219C130.231 37.4736 132.098 42.2862 131.943 47.3709L131.698 55.4084C131.55 60.281 129.541 64.8343 126.041 68.2277C122.542 71.6206 117.932 73.4896 113.06 73.4896C105.893 73.4891 99.3482 69.3175 96.2674 62.9518ZM118.922 77.5479C118.484 80.3964 116.026 82.5866 113.06 82.5866C110.085 82.5866 107.621 80.3877 107.189 77.5316C109.081 78.0256 111.05 78.2902 113.06 78.2902C115.062 78.2902 117.028 78.0348 118.922 77.5479ZM98.45 78.2902H102.441C103.236 83.4355 107.695 87.3877 113.06 87.3877C118.422 87.3877 122.878 83.4355 123.673 78.2902H127.669C137.369 78.2902 145.589 85.3122 147.168 94.7741C144.06 98.9774 142.456 104.058 142.619 109.38L142.863 117.418C142.925 119.452 143.242 121.416 143.779 123.281H136.208V102.599C136.208 101.273 135.134 100.199 133.808 100.199C132.482 100.199 131.407 101.273 131.407 102.599V123.281H94.709V102.599C94.709 101.273 93.634 100.199 92.3085 100.199C90.9829 100.199 89.9079 101.273 89.9079 102.599V123.281H82.3377C82.8739 121.416 83.1908 119.452 83.2527 117.418L83.4976 109.38C83.6599 104.057 82.0558 98.975 78.9457 94.7712C80.5243 85.3107 88.747 78.2902 98.45 78.2902ZM41.1759 117.272L40.931 109.234C40.7764 104.148 42.6421 99.336 46.1848 95.6834C49.728 92.0312 54.4815 90.0196 59.5696 90.0196H60.0589C65.1475 90.0196 69.901 92.0308 73.4442 95.6834C76.9869 99.3356 78.8531 104.149 78.698 109.234L78.4531 117.272C78.1444 127.41 69.9572 135.352 59.814 135.352C49.6708 135.352 41.4846 127.41 41.1759 117.272ZM65.6766 139.424C65.233 142.266 62.7777 144.449 59.8159 144.449C56.8547 144.449 54.3994 142.266 53.9553 139.425C55.8268 139.9 57.7894 140.153 59.815 140.153C61.841 140.153 63.8042 139.899 65.6766 139.424ZM94.201 184.936C94.201 185.05 94.1084 185.142 93.9946 185.142H82.0045V164.462C82.0045 163.136 80.9295 162.061 79.6039 162.061C78.2784 162.061 77.2034 163.136 77.2034 164.462V185.142H42.4261V164.462C42.4261 163.136 41.3511 162.061 40.0255 162.061C38.7 162.061 37.625 163.136 37.625 164.462V185.142H25.6373C25.5206 185.142 25.426 185.05 25.426 184.936V159.932C25.426 149.025 34.2993 140.152 45.2064 140.152H49.2023C49.9968 145.297 54.4537 149.25 59.8159 149.25C65.1782 149.25 69.635 145.297 70.4296 140.152H74.4255C85.3297 140.152 94.201 149.025 94.201 159.932V184.936ZM74.4255 135.351H74.0909C76.6479 133.397 78.7854 130.926 80.3519 128.082H110.658V166.73H99.0021V159.932C99.0021 146.378 87.977 135.351 74.4255 135.351ZM115.459 166.73V128.082H145.764C147.33 130.925 149.468 133.396 152.025 135.351H151.694C138.14 135.351 127.112 146.378 127.112 159.932V166.73H115.459ZM188.252 155.303C185.361 152.412 180.657 152.412 177.766 155.303L168.814 164.255H162.976C158.887 164.255 155.56 167.582 155.56 171.67L155.559 185.142H148.912V164.462C148.912 163.136 147.838 162.061 146.512 162.061C145.186 162.061 144.111 163.136 144.111 164.462V185.142H132.125C132.008 185.142 131.913 185.05 131.913 184.936V169.14C131.913 169.137 131.914 169.134 131.914 169.131C131.914 169.128 131.913 169.125 131.913 169.122V159.932C131.913 149.025 140.787 140.152 151.694 140.152H155.685C156.48 145.297 160.938 149.25 166.303 149.25C171.665 149.25 176.122 145.297 176.917 140.152H180.913C191.817 140.152 200.688 149.025 200.688 159.932V164.255H197.204L188.252 155.303Z" fill="#1F4FDE"/>
<path d="M174.229 183.252H187.951C189.277 183.252 190.352 182.177 190.352 180.852C190.352 179.526 189.277 178.451 187.951 178.451H174.229C172.903 178.451 171.828 179.526 171.828 180.852C171.828 182.177 172.903 183.252 174.229 183.252Z" fill="#1F4FDE"/>
<path d="M174.229 193.037H207.156C208.481 193.037 209.556 191.962 209.556 190.637C209.556 189.311 208.481 188.236 207.156 188.236H174.229C172.903 188.236 171.828 189.311 171.828 190.637C171.828 191.962 172.903 193.037 174.229 193.037Z" fill="#1F4FDE"/>
<path d="M174.229 202.824H207.156C208.481 202.824 209.556 201.75 209.556 200.424C209.556 199.098 208.481 198.023 207.156 198.023H174.229C172.903 198.023 171.828 199.098 171.828 200.424C171.828 201.75 172.903 202.824 174.229 202.824Z" fill="#1F4FDE"/>
</g>
<defs>
<linearGradient id="paint0_linear_1260_7267" x1="41.8019" y1="194.992" x2="214.107" y2="22.6874" gradientUnits="userSpaceOnUse">
<stop stop-color="#D2DBFC" stop-opacity="0"/>
<stop offset="1" stop-color="#B8C2FB"/>
</linearGradient>
<clipPath id="clip0_1260_7267">
<rect width="245.814" height="229.49" fill="white"/>
</clipPath>
</defs>
</svg>
