<svg width="237" height="230" viewBox="0 0 237 230" fill="none" xmlns="http://www.w3.org/2000/svg">
<path d="M233.767 159.225C223.184 111.607 209.857 85.2398 233.17 34.9975C244.792 9.95109 221.143 -7.57623 199.438 3.27632C186.085 9.95293 184.871 26.3231 182.667 37.4043C180.712 47.2327 167.708 48.3677 158.376 44.7159C106.104 24.2581 126.526 88.1495 84.2938 109.938C55.0894 125.006 23.014 141.244 6.34059 171.501C-3.68836 189.701 -2.15114 235.851 24.9809 228.408C64.2768 217.629 98.6261 170.424 143.505 186.974C164.699 194.789 173.398 225.261 197.163 227.703C231.932 231.276 239.899 186.813 233.767 159.225Z" fill="url(#paint0_linear_1260_7238)"/>
<g clip-path="url(#clip0_1260_7238)">
<path d="M164.353 33.9572V94.9656H48.7578V17.9024C48.7684 14.3601 51.6374 11.491 55.1797 11.4805H141.876V28.338C141.872 29.8294 142.463 31.2606 143.518 32.3152C144.572 33.3697 146.004 33.9606 147.495 33.9572H164.353Z" fill="#E8EDFC"/>
<path d="M164.352 33.9572L147.494 33.9572C146.003 33.9606 144.572 33.3697 143.517 32.3152C142.463 31.2606 141.872 29.8294 141.875 28.338L141.875 11.4805L164.352 33.9572Z" fill="#CAD9FC"/>
<path d="M202.788 102.575L185.93 192.482C185.343 195.514 182.693 197.706 179.605 197.716H23.0704C19.528 197.705 16.659 194.836 16.6484 191.294C16.6486 190.896 16.6808 190.499 16.7448 190.106L33.6023 100.199C34.1899 97.167 36.8398 94.9744 39.9279 94.9648H196.462C198.374 94.9674 200.185 95.8188 201.407 97.2886C202.629 98.7585 203.135 100.695 202.788 102.575Z" fill="#E8EDFC"/>
<path d="M196.463 94.9648H186.83C188.742 94.9674 190.553 95.8188 191.775 97.2886C192.997 98.7585 193.503 100.695 193.156 102.575L176.298 192.482C175.711 195.514 173.061 197.706 169.973 197.716H179.606C182.694 197.706 185.344 195.514 185.931 192.482L202.789 102.575C203.136 100.695 202.63 98.7585 201.408 97.2886C200.186 95.8188 198.375 94.9674 196.463 94.9648Z" fill="#CAD9FC"/>
<path d="M45.6611 129.1L48.0693 116.257C48.6395 113.219 51.2919 111.019 54.3821 111.02H90.5022C92.4131 111.019 94.2248 111.87 95.4451 113.34C96.6654 114.811 97.1675 116.748 96.815 118.626L94.4067 131.47C93.8366 134.507 91.1842 136.708 88.094 136.707H51.9706C50.0603 136.707 48.2495 135.856 47.0299 134.385C45.8103 132.915 45.3086 130.978 45.6611 129.1Z" fill="white"/>
<path d="M90.5021 111.02H80.8692C82.78 111.019 84.5918 111.87 85.8121 113.34C87.0324 114.811 87.5345 116.748 87.1819 118.626L84.7737 131.47C84.2035 134.507 81.5512 136.708 78.4609 136.707H88.0938C91.184 136.708 93.8364 134.507 94.4066 131.47L96.8148 118.626C97.1674 116.748 96.6653 114.811 95.445 113.34C94.2247 111.87 92.4129 111.019 90.5021 111.02Z" fill="#E8EDFC"/>
<path d="M48.7581 53.2227V94.9652H39.9279C36.8398 94.9748 34.1899 97.1674 33.6023 100.199L16.7448 190.106C16.6808 190.499 16.6486 190.896 16.6484 191.294V62.8555C16.6484 57.5354 20.9612 53.2227 26.2813 53.2227H48.7581Z" fill="#C6D8FB"/>
<path d="M186.828 82.1212V94.965H164.352V72.4883H177.195C182.516 72.4883 186.828 76.8011 186.828 82.1212Z" fill="#C6D8FB"/>
<path d="M26.2813 136.708V62.8555C26.2813 57.5354 30.5941 53.2227 35.9142 53.2227H26.2813C20.9612 53.2227 16.6484 57.5354 16.6484 62.8555V191.294L26.2813 136.708Z" fill="white"/>
<path d="M13.4375 62.8555H19.8594V88.5432H13.4375V62.8555Z" fill="white"/>
<path d="M15.6595 197.447C17.4867 199.655 20.2045 200.931 23.0704 200.927H179.605C184.242 200.93 188.223 197.628 189.077 193.07L205.935 103.163C206.463 100.346 205.709 97.4394 203.878 95.234C202.047 93.0286 199.329 91.7533 196.462 91.7546H190.041V82.1217C190.041 75.0282 184.29 69.2779 177.197 69.2779H167.564V33.9572C167.564 33.1057 167.225 32.2891 166.623 31.6871L144.146 9.21034C143.544 8.60813 142.728 8.26971 141.876 8.26953H55.18C49.8599 8.26953 45.5471 12.5823 45.5471 17.9024V50.0121H26.2814C19.1879 50.0121 13.4375 55.7625 13.4375 62.8559C13.4375 64.6293 14.8751 66.0669 16.6485 66.0669C18.4218 66.0669 19.8594 64.6293 19.8594 62.8559C19.8594 59.3092 22.7346 56.434 26.2814 56.434H45.5471V91.7546H39.928C35.2909 91.7524 31.3104 95.0543 30.4556 99.6118L19.8594 156.157V88.5436C19.8594 86.7703 18.4218 85.3327 16.6485 85.3327C14.8751 85.3327 13.4375 86.7703 13.4375 88.5436V191.295H13.4696C13.4575 193.538 14.2324 195.715 15.6595 197.447ZM177.197 75.6998C180.743 75.6998 183.619 78.575 183.619 82.1217V91.7546H167.564V75.6998H177.197ZM145.087 19.2318L156.602 30.7463H147.495C146.165 30.7463 145.087 29.6681 145.087 28.3381V19.2318ZM51.9691 17.9024C51.9691 16.1291 53.4067 14.6915 55.18 14.6915H138.665V28.3381C138.669 33.2134 142.62 37.1647 147.495 37.1682H161.142V91.7546H51.9691V17.9024ZM19.9172 190.7L36.7748 100.793C37.0603 99.2767 38.3846 98.1777 39.928 98.1765H196.462C197.418 98.1772 198.323 98.6032 198.932 99.3387C199.542 100.074 199.792 101.043 199.616 101.982L182.758 191.889C182.473 193.405 181.148 194.504 179.605 194.505H23.0704C22.1152 194.505 21.2099 194.079 20.6004 193.343C19.9909 192.608 19.7405 191.639 19.9172 190.7Z" fill="#1F4FDE"/>
<path d="M51.9695 139.918H88.0929C92.7299 139.92 96.7105 136.619 97.5652 132.061L99.9734 119.217C100.502 116.4 99.748 113.493 97.9169 111.288C96.0858 109.083 93.3676 107.807 90.5011 107.809H54.3778C49.7407 107.806 45.7602 111.108 44.9054 115.666L42.4972 128.51C41.9688 131.327 42.7226 134.233 44.5537 136.439C46.3848 138.644 49.103 139.92 51.9695 139.918ZM48.8164 129.691L51.2246 116.847C51.5101 115.331 52.8344 114.232 54.3778 114.231H90.5011C91.4569 114.23 92.3631 114.656 92.9733 115.391C93.5835 116.127 93.8343 117.096 93.6575 118.036L91.2493 130.879C90.9635 132.397 89.6375 133.497 88.0929 133.496H51.9695C51.0143 133.496 50.109 133.07 49.4995 132.334C48.89 131.599 48.6396 130.63 48.8164 129.691Z" fill="#1F4FDE"/>
<path d="M16.6485 78.9102C18.4218 78.9102 19.8594 77.4726 19.8594 75.6992C19.8594 73.9259 18.4218 72.4883 16.6485 72.4883C14.8751 72.4883 13.4375 73.9259 13.4375 75.6992C13.4375 77.4726 14.8751 78.9102 16.6485 78.9102Z" fill="#1F4FDE"/>
<path d="M74.4453 50.0118H77.6563V66.0666C77.6563 67.84 79.0939 69.2776 80.8673 69.2776C82.6406 69.2776 84.0782 67.84 84.0782 66.0666V50.0118H87.2892C89.0626 50.0118 90.5002 48.5742 90.5002 46.8008C90.5002 45.0274 89.0626 43.5898 87.2892 43.5898H74.4453C72.672 43.5898 71.2344 45.0274 71.2344 46.8008C71.2344 48.5742 72.672 50.0118 74.4453 50.0118Z" fill="#1F4FDE"/>
<path d="M100.133 69.2776C101.906 69.2776 103.344 67.84 103.344 66.0666V62.8556H109.766V66.0666C109.766 67.84 111.203 69.2776 112.977 69.2776C114.75 69.2776 116.188 67.84 116.188 66.0666V53.2227C116.188 47.9026 111.875 43.5898 106.555 43.5898C101.235 43.5898 96.9219 47.9026 96.9219 53.2227V66.0666C96.9219 67.84 98.3595 69.2776 100.133 69.2776ZM106.555 50.0118C108.328 50.0118 109.766 51.4494 109.766 53.2227V56.4337H103.344V53.2227C103.344 51.4494 104.781 50.0118 106.555 50.0118Z" fill="#1F4FDE"/>
<path d="M124.039 68.7389C124.747 69.2116 125.615 69.3835 126.45 69.2167C127.285 69.0499 128.02 68.558 128.493 67.8494L132.243 62.2142L135.993 67.8398C136.63 68.7942 137.728 69.3365 138.873 69.2624C140.017 69.1882 141.036 68.5089 141.544 67.4803C142.052 66.4517 141.973 65.2301 141.336 64.2756L136.096 56.4344L141.33 48.5836C142.314 47.1082 141.916 45.1142 140.441 44.13C138.965 43.1458 136.971 43.544 135.987 45.0195L132.243 50.6547L128.493 45.0291C127.508 43.5537 125.514 43.1554 124.039 44.1397C122.564 45.1239 122.165 47.1178 123.15 48.5933L128.39 56.4344L123.156 64.2852C122.17 65.759 122.566 67.7527 124.039 68.7389Z" fill="#1F4FDE"/>
<path d="M145.087 75.6992H68.0235C66.2501 75.6992 64.8125 77.1368 64.8125 78.9102C64.8125 80.6835 66.2501 82.1211 68.0235 82.1211H145.087C146.86 82.1211 148.298 80.6835 148.298 78.9102C148.298 77.1368 146.86 75.6992 145.087 75.6992Z" fill="#1F4FDE"/>
</g>
<defs>
<linearGradient id="paint0_linear_1260_7238" x1="45.4732" y1="261.49" x2="265.09" y2="41.8738" gradientUnits="userSpaceOnUse">
<stop stop-color="#D1DDFF" stop-opacity="0"/>
<stop offset="1" stop-color="#B6C4FF"/>
</linearGradient>
<clipPath id="clip0_1260_7238">
<rect width="193.034" height="192.658" fill="white" transform="translate(13.4375 8.26953)"/>
</clipPath>
</defs>
</svg>
