<svg width="290" height="230" viewBox="0 0 290 230" fill="none" xmlns="http://www.w3.org/2000/svg">
<g clip-path="url(#clip0_405_11085)">
<path d="M288.747 57.1802C285.491 32.0026 271.795 0 213.721 0C173.616 0 173.074 19.2108 130.356 9.68609C99.2254 2.74536 68.272 25.6424 63.9691 57.6284C59.3273 92.1344 84.2875 107.953 92.3904 136.904C101.131 168.132 107.409 229.49 146.301 229.49C189.186 229.49 191.401 196.306 219.178 159.894C245.905 124.858 295.657 110.597 288.747 57.1802V57.1802Z" fill="url(#paint0_linear_405_11085)"/>
<g clip-path="url(#clip1_405_11085)">
<path fill-rule="evenodd" clip-rule="evenodd" d="M9.38672 162.604H28.6403V194.11H9.38672V162.604Z" fill="#9BACF2"/>
<path fill-rule="evenodd" clip-rule="evenodd" d="M40.1914 141.135H59.445V194.115H40.1914V141.135Z" fill="#9BACF2"/>
<path fill-rule="evenodd" clip-rule="evenodd" d="M71 154.713H90.2536V194.116H71V154.713Z" fill="#9BACF2"/>
<path fill-rule="evenodd" clip-rule="evenodd" d="M101.805 130.295H121.058V194.116H101.805V130.295Z" fill="#9BACF2"/>
<path fill-rule="evenodd" clip-rule="evenodd" d="M19.017 148.667C23.2231 148.667 26.6552 145.235 26.6552 141.029C26.6552 136.823 23.2231 133.391 19.017 133.391C14.811 133.391 11.3789 136.823 11.3789 141.029C11.3789 145.235 14.8061 148.667 19.017 148.667Z" fill="white"/>
<path fill-rule="evenodd" clip-rule="evenodd" d="M49.8217 120.757C54.0278 120.757 57.4599 117.325 57.4599 113.119C57.4599 108.913 54.0278 105.48 49.8217 105.48C45.6156 105.48 42.1836 108.913 42.1836 113.119C42.1787 117.325 45.6108 120.757 49.8217 120.757Z" fill="white"/>
<path fill-rule="evenodd" clip-rule="evenodd" d="M80.6225 139.27C84.8286 139.27 88.2606 135.838 88.2606 131.632C88.2606 127.426 84.8286 123.994 80.6225 123.994C76.4164 123.994 72.9844 127.426 72.9844 131.632C72.9844 135.838 76.4164 139.27 80.6225 139.27Z" fill="white"/>
<path fill-rule="evenodd" clip-rule="evenodd" d="M111.431 110.349C115.637 110.349 119.069 106.916 119.069 102.71C119.069 98.5043 115.637 95.0723 111.431 95.0723C107.225 95.0723 103.793 98.5043 103.793 102.71C103.793 106.916 107.225 110.349 111.431 110.349Z" fill="white"/>
<path fill-rule="evenodd" clip-rule="evenodd" d="M111.177 42.7838L89.9954 55.0126L68.814 67.2414V54.8568H41.971C30.8229 54.8568 21.072 61.1465 16.087 70.3473C15.6733 71.1116 14.8213 71.4864 13.9743 71.2722C13.1321 71.058 12.5625 70.3229 12.5625 69.4564V62.8211C12.5625 46.6442 25.799 33.4126 41.971 33.4126H68.8238V18.3262L90.0051 30.555L111.177 42.7838Z" fill="white"/>
<path fill-rule="evenodd" clip-rule="evenodd" d="M138.219 161.601L159.4 149.372L180.581 137.143V149.528H207.434C218.582 149.528 228.333 143.238 233.318 134.037C233.732 133.273 234.584 132.898 235.431 133.112C236.273 133.327 236.843 134.062 236.843 134.928V141.564C236.843 157.74 223.606 170.972 207.434 170.972H180.581V186.054L159.4 173.825L138.219 161.601Z" fill="white"/>
<path d="M183.555 113.079C212.807 113.079 236.521 89.366 236.521 60.114C236.521 30.8619 212.807 7.14844 183.555 7.14844C154.303 7.14844 130.59 30.8619 130.59 60.114C130.59 89.366 154.303 113.079 183.555 113.079Z" fill="#9BACF2"/>
<path d="M183.556 99.4836C205.299 99.4836 222.925 81.8576 222.925 60.1149C222.925 38.3721 205.299 20.7461 183.556 20.7461C161.813 20.7461 144.188 38.3721 144.188 60.1149C144.188 81.8576 161.813 99.4836 183.556 99.4836Z" fill="white"/>
<path fill-rule="evenodd" clip-rule="evenodd" d="M180.62 60.1149V39.5226C180.62 37.9113 181.934 36.6017 183.546 36.6017C185.157 36.6017 186.472 37.9113 186.472 39.5226V57.194H197.42C199.031 57.194 200.346 58.5036 200.346 60.1149C200.346 61.7263 199.031 63.0358 197.42 63.0358H183.541C181.934 63.0358 180.62 61.7263 180.62 60.1149ZM162.861 30.1271C159.239 32.6439 156.07 35.7985 153.563 39.4301L156.411 41.0756C157.803 41.8788 158.28 43.6654 157.487 45.0626C156.951 46.0021 155.953 46.523 154.96 46.523C154.463 46.523 153.967 46.4013 153.485 46.1336L150.637 44.4833C148.768 48.3875 147.59 52.6764 147.234 57.194H150.54C152.151 57.194 153.446 58.5036 153.446 60.1149C153.446 61.7263 152.151 63.0358 150.54 63.0358H147.234C147.594 67.5535 148.768 71.8423 150.637 75.7466L153.485 74.0963C154.897 73.2882 156.669 73.7701 157.487 75.1673C158.285 76.5596 157.803 78.3462 156.411 79.1543L153.563 80.7997C156.07 84.4314 159.239 87.5859 162.861 90.0979L164.511 87.25C165.31 85.8529 167.101 85.3758 168.493 86.1839C169.886 86.9871 170.363 88.7737 169.569 90.1709L167.919 93.0334C171.823 94.893 176.122 96.0711 180.62 96.4314V93.1356C180.62 91.5243 181.934 90.2147 183.546 90.2147C185.157 90.2147 186.472 91.5243 186.472 93.1356V96.4314C190.989 96.0711 195.273 94.893 199.173 93.0334L197.522 90.1709C196.724 88.7737 197.206 86.9871 198.598 86.1839C199.99 85.3758 201.782 85.8529 202.58 87.25L204.231 90.0979C207.872 87.5859 211.022 84.4314 213.529 80.7997L210.681 79.1543C209.289 78.3462 208.811 76.5596 209.605 75.1673C210.423 73.7701 212.214 73.2882 213.607 74.0963L216.454 75.7466C218.324 71.8423 219.502 67.5535 219.857 63.0358H216.571C214.96 63.0358 213.646 61.7263 213.646 60.1149C213.646 58.5036 214.96 57.194 216.571 57.194H219.857C219.497 52.6764 218.324 48.3875 216.454 44.4833L213.607 46.1336C213.149 46.4013 212.633 46.523 212.132 46.523C211.134 46.523 210.14 46.0021 209.605 45.0626C208.807 43.6654 209.289 41.8788 210.681 41.0756L213.529 39.4301C211.022 35.7985 207.872 32.6439 204.231 30.1271L202.58 32.9798C202.045 33.9145 201.066 34.4403 200.054 34.4403C199.557 34.4403 199.061 34.3137 198.598 34.046C197.206 33.2378 196.729 31.4561 197.522 30.0589L199.173 27.1965C195.268 25.3368 190.989 24.1539 186.472 23.7936V27.0942C186.472 28.7056 185.157 30.0151 183.546 30.0151C181.934 30.0151 180.62 28.7056 180.62 27.0942V23.7936C176.122 24.1539 171.818 25.3368 167.919 27.1965L169.569 30.0589C170.368 31.4561 169.886 33.2378 168.493 34.046C168.036 34.3137 167.539 34.4403 167.038 34.4403C166.02 34.4403 165.047 33.9145 164.511 32.9798L162.861 30.1271ZM183.546 102.405C206.859 102.405 225.835 83.4334 225.835 60.1149C225.835 36.7965 206.859 17.8253 183.546 17.8253C160.232 17.8253 141.256 36.7965 141.256 60.1149C141.256 83.4334 160.232 102.405 183.546 102.405ZM183.546 10.0703C155.948 10.0703 133.511 32.5222 133.511 60.1149C133.511 87.7076 155.948 110.16 183.546 110.16C211.143 110.16 233.581 87.7076 233.581 60.1149C233.581 32.5222 211.143 10.0703 183.546 10.0703ZM183.546 116.001C214.366 116.001 239.437 90.9303 239.437 60.1149C239.437 29.2995 214.371 4.22852 183.546 4.22852C152.745 4.22852 127.654 29.2995 127.654 60.1149C127.659 90.9303 152.745 116.001 183.546 116.001ZM233.921 141.564C233.921 156.173 222.033 168.057 207.419 168.057H180.581C178.97 168.057 177.655 169.361 177.655 170.977V180.996L144.065 161.601L177.655 142.207V149.528C177.655 151.145 178.97 152.449 180.581 152.449H207.419C218.051 152.449 227.885 147.231 233.921 138.609V141.564ZM236.132 130.28C233.999 129.739 231.789 130.713 230.738 132.646C226.079 141.262 217.141 146.607 207.424 146.607H183.492V137.149C183.492 136.102 182.932 135.138 182.037 134.617C181.121 134.096 180.026 134.096 179.111 134.617L136.763 159.075C135.848 159.596 135.307 160.56 135.307 161.601C135.307 162.648 135.843 163.612 136.763 164.133L179.111 188.586C179.568 188.848 180.065 188.98 180.586 188.98C181.082 188.98 181.584 188.848 182.041 188.586C182.937 188.065 183.497 187.101 183.497 186.059V173.898H207.429C225.271 173.898 239.763 159.391 239.763 141.564V134.934C239.753 132.733 238.259 130.825 236.132 130.28ZM15.4825 62.8216C15.4825 48.2123 27.351 36.334 41.9652 36.334H68.8228C70.4342 36.334 71.7291 35.0245 71.7291 33.4131V23.3896L105.339 42.7843L71.7291 62.179V54.8573C71.7291 53.2411 70.4342 51.9364 68.8228 51.9364H41.9603C31.3478 51.9364 21.5141 57.1551 15.4776 65.7766V62.8216H15.4825ZM13.2528 74.106C13.652 74.2034 14.0512 74.252 14.4261 74.252C16.1591 74.252 17.79 73.3125 18.6468 71.7401C23.3056 63.1283 32.2435 57.7782 41.9603 57.7782H65.8922V67.2419C65.8922 68.2837 66.452 69.2476 67.3478 69.7685C68.263 70.2894 69.3778 70.2894 70.2735 69.7685L112.622 45.3157C113.537 44.79 114.097 43.8261 114.097 42.7843C114.097 41.7425 113.537 40.7737 112.622 40.2529L70.2735 15.8001C69.3778 15.2792 68.263 15.2792 67.3478 15.8001C66.452 16.321 65.8922 17.2849 65.8922 18.3267V30.4922H41.9603C24.138 30.4922 9.62607 44.9944 9.62607 62.8216V69.4569C9.62607 71.6525 11.1206 73.5656 13.2528 74.106ZM19.007 136.311C21.6163 136.311 23.7242 138.429 23.7242 141.029C23.7242 143.628 21.6115 145.746 19.007 145.746C16.4171 145.746 14.2898 143.628 14.2898 141.029C14.2849 138.429 16.4171 136.311 19.007 136.311ZM49.8078 108.397C52.4171 108.397 54.5445 110.515 54.5445 113.115C54.5445 115.719 52.4123 117.832 49.8078 117.832C47.2179 117.832 45.0906 115.719 45.0906 113.115C45.0857 110.515 47.2179 108.397 49.8078 108.397ZM80.6281 126.911C83.218 126.911 85.3259 129.029 85.3259 131.633C85.3259 134.233 83.2131 136.35 80.6281 136.35C78.0188 136.35 75.9109 134.233 75.9109 131.633C75.9109 129.029 78.0188 126.911 80.6281 126.911ZM111.429 97.9892C114.019 97.9892 116.146 100.107 116.146 102.706C116.146 105.311 114.014 107.429 111.429 107.429C108.82 107.429 106.712 105.311 106.712 102.706C106.712 100.107 108.824 97.9892 111.429 97.9892ZM19.007 151.588C24.839 151.588 29.5806 146.851 29.5806 141.029C29.5806 139.359 29.1814 137.786 28.4853 136.379L44.2532 122.091C45.8841 123.094 47.7778 123.674 49.8078 123.674C52.5973 123.674 55.1238 122.598 56.9932 120.845L70.4147 128.907C70.1956 129.778 70.0545 130.689 70.0545 131.633C70.0545 137.455 74.7912 142.192 80.6281 142.192C86.4407 142.192 91.1823 137.455 91.1823 131.633C91.1823 129.9 90.7636 128.264 90.009 126.818L106.035 111.781C107.607 112.725 109.457 113.27 111.429 113.27C117.241 113.27 121.983 108.534 121.983 102.706C121.983 96.8841 117.246 92.1474 111.429 92.1474C105.597 92.1474 100.855 96.8841 100.855 102.706C100.855 104.444 101.274 106.08 102.029 107.521L86.022 122.559C84.4301 121.614 82.5997 121.069 80.6281 121.069C77.8386 121.069 75.3121 122.15 73.4427 123.902L60.0212 115.841C60.2597 114.969 60.3814 114.059 60.3814 113.115C60.3814 107.292 55.6447 102.556 49.8078 102.556C43.9952 102.556 39.2536 107.292 39.2536 113.115C39.2536 114.784 39.6528 116.362 40.3295 117.764L24.5616 132.052C22.9502 131.049 21.0565 130.469 19.007 130.469C13.1944 130.469 8.45284 135.206 8.45284 141.029C8.45284 146.851 13.1896 151.588 19.007 151.588ZM12.2938 165.525H25.7153V191.195H12.2938V165.525ZM43.119 144.057H56.521V191.195H43.119V144.057ZM73.9198 157.634H87.3218V191.195H73.9198V157.634ZM104.721 133.215H118.123V191.195H104.721V133.215ZM127.28 191.195H123.974V130.294C123.974 128.678 122.66 127.373 121.048 127.373H101.795C100.183 127.373 98.8885 128.678 98.8885 130.294V191.195H93.1733V154.713C93.1733 153.102 91.8589 151.792 90.2476 151.792H70.994C69.3827 151.792 68.0683 153.102 68.0683 154.713V191.195H62.3725V141.136C62.3725 139.519 61.0581 138.215 59.4468 138.215H40.1883C38.577 138.215 37.2626 139.519 37.2626 141.136V191.195H31.5474V162.604C31.5474 160.993 30.2524 159.683 28.6411 159.683H9.38753C7.77617 159.683 6.46176 160.993 6.46176 162.604V191.195H3.15629C1.54493 191.195 0.25 192.5 0.25 194.116C0.25 195.727 1.54493 197.037 3.15629 197.037H127.28C128.891 197.037 130.205 195.727 130.205 194.116C130.205 192.5 128.891 191.195 127.28 191.195Z" fill="#1F4FDE"/>
</g>
</g>
<defs>
<linearGradient id="paint0_linear_405_11085" x1="77.4265" y1="174.143" x2="252.106" y2="-0.536506" gradientUnits="userSpaceOnUse">
<stop stop-color="#D1DDFF" stop-opacity="0"/>
<stop offset="1" stop-color="#B6C4FF"/>
</linearGradient>
<clipPath id="clip0_405_11085">
<rect width="290" height="230" fill="white"/>
</clipPath>
<clipPath id="clip1_405_11085">
<rect width="240" height="193.266" fill="white" transform="translate(0 4)"/>
</clipPath>
</defs>
</svg>
