<svg width="239" height="230" viewBox="0 0 239 230" fill="none" xmlns="http://www.w3.org/2000/svg">
<path d="M236.94 100.484C231.408 77.3862 200.577 69.2487 182.048 70.2106C157.322 71.4942 146.12 63.6801 151.538 38.4176C154.634 23.9823 157.751 14.1615 135.439 6.54789C116.17 -0.0265828 54.016 -7.16291 41.0722 15.0711C34.7556 25.9217 58.0055 35.8187 47.0333 50.4793C39.2932 60.8217 16.3563 53.1745 3.96197 69.1379C-4.83375 80.4662 0.708526 99.0257 23.6729 108.872C43.2388 117.26 72.0207 122.097 77.291 146.284C79.933 158.407 66.4504 175.395 73.2124 193.239C78.438 207.03 94.1739 213.116 114.954 192.864C155.955 152.902 147.284 209.959 153.505 221.636C160.632 235.015 185.292 229.54 196.374 218.346C226.675 187.74 244.932 133.851 236.94 100.484V100.484Z" fill="url(#paint0_linear_1432_6700)"/>
<g clip-path="url(#clip0_1432_6700)">
<path d="M121.454 142.52C118.569 139.525 114.838 137.313 110.569 136.29L95.1404 132.593V123.174H76.2996V132.623L60.9111 136.299C50.8488 138.703 43.75 147.697 43.75 158.042V183.25H77.8607L121.454 142.52Z" fill="#A4C2F7"/>
<path d="M95.545 123.174V132.847L85.7672 156.268L76 132.88V123.174H95.545Z" fill="white"/>
<path d="M106.732 90.7227V103.769C106.732 115.367 97.3296 124.769 85.7312 124.769C74.1328 124.769 64.7305 115.367 64.7305 103.769V90.7227H106.732Z" fill="white"/>
<path d="M106.732 94.8503V89.7949C106.732 78.1969 97.3296 68.7949 85.7312 68.7949C74.1328 68.7949 64.7305 78.1969 64.7305 89.7949V94.8503H79.2066C88.2718 94.8503 97.1672 92.3892 104.943 87.7298" fill="#1F4FDE"/>
<path d="M150.547 142.52C153.431 139.525 157.163 137.313 161.432 136.29L176.86 132.593V123.174H195.701V132.623L211.09 136.299C221.152 138.703 228.251 147.697 228.251 158.042V183.25H194.14L150.547 142.52Z" fill="#E8EDFC"/>
<path d="M122.856 142.15L101.366 147.3C87.3608 150.656 77.4844 163.179 77.4844 177.58V198.249H194.436V177.598C194.436 163.188 184.548 150.661 170.532 147.313L149.099 142.192L122.856 142.15Z" fill="#9BACF2"/>
<path d="M196.002 123.174V132.88L186.235 156.268L176.457 132.847V123.174H196.002Z" fill="white"/>
<path d="M136.005 172.276L149.996 140.51C148.958 138.767 148.366 136.737 148.366 134.588V131.535H123.629V134.589C123.629 136.734 123.039 138.76 122.004 140.502L136.005 172.276Z" fill="white"/>
<path d="M165.25 81.8223V102.004C165.25 118.159 152.154 131.255 136 131.255C119.846 131.255 106.75 118.159 106.75 102.004V81.8223H165.25Z" fill="white"/>
<path d="M136 53.2891C119.846 53.2891 106.75 66.3848 106.75 82.5391V89.5804H121.051C130.558 89.5804 139.577 85.3711 145.683 78.0844L165.25 89.5804V82.5391C165.251 66.3848 152.155 53.2891 136 53.2891Z" fill="#9BACF2"/>
<path d="M165.266 90.7227V103.769C165.266 115.367 174.668 124.769 186.266 124.769C197.865 124.769 207.267 115.367 207.267 103.769V90.7227H165.266Z" fill="white"/>
<path d="M165.266 94.8503V89.7949C165.266 78.1969 174.668 68.7949 186.266 68.7949C197.865 68.7949 207.267 78.1969 207.267 89.7949V94.8503H192.791C183.726 94.8503 174.83 92.3892 167.054 87.7298" fill="#1F4FDE"/>
<path d="M135.902 194.5C134.916 194.5 133.948 194.901 133.251 195.599C132.554 196.296 132.152 197.264 132.152 198.25C132.152 199.236 132.553 200.204 133.251 200.901C133.948 201.599 134.916 202 135.902 202C136.889 202 137.856 201.599 138.553 200.901C139.251 200.204 139.652 199.236 139.652 198.25C139.652 197.264 139.251 196.296 138.553 195.599C137.856 194.901 136.889 194.5 135.902 194.5Z" fill="#1F4FDE"/>
<path d="M211.96 132.652L199.451 129.663V124.701C206.394 120.313 211.019 112.573 211.019 103.77V89.7946C211.019 76.1472 199.916 65.0446 186.268 65.0446C178.906 65.0446 172.288 68.2793 167.75 73.3977C163.776 59.6341 151.065 49.5391 136.039 49.5391H136.039C120.988 49.5391 108.26 59.6659 104.308 73.4633C99.7686 68.3071 93.1266 65.0446 85.7331 65.0446C72.0854 65.0446 60.9824 76.1476 60.9824 89.7946V103.77C60.9824 112.574 65.6069 120.313 72.5504 124.701V129.663L60.0411 132.652C48.241 135.47 40 145.911 40 158.042V183.25C40 185.321 41.6793 187 43.75 187H73.7361V198.25C73.7361 200.321 75.4154 202 77.4861 202H118.625C120.696 202 122.375 200.321 122.375 198.25C122.375 196.179 120.696 194.5 118.625 194.5H101.884V177.996C101.884 175.925 100.205 174.246 98.134 174.246C96.0633 174.246 94.384 175.925 94.384 177.996V194.5H81.2357V177.581C81.2357 164.863 89.8735 153.911 102.241 150.948L120.685 146.528L132.552 173.526C133.151 174.888 134.497 175.767 135.985 175.767H135.985C137.472 175.767 138.819 174.888 139.418 173.527L151.273 146.568L169.663 150.961C182.042 153.918 190.687 164.872 190.687 177.599V181.783C190.496 182.234 190.389 182.729 190.389 183.25C190.389 183.77 190.496 184.266 190.687 184.716V194.5H177.616V177.996C177.616 175.925 175.937 174.246 173.866 174.246C171.795 174.246 170.116 175.925 170.116 177.996V194.5H151.75C149.68 194.5 148 196.179 148 198.25C148 200.321 149.68 202 151.75 202H194.437C196.508 202 198.187 200.321 198.187 198.25V187H228.25C230.321 187 232 185.321 232 183.25V158.042C232 145.911 223.759 135.47 211.96 132.652ZM191.959 132.826L186.233 146.535L180.585 133.006C180.6 132.87 180.611 132.733 180.611 132.596C180.611 132.561 180.611 132.526 180.61 132.491V127.86C182.428 128.287 184.321 128.52 186.268 128.52C188.223 128.52 190.124 128.285 191.95 127.854V132.623C191.95 132.691 191.955 132.758 191.959 132.826ZM119.107 135.838C116.753 134.378 114.17 133.297 111.443 132.644L98.8904 129.636V124.718C102.012 122.75 104.664 120.105 106.64 116.99C109.468 122.513 113.807 127.139 119.107 130.32V135.838ZM110.538 102.005V93.3308H121.089C130.661 93.3308 139.732 89.5478 146.434 82.8529L161.517 91.7138V102.885C161.051 116.539 149.805 127.505 136.039 127.505C121.977 127.505 110.538 116.065 110.538 102.005ZM152.85 130.391C158.183 127.22 162.553 122.591 165.402 117.056C167.374 120.143 170.01 122.763 173.11 124.718V129.636L160.557 132.644C157.813 133.301 155.216 134.392 152.85 135.866L152.85 130.391ZM186.268 121.02C176.756 121.02 169.017 113.281 169.017 103.77V103.158C169.03 102.775 169.039 93.0747 169.039 93.0747C176.412 96.7002 184.539 98.6003 192.793 98.6003H203.519V103.77C203.518 113.282 195.779 121.02 186.268 121.02ZM186.268 72.5446C195.779 72.5446 203.518 80.2831 203.518 89.7946V90.7231V91.0999H192.792C184.69 91.0999 176.728 88.9726 169.712 84.9402C171.814 77.7844 178.44 72.5446 186.268 72.5446ZM110.538 82.5394C110.538 68.4784 121.977 57.0394 136.039 57.0394C150.1 57.0394 161.539 68.4788 161.539 82.5394V83.0284L147.621 74.8516C146.042 73.9234 144.024 74.2726 142.848 75.6762C137.44 82.1292 129.509 85.8304 121.09 85.8304H110.538V82.5394ZM68.4816 89.7946C68.4816 80.2827 76.2205 72.5446 85.7324 72.5446C93.5598 72.5446 100.186 77.7844 102.288 84.9406C95.2712 88.9726 87.31 91.1003 79.2074 91.1003H68.4816V90.7234V89.7946ZM68.4816 98.5999H79.2078C87.4698 98.5999 95.6054 96.6964 102.983 93.0638V103.77C102.983 113.282 95.2443 121.02 85.7324 121.02C76.2205 121.02 68.4816 113.281 68.4816 103.77C68.4816 103.77 68.4816 98.5999 68.4816 98.5999ZM85.7324 128.52C87.6794 128.52 89.5716 128.286 91.3904 127.86V132.386C91.3863 132.456 91.3844 132.527 91.3844 132.597C91.3844 132.716 91.3956 132.833 91.4069 132.95L85.7331 146.535L80.038 132.893C80.0444 132.804 80.0496 132.714 80.0496 132.623V127.854C81.8755 128.285 83.7768 128.52 85.7324 128.52ZM73.7361 177.581V179.5H62.5V162.839C62.5 160.768 60.8207 159.089 58.75 159.089C56.6793 159.089 55 160.768 55 162.839V179.5H47.5V158.042C47.5 149.397 53.3733 141.956 61.7826 139.947L73.6694 137.107L81.4274 155.69C76.5752 161.718 73.7361 169.358 73.7361 177.581ZM100.494 143.654C98.2795 144.185 96.1634 144.923 94.1541 145.834L97.8066 137.088L109.695 139.937C110.617 140.158 111.516 140.45 112.385 140.805L100.494 143.654ZM135.986 162.7L126.607 141.363V133.629C129.597 134.523 132.762 135.005 136.038 135.005C139.271 135.005 142.396 134.535 145.35 133.665V141.405L135.986 162.7ZM159.546 140.833C160.437 140.466 161.358 140.164 162.305 139.937L174.165 137.095L177.832 145.88C175.797 144.953 173.652 144.203 171.405 143.667L159.546 140.833ZM224.5 179.5H217V162.839C217 160.768 215.321 159.089 213.25 159.089C211.179 159.089 209.5 160.768 209.5 162.839V179.5H198.187V177.599C198.187 169.387 195.358 161.757 190.519 155.735L198.302 137.1L210.217 139.947C218.627 141.956 224.5 149.397 224.5 158.042V179.5Z" fill="#1F4FDE"/>
<path d="M123.422 96.7188C122.436 96.7188 121.468 97.12 120.771 97.8175C120.073 98.515 119.672 99.4825 119.672 100.469C119.672 101.455 120.073 102.423 120.771 103.12C121.468 103.818 122.436 104.219 123.422 104.219C124.412 104.219 125.376 103.818 126.073 103.12C126.774 102.423 127.172 101.455 127.172 100.469C127.172 99.4825 126.774 98.515 126.073 97.8175C125.376 97.12 124.408 96.7188 123.422 96.7188Z" fill="#1F4FDE"/>
<path d="M148.5 104.219C149.486 104.219 150.454 103.818 151.151 103.12C151.852 102.423 152.25 101.455 152.25 100.469C152.25 99.4825 151.852 98.515 151.151 97.8175C150.454 97.12 149.486 96.7188 148.5 96.7188C147.514 96.7188 146.546 97.12 145.849 97.8175C145.151 98.515 144.75 99.4825 144.75 100.469C144.75 101.455 145.151 102.423 145.849 103.12C146.547 103.818 147.514 104.219 148.5 104.219Z" fill="#1F4FDE"/>
<path d="M143.216 110.44C141.751 108.976 139.377 108.976 137.912 110.44C136.803 111.549 134.999 111.549 133.89 110.44C132.425 108.976 130.052 108.976 128.587 110.44C127.122 111.904 127.122 114.279 128.587 115.744C130.603 117.76 133.252 118.768 135.901 118.768C138.55 118.768 141.199 117.76 143.215 115.744C144.68 114.279 144.68 111.904 143.216 110.44Z" fill="#1F4FDE"/>
<path d="M192.484 37.75H195.057C197.127 37.75 198.807 36.0711 198.807 34C198.807 31.9289 197.127 30.25 195.057 30.25H192.484C190.414 30.25 188.734 31.9289 188.734 34C188.734 36.0711 190.414 37.75 192.484 37.75Z" fill="#1F4FDE"/>
<path d="M210.68 37.75H213.252C215.323 37.75 217.002 36.0711 217.002 34C217.002 31.9289 215.323 30.25 213.252 30.25H210.68C208.609 30.25 206.93 31.9289 206.93 34C206.93 36.0711 208.609 37.75 210.68 37.75Z" fill="#1F4FDE"/>
<path d="M202.867 48.1346C204.938 48.1346 206.617 46.4558 206.617 44.3846V41.8125C206.617 39.7414 204.938 38.0625 202.867 38.0625C200.796 38.0625 199.117 39.7414 199.117 41.8125V44.3846C199.117 46.4558 200.796 48.1346 202.867 48.1346Z" fill="#1F4FDE"/>
<path d="M202.867 29.9393C204.938 29.9393 206.617 28.2604 206.617 26.1893V23.6172C206.617 21.5461 204.938 19.8672 202.867 19.8672C200.796 19.8672 199.117 21.5461 199.117 23.6172V26.1893C199.117 28.2604 200.796 29.9393 202.867 29.9393Z" fill="#1F4FDE"/>
<path d="M58.543 37.75H61.1147C63.1855 37.75 64.8647 36.0711 64.8647 34C64.8647 31.9289 63.1855 30.25 61.1147 30.25H58.543C56.4722 30.25 54.793 31.9289 54.793 34C54.793 36.0711 56.4722 37.75 58.543 37.75Z" fill="#1F4FDE"/>
<path d="M76.7383 37.75H79.31C81.3808 37.75 83.06 36.0711 83.06 34C83.06 31.9289 81.3808 30.25 79.31 30.25H76.7383C74.6675 30.25 72.9883 31.9289 72.9883 34C72.9883 36.0711 74.6672 37.75 76.7383 37.75Z" fill="#1F4FDE"/>
<path d="M68.9258 48.1346C70.9965 48.1346 72.6758 46.4558 72.6758 44.3846V41.8125C72.6758 39.7414 70.9965 38.0625 68.9258 38.0625C66.855 38.0625 65.1758 39.7414 65.1758 41.8125V44.3846C65.1758 46.4558 66.8547 48.1346 68.9258 48.1346Z" fill="#1F4FDE"/>
<path d="M68.9258 29.9393C70.9965 29.9393 72.6758 28.2604 72.6758 26.1893V23.6172C72.6758 21.5461 70.9965 19.8672 68.9258 19.8672C66.855 19.8672 65.1758 21.5461 65.1758 23.6172V26.1893C65.1758 28.2604 66.8547 29.9393 68.9258 29.9393Z" fill="#1F4FDE"/>
<path d="M136 41.6495C138.071 41.6495 139.75 39.9706 139.75 37.8995V28.0332C139.75 25.9621 138.071 24.2832 136 24.2832C133.929 24.2832 132.25 25.9621 132.25 28.0332V37.8995C132.25 39.9706 133.929 41.6495 136 41.6495Z" fill="#1F4FDE"/>
<path d="M136 17.5C136.986 17.5 137.954 17.0987 138.651 16.4012C139.349 15.7037 139.75 14.7363 139.75 13.75C139.75 12.7637 139.349 11.7963 138.651 11.0988C137.954 10.4013 136.986 10 136 10C135.014 10 134.046 10.4013 133.349 11.0988C132.651 11.7963 132.25 12.7637 132.25 13.75C132.25 14.7363 132.651 15.7037 133.349 16.4012C134.047 17.0987 135.014 17.5 136 17.5Z" fill="#1F4FDE"/>
<path d="M117.555 30.3486C118.288 31.081 119.247 31.447 120.207 31.447C121.166 31.447 122.126 31.081 122.858 30.3486C124.323 28.8843 124.323 26.5098 122.858 25.045L117.371 19.5573C115.906 18.0929 113.532 18.0929 112.067 19.5573C110.603 21.0216 110.603 23.3961 112.067 24.8609L117.555 30.3486Z" fill="#1F4FDE"/>
<path d="M151.61 31.4234C152.57 31.4234 153.529 31.0574 154.261 30.325L159.932 24.6539C161.397 23.1895 161.397 20.815 159.932 19.3502C158.468 17.8859 156.094 17.8859 154.629 19.3502L148.958 25.0214C147.493 26.4857 147.493 28.8602 148.958 30.325C149.69 31.0574 150.65 31.4234 151.61 31.4234Z" fill="#1F4FDE"/>
</g>
<defs>
<linearGradient id="paint0_linear_1432_6700" x1="4.70652e-07" y1="114.745" x2="238.819" y2="114.745" gradientUnits="userSpaceOnUse">
<stop stop-color="#D2DEFF" stop-opacity="0"/>
<stop offset="1" stop-color="#B7C5FF"/>
</linearGradient>
<clipPath id="clip0_1432_6700">
<rect width="192" height="192" fill="white" transform="translate(40 10)"/>
</clipPath>
</defs>
</svg>
