<svg width="271" height="230" viewBox="0 0 271 230" fill="none" xmlns="http://www.w3.org/2000/svg">
<path d="M264.08 120.65C252.576 95.3438 225.634 80.7791 213.602 56.4349C201.798 32.5553 193.386 -8.65033 161.065 1.61022C106.69 18.8716 8.51482 93.1041 35.649 157.537C42.1932 173.077 60.9069 179.28 72.773 191.252C93.7048 212.371 115.333 226.313 146.44 228.687C207.781 233.369 295.87 190.589 264.08 120.65V120.65Z" fill="url(#paint0_linear_405_10897)"/>
<g clip-path="url(#clip0_405_10897)">
<path d="M37.8665 58.8385C47.747 58.8385 56.345 64.0418 60.8 71.7236C66.6013 65.8327 70.1752 57.8231 70.1752 48.9884C70.1752 30.9015 55.2145 16.2383 36.7583 16.2383C18.3021 16.2383 3.33984 30.9015 3.33984 48.9884C3.33984 58.5842 7.55173 67.2159 14.2597 73.2059C14.4164 72.7262 14.6259 72.2513 14.8946 71.786C19.3399 64.0706 27.9572 58.8385 37.8665 58.8385Z" fill="#C5D0FF"/>
<path d="M36.7597 16.2383C35.143 16.2383 33.552 16.3534 31.9961 16.5709C48.196 18.8367 60.6526 32.4862 60.6526 48.99C60.6526 55.1111 58.9336 60.8357 55.9498 65.7352C57.8687 67.4797 59.5093 69.4961 60.8013 71.7236C66.6027 65.8327 70.1765 57.8231 70.1765 48.99C70.1781 30.9015 55.2158 16.2383 36.7597 16.2383Z" fill="#9BACF2"/>
<path d="M60.802 71.723C56.347 64.0412 47.749 58.8379 37.8684 58.8379C27.9592 58.8379 19.3419 64.0684 14.8965 71.7838C14.6279 72.2491 14.4184 72.7256 14.2617 73.2037C20.2006 78.5062 28.0951 81.7394 36.7603 81.7394C46.2027 81.7394 54.7256 77.8937 60.802 71.723Z" fill="#FFF4F1"/>
<path d="M37.8673 58.8379C36.2394 58.8379 34.6484 58.9818 33.1037 59.2504C38.4301 60.1827 43.1921 62.6452 46.8635 66.1407C49.8073 68.9439 49.4604 73.7586 46.0848 76.0244C41.9576 78.7956 37.1621 80.6825 31.9844 81.4068C33.5434 81.6259 35.1377 81.7394 36.7591 81.7394C46.2015 81.7394 54.7228 77.8937 60.8008 71.723C56.3459 64.0412 47.7478 58.8379 37.8673 58.8379Z" fill="#DBDEDF"/>
<path d="M45.1939 38.4018C45.1939 32.9203 41.6872 28.4766 37.3634 28.4766C33.038 28.4766 29.5312 32.9203 29.5312 38.4018C29.5312 43.8818 33.038 48.3255 37.3634 48.3255C41.6872 48.3255 45.1939 43.8818 45.1939 38.4018Z" fill="white"/>
<path d="M173.882 58.8385C183.763 58.8385 192.361 64.0418 196.816 71.7236C202.617 65.8327 206.191 57.8231 206.191 48.9884C206.191 30.9015 191.229 16.2383 172.772 16.2383C154.316 16.2383 139.355 30.9015 139.355 48.9884C139.355 58.5842 143.566 67.2159 150.275 73.2059C150.432 72.7262 150.642 72.2513 150.91 71.786C155.354 64.0706 163.973 58.8385 173.882 58.8385Z" fill="#8EA4FD"/>
<path d="M172.77 16.2383C171.153 16.2383 169.564 16.3534 168.008 16.5709C184.208 18.8367 196.663 32.4862 196.663 48.99C196.663 55.1111 194.945 60.8357 191.96 65.7352C193.879 67.4797 195.521 69.4961 196.813 71.7236C202.613 65.8327 206.188 57.8231 206.188 48.99C206.188 30.9015 191.226 16.2383 172.77 16.2383Z" fill="#9BACF2"/>
<path d="M196.814 71.723C192.359 64.0412 183.761 58.8379 173.88 58.8379C163.971 58.8379 155.352 64.0684 150.908 71.7838C150.64 72.2491 150.43 72.7256 150.273 73.2037C156.211 78.5062 164.107 81.7394 172.772 81.7394C182.214 81.7394 190.736 77.8937 196.814 71.723Z" fill="#FFF4F1"/>
<path d="M173.879 58.8379C172.251 58.8379 170.66 58.9818 169.115 59.2504C174.442 60.1827 179.202 62.6452 182.875 66.1407C185.819 68.9439 185.472 73.7586 182.096 76.0244C177.969 78.7956 173.174 80.6825 167.996 81.4068C169.555 81.6259 171.149 81.7394 172.769 81.7394C182.213 81.7394 190.735 77.8937 196.813 71.723C192.358 64.0412 183.759 58.8379 173.879 58.8379Z" fill="#DBDEDF"/>
<path d="M181.206 38.4018C181.206 32.9203 177.699 28.4766 173.374 28.4766C169.048 28.4766 165.543 32.9203 165.543 38.4018C165.543 43.8818 169.048 48.3255 173.374 48.3255C177.699 48.3255 181.206 43.8818 181.206 38.4018Z" fill="white"/>
<path d="M11.3783 165.601C6.36684 171.329 3.33984 178.772 3.33984 186.908C3.33984 196.503 7.55173 205.134 14.2597 211.124C14.4164 210.645 14.6259 210.17 14.8946 209.704C19.3399 201.989 27.9572 196.757 37.8665 196.757C47.747 196.757 56.345 201.962 60.8 209.644C66.6013 203.753 70.1752 195.741 70.1752 186.908C70.1752 168.82 55.2145 154.158 36.7583 154.158C31.3216 154.158 26.1886 155.429 21.6521 157.687" fill="#5E8EE1"/>
<path d="M36.7597 154.158C35.143 154.158 33.552 154.273 31.9961 154.491C48.196 156.757 60.6526 170.408 60.6526 186.91C60.6526 193.031 58.9336 198.757 55.9498 203.657C57.8687 205.4 59.5093 207.418 60.8013 209.645C66.6027 203.754 70.1765 195.743 70.1765 186.91C70.1781 168.821 55.2158 154.158 36.7597 154.158Z" fill="#467BFF"/>
<path d="M60.802 209.643C56.347 201.961 47.749 196.758 37.8684 196.758C27.9592 196.758 19.3419 201.988 14.8965 209.704C14.6279 210.171 14.4184 210.646 14.2617 211.125C20.2006 216.426 28.0951 219.659 36.7603 219.659C46.2027 219.659 54.7256 215.815 60.802 209.643Z" fill="#FFF4F1"/>
<path d="M37.8673 196.758C36.2394 196.758 34.6484 196.902 33.1037 197.172C38.4301 198.103 43.1921 200.565 46.8635 204.062C49.8073 206.865 49.4604 211.679 46.0848 213.944C41.9576 216.717 37.1621 218.604 31.9844 219.327C33.5434 219.546 35.1377 219.659 36.7591 219.659C46.2015 219.659 54.7228 215.815 60.8008 209.643C56.3459 201.961 47.7478 196.758 37.8673 196.758Z" fill="#DBDEDF"/>
<path d="M45.1939 176.322C45.1939 170.84 41.6872 166.396 37.3634 166.396C33.038 166.396 29.5312 170.84 29.5312 176.322C29.5312 181.802 33.038 186.245 37.3634 186.245C41.6872 186.245 45.1939 181.802 45.1939 176.322Z" fill="white"/>
<path d="M173.882 196.758C183.763 196.758 192.361 201.962 196.816 209.644C202.617 203.753 206.191 195.743 206.191 186.91C206.191 168.821 191.229 154.158 172.772 154.158C154.316 154.158 139.355 168.821 139.355 186.91C139.355 196.504 143.566 205.136 150.275 211.126C150.432 210.646 150.642 210.171 150.91 209.706C155.354 201.99 163.973 196.758 173.882 196.758Z" fill="#778DEA"/>
<path d="M172.77 154.158C171.153 154.158 169.564 154.273 168.008 154.491C184.208 156.757 196.663 170.408 196.663 186.91C196.663 193.031 194.945 198.757 191.96 203.657C193.879 205.4 195.521 207.418 196.813 209.645C202.613 203.754 206.188 195.743 206.188 186.91C206.188 168.821 191.226 154.158 172.77 154.158Z" fill="#9BACF2"/>
<path d="M196.814 209.643C192.359 201.961 183.761 196.758 173.88 196.758C163.971 196.758 155.352 201.988 150.908 209.704C150.64 210.171 150.43 210.646 150.273 211.125C156.211 216.426 164.107 219.659 172.772 219.659C182.214 219.659 190.736 215.815 196.814 209.643Z" fill="#FFF4F1"/>
<path d="M173.879 196.758C172.251 196.758 170.66 196.902 169.115 197.172C174.442 198.103 179.202 200.565 182.875 204.062C185.819 206.865 185.472 211.679 182.096 213.944C177.969 216.717 173.174 218.604 167.996 219.327C169.555 219.546 171.149 219.659 172.769 219.659C182.213 219.659 190.735 215.815 196.813 209.643C192.358 201.961 183.759 196.758 173.879 196.758Z" fill="#DBDEDF"/>
<path d="M181.206 176.322C181.206 170.84 177.699 166.396 173.374 166.396C169.048 166.396 165.543 170.84 165.543 176.322C165.543 181.802 169.048 186.245 173.374 186.245C177.699 186.245 181.206 181.802 181.206 176.322Z" fill="white"/>
<path d="M145.872 114.983L144.16 115.025C143.714 106.847 140.75 99.3335 136.04 93.2316L137.479 92.181C139.833 90.4604 140.16 87.0656 138.171 84.9357C134.087 80.5607 129.157 76.9884 123.741 74.4811C121.093 73.2563 117.97 74.6314 117.073 77.4074L116.363 79.6061C112.746 78.5043 108.912 77.9063 104.94 77.9063C100.658 77.9063 96.5368 78.6035 92.6751 79.8763L91.8836 77.4458C90.9786 74.673 87.8492 73.3074 85.2076 74.5419C79.798 77.0652 74.8794 80.6535 70.8098 85.0412C68.827 87.1776 69.1644 90.5707 71.5246 92.2833L73.4738 93.6985C68.7422 100.02 65.8815 107.812 65.6816 116.251L63.758 116.253C60.8461 116.256 58.5867 118.799 58.9289 121.69C59.6372 127.678 61.5081 133.419 64.46 138.667C65.8879 141.205 69.2139 141.926 71.5677 140.21L72.6039 139.454C77.3323 146.299 84.1746 151.571 92.1794 154.33L91.962 155.004C91.0633 157.775 92.7855 160.718 95.643 161.279C98.5612 161.851 101.537 162.141 104.538 162.141H104.542C107.557 162.141 110.548 161.848 113.479 161.269C116.338 160.705 118.057 157.763 117.157 154.992L117.016 154.561C125.66 151.761 132.997 146.042 137.866 138.569L138.665 139.121C141.067 140.774 144.379 139.962 145.733 137.381C148.514 132.082 150.257 126.249 150.836 120.31C151.117 117.408 148.787 114.913 145.872 114.983ZM104.94 140.274C92.2114 140.274 81.8544 129.917 81.8544 117.188C81.8544 104.46 92.2114 94.103 104.94 94.103C117.67 94.103 128.025 104.46 128.025 117.188C128.025 129.917 117.67 140.274 104.94 140.274Z" fill="#7799FF"/>
<path d="M145.873 114.984L144.16 115.025C143.714 106.848 140.751 99.3339 136.04 93.2319L137.479 92.1814C139.833 90.4608 140.161 87.0676 138.172 84.9361C134.088 80.5611 129.158 76.9888 123.742 74.4831C121.094 73.2582 117.971 74.6334 117.074 77.4078L116.364 79.6065C115.28 79.2755 114.172 78.9956 113.051 78.759C124.228 87.0692 131.47 100.375 131.47 115.374C131.47 137.932 115.089 156.66 93.5742 160.322C94.1579 160.785 94.8567 161.124 95.6434 161.279C98.5616 161.853 101.537 162.143 104.539 162.143H104.542C107.558 162.143 110.548 161.85 113.479 161.271C116.338 160.707 118.057 157.765 117.157 154.994L117.016 154.562C125.661 151.762 132.997 146.044 137.866 138.571L138.666 139.121C141.066 140.775 144.378 139.964 145.734 137.382C148.514 132.084 150.257 126.251 150.834 120.31C151.118 117.408 148.788 114.913 145.873 114.984Z" fill="#9BACF2"/>
<path d="M12.2091 75.5059C18.9395 81.5151 27.6575 84.8252 36.7608 84.8252C46.7357 84.8252 56.0533 80.9411 62.998 73.8909C62.998 73.8909 62.9996 73.8893 63.0012 73.8877C69.6181 67.1685 73.2639 58.3258 73.2639 48.9889C73.2639 29.2295 56.888 13.1543 36.7608 13.1543C16.6336 13.1543 0.257812 29.2295 0.257812 48.9889C0.257812 59.0613 4.61362 68.726 12.2091 75.5059ZM18.1384 72.399C22.3215 65.9116 29.7778 61.9236 37.869 61.9236C45.4597 61.9236 52.5035 65.4415 56.7985 71.2429C51.2578 76.0352 44.2348 78.656 36.7608 78.656C29.9729 78.656 23.4488 76.4446 18.1384 72.399ZM36.7608 19.3234C53.4869 19.3234 67.0948 32.6307 67.0948 48.9889C67.0948 55.4363 64.984 61.6038 61.0887 66.7016C55.5976 59.8656 47.0379 55.7529 37.869 55.7529C28.0732 55.7529 18.989 60.4349 13.5811 68.1199C8.9966 62.7983 6.42693 56.0103 6.42693 48.9889C6.42693 32.6307 20.0348 19.3234 36.7608 19.3234Z" fill="#1F4FDE"/>
<path d="M37.362 51.4107C43.3808 51.4107 48.2771 45.5741 48.2771 38.4024C48.2771 31.2291 43.3808 25.3926 37.362 25.3926C31.3432 25.3926 26.4453 31.2291 26.4453 38.4024C26.4453 45.5757 31.3416 51.4107 37.362 51.4107ZM37.362 31.5617C39.9349 31.5617 42.108 34.6942 42.108 38.4024C42.108 42.109 39.9349 45.2415 37.362 45.2415C34.7891 45.2415 32.6144 42.109 32.6144 38.4024C32.6144 34.6942 34.7875 31.5617 37.362 31.5617Z" fill="#1F4FDE"/>
<path d="M148.219 75.5059C154.95 81.5151 163.669 84.8252 172.771 84.8252C182.747 84.8252 192.067 80.9411 199.011 73.8877C205.63 67.1685 209.274 58.3258 209.274 48.9889C209.274 29.2295 192.9 13.1543 172.771 13.1543C152.644 13.1543 136.27 29.2295 136.27 48.9889C136.27 59.0613 140.625 68.726 148.219 75.5059ZM154.15 72.399C158.333 65.9116 165.79 61.9236 173.881 61.9236C181.471 61.9236 188.515 65.4415 192.809 71.2429C187.268 76.0352 180.247 78.656 172.771 78.656C165.983 78.656 159.459 76.4446 154.15 72.399ZM172.771 19.3234C189.497 19.3234 203.105 32.6307 203.105 48.9889C203.105 55.4363 200.994 61.6038 197.099 66.7016C191.608 59.8656 183.05 55.7545 173.881 55.7545C164.085 55.7545 154.999 60.4349 149.593 68.1199C145.008 62.7999 142.439 56.0119 142.439 48.9889C142.439 32.6307 156.047 19.3234 172.771 19.3234Z" fill="#1F4FDE"/>
<path d="M173.372 51.4107C179.391 51.4107 184.289 45.5741 184.289 38.4024C184.289 31.2291 179.391 25.3926 173.372 25.3926C167.353 25.3926 162.457 31.2291 162.457 38.4024C162.457 45.5757 167.353 51.4107 173.372 51.4107ZM173.372 31.5617C175.945 31.5617 178.12 34.6942 178.12 38.4024C178.12 42.109 175.945 45.2415 173.372 45.2415C170.799 45.2415 168.626 42.109 168.626 38.4024C168.626 34.6942 170.799 31.5617 173.372 31.5617Z" fill="#1F4FDE"/>
<path d="M172.771 151.072C152.644 151.072 136.27 167.147 136.27 186.907C136.27 196.979 140.625 206.644 148.219 213.425C154.95 219.433 163.669 222.743 172.771 222.743C182.747 222.743 192.067 218.859 199.011 211.807C205.63 205.086 209.274 196.244 209.274 186.908C209.274 167.149 192.9 151.072 172.771 151.072ZM154.15 210.319C158.333 203.83 165.79 199.842 173.881 199.842C181.471 199.842 188.515 203.359 192.809 209.161C187.268 213.953 180.247 216.574 172.771 216.574C165.983 216.574 159.459 214.364 154.15 210.319ZM197.099 204.621C191.608 197.784 183.05 193.672 173.881 193.672C164.085 193.672 154.999 198.353 149.593 206.039C145.008 200.718 142.439 193.93 142.439 186.908C142.439 170.55 156.045 157.241 172.771 157.241C189.497 157.241 203.105 170.55 203.105 186.908C203.105 193.356 200.994 199.522 197.099 204.621Z" fill="#1F4FDE"/>
<path d="M173.372 163.312C167.353 163.312 162.457 169.149 162.457 176.322C162.457 183.494 167.353 189.331 173.372 189.331C179.391 189.331 184.289 183.496 184.289 176.322C184.289 169.149 179.391 163.312 173.372 163.312ZM173.372 183.161C170.799 183.161 168.626 180.029 168.626 176.322C168.626 172.614 170.799 169.482 173.372 169.482C175.945 169.482 178.12 172.614 178.12 176.322C178.12 180.029 175.945 183.161 173.372 183.161Z" fill="#1F4FDE"/>
<path d="M36.7608 151.072C30.9627 151.072 25.4188 152.369 20.2811 154.924C18.7556 155.684 18.1336 157.536 18.8931 159.061C19.651 160.585 21.5027 161.207 23.0282 160.447C27.3041 158.321 31.9253 157.241 36.7608 157.241C53.4869 157.241 67.0948 170.55 67.0948 186.908C67.0948 193.356 64.984 199.523 61.0887 204.621C55.5976 197.784 47.0395 193.672 37.869 193.672C28.0748 193.672 18.989 198.353 13.5811 206.039C8.9982 200.718 6.42693 193.93 6.42693 186.908C6.42693 180.183 8.6704 173.841 12.9159 168.571C13.984 167.243 13.7746 165.302 12.4473 164.234C11.1201 163.166 9.17889 163.375 8.11073 164.703C2.97299 171.081 0.257812 178.76 0.257812 186.908C0.257812 196.979 4.61362 206.644 12.2091 213.425C18.9379 219.435 27.6575 222.743 36.7608 222.743C46.7373 222.743 56.0565 218.859 63.0012 211.807C69.6181 205.086 73.2639 196.245 73.2639 186.908C73.2639 167.149 56.888 151.072 36.7608 151.072ZM18.1384 210.319C22.3215 203.83 29.7778 199.842 37.869 199.842C45.4597 199.842 52.5035 203.359 56.7985 209.161C51.2562 213.953 44.2348 216.574 36.7608 216.574C29.9729 216.574 23.4488 214.364 18.1384 210.319Z" fill="#1F4FDE"/>
<path d="M48.2771 176.323C48.2771 169.149 43.3808 163.314 37.362 163.314C31.3432 163.314 26.4453 169.149 26.4453 176.323C26.4453 183.496 31.3432 189.331 37.362 189.331C43.3808 189.331 48.2771 183.496 48.2771 176.323ZM32.6144 176.323C32.6144 172.615 34.7891 169.484 37.362 169.484C39.9349 169.484 42.108 172.615 42.108 176.323C42.108 180.031 39.9349 183.162 37.362 183.162C34.7891 183.162 32.6144 180.029 32.6144 176.323Z" fill="#1F4FDE"/>
<path d="M143.335 142.835C145.54 142.291 147.409 140.827 148.463 138.817C151.41 133.202 153.292 126.907 153.905 120.61C154.124 118.35 153.363 116.1 151.816 114.437C150.537 113.062 148.821 112.192 146.982 111.961C146.181 105.472 143.893 99.2993 140.266 93.8385C141.544 92.5433 142.352 90.8355 142.524 88.9982C142.739 86.7388 141.974 84.4905 140.426 82.8323C136.099 78.1951 130.778 74.3398 125.037 71.6838C122.978 70.7307 120.603 70.7067 118.521 71.6166C116.625 72.4465 115.133 73.9816 114.352 75.8813C107.902 74.4101 101.103 74.4773 94.6728 76.0907C93.9085 74.1111 92.3766 72.5105 90.4193 71.6614C88.3358 70.7579 85.9596 70.7883 83.9032 71.7477C78.1706 74.4229 72.8602 78.2958 68.5492 82.9442C67.0061 84.6088 66.2481 86.8587 66.4688 89.1182C66.6703 91.1793 67.6681 93.0742 69.2336 94.4046C65.5941 100.086 63.3922 106.5 62.7702 113.233C60.869 113.472 59.1036 114.394 57.818 115.843C56.3117 117.54 55.6017 119.802 55.8671 122.054C56.6251 128.464 58.6127 134.563 61.7724 140.181C62.8838 142.157 64.793 143.566 67.0093 144.049C68.6403 144.404 70.3273 144.233 71.8368 143.585C76.2806 149.137 82.1091 153.539 88.6444 156.281C88.6028 157.762 88.9738 159.241 89.7397 160.541C90.8911 162.497 92.8259 163.869 95.0502 164.307C98.1587 164.918 101.35 165.226 104.544 165.226C107.748 165.226 110.956 164.915 114.077 164.297C116.303 163.858 118.236 162.482 119.386 160.525C120.093 159.321 120.464 157.964 120.48 156.593C127.723 153.724 134.089 148.867 138.797 142.616C140.242 143.124 141.821 143.209 143.335 142.835ZM137.268 135.546C136.453 135.708 135.736 136.191 135.282 136.888C130.746 143.85 123.921 149.084 116.066 151.63C115.288 151.882 114.64 152.432 114.269 153.163C113.897 153.892 113.829 154.74 114.084 155.519L114.223 155.949C114.439 156.612 114.216 157.146 114.064 157.404C113.914 157.661 113.559 158.112 112.881 158.247C107.44 159.321 101.689 159.326 96.2383 158.255C95.5619 158.122 95.2069 157.671 95.0566 157.415C94.9047 157.156 94.6808 156.622 94.8967 155.958L95.1157 155.284C95.6338 153.683 94.7751 151.962 93.1857 151.415C85.9324 148.916 79.5234 144.047 75.142 137.704C74.6687 137.019 73.9396 136.555 73.1208 136.416C72.9482 136.388 72.7755 136.372 72.6044 136.372C71.9551 136.372 71.3187 136.578 70.7878 136.965L69.7501 137.72C69.1888 138.131 68.6131 138.084 68.3205 138.022C68.0295 137.958 67.489 137.761 67.1484 137.157C64.3901 132.252 62.6551 126.928 61.9931 121.329C61.9115 120.64 62.2313 120.162 62.4296 119.94C62.6295 119.716 63.066 119.34 63.7616 119.34L65.6853 119.339C67.3595 119.337 68.7267 118 68.7666 116.326C68.9441 108.769 71.4259 101.584 75.9432 95.5479C76.4373 94.8875 76.6467 94.056 76.5236 93.2389C76.4005 92.4234 75.9544 91.6894 75.286 91.2049L73.3367 89.7898C72.7707 89.3788 72.6379 88.8175 72.6092 88.5185C72.5788 88.2227 72.6012 87.6486 73.0713 87.1401C76.8466 83.0706 81.4951 79.6806 86.5129 77.3396C87.1381 77.047 87.6898 77.2021 87.9632 77.3204C88.2398 77.4403 88.7339 77.7409 88.9514 78.4061L89.7445 80.8351C89.9988 81.6154 90.5537 82.2614 91.2844 82.6308C92.0152 83.0002 92.8643 83.0658 93.643 82.8083C97.3 81.6042 101.101 80.9918 104.94 80.9918C108.514 80.9918 112.056 81.5195 115.467 82.5573C117.077 83.0498 118.783 82.1575 119.301 80.5553L120.01 78.3566C120.226 77.6914 120.72 77.3892 120.995 77.2692C121.267 77.1493 121.82 76.9926 122.447 77.282C127.471 79.607 132.127 82.9826 135.917 87.041C136.389 87.5463 136.413 88.1204 136.384 88.4178C136.355 88.7168 136.224 89.2797 135.66 89.6906L134.22 90.7428C133.549 91.2337 133.104 91.9757 132.986 92.7992C132.869 93.6227 133.09 94.459 133.598 95.1178C138.095 100.942 140.682 107.883 141.08 115.195C141.171 116.86 142.574 118.165 144.235 118.11L145.946 118.069C146.647 118.048 147.094 118.419 147.299 118.638C147.502 118.857 147.832 119.326 147.764 120.013C147.229 125.524 145.582 131.036 143.002 135.951C142.681 136.563 142.147 136.775 141.857 136.847C141.566 136.918 140.991 136.979 140.415 136.583L139.616 136.033C138.931 135.561 138.084 135.385 137.268 135.546Z" fill="#1F4FDE"/>
<path d="M104.94 91.0195C101.479 91.0195 98.1132 91.6879 94.9359 93.0071C94.9359 93.0071 94.9359 93.0071 94.9343 93.0071C94.6401 93.1303 94.3474 93.2582 94.058 93.3909C92.5085 94.1009 91.8289 95.9318 92.5389 97.4797C93.2489 99.0292 95.0798 99.7088 96.6293 98.9988C96.85 98.8964 97.0738 98.7989 97.2993 98.7045H97.3009C99.725 97.6987 102.295 97.1887 104.94 97.1887C115.968 97.1887 124.94 106.161 124.94 117.19C124.94 128.218 115.968 137.19 104.94 137.19C93.9125 137.19 84.9403 128.218 84.9403 117.19C84.9403 113.421 85.9988 109.746 88.0008 106.565C88.0024 106.564 88.004 106.562 88.0056 106.559C88.1527 106.324 88.3062 106.092 88.4646 105.863C89.432 104.461 89.0802 102.541 87.6778 101.573C86.2739 100.604 84.355 100.958 83.386 102.36C83.1781 102.661 82.9766 102.968 82.7799 103.279C82.7799 103.279 82.7783 103.281 82.7783 103.283C80.1559 107.448 78.7695 112.256 78.7695 117.188C78.7695 131.619 90.5097 143.358 104.94 143.358C119.369 143.358 131.11 131.619 131.11 117.188C131.11 102.758 119.369 91.0195 104.94 91.0195Z" fill="#1F4FDE"/>
<path d="M95.8819 32.2735C96.0099 32.2735 96.141 32.2655 96.2721 32.248C97.9623 32.0337 99.1552 30.4874 98.9409 28.802C98.7282 27.107 97.1852 25.9141 95.495 26.1284C93.8048 26.3427 92.6087 27.8842 92.8214 29.5743C93.0196 31.1334 94.3485 32.2735 95.8819 32.2735Z" fill="#1F4FDE"/>
<path d="M130.103 34.6699C130.38 34.7435 130.66 34.7819 130.93 34.7819C132.283 34.7819 133.522 33.888 133.9 32.524C134.357 30.8786 133.394 29.1804 131.754 28.7231C130.113 28.2705 128.41 29.2332 127.958 30.8738C127.5 32.5144 128.463 34.2142 130.103 34.6699Z" fill="#1F4FDE"/>
<path d="M78.6792 36.2331C79.007 36.2331 79.3412 36.1803 79.669 36.07C81.2825 35.5215 82.146 33.7738 81.5991 32.1587C81.0522 30.5453 79.3029 29.6818 77.691 30.2287C76.076 30.7755 75.2109 32.5249 75.7578 34.1399C76.1943 35.424 77.392 36.2331 78.6792 36.2331Z" fill="#1F4FDE"/>
<path d="M113.315 31.7785C113.389 31.7833 113.464 31.7865 113.537 31.7865C115.141 31.7865 116.494 30.544 116.609 28.921C116.729 27.2212 115.45 25.7453 113.752 25.6254C112.053 25.5022 110.576 26.7863 110.458 28.4844C110.333 30.1826 111.617 31.6586 113.315 31.7785Z" fill="#1F4FDE"/>
<path d="M196.437 126.062C196.557 124.362 195.277 122.886 193.579 122.768C191.881 122.648 190.403 123.927 190.285 125.625C190.165 127.323 191.444 128.801 193.143 128.919C193.218 128.927 193.291 128.927 193.365 128.927C194.969 128.927 196.322 127.686 196.437 126.062Z" fill="#1F4FDE"/>
<path d="M189.542 146.219C189.817 146.292 190.097 146.329 190.369 146.329C191.721 146.329 192.959 145.432 193.338 144.068C193.794 142.426 192.833 140.728 191.19 140.272C189.55 139.815 187.852 140.777 187.394 142.418C186.939 144.059 187.901 145.762 189.542 146.219Z" fill="#1F4FDE"/>
<path d="M188.916 94.0772C189.241 94.0772 189.578 94.0229 189.903 93.9125C191.519 93.3657 192.383 91.6131 191.836 90.0013C191.289 88.3894 189.537 87.5211 187.925 88.068C186.313 88.6149 185.449 90.3674 185.996 91.9793H185.991C186.428 93.2665 187.629 94.0772 188.916 94.0772Z" fill="#1F4FDE"/>
<path d="M189.817 108.583C190.016 110.142 191.343 111.281 192.873 111.281C193.006 111.281 193.132 111.273 193.265 111.257C194.955 111.042 196.151 109.496 195.937 107.806C195.724 106.116 194.178 104.918 192.491 105.132C190.801 105.35 189.605 106.893 189.817 108.583Z" fill="#1F4FDE"/>
<path d="M130.086 198.309C128.469 198.856 127.606 200.603 128.152 202.22C128.589 203.502 129.79 204.313 131.072 204.313C131.402 204.313 131.734 204.259 132.064 204.148C133.676 203.602 134.539 201.854 133.997 200.237C133.449 198.625 131.698 197.762 130.086 198.309Z" fill="#1F4FDE"/>
<path d="M79.6437 199.706C78.0031 199.253 76.3049 200.213 75.8476 201.853C75.3918 203.499 76.3529 205.197 77.9983 205.653C78.2749 205.728 78.55 205.765 78.8218 205.765C80.1746 205.765 81.4123 204.867 81.7944 203.502C82.247 201.861 81.2891 200.163 79.6437 199.706Z" fill="#1F4FDE"/>
<path d="M113.484 202.128C111.793 202.343 110.596 203.889 110.81 205.579C111.008 207.133 112.335 208.273 113.866 208.273C113.997 208.273 114.13 208.265 114.261 208.248C115.951 208.034 117.144 206.492 116.93 204.802C116.715 203.112 115.174 201.914 113.484 202.128Z" fill="#1F4FDE"/>
<path d="M96.4394 202.597C94.7412 202.479 93.2637 203.758 93.1406 205.457C93.0207 207.155 94.2999 208.631 96.0029 208.751C96.0765 208.759 96.1516 208.759 96.2204 208.759C97.829 208.759 99.1818 207.516 99.2969 205.891C99.4169 204.193 98.1376 202.717 96.4394 202.597Z" fill="#1F4FDE"/>
<path d="M20.8384 146.472C21.163 146.472 21.5004 146.42 21.825 146.308C23.4416 145.761 24.3051 144.01 23.7582 142.396C23.2114 140.784 21.4588 139.918 19.847 140.465C18.2351 141.012 17.3668 142.762 17.9137 144.374C18.3503 145.663 19.5511 146.472 20.8384 146.472Z" fill="#1F4FDE"/>
<path d="M13.8187 126.573C14.0153 128.131 15.3394 129.266 16.8744 129.266C17.0008 129.266 17.1335 129.258 17.2646 129.242C18.9548 129.028 20.1509 127.486 19.9334 125.794H19.9382C19.7191 124.104 18.1777 122.908 16.4875 123.122C14.7973 123.34 13.5996 124.883 13.8139 126.573H13.8187Z" fill="#1F4FDE"/>
<path d="M18.5575 94.1074C18.8373 94.1858 19.1124 94.2178 19.3842 94.2178C20.737 94.2226 21.9747 93.3255 22.3568 91.9599C22.8094 90.3193 21.8467 88.6163 20.2061 88.1606C18.5655 87.708 16.8673 88.6707 16.41 90.3113C15.9542 91.9519 16.9169 93.6501 18.5575 94.1074Z" fill="#1F4FDE"/>
<path d="M13.317 108.316C13.1923 110.015 14.4715 111.491 16.1745 111.611C16.248 111.614 16.3184 111.619 16.392 111.619C17.9958 111.619 19.3534 110.376 19.4685 108.751C19.5885 107.053 18.3092 105.577 16.611 105.457C14.908 105.334 13.4353 106.618 13.317 108.316Z" fill="#1F4FDE"/>
</g>
<defs>
<linearGradient id="paint0_linear_405_10897" x1="80.9536" y1="206.097" x2="233.841" y2="53.2094" gradientUnits="userSpaceOnUse">
<stop stop-color="#D0DCFF" stop-opacity="0"/>
<stop offset="1" stop-color="#B5C3FF"/>
</linearGradient>
<clipPath id="clip0_405_10897">
<rect width="209.386" height="210" fill="white" transform="translate(0 13)"/>
</clipPath>
</defs>
</svg>
