<svg width="270" height="234" viewBox="0 0 270 234" fill="none" xmlns="http://www.w3.org/2000/svg">
<path d="M267.94 100.484C262.408 77.3862 231.577 69.2487 213.048 70.2106C188.322 71.4942 177.12 63.6801 182.538 38.4176C185.634 23.9823 188.751 14.1615 166.439 6.54789C147.17 -0.0265828 85.016 -7.16291 72.0722 15.0711C65.7556 25.9217 89.0055 35.8187 78.0333 50.4793C70.2932 60.8217 47.3563 53.1745 34.962 69.1379C26.1663 80.4662 31.7085 99.0257 54.6729 108.872C74.2388 117.26 103.021 122.097 108.291 146.284C110.933 158.407 97.4504 175.395 104.212 193.239C109.438 207.03 125.174 213.116 145.954 192.864C186.955 152.902 178.284 209.959 184.505 221.636C191.632 235.015 216.292 229.54 227.374 218.346C257.675 187.74 275.932 133.851 267.94 100.484V100.484Z" fill="url(#paint0_linear_405_10851)"/>
<g clip-path="url(#clip0_405_10851)">
<path d="M63.245 129.053V219.059C63.245 224.937 58.4797 229.702 52.6017 229.702C46.7237 229.702 41.9584 224.937 41.9584 219.059C41.9584 224.937 37.1931 229.702 31.3151 229.702C25.4372 229.702 20.6719 224.937 20.6719 219.059V129.053H63.245Z" fill="#C2D2FF"/>
<path d="M205.702 44.6738H83.2109V181.399H205.702V44.6738Z" fill="white"/>
<path d="M41.9587 28.2988C51.3935 28.2988 59.0424 35.9473 59.0424 45.3825V47.6602C59.0424 57.095 51.3939 64.7439 41.9587 64.7439C32.5238 64.7439 24.875 57.0954 24.875 47.6602V45.3825C24.875 35.9473 32.5234 28.2988 41.9587 28.2988Z" fill="white"/>
<path d="M20.6728 99.1181V128.368H63.2459V90.8286L77.2487 104.908C82.0223 109.707 89.7038 109.97 94.7938 105.507L105.561 96.0659C109.183 92.8897 109.353 87.3082 105.93 83.9179C103.026 81.0417 98.4604 80.7056 95.1663 83.1258L87.5142 88.7479L73.3656 74.5624C67.0926 68.2731 58.5747 64.7383 49.6917 64.7383H28.778C15.257 64.7379 4.29688 75.698 4.29688 89.2182V133.776C4.29688 138.298 7.96266 141.964 12.4848 141.964C17.007 141.964 20.6728 138.298 20.6728 133.776V99.1181Z" fill="white"/>
<path d="M20.6728 99.1181V128.368H63.2459V90.8286L77.2487 104.908C82.0223 109.707 89.7038 109.97 94.7938 105.507L105.561 96.0659C109.183 92.8897 109.353 87.3082 105.93 83.9179C103.026 81.0417 98.4604 80.7056 95.1663 83.1258L87.5142 88.7479L73.3656 74.5624C67.0926 68.2731 58.5747 64.7383 49.6917 64.7383H28.778C15.257 64.7379 4.29688 75.698 4.29688 89.2182V133.776C4.29688 138.298 7.96266 141.964 12.4848 141.964C17.007 141.964 20.6728 138.298 20.6728 133.776V99.1181Z" fill="#A4C2F7"/>
<path d="M135.989 138.391H116.34V158.474H135.989V138.391Z" fill="#B7B6F6"/>
<path d="M155.637 124.84H135.988V158.473H155.637V124.84Z" fill="#A4C2F7"/>
<path d="M175.286 113.961H155.637V158.473H175.286V113.961Z" fill="#A4C2F7"/>
<path d="M205.7 40.5793H194.478C192.218 40.5793 190.385 42.412 190.385 44.6729C190.385 46.9338 192.218 48.7665 194.478 48.7665H201.607V177.304H87.3028V112.742C90.953 112.537 94.5558 111.159 97.4921 108.584L108.259 99.1431C110.837 96.8831 112.375 93.6217 112.479 90.1954C112.583 86.7691 111.245 83.4206 108.81 81.0086C104.447 76.6883 97.6898 76.1913 92.7419 79.8264L87.9262 83.3645L87.2835 82.7202C87.2954 82.5929 87.3032 82.4643 87.3032 82.3341V48.7665H161.733C163.994 48.7665 165.827 46.9338 165.827 44.6729C165.827 42.412 163.994 40.5793 161.733 40.5793H83.2092C80.9487 40.5793 79.1156 42.412 79.1156 44.6729V74.5306L76.2628 71.6704C71.1508 66.5448 64.8176 63.0903 57.92 61.5544C61.1641 57.8325 63.136 52.9734 63.136 47.66V45.3823C63.136 33.7054 53.636 24.2051 41.9591 24.2051C30.2818 24.2051 20.7819 33.7054 20.7819 45.3823V47.66C20.7819 52.6439 22.5168 57.2275 25.4084 60.8486C11.2353 62.5221 0.203125 74.6022 0.203125 89.2175V133.776C0.203125 140.548 5.71266 146.057 12.4846 146.057C13.9199 146.057 15.2977 145.807 16.579 145.352V166.252C16.579 168.513 18.4121 170.345 20.6726 170.345C22.9331 170.345 24.7662 168.513 24.7662 166.252V133.776V132.462H59.1521V219.059C59.1521 222.67 56.2138 225.609 52.6024 225.609C48.9911 225.609 46.0527 222.67 46.0527 219.059V158.713C46.0527 156.452 44.2196 154.62 41.9591 154.62C39.6987 154.62 37.8656 156.452 37.8656 158.713V219.059C37.8656 222.67 34.9272 225.609 31.3159 225.609C27.7045 225.609 24.7662 222.67 24.7662 219.059V199C24.7662 196.74 22.9331 194.907 20.6726 194.907C18.4121 194.907 16.579 196.74 16.579 199V219.059C16.579 227.185 23.1897 233.796 31.3159 233.796C35.497 233.796 39.2742 232.042 41.9591 229.236C44.6441 232.042 48.4213 233.796 52.6024 233.796C60.7286 233.796 67.3393 227.185 67.3393 219.059V129.052C67.3393 128.937 67.3311 128.823 67.3221 128.71C67.3311 128.597 67.3393 128.483 67.3393 128.368V100.749L74.3458 107.794C75.7655 109.221 77.3845 110.34 79.1156 111.155V181.398C79.1156 183.659 80.9487 185.492 83.2092 185.492H205.7C207.961 185.492 209.794 183.659 209.794 181.398V44.6729C209.794 42.412 207.961 40.5793 205.7 40.5793ZM28.969 45.3823C28.969 38.2194 34.7962 32.3922 41.9591 32.3922C49.1217 32.3922 54.9489 38.2194 54.9489 45.3823V47.66C54.9489 54.7382 49.2572 60.5081 42.2109 60.6436H41.707C34.6603 60.5085 28.9686 54.7382 28.9686 47.66V45.3823H28.969ZM66.1484 87.9411C64.9789 86.7654 63.2158 86.4117 61.6844 87.0438C60.1522 87.6762 59.1521 89.1704 59.1521 90.8279V124.274H24.7662V99.1174C24.7662 96.8565 22.9331 95.0238 20.6726 95.0238C18.4121 95.0238 16.579 96.8565 16.579 99.1174V129.052V133.776C16.579 136.033 14.7422 137.87 12.4846 137.87C10.227 137.87 8.39026 136.033 8.39026 133.776V89.2175C8.39026 77.9761 17.5357 68.8307 28.777 68.8307H37.8656V82.3337C37.8656 84.5946 39.6987 86.4273 41.9591 86.4273C44.2196 86.4273 46.0527 84.5946 46.0527 82.3337V68.8307H49.6907C57.5434 68.8307 64.9216 71.8923 70.4667 77.4522L84.6153 91.6376C86.0448 93.0707 88.3069 93.2439 89.9374 92.0457L97.5891 86.424C99.2699 85.1894 101.566 85.3581 103.048 86.8256C103.888 87.6574 104.331 88.766 104.295 89.947C104.259 91.1284 103.75 92.2078 102.862 92.9872L92.0943 102.428C88.6385 105.459 83.3922 105.279 80.1505 102.021L66.1484 87.9411Z" fill="#1F4FDE"/>
<path d="M175.287 109.869H155.638C153.378 109.869 151.545 111.702 151.545 113.963V120.748H135.989C133.729 120.748 131.896 122.58 131.896 124.841V134.298H116.34C114.08 134.298 112.246 136.131 112.246 138.391V154.381H104.074C101.814 154.381 99.9805 156.214 99.9805 158.475C99.9805 160.735 101.814 162.568 104.074 162.568H116.34H135.989H155.638H175.287H187.553C189.814 162.568 191.647 160.735 191.647 158.475C191.647 156.214 189.814 154.381 187.553 154.381H179.381V113.963C179.381 111.702 177.548 109.869 175.287 109.869ZM120.434 142.485H131.896V154.381H120.434V142.485ZM140.083 138.391V128.935H151.545V154.381H140.083V138.391ZM159.732 154.381V124.841V118.056H171.194V154.381H159.732Z" fill="#1F4FDE"/>
<path d="M20.6717 186.72C21.7524 186.72 22.8044 186.282 23.5654 185.521C24.3309 184.76 24.7653 183.703 24.7653 182.627C24.7653 181.55 24.3309 180.494 23.5654 179.733C22.8044 178.971 21.7483 178.533 20.6717 178.533C19.5951 178.533 18.543 178.971 17.7775 179.733C17.0161 180.494 16.5781 181.55 16.5781 182.627C16.5781 183.703 17.0157 184.76 17.7775 185.521C18.5394 186.282 19.5951 186.72 20.6717 186.72Z" fill="#1F4FDE"/>
<path d="M168.28 70.1647L146.693 91.7521L139.156 84.2154C138.388 83.4479 137.347 83.0164 136.262 83.0164C135.176 83.0164 134.135 83.4479 133.367 84.2154L113.445 104.138C111.846 105.736 111.846 108.328 113.445 109.927C114.244 110.726 115.292 111.126 116.34 111.126C117.387 111.126 118.435 110.726 119.234 109.927L136.262 92.8995L143.798 100.436C144.566 101.204 145.607 101.635 146.693 101.635C147.778 101.635 148.82 101.204 149.587 100.436L174.07 75.9538C174.38 77.9064 176.067 79.4006 178.107 79.4006C180.367 79.4006 182.201 77.5679 182.201 75.307V66.1268C182.201 63.8659 180.367 62.0332 178.107 62.0332H168.927C166.666 62.0332 164.833 63.8659 164.833 66.1268C164.834 68.167 166.328 69.854 168.28 70.1647Z" fill="#1F4FDE"/>
<path d="M178.105 48.7672C179.182 48.7672 180.238 48.3292 180.999 47.5678C181.76 46.8064 182.199 45.7503 182.199 44.6736C182.199 43.597 181.761 42.5409 180.999 41.7795C180.238 41.0181 179.182 40.5801 178.105 40.5801C177.029 40.5801 175.973 41.0181 175.211 41.7795C174.45 42.5409 174.012 43.5929 174.012 44.6736C174.012 45.7503 174.45 46.8064 175.211 47.5678C175.973 48.3292 177.029 48.7672 178.105 48.7672Z" fill="#1F4FDE"/>
</g>
<defs>
<linearGradient id="paint0_linear_405_10851" x1="31" y1="114.745" x2="269.819" y2="114.745" gradientUnits="userSpaceOnUse">
<stop stop-color="#D2DEFF" stop-opacity="0"/>
<stop offset="1" stop-color="#B7C5FF"/>
</linearGradient>
<clipPath id="clip0_405_10851">
<rect width="210" height="210" fill="white" transform="translate(0 24)"/>
</clipPath>
</defs>
</svg>
