<svg width="205" height="58" viewBox="0 0 205 58" fill="none" xmlns="http://www.w3.org/2000/svg">
<g clip-path="url(#clip0_103_853)">
<path d="M99.821 30.5584C97.4761 30.5584 95.3639 30.0399 93.4845 29.0028C91.605 27.9657 90.1193 26.4577 89.0274 24.4729C87.9355 22.4882 87.3926 20.0683 87.3926 17.2192C87.3926 14.3702 87.9355 11.9264 89.0274 9.92974C90.1193 7.93303 91.605 6.4191 93.4845 5.38796C95.3639 4.35683 97.4761 3.84424 99.821 3.84424C102.166 3.84424 104.254 4.35683 106.134 5.38796C108.007 6.4191 109.493 7.93303 110.591 9.92974C111.683 11.9264 112.231 14.3583 112.231 17.2192C112.231 20.0802 111.683 22.4941 110.591 24.4849C109.493 26.4756 108.007 27.9836 106.134 29.0147C104.254 30.0459 102.154 30.5584 99.821 30.5584ZM99.821 25.0571C101.068 25.0571 102.142 24.7531 103.037 24.1511C103.932 23.5431 104.624 22.661 105.101 21.4987C105.579 20.3365 105.817 18.906 105.817 17.2192C105.817 15.5324 105.579 14.0841 105.101 12.9159C104.624 11.7476 103.938 10.8596 103.037 10.2516C102.142 9.64364 101.068 9.34563 99.821 9.34563C98.574 9.34563 97.5 9.6496 96.605 10.2516C95.71 10.8596 95.0179 11.7417 94.5346 12.9159C94.0513 14.0901 93.8067 15.5205 93.8067 17.2192C93.8067 18.9179 94.0513 20.3305 94.5346 21.4987C95.0179 22.667 95.71 23.5491 96.605 24.1511C97.5 24.759 98.574 25.0571 99.821 25.0571ZM97.6193 20.8669H102.709L104.875 23.6087L107.709 26.8571L112.076 32.2333H106.378L103.317 28.6035L101.515 25.9988L97.6193 20.8669Z" fill="#333333"/>
<path d="M120.465 30.5582C119.218 30.5582 118.109 30.3437 117.136 29.9205C116.163 29.4973 115.4 28.8595 114.857 28.0072C114.308 27.1549 114.033 26.088 114.033 24.7946C114.033 23.7098 114.224 22.7979 114.6 22.0528C114.976 21.3078 115.501 20.6998 116.175 20.2349C116.85 19.77 117.619 19.4124 118.49 19.1621C119.361 18.9117 120.298 18.7508 121.289 18.6793C122.398 18.572 123.288 18.4707 123.962 18.3634C124.636 18.2561 125.131 18.0952 125.441 17.8746C125.752 17.6541 125.907 17.3442 125.907 16.9508V16.8614C125.907 16.2236 125.686 15.723 125.245 15.3594C124.803 14.9958 124.194 14.817 123.425 14.817C122.595 14.817 121.933 14.9958 121.438 15.3594C120.943 15.723 120.626 16.2117 120.483 16.8256L114.767 16.6349C114.928 15.4488 115.364 14.3878 116.068 13.4461C116.772 12.5044 117.745 11.7713 118.986 11.2348C120.227 10.6984 121.724 10.4302 123.484 10.4302C124.719 10.4302 125.859 10.5732 126.909 10.8653C127.959 11.1573 128.872 11.5805 129.654 12.1408C130.435 12.7011 131.038 13.3805 131.474 14.1852C131.903 14.9898 132.118 15.9018 132.118 16.9269V30.2006H126.265V27.4588H126.128C125.764 28.1324 125.316 28.6986 124.779 29.1516C124.242 29.6046 123.616 29.9503 122.9 30.1887C122.184 30.4271 121.372 30.5463 120.459 30.5463L120.465 30.5582ZM122.369 26.4694C123.031 26.4694 123.634 26.3323 124.177 26.0582C124.719 25.784 125.149 25.4085 125.471 24.9317C125.793 24.4548 125.955 23.8946 125.955 23.2568V21.421C125.782 21.5164 125.567 21.5998 125.316 21.6714C125.066 21.7429 124.791 21.8204 124.487 21.8919C124.182 21.9634 123.878 22.0171 123.568 22.0647C123.258 22.1124 122.965 22.1601 122.685 22.2018C122.088 22.2853 121.587 22.4283 121.175 22.631C120.764 22.8336 120.447 23.0899 120.239 23.3879C120.03 23.686 119.922 24.0555 119.922 24.4906C119.922 25.1284 120.149 25.6171 120.603 25.9568C121.056 26.2966 121.647 26.4635 122.369 26.4635V26.4694Z" fill="#333333"/>
<path d="M144.206 30.5764C142.154 30.5764 140.388 30.1711 138.908 29.3605C137.428 28.5499 136.295 27.3936 135.507 25.8916C134.72 24.3896 134.326 22.5955 134.326 20.5153C134.326 18.4352 134.72 16.7425 135.513 15.2345C136.307 13.7265 137.422 12.5523 138.866 11.706C140.31 10.8596 142.011 10.4424 143.968 10.4424C145.352 10.4424 146.629 10.6629 147.786 11.098C148.944 11.5331 149.946 12.1768 150.794 13.0172C151.641 13.8577 152.291 14.9007 152.751 16.1345C153.21 17.3683 153.443 18.7928 153.443 20.414V21.9518H136.468V18.3696H150.489L147.59 19.21C147.59 18.316 147.458 17.5471 147.19 16.9153C146.921 16.2835 146.527 15.7888 146.002 15.4371C145.477 15.0855 144.827 14.9126 144.045 14.9126C143.264 14.9126 142.607 15.0855 142.07 15.4371C141.533 15.7888 141.128 16.2716 140.847 16.8974C140.567 17.5233 140.43 18.2564 140.43 19.1087V21.6776C140.43 22.5836 140.591 23.3703 140.913 24.0379C141.235 24.7055 141.689 25.2121 142.279 25.5637C142.87 25.9154 143.544 26.0942 144.314 26.0942C144.851 26.0942 145.34 26.0167 145.782 25.8677C146.223 25.7187 146.605 25.4922 146.915 25.1942C147.226 24.8962 147.47 24.5386 147.631 24.1213L153.329 24.2763C153.097 25.5578 152.584 26.6664 151.79 27.6141C150.996 28.5558 149.958 29.289 148.681 29.8075C147.399 30.3261 145.907 30.5823 144.206 30.5823V30.5764Z" fill="#333333"/>
<path d="M155.585 30.2068V10.6868H161.474V14.2868H161.7C162.106 13.1007 162.798 12.1649 163.771 11.4735C164.743 10.7821 165.895 10.4424 167.226 10.4424C168.556 10.4424 169.755 10.794 170.722 11.4914C171.689 12.1888 172.297 13.1186 172.542 14.2868H172.751C173.121 13.1365 173.842 12.2066 174.899 11.5033C175.961 10.8 177.214 10.4483 178.657 10.4483C180.501 10.4483 181.999 11.0384 183.15 12.2126C184.302 13.3868 184.881 15.008 184.881 17.0643V30.2128H178.657V18.4888C178.657 17.5233 178.407 16.7842 177.906 16.2716C177.405 15.759 176.76 15.5027 175.967 15.5027C175.113 15.5027 174.445 15.7769 173.956 16.3312C173.467 16.8855 173.222 17.6246 173.222 18.5604V30.2068H167.243V18.4233C167.243 17.5292 166.999 16.814 166.51 16.2954C166.02 15.7769 165.376 15.5087 164.57 15.5087C164.021 15.5087 163.544 15.6398 163.126 15.902C162.709 16.1643 162.387 16.5279 162.154 16.9928C161.921 17.4577 161.802 18.018 161.802 18.6676V30.2128H155.579L155.585 30.2068Z" fill="#333333"/>
<path d="M193.341 30.5582C192.094 30.5582 190.984 30.3437 190.012 29.9205C189.039 29.4973 188.276 28.8595 187.733 28.0072C187.184 27.1549 186.909 26.088 186.909 24.7946C186.909 23.7098 187.1 22.7979 187.476 22.0528C187.852 21.3078 188.377 20.6998 189.051 20.2349C189.726 19.77 190.495 19.4124 191.366 19.1621C192.237 18.9117 193.174 18.7508 194.165 18.6793C195.274 18.572 196.163 18.4707 196.838 18.3634C197.512 18.2561 198.007 18.0952 198.317 17.8746C198.628 17.6541 198.783 17.3442 198.783 16.9508V16.8614C198.783 16.2236 198.562 15.723 198.121 15.3594C197.679 14.9958 197.07 14.817 196.301 14.817C195.471 14.817 194.809 14.9958 194.314 15.3594C193.819 15.723 193.502 16.2117 193.359 16.8256L187.643 16.6349C187.804 15.4488 188.24 14.3878 188.944 13.4461C189.648 12.5044 190.621 11.7713 191.862 11.2348C193.103 10.6984 194.6 10.4302 196.36 10.4302C197.595 10.4302 198.735 10.5732 199.785 10.8653C200.835 11.1573 201.748 11.5805 202.53 12.1408C203.311 12.7011 203.914 13.3805 204.35 14.1852C204.779 14.9898 204.994 15.9018 204.994 16.9269V30.2006H199.141V27.4588H199.004C198.64 28.1324 198.192 28.6986 197.655 29.1516C197.118 29.6046 196.492 29.9503 195.776 30.1887C195.06 30.4271 194.248 30.5463 193.335 30.5463L193.341 30.5582ZM195.245 26.4694C195.907 26.4694 196.51 26.3323 197.052 26.0582C197.595 25.784 198.025 25.4085 198.347 24.9317C198.669 24.4548 198.831 23.8946 198.831 23.2568V21.421C198.658 21.5164 198.443 21.5998 198.192 21.6714C197.942 21.7429 197.667 21.8204 197.363 21.8919C197.058 21.9634 196.754 22.0171 196.444 22.0647C196.134 22.1124 195.841 22.1601 195.561 22.2018C194.964 22.2853 194.463 22.4283 194.051 22.631C193.64 22.8336 193.323 23.0899 193.115 23.3879C192.906 23.686 192.798 24.0555 192.798 24.4906C192.798 25.1284 193.025 25.6171 193.479 25.9568C193.932 26.2966 194.523 26.4635 195.245 26.4635V26.4694Z" fill="#333333"/>
<path d="M102.434 53.1126H104.958V56.5041H102.1C100.364 56.5041 99.0155 55.9259 98.0608 54.7696C97.2553 55.3835 96.2768 55.6935 95.1133 55.6935C93.3949 55.6935 92.0166 55.0498 90.9904 53.7623C90.1491 52.6954 89.7314 51.4199 89.7314 49.9239C89.7314 48.0762 90.3281 46.5742 91.5274 45.4119C92.5357 44.4404 93.7052 43.9576 95.0357 43.9576C95.7279 43.9576 96.3603 44.0887 96.945 44.351V43.6238L100.453 41.7761V51.104C100.453 51.8312 100.609 52.3497 100.919 52.6597C101.229 52.9696 101.736 53.1246 102.446 53.1246L102.434 53.1126ZM93.377 40.6734C92.8162 40.6734 92.3687 40.5065 92.0286 40.1668C91.6945 39.833 91.5214 39.3741 91.5214 38.7959C91.5214 37.58 92.136 36.978 93.3711 36.978C93.9319 36.978 94.3735 37.139 94.7016 37.4668C95.0298 37.7946 95.1909 38.2357 95.1909 38.7959C95.1909 40.0476 94.5823 40.6734 93.3711 40.6734H93.377ZM96.9391 47.8735C96.4558 47.4623 95.9009 47.2596 95.2863 47.2596C94.6718 47.2596 94.1706 47.5099 93.7887 48.0166C93.4069 48.5232 93.2159 49.1848 93.2159 50.0073C93.2159 50.8298 93.4009 51.4855 93.7768 51.9683C94.1527 52.457 94.6658 52.6954 95.3162 52.6954C96.0262 52.6954 96.5751 52.4511 96.9689 51.9683C96.951 51.8193 96.9391 51.5868 96.9391 51.2709V47.8795V47.8735ZM97.6968 40.6734C97.136 40.6734 96.6885 40.5065 96.3484 40.1668C96.0143 39.833 95.8412 39.3741 95.8412 38.7959C95.8412 37.58 96.4558 36.978 97.6909 36.978C98.2517 36.978 98.6933 37.139 99.0214 37.4668C99.3496 37.7946 99.5107 38.2357 99.5107 38.7959C99.5107 40.0476 98.9021 40.6734 97.6909 40.6734H97.6968Z" fill="#333333"/>
<path d="M103.276 56.5042V53.1128H108.21V56.5042H103.276Z" fill="#333333"/>
<path d="M106.527 56.5042V53.1128H111.462V56.5042H106.527Z" fill="#333333"/>
<path d="M109.779 56.5042V53.1128H114.714V56.5042H109.779Z" fill="#333333"/>
<path d="M113.031 56.5042V53.1128H117.965V56.5042H113.031Z" fill="#333333"/>
<path d="M116.289 56.5042V53.1128H121.223V56.5042H116.289Z" fill="#333333"/>
<path d="M119.541 56.5042V53.1128H124.475V56.5042H119.541Z" fill="#333333"/>
<path d="M122.792 56.5042V53.1128H127.727V56.5042H122.792Z" fill="#333333"/>
<path d="M126.044 56.5042V53.1128H130.978V56.5042H126.044Z" fill="#333333"/>
<path d="M129.296 56.5042V53.1128H134.23V56.5042H129.296Z" fill="#333333"/>
<path d="M132.554 56.5042V53.1128H137.488V56.5042H132.554Z" fill="#333333"/>
<path d="M135.805 56.5042V53.1128H140.74V56.5042H135.805Z" fill="#333333"/>
<path d="M139.057 56.5042V53.1128H143.992V56.5042H139.057Z" fill="#333333"/>
<path d="M142.309 56.5042V53.1128H147.243V56.5042H142.309Z" fill="#333333"/>
<path d="M145.561 56.5042V53.1128H150.495V56.5042H145.561Z" fill="#333333"/>
<path d="M148.819 56.5042V53.1128H153.753V56.5042H148.819Z" fill="#333333"/>
<path d="M169.904 53.1125H172.398V56.5039H169.54C168.192 56.5039 167.088 56.1582 166.229 55.4668C165.221 56.5337 163.89 57.0642 162.249 57.0642C160.609 57.0642 159.242 56.5337 158.27 55.4668C157.375 56.1582 156.259 56.5039 154.934 56.5039H152.076V53.1125H154.6C155.31 53.1125 155.817 52.9575 156.116 52.6476C156.414 52.3377 156.563 51.8191 156.563 51.092V50.2813C156.563 48.0939 157.136 46.3952 158.276 45.1853C159.266 44.1184 160.591 43.5879 162.255 43.5879C164.141 43.5879 165.603 44.2793 166.629 45.6621C167.488 46.8363 167.918 48.38 167.918 50.2873V51.0979C167.918 51.8251 168.073 52.3436 168.383 52.6536C168.693 52.9635 169.2 53.1185 169.91 53.1185L169.904 53.1125ZM162.249 53.6728C163.669 53.6728 164.379 52.5165 164.379 50.1979C164.379 47.8793 163.669 46.8661 162.249 46.8661C160.829 46.8661 160.089 47.9747 160.089 50.1979C160.089 52.4211 160.811 53.6728 162.249 53.6728Z" fill="#333333"/>
<path d="M170.716 56.504V53.1126H173.24C173.95 53.1126 174.457 52.9576 174.755 52.6476C175.054 52.3377 175.203 51.8192 175.203 51.092V45.9125L178.735 44.0648V51.2648C178.735 52.9635 178.21 54.2927 177.166 55.2404C176.247 56.0808 175.054 56.504 173.574 56.504H170.716ZM173.156 40.7031L174.027 39.076H174.869C174.66 38.7005 174.558 38.319 174.558 37.9256C174.558 37.3296 174.779 36.817 175.221 36.3879C175.662 35.9587 176.187 35.7441 176.808 35.7441C177.369 35.7441 177.894 35.9408 178.377 36.3342V37.9614C177.93 37.568 177.482 37.3713 177.029 37.3713C176.414 37.3713 176.104 37.6514 176.104 38.2117C176.104 38.4919 176.223 38.7839 176.468 39.0819H179.242L178.371 40.7091H173.156V40.7031Z" fill="#333333"/>
<path d="M188.747 56.5038C187.046 56.5038 185.728 55.9614 184.791 54.8766C183.986 53.9408 183.586 52.7368 183.586 51.2646V40.2857L187.118 38.438V51.0977C187.118 51.8249 187.267 52.3434 187.566 52.6534C187.864 52.9633 188.371 53.1183 189.081 53.1183H191.605V56.5097H188.747V56.5038Z" fill="#333333"/>
<path d="M189.928 56.504V53.1125H194.415C193.854 52.29 193.574 51.2648 193.574 50.031C193.574 47.9747 194.135 46.3535 195.257 45.1555C196.265 44.1124 197.583 43.5879 199.212 43.5879C200.841 43.5879 202.166 44.1184 203.085 45.1853C203.908 46.1032 204.32 47.2952 204.32 48.7734V51.2946C204.302 52.9039 203.825 54.1735 202.888 55.1033C201.969 56.039 200.728 56.504 199.159 56.504H189.934H189.928ZM197.082 41.6031C196.521 41.6031 196.074 41.4362 195.734 41.0965C195.4 40.7627 195.227 40.3038 195.227 39.7256C195.227 38.5097 195.841 37.9077 197.076 37.9077C197.637 37.9077 198.079 38.0686 198.407 38.3965C198.735 38.7243 198.896 39.1653 198.896 39.7256C198.896 40.9773 198.288 41.6031 197.076 41.6031H197.082ZM200.782 48.7198C200.782 47.486 200.257 46.8721 199.212 46.8721C197.774 46.8721 197.052 47.8913 197.052 49.9237C197.052 51.9562 197.745 53.1185 199.129 53.1185C200.233 53.1185 200.782 52.5225 200.782 51.3244V48.7198ZM201.396 41.6031C200.835 41.6031 200.388 41.4362 200.048 41.0965C199.714 40.7627 199.541 40.3038 199.541 39.7256C199.541 38.5097 200.161 37.9077 201.39 37.9077C201.951 37.9077 202.393 38.0686 202.721 38.3965C203.049 38.7243 203.21 39.1653 203.21 39.7256C203.21 40.9773 202.601 41.6031 201.384 41.6031H201.396Z" fill="#333333"/>
<path fill-rule="evenodd" clip-rule="evenodd" d="M75.4117 58L41.8914 0H29.0334C13.0668 0 0 13.0472 0 29.003C0 44.9588 13.0668 58.006 29.0334 58.006H75.4117V58Z" fill="#3D72F9"/>
<path fill-rule="evenodd" clip-rule="evenodd" d="M41.8914 58C57.8579 58 70.9188 44.9528 70.9188 28.997C70.9188 13.0412 57.8579 0 41.8914 0V58Z" fill="#1F4FDE"/>
<g style="mix-blend-mode:lighten">
<path fill-rule="evenodd" clip-rule="evenodd" d="M11.7959 5.70404L41.8914 57.7795L42.0167 58H75.4117L67.0167 43.4747L41.8914 0H29.0334C22.5895 0 16.6229 2.12188 11.7959 5.70404Z" fill="url(#paint0_linear_103_853)"/>
</g>
</g>
<defs>
<linearGradient id="paint0_linear_103_853" x1="43.6038" y1="0" x2="43.6038" y2="58" gradientUnits="userSpaceOnUse">
<stop stop-color="#1F4FDE"/>
<stop offset="1" stop-color="#D78AFF"/>
</linearGradient>
<clipPath id="clip0_103_853">
<rect width="205" height="58" fill="white"/>
</clipPath>
</defs>
</svg>
