<svg width="239" height="230" viewBox="0 0 239 230" fill="none" xmlns="http://www.w3.org/2000/svg">
<g clip-path="url(#clip0_1260_7149)">
<path d="M236.94 100.515C231.408 77.4662 200.577 69.3459 182.048 70.3058C157.322 71.5867 146.12 63.7891 151.538 38.5802C154.634 24.1755 157.751 14.3756 135.439 6.77814C116.17 0.217614 54.016 -6.90357 41.0722 15.2833C34.7556 26.1108 58.0055 35.9868 47.0333 50.6163C39.2932 60.9368 16.3563 53.3058 3.96197 69.2353C-4.83375 80.5396 0.708526 99.0597 23.6729 108.885C43.2388 117.256 72.0207 122.082 77.291 146.218C79.933 158.315 66.4504 175.267 73.2124 193.074C78.438 206.835 94.1739 212.908 114.954 192.699C155.955 152.822 147.284 209.757 153.505 221.41C160.632 234.76 185.292 229.297 196.374 218.127C226.675 187.586 244.932 133.812 236.94 100.515Z" fill="url(#paint0_linear_1260_7149)"/>
<g opacity="0.1">
<path d="M186.873 22.4592C171.752 22.0823 158.991 32.435 155.64 46.4437H146.509C143.933 46.4437 141.845 48.532 141.845 51.1081V55.7726L120.347 34.2742H46.3734C43.7973 34.2742 41.709 36.3625 41.709 38.9386V47.9503H24.2426C22.6968 47.9503 21.4439 49.2032 21.4439 50.749V63.5393C21.4439 65.0851 22.6968 66.338 24.2426 66.338H41.709V87.0867H22.1939C20.9756 87.0867 19.8878 87.9777 19.7726 89.1904C19.6402 90.5813 20.7307 91.7512 22.0941 91.7512H41.709V96.5938H22.1939C20.9756 96.5938 19.8878 97.4847 19.7726 98.6974C19.6402 100.088 20.7307 101.258 22.0941 101.258H41.709V116.409H38.0777C35.5016 116.409 33.4133 118.497 33.4133 121.074V135.093H31.4934C28.9173 135.093 26.829 137.181 26.829 139.757V168.227C26.829 170.803 28.9173 172.892 31.4934 172.892H33.4133H59.9394H98.5246L110.907 185.274L111.375 199.58C111.523 204.12 114.754 207.972 119.199 208.91L143.361 214.008L157.134 227.78C158.045 228.691 159.521 228.691 160.432 227.78L184.426 203.787C185.337 202.876 185.337 201.4 184.426 200.489L173.384 189.447L171.485 177.46C171.159 175.402 170.19 173.5 168.717 172.027L168.372 171.682V79.5598C173.407 83.0203 179.503 85.0493 186.075 85.0493C203.531 85.0493 217.65 70.7584 217.371 53.2374C217.104 36.5546 203.553 22.8748 186.873 22.4592Z" fill="#1F4FDE"/>
<path d="M22.0939 82.2445H30.7618C32.0497 82.2445 33.0941 81.2006 33.0941 79.9123C33.0941 78.624 32.0497 77.5801 30.7618 77.5801H22.0939C20.8061 77.5801 19.7617 78.624 19.7617 79.9123C19.7617 81.2006 20.8056 82.2445 22.0939 82.2445Z" fill="#1F4FDE"/>
</g>
<path d="M150.457 53.189V157.033C150.457 159.608 148.372 161.698 145.793 161.698H46.3754C43.8006 161.698 41.7109 159.608 41.7109 157.033V27.7445C41.7109 25.1697 43.8006 23.0801 46.3754 23.0801H120.349L150.457 53.189Z" fill="#9BACF2"/>
<path d="M120.352 48.5245V23.0801L150.46 53.189H125.016C122.437 53.189 120.352 51.0993 120.352 48.5245Z" fill="white"/>
<path d="M59.9402 161.696H33.4141V109.877C33.4141 107.301 35.5023 105.213 38.0785 105.213H55.2758C57.8519 105.213 59.9402 107.301 59.9402 109.877V161.696Z" fill="white"/>
<path d="M49.6797 115.475V151.434H43.677V115.475H49.6797Z" fill="#9BACF2"/>
<path d="M96.0847 161.697H69.5586V67.8988C69.5586 65.3226 71.6469 63.2344 74.223 63.2344H91.4203C93.9965 63.2344 96.0847 65.3226 96.0847 67.8988V161.697Z" fill="white"/>
<path d="M85.8242 73.4961V151.435H79.8216V73.4961H85.8242Z" fill="#9BACF2"/>
<path d="M132.229 161.697H105.703V95.8851C105.703 93.309 107.791 91.2207 110.368 91.2207H127.565C130.141 91.2207 132.229 93.309 132.229 95.8851V161.697Z" fill="white"/>
<path d="M121.969 101.482V151.435H115.966V101.482H121.969Z" fill="#9BACF2"/>
<path d="M168.374 39.9125V161.696H141.848V39.9125C141.848 37.3377 143.937 35.248 146.512 35.248H163.71C166.285 35.248 168.374 37.3377 168.374 39.9125Z" fill="white"/>
<path d="M152.109 45.5098H158.112V151.434H152.109V45.5098Z" fill="#9BACF2"/>
<path d="M105.645 161.697H31.4965C28.9203 161.697 26.832 159.609 26.832 157.033V128.563C26.832 125.987 28.9203 123.898 31.4965 123.898H105.645C108.221 123.898 110.309 125.987 110.309 128.563V157.033C110.309 159.609 108.221 161.697 105.645 161.697Z" fill="#9BACF2"/>
<path d="M122.714 162.961L108.444 148.691C105.231 145.478 99.8956 145.401 96.7443 148.674C93.6896 151.846 93.7264 156.895 96.8539 160.023L110.91 174.079L111.378 188.384C111.526 192.925 114.756 196.777 119.202 197.715L143.364 202.812L158.785 218.234L186.077 190.942L173.387 178.252L171.488 166.264C171.162 164.207 170.193 162.305 168.72 160.832L157.792 149.904C154.531 146.643 149.447 146.076 145.548 148.538L122.714 162.961Z" fill="white"/>
<path d="M186.078 73.8543C203.364 73.8543 217.378 59.8407 217.378 42.5541C217.378 25.2675 203.364 11.2539 186.078 11.2539C168.791 11.2539 154.777 25.2675 154.777 42.5541C154.777 59.8407 168.791 73.8543 186.078 73.8543Z" fill="white"/>
<path d="M203.01 38.81L188.212 23.7598C187.039 22.5671 185.117 22.5671 183.944 23.7598L169.146 38.81C167.285 40.7024 168.626 43.9008 171.28 43.9008H178.474V59.2509C178.474 60.9036 179.813 62.2436 181.467 62.2436H190.69C192.343 62.2436 193.683 60.904 193.683 59.2509V43.9008H200.877C203.53 43.9003 204.871 40.7024 203.01 38.81Z" fill="#9BACF2"/>
<path d="M52.1741 55.1435H24.244C22.6982 55.1435 21.4453 53.8906 21.4453 52.3449V39.5545C21.4453 38.0087 22.6982 36.7559 24.244 36.7559H52.1741C53.0804 36.7559 53.9307 37.1948 54.456 37.9341L58.9982 44.3295C59.6876 45.3002 59.6876 46.6001 58.9982 47.5708L54.456 53.9662C53.9307 54.7046 53.0804 55.1435 52.1741 55.1435Z" fill="white"/>
<path d="M144.179 146.646V39.9133C144.179 38.6273 145.225 37.5811 146.511 37.5811H152.814C152.572 39.2048 152.443 40.8648 152.443 42.5543C152.443 61.0991 167.531 76.1867 186.076 76.1867C204.621 76.1867 219.708 61.0991 219.708 42.5543C219.708 24.009 204.62 8.92188 186.076 8.92188C170.88 8.92188 158.012 19.0549 153.857 32.9166H146.511C142.96 32.9166 140.026 35.5772 139.58 39.0084L121.997 21.43C121.56 20.9925 120.967 20.7471 120.348 20.7471H46.375C42.5171 20.7471 39.3784 23.8858 39.3784 27.7438V34.4233H24.2442C21.4152 34.4233 19.1133 36.7252 19.1133 39.5541V52.3449C19.1133 55.1739 21.4152 57.4758 24.2442 57.4758H39.3784V75.8919H22.0957C20.8079 75.8919 19.7635 76.9358 19.7635 78.2241C19.7635 79.5124 20.8079 80.5563 22.0957 80.5563H39.3784V85.3989H22.0957C20.8079 85.3989 19.7635 86.4428 19.7635 87.7312C19.7635 89.0195 20.8079 90.0634 22.0957 90.0634H39.3784V102.882H38.0793C34.2214 102.882 31.0827 106.021 31.0827 109.879V121.587C27.4169 121.803 24.4984 124.844 24.4984 128.563V157.032C24.4984 160.89 27.6371 164.029 31.495 164.029H85.1896C86.4775 164.029 87.5218 162.985 87.5218 161.697C87.5218 160.409 86.4775 159.365 85.1896 159.365H31.4955C30.2095 159.365 29.1633 158.318 29.1633 157.032V128.563C29.1633 127.277 30.2095 126.23 31.4955 126.23H105.644C106.93 126.23 107.976 127.277 107.976 128.563V145.41C106.338 144.446 104.447 143.918 102.522 143.918C102.489 143.918 102.455 143.919 102.422 143.919C99.599 143.946 96.9855 145.06 95.0628 147.057C91.1479 151.124 91.2109 157.68 95.2037 161.673L108.608 175.077L109.046 188.461C109.23 194.09 113.208 198.835 118.719 199.997L142.204 204.952L157.136 219.884C157.591 220.34 158.188 220.567 158.785 220.567C159.381 220.567 159.979 220.34 160.433 219.884C161.344 218.973 161.344 217.497 160.433 216.586L145.012 201.164C144.692 200.844 144.287 200.624 143.844 200.531L119.682 195.433C116.278 194.715 113.821 191.786 113.707 188.309L113.432 179.902L117.981 184.45C118.872 185.341 119.363 186.526 119.363 187.787C119.363 189.076 120.407 190.12 121.695 190.12C122.984 190.12 124.028 189.076 124.028 187.787C124.028 185.28 123.051 182.923 121.278 181.151L98.501 158.374C96.2928 156.166 96.2574 152.54 98.4221 150.291C99.4688 149.205 100.905 148.597 102.465 148.583C102.484 148.583 102.503 148.582 102.522 148.582C104.12 148.582 105.673 149.221 106.792 150.34L121.063 164.61C121.833 165.381 123.035 165.516 123.957 164.933L146.791 150.512C149.79 148.617 153.634 149.047 156.141 151.553L167.069 162.481C168.201 163.614 168.932 165.048 169.182 166.63L171.08 178.617C171.157 179.104 171.386 179.553 171.735 179.901L184.425 192.592C185.335 193.503 186.813 193.503 187.723 192.592C188.634 191.681 188.634 190.205 187.723 189.294L175.569 177.139L173.789 165.9C173.409 163.504 172.341 161.322 170.704 159.549V81.7392C170.704 80.4509 169.66 79.407 168.372 79.407C167.083 79.407 166.04 80.4509 166.04 81.7392V154.857L159.438 148.256C155.38 144.196 149.034 143.581 144.179 146.646ZM139.514 45.5069V50.8565H125.015C123.729 50.8565 122.682 49.8103 122.682 48.5243V28.7107L139.514 45.5069ZM23.7777 52.3449V39.5541C23.7777 39.2967 23.9871 39.0877 24.2442 39.0877H52.1743C52.325 39.0877 52.4672 39.1609 52.5545 39.2841L57.0962 45.679C57.2114 45.8408 57.2114 46.0582 57.0967 46.2196L52.554 52.615C52.4663 52.7381 52.3245 52.8114 52.1738 52.8114H41.7194C41.7162 52.8114 41.7134 52.8104 41.7106 52.8104C41.7078 52.8104 41.7045 52.8114 41.7017 52.8114H24.2442C23.9871 52.8114 23.7777 52.6019 23.7777 52.3449ZM38.0793 107.547H55.2766C56.5626 107.547 57.6088 108.593 57.6088 109.879V121.566H35.7471V109.879C35.7471 108.593 36.7933 107.547 38.0793 107.547ZM93.753 121.566H71.8913V67.8989C71.8913 66.613 72.9375 65.5667 74.2235 65.5667H91.4208C92.7068 65.5667 93.753 66.613 93.753 67.8989V121.566ZM123.043 159.995L112.64 149.57C112.64 149.563 112.64 128.563 112.64 128.563C112.64 125.546 110.717 122.977 108.036 121.997V95.8855C108.036 94.5995 109.082 93.5533 110.368 93.5533H127.565C128.851 93.5533 129.897 94.5995 129.897 95.8855V155.666L123.043 159.995ZM134.562 152.72V95.8855C134.562 92.0276 131.423 88.8889 127.565 88.8889H110.368C106.51 88.8889 103.371 92.0276 103.371 95.8855V121.566H98.4175V67.8989C98.4175 64.041 95.2788 60.9023 91.4208 60.9023H74.2235C70.3656 60.9023 67.2269 64.041 67.2269 67.8989V121.566H62.2728V109.879C62.2728 106.021 59.1341 102.882 55.2761 102.882H44.0428V90.0634H49.4214C50.7092 90.0634 51.7536 89.0195 51.7536 87.7312C51.7536 86.4428 50.7092 85.3989 49.4214 85.3989H44.0428V80.5563H49.4214C50.7092 80.5563 51.7536 79.5124 51.7536 78.2241C51.7536 76.9358 50.7092 75.8919 49.4214 75.8919H44.0428V57.4758H52.1743C53.833 57.4758 55.397 56.6684 56.3574 55.3157L60.9001 48.9203C62.1618 47.1432 62.1618 44.7554 60.9001 42.9783L56.3574 36.5824C55.3965 35.2307 53.833 34.4233 52.1748 34.4233H44.0428V27.7438C44.0428 26.4578 45.089 25.4116 46.375 25.4116H118.018V48.5243C118.018 52.3822 121.157 55.5209 125.015 55.5209H139.514V149.592L134.562 152.72ZM186.076 13.5863C202.048 13.5863 215.044 26.5814 215.044 42.5543C215.044 58.5272 202.049 71.5223 186.076 71.5223C170.103 71.5223 157.108 58.5276 157.108 42.5543C157.108 26.5809 170.103 13.5863 186.076 13.5863Z" fill="#1F4FDE"/>
<path d="M110.906 43.6172H105.496C104.208 43.6172 103.164 44.6611 103.164 45.9494C103.164 47.2377 104.208 48.2816 105.496 48.2816H110.906C112.194 48.2816 113.238 47.2377 113.238 45.9494C113.238 44.6611 112.194 43.6172 110.906 43.6172Z" fill="#1F4FDE"/>
<path d="M93.3319 43.6172H87.9221C86.6342 43.6172 85.5898 44.6611 85.5898 45.9494C85.5898 47.2377 86.6342 48.2816 87.9221 48.2816H93.3319C94.6197 48.2816 95.6641 47.2377 95.6641 45.9494C95.6641 44.6611 94.6197 43.6172 93.3319 43.6172Z" fill="#1F4FDE"/>
<path d="M75.7615 43.6172H70.3517C69.0639 43.6172 68.0195 44.6611 68.0195 45.9494C68.0195 47.2377 69.0639 48.2816 70.3517 48.2816H75.7615C77.0494 48.2816 78.0938 47.2377 78.0938 45.9494C78.0938 44.6611 77.0494 43.6172 75.7615 43.6172Z" fill="#1F4FDE"/>
<path d="M22.0939 71.0492H30.7618C32.0497 71.0492 33.0941 70.0053 33.0941 68.717C33.0941 67.4287 32.0497 66.3848 30.7618 66.3848H22.0939C20.8061 66.3848 19.7617 67.4287 19.7617 68.717C19.7617 70.0053 20.8056 71.0492 22.0939 71.0492Z" fill="#1F4FDE"/>
<path d="M193.777 105.756C193.181 105.756 192.583 105.528 192.128 105.073L189.812 102.757L187.497 105.073C186.587 105.984 185.109 105.984 184.199 105.073C183.288 104.162 183.288 102.685 184.199 101.775L188.164 97.8102C189.074 96.8992 190.551 96.8992 191.461 97.8102L195.426 101.775C196.337 102.685 196.337 104.162 195.426 105.073C194.971 105.528 194.374 105.756 193.777 105.756Z" fill="#9BACF2"/>
<path d="M160.406 11.7228C159.81 11.7228 159.212 11.4952 158.757 11.0395L156.441 8.72407L154.126 11.0395C153.215 11.9505 151.738 11.9505 150.828 11.0395C149.917 10.129 149.917 8.65224 150.828 7.74174L154.793 3.77697C155.703 2.86601 157.18 2.86601 158.09 3.77697L162.055 7.74174C162.966 8.65224 162.966 10.129 162.055 11.0395C161.6 11.4952 161.003 11.7228 160.406 11.7228Z" fill="#9BACF2"/>
<path d="M67.6366 197.547C67.0396 197.547 66.443 197.319 65.9873 196.864L63.6719 194.548L61.3564 196.864C60.4455 197.775 58.9692 197.775 58.0582 196.864C57.1473 195.953 57.1473 194.476 58.0582 193.566L62.023 189.601C62.9339 188.69 64.4102 188.69 65.3212 189.601L69.286 193.566C70.1969 194.476 70.1969 195.953 69.286 196.864C68.8307 197.319 68.2337 197.547 67.6366 197.547Z" fill="#9BACF2"/>
<path d="M193.552 124.45C193.158 124.45 192.759 124.35 192.393 124.14L192.347 124.113C191.23 123.472 190.845 122.046 191.486 120.929C192.127 119.812 193.553 119.426 194.67 120.068L194.716 120.095C195.833 120.736 196.218 122.162 195.577 123.279C195.146 124.029 194.361 124.45 193.552 124.45Z" fill="#9BACF2"/>
<path d="M205.166 131.155C204.767 131.155 204.361 131.052 203.991 130.836L203.945 130.809C202.833 130.159 202.458 128.731 203.108 127.619C203.758 126.507 205.186 126.132 206.298 126.781L206.345 126.808C207.457 127.458 207.832 128.886 207.182 129.999C206.748 130.741 205.968 131.155 205.166 131.155Z" fill="#9BACF2"/>
<path d="M193.552 124.45C193.158 124.45 192.759 124.35 192.393 124.14L192.347 124.113C191.23 123.472 190.845 122.046 191.486 120.929C192.127 119.812 193.553 119.426 194.67 120.068L194.716 120.095C195.833 120.736 196.218 122.162 195.577 123.279C195.146 124.029 194.361 124.45 193.552 124.45Z" fill="#9BACF2"/>
<path d="M205.166 131.155C204.767 131.155 204.361 131.052 203.991 130.836L203.945 130.809C202.833 130.159 202.458 128.731 203.108 127.619C203.758 126.507 205.186 126.132 206.298 126.781L206.345 126.808C207.457 127.458 207.832 128.886 207.182 129.999C206.748 130.741 205.968 131.155 205.166 131.155Z" fill="#9BACF2"/>
<path d="M205.124 124.45C204.316 124.45 203.531 124.029 203.099 123.278C202.458 122.161 202.843 120.736 203.96 120.094L204.006 120.068C205.125 119.426 206.549 119.813 207.19 120.929C207.832 122.046 207.446 123.471 206.329 124.113L206.283 124.139C205.917 124.349 205.517 124.45 205.124 124.45Z" fill="#9BACF2"/>
<path d="M193.511 131.155C192.708 131.155 191.928 130.741 191.495 129.999C190.845 128.886 191.22 127.458 192.332 126.808L192.378 126.781C193.491 126.132 194.919 126.508 195.569 127.619C196.218 128.731 195.843 130.159 194.731 130.809L194.685 130.836C194.315 131.052 193.91 131.155 193.511 131.155Z" fill="#9BACF2"/>
<path d="M205.124 124.45C204.316 124.45 203.531 124.029 203.099 123.278C202.458 122.161 202.843 120.736 203.96 120.094L204.006 120.068C205.125 119.426 206.549 119.813 207.19 120.929C207.832 122.046 207.446 123.471 206.329 124.113L206.283 124.139C205.917 124.349 205.517 124.45 205.124 124.45Z" fill="#9BACF2"/>
<path d="M193.511 131.155C192.708 131.155 191.928 130.741 191.495 129.999C190.845 128.886 191.22 127.458 192.332 126.808L192.378 126.781C193.491 126.132 194.919 126.508 195.569 127.619C196.218 128.731 195.843 130.159 194.731 130.809L194.685 130.836C194.315 131.052 193.91 131.155 193.511 131.155Z" fill="#9BACF2"/>
<path d="M199.34 121.11C198.052 121.11 197.008 120.066 197.008 118.778V118.725C197.008 117.436 198.052 116.393 199.34 116.393C200.628 116.393 201.672 117.436 201.672 118.725V118.778C201.672 120.066 200.628 121.11 199.34 121.11Z" fill="#9BACF2"/>
<path d="M199.34 134.522C198.052 134.522 197.008 133.478 197.008 132.19V132.137C197.008 130.849 198.052 129.805 199.34 129.805C200.628 129.805 201.672 130.849 201.672 132.137V132.19C201.672 133.478 200.628 134.522 199.34 134.522Z" fill="#9BACF2"/>
<path d="M37.8374 182.01C37.4438 182.01 37.0445 181.911 36.6783 181.7L36.6321 181.674C35.515 181.032 35.1297 179.606 35.7711 178.49C36.4124 177.373 37.8384 176.987 38.955 177.629L39.0012 177.655C40.1183 178.297 40.5036 179.722 39.8623 180.839C39.4313 181.59 38.6458 182.01 37.8374 182.01Z" fill="#9BACF2"/>
<path d="M49.4546 188.715C49.0609 188.715 48.6617 188.616 48.2955 188.405L48.2493 188.379C47.1322 187.737 46.7469 186.311 47.3883 185.195C48.0296 184.078 49.4551 183.692 50.5722 184.334L50.6184 184.36C51.7355 185.002 52.1208 186.428 51.4794 187.544C51.048 188.295 50.2625 188.715 49.4546 188.715Z" fill="#9BACF2"/>
<path d="M37.8374 182.01C37.4438 182.01 37.0445 181.911 36.6783 181.7L36.6321 181.674C35.515 181.032 35.1297 179.606 35.7711 178.49C36.4124 177.373 37.8384 176.987 38.955 177.629L39.0012 177.655C40.1183 178.297 40.5036 179.722 39.8623 180.839C39.4313 181.59 38.6458 182.01 37.8374 182.01Z" fill="#9BACF2"/>
<path d="M49.4546 188.715C49.0609 188.715 48.6617 188.616 48.2955 188.405L48.2493 188.379C47.1322 187.737 46.7469 186.311 47.3883 185.195C48.0296 184.078 49.4551 183.692 50.5722 184.334L50.6184 184.36C51.7355 185.002 52.1208 186.428 51.4794 187.544C51.048 188.295 50.2625 188.715 49.4546 188.715Z" fill="#9BACF2"/>
<path d="M49.4131 182.01C48.6052 182.01 47.8193 181.59 47.3883 180.839C46.7469 179.722 47.1322 178.296 48.2493 177.655L48.2955 177.628C49.4126 176.987 50.8381 177.372 51.4794 178.489C52.1208 179.606 51.7355 181.032 50.6184 181.673L50.5722 181.7C50.2061 181.91 49.8068 182.01 49.4131 182.01Z" fill="#9BACF2"/>
<path d="M37.7959 188.717C36.988 188.717 36.2021 188.297 35.7711 187.546C35.1297 186.429 35.515 185.003 36.6321 184.362L36.6783 184.335C37.7954 183.694 39.2209 184.08 39.8623 185.196C40.5036 186.313 40.1183 187.739 39.0012 188.38L38.955 188.407C38.5893 188.617 38.1901 188.717 37.7959 188.717Z" fill="#9BACF2"/>
<path d="M49.4131 182.01C48.6052 182.01 47.8193 181.59 47.3883 180.839C46.7469 179.722 47.1322 178.296 48.2493 177.655L48.2955 177.628C49.4126 176.987 50.8381 177.372 51.4794 178.489C52.1208 179.606 51.7355 181.032 50.6184 181.673L50.5722 181.7C50.2061 181.91 49.8068 182.01 49.4131 182.01Z" fill="#9BACF2"/>
<path d="M37.7959 188.717C36.988 188.717 36.2021 188.297 35.7711 187.546C35.1297 186.429 35.515 185.003 36.6321 184.362L36.6783 184.335C37.7954 183.694 39.2209 184.08 39.8623 185.196C40.5036 186.313 40.1183 187.739 39.0012 188.38L38.955 188.407C38.5893 188.617 38.1901 188.717 37.7959 188.717Z" fill="#9BACF2"/>
<path d="M43.6252 178.67C42.3373 178.67 41.293 177.626 41.293 176.338V176.285C41.293 174.997 42.3373 173.953 43.6252 173.953C44.913 173.953 45.9574 174.997 45.9574 176.285V176.338C45.9574 177.626 44.9135 178.67 43.6252 178.67Z" fill="#9BACF2"/>
<path d="M43.6252 192.083C42.3373 192.083 41.293 191.039 41.293 189.751V189.697C41.293 188.409 42.3373 187.365 43.6252 187.365C44.913 187.365 45.9574 188.409 45.9574 189.697V189.751C45.9574 191.039 44.9135 192.083 43.6252 192.083Z" fill="#9BACF2"/>
</g>
<defs>
<linearGradient id="paint0_linear_1260_7149" x1="4.70652e-07" y1="114.746" x2="238.819" y2="114.746" gradientUnits="userSpaceOnUse">
<stop stop-color="#D2DEFF" stop-opacity="0"/>
<stop offset="1" stop-color="#B7C5FF"/>
</linearGradient>
<clipPath id="clip0_1260_7149">
<rect width="238.819" height="229.49" fill="white"/>
</clipPath>
</defs>
</svg>
