<svg width="227" height="230" viewBox="0 0 227 230" fill="none" xmlns="http://www.w3.org/2000/svg">
<g clip-path="url(#clip0_1260_7154)">
<path d="M225.747 57.1802C222.491 32.0027 208.795 0 150.721 0C110.616 0 110.074 19.2108 67.3558 9.68609C36.2254 2.74536 5.27203 25.6424 0.969092 57.6284C-3.6727 92.1344 21.2875 107.953 29.3904 136.904C38.1312 168.132 44.409 229.49 83.3013 229.49C126.186 229.49 128.401 196.306 156.178 159.894C182.905 124.858 232.657 110.597 225.747 57.1802Z" fill="url(#paint0_linear_1260_7154)"/>
<path opacity="0.1" d="M205.374 169.125L195.336 161.734C195.779 159.144 196.029 156.486 196.029 153.772C196.029 151.072 195.779 148.413 195.336 145.824L205.376 138.431C206.855 137.341 207.436 135.412 206.831 133.678C204.298 126.413 200.42 119.777 195.494 114.059C194.296 112.669 192.336 112.211 190.655 112.945L179.232 117.936C175.175 114.544 170.523 111.816 165.455 109.961L164.071 97.5947C163.866 95.7705 162.49 94.3008 160.687 93.9597C157.015 93.2654 153.226 92.9019 149.352 92.9019V40.276C149.352 38.1075 147.594 36.3496 145.426 36.3496H23.6569C21.4884 36.3496 19.7305 38.1075 19.7305 40.276V149.852C19.7305 152.021 21.4884 153.779 23.6569 153.779H37.1529V193.104C37.1529 195.76 39.3057 197.913 41.9614 197.913H68.2855C70.9412 197.913 73.0941 195.76 73.0941 193.104V153.779H102.688C102.688 156.49 102.923 159.146 103.366 161.734L93.3259 169.138C91.8473 170.228 91.2677 172.159 91.8741 173.893C94.4156 181.156 98.2918 187.789 103.208 193.498C104.405 194.889 106.366 195.347 108.047 194.612L119.469 189.621C123.54 193.014 128.193 195.728 133.261 197.597L134.645 209.974C134.849 211.8 136.228 213.271 138.033 213.611C141.703 214.301 145.489 214.656 149.351 214.656C153.226 214.656 157.015 214.292 160.687 213.598C162.491 213.257 163.867 211.787 164.071 209.963L165.455 197.597C170.523 195.728 175.162 193.013 179.232 189.621L190.643 194.612C192.323 195.347 194.283 194.89 195.481 193.501C200.408 187.791 204.287 181.155 206.828 173.881C207.435 172.146 206.854 170.215 205.374 169.125ZM149.351 176.152C136.995 176.152 126.987 166.134 126.984 153.779H145.426C147.594 153.779 149.352 152.021 149.352 149.853V131.405C161.71 131.406 171.718 141.428 171.718 153.772C171.718 166.13 161.709 176.152 149.351 176.152Z" fill="#1F4FDE"/>
<path d="M149.352 46.2118V139.093C149.352 141.262 147.594 143.02 145.426 143.02H23.6569C21.4884 143.02 19.7305 141.262 19.7305 139.093V46.2118L21.9711 43.9707H146.952L149.352 46.2118Z" fill="#9BACF2"/>
<path d="M120.555 116.537H105.347C104.109 116.537 103.105 115.533 103.105 114.296V89.2157C103.105 87.9782 104.109 86.9746 105.347 86.9746H120.555C121.793 86.9746 122.796 87.9782 122.796 89.2157V114.296C122.796 115.534 121.793 116.537 120.555 116.537Z" fill="white"/>
<path d="M149.352 46.2109V29.5182C149.352 27.3497 147.594 25.5918 145.426 25.5918H23.6569C21.4884 25.5918 19.7305 27.3497 19.7305 29.5182V46.2105H149.352V46.2109Z" fill="white"/>
<path d="M33.2333 39.0193C34.471 39.0193 35.4744 38.016 35.4744 36.7782C35.4744 35.5405 34.471 34.5371 33.2333 34.5371C31.9956 34.5371 30.9922 35.5405 30.9922 36.7782C30.9922 38.016 31.9956 39.0193 33.2333 39.0193Z" fill="#9BACF2"/>
<path d="M41.2294 39.0193C42.4671 39.0193 43.4705 38.016 43.4705 36.7782C43.4705 35.5405 42.4671 34.5371 41.2294 34.5371C39.9917 34.5371 38.9883 35.5405 38.9883 36.7782C38.9883 38.016 39.9917 39.0193 41.2294 39.0193Z" fill="#9BACF2"/>
<path d="M49.2216 39.0193C50.4593 39.0193 51.4627 38.016 51.4627 36.7782C51.4627 35.5405 50.4593 34.5371 49.2216 34.5371C47.9838 34.5371 46.9805 35.5405 46.9805 36.7782C46.9805 38.016 47.9838 39.0193 49.2216 39.0193Z" fill="#9BACF2"/>
<path d="M205.375 158.367L195.339 150.976C195.778 148.389 196.029 145.727 196.029 143.015C196.029 140.312 195.778 137.654 195.339 135.068L205.375 127.672C206.854 126.583 207.436 124.656 206.831 122.921C204.299 115.656 200.422 109.022 195.496 103.303C194.299 101.913 192.336 101.451 190.655 102.187L179.234 107.18C175.178 103.787 170.525 101.057 165.456 99.2014L164.071 86.8394C163.869 85.0151 162.493 83.5449 160.687 83.2043C157.016 82.5095 153.224 82.1465 149.351 82.1465C145.479 82.1465 141.696 82.5095 138.029 83.2043C136.227 83.5449 134.851 85.0151 134.645 86.8349L133.26 99.2014C128.195 101.057 123.543 103.773 119.468 107.18L108.07 102.187C106.394 101.451 104.435 101.909 103.234 103.298C98.2987 109.008 94.4171 115.642 91.8757 122.908C91.2661 124.642 91.8488 126.57 93.3279 127.663L103.368 135.068C102.924 137.654 102.687 140.299 102.687 143.015C102.687 145.727 102.924 148.389 103.368 150.976L93.3279 158.38C91.8488 159.469 91.2661 161.401 91.8757 163.136C94.4171 170.397 98.2942 177.031 103.207 182.741C104.408 184.131 106.367 184.588 108.048 183.853L119.468 178.864C123.543 182.257 128.195 184.969 133.26 186.838L134.645 199.218C134.851 201.042 136.227 202.512 138.034 202.853C141.705 203.543 145.488 203.897 149.351 203.897C153.224 203.897 157.016 203.534 160.687 202.839C162.493 202.499 163.869 201.029 164.071 199.204L165.456 186.838C170.525 184.969 175.16 182.257 179.234 178.864L190.642 183.853C192.322 184.588 194.286 184.131 195.482 182.746C200.408 177.035 204.285 170.397 206.831 163.122C207.436 161.388 206.854 159.456 205.375 158.367ZM149.351 173.808C132.346 173.808 118.572 160.016 118.572 143.011C118.572 126.023 132.346 112.231 149.351 112.231C166.357 112.231 180.131 126.023 180.131 143.011C180.131 160.016 166.357 173.808 149.351 173.808Z" fill="white"/>
<path d="M149.352 109.389C130.777 109.389 115.73 124.453 115.73 143.01C115.73 161.584 130.777 176.649 149.352 176.649C167.926 176.649 182.973 161.584 182.973 143.01C182.973 124.453 167.926 109.389 149.352 109.389ZM149.352 165.394C136.994 165.394 126.985 155.372 126.985 143.014C126.985 130.67 136.994 120.648 149.352 120.648C161.709 120.648 171.718 130.67 171.718 143.014C171.718 155.372 161.709 165.394 149.352 165.394Z" fill="#9BACF2"/>
<path d="M86.3966 86.3176C86.3966 84.9774 86.2729 83.6579 86.0528 82.3728L91.0357 78.7037C91.7699 78.1631 92.0581 77.2053 91.7582 76.3447C90.501 72.7392 88.5763 69.4461 86.1312 66.6079C85.5369 65.9181 84.5638 65.6909 83.7297 66.0553L78.0606 68.5326C76.0471 66.8491 73.7379 65.495 71.2225 64.5744L70.5358 58.4368C70.4345 57.5314 69.7514 56.8022 68.8563 56.6327C67.0338 56.2881 65.1531 56.1074 63.2302 56.1074C61.3078 56.1074 59.4311 56.2881 57.6104 56.6323C56.7153 56.8017 56.0327 57.531 55.9314 58.4364L55.2447 64.5739C52.7292 65.4945 50.4205 66.8419 48.3999 68.5322L42.7424 66.0553C41.9087 65.6904 40.9365 65.9163 40.3413 66.6048C37.8913 69.4389 35.9657 72.732 34.704 76.338C34.4028 77.1985 34.6905 78.1568 35.4243 78.6978L40.4072 82.3728C40.1871 83.6579 40.0705 84.9707 40.0705 86.3176C40.0705 87.6645 40.1875 88.9841 40.4072 90.2692L35.4243 93.9441C34.6905 94.4851 34.4028 95.4434 34.704 96.304C35.9653 99.9086 37.889 103.201 40.3292 106.034C40.9235 106.724 41.8966 106.952 42.7312 106.587L48.4003 104.11C50.4209 105.793 52.7297 107.141 55.2451 108.068L55.9318 114.211C56.0331 115.118 56.7171 115.848 57.6135 116.016C59.4351 116.359 61.3141 116.535 63.2307 116.535C65.1535 116.535 67.0343 116.354 68.8568 116.01C69.7519 115.84 70.4349 115.111 70.5362 114.206L71.2229 108.068C73.7383 107.14 76.0404 105.793 78.061 104.11L83.7243 106.587C84.5584 106.952 85.5311 106.725 86.1259 106.035C88.5709 103.201 90.496 99.9077 91.7573 96.2978C92.0581 95.4367 91.7699 94.4784 91.0353 93.9374L86.0533 90.2687C86.2729 88.9841 86.3966 87.6645 86.3966 86.3176ZM63.2302 97.425C57.0967 97.425 52.1291 92.4511 52.1291 86.3176C52.1291 80.1909 57.0967 75.2165 63.2302 75.2165C69.3637 75.2165 74.3313 80.1904 74.3313 86.3176C74.3313 92.4511 69.3637 97.425 63.2302 97.425Z" fill="white"/>
<path d="M108.502 63.7451H105.347C104.109 63.7451 103.105 62.7416 103.105 61.504V58.3485C103.105 57.111 104.109 56.1074 105.347 56.1074H108.502C109.74 56.1074 110.743 57.111 110.743 58.3485V61.504C110.743 62.742 109.74 63.7451 108.502 63.7451Z" fill="white"/>
<path d="M103.105 70.204C103.105 71.4415 104.109 72.4451 105.347 72.4451H120.555C121.793 72.4451 122.796 71.4415 122.796 70.204C122.796 68.9665 121.793 67.9629 120.555 67.9629H105.347C104.109 67.9629 103.105 68.9665 103.105 70.204Z" fill="white"/>
<path d="M125.934 75.7617H105.347C104.109 75.7617 103.105 76.7653 103.105 78.0028C103.105 79.2404 104.109 80.2439 105.347 80.2439H125.934C127.171 80.2439 128.175 79.2404 128.175 78.0028C128.175 76.7653 127.171 75.7617 125.934 75.7617Z" fill="white"/>
<path d="M68.285 187.155H41.9609C39.3052 187.155 37.1523 185.003 37.1523 182.347V132.113C37.1523 129.457 39.3052 127.305 41.9609 127.305H45.8788L49.5421 129.546H60.7038L64.3671 127.305H68.285C70.9407 127.305 73.0935 129.457 73.0935 132.113V182.347C73.0935 185.003 70.9407 187.155 68.285 187.155Z" fill="white"/>
<path d="M63.0405 132.767L64.3672 127.305H45.8789L47.2056 132.767C47.4674 133.845 48.4329 134.604 49.5422 134.604H60.7039C61.8132 134.604 62.7787 133.844 63.0405 132.767Z" fill="#9BACF2"/>
<path d="M206.703 156.562L197.762 149.979C198.099 147.631 198.27 145.294 198.27 143.014C198.27 140.742 198.099 138.409 197.762 136.063L206.705 129.477C208.983 127.8 209.885 124.868 208.948 122.182C206.344 114.715 202.389 107.87 197.192 101.838C195.338 99.6852 192.351 99.0008 189.758 100.133L179.586 104.578C175.897 101.665 171.852 99.3231 167.531 97.5979L166.299 86.5873C165.984 83.7733 163.896 81.5277 161.104 80.9997C157.982 80.4094 154.794 80.0625 151.592 79.9509V29.5196C151.592 26.1184 148.825 23.3516 145.424 23.3516H23.6558C20.2552 23.3516 17.4883 26.1184 17.4883 29.5196V139.092C17.4883 142.493 20.2552 145.26 23.6558 145.26H34.912V157.099C34.912 158.337 35.9156 159.34 37.1532 159.34C38.3907 159.34 39.3943 158.337 39.3943 157.099V132.112C39.3943 130.696 40.5462 129.544 41.9621 129.544H68.2863C69.7022 129.544 70.8541 130.696 70.8541 132.112V182.346C70.8541 183.761 69.7022 184.913 68.2863 184.913H41.9621C40.5462 184.913 39.3943 183.762 39.3943 182.346V170.338C39.3943 169.1 38.3907 168.097 37.1532 168.097C35.9156 168.097 34.912 169.1 34.912 170.338V182.346C34.912 186.233 38.0747 189.396 41.9621 189.396H68.2863C72.1737 189.396 75.3363 186.233 75.3363 182.346V145.26H89.1237C90.3612 145.26 91.3648 144.256 91.3648 143.018C91.3648 141.781 90.3612 140.777 89.1237 140.777H75.3363V132.112C75.3363 128.225 72.1737 125.062 68.2863 125.062H41.9621C38.0747 125.062 34.912 128.225 34.912 132.112V140.777H23.6558C22.7267 140.777 21.9705 140.021 21.9705 139.092V29.5196C21.9705 28.5904 22.7267 27.8338 23.6558 27.8338H145.424C146.354 27.8338 147.11 28.5904 147.11 29.5196V79.9504C143.914 80.062 140.729 80.4085 137.612 80.9988C134.82 81.5277 132.733 83.7729 132.418 86.5868L131.186 97.597C126.848 99.3275 122.799 101.67 119.117 104.577L108.97 100.134C106.38 99.0008 103.394 99.6821 101.538 101.829C96.3405 107.842 92.3773 114.684 89.7592 122.165C88.8198 124.852 89.7185 127.785 91.9963 129.465L100.942 136.062C100.613 138.37 100.447 140.703 100.447 143.014C100.447 145.331 100.613 147.668 100.942 149.979L91.9963 156.576C89.7185 158.256 88.8193 161.189 89.7592 163.875C92.3724 171.343 96.3257 178.182 101.51 184.202C103.364 186.356 106.352 187.041 108.945 185.908L119.119 181.462C122.8 184.359 126.849 186.701 131.185 188.44L132.418 199.465C132.733 202.283 134.823 204.529 137.619 205.056C141.444 205.775 145.391 206.139 149.351 206.139C153.3 206.139 157.254 205.77 161.104 205.042C163.896 204.514 165.984 202.269 166.299 199.454L167.531 188.441C171.854 186.705 175.898 184.364 179.584 181.463L189.746 185.908C192.335 187.039 195.324 186.357 197.179 184.207C202.372 178.188 206.331 171.343 208.945 163.863C209.884 161.174 208.983 158.241 206.703 156.562ZM204.714 162.384C202.286 169.33 198.609 175.688 193.785 181.278C193.222 181.931 192.319 182.141 191.541 181.8L180.131 176.809C179.353 176.469 178.45 176.597 177.798 177.141C173.86 180.422 169.447 182.977 164.68 184.735C163.884 185.029 163.322 185.746 163.228 186.589L161.844 198.955C161.749 199.801 161.117 200.477 160.271 200.637C153.105 201.992 145.538 201.983 138.448 200.65C137.6 200.491 136.967 199.814 136.872 198.967L135.488 186.589C135.394 185.746 134.832 185.029 134.037 184.735C129.254 182.971 124.835 180.416 120.905 177.141C120.494 176.799 119.985 176.621 119.47 176.621C119.166 176.621 118.861 176.683 118.573 176.809L107.15 181.8C106.37 182.14 105.469 181.93 104.906 181.277C100.09 175.684 96.4171 169.331 93.99 162.394C93.7041 161.577 93.9716 160.688 94.6565 160.183L104.696 152.779C105.378 152.276 105.718 151.432 105.575 150.597C105.146 148.091 104.928 145.539 104.928 143.013C104.928 140.495 105.146 137.949 105.575 135.443C105.718 134.608 105.378 133.764 104.696 133.261L94.6561 125.856C93.9716 125.352 93.7036 124.463 93.9896 123.645C96.4207 116.698 100.101 110.344 104.928 104.76C105.492 104.108 106.393 103.898 107.172 104.239L118.571 109.23C119.351 109.573 120.256 109.442 120.908 108.896C124.835 105.61 129.25 103.056 134.031 101.306C134.829 101.014 135.393 100.295 135.488 99.4504L136.872 87.0835C136.967 86.2377 137.599 85.5617 138.445 85.4017C145.595 84.0481 153.125 84.0508 160.27 85.4022C161.117 85.5617 161.749 86.2381 161.844 87.0839L163.227 99.4504C163.322 100.295 163.886 101.014 164.684 101.306C169.444 103.048 173.855 105.602 177.795 108.897C178.446 109.441 179.351 109.571 180.129 109.231L191.552 104.24C192.331 103.898 193.233 104.109 193.796 104.762C198.624 110.366 202.297 116.724 204.715 123.656C205 124.474 204.732 125.362 204.047 125.866L194.007 133.26C193.325 133.762 192.984 134.607 193.127 135.442C193.565 138.002 193.787 140.549 193.787 143.013C193.787 145.485 193.565 148.036 193.127 150.597C192.984 151.432 193.325 152.277 194.007 152.779L204.046 160.171C204.731 160.677 204.999 161.565 204.714 162.384Z" fill="#1F4FDE"/>
<path d="M149.351 118.406C149.35 118.406 149.35 118.406 149.351 118.406C149.35 118.406 149.35 118.406 149.35 118.406C135.781 118.407 124.742 129.446 124.742 143.015C124.742 156.591 135.781 167.636 149.351 167.636C162.92 167.636 173.959 156.591 173.959 143.015C173.959 129.446 162.92 118.406 149.351 118.406ZM147.109 123.016V139.093C147.109 140.022 146.353 140.778 145.424 140.778H129.351C130.386 131.466 137.798 124.053 147.109 123.016ZM149.351 163.154C139.012 163.154 130.473 155.311 129.353 145.26H145.424C148.825 145.26 151.592 142.493 151.592 139.093V123.016C161.638 124.135 169.477 132.675 169.477 143.015C169.477 154.119 160.448 163.154 149.351 163.154Z" fill="#1F4FDE"/>
<path d="M63.6743 156.987L60.1074 153.42C61.5955 150.58 61.1477 146.982 58.7636 144.598C55.8277 141.663 51.0515 141.663 48.1156 144.598C45.1802 147.533 45.1802 152.311 48.1156 155.246C49.5835 156.714 51.5114 157.448 53.4396 157.448C54.6431 157.448 55.8461 157.162 56.938 156.59L60.5049 160.157C60.9429 160.594 61.5161 160.813 62.0899 160.813C62.6636 160.813 63.2369 160.594 63.6748 160.157C64.5493 159.281 64.5493 157.862 63.6743 156.987ZM51.285 152.077C50.0972 150.889 50.0972 148.956 51.285 147.768C51.8789 147.174 52.6593 146.877 53.4396 146.877C54.22 146.877 54.9999 147.174 55.5942 147.768C56.782 148.956 56.782 150.889 55.5942 152.077C54.406 153.265 52.4732 153.265 51.285 152.077Z" fill="#9BACF2"/>
<path d="M48.4141 174.6C48.4141 175.838 49.4176 176.842 50.6552 176.842H59.5887C60.8262 176.842 61.8298 175.838 61.8298 174.6C61.8298 173.363 60.8262 172.359 59.5887 172.359H50.6552C49.4176 172.359 48.4141 173.362 48.4141 174.6Z" fill="#9BACF2"/>
<path d="M185.104 78.7601C183.866 78.7601 182.863 77.757 182.863 76.519C182.863 75.16 181.756 74.0538 180.397 74.0538C179.159 74.0538 178.156 73.0507 178.156 71.8127C178.156 70.5747 179.159 69.5716 180.397 69.5716C181.756 69.5716 182.863 68.4654 182.863 67.1063C182.863 65.8684 183.866 64.8652 185.104 64.8652C186.342 64.8652 187.345 65.8684 187.345 67.1063C187.345 68.4654 188.451 69.5716 189.81 69.5716C191.048 69.5716 192.051 70.5747 192.051 71.8127C192.051 73.0507 191.048 74.0538 189.81 74.0538C188.451 74.0538 187.345 75.16 187.345 76.519C187.345 77.757 186.341 78.7601 185.104 78.7601Z" fill="#9BACF2"/>
<path d="M15.9475 183.2C14.7099 183.2 13.7063 182.196 13.7063 180.958C13.7063 179.599 12.6006 178.493 11.2411 178.493C10.0036 178.493 9 177.49 9 176.252C9 175.014 10.0036 174.011 11.2411 174.011C12.6006 174.011 13.7063 172.905 13.7063 171.546C13.7063 170.308 14.7099 169.305 15.9475 169.305C17.185 169.305 18.1886 170.308 18.1886 171.546C18.1886 172.905 19.2943 174.011 20.6538 174.011C21.8913 174.011 22.8949 175.014 22.8949 176.252C22.8949 177.49 21.8913 178.493 20.6538 178.493C19.2943 178.493 18.1886 179.599 18.1886 180.958C18.1886 182.196 17.1854 183.2 15.9475 183.2Z" fill="#9BACF2"/>
<path d="M86.26 208.776C85.0224 208.776 84.0188 207.773 84.0188 206.535C84.0188 205.176 82.9131 204.069 81.5536 204.069C80.3161 204.069 79.3125 203.066 79.3125 201.828C79.3125 200.59 80.3161 199.587 81.5536 199.587C82.9131 199.587 84.0188 198.481 84.0188 197.122C84.0188 195.884 85.0224 194.881 86.26 194.881C87.4975 194.881 88.5011 195.884 88.5011 197.122C88.5011 198.481 89.6068 199.587 90.9663 199.587C92.2038 199.587 93.2074 200.59 93.2074 201.828C93.2074 203.066 92.2038 204.069 90.9663 204.069C89.6068 204.069 88.5011 205.176 88.5011 206.535C88.5011 207.773 87.4975 208.776 86.26 208.776Z" fill="#9BACF2"/>
<path d="M167.561 58.2639C166.987 58.2639 166.413 58.0452 165.976 57.6073L161.27 52.9009C160.394 52.026 160.394 50.6069 161.27 49.732L165.976 45.0257C166.851 44.1503 168.271 44.1503 169.145 45.0257L173.851 49.732C174.727 50.6069 174.727 52.026 173.851 52.9009L169.145 57.6073C168.708 58.0452 168.134 58.2639 167.561 58.2639ZM166.024 51.3165L167.561 52.8534L169.098 51.3165L167.561 49.7795L166.024 51.3165Z" fill="#9BACF2"/>
<path d="M185.104 212.274C184.53 212.274 183.956 212.055 183.519 211.617L178.813 206.911C177.937 206.036 177.937 204.617 178.813 203.742L183.519 199.035C184.394 198.16 185.814 198.16 186.688 199.035L191.394 203.742C192.27 204.617 192.27 206.036 191.394 206.911L186.688 211.617C186.251 212.055 185.677 212.274 185.104 212.274ZM183.567 205.326L185.104 206.863L186.641 205.326L185.104 203.789L183.567 205.326Z" fill="#9BACF2"/>
</g>
<defs>
<linearGradient id="paint0_linear_1260_7154" x1="14.4265" y1="174.143" x2="189.106" y2="-0.536506" gradientUnits="userSpaceOnUse">
<stop stop-color="#D1DDFF" stop-opacity="0"/>
<stop offset="1" stop-color="#B6C4FF"/>
</linearGradient>
<clipPath id="clip0_1260_7154">
<rect width="226.801" height="229.49" fill="white"/>
</clipPath>
</defs>
</svg>
