<svg width="259" height="230" viewBox="0 0 259 230" fill="none" xmlns="http://www.w3.org/2000/svg">
<path d="M258.302 203.879C252.037 170.472 227.627 144.784 210.836 116.09C193.602 86.6391 214.924 75.5512 236.111 51.8699C259.504 25.7221 226.177 -23.5395 186.34 13.0512C166.957 30.8542 133.87 2.82004 76.9782 4.13367C23.8806 5.35988 1.44449 64.9845 28.5412 100.327C50.3928 128.829 89.6297 137.454 122.693 147.939C156.278 158.591 178.492 183.649 198.198 210.812C214.44 233.199 265.178 240.543 258.302 203.879V203.879Z" fill="url(#paint0_linear_405_10630)"/>
<g clip-path="url(#clip0_405_10630)">
<path d="M78.3828 81.6348H105.308V177.305H78.3828V81.6348Z" fill="#A4C9FF"/>
<path d="M23.3867 81.6348H50.3123V177.305H23.3867V81.6348Z" fill="#A4C9FF"/>
<path d="M133.379 81.6348H160.304V177.305H133.379V81.6348Z" fill="#A4C9FF"/>
<path d="M105.306 179.127H78.3807C77.3749 179.127 76.5586 178.311 76.5586 177.305V81.6346C76.5586 80.6288 77.3749 79.8125 78.3807 79.8125H105.306C106.312 79.8125 107.128 80.6288 107.128 81.6346V177.305C107.128 178.311 106.312 179.127 105.306 179.127ZM80.2028 175.483H103.484V83.4568H80.2028V175.483Z" fill="#1F4FDE" stroke="#1F4FDE"/>
<path d="M50.3102 179.127H23.3846C22.3788 179.127 21.5625 178.311 21.5625 177.305V81.6346C21.5625 80.6288 22.3788 79.8125 23.3846 79.8125H50.3102C51.316 79.8125 52.1323 80.6288 52.1323 81.6346V177.305C52.1323 178.311 51.316 179.127 50.3102 179.127ZM25.2068 175.483H48.4881V83.4568H25.2068V175.483Z" fill="#1F4FDE" stroke="#1F4FDE"/>
<path d="M160.302 179.127H133.377C132.371 179.127 131.555 178.311 131.555 177.305V81.6346C131.555 80.6288 132.371 79.8125 133.377 79.8125H160.302C161.308 79.8125 162.124 80.6288 162.124 81.6346V177.305C162.124 178.311 161.309 179.127 160.302 179.127ZM135.2 175.483H158.481V83.4568H135.2V175.483Z" fill="#1F4FDE" stroke="#1F4FDE"/>
<path d="M177.201 189.335H6.48432C4.58566 189.335 3.04688 187.796 3.04688 185.898V169.857C3.04688 167.959 4.58566 166.42 6.48432 166.42H177.201C179.1 166.42 180.639 167.959 180.639 169.857V185.898C180.639 187.796 179.099 189.335 177.201 189.335Z" fill="#E0EBFC"/>
<path d="M177.202 191.157H6.48613C3.58622 191.157 1.22656 188.797 1.22656 185.898V169.858C1.22656 166.958 3.58622 164.6 6.48613 164.6H177.202C180.103 164.6 182.462 166.959 182.462 169.858V185.898C182.462 188.797 180.103 191.157 177.202 191.157ZM6.48613 168.242C5.59511 168.242 4.87081 168.966 4.87081 169.856V185.897C4.87081 186.788 5.59511 187.511 6.48613 187.511H177.202C178.093 187.511 178.817 186.787 178.817 185.897V169.856C178.817 168.965 178.092 168.242 177.202 168.242H6.48613Z" fill="#1F4FDE" stroke="#1F4FDE"/>
<path d="M3.04688 72.4689H180.639L95.118 12.8799C93.1501 11.5088 90.5362 11.5088 88.5684 12.8799L3.04688 72.4689Z" fill="#A4C9FF"/>
<path d="M35.8867 61.6557L91.846 22.6641L147.804 61.6557H35.8867Z" fill="#E0EBFC"/>
<path d="M180.64 74.2904H3.04877C2.2525 74.2904 1.54916 73.7738 1.31046 73.0149C1.07177 72.2551 1.3542 71.4287 2.00743 70.9741L87.528 11.386C90.1099 9.58486 93.5802 9.58486 96.1621 11.386L181.683 70.9741C182.336 71.4287 182.617 72.2551 182.38 73.0149C182.14 73.7738 181.437 74.2904 180.64 74.2904ZM8.85133 70.6461H174.838L94.0776 14.3743C92.742 13.4441 90.9472 13.4441 89.6116 14.3743L8.85133 70.6461Z" fill="#1F4FDE" stroke="#1F4FDE"/>
<path d="M147.802 63.477H35.8847C35.0884 63.477 34.3851 62.9605 34.1464 62.2015C33.9077 61.4417 34.1901 60.6154 34.8434 60.1608L90.8018 21.1691C91.4286 20.7327 92.2595 20.7327 92.8854 21.1691L148.844 60.1608C149.497 60.6154 149.779 61.4417 149.541 62.2015C149.302 62.9605 148.599 63.477 147.802 63.477ZM41.6873 59.8328H142L91.8431 24.8844L41.6873 59.8328Z" fill="#1F4FDE" stroke="#1F4FDE"/>
<path d="M224.872 218.149H98.2232C94.9416 218.149 92.2812 215.489 92.2812 212.207V143.547C92.2812 140.266 94.9416 137.605 98.2232 137.605H224.872C228.154 137.605 230.814 140.266 230.814 143.547V212.207C230.814 215.489 228.154 218.149 224.872 218.149Z" fill="#E0EBFC"/>
<path d="M212.496 160.074H177.34C174.825 160.074 172.785 158.035 172.785 155.518C172.785 153.002 174.825 150.963 177.34 150.963H212.496C215.011 150.963 217.051 153.002 217.051 155.518C217.051 158.035 215.011 160.074 212.496 160.074Z" fill="#A4C9FF"/>
<path d="M212.496 181.861H177.34C174.825 181.861 172.785 179.822 172.785 177.305C172.785 174.789 174.825 172.75 177.34 172.75H212.496C215.011 172.75 217.051 174.789 217.051 177.305C217.051 179.822 215.011 181.861 212.496 181.861Z" fill="#A4C9FF"/>
<path d="M212.496 203.646H177.34C174.825 203.646 172.785 201.607 172.785 199.09C172.785 196.574 174.825 194.535 177.34 194.535H212.496C215.011 194.535 217.051 196.574 217.051 199.09C217.051 201.607 215.011 203.646 212.496 203.646Z" fill="#A4C9FF"/>
<path d="M224.874 219.971H98.2241C93.943 219.971 90.4609 216.489 90.4609 212.208V143.548C90.4609 139.267 93.9439 135.785 98.2241 135.785H224.874C229.155 135.785 232.637 139.267 232.637 143.548V212.208C232.637 216.489 229.155 219.971 224.874 219.971ZM98.2241 139.429C95.9528 139.429 94.1052 141.276 94.1052 143.547V212.207C94.1052 214.478 95.9528 216.326 98.2241 216.326H224.874C227.145 216.326 228.993 214.478 228.993 212.207V143.547C228.993 141.276 227.145 139.429 224.874 139.429H98.2241Z" fill="#1F4FDE" stroke="#1F4FDE"/>
<path d="M177.201 93.0928H6.48432C4.58566 93.0928 3.04688 91.554 3.04688 89.6553V73.6152C3.04688 71.7165 4.58566 70.1777 6.48432 70.1777H177.201C179.1 70.1777 180.639 71.7165 180.639 73.6152V89.6553C180.639 91.554 179.099 93.0928 177.201 93.0928Z" fill="#E0EBFC"/>
<path d="M177.202 94.9148H6.48613C3.58622 94.9148 1.22656 92.5551 1.22656 89.6561V73.615C1.22656 70.7142 3.58622 68.3555 6.48613 68.3555H177.202C180.103 68.3555 182.462 70.7151 182.462 73.615V89.6552C182.462 92.5551 180.103 94.9148 177.202 94.9148ZM6.48613 71.9997C5.59511 71.9997 4.87081 72.7249 4.87081 73.615V89.6552C4.87081 90.5462 5.59511 91.2696 6.48613 91.2696H177.202C178.093 91.2696 178.817 90.5453 178.817 89.6552V73.615C178.817 72.724 178.092 71.9997 177.202 71.9997H6.48613Z" fill="#1F4FDE" stroke="#1F4FDE"/>
<path d="M91.845 108.104C106.464 108.104 118.315 96.2531 118.315 81.6341C118.315 67.0151 106.464 55.1641 91.845 55.1641C77.226 55.1641 65.375 67.0151 65.375 81.6341C65.375 96.2531 77.226 108.104 91.845 108.104Z" fill="white"/>
<path d="M91.8433 101.825C80.7101 101.825 71.6523 92.7675 71.6523 81.6343C71.6523 70.5011 80.7101 61.4434 91.8433 61.4434C102.977 61.4434 112.034 70.5011 112.034 81.6343C112.034 92.7675 102.977 101.825 91.8433 101.825Z" fill="#9BACF2"/>
<path d="M93.8721 78.6713H93.7911V72.4196H93.8721C95.5959 72.4196 96.998 73.8217 96.998 75.5454C96.998 76.6214 97.8708 77.4942 98.9468 77.4942C100.024 77.4942 100.896 76.6214 100.896 75.5454C100.896 71.6725 97.7451 68.522 93.8721 68.522H93.7911V68.441C93.7911 67.365 92.9183 66.4922 91.8423 66.4922C90.7663 66.4922 89.8935 67.365 89.8935 68.441V68.522H89.8124C85.9395 68.522 82.7891 71.6725 82.7891 75.5454C82.7891 79.4184 85.9395 82.5688 89.8124 82.5688H89.8935V90.8504H89.8124C88.0887 90.8504 86.6866 89.4482 86.6866 87.7245C86.6866 86.6485 85.8138 85.7757 84.7378 85.7757C83.6619 85.7757 82.7891 86.6485 82.7891 87.7245C82.7891 91.5974 85.9395 94.7488 89.8124 94.7488H89.8935V94.8299C89.8935 95.9068 90.7663 96.7787 91.8423 96.7787C92.9183 96.7787 93.7911 95.9059 93.7911 94.8299V94.7488H93.8721C97.7451 94.7488 100.896 91.5974 100.896 87.7245V85.6947C100.896 81.8217 97.7451 78.6713 93.8721 78.6713ZM89.8935 78.6713H89.8124C88.0887 78.6713 86.6866 77.2692 86.6866 75.5454C86.6866 73.8217 88.0887 72.4196 89.8124 72.4196H89.8935V78.6713ZM96.998 87.7245C96.998 89.4482 95.5959 90.8504 93.8721 90.8504H93.7911V82.5688H93.8721C95.5959 82.5688 96.998 83.9709 96.998 85.6947V87.7245Z" fill="white"/>
<path d="M91.8438 109.928C76.2428 109.928 63.5508 97.2359 63.5508 81.6349C63.5508 66.0338 76.2428 53.3418 91.8438 53.3418C107.445 53.3418 120.137 66.0338 120.137 81.6349C120.137 97.2359 107.444 109.928 91.8438 109.928ZM91.8438 56.986C78.2526 56.986 67.195 68.0436 67.195 81.6349C67.195 95.2261 78.2526 106.284 91.8438 106.284C105.435 106.284 116.493 95.2261 116.493 81.6349C116.493 68.0436 105.435 56.986 91.8438 56.986Z" fill="#1F4FDE" stroke="#1F4FDE"/>
<path d="M133.376 183.842C142.431 183.842 149.771 176.501 149.771 167.446C149.771 158.391 142.431 151.051 133.376 151.051C124.321 151.051 116.98 158.391 116.98 167.446C116.98 176.501 124.321 183.842 133.376 183.842Z" fill="white"/>
<path d="M153.613 203.558H113.195V192.445C113.195 187.694 117.047 183.842 121.798 183.842H145.01C149.761 183.842 153.613 187.694 153.613 192.445V203.558Z" fill="#1F4FDE" stroke="#1F4FDE"/>
<path d="M133.378 185.664C123.333 185.664 115.16 177.491 115.16 167.446C115.16 157.401 123.332 149.229 133.378 149.229C143.423 149.229 151.595 157.401 151.595 167.446C151.595 177.491 143.423 185.664 133.378 185.664ZM133.378 152.872C125.342 152.872 118.804 159.41 118.804 167.445C118.804 175.481 125.342 182.019 133.378 182.019C141.413 182.019 147.951 175.481 147.951 167.445C147.951 159.41 141.413 152.872 133.378 152.872Z" fill="#1F4FDE" stroke="#1F4FDE"/>
<path d="M153.615 205.38H113.197C112.191 205.38 111.375 204.564 111.375 203.558V192.445C111.375 186.696 116.051 182.02 121.8 182.02H145.012C150.761 182.02 155.437 186.697 155.437 192.445V203.558C155.437 204.565 154.62 205.38 153.615 205.38ZM115.019 201.736H151.792V192.445C151.792 188.706 148.75 185.664 145.012 185.664H121.8C118.061 185.664 115.019 188.706 115.019 192.445V201.736Z" fill="#1F4FDE" stroke="#1F4FDE"/>
</g>
<defs>
<linearGradient id="paint0_linear_405_10630" x1="97.2034" y1="169.915" x2="246.57" y2="20.5488" gradientUnits="userSpaceOnUse">
<stop stop-color="#D1DDFF" stop-opacity="0"/>
<stop offset="1" stop-color="#B6C4FF"/>
</linearGradient>
<clipPath id="clip0_405_10630">
<rect width="234" height="212" fill="white" transform="translate(0 9)"/>
</clipPath>
</defs>
</svg>
