<svg width="258" height="238" viewBox="0 0 258 238" fill="none" xmlns="http://www.w3.org/2000/svg">
<path d="M255.392 100.048C249.872 77.0508 219.108 68.9485 200.621 69.9063C175.95 71.1843 164.772 63.4041 170.179 38.2511C173.267 23.8783 176.377 14.1001 154.115 6.51951C134.888 -0.0264676 72.8728 -7.13187 59.9577 15.0058C53.6551 25.8093 76.8534 35.6634 65.9056 50.2605C58.1826 60.5581 35.2966 52.944 22.9297 68.8382C14.1535 80.1174 19.6835 98.5965 42.597 108.4C62.1195 116.752 90.8375 121.568 96.0962 145.65C98.7323 157.721 85.2796 174.635 92.0267 192.402C97.2406 206.132 112.942 212.193 133.675 192.028C174.586 152.239 165.934 209.049 172.141 220.676C179.253 233.996 203.858 228.545 214.916 217.399C245.149 186.926 263.366 133.271 255.392 100.048V100.048Z" fill="url(#paint0_linear_405_10493)"/>
<g clip-path="url(#clip0_405_10493)">
<path d="M85.3125 31.2812H177.188C179.798 31.2813 182.302 32.3184 184.148 34.1644C185.994 36.0105 187.031 38.5143 187.031 41.125V57.5312H85.3125V31.2812Z" fill="#9BACF2"/>
<path d="M101.719 57.5312H3.28125V41.125C3.28125 38.5143 4.31836 36.0105 6.16442 34.1644C8.01048 32.3184 10.5143 31.2813 13.125 31.2813H87.4781C89.6721 31.2811 91.8033 32.014 93.5332 33.3634C95.2632 34.7129 96.4927 36.6016 97.0266 38.7297L101.719 57.5312Z" fill="#9BACF2"/>
<path d="M187.031 57.5312V215.031H13.125C10.5143 215.031 8.01048 213.994 6.16442 212.148C4.31836 210.302 3.28125 207.798 3.28125 205.188V57.5312H187.031Z" fill="#F5F7FF"/>
<path d="M174.3 129.324C172.454 127.481 169.952 126.445 167.344 126.445C164.735 126.445 162.233 127.481 160.388 129.324C150.638 139.069 138.531 146.123 125.245 149.799C123.194 150.39 121.391 151.631 120.107 153.335C118.823 155.039 118.127 157.115 118.125 159.249C118.125 179.462 117.009 190.224 123.014 205.187H13.125C10.5143 205.187 8.01048 204.15 6.16442 202.303C4.31836 200.457 3.28125 197.954 3.28125 195.343V205.187C3.28125 207.797 4.31836 210.301 6.16442 212.147C8.01048 213.993 10.5143 215.03 13.125 215.03H187.031V139.562C182.442 136.602 178.175 133.171 174.3 129.324Z" fill="#CCD3EB"/>
<path d="M206.719 159.25V180.086C206.719 192.172 202.917 203.953 195.85 213.758C188.783 223.563 178.81 230.897 167.344 234.719C155.877 230.897 145.905 223.563 138.838 213.758C131.771 203.953 127.968 192.172 127.969 180.086V159.25C142.853 155.113 156.416 147.201 167.344 136.281C178.271 147.201 191.834 155.113 206.719 159.25Z" fill="#9BACF2"/>
<path d="M161.735 197.673L151.891 187.829C151.273 187.212 150.926 186.374 150.926 185.5C150.926 184.626 151.273 183.788 151.891 183.17C152.509 182.552 153.347 182.205 154.22 182.205C155.094 182.205 155.932 182.552 156.55 183.17L164.064 190.717L178.141 176.608C178.759 175.99 179.597 175.643 180.47 175.643C181.344 175.643 182.182 175.99 182.8 176.608C183.418 177.225 183.765 178.063 183.765 178.937C183.765 179.811 183.418 180.649 182.8 181.267L166.394 197.673C166.089 197.981 165.726 198.225 165.326 198.391C164.926 198.558 164.497 198.644 164.064 198.644C163.631 198.644 163.202 198.558 162.802 198.391C162.402 198.225 162.04 197.981 161.735 197.673Z" fill="#F5F7FF"/>
<path d="M88.5938 73.9375H29.5312C24.0947 73.9375 19.6875 78.3447 19.6875 83.7812V162.531C19.6875 167.968 24.0947 172.375 29.5312 172.375H88.5938C94.0303 172.375 98.4375 167.968 98.4375 162.531V83.7812C98.4375 78.3447 94.0303 73.9375 88.5938 73.9375Z" fill="#9BACF2"/>
<path d="M85.3125 145.633V172.375H32.8125V145.633C32.815 143.806 33.3258 142.016 34.2878 140.463C35.2497 138.91 36.6249 137.655 38.2594 136.839L52.5 129.719H65.625L79.8656 136.839C81.5001 137.655 82.8753 138.91 83.8372 140.463C84.7992 142.016 85.31 143.806 85.3125 145.633Z" fill="#CCD3EB"/>
<path d="M59.0625 149.406C57.322 149.406 55.6528 148.715 54.4221 147.484C53.1914 146.253 52.5 144.584 52.5 142.844V129.719H65.625V142.844C65.625 144.584 64.9336 146.253 63.7029 147.484C62.4722 148.715 60.803 149.406 59.0625 149.406Z" fill="#F5F7FF"/>
<path d="M59.0625 136.281C54.7113 136.281 50.5383 134.553 47.4615 131.476C44.3848 128.399 42.6563 124.226 42.6562 119.875V110.031H75.4688V119.875C75.4688 122.029 75.0444 124.163 74.2199 126.153C73.3954 128.144 72.1869 129.953 70.6635 131.476C69.14 132.999 67.3314 134.208 65.3409 135.032C63.3504 135.857 61.217 136.281 59.0625 136.281Z" fill="#F5F7FF"/>
<path d="M72.1875 110.031H42.6562V100.188C42.6562 98.447 43.3477 96.7778 44.5784 95.5471C45.8091 94.3164 47.4783 93.625 49.2188 93.625H62.9016C65.845 93.6272 68.76 93.0487 71.4795 91.9226C74.1991 90.7965 76.6697 89.1449 78.75 87.0625V103.469C78.75 105.209 78.0586 106.878 76.8279 108.109C75.5972 109.34 73.928 110.031 72.1875 110.031Z" fill="#9BACF2"/>
<path d="M3.28125 165.812C4.15149 165.812 4.98609 165.467 5.60144 164.851C6.2168 164.236 6.5625 163.401 6.5625 162.531V60.8125H183.75V136.281C183.75 137.151 184.096 137.986 184.711 138.601C185.326 139.217 186.161 139.562 187.031 139.562C187.901 139.562 188.736 139.217 189.351 138.601C189.967 137.986 190.312 137.151 190.312 136.281V41.125C190.312 37.644 188.93 34.3056 186.468 31.8442C184.007 29.3828 180.668 28 177.188 28H13.125C9.64403 28 6.30564 29.3828 3.84422 31.8442C1.38281 34.3056 0 37.644 0 41.125L0 162.531C0 163.401 0.345702 164.236 0.961056 164.851C1.57641 165.467 2.41101 165.812 3.28125 165.812ZM183.75 41.125V54.25H104.278C99.8813 36.6625 100.111 36.8594 98.7984 34.5625H177.188C178.928 34.5625 180.597 35.2539 181.828 36.4846C183.059 37.7153 183.75 39.3845 183.75 41.125ZM13.125 34.5625H87.4781C88.9437 34.5636 90.3668 35.0553 91.5204 35.9592C92.6741 36.8632 93.492 38.1272 93.8438 39.55L97.5187 54.25H6.5625V41.125C6.5625 39.3845 7.2539 37.7153 8.48461 36.4846C9.71532 35.2539 11.3845 34.5625 13.125 34.5625Z" fill="#1F4FDE"/>
<path d="M3.28125 185.5C4.15149 185.5 4.98609 185.154 5.60144 184.539C6.2168 183.924 6.5625 183.089 6.5625 182.219V175.656C6.5625 174.786 6.2168 173.951 5.60144 173.336C4.98609 172.721 4.15149 172.375 3.28125 172.375C2.41101 172.375 1.57641 172.721 0.961056 173.336C0.345702 173.951 0 174.786 0 175.656L0 182.219C0 183.089 0.345702 183.924 0.961056 184.539C1.57641 185.154 2.41101 185.5 3.28125 185.5Z" fill="#1F4FDE"/>
<path d="M207.637 155.969C193.284 151.985 180.205 144.355 169.673 133.82C169.368 133.513 169.005 133.269 168.606 133.102C168.206 132.935 167.777 132.85 167.344 132.85C166.911 132.85 166.482 132.935 166.082 133.102C165.682 133.269 165.319 133.513 165.014 133.82C154.478 144.349 141.401 151.978 127.05 155.969C126.346 156.173 125.731 156.607 125.303 157.202C124.875 157.797 124.658 158.518 124.688 159.25V180.086C124.675 191.254 127.74 202.21 133.547 211.75H13.125C11.3845 211.75 9.71532 211.058 8.48461 209.828C7.2539 208.597 6.5625 206.928 6.5625 205.187V195.344C6.5625 194.473 6.2168 193.639 5.60144 193.023C4.98609 192.408 4.15149 192.062 3.28125 192.062C2.41101 192.062 1.57641 192.408 0.961056 193.023C0.345702 193.639 0 194.473 0 195.344L0 205.187C0 208.668 1.38281 212.007 3.84422 214.468C6.30564 216.93 9.64403 218.312 13.125 218.312H138.206C145.483 227.437 155.234 234.272 166.294 238C166.975 238.23 167.713 238.23 168.394 238C180.544 233.957 191.107 226.182 198.579 215.783C206.05 205.383 210.047 192.891 210 180.086V159.25C210.029 158.518 209.812 157.797 209.384 157.202C208.956 156.607 208.341 156.173 207.637 155.969ZM203.438 180.086C203.446 191.297 199.98 202.236 193.516 211.397C187.053 220.557 177.909 227.49 167.344 231.241C156.778 227.49 147.635 220.557 141.171 211.397C134.708 202.236 131.242 191.297 131.25 180.086V161.711C144.702 157.568 157.042 150.433 167.344 140.842C177.646 150.433 189.985 157.568 203.438 161.711V180.086Z" fill="#1F4FDE"/>
<path d="M88.5938 70.6562H29.5312C26.0503 70.6562 22.7119 72.0391 20.2505 74.5005C17.7891 76.9619 16.4063 80.3003 16.4062 83.7812V162.531C16.4063 166.012 17.7891 169.351 20.2505 171.812C22.7119 174.273 26.0503 175.656 29.5312 175.656H88.5938C92.0747 175.656 95.4131 174.273 97.8745 171.812C100.336 169.351 101.719 166.012 101.719 162.531V83.7812C101.719 80.3003 100.336 76.9619 97.8745 74.5005C95.4131 72.0391 92.0747 70.6563 88.5938 70.6562ZM36.0938 169.094V145.633C36.0944 144.412 36.4356 143.215 37.079 142.178C37.7225 141.14 38.6426 140.303 39.7359 139.759L47.6109 135.855C48.1359 136.216 48.6609 136.577 49.2188 136.905V142.844C49.2188 145.454 50.2559 147.958 52.1019 149.804C53.948 151.65 56.4518 152.688 59.0625 152.688C61.6732 152.688 64.177 151.65 66.0231 149.804C67.8691 147.958 68.9062 145.454 68.9062 142.844V136.905C69.4641 136.577 69.9891 136.216 70.5141 135.855L78.3891 139.759C79.4824 140.303 80.4025 141.14 81.046 142.178C81.6894 143.215 82.0306 144.412 82.0312 145.633V169.094H36.0938ZM75.4688 103.469C75.4688 104.339 75.1231 105.174 74.5077 105.789C73.8923 106.404 73.0577 106.75 72.1875 106.75H45.9375V100.188C45.9375 99.3173 46.2832 98.4827 46.8986 97.8673C47.5139 97.2519 48.3485 96.9062 49.2188 96.9062C62.5078 96.9062 68.1844 97.7266 75.4688 93.625V103.469ZM45.9375 113.312H72.1875V119.875C72.1875 123.356 70.8047 126.694 68.3433 129.156C65.8819 131.617 62.5435 133 59.0625 133C55.5815 133 52.2431 131.617 49.7817 129.156C47.3203 126.694 45.9375 123.356 45.9375 119.875V113.312ZM55.7812 139.267C57.951 139.661 60.174 139.661 62.3438 139.267V142.844C62.3438 143.714 61.9981 144.549 61.3827 145.164C60.7673 145.779 59.9327 146.125 59.0625 146.125C58.1923 146.125 57.3577 145.779 56.7423 145.164C56.1269 144.549 55.7812 143.714 55.7812 142.844V139.267ZM95.1562 162.531C95.1562 164.272 94.4648 165.941 93.2341 167.172C92.0034 168.402 90.3342 169.094 88.5938 169.094V145.633C88.5955 143.194 87.918 140.804 86.6371 138.729C85.3563 136.654 83.5228 134.977 81.3422 133.886L75.4688 130.933C79.7016 124.731 78.75 119.448 78.75 110.753C79.7757 109.836 80.5977 108.713 81.1629 107.459C81.728 106.204 82.0239 104.845 82.0312 103.469V87.0625C82.035 86.4108 81.8447 85.7727 81.4844 85.2296C81.1241 84.6864 80.6102 84.2629 80.0083 84.013C79.4064 83.7631 78.7437 83.6981 78.1046 83.8263C77.4656 83.9545 76.8793 84.2701 76.4203 84.7328C74.6499 86.5155 72.5435 87.9293 70.223 88.8924C67.9025 89.8556 65.414 90.3488 62.9016 90.3438H49.2188C46.608 90.3438 44.1042 91.3809 42.2582 93.2269C40.4121 95.073 39.375 97.5768 39.375 100.188V110.031C39.375 119.448 38.5875 124.731 42.6562 130.933L36.6516 133.919C34.5005 135.025 32.6971 136.705 31.4406 138.772C30.1841 140.84 29.5233 143.214 29.5312 145.633V169.094C27.7908 169.094 26.1216 168.402 24.8909 167.172C23.6602 165.941 22.9688 164.272 22.9688 162.531V83.7812C22.9688 82.0408 23.6602 80.3716 24.8909 79.1409C26.1216 77.9102 27.7908 77.2188 29.5312 77.2188H88.5938C90.3342 77.2188 92.0034 77.9102 93.2341 79.1409C94.4648 80.3716 95.1562 82.0408 95.1562 83.7812V162.531Z" fill="#1F4FDE"/>
<path d="M170.625 70.6562H118.125C116.313 70.6562 114.844 72.1253 114.844 73.9375V87.0625C114.844 88.8747 116.313 90.3438 118.125 90.3438H170.625C172.437 90.3438 173.906 88.8747 173.906 87.0625V73.9375C173.906 72.1253 172.437 70.6562 170.625 70.6562Z" fill="#9BACF2"/>
<path d="M118.125 103.469H164.062C164.933 103.469 165.767 103.123 166.383 102.508C166.998 101.892 167.344 101.058 167.344 100.188C167.344 99.3173 166.998 98.4827 166.383 97.8673C165.767 97.2519 164.933 96.9062 164.062 96.9062H118.125C117.255 96.9062 116.42 97.2519 115.805 97.8673C115.189 98.4827 114.844 99.3173 114.844 100.188C114.844 101.058 115.189 101.892 115.805 102.508C116.42 103.123 117.255 103.469 118.125 103.469Z" fill="#9BACF2"/>
<path d="M164.062 110.031H118.125C117.255 110.031 116.42 110.377 115.805 110.992C115.189 111.608 114.844 112.442 114.844 113.312C114.844 114.183 115.189 115.017 115.805 115.633C116.42 116.248 117.255 116.594 118.125 116.594H164.062C164.933 116.594 165.767 116.248 166.383 115.633C166.998 115.017 167.344 114.183 167.344 113.312C167.344 112.442 166.998 111.608 166.383 110.992C165.767 110.377 164.933 110.031 164.062 110.031Z" fill="#9BACF2"/>
<path d="M147.656 123.156H118.125C117.255 123.156 116.42 123.502 115.805 124.117C115.189 124.733 114.844 125.567 114.844 126.438C114.844 127.308 115.189 128.142 115.805 128.758C116.42 129.373 117.255 129.719 118.125 129.719H147.656C148.526 129.719 149.361 129.373 149.976 128.758C150.592 128.142 150.938 127.308 150.938 126.438C150.938 125.567 150.592 124.733 149.976 124.117C149.361 123.502 148.526 123.156 147.656 123.156Z" fill="#9BACF2"/>
<path d="M45.9375 195.344H19.6875C18.8173 195.344 17.9827 195.689 17.3673 196.305C16.752 196.92 16.4062 197.755 16.4062 198.625C16.4062 199.495 16.752 200.33 17.3673 200.945C17.9827 201.561 18.8173 201.906 19.6875 201.906H45.9375C46.8077 201.906 47.6423 201.561 48.2577 200.945C48.873 200.33 49.2188 199.495 49.2188 198.625C49.2188 197.755 48.873 196.92 48.2577 196.305C47.6423 195.689 46.8077 195.344 45.9375 195.344Z" fill="#9BACF2"/>
<path d="M59.0625 195.344C58.4135 195.344 57.7791 195.536 57.2395 195.897C56.6999 196.257 56.2794 196.77 56.031 197.369C55.7827 197.969 55.7177 198.629 55.8443 199.265C55.9709 199.902 56.2834 200.486 56.7423 200.945C57.2012 201.404 57.7859 201.717 58.4224 201.843C59.0589 201.97 59.7186 201.905 60.3182 201.656C60.9177 201.408 61.4302 200.988 61.7908 200.448C62.1513 199.908 62.3438 199.274 62.3438 198.625C62.3438 197.755 61.9981 196.92 61.3827 196.305C60.7673 195.689 59.9327 195.344 59.0625 195.344Z" fill="#9BACF2"/>
<path d="M72.1875 195.344C71.5385 195.344 70.9041 195.536 70.3645 195.897C69.8249 196.257 69.4044 196.77 69.156 197.369C68.9077 197.969 68.8427 198.629 68.9693 199.265C69.0959 199.902 69.4084 200.486 69.8673 200.945C70.3262 201.404 70.9109 201.717 71.5474 201.843C72.1839 201.97 72.8436 201.905 73.4432 201.656C74.0427 201.408 74.5552 200.988 74.9158 200.448C75.2763 199.908 75.4688 199.274 75.4688 198.625C75.4688 197.755 75.1231 196.92 74.5077 196.305C73.8923 195.689 73.0577 195.344 72.1875 195.344Z" fill="#9BACF2"/>
<path d="M173.906 41.125C173.257 41.125 172.623 41.3174 172.083 41.678C171.544 42.0385 171.123 42.551 170.875 43.1506C170.626 43.7501 170.561 44.4099 170.688 45.0464C170.815 45.6829 171.127 46.2676 171.586 46.7264C172.045 47.1853 172.63 47.4978 173.266 47.6245C173.903 47.7511 174.562 47.6861 175.162 47.4377C175.761 47.1894 176.274 46.7688 176.635 46.2292C176.995 45.6896 177.188 45.0552 177.188 44.4062C177.188 43.536 176.842 42.7014 176.226 42.0861C175.611 41.4707 174.776 41.125 173.906 41.125Z" fill="#F5F7FF"/>
<path d="M160.781 41.125C160.132 41.125 159.498 41.3174 158.958 41.678C158.419 42.0385 157.998 42.551 157.75 43.1506C157.501 43.7501 157.436 44.4099 157.563 45.0464C157.69 45.6829 158.002 46.2676 158.461 46.7264C158.92 47.1853 159.505 47.4978 160.141 47.6245C160.778 47.7511 161.437 47.6861 162.037 47.4377C162.636 47.1894 163.149 46.7688 163.51 46.2292C163.87 45.6896 164.062 45.0552 164.062 44.4062C164.062 43.536 163.717 42.7014 163.101 42.0861C162.486 41.4707 161.651 41.125 160.781 41.125Z" fill="#F5F7FF"/>
<path d="M147.656 41.125C147.007 41.125 146.373 41.3174 145.833 41.678C145.294 42.0385 144.873 42.551 144.625 43.1506C144.376 43.7501 144.311 44.4099 144.438 45.0464C144.565 45.6829 144.877 46.2676 145.336 46.7264C145.795 47.1853 146.38 47.4978 147.016 47.6245C147.653 47.7511 148.312 47.6861 148.912 47.4377C149.511 47.1894 150.024 46.7688 150.385 46.2292C150.745 45.6896 150.938 45.0552 150.938 44.4062C150.938 43.536 150.592 42.7014 149.976 42.0861C149.361 41.4707 148.526 41.125 147.656 41.125Z" fill="#F5F7FF"/>
<path d="M85.3125 41.125C84.6635 41.125 84.0291 41.3174 83.4895 41.678C82.9499 42.0385 82.5294 42.551 82.281 43.1506C82.0327 43.7501 81.9677 44.4099 82.0943 45.0464C82.2209 45.6829 82.5334 46.2676 82.9923 46.7264C83.4512 47.1853 84.0359 47.4978 84.6724 47.6245C85.3089 47.7511 85.9686 47.6861 86.5682 47.4377C87.1677 47.1894 87.6802 46.7688 88.0408 46.2292C88.4013 45.6896 88.5938 45.0552 88.5938 44.4062C88.5938 43.536 88.2481 42.7014 87.6327 42.0861C87.0173 41.4707 86.1827 41.125 85.3125 41.125Z" fill="#F5F7FF"/>
<path d="M134.531 224.875C133.882 224.875 133.248 225.067 132.708 225.428C132.169 225.789 131.748 226.301 131.5 226.901C131.251 227.5 131.186 228.16 131.313 228.796C131.44 229.433 131.752 230.018 132.211 230.476C132.67 230.935 133.255 231.248 133.891 231.374C134.528 231.501 135.187 231.436 135.787 231.188C136.386 230.939 136.899 230.519 137.26 229.979C137.62 229.44 137.812 228.805 137.812 228.156C137.812 227.286 137.467 226.451 136.851 225.836C136.236 225.221 135.401 224.875 134.531 224.875Z" fill="#9BACF2"/>
<path d="M121.406 224.875C120.757 224.875 120.123 225.067 119.583 225.428C119.044 225.789 118.623 226.301 118.375 226.901C118.126 227.5 118.061 228.16 118.188 228.796C118.315 229.433 118.627 230.018 119.086 230.476C119.545 230.935 120.13 231.248 120.766 231.374C121.403 231.501 122.062 231.436 122.662 231.188C123.261 230.939 123.774 230.519 124.135 229.979C124.495 229.44 124.688 228.805 124.688 228.156C124.688 227.286 124.342 226.451 123.726 225.836C123.111 225.221 122.276 224.875 121.406 224.875Z" fill="#9BACF2"/>
</g>
<defs>
<linearGradient id="paint0_linear_405_10493" x1="18.9766" y1="114.248" x2="257.266" y2="114.248" gradientUnits="userSpaceOnUse">
<stop stop-color="#D2DEFF" stop-opacity="0"/>
<stop offset="1" stop-color="#B7C5FF"/>
</linearGradient>
<clipPath id="clip0_405_10493">
<rect width="210" height="210" fill="white" transform="translate(0 28)"/>
</clipPath>
</defs>
</svg>
