<svg width="240" height="230" viewBox="0 0 240 230" fill="none" xmlns="http://www.w3.org/2000/svg">
<path d="M233.08 120.65C221.576 95.3438 194.634 80.7791 182.602 56.4349C170.798 32.5553 162.386 -8.65033 130.065 1.61022C75.6902 18.8716 -22.4852 93.1041 4.64896 157.537C11.1932 173.077 29.9069 179.28 41.773 191.252C62.7048 212.371 84.3326 226.313 115.44 228.687C176.781 233.369 264.87 190.589 233.08 120.65V120.65Z" fill="url(#paint0_linear_1432_6658)"/>
<g clip-path="url(#clip0_1432_6658)">
<path fill-rule="evenodd" clip-rule="evenodd" d="M126.601 76.9253L166.098 114.919L173.803 122.334L176.637 125.061C177.545 125.925 178.995 125.892 179.858 124.994L187.64 116.881L194.769 109.455C197.891 106.197 197.791 100.976 194.537 97.8511L187.64 91.223L149.394 54.4257C146.14 51.3003 140.926 51.3999 137.804 54.6585L122.894 70.1976C122.019 71.1066 122.052 72.5585 122.96 73.423L126.601 76.9253Z" fill="#1F4FDE"/>
<path fill-rule="evenodd" clip-rule="evenodd" d="M71.7734 79.3535L29.332 120.174C30.6715 131.446 32.7859 141.997 39.7598 147.905L97.3113 194.644L104.274 199.997C114.757 208.055 124.687 196.794 116.717 188.47C116.606 188.348 116.484 188.227 116.363 188.105C119.052 190.366 122.075 191.009 124.72 190.576C130.543 189.634 134.528 183.471 129.17 177.719C139.642 186.076 148.587 172.765 140.384 165.461C149.528 168.343 159.49 156.495 149.993 146.43C149.926 146.353 149.849 146.264 149.771 146.187L125.96 110.764L94.0238 90.3145L71.7734 79.3535Z" fill="white"/>
<path fill-rule="evenodd" clip-rule="evenodd" d="M96.4452 195.642C105.301 186.21 92.3827 175.359 85.2425 181.754L77.5933 189.025C77.5046 189.114 77.4273 189.191 77.3386 189.258C70.9183 195.709 82.5855 210.405 92.2386 200.12L96.4452 195.642Z" fill="#E8EDFC"/>
<path fill-rule="evenodd" clip-rule="evenodd" d="M71.9064 168.597L63.8255 177.065L63.7923 177.109C59.7407 181.409 62.5525 188.004 67.3458 190.575C70.3126 192.172 74.0318 192.238 77.3419 189.257L85.9986 189.124L85.2458 181.753L86.3529 180.711C95.0095 172.488 82.5118 158.278 72.7591 167.699L71.9064 168.597Z" fill="#E8EDFC"/>
<path fill-rule="evenodd" clip-rule="evenodd" d="M57.47 156.993L49.8981 165.029L48.8352 166.17C41.363 174.095 54.7466 186.575 62.4622 178.484L63.7907 177.11C63.9013 176.988 72.0157 176.145 72.9013 176.045L72.7575 167.7L75.3477 164.984C84.2591 155.641 70.3333 143.338 61.8536 152.349L57.47 156.993Z" fill="#E8EDFC"/>
<path fill-rule="evenodd" clip-rule="evenodd" d="M39.7599 147.905L37.1915 150.687C29.2876 159.266 41.0657 172.943 49.8997 165.029L57.1505 163.91L57.4716 156.994C64.6337 148.892 52.147 134.472 42.3173 145.134L39.7599 147.905Z" fill="#E8EDFC"/>
<path fill-rule="evenodd" clip-rule="evenodd" d="M50.6047 55.2793L15.4583 89.0949L5.46217 98.7043C2.20748 101.83 2.10787 107.05 5.22975 110.309L20.1407 125.848C21.004 126.745 22.4544 126.779 23.3622 125.914L29.3286 120.173L71.77 79.352L77.0391 74.2758C77.9469 73.4113 77.9801 71.9594 77.1055 71.0504L62.1946 55.5113C59.0731 52.2535 53.859 52.1539 50.6047 55.2793Z" fill="#E8EDFC"/>
<path fill-rule="evenodd" clip-rule="evenodd" d="M117.445 114.066L106.773 116.505L110.958 120.75L143.282 152.87L143.503 153.113C147.4 157.236 148.02 161.648 146.78 165.239C153.167 162.8 157.23 154.1 149.99 146.43L149.768 146.186L140.071 136.555L117.445 114.066Z" fill="#9BACF2"/>
<path fill-rule="evenodd" clip-rule="evenodd" d="M71.7734 79.3535L64.9766 85.8816L86.2195 96.3555L94.0238 90.3148L71.7734 79.3535Z" fill="#9BACF2"/>
<path fill-rule="evenodd" clip-rule="evenodd" d="M94.0226 90.3145L86.2183 96.3551L78.8679 102.03C60.3038 116.394 75.7019 130.581 86.7163 125.715L99.1034 118.256L106.775 116.505L117.446 114.066L140.073 136.555L149.77 146.186C155.869 143.903 164.493 137.32 173.802 122.335L126.601 76.9258L118.121 83.6977C116.726 84.8059 117.147 84.5953 115.387 84.5398C109.022 84.3402 100.93 84.9723 96.1812 88.6406L94.0226 90.3145Z" fill="#E8EDFC"/>
<path fill-rule="evenodd" clip-rule="evenodd" d="M93.9879 113.324L81.6008 120.783C78.2246 122.279 74.4277 121.98 71.3281 120.428C74.018 125.593 80.9699 128.253 86.7152 125.715L99.1023 118.256L106.774 116.504L117.312 114.099C112.43 109.921 111.556 109.312 101.648 111.583L93.9879 113.324Z" fill="#9BACF2"/>
<path fill-rule="evenodd" clip-rule="evenodd" d="M166.098 114.92C157.806 128.254 150.069 134.937 144.168 137.863C143.504 138.195 142.862 138.473 142.242 138.705L149.77 146.186C155.869 143.903 164.492 137.32 173.802 122.335L166.098 114.92Z" fill="#9BACF2"/>
<path fill-rule="evenodd" clip-rule="evenodd" d="M177.796 107.405L170.014 115.53C169.14 116.427 167.701 116.461 166.793 115.585L173.8 122.335L176.634 125.062C177.542 125.926 178.992 125.893 179.855 124.995L187.638 116.882L194.766 109.456C197.888 106.198 197.788 100.977 194.534 97.852L185.811 89.4613L186.553 90.1816L184.726 88.4191C187.936 91.5445 188.036 96.7434 184.925 99.9797L177.796 107.405Z" fill="#9BACF2"/>
<path fill-rule="evenodd" clip-rule="evenodd" d="M38.5859 66.8503C41.8406 63.7581 47.0211 63.88 50.1316 67.1163L65.0426 82.6554C65.9059 83.5644 65.884 85.0163 64.9762 85.8808L71.773 79.3526L77.0422 74.2765C77.95 73.412 77.9832 71.9601 77.1086 71.0511L62.1977 55.512C59.0762 52.2534 53.8621 52.1538 50.6078 55.2792L38.5859 66.8503Z" fill="#9BACF2"/>
<path fill-rule="evenodd" clip-rule="evenodd" d="M34.5898 157.247C34.6672 164.507 43.1469 171.079 49.8992 165.027L54.648 159.995L57.4707 156.992C60.4262 153.645 60.0277 149.233 57.8691 145.941C57.8582 147.87 57.216 149.798 55.7438 151.472L50.718 156.804L48.1828 159.508C43.2574 163.908 37.4238 161.614 34.5898 157.247Z" fill="#9BACF2"/>
<path fill-rule="evenodd" clip-rule="evenodd" d="M46.9883 173.717C48.7594 179.657 57.0285 184.191 62.4637 178.483L63.7922 177.109C63.8031 177.086 63.8145 177.075 63.8254 177.064L71.9063 168.596C72.1941 168.275 72.4707 167.976 72.7586 167.699L75.3488 164.983C80.1531 159.951 78.3266 154.055 74.2859 151.096C75.0164 153.811 74.4297 156.948 71.7066 159.796L69.1164 162.512C68.8285 162.789 68.552 163.088 68.2641 163.398V163.409L60.1832 171.877C60.1723 171.888 60.1609 171.9 60.1391 171.911L58.8219 173.296C55.2133 177.086 50.3645 176.366 46.9883 173.717Z" fill="#9BACF2"/>
<path fill-rule="evenodd" clip-rule="evenodd" d="M77.5957 189.024L83.4957 183.427L85.2445 181.754L86.3516 180.712C90.9566 176.334 89.573 170.26 85.7871 166.957C86.5953 169.85 85.9973 173.12 83.2078 175.768L82.1117 176.81L78.9902 179.77L74.4516 184.092L74.1969 184.314C70.8871 187.295 67.1676 187.229 64.2008 185.644C63.4703 185.245 62.784 184.757 62.1641 184.192C62.8945 186.819 64.8539 189.246 67.3445 190.576C70.3113 192.172 74.0305 192.238 77.3406 189.257L77.5957 189.024Z" fill="#9BACF2"/>
<path fill-rule="evenodd" clip-rule="evenodd" d="M96.448 195.641C100.876 190.919 99.8574 185.854 96.8465 182.762C96.7801 184.857 95.8945 187.107 93.8578 189.268L89.6512 193.756C84.4816 199.254 78.7363 197.602 75.5039 193.889C75.548 200.617 84.5367 208.331 92.2414 200.118L96.448 195.641Z" fill="#9BACF2"/>
<path d="M116.747 191.443C116.028 191.443 115.307 191.182 114.739 190.654L108.728 185.068C107.533 183.958 107.465 182.09 108.575 180.896C109.685 179.701 111.553 179.633 112.747 180.743L118.758 186.329C119.952 187.439 120.021 189.307 118.911 190.501C118.329 191.126 117.539 191.443 116.747 191.443Z" fill="#1F4FDE"/>
<path d="M196.582 95.7236L151.438 52.297C149.292 50.2357 146.46 49.1408 143.478 49.1974C140.497 49.2595 137.725 50.474 135.673 52.6154L120.752 68.165C118.763 70.2587 118.839 73.5767 120.912 75.5509L122.127 76.7204L116.003 81.6122C115.85 81.604 115.677 81.5962 115.479 81.5896C105.916 81.2919 98.8144 82.8767 94.3749 86.306L93.6706 86.8509L76.8449 78.5619L79.0761 76.4154C80.0886 75.4513 80.6628 74.1486 80.6937 72.7466C80.7242 71.3435 80.2058 70.0146 79.2371 69.0083L64.3281 53.4701C62.2753 51.3271 59.5031 50.113 56.5218 50.0505C53.5249 49.9783 50.7078 51.0884 48.5601 53.1517L3.41948 96.5755C-1.01216 100.832 -1.15552 107.909 3.1019 112.353L18.0152 127.895C19.0371 128.957 20.4074 129.493 21.7828 129.493C23.0855 129.493 24.3925 129.012 25.4105 128.042L27.1792 126.341C28.43 134.301 30.58 142.338 35.6472 148.006L35.0191 148.686C29.6644 154.499 31.33 162.254 35.6164 166.6C37.9789 168.996 40.8507 170.245 43.7449 170.335C43.3582 174.047 45.0593 177.762 47.7874 180.349C50.1812 182.619 53.3824 184.074 56.6382 184.074C57.4476 184.074 58.2605 183.98 59.0652 183.79C59.523 186.424 60.8972 188.929 62.766 190.803C65.0109 193.054 68.1695 194.622 71.5335 194.622C71.8777 194.622 72.2242 194.605 72.5718 194.572C72.6167 195.218 72.7171 195.876 72.8808 196.541C74.023 201.185 77.7855 205.089 82.2433 206.257C82.9878 206.452 83.9476 206.618 85.0554 206.618C87.6449 206.618 91.0429 205.71 94.3917 202.14L97.6738 198.647L102.474 202.337C105.615 204.752 108.73 205.738 111.527 205.738C115.039 205.738 118.05 204.183 119.978 201.954C121.811 199.836 122.902 196.829 122.498 193.615C126.187 193.802 129.666 192.38 131.914 190.01C133.577 188.257 134.662 185.868 134.642 183.251C138.465 183.653 141.802 182.021 143.866 179.573C146.243 176.754 147.306 172.552 145.955 168.565C149.483 167.803 152.717 165.571 154.78 162.214C157.096 158.445 157.95 152.828 154.407 147.279C159.711 144.355 166.661 138.518 174.343 126.954L174.6 127.199C175.611 128.162 176.912 128.641 178.212 128.641C179.588 128.641 180.962 128.104 181.987 127.039L196.9 111.498C201.155 107.055 201.012 99.9779 196.582 95.7236ZM39.3589 152.688L44.4859 147.134C46.5832 144.858 48.8773 143.927 51.1238 144.44C53.4792 144.979 55.5781 147.042 56.346 149.574C56.7164 150.794 57.0484 153.147 55.1124 155.199C55.1101 155.201 55.1085 155.204 55.1062 155.206L47.9171 162.839C44.8914 165.541 41.7507 164.412 39.8191 162.454C37.4644 160.066 36.3167 155.991 39.3589 152.688ZM51.8492 176.064C51.4015 175.64 47.573 171.811 50.9831 168.195L50.9843 168.194L64.0031 154.372C65.6203 152.653 67.2839 152.158 68.6648 152.158C69.1777 152.158 69.6519 152.226 70.0695 152.326C72.3921 152.879 74.3898 154.727 75.0406 156.927C75.6464 158.975 75.014 161.056 73.2121 162.946L70.4648 165.824C70.3249 165.964 70.1878 166.111 70.0507 166.258L60.3257 176.447C57.2992 179.62 53.5734 177.7 51.8492 176.064ZM66.946 186.634C65.2671 184.951 63.6187 181.555 65.9589 179.104C65.9851 179.076 66.007 179.047 66.032 179.019L73.9851 170.687C74.0304 170.642 74.0761 170.598 74.1191 170.55C74.1468 170.518 74.1753 170.49 74.2035 170.458L74.7175 169.92C76.6964 167.961 78.8578 167.188 81.0113 167.689C83.3832 168.241 85.4246 170.257 86.091 172.706C86.5031 174.222 86.5304 176.469 84.3183 178.571L83.3476 179.492C83.3234 179.514 83.2988 179.533 83.2746 179.554C83.2117 179.611 83.1535 179.67 83.0964 179.731L75.6726 186.779C75.6476 186.8 75.621 186.819 75.5964 186.841C75.5453 186.888 75.4992 186.937 75.4492 186.985C71.4007 190.7 67.6605 187.351 66.946 186.634ZM90.0871 198.099C88.0331 200.288 85.8949 201.109 83.7386 200.545C81.389 199.929 79.2335 197.652 78.6128 195.13C78.341 194.026 78.28 192.484 79.4632 191.313C79.5175 191.263 79.5722 191.216 79.6265 191.165L87.2828 183.896C89.5886 181.907 92.8265 182.873 94.7246 184.818C95.6617 185.777 98.3999 189.247 94.2945 193.619L90.0871 198.099ZM149.75 159.122C148.254 161.556 145.122 163.505 141.853 162.797L130.593 152.316C129.399 151.205 127.532 151.272 126.421 152.465C125.31 153.659 125.377 155.527 126.57 156.638L138.371 167.621C138.382 167.632 138.394 167.64 138.405 167.651C138.41 167.655 138.414 167.661 138.419 167.665C141.33 170.258 141.093 173.703 139.352 175.767C137.377 178.11 134.287 177.992 131.076 175.461L119.368 164.563C118.175 163.452 116.307 163.519 115.196 164.713C114.086 165.906 114.152 167.774 115.346 168.885L127.061 179.79C129.095 182.002 129.3 184.186 127.629 185.948C125.643 188.042 121.684 188.717 118.258 185.843C117.041 184.822 115.235 184.947 114.17 186.126C113.105 187.304 113.164 189.114 114.304 190.221C117.519 193.345 116.965 196.413 115.514 198.091C113.748 200.131 110.145 200.787 106.072 197.656L101.219 193.925C103.65 188.931 102.109 183.928 98.9496 180.692C97.1031 178.802 94.5691 177.424 91.8749 177.004C92.3429 175.13 92.3292 173.145 91.7878 171.156C90.5484 166.602 86.8433 162.983 82.3488 161.938C81.7917 161.809 81.2324 161.722 80.6738 161.677C81.3062 159.581 81.3347 157.386 80.7027 155.251C79.4527 151.027 75.8156 147.624 71.4374 146.582C68.1718 145.806 64.9003 146.429 62.1121 148.286C62.0742 148.144 62.0398 148.002 61.9968 147.86C60.6124 143.298 56.8617 139.697 52.4417 138.686C48.0757 137.687 43.7097 139.266 40.1472 143.132L39.6734 143.645C35.5167 138.701 33.6812 131.045 32.4332 121.288L44.8828 109.311C46.0578 108.181 46.0941 106.313 44.9636 105.138C43.8339 103.963 41.9652 103.926 40.7898 105.057L27.4296 117.909C27.3261 117.996 27.2296 118.089 27.139 118.189L21.8066 123.318L7.36401 108.268C5.35737 106.173 5.423 102.838 7.51128 100.833L52.6511 57.4083C53.6593 56.4404 54.9937 55.9224 56.3988 55.9529C57.8019 55.9822 59.1039 56.5509 60.0667 57.5556L74.5136 72.6111L50.132 96.0669C48.957 97.1974 48.9206 99.0661 50.0511 100.241C51.1812 101.416 53.0499 101.452 54.2249 100.322L72.3203 82.9134L88.4718 90.8705L77.0613 99.6947C63.3804 110.28 67.5027 119.808 69.0921 122.475C71.8039 127.027 76.8425 129.655 81.9828 129.655C83.9867 129.655 86.0062 129.255 87.9089 128.415C88.0222 128.365 88.1324 128.308 88.2386 128.243L100.221 121.028L116.518 117.306L147.673 148.264C152.515 153.235 150.739 157.512 149.75 159.122ZM192.638 107.412L178.193 122.465L175.978 120.343C175.896 120.253 175.806 120.167 175.71 120.086L155.365 100.597C154.186 99.4677 152.319 99.5095 151.191 100.686C150.063 101.863 150.103 103.732 151.28 104.86L170.005 122.798C161.775 135.446 154.725 140.597 150.435 142.686L119.527 111.972C119.518 111.964 119.509 111.958 119.502 111.95C119.457 111.906 119.411 111.866 119.363 111.826C119.335 111.801 119.307 111.776 119.277 111.752C119.234 111.718 119.189 111.687 119.145 111.656C119.109 111.631 119.074 111.604 119.038 111.581C118.997 111.555 118.955 111.532 118.913 111.508C118.871 111.484 118.83 111.459 118.788 111.437C118.744 111.415 118.699 111.396 118.654 111.376C118.613 111.357 118.572 111.337 118.53 111.321C118.475 111.299 118.419 111.281 118.363 111.263C118.33 111.252 118.298 111.24 118.265 111.23C118.196 111.21 118.127 111.195 118.057 111.18C118.035 111.176 118.014 111.17 117.992 111.165C117.919 111.151 117.844 111.142 117.769 111.134C117.75 111.132 117.73 111.128 117.711 111.126C117.643 111.12 117.574 111.118 117.505 111.117C117.477 111.117 117.449 111.115 117.421 111.115C117.364 111.115 117.307 111.12 117.25 111.124C117.208 111.126 117.166 111.128 117.124 111.133C117.079 111.138 117.035 111.145 116.99 111.152C116.935 111.161 116.88 111.17 116.825 111.182C116.813 111.185 116.801 111.185 116.789 111.188L98.446 115.377C98.1406 115.447 97.8484 115.565 97.5804 115.726L85.3656 123.082C81.421 124.722 76.3285 123.086 74.164 119.453C71.5972 115.145 74.0312 109.504 80.6738 104.364L95.8359 92.6388C95.8624 92.6181 95.8898 92.599 95.9156 92.5771L97.9859 90.9759C101.218 88.4786 107.369 87.2408 115.294 87.4896C115.553 87.4978 115.759 87.5099 115.928 87.5193C117.652 87.622 118.342 87.304 119.669 86.2396L126.419 80.8478L141.569 95.4224C142.744 96.5529 144.612 96.5161 145.743 95.3419C146.873 94.1669 146.837 92.2982 145.662 91.1677L125.487 71.7572L139.935 56.7001C140.897 55.6966 142.199 55.1283 143.602 55.099C143.64 55.0982 143.678 55.0978 143.716 55.0978C145.082 55.0978 146.369 55.6122 147.348 56.5525L192.491 99.9794C194.577 101.984 194.643 105.319 192.638 107.412Z" fill="#1F4FDE"/>
</g>
<defs>
<linearGradient id="paint0_linear_1432_6658" x1="49.9536" y1="206.097" x2="202.841" y2="53.2094" gradientUnits="userSpaceOnUse">
<stop stop-color="#D0DCFF" stop-opacity="0"/>
<stop offset="1" stop-color="#B5C3FF"/>
</linearGradient>
<clipPath id="clip0_1432_6658">
<rect width="200" height="157.812" fill="white" transform="translate(0 49)"/>
</clipPath>
</defs>
</svg>
