<svg width="265" height="247" viewBox="0 0 265 247" fill="none" xmlns="http://www.w3.org/2000/svg">
<path d="M264.302 220.879C258.037 187.472 233.627 161.784 216.836 133.09C199.602 103.639 220.924 92.5512 242.111 68.8699C265.504 42.7221 232.177 -6.53951 192.34 30.0512C172.957 47.8542 139.87 19.82 82.9782 21.1337C29.8806 22.3599 7.44449 81.9845 34.5412 117.327C56.3928 145.829 95.6297 154.454 128.693 164.939C162.278 175.591 184.492 200.649 204.198 227.812C220.44 250.199 271.178 257.543 264.302 220.879V220.879Z" fill="url(#paint0_linear_405_11251)"/>
<g clip-path="url(#clip0_405_11251)">
<path d="M110.418 55.1348C110.441 55.2306 110.472 55.3188 110.491 55.4146C110.472 55.3226 110.441 55.2306 110.418 55.1348Z" fill="#9BACF2"/>
<path d="M103.537 88.6523L84.332 118.832H99.6654V94.7358L103.537 88.6523Z" fill="#EBEFFF"/>
<path d="M110.918 57.8711C110.941 58.0359 110.975 58.1969 110.995 58.3656C110.979 58.1969 110.941 58.0359 110.918 57.8711Z" fill="#9BACF2"/>
<path d="M109.645 52.4844C109.652 52.5035 109.656 52.5189 109.664 52.538C109.66 52.5189 109.652 52.5035 109.645 52.4844Z" fill="#9BACF2"/>
<path d="M57.8207 186.772C55.1105 184.962 51.9289 184 48.6705 184H34.4987L42.1654 203.167L34.4987 210.833L26.832 203.167L34.4987 184H20.3269C17.0724 184 13.8869 184.962 11.1767 186.772C6.5882 189.831 3.83203 194.979 3.83203 200.495V226.167H65.1654V200.495C65.1654 194.979 62.4092 189.831 57.8207 186.772Z" fill="#F5F7FF"/>
<path d="M57.5 161L38.3333 149.5C34.5 161 11.5 161 11.5 161C11.5 173.704 26.3695 184 34.5 184C42.6305 184 57.5 173.704 57.5 161Z" fill="white"/>
<path d="M38.3333 149.499L57.5 160.999C57.5 148.296 53.6667 134.166 34.5 134.166C15.3333 134.166 11.5 148.296 11.5 160.999C11.5 160.999 34.5 160.999 38.3333 149.499Z" fill="#F5F7FF"/>
<path d="M34.4987 210.833L42.1654 203.167L34.4987 184L26.832 203.167L34.4987 210.833Z" fill="#9BACF2"/>
<path d="M138.321 186.772C135.611 184.962 132.429 184 129.171 184H114.999L122.665 203.167L114.999 210.833L107.332 203.167L114.999 184H100.827C97.5724 184 94.3869 184.962 91.6767 186.772C87.0882 189.831 84.332 194.979 84.332 200.495V226.167H145.665V200.495C145.665 194.979 142.909 189.831 138.321 186.772Z" fill="#F5F7FF"/>
<path d="M138 161L118.833 149.5C115 161 92 161 92 161C92 173.704 106.869 184 115 184C123.13 184 138 173.704 138 161Z" fill="white"/>
<path d="M118.833 149.499L138 160.999C138 148.296 134.167 134.166 115 134.166C95.8333 134.166 92 148.296 92 160.999C92 160.999 115 160.999 118.833 149.499Z" fill="#F5F7FF"/>
<path d="M114.999 210.833L122.665 203.167L114.999 184L107.332 203.167L114.999 210.833Z" fill="#9BACF2"/>
<path d="M218.821 186.772C216.111 184.962 212.929 184 209.671 184H195.499L203.165 203.167L195.499 210.833L187.832 203.167L195.499 184H181.327C178.072 184 174.887 184.962 172.177 186.772C167.588 189.831 164.832 194.979 164.832 200.495V226.167H226.165V200.495C226.165 194.979 223.409 189.831 218.821 186.772Z" fill="#F5F7FF"/>
<path d="M199.333 149.499L218.5 160.999C218.5 148.296 214.667 134.166 195.5 134.166C176.333 134.166 172.5 148.296 172.5 160.999C172.5 160.999 195.5 160.999 199.333 149.499Z" fill="#F5F7FF"/>
<path d="M218.5 161L199.333 149.5C195.5 161 172.5 161 172.5 161C172.5 173.704 187.369 184 195.5 184C203.63 184 218.5 173.704 218.5 161Z" fill="white"/>
<path d="M195.499 210.833L203.165 203.167L195.499 184L187.832 203.167L195.499 210.833Z" fill="#9BACF2"/>
<path d="M134.168 49.832H108.554C108.964 50.6945 109.332 51.5762 109.65 52.4847C109.658 52.5039 109.661 52.5192 109.669 52.5384C109.964 53.3855 110.213 54.2519 110.424 55.1335C110.447 55.2294 110.474 55.3175 110.497 55.4134C110.677 56.2184 110.815 57.0387 110.923 57.8705C110.946 58.0354 110.98 58.1964 110.999 58.365C111.103 59.3387 111.168 60.3277 111.168 61.332V62.4552C111.168 71.7357 108.523 80.8207 103.54 88.6522L99.668 94.7357V118.832H134.168V65.1654V49.832Z" fill="#EBEFFF"/>
<path d="M172.501 65.166H134.168V118.833H145.668V99.666H161.001V118.833H172.501V65.166Z" fill="#EBEFFF"/>
<path d="M161.001 99.666H145.668V118.833H161.001V99.666Z" fill="#EBEFFF"/>
<path d="M111.167 62.4553V61.3321C111.167 60.3278 111.105 59.3388 110.994 58.3651C110.975 58.1964 110.941 58.0354 110.918 57.8706C110.806 57.0426 110.676 56.2184 110.492 55.4134C110.469 55.3176 110.442 55.2294 110.419 55.1336C110.208 54.2519 109.959 53.3856 109.664 52.5384C109.656 52.5193 109.653 52.5039 109.645 52.4848C109.327 51.5763 108.959 50.6908 108.548 49.8321C104.129 40.5439 94.553 34.1806 83.5053 34.5103C68.8237 34.9511 57.5 47.7659 57.5 62.4553C57.5 71.7358 60.145 80.8208 65.1283 88.6523L84.3333 118.832L103.538 88.6523C108.522 80.8246 111.167 71.7358 111.167 62.4553ZM84.3333 72.8321C77.9815 72.8321 72.8333 67.6839 72.8333 61.3321C72.8333 54.9803 77.9815 49.8321 84.3333 49.8321C90.6852 49.8321 95.8333 54.9803 95.8333 61.3321C95.8333 67.6839 90.6852 72.8321 84.3333 72.8321Z" fill="#9BACF2"/>
<path d="M109.664 52.5391C109.959 53.3862 110.208 54.2526 110.419 55.1342C110.212 54.2526 109.959 53.3862 109.664 52.5391Z" fill="#9BACF2"/>
<path d="M110.996 58.3652C111.107 59.3389 111.169 60.3279 111.169 61.3322C111.169 60.3279 111.103 59.3389 110.996 58.3652Z" fill="#9BACF2"/>
<path d="M109.643 52.4847C109.325 51.5762 108.957 50.6907 108.547 49.832C108.957 50.6945 109.325 51.58 109.643 52.4847Z" fill="#9BACF2"/>
<path d="M110.492 55.4141C110.676 56.2191 110.807 57.0394 110.918 57.8712C110.81 57.0394 110.676 56.2191 110.492 55.4141Z" fill="#9BACF2"/>
<path d="M84.332 72.832C90.6833 72.832 95.832 67.6833 95.832 61.332C95.832 54.9808 90.6833 49.832 84.332 49.832C77.9808 49.832 72.832 54.9808 72.832 61.332C72.832 67.6833 77.9808 72.832 84.332 72.832Z" fill="#EBEFFF"/>
<path d="M59.9495 183.581C57.316 181.821 54.3375 180.744 51.2287 180.353C56.9135 175.427 61.3333 168.527 61.3333 160.999C61.3333 135.653 46.7398 130.332 34.5 130.332C22.2602 130.332 7.66667 135.653 7.66667 160.999C7.66667 168.527 12.0865 175.427 17.7752 180.353C14.6663 180.744 11.684 181.821 9.05433 183.581C3.38483 187.357 0 193.678 0 200.494V226.165C0 228.285 1.7135 229.999 3.83333 229.999H65.1667C67.2865 229.999 69 228.285 69 226.165V200.494C69 193.678 65.6152 187.357 59.9495 183.581ZM34.5 194.318L37.6663 202.238L34.5 205.412L31.3337 202.242L34.5 194.318ZM15.8662 164.633C22.4288 164.092 34.2777 162.107 39.7862 154.839L53.4865 163.061C51.9493 172.449 40.3842 180.165 34.5 180.165C28.9455 180.165 18.3387 173.296 15.8662 164.633ZM34.5 137.999C45.379 137.999 51.3552 143.143 53.0802 153.876L40.3075 146.214C39.307 145.616 38.0957 145.501 37.007 145.907C35.9145 146.306 35.0673 147.187 34.6993 148.287C32.7597 154.106 22.287 156.307 15.548 156.947C16.5715 144.094 22.632 137.999 34.5 137.999ZM61.3333 222.332H7.66667V200.494C7.66667 196.25 9.775 192.309 13.3055 189.96C15.3908 188.564 17.8173 187.832 20.3282 187.832H28.8382L23.2722 201.743C22.7048 203.165 23.0383 204.791 24.1232 205.876L31.7898 213.542C32.5373 214.29 33.5187 214.665 34.5 214.665C35.4813 214.665 36.4627 214.29 37.2102 213.542L44.8768 205.876C45.9617 204.791 46.2952 203.165 45.7278 201.743L40.1618 187.832H48.6718C51.1788 187.832 53.6092 188.564 55.6945 189.96C59.225 192.309 61.3333 196.246 61.3333 200.494V222.332Z" fill="#1F4FDE"/>
<path d="M140.449 183.581C137.816 181.821 134.837 180.744 131.729 180.353C137.413 175.427 141.833 168.527 141.833 160.999C141.833 135.653 127.24 130.332 115 130.332C102.76 130.332 88.1667 135.653 88.1667 160.999C88.1667 168.527 92.5865 175.427 98.2752 180.353C95.1663 180.744 92.184 181.821 89.5543 183.581C83.8848 187.357 80.5 193.678 80.5 200.494V226.165C80.5 228.285 82.2135 229.999 84.3333 229.999H145.667C147.786 229.999 149.5 228.285 149.5 226.165V200.494C149.5 193.678 146.115 187.357 140.449 183.581ZM115 194.318L118.166 202.238L115 205.412L111.834 202.242L115 194.318ZM96.3662 164.633C102.929 164.092 114.778 162.107 120.286 154.839L133.986 163.061C132.449 172.449 120.884 180.165 115 180.165C109.445 180.165 98.8387 173.296 96.3662 164.633ZM115 137.999C125.879 137.999 131.855 143.143 133.58 153.876L120.807 146.214C119.811 145.616 118.596 145.501 117.507 145.907C116.414 146.306 115.567 147.187 115.199 148.287C113.26 154.106 102.787 156.307 96.048 156.947C97.0715 144.094 103.132 137.999 115 137.999ZM141.833 222.332H88.1667V200.494C88.1667 196.25 90.275 192.309 93.8055 189.96C95.8908 188.564 98.3173 187.832 100.828 187.832H109.338L103.772 201.743C103.205 203.165 103.534 204.791 104.623 205.876L112.29 213.542C113.037 214.29 114.019 214.665 115 214.665C115.981 214.665 116.963 214.29 117.71 213.542L125.377 205.876C126.462 204.791 126.795 203.165 126.228 201.743L120.662 187.832H129.172C131.679 187.832 134.109 188.564 136.194 189.96C139.725 192.309 141.833 196.246 141.833 200.494V222.332Z" fill="#1F4FDE"/>
<path d="M220.949 183.581C218.316 181.821 215.337 180.744 212.229 180.353C217.913 175.427 222.333 168.527 222.333 160.999C222.333 135.653 207.74 130.332 195.5 130.332C183.26 130.332 168.667 135.653 168.667 160.999C168.667 168.527 173.087 175.427 178.775 180.353C175.666 180.744 172.684 181.821 170.054 183.581C164.385 187.357 161 193.678 161 200.494V226.165C161 228.285 162.714 229.999 164.833 229.999H226.167C228.286 229.999 230 228.285 230 226.165V200.494C230 193.678 226.615 187.357 220.949 183.581ZM195.5 194.318L198.666 202.238L195.5 205.412L192.334 202.242L195.5 194.318ZM176.866 164.633C183.429 164.092 195.278 162.107 200.786 154.839L214.486 163.061C212.949 172.449 201.384 180.165 195.5 180.165C189.945 180.165 179.339 173.296 176.866 164.633ZM195.5 137.999C206.379 137.999 212.355 143.143 214.08 153.876L201.307 146.214C200.311 145.616 199.096 145.501 198.007 145.907C196.914 146.306 196.067 147.187 195.699 148.287C193.76 154.106 183.287 156.307 176.548 156.947C177.571 144.094 183.632 137.999 195.5 137.999ZM222.333 222.332H168.667V200.494C168.667 196.25 170.775 192.309 174.306 189.96C176.391 188.564 178.817 187.832 181.328 187.832H189.838L184.272 201.743C183.705 203.165 184.034 204.791 185.123 205.876L192.79 213.542C193.537 214.29 194.519 214.665 195.5 214.665C196.481 214.665 197.463 214.29 198.21 213.542L205.877 205.876C206.962 204.791 207.295 203.165 206.728 201.743L201.162 187.832H209.672C212.179 187.832 214.609 188.564 216.694 189.96C220.225 192.309 222.333 196.246 222.333 200.494V222.332Z" fill="#1F4FDE"/>
<path d="M72.8346 122.667H99.668H134.168H145.668H161.001H172.501H180.168V115H176.335V65.1667C176.335 63.0469 174.621 61.3334 172.501 61.3334H138.001V49.8334C138.001 47.7135 136.288 46 134.168 46H110.88C109.477 43.585 107.756 41.331 105.694 39.3262C99.6948 33.4995 91.8326 30.4904 83.3993 30.6782C67.0041 31.1727 53.668 45.4327 53.668 62.4604C53.668 72.4845 56.5123 82.2557 61.8943 90.712L77.3503 115H72.8346V122.667ZM149.501 115V103.5H157.168V115H149.501ZM168.668 69V72.8334H161.001V80.5H168.668V84.3334H161.001V92H168.668V115H164.835V99.6667C164.835 97.5469 163.121 95.8334 161.001 95.8334H145.668C143.548 95.8334 141.835 97.5469 141.835 99.6667V115H138.001V92H145.668V84.3334H138.001V80.5H145.668V72.8334H138.001V69H168.668ZM114.02 53.6667H130.335V65.1667V115H103.501V95.8525L106.775 90.712C107.45 89.654 108.082 88.5769 108.672 87.4805C112.824 79.81 115.001 71.231 115.001 62.4604V62.4565V61.3334C115.001 60.1144 114.909 58.9145 114.771 57.7224C114.741 57.4579 114.691 57.1972 114.652 56.9327C114.507 55.9207 114.315 54.9202 114.07 53.935C114.051 53.8469 114.043 53.7549 114.02 53.6667ZM61.3346 62.4604C61.3346 49.5305 71.332 38.7129 83.6255 38.3449C83.8631 38.3372 84.097 38.3334 84.3346 38.3334C90.3568 38.3334 96.0225 40.6257 100.354 44.827C102.34 46.7552 103.908 48.9862 105.069 51.4012C105.081 51.428 105.084 51.4549 105.096 51.4779C105.836 53.0304 106.392 54.6289 106.763 56.2657C106.767 56.281 106.771 56.2964 106.775 56.3117C106.94 57.0439 107.059 57.7799 107.151 58.5235C107.162 58.6309 107.189 58.7382 107.2 58.8455C107.285 59.6697 107.335 60.4977 107.335 61.3334V62.4565C107.335 69.9507 105.475 77.28 101.926 83.835C101.42 84.7704 100.879 85.6904 100.304 86.595L96.4326 92.6785V92.6824L84.3346 111.696L68.365 86.595C63.765 79.3692 61.3346 71.024 61.3346 62.4604ZM95.8346 107.901V115H91.319L95.8346 107.901Z" fill="#1F4FDE"/>
<path d="M126.499 57.5H118.832V65.1667H126.499V57.5Z" fill="#1F4FDE"/>
<path d="M157.167 72.832H149.5V80.4987H157.167V72.832Z" fill="#1F4FDE"/>
<path d="M157.167 84.332H149.5V91.9987H157.167V84.332Z" fill="#1F4FDE"/>
<path d="M126.499 69H118.832V76.6667H126.499V69Z" fill="#1F4FDE"/>
<path d="M126.499 80.5H118.832V88.1667H126.499V80.5Z" fill="#1F4FDE"/>
<path d="M114.999 92H107.332V99.6667H114.999V92Z" fill="#1F4FDE"/>
<path d="M126.499 92H118.832V99.6667H126.499V92Z" fill="#1F4FDE"/>
<path d="M114.999 103.5H107.332V111.167H114.999V103.5Z" fill="#1F4FDE"/>
<path d="M126.499 103.5H118.832V111.167H126.499V103.5Z" fill="#1F4FDE"/>
<path d="M16.0234 87.8825L23.6364 88.7795C23.9124 86.4182 24.2958 84.0185 24.7634 81.6495L17.2386 80.166C16.7326 82.7267 16.3263 85.3219 16.0234 87.8825Z" fill="#1F4FDE"/>
<path d="M24.4883 57.8909L31.4419 61.1109C32.4578 58.9182 33.5656 56.7524 34.7271 54.6862L28.0494 50.9219C26.7844 53.1644 25.5846 55.5104 24.4883 57.8909Z" fill="#1F4FDE"/>
<path d="M52.5537 32.0999L47.3519 26.4688C45.4467 28.2282 43.5876 30.0874 41.8242 31.9964L47.4554 37.1982C49.0807 35.4426 50.7981 33.7252 52.5537 32.0999Z" fill="#1F4FDE"/>
<path d="M19.0703 72.5577L26.4456 74.6392C27.0935 72.3507 27.8448 70.0392 28.6843 67.7699L21.4891 65.1172C20.5806 67.5705 19.768 70.0737 19.0703 72.5577Z" fill="#1F4FDE"/>
<path d="M32.1406 44.2626L38.5116 48.5291C39.8418 46.5396 41.2716 44.5769 42.759 42.6947L36.7483 37.9414C35.1345 39.9807 33.5858 42.1082 32.1406 44.2626Z" fill="#1F4FDE"/>
<path d="M187.152 42.5833C188.636 44.4501 190.07 46.4128 191.415 48.4138L197.771 44.1319C196.314 41.9699 194.765 39.8463 193.163 37.8223L187.152 42.5833Z" fill="#1F4FDE"/>
<path d="M170.259 16.7051L166.008 23.0837C167.986 24.4024 169.948 25.8284 171.85 27.3234L176.588 21.2974C174.529 19.6797 172.402 18.1311 170.259 16.7051Z" fill="#1F4FDE"/>
<path d="M156.615 9.07617L153.41 16.0375C155.576 17.038 157.746 18.142 159.85 19.3112L163.588 12.6182C161.311 11.3532 158.968 10.1572 156.615 9.07617Z" fill="#1F4FDE"/>
<path d="M195.199 54.5514C196.376 56.6329 197.484 58.7911 198.496 60.9723L205.446 57.7369C204.349 55.3794 203.15 53.0411 201.877 50.7871L195.199 54.5514Z" fill="#1F4FDE"/>
<path d="M141.941 3.6875L139.883 11.0705C142.187 11.7145 144.49 12.4582 146.744 13.2862L149.386 6.091C146.948 5.19017 144.444 4.38517 141.941 3.6875Z" fill="#1F4FDE"/>
<path d="M177.344 32.012C179.119 33.6526 180.84 35.3661 182.454 37.1065L188.077 31.897C186.329 30.011 184.466 28.1518 182.542 26.377L177.344 32.012Z" fill="#1F4FDE"/>
<path d="M213.959 87.7104C213.648 85.1268 213.234 82.5278 212.724 79.9824L205.207 81.4966C205.679 83.8388 206.062 86.2346 206.346 88.6151L213.959 87.7104Z" fill="#1F4FDE"/>
<path d="M201.273 67.6232C202.113 69.881 202.868 72.1887 203.52 74.4848L210.895 72.388C210.186 69.9002 209.369 67.397 208.461 64.959L201.273 67.6232Z" fill="#1F4FDE"/>
<path d="M73.2348 9.14648C70.8849 10.2313 68.5389 11.4312 66.2734 12.7038L70.0301 19.3892C72.1231 18.2123 74.2813 17.1045 76.4548 16.104L73.2348 9.14648Z" fill="#1F4FDE"/>
<path d="M126.612 0.669922L125.73 8.28292C128.088 8.55509 130.488 8.93076 132.864 9.39459L134.332 1.86976C131.764 1.36759 129.165 0.965089 126.612 0.669922Z" fill="#1F4FDE"/>
<path d="M63.8845 23.1602L59.6104 16.7969C57.4407 18.2574 55.3132 19.8022 53.2969 21.393L58.0425 27.4114C59.9055 25.9432 61.8759 24.5134 63.8845 23.1602Z" fill="#1F4FDE"/>
<path d="M87.886 3.73633C85.3714 4.44933 82.8682 5.25816 80.457 6.15516L83.1135 13.3427C85.3407 12.5223 87.6522 11.771 89.9752 11.1117L87.886 3.73633Z" fill="#1F4FDE"/>
<path d="M118.832 0.0762849C116.237 -0.0272151 113.607 -0.0195484 111.012 0.0801183L111.303 7.73912C113.695 7.65478 116.133 7.64712 118.525 7.73529L118.832 0.0762849Z" fill="#1F4FDE"/>
<path d="M103.22 0.693359C100.66 0.996193 98.0607 1.40636 95.5 1.90853L96.9835 9.43336C99.3525 8.96569 101.752 8.58236 104.117 8.30636L103.22 0.693359Z" fill="#1F4FDE"/>
<path d="M99.6667 61.3333C99.6667 52.877 92.7897 46 84.3333 46C75.877 46 69 52.877 69 61.3333C69 69.7897 75.877 76.6667 84.3333 76.6667C92.7897 76.6667 99.6667 69.7897 99.6667 61.3333ZM76.6667 61.3333C76.6667 57.1052 80.1052 53.6667 84.3333 53.6667C88.5615 53.6667 92 57.1052 92 61.3333C92 65.5615 88.5615 69 84.3333 69C80.1052 69 76.6667 65.5615 76.6667 61.3333Z" fill="#1F4FDE"/>
</g>
<defs>
<linearGradient id="paint0_linear_405_11251" x1="103.203" y1="186.915" x2="252.57" y2="37.5488" gradientUnits="userSpaceOnUse">
<stop stop-color="#D1DDFF" stop-opacity="0"/>
<stop offset="1" stop-color="#B6C4FF"/>
</linearGradient>
<clipPath id="clip0_405_11251">
<rect width="230" height="230" fill="white"/>
</clipPath>
</defs>
</svg>
