<svg width="36" height="36" viewBox="0 0 36 36" fill="none" xmlns="http://www.w3.org/2000/svg">
<g clip-path="url(#clip0_1424_8085)">
<path d="M13.6256 15.1191H3.82254C3.21331 15.1191 2.71484 15.6176 2.71484 16.2268V18.9407C2.71484 19.5499 3.21331 20.0484 3.82254 20.0484H13.6256C14.2348 20.0484 14.7333 19.5499 14.7333 18.9407V16.2268C14.7333 15.6176 14.2348 15.1191 13.6256 15.1191ZM3.82254 18.9407V16.2268H13.6256V18.9407H3.82254Z" fill="#CFE7FE"/>
<path d="M4.93107 21.543H3.82338C3.49107 21.543 3.26953 21.7645 3.26953 22.0968C3.26953 22.4291 3.49107 22.6507 3.82338 22.6507H4.93107C5.26338 22.6507 5.48492 22.4291 5.48492 22.0968C5.48492 21.7645 5.20799 21.543 4.93107 21.543Z" fill="#CFE7FE"/>
<path d="M9.25138 21.543H8.14369C7.81138 21.543 7.58984 21.7645 7.58984 22.0968C7.58984 22.4291 7.81138 22.6507 8.14369 22.6507H9.25138C9.58369 22.6507 9.80523 22.4291 9.80523 22.0968C9.80523 21.7645 9.58369 21.543 9.25138 21.543Z" fill="#CFE7FE"/>
<path d="M13.6264 21.543H12.5187C12.1864 21.543 11.9648 21.7645 11.9648 22.0968C11.9648 22.4291 12.1864 22.6507 12.5187 22.6507H13.6264C13.9587 22.6507 14.1802 22.4291 14.1802 22.0968C14.1802 21.7645 13.9587 21.543 13.6264 21.543Z" fill="#CFE7FE"/>
<path d="M4.93107 24.2578H3.82338C3.49107 24.2578 3.26953 24.4794 3.26953 24.8117C3.26953 25.144 3.49107 25.3655 3.82338 25.3655H4.93107C5.26338 25.3655 5.48492 25.144 5.48492 24.8117C5.48492 24.4794 5.20799 24.2578 4.93107 24.2578Z" fill="#CFE7FE"/>
<path d="M9.25138 24.2578H8.14369C7.81138 24.2578 7.58984 24.4794 7.58984 24.8117C7.58984 25.144 7.81138 25.3655 8.14369 25.3655H9.25138C9.58369 25.3655 9.80523 25.144 9.80523 24.8117C9.80523 24.4794 9.58369 24.2578 9.25138 24.2578Z" fill="#CFE7FE"/>
<path d="M13.6264 24.2578H12.5187C12.1864 24.2578 11.9648 24.4794 11.9648 24.8117C11.9648 25.144 12.1864 25.3655 12.5187 25.3655H13.6264C13.9587 25.3655 14.1802 25.144 14.1802 24.8117C14.1802 24.4794 13.9587 24.2578 13.6264 24.2578Z" fill="#CFE7FE"/>
<path d="M4.93107 26.9707H3.82338C3.49107 26.9707 3.26953 27.1922 3.26953 27.5245C3.26953 27.8569 3.49107 28.0784 3.82338 28.0784H4.93107C5.26338 28.0784 5.48492 27.8569 5.48492 27.5245C5.48492 27.1922 5.20799 26.9707 4.93107 26.9707Z" fill="#CFE7FE"/>
<path d="M9.25138 26.9707H8.14369C7.81138 26.9707 7.58984 27.1922 7.58984 27.5245C7.58984 27.8569 7.81138 28.0784 8.14369 28.0784H9.25138C9.58369 28.0784 9.80523 27.8569 9.80523 27.5245C9.80523 27.1922 9.58369 26.9707 9.25138 26.9707Z" fill="#CFE7FE"/>
<path d="M13.6264 26.9707H12.5187C12.1864 26.9707 11.9648 27.1922 11.9648 27.5245C11.9648 27.8569 12.1864 28.0784 12.5187 28.0784H13.6264C13.9587 28.0784 14.1802 27.8569 14.1802 27.5245C14.1802 27.1922 13.9587 26.9707 13.6264 26.9707Z" fill="#CFE7FE"/>
<path d="M35.1697 28.6332H30.2958V22.707H33.0097C33.342 22.707 33.5635 22.4855 33.5635 22.1532V19.3285H34.3389C34.6712 19.3285 34.8927 19.107 34.8927 18.7747V15.3962C34.8927 15.0639 34.6712 14.8424 34.3389 14.8424H33.5635V12.5716H34.3389C34.6712 12.5716 34.8927 12.3501 34.8927 12.0178V8.63931C34.8927 8.307 34.6712 8.08546 34.3389 8.08546H33.5635V5.26085C33.5635 4.92854 33.342 4.707 33.0097 4.707H30.2958V4.09777C30.2958 2.27008 28.8004 0.830078 27.0281 0.830078H3.60042C3.60042 0.830078 3.60042 0.830078 3.54504 0.830078C1.71734 0.830078 0.277344 2.32546 0.277344 4.09777V6.81162C0.277344 7.14392 0.498882 7.36546 0.83119 7.36546H5.70504V12.6824H1.93888C0.997344 12.6824 0.277344 13.4024 0.277344 14.3439V29.0208C0.277344 29.9624 0.997344 30.6824 1.93888 30.6824H5.70504V31.9008C5.70504 33.7285 7.20042 35.1685 8.97273 35.1685H32.4004C34.2281 35.1685 35.6681 33.6732 35.6681 31.9008V29.187C35.7235 28.9101 35.502 28.6332 35.1697 28.6332ZM32.4558 21.5993H21.3789V19.3285H32.4558V21.5993ZM33.785 18.2208C30.5173 18.2208 27.6927 18.2208 22.7081 18.2208V15.9501H33.785V18.2208ZM32.4558 14.8424C29.0773 14.8424 26.4189 14.8424 21.3789 14.8424V12.5716H32.4558V14.8424ZM33.785 11.4639H33.0097H22.7081V9.19316H33.065H33.785V11.4639ZM32.4558 8.08546C29.0773 8.08546 26.4189 8.08546 21.3789 8.08546V5.81469H32.4558V8.08546ZM5.70504 6.25777H1.38504V4.04239C1.38504 2.82392 2.32657 1.88239 3.54504 1.88239C4.70811 1.88239 5.70504 2.87931 5.70504 4.04239V6.25777ZM1.38504 29.0208V14.3439C1.38504 14.0116 1.60657 13.7901 1.93888 13.7901H15.5081C15.8404 13.7901 16.062 14.0116 16.062 14.3439V29.0208C16.062 29.3532 15.8404 29.5747 15.5081 29.5747H1.93888C1.60657 29.5747 1.38504 29.2978 1.38504 29.0208ZM6.81273 31.9008V30.6824H15.5081C16.4497 30.6824 17.1697 29.9624 17.1697 29.0208V14.3439C17.1697 13.4024 16.4497 12.6824 15.5081 12.6824H6.81273V6.81162V4.04239C6.81273 3.21162 6.48042 2.43623 5.98196 1.88239H26.9727C28.1912 1.88239 29.1327 2.87931 29.1327 4.04239V4.65162H20.825C20.4927 4.65162 20.2712 4.87316 20.2712 5.20546V8.58392C20.2712 8.91623 20.4927 9.13777 20.825 9.13777H21.6004V11.4085H20.825C20.4927 11.4085 20.2712 11.6301 20.2712 11.9624V15.3408C20.2712 15.6732 20.4927 15.8947 20.825 15.8947H21.6004V18.1655H20.825C20.4927 18.1655 20.2712 18.387 20.2712 18.7193V22.1532C20.2712 22.4855 20.4927 22.707 20.825 22.707H29.1881V29.2424V31.9562C29.1881 32.787 29.5204 33.5624 30.0189 34.1162H9.02811C7.80965 34.1162 6.81273 33.1193 6.81273 31.9008ZM34.6158 31.9562C34.6158 33.1747 33.6189 34.1162 32.4558 34.1162C31.2927 34.1162 30.2958 33.1193 30.2958 31.9562V29.7962H34.6158V31.9562Z" fill="#CFE7FE"/>
<path d="M15.8385 4.54102H10.9093C10.577 4.54102 10.3555 4.76255 10.3555 5.09486C10.3555 5.42717 10.577 5.64871 10.9093 5.64871H15.8385C16.1709 5.64871 16.3924 5.42717 16.3924 5.09486C16.3924 4.76255 16.1155 4.54102 15.8385 4.54102Z" fill="#CFE7FE"/>
<path d="M15.8385 8.91602H10.9093C10.577 8.91602 10.3555 9.13755 10.3555 9.46986C10.3555 9.80217 10.577 10.0237 10.9093 10.0237H15.8385C16.1709 10.0237 16.3924 9.80217 16.3924 9.46986C16.3924 9.13755 16.1155 8.91602 15.8385 8.91602Z" fill="#CFE7FE"/>
<path d="M25.5885 25.6426H20.6593C20.327 25.6426 20.1055 25.8641 20.1055 26.1964C20.1055 26.5287 20.327 26.7503 20.6593 26.7503H25.5885C25.9209 26.7503 26.1424 26.5287 26.1424 26.1964C26.1424 25.8641 25.9209 25.6426 25.5885 25.6426Z" fill="#CFE7FE"/>
</g>
<defs>
<clipPath id="clip0_1424_8085">
<rect width="36" height="36" fill="white"/>
</clipPath>
</defs>
</svg>
