<svg width="258" height="230" viewBox="0 0 258 230" fill="none" xmlns="http://www.w3.org/2000/svg">
<g clip-path="url(#clip0_1260_7150)">
<path opacity="0.1" d="M187.995 59.7755C187.995 59.7755 187.994 59.7755 187.994 59.7755V20.3022C187.994 17.5242 185.744 15.2695 182.961 15.2695H74.7085C71.9254 15.2695 69.6758 17.5242 69.6758 20.3022V225.52C69.6758 227.397 71.6587 228.615 73.3345 227.759L80.3652 224.171C81.0849 223.803 81.9354 223.803 82.6551 224.171L92.197 229.042C92.9167 229.41 93.7672 229.41 94.4869 229.042L104.034 224.171C104.748 223.803 105.604 223.803 106.319 224.171L115.866 229.042C116.585 229.41 117.436 229.41 118.151 229.042L127.697 224.171C128.417 223.803 129.268 223.803 129.987 224.171L139.529 229.042C140.249 229.41 141.1 229.41 141.819 229.042L151.361 224.171C152.081 223.803 152.931 223.803 153.646 224.171L163.193 229.042C163.908 229.41 164.758 229.41 165.478 229.042L175.02 224.171C175.739 223.803 176.59 223.803 177.31 224.171L184.335 227.759C186.011 228.615 187.994 227.397 187.994 225.515V113.393H187.995C202.802 113.393 214.804 101.39 214.804 86.5841C214.804 71.7779 202.802 59.7755 187.995 59.7755Z" fill="#1F4FDE"/>
<path d="M237.279 53.0009C204.356 27.6901 172.424 48.318 136.806 41.0247C100.931 33.6785 86.638 9.21816 45.7772 20.509C9.5812 30.5104 -12.3814 70.6098 7.5168 104.181C13.1871 113.748 22.8468 120.965 26.7945 131.669C33.1623 148.937 23.4694 162.194 25.3601 179.164C33.2172 249.672 140.897 222.361 180.519 200.424C242.657 166.021 284.694 89.4551 237.279 53.0009Z" fill="url(#paint0_linear_1260_7150)"/>
<path d="M187.994 7.72018V212.933C187.994 214.815 186.011 216.033 184.335 215.177L177.31 211.589C176.59 211.221 175.739 211.221 175.02 211.589L165.478 216.46C164.758 216.828 163.908 216.828 163.193 216.46L153.646 211.589C152.931 211.221 152.081 211.221 151.361 211.589L141.819 216.46C141.1 216.828 140.249 216.828 139.529 216.46L129.987 211.589C129.268 211.221 128.417 211.221 127.697 211.589L118.151 216.46C117.436 216.828 116.585 216.828 115.866 216.46L106.319 211.589C105.604 211.221 104.748 211.221 104.034 211.589L94.4869 216.46C93.7672 216.828 92.9167 216.828 92.197 216.46L82.6551 211.589C81.9354 211.221 81.0849 211.221 80.3652 211.589L73.3345 215.177C71.6587 216.033 69.6758 214.815 69.6758 212.938V7.72018C69.6758 4.94214 71.9254 2.6875 74.7085 2.6875H182.961C185.744 2.6875 187.994 4.94214 187.994 7.72018Z" fill="white"/>
<path d="M140.675 219.249C139.889 219.249 139.104 219.067 138.388 218.701L128.843 213.83L119.299 218.701C117.865 219.432 116.155 219.431 114.723 218.701L105.178 213.83L95.6335 218.701C94.2007 219.432 92.4906 219.432 91.0583 218.701L81.5113 213.83L74.4807 217.417C72.908 218.22 71.0705 218.149 69.5648 217.227C68.059 216.305 67.1602 214.7 67.1602 212.935V7.72089C67.1602 3.55836 70.5466 0.171875 74.7092 0.171875H99.3557C100.745 0.171875 101.872 1.29869 101.872 2.68821C101.872 4.07773 100.745 5.20455 99.3557 5.20455H74.7092C73.3217 5.20455 72.1928 6.33338 72.1928 7.72089V212.934L79.223 209.346C80.6558 208.616 82.3664 208.616 83.7982 209.346L93.3452 214.218L102.89 209.346C104.322 208.615 106.033 208.615 107.466 209.346L117.01 214.218L126.555 209.346C127.987 208.615 129.698 208.614 131.131 209.346L140.675 214.217L150.218 209.346C151.652 208.615 153.362 208.615 154.794 209.346L164.337 214.218L173.878 209.346C175.311 208.615 177.021 208.615 178.454 209.346L185.481 212.933V115.703C185.481 114.314 186.608 113.187 187.997 113.187C189.387 113.187 190.514 114.314 190.514 115.703V212.934C190.514 214.699 189.615 216.304 188.109 217.226C186.604 218.148 184.765 218.219 183.193 217.416L176.166 213.829L166.625 218.7C165.193 219.432 163.482 219.432 162.048 218.7L152.506 213.829L142.963 218.7C142.247 219.067 141.461 219.249 140.675 219.249Z" fill="#1F4FDE"/>
<path d="M131.352 95.5717H87.8093C86.4193 95.5717 85.293 94.4449 85.293 93.0554C85.293 91.6659 86.4193 90.5391 87.8093 90.5391H131.352C132.742 90.5391 133.868 91.6659 133.868 93.0554C133.868 94.4454 132.742 95.5717 131.352 95.5717Z" fill="#1F4FDE"/>
<path d="M93.607 85.4917H87.8093C86.4193 85.4917 85.293 84.3648 85.293 82.9753C85.293 81.5858 86.4193 80.459 87.8093 80.459H93.607C94.997 80.459 96.1233 81.5858 96.1233 82.9753C96.1233 84.3648 94.997 85.4917 93.607 85.4917Z" fill="#1F4FDE"/>
<path d="M141.417 118.425H87.8093C86.4193 118.425 85.293 117.298 85.293 115.909C85.293 114.519 86.4193 113.393 87.8093 113.393H141.417C142.807 113.393 143.934 114.519 143.934 115.909C143.934 117.298 142.807 118.425 141.417 118.425Z" fill="#1F4FDE"/>
<path d="M93.607 108.343H87.8093C86.4193 108.343 85.293 107.216 85.293 105.827C85.293 104.437 86.4193 103.311 87.8093 103.311H93.607C94.997 103.311 96.1233 104.437 96.1233 105.827C96.1233 107.216 94.997 108.343 93.607 108.343Z" fill="#1F4FDE"/>
<path d="M136.385 141.277H87.8093C86.4193 141.277 85.293 140.15 85.293 138.76C85.293 137.371 86.4193 136.244 87.8093 136.244H136.385C137.775 136.244 138.901 137.371 138.901 138.76C138.901 140.15 137.775 141.277 136.385 141.277Z" fill="#1F4FDE"/>
<path d="M93.607 131.195H87.8093C86.4193 131.195 85.293 130.068 85.293 128.678C85.293 127.289 86.4193 126.162 87.8093 126.162H93.607C94.997 126.162 96.1233 127.289 96.1233 128.678C96.1233 130.068 94.997 131.195 93.607 131.195Z" fill="#1F4FDE"/>
<path d="M116.254 164.13H87.8093C86.4193 164.13 85.293 163.004 85.293 161.614C85.293 160.224 86.4193 159.098 87.8093 159.098H116.254C117.644 159.098 118.77 160.224 118.77 161.614C118.77 163.004 117.644 164.13 116.254 164.13Z" fill="#1F4FDE"/>
<path d="M139.284 164.13H128.454C127.064 164.13 125.938 163.004 125.938 161.614C125.938 160.224 127.064 159.098 128.454 159.098H139.284C140.674 159.098 141.8 160.224 141.8 161.614C141.8 163.004 140.674 164.13 139.284 164.13Z" fill="#1F4FDE"/>
<path d="M93.607 154.048H87.8093C86.4193 154.048 85.293 152.921 85.293 151.532C85.293 150.142 86.4193 149.016 87.8093 149.016H93.607C94.997 149.016 96.1233 150.142 96.1233 151.532C96.1233 152.921 94.997 154.048 93.607 154.048Z" fill="#1F4FDE"/>
<path d="M168.401 95.5717H160.087C158.697 95.5717 157.57 94.4449 157.57 93.0554C157.57 91.6659 158.697 90.5391 160.087 90.5391H168.401C169.791 90.5391 170.917 91.6659 170.917 93.0554C170.917 94.4454 169.79 95.5717 168.401 95.5717Z" fill="#1F4FDE"/>
<path d="M168.401 118.423H160.087C158.697 118.423 157.57 117.296 157.57 115.907C157.57 114.517 158.697 113.391 160.087 113.391H168.401C169.791 113.391 170.917 114.517 170.917 115.907C170.917 117.296 169.79 118.423 168.401 118.423Z" fill="#1F4FDE"/>
<path d="M168.401 141.277H160.087C158.697 141.277 157.57 140.15 157.57 138.76C157.57 137.371 158.697 136.244 160.087 136.244H168.401C169.791 136.244 170.917 137.371 170.917 138.76C170.917 140.15 169.79 141.277 168.401 141.277Z" fill="#1F4FDE"/>
<path d="M168.401 164.128H160.087C158.697 164.128 157.57 163.002 157.57 161.612C157.57 160.223 158.697 159.096 160.087 159.096H168.401C169.791 159.096 170.917 160.223 170.917 161.612C170.917 163.002 169.79 164.128 168.401 164.128Z" fill="#1F4FDE"/>
<path d="M167.567 154.077C166.178 154.077 165.051 152.95 165.051 151.561V151.503C165.051 150.113 166.178 148.986 167.567 148.986C168.957 148.986 170.083 150.113 170.083 151.503V151.561C170.083 152.951 168.957 154.077 167.567 154.077Z" fill="#1F4FDE"/>
<path d="M168.4 193.255H156.251C154.861 193.255 153.734 192.129 153.734 190.739C153.734 189.349 154.861 188.223 156.251 188.223H168.4C169.79 188.223 170.916 189.349 170.916 190.739C170.916 192.129 169.789 193.255 168.4 193.255Z" fill="#1F4FDE"/>
<path d="M104.991 193.255H87.8093C86.4193 193.255 85.293 192.129 85.293 190.739C85.293 189.349 86.4193 188.223 87.8093 188.223H104.991C106.381 188.223 107.507 189.349 107.507 190.739C107.507 192.129 106.38 193.255 104.991 193.255Z" fill="#1F4FDE"/>
<path d="M167.567 131.225C166.178 131.225 165.051 130.098 165.051 128.709V128.651C165.051 127.262 166.178 126.135 167.567 126.135C168.957 126.135 170.083 127.262 170.083 128.651V128.709C170.083 130.098 168.957 131.225 167.567 131.225Z" fill="#1F4FDE"/>
<path d="M167.567 108.372C166.178 108.372 165.051 107.245 165.051 105.855V105.798C165.051 104.408 166.178 103.281 167.567 103.281C168.957 103.281 170.083 104.408 170.083 105.798V105.855C170.083 107.245 168.957 108.372 167.567 108.372Z" fill="#1F4FDE"/>
<path d="M167.567 85.5202C166.178 85.5202 165.051 84.3934 165.051 83.0039V82.946C165.051 81.5565 166.178 80.4297 167.567 80.4297C168.957 80.4297 170.083 81.5565 170.083 82.946V83.0039C170.083 84.3934 168.957 85.5202 167.567 85.5202Z" fill="#01ECA5"/>
<path d="M188 100.81C202.806 100.81 214.809 88.8079 214.809 74.0019C214.809 59.196 202.806 47.1934 188 47.1934C173.194 47.1934 161.191 59.196 161.191 74.0019C161.191 88.8079 173.194 100.81 188 100.81Z" fill="#9BACF2"/>
<path d="M190.515 44.7916V7.72089C190.515 3.55836 187.129 0.171875 182.966 0.171875H114.079C112.689 0.171875 111.562 1.29869 111.562 2.68821C111.562 4.07773 112.689 5.20455 114.079 5.20455H182.966C184.354 5.20455 185.482 6.33338 185.482 7.72089V44.7916C170.487 46.0734 158.674 58.6803 158.674 74.0017C158.674 90.1717 171.829 103.327 187.999 103.327C204.169 103.327 217.324 90.1717 217.324 74.0017C217.324 58.6803 205.51 46.0729 190.515 44.7916ZM187.999 98.294C174.604 98.294 163.706 87.3967 163.706 74.0017C163.706 60.6068 174.604 49.709 187.999 49.709C201.394 49.709 212.291 60.6068 212.291 74.0017C212.291 87.3967 201.394 98.294 187.999 98.294Z" fill="#1F4FDE"/>
<path d="M191.278 71.4863H190.515V66.3631H195.273C196.662 66.3631 197.789 65.2362 197.789 63.8467C197.789 62.4572 196.662 61.3304 195.273 61.3304H190.515V60.0652C190.515 58.6756 189.388 57.5488 187.999 57.5488C186.609 57.5488 185.482 58.6756 185.482 60.0652V61.3304H184.719C180.532 61.3304 177.125 64.737 177.125 68.9247C177.125 73.1124 180.532 76.519 184.719 76.519H185.482V81.6423H180.725C179.335 81.6423 178.209 82.7691 178.209 84.1586C178.209 85.5481 179.335 86.6749 180.725 86.6749H185.482V87.9401C185.482 89.3297 186.609 90.4565 187.999 90.4565C189.388 90.4565 190.515 89.3297 190.515 87.9401V86.6749H191.278C195.465 86.6749 198.872 83.2683 198.872 79.0806C198.872 74.8929 195.465 71.4863 191.278 71.4863ZM184.719 71.4863C183.307 71.4863 182.158 70.3374 182.158 68.9247C182.158 67.512 183.307 66.3631 184.719 66.3631H185.482V71.4863H184.719ZM191.278 81.6423H190.515V76.519H191.278C192.69 76.519 193.839 77.668 193.839 79.0806C193.84 80.4928 192.69 81.6423 191.278 81.6423Z" fill="#1F4FDE"/>
<path d="M139.283 65.7866H118.387C116.997 65.7866 115.871 64.6598 115.871 63.2702C115.871 61.8807 116.997 60.7539 118.387 60.7539H139.283C140.673 60.7539 141.799 61.8807 141.799 63.2702C141.799 64.6598 140.673 65.7866 139.283 65.7866Z" fill="#1F4FDE"/>
<path d="M153.123 47.1928H104.548C103.158 47.1928 102.031 46.066 102.031 44.6765C102.031 43.287 103.158 42.1602 104.548 42.1602H153.123C154.513 42.1602 155.639 43.287 155.639 44.6765C155.639 46.066 154.513 47.1928 153.123 47.1928Z" fill="#1F4FDE"/>
<path d="M165.704 36.1479H91.9656C90.5755 36.1479 89.4492 35.0211 89.4492 33.6316C89.4492 32.2421 90.5755 31.1152 91.9656 31.1152H165.704C167.094 31.1152 168.221 32.2421 168.221 33.6316C168.221 35.0211 167.094 36.1479 165.704 36.1479Z" fill="#1F4FDE"/>
<path d="M93.607 25.1049H87.8093C86.4193 25.1049 85.293 23.9781 85.293 22.5886C85.293 21.1991 86.4193 20.0723 87.8093 20.0723H93.607C94.997 20.0723 96.1233 21.1991 96.1233 22.5886C96.1233 23.9781 94.997 25.1049 93.607 25.1049Z" fill="#1F4FDE"/>
<path d="M206.934 27.3653C205.066 27.3653 203.197 26.6537 201.774 25.2315C198.929 22.3865 198.929 17.7569 201.774 14.9114C204.619 12.066 209.249 12.066 212.094 14.9114C214.939 17.7569 214.939 22.386 212.094 25.2315C210.672 26.6537 208.803 27.3653 206.934 27.3653ZM206.935 17.8078C206.355 17.8078 205.775 18.0282 205.333 18.4701C204.451 19.3528 204.451 20.7896 205.333 21.6729C206.216 22.5556 207.653 22.5561 208.536 21.6729C209.419 20.7901 209.419 19.3533 208.536 18.4701C208.094 18.0282 207.515 17.8078 206.935 17.8078Z" fill="#9BACF2"/>
<path d="M219.586 51.9706C217.718 51.9711 215.849 51.2595 214.426 49.8367C213.048 48.4583 212.289 46.6259 212.289 44.6767C212.289 42.7276 213.048 40.8952 214.426 39.5167C217.271 36.6718 221.9 36.6713 224.746 39.5167C226.124 40.8952 226.883 42.7276 226.883 44.6767C226.883 46.6264 226.124 48.4588 224.745 49.8367C223.324 51.259 221.455 51.9706 219.586 51.9706ZM219.586 42.413C219.007 42.413 218.426 42.6335 217.985 43.0753C217.557 43.5031 217.322 44.0718 217.322 44.6767C217.322 45.2817 217.557 45.8504 217.985 46.2781C218.868 47.1614 220.305 47.1614 221.188 46.2781C221.616 45.8504 221.851 45.2817 221.851 44.6767C221.851 44.0718 221.616 43.5036 221.188 43.0753C220.746 42.6335 220.167 42.413 219.586 42.413Z" fill="#9BACF2"/>
<path d="M53.032 105.062C51.1634 105.062 49.2942 104.35 47.872 102.928C45.027 100.083 45.027 95.4531 47.872 92.6081C50.717 89.7637 55.347 89.7632 58.192 92.6081C61.037 95.4536 61.037 100.083 58.192 102.928C56.7698 104.35 54.9006 105.062 53.032 105.062ZM53.032 95.5045C52.4522 95.5045 51.872 95.7249 51.4306 96.1668C50.5474 97.0495 50.5474 98.4863 51.4306 99.3695C52.3133 100.253 53.7507 100.252 54.6334 99.3695C55.5166 98.4868 55.5166 97.05 54.6334 96.1668C54.192 95.7249 53.6123 95.5045 53.032 95.5045Z" fill="#9BACF2"/>
<path d="M49.7892 127.678C49.145 127.678 48.5014 127.433 48.0097 126.942L45.0082 123.94L42.0067 126.942C41.0238 127.924 39.431 127.924 38.4481 126.942C37.4652 125.959 37.4652 124.365 38.4481 123.383L43.2291 118.602C44.212 117.62 45.8049 117.62 46.7877 118.602L51.5688 123.383C52.5517 124.366 52.5517 125.959 51.5688 126.942C51.0771 127.432 50.4334 127.678 49.7892 127.678Z" fill="#9BACF2"/>
<path d="M214.805 200.551C214.161 200.551 213.517 200.306 213.025 199.815L210.024 196.813L207.022 199.815C206.039 200.797 204.447 200.797 203.464 199.815C202.481 198.832 202.481 197.238 203.464 196.256L208.245 191.475C209.228 190.493 210.82 190.493 211.803 191.475L216.584 196.256C217.567 197.239 217.567 198.832 216.584 199.815C216.093 200.305 215.449 200.551 214.805 200.551Z" fill="#9BACF2"/>
</g>
<defs>
<linearGradient id="paint0_linear_1260_7150" x1="-4.53595" y1="62.9057" x2="234.532" y2="177.796" gradientUnits="userSpaceOnUse">
<stop stop-color="#D2DEFF" stop-opacity="0"/>
<stop offset="1" stop-color="#B7C5FF"/>
</linearGradient>
<clipPath id="clip0_1260_7150">
<rect width="257.673" height="229.49" fill="white"/>
</clipPath>
</defs>
</svg>
