<svg width="240" height="230" viewBox="0 0 240 230" fill="none" xmlns="http://www.w3.org/2000/svg">
<g clip-path="url(#clip0_1260_6152)">
<path d="M233.08 120.877C221.576 95.5703 194.634 81.0057 182.602 56.6615C170.798 32.7819 162.386 -8.42376 130.065 1.83678C75.6902 19.0982 -22.4852 93.3307 4.64896 157.764C11.1932 173.304 29.9069 179.507 41.773 191.478C62.7048 212.597 84.3326 226.54 115.44 228.914C176.781 233.595 264.87 190.816 233.08 120.877Z" fill="url(#paint0_linear_1260_6152)"/>
<path opacity="0.1" d="M204.239 147.43H200.804V115.024C200.804 112.437 198.707 110.34 196.12 110.34H184.562V62.1865H192.81C196.861 62.1865 199.001 57.392 196.297 54.3763L177.251 33.1349C175.389 31.0592 172.138 31.0592 170.276 33.1349L151.23 54.3763C148.526 57.392 150.666 62.1865 154.717 62.1865H162.965V110.34H141.292V89.3506H149.54C153.591 89.3506 155.731 84.5561 153.027 81.5404L133.981 60.299C132.12 58.2233 128.868 58.2233 127.007 60.299L107.96 81.5404C105.256 84.5561 107.397 89.3506 111.447 89.3506H119.695V110.34H98.1509V88.9862C98.1509 87.6931 97.1023 86.6445 95.8092 86.6445H54.8635C53.5704 86.6445 52.5218 87.6931 52.5218 88.9862V127.504C52.5218 128.797 53.5704 129.845 54.8635 129.845H75.3364V157.086C52.9156 165.002 36.7108 186.086 36.0163 211.049C35.9905 211.962 36.7258 212.717 37.6396 212.717H59.6449C60.619 212.717 61.4377 211.961 61.4869 210.988C62.0189 200.518 67.3567 191.316 75.3359 185.539V203.746C75.3359 206.332 77.4327 208.429 80.0194 208.429H87.2876C86.7991 209.498 86.52 210.683 86.52 211.935C86.52 216.607 90.3071 220.393 94.9779 220.393C99.6487 220.393 103.436 216.606 103.436 211.935C103.436 210.683 103.156 209.498 102.668 208.429H128.231C128.339 209.274 128.425 210.125 128.469 210.988C128.518 211.961 129.337 212.717 130.311 212.717H152.316C153.23 212.717 153.966 211.962 153.939 211.049C153.915 210.171 153.868 209.298 153.806 208.429H196.119C198.705 208.429 200.802 206.332 200.802 203.746V171.339H204.238C205.531 171.339 206.58 170.291 206.58 168.998V149.772C206.581 148.478 205.533 147.43 204.239 147.43Z" fill="#1F4FDE"/>
<path d="M151.229 43.1361L170.275 21.8947C172.137 19.819 175.388 19.819 177.249 21.8947L196.295 43.1361C199 46.1518 196.859 50.9462 192.808 50.9462H184.56V116.447H162.964V50.9462H154.715C150.666 50.9462 148.525 46.1522 151.229 43.1361Z" fill="#9BACF2"/>
<path d="M173.705 109.84C172.411 109.84 171.363 108.792 171.363 107.498V58.707C171.363 57.4139 172.411 56.3652 173.705 56.3652C174.999 56.3652 176.047 57.4139 176.047 58.707V107.499C176.047 108.792 174.999 109.84 173.705 109.84Z" fill="white"/>
<path d="M107.96 70.3001L127.006 49.0587C128.867 46.983 132.118 46.983 133.98 49.0587L153.026 70.3001C155.73 73.3158 153.59 78.1103 149.539 78.1103H141.291V116.447H119.695V78.1103H111.446C107.396 78.1103 105.255 73.3163 107.96 70.3001Z" fill="#9BACF2"/>
<path d="M130.494 109.613C129.201 109.613 128.152 108.565 128.152 107.271V86.5429C128.152 85.2498 129.201 84.2012 130.494 84.2012C131.788 84.2012 132.836 85.2498 132.836 86.5429V107.271C132.836 108.565 131.788 109.613 130.494 109.613Z" fill="white"/>
<path d="M196.118 197.189H99.66C97.0734 197.189 94.9766 195.092 94.9766 192.505V103.783C94.9766 101.196 97.0734 99.0996 99.66 99.0996H196.118C198.705 99.0996 200.801 101.196 200.801 103.783V192.505C200.801 195.092 198.705 197.189 196.118 197.189Z" fill="#9BACF2"/>
<path d="M181.161 197.189H80.0194C77.4327 197.189 75.3359 195.092 75.3359 192.505V103.783C75.3359 101.196 77.4327 99.0996 80.0194 99.0996H181.161C183.747 99.0996 185.844 101.196 185.844 103.783V192.505C185.844 195.092 183.747 197.189 181.161 197.189Z" fill="white"/>
<path d="M172.381 121.917C171.087 121.917 170.039 120.868 170.039 119.575V119.521C170.039 118.228 171.087 117.18 172.381 117.18C173.674 117.18 174.723 118.228 174.723 119.521V119.575C174.723 120.868 173.674 121.917 172.381 121.917Z" fill="#9BACF2"/>
<path d="M174.787 113.515C173.493 113.515 172.445 112.466 172.445 111.173V111.119C172.445 109.826 173.493 108.777 174.787 108.777C176.081 108.777 177.129 109.826 177.129 111.119V111.173C177.129 112.466 176.081 113.515 174.787 113.515Z" fill="#9BACF2"/>
<path d="M164.443 121.917C163.15 121.917 162.102 120.868 162.102 119.575V119.521C162.102 118.228 163.15 117.18 164.443 117.18C165.737 117.18 166.785 118.228 166.785 119.521V119.575C166.785 120.868 165.737 121.917 164.443 121.917Z" fill="#9BACF2"/>
<path d="M166.85 113.515C165.556 113.515 164.508 112.466 164.508 111.173V111.119C164.508 109.826 165.556 108.777 166.85 108.777C168.143 108.777 169.191 109.826 169.191 111.119V111.173C169.191 112.466 168.143 113.515 166.85 113.515Z" fill="#9BACF2"/>
<path d="M156.502 121.917C155.208 121.917 154.16 120.868 154.16 119.575V119.521C154.16 118.228 155.208 117.18 156.502 117.18C157.795 117.18 158.844 118.228 158.844 119.521V119.575C158.844 120.868 157.795 121.917 156.502 121.917Z" fill="#9BACF2"/>
<path d="M158.908 113.515C157.615 113.515 156.566 112.466 156.566 111.173V111.119C156.566 109.826 157.615 108.777 158.908 108.777C160.202 108.777 161.25 109.826 161.25 111.119V111.173C161.25 112.466 160.201 113.515 158.908 113.515Z" fill="#9BACF2"/>
<path d="M204.239 160.099H165.963C164.67 160.099 163.621 159.05 163.621 157.757V138.531C163.621 137.238 164.67 136.189 165.963 136.189H204.239C205.532 136.189 206.581 137.238 206.581 138.531V157.757C206.581 159.05 205.533 160.099 204.239 160.099Z" fill="#9BACF2"/>
<path d="M174.736 153.043C173.443 153.043 172.395 151.994 172.395 150.701V145.588C172.395 144.295 173.443 143.246 174.736 143.246C176.03 143.246 177.078 144.295 177.078 145.588V150.701C177.078 151.994 176.029 153.043 174.736 153.043Z" fill="white"/>
<path d="M153.94 199.808C153.966 200.722 153.23 201.477 152.317 201.477H130.311C129.337 201.477 128.519 200.72 128.469 199.748C127.57 182.032 112.92 167.942 94.9788 167.942C77.0402 167.942 62.388 182.032 61.4883 199.748C61.4387 200.72 60.6204 201.477 59.6463 201.477H37.6396C36.7259 201.477 35.9901 200.722 36.0163 199.808C36.901 168.004 62.9598 142.492 94.9779 142.492C126.996 142.492 153.055 168.004 153.94 199.808Z" fill="#9BACF2"/>
<path d="M136.683 159.77L118.689 177.767C112.623 171.698 104.238 167.942 94.9766 167.942V142.492C111.266 142.493 126.013 149.096 136.683 159.77Z" fill="white"/>
<path d="M53.2711 159.77C42.9633 170.077 36.4504 184.183 36.0163 199.808C35.9905 200.721 36.7258 201.48 37.6396 201.48L59.6453 201.477C60.6195 201.477 61.4377 200.72 61.4873 199.748C61.9229 191.177 65.5788 183.452 71.265 177.763L53.2711 159.77Z" fill="white"/>
<path d="M99.7154 197.654H90.2422V162.432C90.2422 161.138 91.2908 160.09 92.5839 160.09H97.3737C98.6668 160.09 99.7154 161.138 99.7154 162.432V197.654Z" fill="white"/>
<path d="M94.9774 209.154C99.6486 209.154 103.435 205.367 103.435 200.696C103.435 196.025 99.6486 192.238 94.9774 192.238C90.3063 192.238 86.5195 196.025 86.5195 200.696C86.5195 205.367 90.3063 209.154 94.9774 209.154Z" fill="#9BACF2"/>
<path d="M94.9785 203.091C93.6849 203.091 92.6367 202.042 92.6367 200.749V200.695C92.6367 199.402 93.6849 198.354 94.9785 198.354C96.272 198.354 97.3202 199.402 97.3202 200.695V200.749C97.3202 202.042 96.2716 203.091 94.9785 203.091Z" fill="white"/>
<path d="M52.5234 77.746V116.263C52.5234 117.556 53.5721 118.605 54.8652 118.605H89.1795L94.4531 122.357C96.0034 123.461 98.1526 122.352 98.1526 120.449V77.746C98.1526 76.4529 97.104 75.4043 95.8109 75.4043H54.8652C53.5716 75.4043 52.5234 76.4529 52.5234 77.746Z" fill="#9BACF2"/>
<path d="M204.241 133.848H188.189V103.781C188.189 102.96 188.04 102.174 187.78 101.441H196.12C197.412 101.441 198.462 102.492 198.462 103.783V123.732C198.462 125.026 199.51 126.074 200.804 126.074C202.098 126.074 203.146 125.026 203.146 123.732V103.783C203.146 99.909 199.994 96.7575 196.12 96.7575H186.904V53.2874H192.81C195.621 53.2874 198.08 51.6927 199.225 49.1262C200.371 46.5596 199.917 43.6648 198.041 41.5727L178.994 20.3313C177.664 18.8471 175.758 17.9961 173.764 17.9961C171.771 17.9961 169.864 18.8471 168.534 20.3313L149.487 41.5727C147.611 43.6653 147.157 46.5596 148.303 49.1266C149.449 51.6932 151.907 53.2879 154.718 53.2879H160.624V96.7561H143.635V80.452H149.541C152.352 80.452 154.81 78.8573 155.956 76.2908C157.102 73.7242 156.648 70.8294 154.772 68.7373L135.725 47.4959C134.394 46.0117 132.488 45.1607 130.494 45.1607C128.501 45.1607 126.595 46.0117 125.264 47.4959L106.218 68.7373C104.341 70.8298 103.887 73.7242 105.034 76.2912C106.179 78.8578 108.637 80.4525 111.448 80.4525H117.354V96.7566H100.493V77.7459C100.493 75.1635 98.3924 73.0625 95.8099 73.0625H77.3458C76.0522 73.0625 75.0041 74.1111 75.0041 75.4042C75.0041 76.6973 76.0522 77.7459 77.3458 77.7459H95.8099V120.449L90.5363 116.697C90.1401 116.415 89.6657 116.263 89.1791 116.263H54.8647V77.7459H64.3806C65.6741 77.7459 66.7223 76.6973 66.7223 75.4042C66.7223 74.1111 65.6741 73.0625 64.3806 73.0625H54.8647C52.2822 73.0625 50.1812 75.1635 50.1812 77.7459V116.263C50.1812 118.846 52.2822 120.947 54.8647 120.947H72.9944V144.2C65.314 147.146 58.2429 151.649 52.19 157.546C40.6977 168.743 34.123 183.728 33.6776 199.734C33.6448 200.799 34.0514 201.849 34.7937 202.614C35.537 203.381 36.5757 203.821 37.6436 203.821H59.6465C61.8824 203.821 63.7183 202.081 63.8256 199.866C64.233 191.898 67.6487 184.67 72.9944 179.351V192.505C72.9944 196.379 76.1459 199.531 80.0196 199.531H84.2436C84.2024 199.913 84.1799 200.302 84.1799 200.695C84.1799 206.65 89.025 211.495 94.98 211.495C100.935 211.495 105.78 206.65 105.78 200.695C105.78 200.302 105.758 199.913 105.716 199.531H126.108C126.115 199.644 126.127 199.756 126.133 199.869C126.249 202.085 128.085 203.821 130.312 203.821H152.319C153.396 203.821 154.404 203.395 155.158 202.622C155.902 201.859 156.313 200.811 156.285 199.742C156.283 199.671 156.279 199.601 156.277 199.531H196.122C199.996 199.531 203.147 196.379 203.147 192.505V162.441H204.242C206.824 162.441 208.925 160.34 208.925 157.757V138.532C208.924 135.949 206.823 133.848 204.241 133.848ZM154.718 48.604C153.309 48.604 152.725 47.5422 152.58 47.2172C152.435 46.8917 152.034 45.7485 152.975 44.6994L172.022 23.458C172.472 22.9559 173.091 22.6796 173.765 22.6796C174.439 22.6796 175.058 22.9559 175.509 23.458L194.555 44.6994C195.497 45.7485 195.095 46.8917 194.951 47.2167C194.805 47.5422 194.221 48.604 192.812 48.604H184.564C183.27 48.604 182.222 49.6526 182.222 50.9457V96.7575L165.309 96.7561V50.9462C165.309 49.6531 164.261 48.6044 162.968 48.6044H154.718V48.604ZM111.449 75.7681C110.039 75.7681 109.456 74.7063 109.311 74.3813C109.165 74.0558 108.764 72.9126 109.705 71.8635L128.752 50.6221C129.202 50.12 129.821 49.8437 130.495 49.8437C131.169 49.8437 131.789 50.12 132.239 50.6221L151.286 71.8635C152.227 72.9126 151.826 74.0558 151.681 74.3809C151.535 74.7064 150.952 75.7681 149.542 75.7681H141.294C140.001 75.7681 138.953 76.8167 138.953 78.1098V96.7557H122.04V78.1098C122.04 76.8167 120.992 75.7681 119.698 75.7681H111.449ZM87.9014 192.549C87.1343 193.216 86.4622 193.99 85.9077 194.847H80.0196C78.7284 194.847 77.6779 193.796 77.6779 192.505V175.519C80.7395 173.473 84.1865 171.949 87.9014 171.089V192.549ZM94.98 206.811C91.6075 206.811 88.8634 204.068 88.8634 200.694C88.8634 197.322 91.607 194.578 94.98 194.578C98.3521 194.578 101.096 197.322 101.096 200.694C101.096 204.068 98.3521 206.811 94.98 206.811ZM92.5849 190.166V162.432H97.3761V190.167C96.6047 189.991 95.8034 189.895 94.9796 189.895C94.1567 189.895 93.3558 189.991 92.5849 190.166ZM104.049 194.847C103.495 193.992 102.826 193.217 102.06 192.55V171.09C113.825 173.817 122.928 183.162 125.463 194.847H104.049ZM130.781 199.137C129.735 182.929 117.856 169.467 102.06 166.305V162.432C102.06 159.85 99.959 157.749 97.3766 157.749H92.5854C90.0029 157.749 87.9019 159.85 87.9019 162.432V166.305C72.1088 169.462 60.2291 182.92 59.1772 199.137H38.3845C39.6134 168.625 64.3333 144.832 94.9786 144.832C125.628 144.832 150.352 168.627 151.578 199.137H130.781ZM183.506 192.505C183.506 193.796 182.455 194.847 181.164 194.847H155.951C154.434 180.692 148.084 167.593 137.771 157.546C126.255 146.327 111.058 140.148 94.9786 140.148C89.0447 140.148 83.2311 140.993 77.6783 142.619V120.946H88.4316L93.0959 124.265C93.9066 124.842 94.855 125.135 95.8085 125.135C96.5415 125.135 97.2782 124.962 97.9578 124.611C99.5225 123.804 100.494 122.209 100.494 120.449V101.44H181.148C181.154 101.44 183.506 102.496 183.506 103.781V133.848H165.965C163.383 133.848 161.282 135.949 161.282 138.531V157.757C161.282 160.339 163.383 162.44 165.965 162.44H183.506V192.505H183.506ZM198.463 192.505C198.463 193.796 197.412 194.847 196.121 194.847H187.779C188.04 194.113 188.189 193.327 188.189 192.505V162.44H198.463V192.505ZM165.965 157.757V138.531H204.241L204.243 157.757H165.965Z" fill="#1F4FDE"/>
<path d="M75.3375 111.121C74.0439 111.121 72.9957 110.072 72.9957 108.779V104.834C72.9957 103.541 74.0439 102.492 75.3375 102.492H77.8455C78.2562 102.492 78.6407 102.333 78.9283 102.044C79.2266 101.747 79.3859 101.363 79.3859 100.952C79.3859 100.103 78.6946 99.4117 77.8455 99.4117H72.8328C71.1664 99.4117 69.603 98.7621 68.4298 97.5828C67.2594 96.4189 66.6094 94.8551 66.6094 93.1883C66.6094 89.7567 69.4012 86.9644 72.8328 86.9644H72.9957V85.3613C72.9957 84.0682 74.0439 83.0195 75.3375 83.0195C76.6311 83.0195 77.6792 84.0682 77.6792 85.3613V89.3062C77.6792 90.5993 76.6311 91.6479 75.3375 91.6479H72.8328C71.9837 91.6479 71.2928 92.3387 71.2928 93.1883C71.2928 93.599 71.4521 93.9835 71.741 94.2706C72.038 94.569 72.422 94.7282 72.8328 94.7282H77.8455C81.2771 94.7282 84.0693 97.52 84.0693 100.952C84.0693 102.618 83.4198 104.182 82.2405 105.355C81.0761 106.526 79.5119 107.175 77.8455 107.175H77.6792V108.779C77.6792 110.072 76.6311 111.121 75.3375 111.121Z" fill="white"/>
<path d="M25.2582 122.819C24.7754 122.819 24.2925 122.67 23.8822 122.371C23.0612 121.775 22.7179 120.718 23.0317 119.753L23.722 117.628L21.9147 116.315C21.0937 115.719 20.7504 114.662 21.0642 113.697C21.3775 112.732 22.2767 112.079 23.2912 112.079H25.5257L26.2165 109.954C26.5298 108.989 27.429 108.336 28.4435 108.336C29.4579 108.336 30.3571 108.989 30.6704 109.954L31.3613 112.079H33.5957C34.6102 112.079 35.5094 112.732 35.8227 113.697C36.1365 114.662 35.7932 115.719 34.9722 116.315L33.1653 117.628L33.8557 119.754C34.1695 120.719 33.8262 121.776 33.0051 122.372C32.1846 122.968 31.0732 122.968 30.2527 122.372L28.4449 121.059L26.638 122.372C26.224 122.67 25.7411 122.819 25.2582 122.819Z" fill="#9BACF2"/>
<path d="M174.098 223.278C173.615 223.278 173.132 223.129 172.722 222.83L170.915 221.517L169.107 222.83C168.286 223.427 167.175 223.427 166.354 222.83C165.533 222.234 165.19 221.177 165.504 220.212L166.194 218.087L164.387 216.774C163.566 216.178 163.223 215.121 163.537 214.156C163.85 213.191 164.749 212.538 165.764 212.538H167.998L168.689 210.413C169.002 209.448 169.902 208.795 170.916 208.795C171.931 208.795 172.83 209.448 173.143 210.413L173.834 212.538H176.068C177.083 212.538 177.982 213.191 178.295 214.156C178.609 215.121 178.266 216.178 177.445 216.774L175.638 218.087L176.328 220.212C176.642 221.177 176.298 222.234 175.477 222.83C175.064 223.129 174.581 223.278 174.098 223.278Z" fill="#9BACF2"/>
<path d="M43.8924 145.949C40.0187 145.949 36.8672 142.797 36.8672 138.924C36.8672 135.05 40.0187 131.898 43.8924 131.898C47.7661 131.898 50.9176 135.05 50.9176 138.924C50.9176 142.797 47.7661 145.949 43.8924 145.949ZM43.8924 136.582C42.6012 136.582 41.5507 137.632 41.5507 138.924C41.5507 140.215 42.6012 141.265 43.8924 141.265C45.1836 141.265 46.2341 140.215 46.2341 138.924C46.2341 137.632 45.1832 136.582 43.8924 136.582Z" fill="#9BACF2"/>
<path d="M105.357 42.5914C101.484 42.5914 98.332 39.4399 98.332 35.5662C98.332 31.6925 101.484 28.541 105.357 28.541C109.231 28.541 112.382 31.6925 112.382 35.5662C112.382 39.4399 109.231 42.5914 105.357 42.5914ZM105.357 33.2245C104.066 33.2245 103.016 34.275 103.016 35.5662C103.016 36.8575 104.066 37.908 105.357 37.908C106.648 37.908 107.699 36.8575 107.699 35.5662C107.699 34.275 106.648 33.2245 105.357 33.2245Z" fill="#9BACF2"/>
<path d="M223.403 133.227C222.92 133.227 222.437 133.078 222.027 132.78L220.219 131.466L218.412 132.78C217.592 133.376 216.48 133.376 215.66 132.78C214.839 132.183 214.495 131.126 214.809 130.161L215.499 128.037L213.692 126.723C212.871 126.127 212.528 125.07 212.842 124.105C213.155 123.141 214.054 122.487 215.069 122.487H217.303L217.994 120.362C218.307 119.397 219.206 118.744 220.221 118.744C221.235 118.744 222.134 119.397 222.448 120.362L223.139 122.487H225.373C226.388 122.487 227.287 123.141 227.6 124.105C227.914 125.07 227.571 126.127 226.75 126.723L224.943 128.037L225.633 130.161C225.947 131.126 225.604 132.183 224.783 132.78C224.369 133.078 223.886 133.227 223.403 133.227Z" fill="#9BACF2"/>
</g>
<defs>
<linearGradient id="paint0_linear_1260_6152" x1="49.9536" y1="206.323" x2="202.841" y2="53.436" gradientUnits="userSpaceOnUse">
<stop stop-color="#D0DCFF" stop-opacity="0"/>
<stop offset="1" stop-color="#B5C3FF"/>
</linearGradient>
<clipPath id="clip0_1260_6152">
<rect width="239.794" height="229.49" fill="white"/>
</clipPath>
</defs>
</svg>
