<svg width="235" height="230" viewBox="0 0 235 230" fill="none" xmlns="http://www.w3.org/2000/svg">
<g clip-path="url(#clip0_1260_6785)">
<path d="M232.536 159.255C221.978 111.754 208.685 85.4509 231.94 35.3317C243.533 10.3466 219.943 -7.13775 198.291 3.68821C184.97 10.3485 183.759 26.6785 181.561 37.7326C179.61 47.5369 166.639 48.6692 157.33 45.0262C105.186 24.6186 125.557 88.3535 83.4288 110.089C54.2959 125.12 22.299 141.318 5.66652 171.501C-4.33786 189.656 -2.80441 235.693 24.2612 228.269C63.4608 217.516 97.726 170.426 142.495 186.936C163.637 194.732 172.314 225.13 196.022 227.565C230.705 231.129 238.653 186.775 232.536 159.255Z" fill="url(#paint0_linear_1260_6785)"/>
<path opacity="0.1" d="M197.278 150.252H184.828V41.0797C184.828 36.0796 180.775 32.0258 175.775 32.0258H175.767C175.77 32.0258 175.772 32.0254 175.775 32.0254H56.1594C51.1593 32.0254 47.106 36.0786 47.106 41.0792V59.8258C47.106 62.951 49.6396 65.4841 52.7643 65.4841H63.6977V156.307H36.6445C34.1095 156.307 32.0547 158.362 32.0547 160.897V169.109C32.0547 171.644 34.1095 173.699 36.6445 173.699H54.9073C52.3728 173.7 50.318 175.755 50.318 178.289V186.502C50.318 189.036 52.3728 191.091 54.9073 191.091H36.6445C34.1095 191.091 32.0547 193.146 32.0547 195.681V203.894C32.0547 206.429 34.1095 208.483 36.6445 208.483H193.882C193.875 208.483 193.869 208.483 193.862 208.483H193.883C198.885 208.483 202.936 204.431 202.936 199.429V155.911C202.937 152.787 200.402 150.252 197.278 150.252Z" fill="#1F4FDE"/>
<path d="M202.94 144.894V188.412C202.94 193.414 198.889 197.466 193.886 197.466H72.0078V144.895C72.0078 141.771 74.5428 139.236 77.6661 139.236H197.281C200.405 139.236 202.94 141.771 202.94 144.894Z" fill="white"/>
<path d="M184.833 188.414V30.0636C184.833 25.0635 180.78 21.0098 175.78 21.0098H63.7031V188.414C63.7031 193.414 67.7564 197.467 72.757 197.467H193.888C188.887 197.467 184.833 193.414 184.833 188.414Z" fill="#9BACF2"/>
<path d="M86.7308 80.9199H82.1465C80.8788 80.9199 79.8516 79.8922 79.8516 78.625C79.8516 77.3577 80.8788 76.3301 82.1465 76.3301H86.7308C87.9985 76.3301 89.0257 77.3577 89.0257 78.625C89.0257 79.8922 87.998 80.9199 86.7308 80.9199Z" fill="white"/>
<path d="M126.633 90.2402H82.1465C80.8788 90.2402 79.8516 89.2125 79.8516 87.9453C79.8516 86.678 80.8788 85.6504 82.1465 85.6504H126.633C127.901 85.6504 128.928 86.678 128.928 87.9453C128.928 89.2125 127.901 90.2402 126.633 90.2402Z" fill="white"/>
<path d="M126.633 98.8164H82.1465C80.8788 98.8164 79.8516 97.7887 79.8516 96.5215C79.8516 95.2542 80.8788 94.2266 82.1465 94.2266H126.633C127.901 94.2266 128.928 95.2542 128.928 96.5215C128.928 97.7887 127.901 98.8164 126.633 98.8164Z" fill="white"/>
<path d="M168.687 112.738V150.342C168.687 151.614 167.664 152.637 166.392 152.637H82.1465C80.8797 152.637 79.8516 151.614 79.8516 150.342V112.738C79.8516 111.471 80.8797 110.443 82.1465 110.443H166.392C167.664 110.443 168.687 111.471 168.687 112.738Z" fill="white"/>
<path d="M175.778 21.0102C170.776 21.0102 166.725 25.0616 166.725 30.0641V48.8106C166.725 51.9358 164.191 54.469 161.066 54.469H52.7677C49.6425 54.469 47.1094 51.9354 47.1094 48.8106V30.0636C47.1094 25.0635 51.1626 21.0098 56.1632 21.0098H175.778V21.0102Z" fill="white"/>
<path d="M107.364 162.683H36.6445C34.1095 162.683 32.0547 160.628 32.0547 158.093V149.881C32.0547 147.346 34.1095 145.291 36.6445 145.291H107.364C109.899 145.291 111.953 147.346 111.953 149.881V158.093C111.953 160.628 109.899 162.683 107.364 162.683Z" fill="white"/>
<path d="M32.0547 156.381V158.094C32.0547 160.629 34.1095 162.684 36.6445 162.684H107.364C109.899 162.684 111.953 160.629 111.953 158.094V156.381H32.0547Z" fill="#9BACF2"/>
<path d="M45.8796 152.638C42.8655 152.638 40.4219 150.194 40.4219 147.18V145.291H51.3378V147.18C51.3378 150.194 48.8942 152.638 45.8796 152.638Z" fill="#9BACF2"/>
<path d="M63.2976 152.638C60.2834 152.638 57.8398 150.194 57.8398 147.18V145.291H68.7558V147.18C68.7553 150.194 66.3117 152.638 63.2976 152.638Z" fill="#9BACF2"/>
<path d="M80.7116 152.638C77.6975 152.638 75.2539 150.194 75.2539 147.18V145.291H86.1698V147.18C86.1694 150.194 83.7258 152.638 80.7116 152.638Z" fill="#9BACF2"/>
<path d="M98.1296 152.638C95.1155 152.638 92.6719 150.194 92.6719 147.18V145.291H103.588V147.18C103.587 150.194 101.144 152.638 98.1296 152.638Z" fill="#9BACF2"/>
<path d="M125.63 180.076H54.9101C52.3752 180.076 50.3203 178.021 50.3203 175.486V167.273C50.3203 164.738 52.3752 162.684 54.9101 162.684H125.629C128.164 162.684 130.219 164.738 130.219 167.273V175.486C130.22 178.02 128.164 180.076 125.63 180.076Z" fill="white"/>
<path d="M50.3203 173.773V175.486C50.3203 178.021 52.3752 180.076 54.9101 180.076H125.629C128.164 180.076 130.219 178.021 130.219 175.486V173.773H50.3203Z" fill="#9BACF2"/>
<path d="M64.1452 170.03C61.1311 170.03 58.6875 167.587 58.6875 164.573V162.684H69.6034V164.573C69.603 167.587 67.1594 170.03 64.1452 170.03Z" fill="#9BACF2"/>
<path d="M81.5632 170.03C78.5491 170.03 76.1055 167.587 76.1055 164.573V162.684H87.0214V164.573C87.0209 167.587 84.5773 170.03 81.5632 170.03Z" fill="#9BACF2"/>
<path d="M98.9773 170.03C95.9631 170.03 93.5195 167.587 93.5195 164.573V162.684H104.435V164.573C104.435 167.587 101.992 170.03 98.9773 170.03Z" fill="#9BACF2"/>
<path d="M116.395 170.03C113.381 170.03 110.938 167.587 110.938 164.573V162.684H121.853V164.573C121.853 167.587 119.41 170.03 116.395 170.03Z" fill="#9BACF2"/>
<path d="M107.364 197.468H36.6445C34.1095 197.468 32.0547 195.413 32.0547 192.879V184.666C32.0547 182.131 34.1095 180.076 36.6445 180.076H107.364C109.899 180.076 111.953 182.131 111.953 184.666V192.879C111.953 195.413 109.899 197.468 107.364 197.468Z" fill="white"/>
<path d="M32.0547 191.164V192.877C32.0547 195.412 34.1095 197.467 36.6445 197.467H107.364C109.899 197.467 111.953 195.412 111.953 192.877V191.164H32.0547Z" fill="#9BACF2"/>
<path d="M45.8796 187.423C42.8655 187.423 40.4219 184.979 40.4219 181.965V180.076H51.3378V181.965C51.3378 184.979 48.8942 187.423 45.8796 187.423Z" fill="#9BACF2"/>
<path d="M63.2976 187.423C60.2834 187.423 57.8398 184.979 57.8398 181.965V180.076H68.7558V181.965C68.7553 184.979 66.3117 187.423 63.2976 187.423Z" fill="#9BACF2"/>
<path d="M80.7116 187.423C77.6975 187.423 75.2539 184.979 75.2539 181.965V180.076H86.1698V181.965C86.1694 184.979 83.7258 187.423 80.7116 187.423Z" fill="#9BACF2"/>
<path d="M98.1296 187.423C95.1155 187.423 92.6719 184.979 92.6719 181.965V180.076H103.588V181.965C103.587 184.979 101.144 187.423 98.1296 187.423Z" fill="#9BACF2"/>
<path d="M175.777 18.7148H56.1613C49.9036 18.7148 44.8126 23.8059 44.8126 30.0636V48.8102C44.8126 53.1957 48.3802 56.7634 52.7663 56.7634H61.4047V131.324C61.4047 132.591 62.4319 133.619 63.6996 133.619C64.9673 133.619 65.9945 132.591 65.9945 131.324V56.7634H128.251C129.519 56.7634 130.546 55.7357 130.546 54.4685C130.546 53.2012 129.519 52.1736 128.251 52.1736H52.7667C50.912 52.1736 49.4028 50.6644 49.4028 48.8102V30.0636C49.4028 26.3367 52.4344 23.3046 56.1618 23.3046H166.666C165.261 25.1938 164.429 27.5332 164.429 30.0636V48.8102C164.429 50.6649 162.92 52.1736 161.065 52.1736H141.875C140.607 52.1736 139.58 53.2012 139.58 54.4685C139.58 55.7357 140.607 56.7634 141.875 56.7634H161.065C165.451 56.7634 169.019 53.1957 169.019 48.8102V30.0636C169.019 26.338 172.049 23.3065 175.774 23.3051C175.775 23.3051 175.776 23.3056 175.777 23.3056C179.504 23.3056 182.536 26.3371 182.536 30.064V188.414C182.536 190.944 183.368 193.283 184.773 195.173H113.849C114.104 194.454 114.25 193.684 114.25 192.878V184.665C114.25 183.86 114.104 183.09 113.849 182.371H125.629C129.426 182.371 132.514 179.282 132.514 175.486V167.273C132.514 163.477 129.426 160.389 125.629 160.389H113.849C114.104 159.669 114.25 158.899 114.25 158.094V149.881C114.25 146.085 111.162 142.997 107.366 142.997H36.6464C32.8502 142.997 29.7617 146.085 29.7617 149.881V158.094C29.7617 161.89 32.8502 164.978 36.6464 164.978H48.4271C48.1719 165.698 48.0254 166.468 48.0254 167.273V175.486C48.0254 176.291 48.1719 177.062 48.4271 177.781H36.6464C32.8502 177.781 29.7617 180.869 29.7617 184.665V192.878C29.7617 196.674 32.8502 199.763 36.6464 199.763H193.899C200.15 199.755 205.234 194.666 205.234 188.413V144.895C205.234 140.509 201.666 136.941 197.28 136.941H187.126V30.0636C187.125 23.8081 182.032 18.7181 175.777 18.7148ZM34.3515 158.094V149.881C34.3515 148.616 35.381 147.586 36.6464 147.586H107.366C108.631 147.586 109.66 148.616 109.66 149.881V158.094C109.66 159.359 108.631 160.389 107.366 160.389H36.6464C35.381 160.389 34.3515 159.359 34.3515 158.094ZM52.6152 175.485V167.273C52.6152 166.007 53.6447 164.978 54.9102 164.978H125.629C126.895 164.978 127.924 166.007 127.924 167.273V175.485C127.924 176.751 126.895 177.78 125.629 177.78H54.9102C53.6447 177.78 52.6152 176.751 52.6152 175.485ZM34.3515 192.878V184.665C34.3515 183.4 35.381 182.37 36.6464 182.37H107.366C108.631 182.37 109.66 183.4 109.66 184.665V192.878C109.66 194.143 108.631 195.172 107.366 195.172H36.6464C35.381 195.172 34.3515 194.143 34.3515 192.878ZM200.644 188.413C200.644 192.14 197.612 195.171 193.885 195.171C193.882 195.171 193.88 195.172 193.877 195.172C190.153 195.168 187.125 192.138 187.125 188.414V141.531H197.279C199.134 141.531 200.643 143.04 200.643 144.895V188.413H200.644Z" fill="#1F4FDE"/>
<path d="M157.598 134.82H125.045C123.777 134.82 122.75 133.793 122.75 132.525C122.75 131.258 123.777 130.23 125.045 130.23H157.598C158.866 130.23 159.893 131.258 159.893 132.525C159.893 133.793 158.866 134.82 157.598 134.82Z" fill="#9BACF2"/>
<path d="M157.598 143.394H125.045C123.777 143.394 122.75 142.367 122.75 141.1C122.75 139.832 123.777 138.805 125.045 138.805H157.598C158.866 138.805 159.893 139.832 159.893 141.1C159.893 142.367 158.866 143.394 157.598 143.394Z" fill="#9BACF2"/>
<path d="M154.946 163.668H150.361C149.094 163.668 148.066 162.64 148.066 161.373C148.066 160.106 149.094 159.078 150.361 159.078H154.946C156.213 159.078 157.241 160.106 157.241 161.373C157.241 162.64 156.213 163.668 154.946 163.668Z" fill="white"/>
<path d="M166.391 172.244H150.361C149.094 172.244 148.066 171.216 148.066 169.949C148.066 168.682 149.094 167.654 150.361 167.654H166.391C167.659 167.654 168.686 168.682 168.686 169.949C168.686 171.216 167.659 172.244 166.391 172.244Z" fill="white"/>
<path d="M148.637 123.723C155.972 123.723 161.918 117.777 161.918 110.442C161.918 103.106 155.972 97.1602 148.637 97.1602C141.302 97.1602 135.355 103.106 135.355 110.442C135.355 117.777 141.302 123.723 148.637 123.723Z" fill="#1F4FDE"/>
<path d="M145.248 106.377C143.98 106.377 142.953 105.349 142.953 104.082V104.029C142.953 102.762 143.98 101.734 145.248 101.734C146.516 101.734 147.543 102.762 147.543 104.029V104.082C147.543 105.349 146.516 106.377 145.248 106.377Z" fill="white"/>
<path d="M143.732 117.642C143.145 117.642 142.557 117.418 142.11 116.97C141.213 116.074 141.213 114.621 142.11 113.725L151.92 103.914C152.816 103.018 154.27 103.018 155.165 103.914C156.062 104.811 156.062 106.264 155.165 107.16L145.355 116.97C144.907 117.418 144.32 117.642 143.732 117.642Z" fill="white"/>
<path d="M152.025 119.15C150.758 119.15 149.73 118.123 149.73 116.855V116.803C149.73 115.535 150.758 114.508 152.025 114.508C153.293 114.508 154.32 115.535 154.32 116.803V116.855C154.32 118.123 153.293 119.15 152.025 119.15Z" fill="white"/>
<path d="M89.4511 121.521C88.1834 121.521 87.1562 120.493 87.1562 119.226V119.146C87.1562 117.879 88.1834 116.852 89.4511 116.852C90.7189 116.852 91.746 117.879 91.746 119.146V119.226C91.746 120.494 90.7184 121.521 89.4511 121.521Z" fill="#9BACF2"/>
<path d="M96.959 121.521C95.6913 121.521 94.6641 120.493 94.6641 119.226V119.146C94.6641 117.879 95.6913 116.852 96.959 116.852C98.2267 116.852 99.2539 117.879 99.2539 119.146V119.226C99.2539 120.494 98.2267 121.521 96.959 121.521Z" fill="#9BACF2"/>
<path d="M104.471 121.521C103.203 121.521 102.176 120.493 102.176 119.226V119.146C102.176 117.879 103.203 116.852 104.471 116.852C105.738 116.852 106.766 117.879 106.766 119.146V119.226C106.766 120.494 105.738 121.521 104.471 121.521Z" fill="#9BACF2"/>
<path d="M81.5633 224.638C80.9763 224.638 80.3883 224.414 79.9408 223.966L75.1215 219.147C74.2251 218.25 74.2251 216.797 75.1215 215.901L79.9408 211.082C80.8363 210.186 82.2903 210.186 83.1858 211.082L88.0051 215.901C88.9015 216.798 88.9015 218.251 88.0051 219.147L83.1858 223.966C82.7383 224.414 82.1503 224.638 81.5633 224.638ZM79.9894 217.524L81.5633 219.098L83.1371 217.524L81.5633 215.95L79.9894 217.524Z" fill="#9BACF2"/>
<path d="M30.45 51.7123C29.863 51.7123 29.275 51.4883 28.8275 51.0403L24.0082 46.2211C23.1118 45.3247 23.1118 43.8715 24.0082 42.9756L28.8275 38.1563C29.723 37.2604 31.177 37.2604 32.0725 38.1563L36.8918 42.9756C37.7882 43.872 37.7882 45.3251 36.8918 46.2211L32.0725 51.0403C31.6245 51.4879 31.037 51.7123 30.45 51.7123ZM28.8762 44.5981L30.45 46.172L32.0239 44.5981L30.45 43.0243L28.8762 44.5981Z" fill="#9BACF2"/>
<path d="M202.098 125.32C201.511 125.32 200.923 125.096 200.476 124.648L195.657 119.828C194.76 118.932 194.76 117.479 195.657 116.583L200.476 111.764C201.371 110.868 202.825 110.868 203.721 111.764L208.54 116.583C209.437 117.479 209.437 118.933 208.54 119.828L203.721 124.648C203.273 125.096 202.686 125.32 202.098 125.32ZM200.525 118.206L202.099 119.779L203.673 118.206L202.099 116.632L200.525 118.206Z" fill="#9BACF2"/>
<path d="M32.6893 73.7748C32.1023 73.7748 31.5143 73.5509 31.0668 73.1029C30.1704 72.2065 30.1704 70.7534 31.0668 69.8574L35.6566 65.2676C36.5521 64.3717 38.0061 64.3717 38.9016 65.2676C39.798 66.164 39.798 67.6172 38.9016 68.5131L34.3118 73.1029C33.8638 73.5509 33.2764 73.7748 32.6893 73.7748Z" fill="#9BACF2"/>
<path d="M104.58 217.068C103.993 217.068 103.405 216.844 102.957 216.396C102.061 215.499 102.061 214.046 102.957 213.15L107.547 208.561C108.443 207.665 109.897 207.665 110.792 208.561C111.689 209.457 111.689 210.91 110.792 211.806L106.202 216.396C105.754 216.843 105.167 217.068 104.58 217.068Z" fill="#9BACF2"/>
</g>
<defs>
<linearGradient id="paint0_linear_1260_6785" x1="44.7032" y1="261.269" x2="263.782" y2="42.1911" gradientUnits="userSpaceOnUse">
<stop stop-color="#D1DDFF" stop-opacity="0"/>
<stop offset="1" stop-color="#B6C4FF"/>
</linearGradient>
<clipPath id="clip0_1260_6785">
<rect width="234.998" height="229.49" fill="white"/>
</clipPath>
</defs>
</svg>
