<svg width="239" height="230" viewBox="0 0 239 230" fill="none" xmlns="http://www.w3.org/2000/svg">
<g clip-path="url(#clip0_1260_6234)">
<path d="M236.94 100.515C231.408 77.4662 200.577 69.3459 182.048 70.3058C157.322 71.5867 146.12 63.7891 151.538 38.5802C154.634 24.1755 157.751 14.3756 135.439 6.77814C116.17 0.217614 54.016 -6.90357 41.0722 15.2833C34.7556 26.1108 58.0055 35.9868 47.0333 50.6163C39.2932 60.9368 16.3563 53.3058 3.96197 69.2353C-4.83375 80.5396 0.708526 99.0597 23.6729 108.885C43.2388 117.256 72.0207 122.082 77.291 146.218C79.933 158.315 66.4504 175.267 73.2124 193.074C78.438 206.835 94.1739 212.908 114.954 192.699C155.955 152.822 147.284 209.757 153.505 221.41C160.632 234.76 185.292 229.297 196.374 218.127C226.675 187.586 244.932 133.812 236.94 100.515Z" fill="url(#paint0_linear_1260_6234)"/>
<path opacity="0.1" d="M197.569 111.153H197.034H154.206V37.4886C154.206 34.9125 152.118 32.8242 149.542 32.8242H24.9222C22.3461 32.8242 20.2578 34.9125 20.2578 37.4886V198.533C20.2578 213.989 32.7879 226.519 48.2444 226.519H190.572C206.029 226.519 218.559 213.989 218.559 198.533V132.143C218.559 120.551 209.161 111.153 197.569 111.153Z" fill="#1F4FDE"/>
<path d="M197.569 99.957H101.289V146.388V168.892V215.323H190.573C206.029 215.323 218.559 202.793 218.559 187.336V120.947C218.559 109.355 209.162 99.957 197.569 99.957Z" fill="white"/>
<path d="M171.379 154.052C173.955 154.052 176.043 151.964 176.043 149.387V120.947C176.043 109.356 185.442 99.957 197.033 99.957H53.1306C41.5381 99.957 32.1406 109.354 32.1406 120.947V149.387C32.1406 151.964 34.2289 154.052 36.8051 154.052H171.379Z" fill="#9BACF2"/>
<path d="M182.193 215.324H48.2444C32.7879 215.324 20.2578 202.794 20.2578 187.337V26.2933C20.2578 23.7172 22.3461 21.6289 24.9222 21.6289H149.542C152.118 21.6289 154.206 23.7172 154.206 26.2933V187.337C154.206 202.795 166.735 215.324 182.193 215.324Z" fill="#9BACF2"/>
<path d="M139.883 144.524H34.9533C33.6655 144.524 32.6211 143.479 32.6211 142.191V67.7424C32.6211 66.4545 33.6655 65.4102 34.9533 65.4102H139.883C141.171 65.4102 142.216 66.4545 142.216 67.7424V142.191C142.216 143.479 141.172 144.524 139.883 144.524Z" fill="white"/>
<path d="M58.1485 144.524H44.6758V119.154C44.6758 117.845 45.7369 116.783 47.0458 116.783H55.7781C57.0869 116.783 58.1485 117.844 58.1485 119.154V144.524Z" fill="#9BACF2"/>
<path d="M76.7149 144.524H63.2422V133.374C63.2422 132.066 64.3033 131.004 65.6122 131.004H74.3445C75.6533 131.004 76.7145 132.065 76.7145 133.374V144.524H76.7149Z" fill="#9BACF2"/>
<path d="M95.2774 144.523H81.8047V110.52C81.8047 109.212 82.8658 108.15 84.1747 108.15H92.907C94.2158 108.15 95.2774 109.212 95.2774 110.52V144.523Z" fill="#9BACF2"/>
<path d="M132.41 144.523H118.938V101.249C118.938 99.9401 119.999 98.8789 121.307 98.8789H130.04C131.349 98.8789 132.41 99.9401 132.41 101.249V144.523Z" fill="#9BACF2"/>
<path d="M113.844 144.524H100.371V91.1962C100.371 89.8873 101.432 88.8262 102.742 88.8262H111.474C112.783 88.8262 113.844 89.8873 113.844 91.1962V144.524Z" fill="#9BACF2"/>
<path d="M101.792 173.577H34.9533C33.6655 173.577 32.6211 172.532 32.6211 171.245V158.328C32.6211 157.04 33.6655 155.996 34.9533 155.996H101.792C103.08 155.996 104.124 157.04 104.124 158.328V171.245C104.124 172.532 103.08 173.577 101.792 173.577Z" fill="white"/>
<path d="M118.624 79.8348C126.591 79.8348 133.05 73.3764 133.05 65.4096C133.05 57.4428 126.591 50.9844 118.624 50.9844C110.658 50.9844 104.199 57.4428 104.199 65.4096C104.199 73.3764 110.658 79.8348 118.624 79.8348Z" fill="white"/>
<path d="M125.867 63.8086L119.539 57.3726C119.037 56.8628 118.216 56.8628 117.714 57.3726L111.385 63.8086C110.59 64.6179 111.163 65.9855 112.298 65.9855H115.374V72.5497C115.374 73.2564 115.947 73.8296 116.654 73.8296H120.599C121.305 73.8296 121.879 73.2569 121.879 72.5497V65.9855H124.955C126.09 65.9855 126.663 64.6179 125.867 63.8086Z" fill="#9BACF2"/>
<path d="M45.2004 80.0838L50.113 74.0219C51.0464 72.8703 52.8035 72.8703 53.7368 74.0219L58.6494 80.0838C59.885 81.6086 58.8 83.8844 56.8377 83.8844H47.0126C45.0502 83.8844 43.9648 81.6082 45.2004 80.0838Z" fill="#9BACF2"/>
<path d="M73.7697 83.8851C75.0578 83.8851 76.1019 82.841 76.1019 81.5529C76.1019 80.2649 75.0578 79.2207 73.7697 79.2207C72.4817 79.2207 71.4375 80.2649 71.4375 81.5529C71.4375 82.841 72.4817 83.8851 73.7697 83.8851Z" fill="#9BACF2"/>
<path d="M66.1838 83.8851C67.4718 83.8851 68.516 82.841 68.516 81.5529C68.516 80.2649 67.4718 79.2207 66.1838 79.2207C64.8957 79.2207 63.8516 80.2649 63.8516 81.5529C63.8516 82.841 64.8957 83.8851 66.1838 83.8851Z" fill="#9BACF2"/>
<path d="M197.569 97.6262C197.48 97.6159 167.195 97.6262 167.195 97.6262C165.907 97.6262 164.863 98.6701 164.863 99.9584C164.863 101.247 165.907 102.291 167.195 102.291H183.055C177.385 106.549 173.712 113.328 173.712 120.948V149.389C173.712 150.675 172.665 151.721 171.38 151.721H156.539V26.2935C156.539 22.4356 153.4 19.2969 149.543 19.2969H24.9224C21.0645 19.2969 17.9258 22.4356 17.9258 26.2935V187.338C17.9258 204.055 31.5268 217.656 48.2446 217.656H190.572C207.29 217.656 220.891 204.055 220.891 187.338V120.948C220.891 108.089 210.429 97.6262 197.569 97.6262ZM48.2446 212.992C34.0988 212.992 22.5902 201.484 22.5902 187.338V26.2935C22.5902 25.0075 23.6364 23.9613 24.9224 23.9613H149.542C150.828 23.9613 151.874 25.0075 151.874 26.2935V187.338C151.874 198.126 157.539 207.617 166.05 212.992H48.2446ZM216.227 187.338C216.227 201.484 204.718 212.992 190.572 212.992H182.193C168.047 212.992 156.539 201.484 156.539 187.338V156.385H171.379C175.237 156.385 178.376 153.247 178.376 149.389V120.948C178.376 110.66 186.746 102.291 197.033 102.291H197.568C207.856 102.291 216.226 110.66 216.226 120.948V187.338H216.227Z" fill="#1F4FDE"/>
<path d="M139.193 158.328C139.193 157.04 138.148 155.996 136.861 155.996H113.031C111.744 155.996 110.699 157.04 110.699 158.328C110.699 159.616 111.744 160.661 113.031 160.661H136.861C138.149 160.661 139.193 159.616 139.193 158.328Z" fill="#1F4FDE"/>
<path d="M113.035 165.502C111.747 165.502 110.703 166.546 110.703 167.834C110.703 169.122 111.747 170.166 113.035 170.166H129.401C130.689 170.166 131.734 169.122 131.734 167.834C131.734 166.546 130.689 165.502 129.401 165.502H113.035Z" fill="#1F4FDE"/>
<path d="M63.7841 184.096C63.7841 182.808 62.7398 181.764 61.4519 181.764H34.2541C32.9662 181.764 31.9219 182.808 31.9219 184.096C31.9219 185.384 32.9662 186.428 34.2541 186.428H61.4519C62.7398 186.428 63.7841 185.384 63.7841 184.096Z" fill="#1F4FDE"/>
<path d="M80.1079 191.271H37.051C35.7631 191.271 34.7188 192.316 34.7188 193.604C34.7188 194.892 35.7631 195.936 37.051 195.936H80.1079C81.3957 195.936 82.4401 194.892 82.4401 193.604C82.4401 192.316 81.3957 191.271 80.1079 191.271Z" fill="#1F4FDE"/>
<path d="M138.029 181.764H94.0275C92.7397 181.764 91.6953 182.808 91.6953 184.096C91.6953 185.384 92.7397 186.428 94.0275 186.428H138.029C139.317 186.428 140.362 185.384 140.362 184.096C140.362 182.808 139.318 181.764 138.029 181.764Z" fill="#1F4FDE"/>
<path d="M138.029 191.271H94.0275C92.7397 191.271 91.6953 192.316 91.6953 193.604C91.6953 194.892 92.7397 195.936 94.0275 195.936H138.029C139.317 195.936 140.362 194.892 140.362 193.604C140.362 192.316 139.318 191.271 138.029 191.271Z" fill="#1F4FDE"/>
<path d="M118.625 82.1672C127.865 82.1672 135.382 74.65 135.382 65.4098C135.382 56.1695 127.865 48.6523 118.625 48.6523C109.384 48.6523 101.867 56.1695 101.867 65.4098C101.867 74.65 109.384 82.1672 118.625 82.1672ZM118.625 53.3172C125.292 53.3172 130.718 58.742 130.718 65.4102C130.718 72.0785 125.293 77.5033 118.625 77.5033C111.956 77.5033 106.532 72.0785 106.532 65.4102C106.532 58.742 111.956 53.3172 118.625 53.3172Z" fill="#1F4FDE"/>
<path d="M118.36 42.6742H130.563C131.85 42.6742 132.895 41.6298 132.895 40.342C132.895 39.0541 131.85 38.0098 130.563 38.0098H118.36C117.072 38.0098 116.027 39.0541 116.027 40.342C116.027 41.6298 117.072 42.6742 118.36 42.6742Z" fill="#1F4FDE"/>
<path d="M137.996 38.9183C139.284 38.9183 140.328 37.8742 140.328 36.5861C140.328 35.2981 139.284 34.2539 137.996 34.2539C136.708 34.2539 135.664 35.2981 135.664 36.5861C135.664 37.8742 136.708 38.9183 137.996 38.9183Z" fill="#1F4FDE"/>
<path d="M175.012 63.8615C174.415 63.8615 173.818 63.6339 173.362 63.1782L171.047 60.8627L168.731 63.1782C167.82 64.0891 166.344 64.0891 165.433 63.1782C164.522 62.2677 164.522 60.7909 165.433 59.8804L169.398 55.9156C170.309 55.0047 171.785 55.0047 172.696 55.9156L176.661 59.8804C177.572 60.7909 177.572 62.2677 176.661 63.1782C176.205 63.6339 175.609 63.8615 175.012 63.8615Z" fill="#9BACF2"/>
<path d="M222.523 221.621C221.926 221.621 221.33 221.394 220.874 220.938L218.559 218.622L216.243 220.938C215.332 221.849 213.856 221.849 212.945 220.938C212.034 220.027 212.034 218.551 212.945 217.64L216.91 213.675C217.821 212.764 219.297 212.764 220.208 213.675L224.173 217.64C225.084 218.551 225.084 220.027 224.173 220.938C223.717 221.394 223.12 221.621 222.523 221.621Z" fill="#9BACF2"/>
<path d="M210.629 90.4611C210.032 90.4611 209.435 90.2335 208.979 89.7778L206.664 87.4624L204.349 89.7778C203.438 90.6887 201.961 90.6887 201.05 89.7778C200.139 88.8673 200.139 87.3905 201.05 86.48L205.015 82.5153C205.926 81.6043 207.402 81.6043 208.313 82.5153L212.278 86.48C213.189 87.3905 213.189 88.8673 212.278 89.7778C211.822 90.233 211.226 90.4611 210.629 90.4611Z" fill="#9BACF2"/>
<path d="M30.9804 10.5568C30.3833 10.5568 29.7868 10.3292 29.331 9.87348L27.0156 7.55805L24.7002 9.87348C23.7892 10.7844 22.3129 10.7844 21.402 9.87348C20.491 8.96298 20.491 7.48622 21.402 6.57572L25.3667 2.61096C26.2777 1.69999 27.754 1.69999 28.665 2.61096L32.6297 6.57572C33.5407 7.48622 33.5407 8.96298 32.6297 9.87348C32.174 10.3292 31.5774 10.5568 30.9804 10.5568Z" fill="#9BACF2"/>
<path d="M176.451 38.8756C176.057 38.8756 175.658 38.7758 175.292 38.5654L175.245 38.5388C174.128 37.8975 173.743 36.4716 174.384 35.3549C175.026 34.2382 176.452 33.852 177.568 34.4938L177.614 34.5204C178.732 35.1618 179.117 36.5877 178.476 37.7044C178.045 38.4549 177.259 38.8756 176.451 38.8756Z" fill="#9BACF2"/>
<path d="M188.068 45.5808C187.674 45.5808 187.275 45.481 186.909 45.2706L186.863 45.244C185.745 44.6027 185.36 43.1768 186.002 42.0601C186.643 40.9439 188.068 40.5567 189.185 41.199L189.232 41.2256C190.349 41.867 190.734 43.2929 190.093 44.4096C189.661 45.1601 188.876 45.5808 188.068 45.5808Z" fill="#9BACF2"/>
<path d="M176.451 38.8756C176.057 38.8756 175.658 38.7758 175.292 38.5654L175.245 38.5388C174.128 37.8975 173.743 36.4716 174.384 35.3549C175.026 34.2382 176.452 33.852 177.568 34.4938L177.614 34.5204C178.732 35.1618 179.117 36.5877 178.476 37.7044C178.045 38.4549 177.259 38.8756 176.451 38.8756Z" fill="#9BACF2"/>
<path d="M188.068 45.5808C187.674 45.5808 187.275 45.481 186.909 45.2706L186.863 45.244C185.745 44.6027 185.36 43.1768 186.002 42.0601C186.643 40.9439 188.068 40.5567 189.185 41.199L189.232 41.2256C190.349 41.867 190.734 43.2929 190.093 44.4096C189.661 45.1601 188.876 45.5808 188.068 45.5808Z" fill="#9BACF2"/>
<path d="M188.022 38.8752C187.215 38.8752 186.429 38.4549 185.998 37.704C185.356 36.5868 185.742 35.1614 186.859 34.52L186.905 34.4934C188.022 33.8525 189.447 34.2378 190.089 35.3545C190.73 36.4716 190.345 37.8971 189.228 38.5384L189.182 38.565C188.815 38.7749 188.416 38.8752 188.022 38.8752Z" fill="#9BACF2"/>
<path d="M176.409 45.5805C175.601 45.5805 174.815 45.1602 174.384 44.4092C173.743 43.2921 174.128 41.8667 175.245 41.2253L175.292 41.1987C176.408 40.5574 177.834 40.9431 178.476 42.0598C179.117 43.1769 178.732 44.6024 177.614 45.2437L177.568 45.2703C177.202 45.4802 176.803 45.5805 176.409 45.5805Z" fill="#9BACF2"/>
<path d="M188.022 38.8752C187.215 38.8752 186.429 38.4549 185.998 37.704C185.356 36.5868 185.742 35.1614 186.859 34.52L186.905 34.4934C188.022 33.8525 189.447 34.2378 190.089 35.3545C190.73 36.4716 190.345 37.8971 189.228 38.5384L189.182 38.565C188.815 38.7749 188.416 38.8752 188.022 38.8752Z" fill="#9BACF2"/>
<path d="M176.409 45.5805C175.601 45.5805 174.815 45.1602 174.384 44.4092C173.743 43.2921 174.128 41.8667 175.245 41.2253L175.292 41.1987C176.408 40.5574 177.834 40.9431 178.476 42.0598C179.117 43.1769 178.732 44.6024 177.614 45.2437L177.568 45.2703C177.202 45.4802 176.803 45.5805 176.409 45.5805Z" fill="#9BACF2"/>
<path d="M182.238 35.5355C180.951 35.5355 179.906 34.4916 179.906 33.2033V33.1506C179.906 31.8623 180.951 30.8184 182.238 30.8184C183.526 30.8184 184.571 31.8623 184.571 33.1506V33.2033C184.571 34.4911 183.526 35.5355 182.238 35.5355Z" fill="#9BACF2"/>
<path d="M182.238 48.9476C180.951 48.9476 179.906 47.9037 179.906 46.6154V46.5627C179.906 45.2744 180.951 44.2305 182.238 44.2305C183.526 44.2305 184.571 45.2744 184.571 46.5627V46.6154C184.571 47.9032 183.526 48.9476 182.238 48.9476Z" fill="#9BACF2"/>
</g>
<defs>
<linearGradient id="paint0_linear_1260_6234" x1="4.70652e-07" y1="114.746" x2="238.819" y2="114.746" gradientUnits="userSpaceOnUse">
<stop stop-color="#D2DEFF" stop-opacity="0"/>
<stop offset="1" stop-color="#B7C5FF"/>
</linearGradient>
<clipPath id="clip0_1260_6234">
<rect width="238.819" height="229.49" fill="white"/>
</clipPath>
</defs>
</svg>
