<svg width="239" height="230" viewBox="0 0 239 230" fill="none" xmlns="http://www.w3.org/2000/svg">
<path d="M236.94 100.484C231.408 77.3862 200.577 69.2487 182.048 70.2106C157.322 71.4942 146.12 63.6801 151.538 38.4176C154.634 23.9823 157.751 14.1615 135.439 6.54789C116.17 -0.0265828 54.016 -7.16291 41.0722 15.0711C34.7556 25.9217 58.0055 35.8187 47.0333 50.4793C39.2932 60.8217 16.3563 53.1745 3.96197 69.1379C-4.83375 80.4662 0.708526 99.0257 23.6729 108.872C43.2388 117.26 72.0207 122.097 77.291 146.284C79.933 158.407 66.4504 175.395 73.2124 193.239C78.438 207.03 94.1739 213.116 114.954 192.864C155.955 152.902 147.284 209.959 153.505 221.636C160.632 235.015 185.292 229.54 196.374 218.346C226.675 187.74 244.932 133.851 236.94 100.484V100.484Z" fill="url(#paint0_linear_1432_6646)"/>
<g clip-path="url(#clip0_1432_6646)">
<path d="M122.745 50.9408C123.732 51.9278 125.024 52.421 126.317 52.421C127.609 52.421 128.902 51.9275 129.889 50.9408C131.863 48.9672 131.863 45.77 129.889 43.796L99.5733 13.4802C97.5997 11.5066 94.4024 11.5066 92.4284 13.4802L62.113 43.7963C60.1394 45.77 60.1394 48.9672 62.113 50.9412C64.0867 52.9148 67.2839 52.9148 69.2579 50.9412L90.9483 29.2501V77.6843C90.9483 80.477 93.208 82.7371 96.001 82.7371C98.794 82.7371 101.054 80.4773 101.054 77.6843V29.2501L122.745 50.9408Z" fill="#1F4FDE"/>
<path d="M25.263 203.999H166.737C180.666 203.999 192 192.665 192 178.736V97.8942C192 83.9649 180.666 72.6312 166.737 72.6312H116.211C113.418 72.6312 111.158 74.891 111.158 77.684C111.158 80.477 113.418 82.7367 116.211 82.7367H142.076C144.439 103.717 160.92 120.291 181.895 122.654V153.977C160.92 156.34 144.439 172.909 142.076 193.894H49.9489C47.5853 172.909 31.0852 156.345 10.1051 153.981V122.63C31.0658 120.261 47.5313 103.712 49.8945 82.7364H75.7894C78.582 82.7364 80.8421 80.4766 80.8421 77.6836C80.8421 74.8906 78.5824 72.6309 75.7894 72.6309H25.263C11.334 72.6309 0 83.9649 0 97.8939V178.736C0 192.665 11.334 203.999 25.263 203.999ZM152.26 82.7364H166.737C175.095 82.7364 181.895 89.5359 181.895 97.8942V112.559C166.5 110.318 154.505 98.1459 152.26 82.7364ZM181.895 164.082V178.736C181.895 187.095 175.095 193.894 166.737 193.894H152.201C154.441 178.475 166.49 166.322 181.895 164.082ZM39.7845 193.894H25.263C16.9046 193.894 10.1051 187.095 10.1051 178.736V164.082C25.5097 166.317 37.5394 178.48 39.7845 193.894ZM25.263 82.7364H39.8089C37.5686 98.1556 25.5146 110.309 10.1047 112.549V97.8942C10.1051 89.5355 16.9046 82.7364 25.263 82.7364Z" fill="#1F4FDE"/>
<path d="M60.6328 138.316C60.6328 157.816 76.5013 173.684 96.0013 173.684C115.501 173.684 131.37 157.816 131.37 138.316C131.37 118.816 115.501 102.947 96.0013 102.947C76.5013 102.947 60.6328 118.816 60.6328 138.316ZM121.264 138.316C121.264 152.245 109.93 163.579 96.0013 163.579C82.0723 163.579 70.7383 152.245 70.7383 138.316C70.7383 124.387 82.0723 113.053 96.0013 113.053C109.93 113.053 121.264 124.386 121.264 138.316Z" fill="#1F4FDE"/>
<circle cx="95.8125" cy="138.188" r="25.6875" fill="#9BACF2"/>
</g>
<defs>
<linearGradient id="paint0_linear_1432_6646" x1="4.70652e-07" y1="114.745" x2="238.819" y2="114.745" gradientUnits="userSpaceOnUse">
<stop stop-color="#D2DEFF" stop-opacity="0"/>
<stop offset="1" stop-color="#B7C5FF"/>
</linearGradient>
<clipPath id="clip0_1432_6646">
<rect width="192" height="192" fill="white" transform="translate(0 12)"/>
</clipPath>
</defs>
</svg>
