<svg width="224" height="230" viewBox="0 0 224 230" fill="none" xmlns="http://www.w3.org/2000/svg">
<g clip-path="url(#clip0_1260_7152)">
<path d="M221.116 23.1229C216.506 4.48 198.142 -3.78746 180.154 1.64006C140.774 13.522 127.294 57.0462 102.188 85.1914C65.4158 126.415 59.1541 28.8812 26.2497 28.4747C-35.6355 27.71 28.2877 183.649 60.5203 215.88C93.4521 248.809 104.818 211.633 155.145 211.633C191.304 211.633 192.303 161.1 197.01 128.894C202.177 93.5459 230.324 60.3572 221.116 23.1229Z" fill="url(#paint0_linear_1260_7152)"/>
<g opacity="0.1">
<path d="M196.445 158.472H134.386V142.784C134.386 141.546 133.383 140.543 132.145 140.543C133.383 140.543 134.386 139.539 134.386 138.302V108.165H159.314C158.561 110.265 158.148 112.526 158.148 114.884C158.148 125.873 171.968 141.104 176.578 145.88C177.387 146.717 178.725 146.717 179.533 145.88C184.144 141.104 197.963 125.873 197.963 114.884C197.963 103.89 189.05 94.9775 178.056 94.9775C176.704 94.9775 175.385 95.1137 174.109 95.3701V64.579C174.109 63.3415 173.105 62.3379 171.868 62.3379H123.716C122.479 62.3379 121.475 63.3415 121.475 64.579V87.2564H68.9983C67.7607 87.2564 66.7571 88.26 66.7571 89.4975V138.301C66.7571 139.539 67.7603 140.542 68.9983 140.542C67.7607 140.542 66.7571 141.546 66.7571 142.784V155.173H26.7802C25.5426 155.173 24.5391 156.177 24.5391 157.414V195.173C24.5391 196.411 25.5426 197.414 26.7802 197.414H38.5245V205.93C38.5245 207.168 39.5281 208.172 40.7656 208.172H196.445C197.683 208.172 198.686 207.168 198.686 205.93V160.713C198.686 159.475 197.683 158.472 196.445 158.472Z" fill="#1F4FDE"/>
<path d="M102.048 76.2266C106.658 71.4508 120.478 56.2198 120.478 45.2311C120.478 34.2367 111.565 25.3242 100.571 25.3242C89.5765 25.3242 80.6641 34.2367 80.6641 45.2311C80.6641 56.2198 94.4832 71.4508 99.0941 76.2266C99.9018 77.0639 101.24 77.0639 102.048 76.2266Z" fill="#1F4FDE"/>
</g>
<path d="M103.911 197.415H40.7646C39.527 197.415 38.5234 196.412 38.5234 195.174V149.956C38.5234 148.718 39.527 147.715 40.7646 147.715H103.911C105.149 147.715 106.153 148.718 106.153 149.956V195.174C106.153 196.412 105.149 197.415 103.911 197.415Z" fill="white"/>
<path d="M103.911 147.714H40.7646C39.527 147.714 38.5234 146.711 38.5234 145.473V105.634C38.5234 104.396 39.527 103.393 40.7646 103.393H103.911C105.149 103.393 106.153 104.396 106.153 105.634V145.473C106.153 146.711 105.149 147.714 103.911 147.714Z" fill="white"/>
<path d="M51.3674 136.424H48.8739C47.6359 136.424 46.6328 135.421 46.6328 134.183C46.6328 132.945 47.6359 131.941 48.8739 131.941H51.3674C52.6054 131.941 53.6085 132.945 53.6085 134.183C53.6085 135.421 52.6054 136.424 51.3674 136.424Z" fill="#9BACF2"/>
<path d="M51.3674 129.084H48.8739C47.6359 129.084 46.6328 128.081 46.6328 126.843C46.6328 125.605 47.6359 124.602 48.8739 124.602H51.3674C52.6054 124.602 53.6085 125.605 53.6085 126.843C53.6085 128.081 52.6054 129.084 51.3674 129.084Z" fill="#9BACF2"/>
<path d="M132.146 197.414H68.9989C67.7614 197.414 66.7578 196.411 66.7578 195.173V132.026C66.7578 130.789 67.7614 129.785 68.9989 129.785H132.146C133.383 129.785 134.387 130.789 134.387 132.026V195.173C134.387 196.411 133.383 197.414 132.146 197.414Z" fill="#9BACF2"/>
<path d="M100.573 199.656C99.3352 199.656 98.332 198.653 98.332 197.415V129.786C98.332 128.548 99.3352 127.545 100.573 127.545C101.811 127.545 102.814 128.548 102.814 129.786V197.415C102.814 198.653 101.811 199.656 100.573 199.656Z" fill="white"/>
<path d="M106.447 155.004H94.6981C93.4606 155.004 92.457 154 92.457 152.763V129.785H108.688V152.763C108.688 154.001 107.684 155.004 106.447 155.004Z" fill="white"/>
<path d="M127.074 190.709H112.727C111.985 190.709 111.383 190.107 111.383 189.365V184.813C111.383 184.071 111.985 183.469 112.727 183.469H127.074C127.816 183.469 128.418 184.071 128.418 184.813V189.365C128.418 190.107 127.816 190.709 127.074 190.709Z" fill="white"/>
<path d="M196.446 197.415H124.335C123.097 197.415 122.094 196.412 122.094 195.174V149.956C122.094 148.718 123.097 147.715 124.335 147.715H196.446C197.684 147.715 198.687 148.718 198.687 149.956V195.174C198.687 196.412 197.684 197.415 196.446 197.415Z" fill="white"/>
<path d="M160.39 199.657C159.152 199.657 158.148 198.654 158.148 197.416V147.716C158.148 146.478 159.152 145.475 160.39 145.475C161.628 145.475 162.631 146.478 162.631 147.716V197.416C162.631 198.654 161.628 199.657 160.39 199.657Z" fill="#9BACF2"/>
<path d="M166.263 172.934H154.515C153.277 172.934 152.273 171.93 152.273 170.693V147.715H168.504V170.693C168.504 171.931 167.501 172.934 166.263 172.934Z" fill="#9BACF2"/>
<path d="M191.372 190.709H172.544C171.801 190.709 171.199 190.107 171.199 189.365V184.813C171.199 184.071 171.801 183.469 172.544 183.469H191.372C192.115 183.469 192.717 184.071 192.717 184.813V189.365C192.717 190.107 192.115 190.709 191.372 190.709Z" fill="#9BACF2"/>
<path d="M136.731 190.607H132.444C131.206 190.607 130.203 189.604 130.203 188.366C130.203 187.128 131.206 186.125 132.444 186.125H136.731C137.969 186.125 138.972 187.128 138.972 188.366C138.972 189.604 137.969 190.607 136.731 190.607Z" fill="#9BACF2"/>
<path d="M136.731 183.267H132.444C131.206 183.267 130.203 182.264 130.203 181.026C130.203 179.788 131.206 178.785 132.444 178.785H136.731C137.969 178.785 138.972 179.788 138.972 181.026C138.972 182.264 137.969 183.267 136.731 183.267Z" fill="#9BACF2"/>
<path d="M132.146 129.786H68.9989C67.7614 129.786 66.7578 128.782 66.7578 127.545V78.7411C66.7578 77.5036 67.7614 76.5 68.9989 76.5H132.146C133.383 76.5 134.387 77.5036 134.387 78.7411V127.545C134.387 128.783 133.383 129.786 132.146 129.786Z" fill="#9BACF2"/>
<path d="M100.573 132.028C99.3352 132.028 98.332 131.025 98.332 129.787V76.5009C98.332 75.2629 99.3352 74.2598 100.573 74.2598C101.811 74.2598 102.814 75.2629 102.814 76.5009V129.787C102.814 131.024 101.811 132.028 100.573 132.028Z" fill="white"/>
<path d="M106.447 101.719H94.6981C93.4606 101.719 92.457 100.715 92.457 99.4777V76.5H108.688V99.4777C108.688 100.715 107.684 101.719 106.447 101.719Z" fill="white"/>
<path d="M127.074 123.08H112.727C111.985 123.08 111.383 122.478 111.383 121.736V117.185C111.383 116.442 111.985 115.84 112.727 115.84H127.074C127.816 115.84 128.418 116.442 128.418 117.185V121.736C128.418 122.478 127.816 123.08 127.074 123.08Z" fill="white"/>
<path d="M79.6018 122.978H77.1083C75.8703 122.978 74.8672 121.975 74.8672 120.737C74.8672 119.499 75.8703 118.496 77.1083 118.496H79.6018C80.8397 118.496 81.8429 119.499 81.8429 120.737C81.8429 121.975 80.8397 122.978 79.6018 122.978Z" fill="white"/>
<path d="M79.6018 115.638H77.1083C75.8703 115.638 74.8672 114.635 74.8672 113.397C74.8672 112.159 75.8703 111.156 77.1083 111.156H79.6018C80.8397 111.156 81.8429 112.159 81.8429 113.397C81.8429 114.635 80.8397 115.638 79.6018 115.638Z" fill="white"/>
<path d="M120.478 34.4753C120.478 45.4639 106.659 60.6949 102.048 65.4708C101.24 66.308 99.9022 66.308 99.0941 65.4708C94.4837 60.6949 80.6641 45.4639 80.6641 34.4753C80.6641 23.4808 89.5765 14.5684 100.571 14.5684C111.565 14.5684 120.478 23.4808 120.478 34.4753Z" fill="white"/>
<path d="M100.573 46.0066C107.16 46.0066 112.501 40.6662 112.501 34.0785C112.501 27.4908 107.16 22.1504 100.573 22.1504C93.9849 22.1504 88.6445 27.4908 88.6445 34.0785C88.6445 40.6662 93.9849 46.0066 100.573 46.0066Z" fill="#9BACF2"/>
<path d="M24.5391 184.418V146.66C24.5391 145.422 25.5426 144.419 26.7802 144.419H76.6526L81.6995 140.827C83.1832 139.771 85.2401 140.832 85.2401 142.653V184.418C85.2401 185.656 84.2365 186.659 82.9989 186.659H26.7802C25.5422 186.659 24.5391 185.656 24.5391 184.418Z" fill="white"/>
<path d="M60.0259 158.685H56.1317C54.8937 158.685 53.8906 157.682 53.8906 156.444C53.8906 155.206 54.8937 154.203 56.1317 154.203H60.0259C61.2639 154.203 62.267 155.206 62.267 156.444C62.267 157.682 61.2639 158.685 60.0259 158.685Z" fill="#9BACF2"/>
<path d="M72.2678 167.82H56.1317C54.8937 167.82 53.8906 166.817 53.8906 165.579C53.8906 164.341 54.8937 163.338 56.1317 163.338H72.2678C73.5057 163.338 74.5089 164.341 74.5089 165.579C74.5089 166.817 73.5053 167.82 72.2678 167.82Z" fill="#9BACF2"/>
<path d="M72.2678 176.957H56.1317C54.8937 176.957 53.8906 175.954 53.8906 174.716C53.8906 173.478 54.8937 172.475 56.1317 172.475H72.2678C73.5057 172.475 74.5089 173.478 74.5089 174.716C74.5089 175.954 73.5053 176.957 72.2678 176.957Z" fill="#9BACF2"/>
<path d="M48.1075 160.022C48.1075 155.917 44.7669 152.576 40.6612 152.576C36.5554 152.576 33.2148 155.917 33.2148 160.022C33.2148 162.048 34.0297 163.884 35.3461 165.228C34.0297 166.571 33.2148 168.408 33.2148 170.433C33.2148 171.671 34.218 172.674 35.456 172.674C36.6939 172.674 37.6971 171.671 37.6971 170.433C37.6971 168.799 39.0269 167.469 40.6612 167.469C42.2954 167.469 43.6253 168.799 43.6253 170.433C43.6253 171.671 44.6284 172.674 45.8664 172.674C47.1044 172.674 48.1075 171.671 48.1075 170.433C48.1075 168.408 47.2926 166.571 45.9762 165.228C47.2926 163.884 48.1075 162.048 48.1075 160.022ZM40.6612 157.058C42.2954 157.058 43.6253 158.388 43.6253 160.022C43.6253 161.656 42.2954 162.986 40.6612 162.986C39.0269 162.986 37.6971 161.656 37.6971 160.022C37.6971 158.388 39.0269 157.058 40.6612 157.058Z" fill="#9BACF2"/>
<path d="M174.106 53.8231V95.1676C174.106 96.4052 173.102 97.4088 171.865 97.4088H130.06L125.013 101C123.53 102.056 121.473 100.995 121.473 99.1739V53.8231C121.473 52.5856 122.476 51.582 123.714 51.582H171.865C173.103 51.582 174.106 52.5856 174.106 53.8231Z" fill="white"/>
<path d="M163.948 59.5547H156.162C154.924 59.5547 153.921 60.5578 153.921 61.7958V64.7438H137.271C136.519 64.7438 135.817 65.1212 135.402 65.7478C134.987 66.3748 134.914 67.1682 135.208 67.8607L139.269 77.4267C136.091 77.5531 133.543 80.1707 133.543 83.3791C133.543 86.6677 136.219 89.3436 139.507 89.3436C140.745 89.3436 141.749 88.3404 141.749 87.1025C141.749 85.8645 140.745 84.8613 139.507 84.8613C138.69 84.8613 138.025 84.1966 138.025 83.3791C138.025 82.5615 138.69 81.8968 139.507 81.8968H156.162C157.4 81.8968 158.403 80.8937 158.403 79.6557V64.0365H163.948C165.186 64.0365 166.189 63.0333 166.189 61.7954C166.189 60.5574 165.186 59.5547 163.948 59.5547ZM144.133 77.415L140.657 69.226H153.921V77.415H144.133Z" fill="#9BACF2"/>
<path d="M147.789 89.3436H147.745C146.507 89.3436 145.504 88.3404 145.504 87.1024C145.504 85.8645 146.507 84.8613 147.745 84.8613C148.983 84.8613 150.008 85.8645 150.008 87.1024C150.008 88.3404 149.027 89.3436 147.789 89.3436Z" fill="#9BACF2"/>
<path d="M155.34 89.3436H155.296C154.058 89.3436 153.055 88.3404 153.055 87.1024C153.055 85.8645 154.058 84.8613 155.296 84.8613C156.534 84.8613 157.559 85.8645 157.559 87.1024C157.559 88.3404 156.577 89.3436 155.34 89.3436Z" fill="#9BACF2"/>
<path d="M197.963 104.128C197.963 115.116 184.144 130.347 179.533 135.123C178.725 135.96 177.387 135.96 176.578 135.123C171.968 130.347 158.148 115.116 158.148 104.128C158.148 93.1332 167.061 84.2207 178.055 84.2207C189.05 84.2203 197.963 93.1332 197.963 104.128Z" fill="#9BACF2"/>
<path d="M178.053 115.659C184.641 115.659 189.981 110.319 189.981 103.731C189.981 97.1431 184.641 91.8027 178.053 91.8027C171.465 91.8027 166.125 97.1431 166.125 103.731C166.125 110.319 171.465 115.659 178.053 115.659Z" fill="white"/>
<path d="M196.444 145.475H136.627V132.03C136.627 131.213 136.404 130.449 136.02 129.789C136.404 129.129 136.627 128.365 136.627 127.548V99.6508H156.362C156.064 101.098 155.906 102.595 155.906 104.128C155.906 107.45 157.012 111.324 159.194 115.644C159.752 116.749 161.099 117.192 162.205 116.634C163.31 116.077 163.753 114.729 163.195 113.624C161.333 109.936 160.388 106.741 160.388 104.128C160.388 94.3873 168.313 86.4622 178.055 86.4622C187.795 86.4622 195.72 94.3873 195.72 104.128C195.72 112.196 186.621 124.524 178.055 133.427C176.286 131.587 172.968 127.998 169.697 123.715C168.945 122.732 167.539 122.544 166.555 123.295C165.572 124.047 165.383 125.453 166.135 126.437C169.629 131.01 173.167 134.817 174.966 136.681C175.783 137.527 176.88 137.993 178.056 137.993C179.231 137.993 180.327 137.526 181.144 136.68C186.875 130.745 200.203 115.691 200.203 104.128C200.203 91.9158 190.267 81.98 178.055 81.98C177.481 81.98 176.913 82.0092 176.349 82.0522V53.824C176.349 51.3525 174.338 49.3418 171.867 49.3418H123.714C121.242 49.3418 119.231 51.3525 119.231 53.824V74.2585H68.999C66.5275 74.2585 64.5168 76.2692 64.5168 78.7407V127.548C64.5168 128.365 64.74 129.129 65.1232 129.789C64.74 130.449 64.5168 131.213 64.5168 132.03V142.177H40.7645V105.636H55.1068C56.3448 105.636 57.3479 104.633 57.3479 103.395C57.3479 102.157 56.3448 101.154 55.1068 101.154H40.7645C38.293 101.154 36.2823 103.165 36.2823 105.636V142.177H26.7791C24.3076 142.177 22.2969 144.188 22.2969 146.659V184.418C22.2969 186.89 24.3076 188.9 26.7791 188.9H36.2819V195.176C36.2819 197.647 38.2926 199.658 40.7641 199.658H196.443C198.915 199.658 200.926 197.647 200.926 195.176V149.957C200.926 147.486 198.915 145.475 196.444 145.475ZM123.714 53.824H171.866V82.8666C165.574 84.7012 160.434 89.2551 157.807 95.1685H130.06C129.595 95.1685 129.141 95.3133 128.761 95.5836L123.714 99.1752V53.824ZM68.999 78.7407H119.231V99.1752C119.231 100.861 120.162 102.387 121.661 103.159C122.311 103.494 123.015 103.66 123.716 103.66C124.629 103.66 125.537 103.379 126.313 102.826L130.776 99.6508H132.145V127.548H132.145H68.999V78.7407ZM68.999 132.03H132.145V145.475H124.333C121.861 145.475 119.85 147.486 119.85 149.957V195.175V195.176H69.0057C69.0035 195.176 69.0012 195.176 68.9985 195.176V188.9H82.9974C85.4689 188.9 87.4796 186.89 87.4796 184.418V142.653C87.4796 140.968 86.5496 139.442 85.0521 138.669C83.5546 137.896 81.7715 138.024 80.3982 139L75.9348 142.177H68.999V132.03ZM26.7791 146.659H76.6515C77.1172 146.659 77.5717 146.513 77.9509 146.243L82.9979 142.652V184.417L26.7791 184.42V146.659ZM40.7645 188.899H64.5168V195.175H40.7645V188.899ZM124.333 195.175V149.957H196.444L196.447 195.175H124.333V195.175Z" fill="#1F4FDE"/>
<path d="M100.57 68.3388C101.745 68.3388 102.842 67.8726 103.659 67.0264C109.39 61.0905 122.718 46.0361 122.718 34.4746C122.718 22.2619 112.782 12.3262 100.57 12.3262C88.3576 12.3262 78.4219 22.2619 78.4219 34.4746C78.4219 46.0374 91.7502 61.091 97.4807 67.0264C98.2974 67.8726 99.3947 68.3388 100.57 68.3388ZM100.569 16.8084C110.31 16.8084 118.235 24.7334 118.235 34.4746C118.235 42.5418 109.136 54.8692 100.569 63.7727C92.0035 54.8697 82.9036 42.5427 82.9036 34.4746C82.9036 24.7334 90.8287 16.8084 100.569 16.8084Z" fill="#1F4FDE"/>
<path d="M59.1745 71.4487C58.7124 71.4487 58.2502 71.3062 57.8571 71.0207L56.1279 69.7639L54.3978 71.0207C53.6125 71.5913 52.5488 71.5913 51.7636 71.0207C50.9778 70.4501 50.6493 69.4384 50.9496 68.5151L51.6103 66.4815L49.8806 65.2243C49.0953 64.6537 48.7667 63.642 49.0671 62.7187C49.3669 61.7949 50.2275 61.1701 51.1984 61.1701H53.3368L53.998 59.1365C54.2978 58.2127 55.1584 57.5879 56.1293 57.5879C57.1001 57.5879 57.9607 58.2132 58.2606 59.1365L58.9217 61.1701H61.0602C62.031 61.1701 62.8916 61.7954 63.1914 62.7187C63.4918 63.642 63.1632 64.6532 62.3775 65.2243L60.6478 66.4815L61.3085 68.5151C61.6088 69.4389 61.2802 70.4501 60.4945 71.0207C60.0987 71.3062 59.6366 71.4487 59.1745 71.4487Z" fill="#9BACF2"/>
<path d="M197.96 69.2686C197.498 69.2686 197.035 69.1261 196.642 68.8405L194.913 67.5837L193.183 68.8405C192.398 69.4111 191.334 69.4111 190.549 68.8405C189.763 68.27 189.434 67.2583 189.735 66.335L190.395 64.3014L188.666 63.0441C187.88 62.4735 187.552 61.4619 187.852 60.5386C188.152 59.6148 189.013 58.99 189.984 58.99H192.122L192.783 56.9568C193.083 56.033 193.944 55.4082 194.914 55.4082C195.885 55.4082 196.746 56.0335 197.046 56.9568L197.707 58.99H199.845C200.816 58.99 201.677 59.6152 201.977 60.5386C202.277 61.4619 201.948 62.4731 201.163 63.0441L199.433 64.3014L200.094 66.335C200.394 67.2588 200.065 68.27 199.28 68.8405C198.884 69.1261 198.422 69.2686 197.96 69.2686Z" fill="#9BACF2"/>
<path d="M20.5929 130.56C20.1308 130.56 19.6687 130.417 19.276 130.132L17.5459 128.875L15.8166 130.132C15.0304 130.702 13.9673 130.702 13.182 130.132C12.3962 129.561 12.0677 128.549 12.368 127.626L13.0287 125.593L11.299 124.336C10.5133 123.765 10.1847 122.753 10.485 121.83C10.7849 120.906 11.6455 120.281 12.6163 120.281H14.7548L15.4159 118.248C15.7158 117.324 16.5764 116.699 17.5472 116.699C18.5181 116.699 19.3787 117.324 19.6785 118.248L20.3396 120.281H22.4781C23.449 120.281 24.3095 120.907 24.6094 121.83C24.9097 122.753 24.5812 123.765 23.7959 124.336L22.0662 125.592L22.7269 127.626C23.0272 128.549 22.6986 129.561 21.9134 130.132C21.5171 130.417 21.055 130.56 20.5929 130.56Z" fill="#9BACF2"/>
<path d="M24.5358 216.001C20.8286 216.001 17.8125 212.985 17.8125 209.278C17.8125 205.571 20.8286 202.555 24.5358 202.555C28.2431 202.555 31.2592 205.571 31.2592 209.278C31.2592 212.985 28.2435 216.001 24.5358 216.001ZM24.5358 207.037C23.3001 207.037 22.2947 208.042 22.2947 209.278C22.2947 210.514 23.3001 211.519 24.5358 211.519C25.7716 211.519 26.777 210.514 26.777 209.278C26.777 208.042 25.7716 207.037 24.5358 207.037Z" fill="#9BACF2"/>
<path d="M181.954 37.6439C178.247 37.6439 175.23 34.6279 175.23 30.9206C175.23 27.2134 178.247 24.1973 181.954 24.1973C185.661 24.1973 188.677 27.2134 188.677 30.9206C188.677 34.6279 185.662 37.6439 181.954 37.6439ZM181.954 28.6795C180.718 28.6795 179.713 29.6849 179.713 30.9206C179.713 32.1564 180.718 33.1617 181.954 33.1617C183.19 33.1617 184.195 32.1564 184.195 30.9206C184.195 29.6849 183.19 28.6795 181.954 28.6795Z" fill="#9BACF2"/>
</g>
<defs>
<linearGradient id="paint0_linear_1260_7152" x1="28.1022" y1="183.462" x2="207.987" y2="3.57685" gradientUnits="userSpaceOnUse">
<stop stop-color="#D0DCFF" stop-opacity="0"/>
<stop offset="1" stop-color="#B5C3FF"/>
</linearGradient>
<clipPath id="clip0_1260_7152">
<rect width="223.215" height="229.49" fill="white"/>
</clipPath>
</defs>
</svg>
