<svg width="259" height="230" viewBox="0 0 259 230" fill="none" xmlns="http://www.w3.org/2000/svg">
<path d="M252.08 120.65C240.576 95.3438 213.634 80.7791 201.602 56.4349C189.798 32.5553 181.386 -8.65033 149.065 1.61022C94.6902 18.8716 -3.48518 93.1041 23.649 157.537C30.1932 173.077 48.9069 179.28 60.773 191.252C81.7048 212.371 103.333 226.313 134.44 228.687C195.781 233.369 283.87 190.589 252.08 120.65Z" fill="url(#paint0_linear_405_11010)"/>
<g clip-path="url(#clip0_405_11010)">
<path fill-rule="evenodd" clip-rule="evenodd" d="M173.093 120.853C168.201 119.03 163.061 117.949 157.85 117.631L155.867 117.509V66.0555H175.943V121.914L173.093 120.853ZM92.0148 165.309H71.9384V95.7086H92.0148V165.309ZM166.454 140.39L173.576 144.513L142.765 162.306L135.613 158.18L166.454 140.39ZM141.497 164.499L134.348 160.365V172.609L141.497 176.738V164.499ZM103.3 184.226L102.884 182.654H13.6903C12.9905 182.654 12.4218 182.09 12.4218 181.389V25.5094H4.85547V190.22H105.234L104.27 187.42C103.908 186.368 103.585 185.302 103.3 184.226ZM33.4945 32.7753V20.8535H45.4362V32.7753H33.4945ZM45.4362 45.2744V57.1983H33.4945V45.2744H45.4362Z" fill="#9BACF2"/>
<path fill-rule="evenodd" clip-rule="evenodd" d="M35.6083 47.3879H43.3251V55.0864H35.6083V47.3879ZM35.111 61.8424H43.822C47.2627 61.8424 50.067 59.0384 50.067 55.5897V46.8825C50.067 43.4338 47.2627 40.6315 43.822 40.6315H35.111C31.6703 40.6315 28.8659 43.4338 28.8659 46.8825V55.5897C28.8659 59.038 31.6703 61.8424 35.111 61.8424ZM35.6083 22.967H43.3251V30.6639H35.6083V22.967ZM35.111 37.4215H43.822C47.2627 37.4215 50.067 34.615 50.067 31.1667V22.4638C50.067 19.015 47.2627 16.209 43.822 16.209H35.111C31.6703 16.209 28.8659 19.015 28.8659 22.4638V31.1667C28.8659 34.6155 31.6703 37.4215 35.111 37.4215ZM55.7552 56.4052C55.7552 54.5414 57.2666 53.03 59.1363 53.03H96.0887C97.958 53.03 99.4698 54.5414 99.4698 56.4052C99.4698 58.2728 97.9584 59.7821 96.0887 59.7821H59.1363C57.2666 59.7821 55.7552 58.2724 55.7552 56.4052ZM55.7552 46.0831C55.7552 44.2155 57.2666 42.7019 59.1363 42.7019H96.0887C97.958 42.7019 99.4698 44.2155 99.4698 46.0831C99.4698 47.9464 97.9584 49.4579 96.0887 49.4579H59.1363C57.2666 49.4579 55.7552 47.9464 55.7552 46.0831ZM55.7552 31.9822C55.7552 30.1205 57.2666 28.607 59.1363 28.607H96.0887C97.958 28.607 99.4698 30.1205 99.4698 31.9822C99.4698 33.8498 97.9584 35.3633 96.0887 35.3633H59.1363C57.2666 35.3633 55.7552 33.8498 55.7552 31.9822ZM55.7552 21.6601C55.7552 19.7925 57.2666 18.279 59.1363 18.279H96.0887C97.958 18.279 99.4698 19.7925 99.4698 21.6601C99.4698 23.5235 97.9584 25.037 96.0887 25.037H59.1363C57.2666 25.0374 55.7552 23.5235 55.7552 21.6601ZM157.98 203.258V172.548L184.571 157.197V187.906L157.98 203.258ZM124.628 157.2L129.719 160.127V173.341C129.719 174.546 130.355 175.662 131.41 176.265L141.076 181.859C141.593 182.16 142.189 182.311 142.766 182.311C143.343 182.311 143.94 182.16 144.457 181.859C145.491 181.255 146.147 180.141 146.147 178.932V169.614L151.219 172.548V203.253L124.628 187.905V157.2ZM154.6 135.99L159.691 138.927L133.08 154.277L128.009 151.35L154.6 135.99ZM139.842 158.181L142.766 159.867L169.356 144.511L166.453 142.831L139.842 158.181ZM139.385 165.718L136.462 164.028V171.391L139.385 173.079V165.718ZM154.6 166.699L181.21 151.349L176.119 148.412L149.528 163.768L154.6 166.699ZM189.643 148.426L156.29 129.166C155.236 128.561 153.963 128.561 152.909 129.166L119.557 148.426C118.522 149.03 117.866 150.144 117.866 151.349V189.859C117.866 191.062 118.522 192.178 119.557 192.782L152.909 212.03C153.426 212.333 154.023 212.481 154.6 212.481C155.176 212.481 155.773 212.332 156.29 212.03L189.643 192.782C190.697 192.178 191.333 191.062 191.333 189.859V151.349C191.333 150.144 190.696 149.03 189.643 148.426ZM154.6 219.035C181.309 219.035 203.047 197.303 203.047 170.599C203.047 143.895 181.309 122.173 154.6 122.173C127.89 122.173 106.172 143.895 106.172 170.599C106.172 197.303 127.89 219.035 154.6 219.035ZM6.96928 188.109H102.274C101.896 187.011 101.558 185.895 101.259 184.767H13.6914C11.8217 184.767 10.3103 183.254 10.3103 181.39V27.6225H6.96886L6.96928 188.109ZM131.847 107.237V120.326C125.941 123.009 120.591 126.712 116.016 131.199V107.238L131.847 107.237ZM173.831 68.169V118.874C168.84 117.015 163.509 115.861 157.98 115.523V68.169H173.831ZM180.573 121.923V64.7879C180.573 62.9245 179.062 61.4131 177.212 61.4131H154.6C152.73 61.4131 151.219 62.9245 151.219 64.7879V115.523C146.863 115.789 142.647 116.561 138.61 117.782V103.86C138.61 101.993 137.098 100.479 135.229 100.479H112.636C110.766 100.479 109.255 101.993 109.255 103.86V139.195C103.049 148.117 99.4099 158.938 99.4099 170.599C99.4099 173.109 99.5886 175.585 99.927 178.012H17.0725V24.2456C17.0725 22.378 15.5611 20.8704 13.6914 20.8704H3.58816C1.71886 20.8704 0.207031 22.378 0.207031 24.2456V191.485C0.207031 193.353 1.71844 194.864 3.58816 194.864H105.038C114.047 213.166 132.881 225.791 154.6 225.791C185.029 225.791 209.79 201.03 209.79 170.599C209.79 149.557 197.956 131.232 180.573 121.923ZM122.997 76.0746L83.0218 63.1193C81.9477 62.777 80.7744 62.9798 79.8993 63.6681L37.9352 96.3445C36.4436 97.4879 36.1851 99.6141 37.3386 101.084C37.9948 101.937 38.9894 102.384 40.0035 102.384C40.7193 102.384 41.4553 102.153 42.0718 101.674L82.6238 70.1L122.897 83.1428C124.11 83.5328 125.443 83.2104 126.338 82.3074L161.46 46.8863L161.023 50.8539C160.804 52.7076 162.137 54.3762 163.986 54.5891C164.126 54.601 164.245 54.609 164.384 54.609C166.074 54.609 167.526 53.3342 167.725 51.6098L169.257 37.9903C169.376 36.9859 169.038 35.9794 168.322 35.2535C167.606 34.5293 166.612 34.1574 165.617 34.247L151.934 35.4462C150.085 35.6072 148.713 37.2479 148.871 39.1057C149.03 40.9611 150.681 42.3436 152.531 42.1746L157.006 41.7808L122.997 76.0746ZM32.0882 125.803H47.9193V163.197H32.0882V125.803ZM28.707 169.949C26.8377 169.949 25.3259 168.441 25.3259 166.574V122.426C25.3259 120.558 26.8373 119.045 28.707 119.045H51.3C53.1693 119.045 54.6811 120.558 54.6811 122.426V166.574C54.6811 168.441 53.1697 169.949 51.3 169.949H28.707ZM89.9032 163.197H74.0522V97.8221H89.9032V163.197ZM70.6711 91.0662H93.2839C95.1334 91.0662 96.6651 92.5797 96.6651 94.4473V166.574C96.6651 168.441 95.1338 169.949 93.2839 169.949H70.6711C68.8014 169.949 67.29 168.441 67.29 166.574V94.4473C67.2904 92.5797 68.8018 91.0662 70.6711 91.0662Z" fill="#1F4FDE"/>
</g>
<defs>
<linearGradient id="paint0_linear_405_11010" x1="68.9536" y1="206.097" x2="221.841" y2="53.2094" gradientUnits="userSpaceOnUse">
<stop stop-color="#D0DCFF" stop-opacity="0"/>
<stop offset="1" stop-color="#B5C3FF"/>
</linearGradient>
<clipPath id="clip0_405_11010">
<rect width="210" height="210" fill="white" transform="translate(0 16)"/>
</clipPath>
</defs>
</svg>
