<svg width="218" height="230" viewBox="0 0 218 230" fill="none" xmlns="http://www.w3.org/2000/svg">
<g clip-path="url(#clip0_1260_6047)">
<path d="M194.871 153.673C180.443 123.095 218.445 92.1708 217.451 58.676C215.847 4.62622 146.88 -21.1228 122.461 20.9527C73.249 105.749 1.70509 110.365 0.369387 180.754C-0.480442 225.536 87.6069 218.54 120.294 226.627C168.461 238.544 222.899 213.075 194.871 153.673Z" fill="url(#paint0_linear_1260_6047)"/>
<path opacity="0.1" d="M202.1 188.012C200.862 188.012 199.859 189.015 199.859 190.253V195.757C199.859 196.995 200.862 197.999 202.1 197.999C203.338 197.999 204.342 196.995 204.342 195.757V190.253C204.342 189.015 203.338 188.012 202.1 188.012Z" fill="#1F4FDE"/>
<path opacity="0.1" d="M123.53 198.287C122.292 198.287 121.289 199.29 121.289 200.528V202.078C121.289 203.316 122.292 204.319 123.53 204.319C124.768 204.319 125.771 203.316 125.771 202.078V200.528C125.771 199.29 124.768 198.287 123.53 198.287Z" fill="#1F4FDE"/>
<path opacity="0.1" d="M135.917 198.287C134.679 198.287 133.676 199.29 133.676 200.528V202.078C133.676 203.316 134.679 204.319 135.917 204.319C137.155 204.319 138.158 203.316 138.158 202.078V200.528C138.158 199.29 137.155 198.287 135.917 198.287Z" fill="#1F4FDE"/>
<path opacity="0.1" d="M148.3 198.287C147.062 198.287 146.059 199.29 146.059 200.528V204.768C146.059 206.006 147.062 207.009 148.3 207.009C149.538 207.009 150.541 206.006 150.541 204.768V200.528C150.541 199.29 149.538 198.287 148.3 198.287Z" fill="#1F4FDE"/>
<path opacity="0.1" d="M160.686 198.287C159.448 198.287 158.445 199.29 158.445 200.528V202.078C158.445 203.316 159.448 204.319 160.686 204.319C161.924 204.319 162.928 203.316 162.928 202.078V200.528C162.928 199.29 161.924 198.287 160.686 198.287Z" fill="#1F4FDE"/>
<path opacity="0.1" d="M173.073 198.287C171.835 198.287 170.832 199.29 170.832 200.528V202.078C170.832 203.316 171.835 204.319 173.073 204.319C174.311 204.319 175.314 203.316 175.314 202.078V200.528C175.314 199.29 174.311 198.287 173.073 198.287Z" fill="#1F4FDE"/>
<path opacity="0.1" d="M185.46 198.287C184.222 198.287 183.219 199.29 183.219 200.528V204.768C183.219 206.006 184.222 207.009 185.46 207.009C186.698 207.009 187.701 206.006 187.701 204.768V200.528C187.701 199.29 186.697 198.287 185.46 198.287Z" fill="#1F4FDE"/>
<path opacity="0.1" d="M198.951 58.8401C198.222 58.0948 197.117 57.9585 196.251 58.4412L131.183 94.6347L111.776 78.7067C111.045 78.1061 110.014 78.0303 109.203 78.5162L83.254 94.0547C79.7475 88.4878 73.5549 84.7124 66.36 84.7124C66.2811 84.7124 66.204 84.7178 66.1252 84.7187V69.948H91.0504L96.0973 73.5392C97.581 74.5947 99.6378 73.5342 99.6378 71.7131V30.8446C99.6378 29.6071 98.6343 28.6035 97.3967 28.6035H58.2104C56.9729 28.6035 55.9693 29.6071 55.9693 30.8446V49.488H15.7333C14.4958 49.488 13.4922 50.4916 13.4922 51.7291V97.0798C13.4922 98.9009 15.5491 99.9614 17.0327 98.9059L22.0797 95.3147H48.7287C46.9766 98.6055 46.1237 102.423 46.4778 106.41C46.4764 106.41 46.4751 106.41 46.4737 106.41C42.0731 106.41 38.5613 110.215 39.0498 114.715C39.4156 118.084 42.0946 120.834 45.4531 121.28C46.5898 121.431 47.6839 121.325 48.6884 121.014C49.7413 126.994 53.6915 131.856 58.9527 134.245V138.422C58.9527 141.914 56.9021 145.08 53.7157 146.509L32.4856 156.026C28.3817 157.865 25.4862 161.655 24.7901 166.098L19.7395 198.332C19.5266 199.692 20.5777 200.92 21.9537 200.92H110.766C112.142 200.92 113.193 199.692 112.98 198.332L112.496 195.247H193.705C194.876 195.247 195.921 194.391 196.032 193.226C196.159 191.889 195.111 190.765 193.801 190.765H111.794L110.591 183.087H129.723H150.104H170.48H190.861V110.591L170.48 95.334L150.104 106.67L129.723 118.005L109.342 101.277L93.1328 110.985C92.0019 108.297 89.3444 106.41 86.2454 106.41C86.2441 106.41 86.2427 106.41 86.2418 106.41C86.4996 103.506 86.1168 100.692 85.2132 98.1058L110.152 83.1724L129.518 99.0672C130.228 99.6504 131.225 99.74 132.029 99.2931L195.099 64.2108V68.9287C195.099 70.0995 195.955 71.1443 197.12 71.2555C198.457 71.3828 199.582 70.3353 199.582 69.0247V60.4847C199.582 59.8778 199.376 59.274 198.951 58.8401Z" fill="#1F4FDE"/>
<path d="M66.1252 40.9716V82.3161C66.1252 83.5536 65.1216 84.5572 63.884 84.5572H22.0797L17.0327 88.1483C15.5491 89.2043 13.4922 88.1434 13.4922 86.3223V40.9716C13.4922 39.734 14.4958 38.7305 15.7333 38.7305H63.884C65.122 38.7305 66.1252 39.734 66.1252 40.9716Z" fill="#9BACF2"/>
<path d="M55.9681 46.7031H48.182C46.9441 46.7031 45.9409 47.7062 45.9409 48.9442V51.8926H29.2904C28.5382 51.8926 27.8368 52.27 27.4213 52.8967C27.0062 53.5237 26.9336 54.3171 27.2272 55.0096L31.2881 64.5755C28.1106 64.7024 25.5625 67.32 25.5625 70.5279C25.5625 73.8165 28.2384 76.4924 31.527 76.4924C32.765 76.4924 33.7681 75.4893 33.7681 74.2513C33.7681 73.0133 32.765 72.0102 31.527 72.0102C30.7099 72.0102 30.0447 71.3455 30.0447 70.5279C30.0447 69.7104 30.7094 69.0457 31.527 69.0457H48.182C49.42 69.0457 50.4232 68.0426 50.4232 66.8046V51.1849H55.9681C57.2061 51.1849 58.2092 50.1818 58.2092 48.9438C58.2092 47.7058 57.2061 46.7031 55.9681 46.7031ZM36.1527 64.5639L32.6767 56.3749H45.9409V64.5639H36.1527Z" fill="white"/>
<path d="M39.8085 76.492H39.7645C38.5266 76.492 37.5234 75.4889 37.5234 74.2509C37.5234 73.0129 38.5266 72.0098 39.7645 72.0098C41.0025 72.0098 42.0276 73.0129 42.0276 74.2509C42.0276 75.4889 41.0465 76.492 39.8085 76.492Z" fill="white"/>
<path d="M47.3593 76.492H47.3153C46.0773 76.492 45.0742 75.4889 45.0742 74.2509C45.0742 73.0129 46.0773 72.0098 47.3153 72.0098C48.5533 72.0098 49.5784 73.0129 49.5784 74.2509C49.5784 75.4889 48.5972 76.492 47.3593 76.492Z" fill="white"/>
<path d="M55.9688 20.0868V56.9491C55.9688 58.1866 56.9723 59.1902 58.2099 59.1902H91.0498L96.0968 62.7813C97.5804 63.8374 99.6373 62.7764 99.6373 60.9553V20.0868C99.6373 18.8493 98.6337 17.8457 97.3962 17.8457H58.2099C56.9719 17.8457 55.9688 18.8493 55.9688 20.0868Z" fill="white"/>
<path d="M77.8018 52.0262C76.5639 52.0262 75.5607 51.023 75.5607 49.785V46.0097C75.5607 44.7717 76.5639 43.7686 77.8018 43.7686H80.2025C80.5952 43.7686 80.9632 43.6162 81.2388 43.3392C81.5243 43.0554 81.6767 42.6874 81.6767 42.2948C81.6767 41.4822 81.0156 40.8206 80.203 40.8206H75.4052C73.8104 40.8206 72.3143 40.1989 71.1915 39.0707C70.0709 37.956 69.4492 36.4594 69.4492 34.8646C69.4492 31.5805 72.1211 28.9086 75.4052 28.9086H75.5612V27.3739C75.5612 26.1359 76.5643 25.1328 77.8023 25.1328C79.0403 25.1328 80.0434 26.1359 80.0434 27.3739V31.1498C80.0434 32.3877 79.0403 33.3909 77.8023 33.3909H75.4052C74.5926 33.3909 73.9314 34.052 73.9314 34.8646C73.9314 35.2577 74.0838 35.6257 74.3608 35.9009C74.6441 36.186 75.0121 36.3384 75.4052 36.3384H80.203C83.4871 36.3384 86.159 39.0107 86.159 42.2948C86.159 43.8896 85.5373 45.3857 84.4086 46.5085C83.2939 47.6291 81.7977 48.2508 80.203 48.2508H80.0434V49.785C80.043 51.023 79.0398 52.0262 77.8018 52.0262Z" fill="#9BACF2"/>
<path d="M190.861 73.2402V172.329H170.48V84.5758L190.861 73.2402Z" fill="white"/>
<path d="M170.482 84.5762V172.329H150.105V95.9117L170.482 84.5762Z" fill="#9BACF2"/>
<path d="M150.103 95.9121V172.33H129.723V107.248L150.103 95.9121Z" fill="white"/>
<path d="M129.724 107.247V172.329H109.344V90.5195L129.724 107.247Z" fill="#9BACF2"/>
<path d="M109.342 90.5195V172.329H88.9609V102.725L109.342 90.5195Z" fill="white"/>
<path d="M88.9621 102.725V172.329H68.5859V114.925L88.9621 102.725Z" fill="#9BACF2"/>
<path d="M46.4774 110.592C50.6028 110.592 53.9471 107.247 53.9471 103.122C53.9471 98.9966 50.6028 95.6523 46.4774 95.6523C42.3521 95.6523 39.0078 98.9966 39.0078 103.122C39.0078 107.247 42.3521 110.592 46.4774 110.592Z" fill="white"/>
<path d="M86.2509 110.592C90.3762 110.592 93.7205 107.247 93.7205 103.122C93.7205 98.9966 90.3762 95.6523 86.2509 95.6523C82.1255 95.6523 78.7812 98.9966 78.7812 103.122C78.7812 107.247 82.1255 110.592 86.2509 110.592Z" fill="white"/>
<path d="M66.3637 190.164L82.3442 137.248L79.0081 135.752C75.8217 134.324 73.7711 131.157 73.7711 127.665V114.572H58.9564V127.665C58.9564 131.157 56.9058 134.324 53.7189 135.752L50.3828 137.247L66.3637 190.164Z" fill="white"/>
<path d="M24.7917 155.342C25.4878 150.899 28.3833 147.109 32.4872 145.269L50.3807 137.248C52.7765 143.754 59.0242 148.395 66.3612 148.395C73.6981 148.395 79.9459 143.754 82.3417 137.248L100.235 145.269C104.339 147.109 107.235 150.899 107.931 155.342L113.386 190.164H19.3359L24.7917 155.342Z" fill="#9BACF2"/>
<path d="M46.6312 96.9529L48.62 109.872C49.9678 118.628 57.5011 125.09 66.3597 125.09C75.2179 125.09 82.7517 118.628 84.0995 109.872L86.0882 96.9529C87.9497 84.8612 78.5944 73.9551 66.3597 73.9551C54.125 73.9555 44.7698 84.8612 46.6312 96.9529Z" fill="white"/>
<path d="M74.913 103.529C73.675 103.529 72.6719 102.526 72.6719 101.288V100.325C72.6719 99.0871 73.675 98.084 74.913 98.084C76.151 98.084 77.1541 99.0871 77.1541 100.325V101.288C77.1541 102.526 76.1505 103.529 74.913 103.529Z" fill="#9BACF2"/>
<path d="M57.8075 103.529C56.5695 103.529 55.5664 102.526 55.5664 101.288V100.325C55.5664 99.0871 56.5695 98.084 57.8075 98.084C59.0455 98.084 60.0486 99.0871 60.0486 100.325V101.288C60.0486 102.526 59.0451 103.529 57.8075 103.529Z" fill="#9BACF2"/>
<path d="M82.1509 172.758H50.5705C49.7422 172.758 49.0703 172.087 49.0703 171.258V160.488C49.0703 159.66 49.7417 158.988 50.5705 158.988H82.1509C82.9792 158.988 83.6511 159.66 83.6511 160.488V171.258C83.6511 172.086 82.9792 172.758 82.1509 172.758Z" fill="white"/>
<path d="M74.937 168.115H57.788C56.55 168.115 55.5469 167.112 55.5469 165.874C55.5469 164.636 56.55 163.633 57.788 163.633H74.937C76.175 163.633 77.1781 164.636 77.1781 165.874C77.1781 167.112 76.1745 168.115 74.937 168.115Z" fill="#9BACF2"/>
<path d="M198.477 47.7107C197.793 47.3082 196.946 47.2979 196.252 47.6839L131.183 83.8774L111.777 67.9493C111.045 67.3496 110.016 67.273 109.204 67.7588L85.1797 82.145C84.5943 81.21 83.9408 80.3104 83.212 79.4606C79.4272 75.0487 74.1001 72.3303 68.3669 71.8121V61.4322H90.3351L94.799 64.6087C95.5749 65.1609 96.4825 65.4415 97.3951 65.4415C98.0966 65.4415 98.8016 65.2757 99.4524 64.94C100.95 64.1672 101.88 62.641 101.88 60.9562V20.0877C101.88 17.6162 99.8693 15.6055 97.3978 15.6055H58.2115C55.74 15.6055 53.7293 17.6162 53.7293 20.0877V56.9495C53.7293 59.421 55.74 61.4317 58.2115 61.4317H63.8846V71.8538C58.3307 72.475 53.1914 75.1693 49.5101 79.4606C48.7361 80.3624 48.0436 81.3185 47.4317 82.3162H22.0785C21.6128 82.3162 21.1587 82.461 20.7795 82.7313L15.7361 86.3233V40.9722H43.3466C44.5846 40.9722 45.5877 39.969 45.5877 38.7311C45.5877 37.4931 44.5846 36.4899 43.3466 36.4899H15.7361C13.2646 36.4899 11.2539 38.5007 11.2539 40.9722V86.3233C11.2539 88.0095 12.1844 89.5362 13.6824 90.308C14.3318 90.6424 15.0351 90.8078 15.7348 90.8078C16.6478 90.8078 17.5555 90.5267 18.3304 89.9741L22.7938 86.7989H45.3309C44.5824 89.0095 44.192 91.3344 44.1678 93.6894C39.9222 94.7279 36.7618 98.5625 36.7618 103.123C36.7618 108.476 41.119 112.832 46.4748 112.832C46.6438 112.832 46.8123 112.822 46.9808 112.813C48.5093 118.099 52.0637 122.396 56.7122 124.908V127.665C56.7122 130.27 55.1761 132.642 52.7996 133.707L31.57 143.224C26.7552 145.382 23.3936 149.783 22.5773 154.995L17.1211 189.817C16.9293 191.04 17.7657 192.186 18.988 192.378C19.1059 192.396 19.2224 192.405 19.3376 192.405C20.4223 192.405 21.3761 191.616 21.5491 190.511L27.0053 155.688C27.5862 151.98 29.9784 148.849 33.4033 147.314L54.6333 137.797C58.6194 136.01 61.1948 132.033 61.1948 127.665V126.671C62.8457 127.101 64.5767 127.332 66.3606 127.332C68.145 127.332 69.876 127.102 71.5268 126.671V127.665C71.5268 132.033 74.1023 136.01 78.0888 137.797L99.318 147.314C102.743 148.849 105.135 151.98 105.716 155.688L111.172 190.511C111.345 191.616 112.298 192.405 113.384 192.405C113.499 192.405 113.616 192.396 113.733 192.378C114.956 192.186 115.792 191.04 115.6 189.817L114.765 184.49H193.802C195.04 184.49 196.043 183.487 196.043 182.249C196.043 181.011 195.04 180.008 193.802 180.008H114.063L113.212 174.571H190.862C192.1 174.571 193.103 173.568 193.103 172.33V108.079C193.103 106.841 192.1 105.838 190.862 105.838C189.624 105.838 188.62 106.841 188.62 108.079V170.089H172.722V85.8948L188.62 77.0523V95.671C188.62 96.909 189.624 97.9121 190.862 97.9121C192.1 97.9121 193.103 96.909 193.103 95.671V73.2415C193.103 72.4473 192.682 71.7122 191.997 71.3097C191.313 70.9067 190.467 70.8964 189.772 71.2828L129.967 104.548C125.626 100.986 110.757 88.7841 110.753 88.7818C110.658 88.7043 110.558 88.6312 110.448 88.5689C109.746 88.1709 108.884 88.1816 108.192 88.5958L93.8981 97.1537C92.5731 95.4603 90.7018 94.2138 88.549 93.6881C88.5212 91.113 88.0555 88.5743 87.1653 86.1803L110.153 72.415L129.518 88.3098C129.928 88.646 130.433 88.8186 130.941 88.8186C131.314 88.8186 131.689 88.7253 132.03 88.5357L195.1 53.4534V58.2673C195.1 59.5053 196.104 60.5084 197.342 60.5084C198.58 60.5084 199.583 59.5053 199.583 58.2673V49.6421C199.582 48.8479 199.162 48.1133 198.477 47.7107ZM41.2445 103.123C41.2445 100.913 42.6241 99.0228 44.5658 98.2577L46.1166 108.331C43.3995 108.145 41.2445 105.884 41.2445 103.123ZM152.346 97.2299L168.24 88.3878V170.088H152.346V97.2299ZM131.965 108.565L147.864 99.7229V170.088H131.965V108.565ZM111.584 95.2586L127.483 108.308V170.089H112.51L111.584 164.184V95.2586H111.584ZM58.211 56.95V20.0881H97.3973V60.9566L92.3503 57.365C91.9707 57.0947 91.5166 56.95 91.0509 56.95H58.211ZM66.3606 122.849C58.553 122.849 52.0242 117.248 50.836 109.531L48.8468 96.6123C48.0597 91.4963 49.5411 86.3081 52.9112 82.379C56.2814 78.4498 61.1836 76.1966 66.3602 76.1966C71.5371 76.1966 76.4389 78.4498 79.8095 82.379C83.1802 86.3085 84.6611 91.4958 83.8736 96.6123L81.8848 109.531C80.6975 117.248 74.1682 122.849 66.3606 122.849ZM86.7211 136.755L79.922 133.707C77.5447 132.641 76.009 130.27 76.009 127.665V124.908C80.6571 122.396 84.212 118.1 85.7404 112.813C85.9089 112.822 86.077 112.832 86.246 112.832C86.4056 112.832 86.5638 112.827 86.7216 112.82V136.755H86.7211ZM95.959 103.123C95.959 102.484 95.8909 101.861 95.7721 101.255L107.102 94.4724V147.908C105.563 145.913 103.536 144.292 101.151 143.223L91.2038 138.764V111.467C94.0482 109.772 95.959 106.667 95.959 103.123ZM88.1554 98.2581C90.0971 99.0233 91.4768 100.913 91.4768 103.123C91.4768 105.884 89.3217 108.146 86.605 108.331L88.1554 98.2581Z" fill="#1F4FDE"/>
<path d="M202.1 177.256C200.862 177.256 199.859 178.259 199.859 179.497V185.002C199.859 186.24 200.862 187.243 202.1 187.243C203.338 187.243 204.342 186.24 204.342 185.002V179.497C204.342 178.259 203.338 177.256 202.1 177.256Z" fill="#1F4FDE"/>
<path d="M123.53 187.531C122.292 187.531 121.289 188.534 121.289 189.772V191.322C121.289 192.56 122.292 193.563 123.53 193.563C124.768 193.563 125.771 192.56 125.771 191.322V189.772C125.771 188.534 124.768 187.531 123.53 187.531Z" fill="#1F4FDE"/>
<path d="M135.917 187.531C134.679 187.531 133.676 188.534 133.676 189.772V191.322C133.676 192.56 134.679 193.563 135.917 193.563C137.155 193.563 138.158 192.56 138.158 191.322V189.772C138.158 188.534 137.155 187.531 135.917 187.531Z" fill="#1F4FDE"/>
<path d="M148.3 187.531C147.062 187.531 146.059 188.534 146.059 189.772V194.012C146.059 195.25 147.062 196.253 148.3 196.253C149.538 196.253 150.541 195.25 150.541 194.012V189.772C150.541 188.534 149.538 187.531 148.3 187.531Z" fill="#1F4FDE"/>
<path d="M160.686 187.531C159.448 187.531 158.445 188.534 158.445 189.772V191.322C158.445 192.56 159.448 193.563 160.686 193.563C161.924 193.563 162.928 192.56 162.928 191.322V189.772C162.928 188.534 161.924 187.531 160.686 187.531Z" fill="#1F4FDE"/>
<path d="M173.073 187.531C171.835 187.531 170.832 188.534 170.832 189.772V191.322C170.832 192.56 171.835 193.563 173.073 193.563C174.311 193.563 175.314 192.56 175.314 191.322V189.772C175.314 188.534 174.311 187.531 173.073 187.531Z" fill="#1F4FDE"/>
<path d="M185.46 187.531C184.222 187.531 183.219 188.534 183.219 189.772V194.012C183.219 195.25 184.222 196.253 185.46 196.253C186.698 196.253 187.701 195.25 187.701 194.012V189.772C187.701 188.534 186.697 187.531 185.46 187.531Z" fill="#1F4FDE"/>
<path d="M98.3155 213.939C97.8534 213.939 97.3913 213.796 96.9987 213.511L95.2685 212.254L93.5384 213.511C92.7531 214.081 91.6899 214.081 90.9037 213.511C90.1184 212.94 89.7899 211.929 90.0902 211.005L90.7513 208.972L89.0216 207.714C88.2359 207.144 87.9074 206.132 88.2077 205.209C88.5075 204.285 89.3681 203.66 90.339 203.66H92.4774L93.1386 201.627C93.4384 200.703 94.299 200.078 95.2699 200.078C96.2407 200.078 97.1013 200.703 97.4012 201.627L98.0623 203.66H100.201C101.172 203.66 102.032 204.286 102.332 205.209C102.632 206.132 102.304 207.143 101.518 207.714L99.7884 208.972L100.45 211.005C100.75 211.929 100.421 212.94 99.636 213.511C99.2398 213.796 98.7777 213.939 98.3155 213.939Z" fill="#9BACF2"/>
<path d="M21.9796 122.118C21.5175 122.118 21.0554 121.976 20.6627 121.69L18.9326 120.433L17.2033 121.69C16.4172 122.261 15.354 122.261 14.5687 121.69C13.783 121.12 13.4544 120.108 13.7547 119.185L14.4154 117.151L12.6857 115.894C11.9 115.323 11.5714 114.312 11.8717 113.388C12.1716 112.464 13.0322 111.84 14.003 111.84H16.1415L16.8026 109.806C17.1025 108.883 17.9631 108.258 18.9339 108.258C19.9048 108.258 20.7654 108.883 21.0652 109.806L21.7264 111.84H23.8648C24.8357 111.84 25.6963 112.465 25.9961 113.388C26.2964 114.312 25.9679 115.323 25.1826 115.894L23.4529 117.151L24.1136 119.185C24.4139 120.108 24.0854 121.119 23.2996 121.69C22.9043 121.976 22.4417 122.118 21.9796 122.118Z" fill="#9BACF2"/>
<path d="M123.532 58.2631C119.825 58.2631 116.809 55.247 116.809 51.5397C116.809 47.8325 119.825 44.8164 123.532 44.8164C127.239 44.8164 130.255 47.8325 130.255 51.5397C130.255 55.247 127.24 58.2631 123.532 58.2631ZM123.532 49.2986C122.296 49.2986 121.291 50.304 121.291 51.5397C121.291 52.7755 122.296 53.7809 123.532 53.7809C124.768 53.7809 125.773 52.7755 125.773 51.5397C125.773 50.304 124.768 49.2986 123.532 49.2986Z" fill="#9BACF2"/>
<path d="M123.532 218.421C119.825 218.421 116.809 215.405 116.809 211.698C116.809 207.991 119.825 204.975 123.532 204.975C127.239 204.975 130.255 207.991 130.255 211.698C130.255 215.405 127.24 218.421 123.532 218.421ZM123.532 209.457C122.296 209.457 121.291 210.462 121.291 211.698C121.291 212.934 122.296 213.939 123.532 213.939C124.768 213.939 125.773 212.934 125.773 211.698C125.773 210.462 124.768 209.457 123.532 209.457Z" fill="#9BACF2"/>
<path d="M193.801 37.3978C190.094 37.3978 187.078 34.3818 187.078 30.6745C187.078 26.9673 190.094 23.9512 193.801 23.9512C197.509 23.9512 200.525 26.9673 200.525 30.6745C200.525 34.3818 197.509 37.3978 193.801 37.3978ZM193.801 28.4334C192.566 28.4334 191.56 29.4388 191.56 30.6745C191.56 31.9103 192.566 32.9156 193.801 32.9156C195.037 32.9156 196.043 31.9103 196.043 30.6745C196.043 29.4388 195.037 28.4334 193.801 28.4334Z" fill="#9BACF2"/>
</g>
<defs>
<linearGradient id="paint0_linear_1260_6047" x1="39.9192" y1="232.524" x2="227.285" y2="45.1585" gradientUnits="userSpaceOnUse">
<stop stop-color="#D0DCFF" stop-opacity="0"/>
<stop offset="1" stop-color="#B5C3FF"/>
</linearGradient>
<clipPath id="clip0_1260_6047">
<rect width="217.836" height="229.49" fill="white"/>
</clipPath>
</defs>
</svg>
