<svg width="240" height="210" viewBox="0 0 240 210" fill="none" xmlns="http://www.w3.org/2000/svg">
<g clip-path="url(#clip0_405_10283)">
<path d="M239.049 60.6003C232.649 8.74628 170.076 -1.7406 128.519 13.7235C61.5046 38.6605 85.5519 105.197 20.5377 132.442C13.6644 135.323 7.10709 139.932 3.42881 146.413C-11.0246 171.88 24.5272 169.841 30.3369 192.521C36.1054 215.04 58.1136 212.642 64.8482 200.875C75.2151 182.762 62.2996 150.254 86.0933 140.968C141.197 119.46 251.346 160.229 239.049 60.6003Z" fill="url(#paint0_linear_405_10283)"/>
<path opacity="0.1" d="M220.117 43.2617H19.8828C17.2939 43.2617 15.1953 45.3603 15.1953 47.9492V65.1153C15.1953 67.7042 17.2939 69.8028 19.8828 69.8028H22.0316V82.1066C22.0316 84.6955 24.1302 86.7941 26.7191 86.7941H34.003V194.734C34.003 196.027 35.0483 197.077 36.3467 197.077H92.0061C93.2998 197.077 94.3498 196.027 94.3498 194.734V86.7941H106.696V154.701C106.696 155.996 107.746 157.045 109.04 157.045H146.301V182.636C146.301 183.934 147.347 184.979 148.645 184.979H204.305C205.598 184.979 206.648 183.934 206.648 182.636V86.7941H213.281C215.87 86.7941 217.969 84.6955 217.969 82.1066V69.8028H220.117C222.706 69.8028 224.805 67.7042 224.805 65.1153V47.9492C224.804 45.3603 222.706 43.2617 220.117 43.2617Z" fill="#1F4FDE"/>
<path d="M206.648 58.5938V171.384C206.648 172.683 205.598 173.728 204.304 173.728H148.645C147.346 173.728 146.301 172.683 146.301 171.384V58.5938C146.301 57.3 147.346 56.25 148.645 56.25H204.304C205.598 56.25 206.648 57.3 206.648 58.5938Z" fill="#D8D8FF"/>
<path d="M206.648 58.5938V86.7938H167.048V154.702C167.048 155.995 165.998 157.045 164.704 157.045H146.301V58.5938C146.301 57.3 147.346 56.25 148.645 56.25H204.304C205.598 56.25 206.648 57.3 206.648 58.5938Z" fill="#9BACF2"/>
<path d="M196.047 105.695C197.341 105.695 198.391 104.645 198.391 103.351V102.145C198.391 100.85 197.341 99.8008 196.047 99.8008C194.753 99.8008 193.703 100.85 193.703 102.145V103.351C193.703 104.645 194.753 105.695 196.047 105.695Z" fill="#1F4FDE"/>
<path d="M188.949 105.695C190.243 105.695 191.293 104.645 191.293 103.351V102.145C191.293 100.85 190.243 99.8008 188.949 99.8008C187.655 99.8008 186.605 100.85 186.605 102.145V103.351C186.605 104.645 187.655 105.695 188.949 105.695Z" fill="#1F4FDE"/>
<path d="M179.199 102.748C179.199 101.454 178.149 100.404 176.855 100.404H156.898C155.604 100.404 154.555 101.454 154.555 102.748C154.555 104.042 155.604 105.092 156.898 105.092H176.855C178.149 105.092 179.199 104.043 179.199 102.748Z" fill="#1F4FDE"/>
<path d="M196.047 117C197.341 117 198.391 115.95 198.391 114.656V113.449C198.391 112.155 197.341 111.105 196.047 111.105C194.753 111.105 193.703 112.155 193.703 113.449V114.656C193.703 115.95 194.753 117 196.047 117Z" fill="#1F4FDE"/>
<path d="M188.949 117C190.243 117 191.293 115.95 191.293 114.656V113.449C191.293 112.155 190.243 111.105 188.949 111.105C187.655 111.105 186.605 112.155 186.605 113.449V114.656C186.605 115.95 187.655 117 188.949 117Z" fill="#1F4FDE"/>
<path d="M179.199 114.053C179.199 112.759 178.149 111.709 176.855 111.709H156.898C155.604 111.709 154.555 112.759 154.555 114.053C154.555 115.347 155.604 116.396 156.898 116.396H176.855C178.149 116.396 179.199 115.347 179.199 114.053Z" fill="#1F4FDE"/>
<path d="M196.047 128.304C197.341 128.304 198.391 127.255 198.391 125.96V124.754C198.391 123.46 197.341 122.41 196.047 122.41C194.753 122.41 193.703 123.46 193.703 124.754V125.96C193.703 127.255 194.753 128.304 196.047 128.304Z" fill="#1F4FDE"/>
<path d="M188.949 128.304C190.243 128.304 191.293 127.255 191.293 125.96V124.754C191.293 123.46 190.243 122.41 188.949 122.41C187.655 122.41 186.605 123.46 186.605 124.754V125.96C186.605 127.255 187.655 128.304 188.949 128.304Z" fill="#1F4FDE"/>
<path d="M179.199 125.357C179.199 124.063 178.149 123.014 176.855 123.014H156.898C155.604 123.014 154.555 124.063 154.555 125.357C154.555 126.652 155.604 127.701 156.898 127.701H176.855C178.149 127.701 179.199 126.652 179.199 125.357Z" fill="#1F4FDE"/>
<path d="M196.047 139.609C197.341 139.609 198.391 138.559 198.391 137.265V136.059C198.391 134.764 197.341 133.715 196.047 133.715C194.753 133.715 193.703 134.764 193.703 136.059V137.265C193.703 138.559 194.753 139.609 196.047 139.609Z" fill="#1F4FDE"/>
<path d="M188.949 139.609C190.243 139.609 191.293 138.559 191.293 137.265V136.059C191.293 134.764 190.243 133.715 188.949 133.715C187.655 133.715 186.605 134.764 186.605 136.059V137.265C186.605 138.559 187.655 139.609 188.949 139.609Z" fill="#1F4FDE"/>
<path d="M179.199 136.662C179.199 135.368 178.149 134.318 176.855 134.318H156.898C155.604 134.318 154.555 135.368 154.555 136.662C154.555 137.956 155.604 139.006 156.898 139.006H176.855C178.149 139.006 179.199 137.956 179.199 136.662Z" fill="#1F4FDE"/>
<path d="M191.605 158.029C191.605 156.735 190.555 155.686 189.261 155.686H163.68C162.385 155.686 161.336 156.735 161.336 158.029C161.336 159.324 162.385 160.373 163.68 160.373H189.261C190.556 160.373 191.605 159.324 191.605 158.029Z" fill="#1F4FDE"/>
<path d="M94.3508 70.6934V183.484C94.3508 184.778 93.3008 185.828 92.007 185.828H36.3477C35.0492 185.828 34.0039 184.778 34.0039 183.484V70.6934C34.0039 69.3996 35.0492 68.3496 36.3477 68.3496H92.007C93.3008 68.3496 94.3508 69.3996 94.3508 70.6934Z" fill="#D8D8FF"/>
<path d="M94.3508 70.6934V86.7949H34.0039V70.6934C34.0039 69.3996 35.0492 68.3496 36.3477 68.3496H92.007C93.3008 68.3496 94.3508 69.3996 94.3508 70.6934Z" fill="#9BACF2"/>
<path d="M83.75 117.794C85.0442 117.794 86.0938 116.745 86.0938 115.451V114.244C86.0938 112.95 85.0442 111.9 83.75 111.9C82.4558 111.9 81.4062 112.95 81.4062 114.244V115.451C81.4062 116.745 82.4558 117.794 83.75 117.794Z" fill="#1F4FDE"/>
<path d="M76.6523 117.794C77.9466 117.794 78.9961 116.745 78.9961 115.451V114.244C78.9961 112.95 77.9466 111.9 76.6523 111.9C75.3581 111.9 74.3086 112.95 74.3086 114.244V115.451C74.3086 116.745 75.3581 117.794 76.6523 117.794Z" fill="#1F4FDE"/>
<path d="M66.9019 114.848C66.9019 113.553 65.8523 112.504 64.5581 112.504H44.6016C43.3073 112.504 42.2578 113.553 42.2578 114.848C42.2578 116.142 43.3073 117.191 44.6016 117.191H64.5581C65.8523 117.191 66.9019 116.142 66.9019 114.848Z" fill="#1F4FDE"/>
<path d="M83.75 129.099C85.0442 129.099 86.0938 128.05 86.0938 126.755V125.549C86.0938 124.255 85.0442 123.205 83.75 123.205C82.4558 123.205 81.4062 124.255 81.4062 125.549V126.755C81.4062 128.05 82.4558 129.099 83.75 129.099Z" fill="#1F4FDE"/>
<path d="M76.6523 129.099C77.9466 129.099 78.9961 128.05 78.9961 126.755V125.549C78.9961 124.255 77.9466 123.205 76.6523 123.205C75.3581 123.205 74.3086 124.255 74.3086 125.549V126.755C74.3086 128.05 75.3581 129.099 76.6523 129.099Z" fill="#1F4FDE"/>
<path d="M66.9019 126.152C66.9019 124.858 65.8523 123.809 64.5581 123.809H44.6016C43.3073 123.809 42.2578 124.858 42.2578 126.152C42.2578 127.447 43.3073 128.496 44.6016 128.496H64.5581C65.8523 128.496 66.9019 127.447 66.9019 126.152Z" fill="#1F4FDE"/>
<path d="M83.75 106.781C85.0442 106.781 86.0938 105.731 86.0938 104.437V103.23C86.0938 101.936 85.0442 100.887 83.75 100.887C82.4558 100.887 81.4062 101.936 81.4062 103.23V104.437C81.4062 105.731 82.4558 106.781 83.75 106.781Z" fill="#1F4FDE"/>
<path d="M76.6523 106.781C77.9466 106.781 78.9961 105.731 78.9961 104.437V103.23C78.9961 101.936 77.9466 100.887 76.6523 100.887C75.3581 100.887 74.3086 101.936 74.3086 103.23V104.437C74.3086 105.731 75.3581 106.781 76.6523 106.781Z" fill="#1F4FDE"/>
<path d="M66.9019 103.834C66.9019 102.54 65.8523 101.49 64.5581 101.49H44.6016C43.3073 101.49 42.2578 102.54 42.2578 103.834C42.2578 105.128 43.3073 106.178 44.6016 106.178H64.5581C65.8523 106.178 66.9019 105.128 66.9019 103.834Z" fill="#1F4FDE"/>
<path d="M83.75 95.6206C85.0442 95.6206 86.0938 94.5711 86.0938 93.2769V92.0703C86.0938 90.7761 85.0442 89.7266 83.75 89.7266C82.4558 89.7266 81.4062 90.7761 81.4062 92.0703V93.2769C81.4062 94.5711 82.4558 95.6206 83.75 95.6206Z" fill="#1F4FDE"/>
<path d="M76.6523 95.6206C77.9466 95.6206 78.9961 94.5711 78.9961 93.2769V92.0703C78.9961 90.7761 77.9466 89.7266 76.6523 89.7266C75.3581 89.7266 74.3086 90.7761 74.3086 92.0703V93.2769C74.3086 94.5711 75.3581 95.6206 76.6523 95.6206Z" fill="#1F4FDE"/>
<path d="M66.9019 92.6738C66.9019 91.3796 65.8523 90.3301 64.5581 90.3301H44.6016C43.3073 90.3301 42.2578 91.3796 42.2578 92.6738C42.2578 93.968 43.3073 95.0176 44.6016 95.0176H64.5581C65.8523 95.0176 66.9019 93.968 66.9019 92.6738Z" fill="#1F4FDE"/>
<path d="M83.75 140.404C85.0442 140.404 86.0938 139.354 86.0938 138.06V136.854C86.0938 135.559 85.0442 134.51 83.75 134.51C82.4558 134.51 81.4062 135.559 81.4062 136.854V138.06C81.4062 139.354 82.4558 140.404 83.75 140.404Z" fill="#1F4FDE"/>
<path d="M76.6523 140.404C77.9466 140.404 78.9961 139.354 78.9961 138.06V136.854C78.9961 135.559 77.9466 134.51 76.6523 134.51C75.3581 134.51 74.3086 135.559 74.3086 136.854V138.06C74.3086 139.354 75.3581 140.404 76.6523 140.404Z" fill="#1F4FDE"/>
<path d="M66.9019 137.457C66.9019 136.163 65.8523 135.113 64.5581 135.113H44.6016C43.3073 135.113 42.2578 136.163 42.2578 137.457C42.2578 138.751 43.3073 139.801 44.6016 139.801H64.5581C65.8523 139.801 66.9019 138.751 66.9019 137.457Z" fill="#1F4FDE"/>
<path d="M83.75 151.709C85.0442 151.709 86.0938 150.659 86.0938 149.365V148.158C86.0938 146.864 85.0442 145.814 83.75 145.814C82.4558 145.814 81.4062 146.864 81.4062 148.158V149.365C81.4062 150.659 82.4558 151.709 83.75 151.709Z" fill="#1F4FDE"/>
<path d="M76.6523 151.709C77.9466 151.709 78.9961 150.659 78.9961 149.365V148.158C78.9961 146.864 77.9466 145.814 76.6523 145.814C75.3581 145.814 74.3086 146.864 74.3086 148.158V149.365C74.3086 150.659 75.3581 151.709 76.6523 151.709Z" fill="#1F4FDE"/>
<path d="M66.9019 148.762C66.9019 147.468 65.8523 146.418 64.5581 146.418H44.6016C43.3073 146.418 42.2578 147.468 42.2578 148.762C42.2578 150.056 43.3073 151.105 44.6016 151.105H64.5581C65.8523 151.105 66.9019 150.056 66.9019 148.762Z" fill="#1F4FDE"/>
<path d="M79.3081 170.129C79.3081 168.835 78.2586 167.785 76.9644 167.785H51.3828C50.0886 167.785 49.0391 168.835 49.0391 170.129C49.0391 171.423 50.0886 172.473 51.3828 172.473H76.9644C78.2591 172.473 79.3081 171.423 79.3081 170.129Z" fill="#1F4FDE"/>
<path d="M213.28 75.5434H26.7188C24.1298 75.5434 22.0312 73.4448 22.0312 70.8559V53.2168H217.968V70.8559C217.968 73.4448 215.869 75.5434 213.28 75.5434Z" fill="#E8EDFC"/>
<path d="M22.0312 53.2168H217.969V69.8012H22.0312V53.2168Z" fill="#1F4FDE"/>
<path d="M167.047 53.1621V143.453C167.047 144.746 165.997 145.796 164.703 145.796H109.039C107.745 145.796 106.695 144.746 106.695 143.453V53.1621C106.695 51.8684 107.745 50.8184 109.039 50.8184H164.703C165.997 50.8184 167.047 51.8684 167.047 53.1621Z" fill="white"/>
<path d="M167.047 53.1621V69.8027H106.695V53.1621C106.695 51.8684 107.745 50.8184 109.039 50.8184H164.703C165.997 50.8184 167.047 51.8684 167.047 53.1621Z" fill="#D8D8FF"/>
<path d="M156.445 100.371C157.74 100.371 158.789 99.3211 158.789 98.0269V96.8203C158.789 95.5261 157.74 94.4766 156.445 94.4766C155.151 94.4766 154.102 95.5261 154.102 96.8203V98.0269C154.102 99.3211 155.151 100.371 156.445 100.371Z" fill="#1F4FDE"/>
<path d="M149.348 100.371C150.642 100.371 151.691 99.3211 151.691 98.0269V96.8203C151.691 95.5261 150.642 94.4766 149.348 94.4766C148.053 94.4766 147.004 95.5261 147.004 96.8203V98.0269C147.004 99.3211 148.053 100.371 149.348 100.371Z" fill="#1F4FDE"/>
<path d="M139.597 97.4238C139.597 96.1296 138.548 95.0801 137.253 95.0801H117.297C116.003 95.0801 114.953 96.1296 114.953 97.4238C114.953 98.718 116.003 99.7676 117.297 99.7676H137.253C138.548 99.7676 139.597 98.718 139.597 97.4238Z" fill="#1F4FDE"/>
<path d="M156.445 111.675C157.74 111.675 158.789 110.626 158.789 109.332V108.125C158.789 106.831 157.74 105.781 156.445 105.781C155.151 105.781 154.102 106.831 154.102 108.125V109.332C154.102 110.626 155.151 111.675 156.445 111.675Z" fill="#1F4FDE"/>
<path d="M149.348 111.675C150.642 111.675 151.691 110.626 151.691 109.332V108.125C151.691 106.831 150.642 105.781 149.348 105.781C148.053 105.781 147.004 106.831 147.004 108.125V109.332C147.004 110.626 148.053 111.675 149.348 111.675Z" fill="#1F4FDE"/>
<path d="M139.597 108.729C139.597 107.434 138.548 106.385 137.253 106.385H117.297C116.003 106.385 114.953 107.434 114.953 108.729C114.953 110.023 116.003 111.072 117.297 111.072H137.253C138.548 111.072 139.597 110.023 139.597 108.729Z" fill="#1F4FDE"/>
<path d="M152.003 130.096C152.003 128.801 150.954 127.752 149.66 127.752H124.078C122.784 127.752 121.734 128.801 121.734 130.096C121.734 131.39 122.784 132.439 124.078 132.439H149.66C150.954 132.439 152.003 131.39 152.003 130.096Z" fill="#1F4FDE"/>
<path d="M220.117 58.5528H19.8828C17.2939 58.5528 15.1953 56.4542 15.1953 53.8653V36.6992C15.1953 34.1103 17.2939 32.0117 19.8828 32.0117H220.117C222.706 32.0117 224.805 34.1103 224.805 36.6992V53.8653C224.804 56.4542 222.706 58.5528 220.117 58.5528Z" fill="#9BACF2"/>
<path d="M41.5234 32.0117H59.2961V58.5528H41.5234V32.0117Z" fill="#D8D8FF"/>
<path d="M66.5938 32.0117H78.0795V58.5528H66.5938V32.0117Z" fill="#D8D8FF"/>
<path d="M220.117 29.668H19.8828C16.0058 29.668 12.8516 32.8222 12.8516 36.6992V53.8653C12.8516 57.6767 15.9012 60.7822 19.6878 60.8867V70.8566C19.6878 74.7336 22.842 77.8878 26.7191 77.8878H92.007V183.484H36.3444V89.6389C36.3444 88.3447 35.2948 87.2952 34.0006 87.2952C32.7064 87.2952 31.6569 88.3447 31.6569 89.6389V183.484C31.6569 186.069 33.7597 188.172 36.3444 188.172H92.007C94.5917 188.172 96.6945 186.069 96.6945 183.484V77.8878H104.352V143.451C104.352 146.036 106.455 148.139 109.04 148.139H143.955V171.388C143.955 173.972 146.058 176.075 148.643 176.075H204.305C206.89 176.075 208.993 173.972 208.993 171.388V77.8878H213.281C217.158 77.8878 220.312 74.7336 220.312 70.8566V60.8867C224.099 60.7817 227.148 57.6762 227.148 53.8653V36.6992C227.148 32.8222 223.994 29.668 220.117 29.668ZM26.7186 73.2003C25.4263 73.2003 24.3748 72.1489 24.3748 70.8566V60.8966H104.352V73.2003H26.7186ZM109.04 60.8966H164.702V143.451H109.04V60.8966ZM213.281 73.2003H181.125C179.831 73.2003 178.782 74.2498 178.782 75.5441C178.782 76.8383 179.831 77.8878 181.125 77.8878H204.305V171.388H148.643V148.139H164.702C167.287 148.139 169.39 146.036 169.39 143.451V60.8966H215.625V70.8566C215.625 72.1489 214.573 73.2003 213.281 73.2003ZM222.461 53.8653C222.461 55.1577 221.409 56.2091 220.117 56.2091H19.8828C18.5905 56.2091 17.5391 55.1577 17.5391 53.8653V36.6992C17.5391 35.4069 18.5905 34.3555 19.8828 34.3555H220.117C221.41 34.3555 222.461 35.4069 222.461 36.6992V53.8653H222.461Z" fill="#1F4FDE"/>
<path d="M114.387 194.74C113.093 194.74 112.043 193.691 112.043 192.396C112.043 190.975 110.887 189.818 109.465 189.818C108.171 189.818 107.121 188.769 107.121 187.475C107.121 186.18 108.171 185.131 109.465 185.131C110.887 185.131 112.043 183.974 112.043 182.553C112.043 181.259 113.093 180.209 114.387 180.209C115.681 180.209 116.73 181.259 116.73 182.553C116.73 183.974 117.887 185.131 119.309 185.131C120.603 185.131 121.652 186.18 121.652 187.475C121.652 188.769 120.603 189.818 119.309 189.818C117.887 189.818 116.73 190.975 116.73 192.396C116.73 193.691 115.681 194.74 114.387 194.74Z" fill="#1F4FDE"/>
<path d="M52.7188 20.6738C51.4245 20.6738 50.375 19.6243 50.375 18.3301C50.375 16.9084 49.2186 15.752 47.7969 15.752C46.5027 15.752 45.4531 14.7024 45.4531 13.4082C45.4531 12.114 46.5027 11.0645 47.7969 11.0645C49.2186 11.0645 50.375 9.90805 50.375 8.48633C50.375 7.19211 51.4245 6.14258 52.7188 6.14258C54.013 6.14258 55.0625 7.19211 55.0625 8.48633C55.0625 9.90805 56.2189 11.0645 57.6406 11.0645C58.9348 11.0645 59.9844 12.114 59.9844 13.4082C59.9844 14.7024 58.9348 15.752 57.6406 15.752C56.2189 15.752 55.0625 16.9084 55.0625 18.3301C55.0625 19.6243 54.013 20.6738 52.7188 20.6738Z" fill="#1F4FDE"/>
<path d="M140.164 206.645C138.869 206.645 137.82 205.595 137.82 204.301C137.82 202.879 136.663 201.723 135.242 201.723C133.947 201.723 132.898 200.673 132.898 199.379C132.898 198.085 133.947 197.035 135.242 197.035C136.663 197.035 137.82 195.879 137.82 194.457C137.82 193.163 138.869 192.113 140.164 192.113C141.459 192.113 142.508 193.163 142.508 194.457C142.508 195.879 143.665 197.035 145.086 197.035C146.381 197.035 147.43 198.085 147.43 199.379C147.43 200.673 146.381 201.723 145.086 201.723C143.665 201.723 142.508 202.879 142.508 204.301C142.508 205.595 141.458 206.645 140.164 206.645Z" fill="#1F4FDE"/>
<path d="M85.6249 9.25344C85.0249 9.25344 84.4253 9.02469 83.9674 8.56719L81.4061 6.00594L78.8449 8.56719C77.9294 9.48219 76.4458 9.48219 75.5304 8.56719C74.6149 7.65172 74.6149 6.16766 75.5304 5.25266L79.7491 1.03391C80.6646 0.118906 82.1482 0.118906 83.0636 1.03391L87.2824 5.25266C88.1979 6.16812 88.1979 7.65219 87.2824 8.56719C86.8244 9.02469 86.2249 9.25344 85.6249 9.25344Z" fill="#1F4FDE"/>
<path d="M224.805 138.775C224.205 138.775 223.605 138.546 223.148 138.089L220.586 135.527L218.024 138.089C217.11 139.004 215.625 139.004 214.71 138.089C213.795 137.173 213.795 135.689 214.71 134.774L218.929 130.555C219.843 129.64 221.328 129.64 222.243 130.555L226.462 134.774C227.377 135.69 227.377 137.174 226.462 138.089C226.005 138.546 225.404 138.775 224.805 138.775Z" fill="#1F4FDE"/>
</g>
<defs>
<linearGradient id="paint0_linear_405_10283" x1="33.8966" y1="201.682" x2="215.669" y2="19.9096" gradientUnits="userSpaceOnUse">
<stop stop-color="#B7C5FF" stop-opacity="0"/>
<stop offset="0.2938" stop-color="#B7C5FF" stop-opacity="0.373"/>
<stop offset="0.7874" stop-color="#B7C5FF"/>
</linearGradient>
<clipPath id="clip0_405_10283">
<rect width="240" height="210" fill="white"/>
</clipPath>
</defs>
</svg>
