<svg width="36" height="36" viewBox="0 0 36 36" fill="none" xmlns="http://www.w3.org/2000/svg">
<path d="M3.09375 20.8652C2.98186 20.8652 2.87456 20.9097 2.79544 20.9888C2.71632 21.0679 2.67188 21.1752 2.67188 21.2871V21.7301C2.67188 21.842 2.71632 21.9493 2.79544 22.0284C2.87456 22.1075 2.98186 22.152 3.09375 22.152C3.20564 22.152 3.31294 22.1075 3.39206 22.0284C3.47118 21.9493 3.51562 21.842 3.51562 21.7301V21.2871C3.51562 21.1752 3.47118 21.0679 3.39206 20.9888C3.31294 20.9097 3.20564 20.8652 3.09375 20.8652Z" fill="#CFE7FE"/>
<path d="M3.09375 22.6445C2.98186 22.6445 2.87456 22.689 2.79544 22.7681C2.71632 22.8472 2.67188 22.9545 2.67188 23.0664V27.707C2.67188 27.8189 2.71632 27.9262 2.79544 28.0053C2.87456 28.0845 2.98186 28.1289 3.09375 28.1289C3.20564 28.1289 3.31294 28.0845 3.39206 28.0053C3.47118 27.9262 3.51562 27.8189 3.51562 27.707V23.0664C3.51562 22.9545 3.47118 22.8472 3.39206 22.7681C3.31294 22.689 3.20564 22.6445 3.09375 22.6445Z" fill="#CFE7FE"/>
<path d="M34.8142 16.1723H32.0628V2.29209C32.0659 2.23996 32.058 2.18777 32.0396 2.13891C32.0211 2.09006 31.9926 2.04563 31.9559 2.00853C31.9191 1.97144 31.875 1.9425 31.8263 1.92361C31.7776 1.90472 31.7255 1.8963 31.6733 1.8989H16.3171C16.2618 1.89626 16.2065 1.90487 16.1546 1.9242C16.1027 1.94354 16.0553 1.97321 16.0152 2.0114L13.1324 4.95391C13.0938 4.99135 13.0629 5.03605 13.0416 5.08543C13.0203 5.13481 13.0089 5.18792 13.0082 5.2417V16.1723H4.05035C3.99523 16.1715 3.9405 16.1816 3.8893 16.202C3.83811 16.2225 3.79147 16.2528 3.75208 16.2914L0.884878 19.1684C0.847483 19.2077 0.818381 19.2542 0.799297 19.3051C0.780214 19.3559 0.771538 19.4101 0.773785 19.4644V33.7088C0.771538 33.7614 0.780299 33.8138 0.799505 33.8628C0.818711 33.9118 0.84794 33.9562 0.885316 33.9932C0.922693 34.0303 0.967392 34.0591 1.01655 34.0778C1.06571 34.0965 1.11824 34.1048 1.17077 34.102H31.9503C32.0048 34.1046 32.0593 34.0963 32.1105 34.0775C32.1617 34.0588 32.2087 34.03 32.2486 33.9928L35.1158 31.1208C35.1532 31.0824 35.1823 31.0367 35.2014 30.9867C35.2205 30.9366 35.2292 30.8832 35.2269 30.8297V16.5851C35.2269 16.4756 35.1834 16.3706 35.106 16.2932C35.0286 16.2158 34.9236 16.1723 34.8142 16.1723ZM30.6548 2.74265L28.6192 4.78172H22.1342L24.1698 2.74265H30.6548ZM31.2191 3.31057V16.3618L29.2503 18.3974V5.34612L31.2191 3.31057ZM22.8519 5.62547V7.38328H19.4066V5.62547H22.8519ZM16.4946 2.74265H22.9766L20.941 4.78172H14.5074L16.4946 2.74265ZM13.8519 5.62547H18.5628V7.82892C18.5607 7.88181 18.5695 7.93458 18.5888 7.98388C18.6081 8.03319 18.6374 8.07796 18.6748 8.11537C18.7123 8.15278 18.7571 8.18202 18.8064 8.20124C18.8557 8.22046 18.9085 8.22924 18.9614 8.22703H23.2874C23.3408 8.22942 23.3941 8.22084 23.4441 8.20182C23.494 8.18279 23.5395 8.15372 23.5778 8.11641C23.616 8.0791 23.6462 8.03433 23.6665 7.98488C23.6868 7.93543 23.6967 7.88235 23.6957 7.82892V5.62547H28.4066V19.0552H23.555V15.5461C23.5564 15.4622 23.5323 15.3799 23.4859 15.3099C23.4395 15.24 23.3731 15.1857 23.2953 15.1542C23.2174 15.1228 23.1319 15.1157 23.05 15.1338C22.968 15.1519 22.8935 15.1944 22.8362 15.2557L22.4776 15.6354L22.101 15.2476C22.0621 15.207 22.0155 15.1747 21.9638 15.1523C21.9122 15.13 21.8567 15.1182 21.8005 15.1177H21.7993C21.7428 15.1183 21.6871 15.1303 21.6353 15.1529C21.5835 15.1754 21.5367 15.2081 21.4977 15.249L21.1244 15.6353L20.7512 15.2482C20.7121 15.2074 20.6654 15.1748 20.6136 15.1524C20.5617 15.13 20.506 15.1182 20.4495 15.1177H20.4484C20.3921 15.1183 20.3365 15.1301 20.2848 15.1523C20.2331 15.1746 20.1863 15.2069 20.1472 15.2475L19.77 15.6336L19.4097 15.2548C19.3538 15.1938 19.2805 15.1515 19.1998 15.1334C19.119 15.1154 19.0347 15.1225 18.9581 15.1539C18.881 15.1859 18.8154 15.2405 18.7699 15.3105C18.7244 15.3805 18.7013 15.4627 18.7035 15.5461V19.0552H13.8519V5.62547ZM22.5707 19.8989H26.016V21.727H22.5707V19.8989ZM19.5472 19.0552V16.5901C19.6127 16.6375 19.6913 16.6636 19.7722 16.6645C19.828 16.6642 19.8831 16.6528 19.9344 16.6311C19.9858 16.6094 20.0323 16.5777 20.0714 16.538L20.4493 16.1501L20.8228 16.5368C20.8621 16.5773 20.909 16.6095 20.961 16.6316C21.0129 16.6536 21.0688 16.6649 21.1252 16.6649C21.1816 16.6649 21.2374 16.6536 21.2894 16.6316C21.3413 16.6095 21.3883 16.5773 21.4275 16.5368L21.8022 16.1501L22.1827 16.538C22.2216 16.5778 22.268 16.6095 22.3193 16.6313C22.3705 16.653 22.4256 16.6643 22.4813 16.6645C22.5637 16.6636 22.644 16.6377 22.7113 16.5901V19.0552H19.5472ZM13.0082 17.0161V19.0552H9.86744L11.903 17.0161H13.0082ZM10.6175 19.8989V21.727H7.10191V19.8989H10.6175ZM4.22486 17.0161H10.7099L8.67424 19.0552H2.18925L4.22486 17.0161ZM10.4769 33.2583H7.24253V30.8831C7.31504 30.931 7.39981 30.9568 7.48666 30.9577C7.6022 30.9578 7.71312 30.9123 7.79533 30.8311L8.17797 30.4432L8.55386 30.8299C8.59326 30.8704 8.64039 30.9026 8.69245 30.9246C8.74452 30.9466 8.80046 30.9579 8.85698 30.9579C8.9135 30.9579 8.96944 30.9466 9.02151 30.9246C9.07357 30.9026 9.1207 30.8704 9.1601 30.8299L9.53514 30.4432L9.91575 30.8311C9.99983 30.9133 10.1131 30.9588 10.2307 30.9577C10.3181 30.9568 10.4035 30.9309 10.4768 30.8831L10.4769 33.2583ZM25.8753 33.2583H22.7113V30.8831C22.7754 30.9306 22.8529 30.9567 22.9328 30.9577C22.9883 30.9576 23.0432 30.9464 23.0943 30.9246C23.1454 30.9029 23.1916 30.8711 23.2301 30.8311L23.6071 30.4432L23.9801 30.8299C24.0193 30.8704 24.0662 30.9026 24.1181 30.9246C24.17 30.9466 24.2258 30.9579 24.2822 30.9579C24.3385 30.9579 24.3943 30.9466 24.4462 30.9246C24.4981 30.9026 24.5451 30.8704 24.5843 30.8299L24.9589 30.4432L25.3394 30.8311C25.3784 30.8717 25.4254 30.9039 25.4774 30.9257C25.5294 30.9475 25.5853 30.9583 25.6417 30.9577C25.7253 30.9568 25.8067 30.9308 25.8753 30.8831V33.2583ZM31.5003 33.2583H26.7191V29.8391C26.7195 29.755 26.6947 29.6726 26.6477 29.6028C26.6007 29.533 26.5339 29.4789 26.4558 29.4476C26.3777 29.4163 26.292 29.4092 26.2098 29.4272C26.1276 29.4452 26.0527 29.4875 25.9949 29.5487L25.6351 29.9283L25.2581 29.5307C25.1802 29.4462 25.072 29.3959 24.9571 29.3911H24.9559C24.8989 29.3936 24.8428 29.4074 24.7911 29.4316C24.7393 29.4558 24.6928 29.49 24.6543 29.5322L24.281 29.9234L23.9078 29.529C23.8691 29.4872 23.8225 29.4535 23.7708 29.4298C23.719 29.4062 23.663 29.393 23.6062 29.3911H23.605C23.4901 29.396 23.3818 29.4462 23.3038 29.5307L22.9267 29.9217L22.5663 29.5454C22.5111 29.4846 22.4384 29.4424 22.3582 29.4246C22.278 29.4067 22.1943 29.4141 22.1185 29.4457C22.0417 29.4782 21.9765 29.5332 21.9317 29.6035C21.8869 29.6738 21.8645 29.7561 21.8675 29.8395V33.2583H17.016V25.1723C17.016 25.0605 16.9715 24.9531 16.8924 24.874C16.8133 24.7949 16.706 24.7505 16.5941 24.7505C16.4822 24.7505 16.3749 24.7949 16.2958 24.874C16.2167 24.9531 16.1722 25.0605 16.1722 25.1723V33.2583H11.3207V29.8391C11.3183 29.754 11.291 29.6715 11.242 29.6018C11.1931 29.5322 11.1247 29.4785 11.0454 29.4475C10.9661 29.4165 10.8794 29.4096 10.7962 29.4276C10.7129 29.4456 10.6369 29.4877 10.5775 29.5487L10.2146 29.9283L9.83608 29.5307C9.75763 29.4462 9.64897 29.396 9.53374 29.3912H9.53261C9.47552 29.3937 9.41949 29.4074 9.36773 29.4317C9.31597 29.4559 9.26949 29.4901 9.23097 29.5323L8.85768 29.9235L8.48446 29.529C8.44579 29.4873 8.39922 29.4536 8.34745 29.4299C8.29567 29.4062 8.23972 29.3931 8.18282 29.3912H8.1817C8.0668 29.3961 7.95852 29.4463 7.88048 29.5307L7.50332 29.9218L7.14297 29.5455C7.08323 29.4845 7.00682 29.4424 6.92331 29.4246C6.83979 29.4068 6.75288 29.414 6.67345 29.4454C6.59402 29.4767 6.52559 29.5308 6.47673 29.6008C6.42788 29.6709 6.40077 29.7538 6.39878 29.8391V33.2583H1.61753V19.8989H6.25816V22.1219C6.26044 22.2381 6.30679 22.3491 6.38783 22.4325C6.46887 22.5158 6.57855 22.5653 6.69466 22.5708H11.0206C11.1372 22.5654 11.2474 22.5162 11.3291 22.4329C11.4109 22.3496 11.4581 22.2385 11.4613 22.1219V19.8989H16.1722V22.3598C16.1722 22.4717 16.2167 22.579 16.2958 22.6582C16.3749 22.7373 16.4822 22.7817 16.5941 22.7817C16.706 22.7817 16.8133 22.7373 16.8924 22.6582C16.9715 22.579 17.016 22.4717 17.016 22.3598V19.8989H21.7269V22.1219C21.7269 22.3549 21.885 22.5708 22.1181 22.5708H26.444C26.6771 22.5708 26.8597 22.3549 26.8597 22.1219V19.8989H31.5003V33.2583ZM31.7758 19.0552L29.6758 19.0528L31.767 17.0161H33.8024L31.7758 19.0552ZM34.3832 30.6548L32.3441 32.6625V19.6392L34.3832 17.6282V30.6548Z" fill="#CFE7FE"/>
</svg>
