<svg width="240" height="230" viewBox="0 0 240 230" fill="none" xmlns="http://www.w3.org/2000/svg">
<path d="M237.135 161.786C226.898 115.722 214.006 90.2156 236.558 41.6131C247.8 17.3841 224.924 0.42885 203.927 10.9272C191.009 17.3859 189.835 33.2218 187.703 43.9413C185.812 53.4489 173.233 54.5469 164.205 51.0143C113.639 31.2242 133.394 93.0303 92.5408 114.108C64.2895 128.684 33.2609 144.392 17.1318 173.662C7.43013 191.268 8.91717 235.911 35.1637 228.711C73.1771 218.284 106.405 172.62 149.819 188.629C170.322 196.19 178.736 225.667 201.726 228.029C235.36 231.486 243.067 188.474 237.135 161.786Z" fill="url(#paint0_linear_1260_6842)"/>
<g clip-path="url(#clip0_1260_6842)">
<path d="M174.229 32.002V117.339H46.2232C42.3005 117.351 39.1235 120.528 39.1118 124.45V167.119H17.7775C9.92246 167.119 3.55469 160.751 3.55469 152.896V32.002H174.229Z" fill="#E8EDFC"/>
<path d="M28.4453 124.451V167.12H39.1124V124.451C39.1241 120.529 42.3012 117.352 46.2238 117.34H35.5567C31.6341 117.352 28.457 120.529 28.4453 124.451Z" fill="#1F4FDE"/>
<path d="M163.562 32.002H174.23V117.339H163.562V32.002Z" fill="#1F4FDE"/>
<path d="M174.229 17.7795V32.0023H3.55469V17.7795C3.55469 9.92442 9.92246 3.55664 17.7775 3.55664H160.006C167.861 3.55664 174.229 9.92442 174.229 17.7795Z" fill="#9BACF2"/>
<path d="M160.007 3.55664H149.34C157.195 3.55664 163.563 9.92442 163.563 17.7795V32.0023H174.23V17.7795C174.23 9.92442 167.862 3.55664 160.007 3.55664Z" fill="#7FACFA"/>
<path d="M202.676 117.34H46.2247C42.2972 117.34 39.1133 120.524 39.1133 124.451V202.677C39.1133 206.604 42.2972 209.788 46.2247 209.788H202.676C206.603 209.788 209.787 206.604 209.787 202.677V124.451C209.787 120.524 206.603 117.34 202.676 117.34Z" fill="#E8EDFC"/>
<path d="M202.675 117.34H192.008C195.93 117.352 199.108 120.529 199.119 124.451V202.677C199.108 206.599 195.93 209.776 192.008 209.788H202.675C206.598 209.776 209.775 206.599 209.786 202.677V124.451C209.775 120.529 206.598 117.352 202.675 117.34Z" fill="#1F4FDE"/>
<path d="M195.564 146.109V181.019C187.622 181.113 181.256 187.623 181.341 195.565H67.5588C67.6437 187.623 61.2785 181.113 53.3359 181.019V146.109C61.2785 146.015 67.6437 139.505 67.5588 131.562H181.341C181.256 139.505 187.622 146.015 195.564 146.109Z" fill="#1F4FDE"/>
<path d="M124.451 195.565C142.124 195.565 156.452 181.238 156.452 163.564C156.452 145.89 142.124 131.562 124.451 131.562C106.777 131.562 92.4492 145.89 92.4492 163.564C92.4492 181.238 106.777 195.565 124.451 195.565Z" fill="#E8EDFC"/>
<path d="M138.671 117.34V115.075C138.829 103.746 134.647 92.7864 126.983 84.4423C118.943 75.9076 107.728 71.0831 96.0022 71.1156H81.7794C79.8156 71.1156 78.2237 69.5236 78.2237 67.5598V61.3374C78.2394 59.6141 77.2466 58.0407 75.6843 57.3132C74.1221 56.5857 72.2789 56.8384 70.9701 57.9594L51.307 74.8846C50.3334 75.7222 49.7734 76.9427 49.7734 78.227C49.7734 79.5113 50.3334 80.7317 51.307 81.5693L70.9701 98.4945C72.2789 99.6155 74.1221 99.8682 75.6843 99.1407C77.2466 98.4132 78.2394 96.8398 78.2237 95.1166V88.8941C78.2237 86.9303 79.8156 85.3384 81.7794 85.3384H96.0022C100.328 85.2642 104.609 86.2223 108.49 88.1332C118.249 92.9595 124.431 102.897 124.448 113.784V117.34H138.671Z" fill="#9BACF2"/>
<path d="M17.7775 167.119H28.4446C20.5896 167.119 14.2218 160.751 14.2218 152.896V17.7795C14.2218 9.92442 20.5896 3.55664 28.4446 3.55664H17.7775C9.92246 3.55664 3.55469 9.92442 3.55469 17.7795V152.896C3.55469 160.751 9.92246 167.119 17.7775 167.119Z" fill="white"/>
<path d="M0 124.449H7.11141V152.895H0V124.449Z" fill="white"/>
<path d="M3.62822 142.229C1.66446 142.238 0.0645517 140.654 0.0547329 138.691C0.0449141 136.727 1.6289 135.127 3.59266 135.117H3.62822C5.59198 135.117 7.18392 136.709 7.18392 138.673C7.18392 140.637 5.59198 142.229 3.62822 142.229Z" fill="#1F4FDE"/>
<path d="M17.7784 21.3341C19.7421 21.3341 21.3341 19.7421 21.3341 17.7784C21.3341 15.8146 19.7421 14.2227 17.7784 14.2227C15.8146 14.2227 14.2227 15.8146 14.2227 17.7784C14.2227 19.7421 15.8146 21.3341 17.7784 21.3341Z" fill="#1F4FDE"/>
<path d="M32.001 21.3341C33.9648 21.3341 35.5567 19.7421 35.5567 17.7784C35.5567 15.8146 33.9648 14.2227 32.001 14.2227C30.0373 14.2227 28.4453 15.8146 28.4453 17.7784C28.4453 19.7421 30.0373 21.3341 32.001 21.3341Z" fill="#1F4FDE"/>
<path d="M46.2237 21.3341C48.1874 21.3341 49.7794 19.7421 49.7794 17.7784C49.7794 15.8146 48.1874 14.2227 46.2237 14.2227C44.2599 14.2227 42.668 15.8146 42.668 17.7784C42.668 19.7421 44.2599 21.3341 46.2237 21.3341Z" fill="#1F4FDE"/>
<path d="M106.671 14.2227H71.1143C69.1505 14.2227 67.5586 15.8146 67.5586 17.7784C67.5586 19.7421 69.1505 21.3341 71.1143 21.3341H106.671C108.635 21.3341 110.227 19.7421 110.227 17.7784C110.227 15.8146 108.635 14.2227 106.671 14.2227Z" fill="#1F4FDE"/>
<path d="M202.675 113.783H177.785V17.7785C177.774 7.96459 169.821 0.0117556 160.007 0H17.7785C7.96459 0.0117556 0.0117556 7.96459 0 17.7785V124.45C0 126.413 1.59194 128.005 3.55571 128.005C5.51947 128.005 7.11141 126.413 7.11141 124.45V35.5571H170.674V113.783H142.175C142.07 101.988 137.576 90.6557 129.57 81.9946C120.866 72.7379 108.71 67.5098 96.0041 67.5584H81.7812V61.3359C81.7966 58.2232 79.9941 55.3878 77.169 54.0809C74.3439 52.7739 71.0159 53.2358 68.6536 55.2628L48.9905 72.1808C47.2281 73.6946 46.2141 75.9022 46.2141 78.2255C46.2141 80.5488 47.2281 82.7564 48.9905 84.2702L68.65 101.195C71.0132 103.226 74.3444 103.688 77.1715 102.379C79.9986 101.07 81.8006 98.2305 81.7812 95.1151V88.8927H96.0041C99.7636 88.8127 103.488 89.6358 106.863 91.2927C115.446 95.5006 120.888 104.224 120.894 113.783H46.2242C43.3951 113.783 40.6819 114.906 38.6814 116.907C36.6809 118.907 35.5571 121.621 35.5571 124.45V163.562H17.7785C11.8872 163.562 7.11141 158.787 7.11141 152.895C7.11141 150.932 5.51947 149.34 3.55571 149.34C1.59194 149.34 0 150.932 0 152.895C0.0117556 162.709 7.96459 170.662 17.7785 170.674H35.5571V202.675C35.5571 208.567 40.3329 213.342 46.2242 213.342H202.675C208.567 213.342 213.342 208.567 213.342 202.675V124.45C213.342 118.558 208.567 113.783 202.675 113.783ZM7.11141 28.4456V17.7785C7.11141 11.8872 11.8872 7.11141 17.7785 7.11141H160.007C165.898 7.11141 170.674 11.8872 170.674 17.7785V28.4456H7.11141ZM110.134 84.9814C105.749 82.7969 100.903 81.6994 96.0041 81.7812H81.7812C77.8537 81.7812 74.6698 84.9651 74.6698 88.8927V95.1151C74.6878 95.4643 74.4883 95.7882 74.1685 95.9294C73.8776 96.0775 73.5249 96.0247 73.2902 95.7978L53.6307 78.8762C53.4418 78.7128 53.3333 78.4753 53.3333 78.2255C53.3333 77.9757 53.4418 77.7383 53.6307 77.5748L73.2973 60.6532C73.5288 60.4228 73.8831 60.3695 74.172 60.5217C74.4905 60.6639 74.6884 60.9876 74.6698 61.3359V67.5584C74.6698 71.4859 77.8537 74.6698 81.7812 74.6698H96.0041C106.755 74.6326 117.039 79.0582 124.403 86.8908C131.161 94.2281 134.961 103.808 135.071 113.783H128.005C128.024 101.561 121.093 90.3915 110.134 84.9814ZM206.231 202.675C206.231 204.639 204.639 206.231 202.675 206.231H46.2242C44.2604 206.231 42.6685 204.639 42.6685 202.675V124.45C42.6685 122.486 44.2604 120.894 46.2242 120.894H202.675C204.639 120.894 206.231 122.486 206.231 124.45V202.675Z" fill="#1F4FDE"/>
<path d="M195.565 142.552C189.588 142.455 184.817 137.539 184.898 131.562C184.898 129.598 183.306 128.006 181.342 128.006H67.5598C65.596 128.006 64.0041 129.598 64.0041 131.562C64.0852 137.539 59.3141 142.455 53.337 142.552C51.3732 142.552 49.7812 144.144 49.7812 146.108V181.018C49.7812 182.982 51.3732 184.574 53.337 184.574C59.3141 184.671 64.0852 189.587 64.0041 195.564C64.0041 197.528 65.596 199.12 67.5598 199.12H181.342C183.306 199.12 184.898 197.528 184.898 195.564C184.817 189.587 189.588 184.671 195.565 184.574C197.529 184.574 199.121 182.982 199.121 181.018V146.108C199.121 144.144 197.529 142.552 195.565 142.552ZM152.897 163.563C152.897 179.273 140.161 192.009 124.451 192.009C108.741 192.009 96.0054 179.273 96.0054 163.563C96.0054 147.853 108.741 135.117 124.451 135.117C140.154 135.135 152.879 147.86 152.897 163.563ZM70.7599 192.009C69.3936 184.932 63.9373 179.352 56.8927 177.828V149.297C63.9373 147.774 69.3936 142.194 70.7599 135.117H103.199C94.1927 141.798 88.8825 152.349 88.8825 163.563C88.8825 174.776 94.1927 185.328 103.199 192.009H70.7599ZM192.01 177.828C184.965 179.352 179.509 184.932 178.142 192.009H145.693C154.699 185.328 160.009 174.776 160.009 163.563C160.009 152.349 154.699 141.798 145.693 135.117H178.142C179.509 142.194 184.965 147.774 192.01 149.297V177.828Z" fill="#1F4FDE"/>
<path d="M124.449 167.118C126.174 167.12 127.649 168.36 127.947 170.059C128.246 171.758 127.281 173.426 125.66 174.016C124.039 174.605 122.228 173.946 121.366 172.452C120.355 170.818 118.228 170.282 116.563 171.244C114.899 172.205 114.3 174.315 115.211 176.008C116.502 178.172 118.517 179.81 120.9 180.63V181.341C120.9 183.305 122.492 184.897 124.456 184.897C126.419 184.897 128.011 183.305 128.011 181.341V180.687C132.907 178.963 135.845 173.958 134.964 168.842C134.082 163.727 129.639 159.994 124.449 160.007C122.723 160.005 121.248 158.766 120.95 157.067C120.651 155.367 121.616 153.699 123.237 153.11C124.858 152.52 126.669 153.179 127.531 154.673C128.543 156.308 130.67 156.843 132.334 155.882C133.998 154.92 134.597 152.81 133.686 151.118C132.397 148.955 130.384 147.317 128.004 146.495V145.784C128.004 143.82 126.412 142.229 124.449 142.229C122.485 142.229 120.893 143.82 120.893 145.784V146.438C115.998 148.162 113.061 153.165 113.94 158.28C114.819 163.394 119.259 167.128 124.449 167.118Z" fill="#1F4FDE"/>
</g>
<defs>
<linearGradient id="paint0_linear_1260_6842" x1="54.9871" y1="260.713" x2="267.436" y2="48.2649" gradientUnits="userSpaceOnUse">
<stop stop-color="#D1DDFF" stop-opacity="0"/>
<stop offset="1" stop-color="#B6C4FF"/>
</linearGradient>
<clipPath id="clip0_1260_6842">
<rect width="213.342" height="213.342" fill="white"/>
</clipPath>
</defs>
</svg>
