<svg width="255" height="230" viewBox="0 0 255 230" fill="none" xmlns="http://www.w3.org/2000/svg">
<path d="M246.392 100.048C240.872 77.0508 210.108 68.9485 191.621 69.9063C166.95 71.1843 155.772 63.4041 161.179 38.2511C164.268 23.8783 167.377 14.1001 145.115 6.51951C125.888 -0.0264676 63.8728 -7.13187 50.9577 15.0058C44.6551 25.8093 67.8534 35.6634 56.9056 50.2605C49.1826 60.5581 26.2966 52.944 13.9297 68.8382C5.15353 80.1174 10.6835 98.5965 33.597 108.4C53.1195 116.752 81.8375 121.568 87.0962 145.65C89.7323 157.721 76.2796 174.635 83.0267 192.402C88.2406 206.132 103.942 212.193 124.675 192.028C165.586 152.239 156.934 209.049 163.141 220.676C170.253 233.996 194.858 228.545 205.916 217.4C236.149 186.926 254.366 133.271 246.392 100.048Z" fill="url(#paint0_linear_1260_7557)"/>
<path d="M125.841 34.3728L87.0063 54.169L48.1719 34.3728C48.7515 33.377 49.4847 32.7627 50.0296 32.4159L50.8173 32.0097C50.8223 32.0047 50.8272 32.0047 50.8272 32.0047L82.845 15.6813C85.4557 14.3536 88.547 14.3536 91.1578 15.6813L123.18 32.0047L123.978 32.4159C124.523 32.7627 125.256 33.377 125.841 34.3728Z" fill="#E8EDFC"/>
<path d="M125.845 34.3728L87.0102 54.169L79.5792 50.3791L107.064 36.3871C109.116 35.3423 109.117 32.411 107.065 31.3652L79.5742 17.3508L82.8488 15.6813C85.4596 14.3536 88.5509 14.3536 91.1616 15.6813L123.184 32.0047L123.982 32.4159C124.527 32.7627 125.26 33.377 125.845 34.3728Z" fill="#A2AEE6"/>
<path d="M166.648 120.542L126.825 100.238L87.0039 120.54L126.827 140.844L166.648 120.542Z" fill="#4A76F8"/>
<path d="M166.651 120.543L126.826 140.844L119.395 137.054L146.864 123.053C148.915 122.008 148.915 119.077 146.864 118.032L119.395 104.026L126.826 100.236L166.651 120.543Z" fill="#1F4FDE"/>
<path d="M166.648 79.9358L126.825 59.6328L87.0039 79.9348L126.827 100.238L166.648 79.9358Z" fill="#9BACF2"/>
<path d="M166.646 79.9343L126.826 100.236L119.395 96.446L146.859 82.4445C148.91 81.3992 148.91 78.4689 146.859 77.4236L119.395 63.4226L126.826 59.6328L166.646 79.9343Z" fill="#1F4FDE"/>
<path d="M206.468 100.239L166.645 79.9355L126.824 100.238L166.647 120.542L206.468 100.239Z" fill="#9BACF2"/>
<path d="M206.468 100.242L166.647 120.544L159.216 116.754L186.681 102.752C188.732 101.707 188.732 98.7766 186.681 97.7313L159.211 83.7254L166.642 79.9355L206.468 100.242Z" fill="#1F4FDE"/>
<path d="M87.006 54.1692V120.543L47.1758 100.241L47.1807 38.4254C47.1807 36.642 47.6068 35.3292 48.1715 34.373L87.006 54.1692Z" fill="#E8EDFC"/>
<path d="M87.0065 54.1689V120.542L72.1445 112.968V46.5938L87.0065 54.1689Z" fill="#BEC6ED"/>
<path d="M126.829 100.241L87.0039 120.543V54.1692L125.838 34.373C126.398 35.3292 126.824 36.642 126.824 38.4254L126.829 100.241Z" fill="#E8EDFC"/>
<path d="M126.829 100.241L87.0039 120.543V112.968L108.012 102.258C110.439 101.02 111.967 98.5264 111.967 95.8022L111.962 41.4474L125.838 34.373C126.398 35.3292 126.824 36.642 126.824 38.4254L126.829 100.241Z" fill="#BEC6ED"/>
<path d="M126.823 140.843V215.955C125.075 215.955 123.327 215.545 121.717 214.723L53.6338 180.015C49.6835 178.004 47.1758 173.833 47.1758 169.276V100.24L126.823 140.843Z" fill="#E8EDFC"/>
<path d="M126.821 140.845V215.958C125.073 215.958 123.324 215.547 121.719 214.724L111.959 209.75V140.845L47.1758 107.817V100.242L126.821 140.845Z" fill="#A2AEE6"/>
<path d="M206.467 100.24L206.461 169.277C206.461 173.836 203.961 178.003 200.007 180.015L131.927 214.724C130.317 215.546 128.569 215.957 126.82 215.957V140.844L206.467 100.24Z" fill="#E8EDFC"/>
<path d="M206.466 100.242L206.461 169.276C206.461 173.839 203.959 178.005 200.006 180.017L131.928 214.724C130.318 215.547 128.569 215.958 126.82 215.958V209.75L185.144 180.017C189.097 178.005 191.599 173.839 191.599 169.276L191.604 107.817L206.466 100.242Z" fill="#BEC6ED"/>
<path d="M47.1756 100.24L5.88693 121.29C2.99082 122.767 2.99082 126.905 5.88693 128.381L73.521 162.86C76.6985 164.48 80.46 164.48 83.6375 162.86L126.822 140.844L47.1756 100.24Z" fill="#E8EDFC"/>
<path d="M126.823 140.845L83.6386 162.861C80.4631 164.481 76.698 164.481 73.5225 162.861L71.1495 161.652L105.137 144.324C107.979 142.875 107.979 138.816 105.137 137.367L39.7461 104.032L47.1771 100.242L126.823 140.845Z" fill="#4F66D0"/>
<path d="M206.466 100.24L247.755 121.29C250.651 122.767 250.651 126.905 247.755 128.381L180.121 162.86C176.943 164.48 173.182 164.48 170.004 162.86L126.82 140.844L206.466 100.24Z" fill="#E8EDFC"/>
<path d="M247.759 128.381L180.122 162.861C176.946 164.481 173.181 164.481 170.006 162.861L167.633 161.652L232.897 128.381C235.79 126.905 235.79 122.768 232.897 121.292L199.036 104.032L206.467 100.242L247.759 121.292C250.652 122.768 250.652 126.905 247.759 128.381Z" fill="#4F66D0"/>
<path d="M249.445 117.981L232.716 109.452C230.889 108.52 228.651 109.246 227.718 111.075C226.786 112.903 227.513 115.14 229.341 116.072L246.069 124.601C246.13 124.632 246.214 124.674 246.214 124.836C246.214 124.998 246.13 125.04 246.069 125.072L178.435 159.551C176.324 160.627 173.805 160.627 171.694 159.551L135.005 140.846L206.469 104.412L214.148 108.328C215.975 109.26 218.213 108.533 219.146 106.705C220.078 104.877 219.351 102.639 217.523 101.708L208.17 96.9388C208.165 96.9363 208.161 96.9334 208.156 96.9309L145.965 65.2223C144.138 64.2899 141.9 65.0162 140.968 66.8447C140.035 68.6728 140.762 70.9105 142.59 71.8423L158.467 79.9372L130.544 94.1725L130.54 38.4266C130.642 35.3318 128.925 30.7875 125.679 29.115L92.84 12.371C89.183 10.5113 84.8165 10.5118 81.1555 12.3725L69.7415 18.1919C67.9135 19.1238 67.1867 21.3615 68.119 23.1895C69.0509 25.0176 71.2891 25.7433 73.1166 24.812L84.5272 18.9945C86.0748 18.2073 87.9237 18.2073 89.4688 18.993L118.65 33.8684L87.0052 50.0001L55.356 33.8659L57.9039 32.567C59.7319 31.6351 60.4587 29.3974 59.5263 27.5694C58.594 25.7414 56.3563 25.0151 54.5287 25.9469L49.1482 28.69C46.0712 29.9433 43.3936 33.9516 43.4635 38.4256L43.4585 97.9663L4.2 117.981C1.60956 119.302 -0.000495286 121.929 1.1429e-07 124.836C1.1429e-07 127.744 1.60906 130.371 4.2 131.691L43.4605 151.706V169.277C43.4605 175.186 46.7925 180.701 51.9467 183.325L120.029 218.033C122.103 219.091 124.421 219.654 126.738 219.668C126.767 219.669 126.794 219.673 126.823 219.673C129.168 219.673 131.518 219.106 133.617 218.034L201.695 183.326C206.928 180.663 210.18 175.279 210.18 169.278L210.181 151.708L249.445 131.692C252.035 130.371 253.645 127.744 253.645 124.836C253.645 121.929 252.035 119.302 249.445 117.981ZM50.8895 97.9643L50.895 39.9331L83.2892 56.4463V114.479L50.8895 97.9643ZM126.83 104.412L158.467 120.542L126.825 136.673L95.1867 120.543L126.83 104.412ZM90.7197 114.476V56.4463L123.109 39.9356L123.114 97.9603L90.7197 114.476ZM166.646 84.1074L198.288 100.241L166.648 116.372L135.005 100.239L166.646 84.1074ZM7.43101 124.836C7.43051 124.675 7.51423 124.632 7.57467 124.601L47.1745 104.412L118.642 140.845L81.9501 159.551C79.8397 160.627 77.3191 160.627 75.2092 159.551L7.57517 125.071C7.51374 125.04 7.43101 124.998 7.43101 124.836ZM55.3194 176.705C52.6294 175.335 50.8915 172.42 50.8915 169.278V155.495L71.834 166.172C73.9459 167.249 76.2624 167.787 78.5794 167.787C80.8964 167.787 83.2134 167.248 85.3253 166.171L123.107 146.909V211.262L55.3194 176.705ZM202.748 169.278C202.748 172.422 201.012 175.337 198.322 176.706L130.539 211.263V146.91L168.319 166.171C170.431 167.248 172.748 167.787 175.065 167.787C177.382 167.787 179.699 167.248 181.81 166.172L202.749 155.497L202.748 169.278Z" fill="#1F4FDE"/>
<defs>
<linearGradient id="paint0_linear_1260_7557" x1="9.97656" y1="114.248" x2="248.266" y2="114.248" gradientUnits="userSpaceOnUse">
<stop stop-color="#D2DEFF" stop-opacity="0"/>
<stop offset="1" stop-color="#B7C5FF"/>
</linearGradient>
</defs>
</svg>
