<svg width="261" height="120" viewBox="0 0 261 120" fill="none" xmlns="http://www.w3.org/2000/svg">
<path d="M0.5625 97.5312V78.2344L49.0781 1.59375H65.7969V28.4688H55.875L25.25 76.9062V77.8438H94.3906V97.5312H0.5625ZM56.3438 118V91.6719L56.8125 83V1.59375H79.9375V118H56.3438ZM151.188 119.562C141.292 119.562 132.828 117.219 125.797 112.531C118.818 107.792 113.453 100.995 109.703 92.1406C106.005 83.2344 104.156 72.4792 104.156 59.875C104.156 47.3229 106.031 36.5938 109.781 27.6875C113.531 18.7292 118.896 11.8802 125.875 7.14062C132.906 2.40104 141.344 0.03125 151.188 0.03125C161.083 0.03125 169.521 2.40104 176.5 7.14062C183.531 11.8802 188.896 18.7031 192.594 27.6094C196.344 36.5156 198.219 47.2708 198.219 59.875C198.219 72.4792 196.37 83.2344 192.672 92.1406C188.974 100.995 183.609 107.792 176.578 112.531C169.599 117.219 161.135 119.562 151.188 119.562ZM151.188 99.25C155.927 99.25 159.911 97.7396 163.141 94.7188C166.422 91.6458 168.896 87.1667 170.562 81.2812C172.281 75.3958 173.141 68.2604 173.141 59.875C173.141 51.4375 172.281 44.276 170.562 38.3906C168.896 32.5052 166.422 28.026 163.141 24.9531C159.911 21.8281 155.927 20.2656 151.188 20.2656C144.156 20.2656 138.74 23.7292 134.938 30.6562C131.135 37.5312 129.234 47.2708 129.234 59.875C129.234 68.2604 130.068 75.3958 131.734 81.2812C133.453 87.1667 135.953 91.6458 139.234 94.7188C142.516 97.7396 146.5 99.25 151.188 99.25ZM260.016 1.59375V118H235.484V24.9531H234.781L208.219 41.75V19.875L236.969 1.59375H260.016Z" fill="#3D72F9"/>
</svg>
