<svg width="643" height="450" viewBox="0 0 643 450" fill="none" xmlns="http://www.w3.org/2000/svg">
<g clip-path="url(#clip0_415_9098)">
<path d="M528.894 171.531C528.515 169.095 526.234 167.43 523.79 167.809C521.354 168.188 519.69 170.476 520.069 172.913C520.707 177.073 521.525 190.103 517.03 195.34C516.057 196.477 514.883 197.153 513.405 197.428L513.813 172.616C513.873 169.013 510.968 166.056 507.358 166.056C503.747 166.056 500.813 169.042 500.902 172.668L502.069 219.759C500.523 219.506 499.298 218.83 498.295 217.657C493.8 212.412 494.617 199.389 495.256 195.229C495.635 192.792 493.971 190.512 491.534 190.125C489.09 189.747 486.817 191.411 486.431 193.847C486.111 195.898 483.526 214.135 491.505 223.459C494.246 226.66 497.96 228.48 502.291 228.763L502.797 249.259H512.543L513.249 206.439C517.483 206.112 521.116 204.3 523.813 201.15C531.784 191.834 529.206 173.589 528.886 171.539L528.894 171.531Z" fill="#A6CEA5"/>
<path d="M112.881 211.454C112.636 209.901 111.187 208.839 109.627 209.084C108.074 209.329 107.012 210.785 107.257 212.338C107.666 214.99 108.186 223.295 105.318 226.638C104.694 227.359 103.951 227.797 103.008 227.968L103.268 212.152C103.305 209.856 101.455 207.969 99.1523 207.969C96.8494 207.969 94.9847 209.871 95.0367 212.189L95.7796 242.209C94.7916 242.053 94.0116 241.615 93.3727 240.864C90.5052 237.521 91.0252 229.216 91.4338 226.564C91.6789 225.011 90.6166 223.555 89.064 223.31C87.5114 223.065 86.0553 224.127 85.8102 225.68C85.6022 226.987 83.9604 238.613 89.0417 244.556C90.7875 246.599 93.1572 247.758 95.9208 247.936L96.2476 261.004H102.458L102.911 233.703C105.615 233.495 107.926 232.343 109.642 230.33C114.723 224.387 113.081 212.761 112.873 211.454H112.881Z" fill="#A6CEA5"/>
<path d="M321.303 450C498.754 450 642.607 399.072 642.607 336.25C642.607 273.428 498.754 222.5 321.303 222.5C143.852 222.5 0 273.428 0 336.25C0 399.072 143.852 450 321.303 450Z" fill="url(#paint0_linear_415_9098)"/>
<path d="M331.919 151.005C331.392 150.225 330.337 150.017 329.557 150.545C328.777 151.072 328.569 152.127 329.096 152.907C329.988 154.237 332.372 158.605 331.667 161.146C331.511 161.695 331.221 162.119 330.753 162.453L326.89 153.821C326.325 152.565 324.847 152.016 323.606 152.595C322.351 153.182 321.831 154.683 322.447 155.923L330.448 171.999C329.876 172.163 329.341 172.125 328.806 171.88C326.407 170.796 324.587 166.168 324.141 164.622C323.881 163.716 322.938 163.203 322.031 163.463C321.125 163.723 320.612 164.667 320.872 165.573C321.095 166.331 323.146 173.047 327.402 174.978C328.866 175.639 330.441 175.669 331.986 175.067L335.47 182.065L338.835 180.49L332.172 165.588C333.583 164.793 334.541 163.582 334.965 162.059C336.213 157.558 332.38 151.674 331.941 151.02L331.919 151.005Z" fill="#BDBDBD"/>
<path d="M268.232 191.619C268.232 192.77 267.303 193.699 266.152 193.699C265 193.699 264.072 192.77 264.072 191.619C264.072 190.467 265 189.539 266.152 189.539C267.303 189.539 268.232 190.467 268.232 191.619Z" fill="#BDBDBD"/>
<path d="M364.747 154.787C364.747 155.656 364.041 156.362 363.172 156.362C362.303 156.362 361.597 155.656 361.597 154.787C361.597 153.917 362.303 153.212 363.172 153.212C364.041 153.212 364.747 153.917 364.747 154.787Z" fill="#BDBDBD"/>
<path d="M320.018 78.0768L117.286 298.148L410.858 301.008L397.716 104.278L320.018 78.0768Z" fill="url(#paint1_linear_415_9098)"/>
<path d="M404.135 133.6C404.848 133.837 405.613 133.934 406.408 133.845C409.29 133.511 411.355 130.91 411.021 128.028L408.146 103.082C407.812 100.2 405.204 98.142 402.329 98.4614C399.447 98.7957 397.382 101.396 397.716 104.278L400.591 129.224C400.829 131.312 402.262 132.968 404.135 133.6Z" fill="#193B9E"/>
<path d="M396.267 125.123C394.381 130.717 397.389 136.787 402.983 138.674C408.577 140.56 414.646 137.552 416.533 131.958C418.42 126.364 415.411 120.295 409.818 118.408C404.224 116.521 398.154 119.529 396.267 125.123Z" fill="url(#paint2_linear_415_9098)"/>
<path d="M297.152 97.5254C296.439 97.2877 295.771 96.8939 295.199 96.3442C293.104 94.331 293.037 91.0103 295.05 88.9154L312.441 70.804C314.454 68.709 317.775 68.6496 319.862 70.6479C321.957 72.6612 322.024 75.9818 320.011 78.0768L302.62 96.1882C301.164 97.7037 299.017 98.1568 297.152 97.5254Z" fill="#193B9E"/>
<path d="M308.548 95.5419C306.661 101.136 300.599 104.144 294.998 102.258C289.404 100.371 286.395 94.3087 288.282 88.7074C290.169 83.1135 296.231 80.1048 301.832 81.9918C307.426 83.8787 310.435 89.9406 308.548 95.5419Z" fill="url(#paint3_linear_415_9098)"/>
<path d="M362.095 86.5382C338.709 78.6562 317.344 70.1799 299.819 62.1048C310.294 78.9014 330.069 94.1081 355.216 102.584C380.147 110.994 404.892 110.949 423.353 104.107C405.204 99.9472 384.203 93.9967 362.087 86.5456L362.095 86.5382Z" fill="url(#paint4_linear_415_9098)"/>
<path d="M482.312 106.112C485.815 95.7199 436.999 69.8809 373.277 48.3991C309.556 26.9172 255.059 17.9273 251.555 28.3195C248.052 38.7116 296.869 64.5506 360.59 86.0325C424.312 107.514 478.808 116.504 482.312 106.112Z" fill="url(#paint5_linear_415_9098)"/>
<path opacity="0.2" d="M362.028 81.7986C302.702 61.7928 256.309 38.0206 253.018 26.454C252.305 26.9889 251.814 27.6129 251.569 28.326C248.063 38.7189 296.877 64.5563 360.602 86.0404C424.319 107.525 478.816 116.521 482.323 106.128C482.568 105.415 482.546 104.62 482.308 103.766C472.68 110.979 421.362 101.812 362.035 81.806L362.028 81.7986Z" fill="white"/>
<path d="M371.329 58.955C400.903 68.9245 429.682 72.8989 429.682 72.8989C435.038 43.1614 418.026 13.201 388.534 3.25381C358.953 -6.72307 327.165 6.94593 313.488 34.0239C313.488 34.0239 341.755 48.9855 371.329 58.955Z" fill="url(#paint6_linear_415_9098)"/>
</g>
<defs>
<linearGradient id="paint0_linear_415_9098" x1="321.303" y1="170.952" x2="321.303" y2="349.57" gradientUnits="userSpaceOnUse">
<stop stop-color="#E5E5E5"/>
<stop offset="0.48" stop-color="#F3F3F3"/>
<stop offset="1" stop-color="white"/>
</linearGradient>
<linearGradient id="paint1_linear_415_9098" x1="280.199" y1="-9.25047" x2="261.911" y2="341.168" gradientUnits="userSpaceOnUse">
<stop stop-color="#6EADE8"/>
<stop offset="0.791667" stop-color="#84A6FD" stop-opacity="0"/>
</linearGradient>
<linearGradient id="paint2_linear_415_9098" x1="412.887" y1="141.849" x2="399.998" y2="115.341" gradientUnits="userSpaceOnUse">
<stop stop-color="#F68B57"/>
<stop offset="0.505208" stop-color="#986BE5"/>
</linearGradient>
<linearGradient id="paint3_linear_415_9098" x1="290.908" y1="98.1402" x2="306.542" y2="85.5993" gradientUnits="userSpaceOnUse">
<stop stop-color="#F68B57"/>
<stop offset="0.65625" stop-color="#986BE5"/>
</linearGradient>
<linearGradient id="paint4_linear_415_9098" x1="363.778" y1="75.2767" x2="353" y2="109" gradientUnits="userSpaceOnUse">
<stop stop-color="#986BE5"/>
<stop offset="0.708333" stop-color="#1F4FDE"/>
</linearGradient>
<linearGradient id="paint5_linear_415_9098" x1="345.447" y1="130.928" x2="368.854" y2="61.4973" gradientUnits="userSpaceOnUse">
<stop stop-color="#F68B57"/>
<stop offset="1" stop-color="#B084FD"/>
</linearGradient>
<linearGradient id="paint6_linear_415_9098" x1="358.983" y1="-1.81953" x2="422.5" y2="94.5" gradientUnits="userSpaceOnUse">
<stop stop-color="#1F4FDE"/>
<stop offset="1" stop-color="#986BE5"/>
</linearGradient>
<clipPath id="clip0_415_9098">
<rect width="642.614" height="450" fill="white"/>
</clipPath>
</defs>
</svg>
