<svg width="656" height="450" viewBox="0 0 656 450" fill="none" xmlns="http://www.w3.org/2000/svg">
<g clip-path="url(#clip0_426_8584)">
<path d="M346.971 322.953C207.986 322.953 172.149 360.759 231.059 376.317C289.97 391.875 43.6013 436.54 152.078 448.101C260.544 459.662 307.953 414.311 344.098 419.173C380.254 424.034 396.647 426.986 426.609 415.465C456.561 403.953 489.048 391.427 503.86 396.507C517.211 401.09 503.92 407.263 507.28 413.178C515.163 427.076 571.31 442.007 598.628 421.946C625.956 401.895 562.363 382.47 595.477 366.982C618.928 356.017 674.548 348.562 648.025 335.529C621.502 322.496 553.585 323.56 523.305 330.121C493.025 336.672 346.981 322.934 346.981 322.934L346.971 322.953Z" fill="#EFF0F8"/>
<path d="M392.342 372.738C325.926 334.475 355.123 319.276 311.044 277.434C266.966 235.592 168.779 212.927 171.96 164.703C175.141 116.479 247.581 204.149 288.508 160.756C329.445 117.354 247.203 66.4954 284.979 44.9929C322.755 23.4905 352.091 86.8347 392.332 89.1609C432.583 91.4871 506.962 26.1746 553.158 66.9626C599.354 107.751 513.662 119.67 498.144 186.066C482.626 252.452 587.673 205.282 583.925 255.892C580.178 306.501 543.565 298.688 507.827 331.791C472.089 364.895 404.619 379.816 392.322 372.738H392.342Z" fill="#EFF0F8"/>
<g opacity="0.5">
<path d="M241.815 199.655C239.37 199.655 237.372 197.657 237.372 195.211H239.926C239.926 196.255 240.771 197.1 241.815 197.1C242.859 197.1 243.704 196.255 243.704 195.211C243.704 194.167 242.859 193.322 241.815 193.322V190.768C244.261 190.768 246.259 192.756 246.259 195.211C246.259 197.667 244.261 199.655 241.815 199.655Z" fill="#F9C6B5"/>
<path d="M332.895 263.804C330.449 263.804 328.451 261.806 328.451 259.361H331.006C331.006 260.404 331.851 261.249 332.895 261.249C333.939 261.249 334.784 260.404 334.784 259.361C334.784 258.317 333.939 257.472 332.895 257.472V254.917C335.34 254.917 337.338 256.905 337.338 259.361C337.338 261.816 335.34 263.804 332.895 263.804Z" fill="#F9C6B5"/>
<path d="M410.932 177.705C408.486 177.705 406.488 175.707 406.488 173.261H409.043C409.043 174.305 409.888 175.15 410.932 175.15C411.976 175.15 412.821 174.305 412.821 173.261C412.821 172.218 411.976 171.373 410.932 171.373V168.818C413.377 168.818 415.375 170.806 415.375 173.261C415.375 175.717 413.377 177.705 410.932 177.705Z" fill="#F9C6B5"/>
<path d="M324.336 78.6231C321.89 78.6231 319.892 76.625 319.892 74.1795H322.447C322.447 75.2233 323.292 76.0683 324.336 76.0683C325.379 76.0683 326.224 75.2233 326.224 74.1795C326.224 73.1357 325.379 72.2907 324.336 72.2907V69.7358C326.791 69.7358 328.779 71.724 328.779 74.1795C328.779 76.6349 326.781 78.6231 324.336 78.6231Z" fill="#F9C6B5"/>
<path d="M507.727 97.0836C505.282 97.0836 503.284 95.0854 503.284 92.6399H505.839C505.839 93.6837 506.684 94.5287 507.727 94.5287C508.771 94.5287 509.616 93.6837 509.616 92.6399C509.616 91.5961 508.771 90.7511 507.727 90.7511V88.1963C510.173 88.1963 512.171 90.1845 512.171 92.6399C512.171 95.0954 510.173 97.0836 507.727 97.0836Z" fill="#F9C6B5"/>
<path d="M394.678 131.688C392.233 131.688 390.235 129.69 390.235 127.244H392.789C392.789 128.288 393.634 129.133 394.678 129.133C395.722 129.133 396.567 128.288 396.567 127.244C396.567 126.201 395.722 125.356 394.678 125.356V122.801C397.124 122.801 399.122 124.789 399.122 127.244C399.122 129.7 397.124 131.688 394.678 131.688Z" fill="#F9C6B5"/>
<path d="M324.336 204.119C321.89 204.119 319.892 202.121 319.892 199.675H322.447C322.447 200.719 323.292 201.564 324.336 201.564C325.379 201.564 326.224 200.719 326.224 199.675C326.224 198.631 325.379 197.786 324.336 197.786V195.231C326.791 195.231 328.779 197.22 328.779 199.675C328.779 202.131 326.781 204.119 324.336 204.119Z" fill="#F9C6B5"/>
<path d="M386.487 308.957C384.041 308.957 382.043 306.958 382.043 304.513H384.598C384.598 305.557 385.443 306.402 386.487 306.402C387.531 306.402 388.376 305.557 388.376 304.513C388.376 303.469 387.531 302.624 386.487 302.624V300.069C388.932 300.069 390.93 302.058 390.93 304.513C390.93 306.968 388.932 308.957 386.487 308.957Z" fill="#F9C6B5"/>
<path d="M459.146 329.157C456.7 329.157 454.702 327.159 454.702 324.713H457.257C457.257 325.757 458.102 326.602 459.146 326.602C460.19 326.602 461.035 325.757 461.035 324.713C461.035 323.669 460.19 322.824 459.146 322.824V320.27C461.591 320.27 463.589 322.258 463.589 324.713C463.589 327.169 461.591 329.157 459.146 329.157Z" fill="#F9C6B5"/>
<path d="M545.851 281.639C543.406 281.639 541.408 279.641 541.408 277.195H543.962C543.962 278.239 544.807 279.084 545.851 279.084C546.895 279.084 547.74 278.239 547.74 277.195C547.74 276.151 546.895 275.306 545.851 275.306V272.751C548.307 272.751 550.295 274.74 550.295 277.195C550.295 279.651 548.297 281.639 545.851 281.639Z" fill="#F9C6B5"/>
<path d="M510.789 271.24C508.344 271.24 506.346 269.242 506.346 266.797H508.901C508.901 267.84 509.746 268.685 510.789 268.685C511.833 268.685 512.678 267.84 512.678 266.797C512.678 265.753 511.833 264.908 510.789 264.908V262.353C513.235 262.353 515.233 264.341 515.233 266.797C515.233 269.252 513.235 271.24 510.789 271.24Z" fill="#F9C6B5"/>
<path d="M464.683 157.187C462.237 157.187 460.239 155.189 460.239 152.743H462.794C462.794 153.787 463.639 154.632 464.683 154.632C465.727 154.632 466.572 153.787 466.572 152.743C466.572 151.7 465.727 150.855 464.683 150.855V148.3C467.128 148.3 469.126 150.288 469.126 152.743C469.126 155.199 467.128 157.187 464.683 157.187Z" fill="#F9C6B5"/>
<path d="M452.883 92.1329C450.437 92.1329 448.439 90.1347 448.439 87.6892H450.994C450.994 88.733 451.839 89.578 452.883 89.578C453.927 89.578 454.772 88.733 454.772 87.6892C454.772 86.6454 453.927 85.8004 452.883 85.8004V83.2456C455.338 83.2456 457.327 85.2338 457.327 87.6892C457.327 90.1447 455.328 92.1329 452.883 92.1329Z" fill="#F9C6B5"/>
<path d="M335.38 145.069C332.935 145.069 330.936 143.071 330.936 140.625H333.491C333.491 141.669 334.336 142.514 335.38 142.514C336.424 142.514 337.269 141.669 337.269 140.625C337.269 139.581 336.424 138.736 335.38 138.736V136.182C337.826 136.182 339.824 138.17 339.824 140.625C339.824 143.081 337.826 145.069 335.38 145.069Z" fill="#F9C6B5"/>
<path d="M302.485 125.902C300.04 125.902 298.042 123.904 298.042 121.459H300.596C300.596 122.503 301.441 123.348 302.485 123.348C303.529 123.348 304.374 122.503 304.374 121.459C304.374 120.415 303.529 119.57 302.485 119.57V117.015C304.931 117.015 306.929 119.003 306.929 121.459C306.929 123.914 304.931 125.902 302.485 125.902Z" fill="#F9C6B5"/>
<path d="M449.443 213.811C446.998 213.811 445 211.813 445 209.367H447.554C447.554 210.411 448.399 211.256 449.443 211.256C450.487 211.256 451.332 210.411 451.332 209.367C451.332 208.324 450.487 207.479 449.443 207.479V204.924C451.889 204.924 453.887 206.912 453.887 209.367C453.887 211.823 451.889 213.811 449.443 213.811Z" fill="#F9C6B5"/>
<path d="M373.275 242.67C370.83 242.67 368.832 240.672 368.832 238.226H371.386C371.386 239.27 372.231 240.115 373.275 240.115C374.319 240.115 375.164 239.27 375.164 238.226C375.164 237.183 374.319 236.338 373.275 236.338V233.783C375.731 233.783 377.719 235.771 377.719 238.226C377.719 240.682 375.721 242.67 373.275 242.67Z" fill="#F9C6B5"/>
<path d="M268.527 237.332C266.081 237.332 264.083 235.333 264.083 232.888H266.638C266.638 233.932 267.483 234.777 268.527 234.777C269.571 234.777 270.416 233.932 270.416 232.888C270.416 231.844 269.571 230.999 268.527 230.999V228.444C270.972 228.444 272.97 230.433 272.97 232.888C272.97 235.343 270.972 237.332 268.527 237.332Z" fill="#F9C6B5"/>
<path d="M193.442 169.076C190.997 169.076 188.999 167.078 188.999 164.633H191.553C191.553 165.676 192.398 166.521 193.442 166.521C194.486 166.521 195.331 165.676 195.331 164.633C195.331 163.589 194.486 162.744 193.442 162.744V160.189C195.888 160.189 197.886 162.177 197.886 164.633C197.886 167.088 195.888 169.076 193.442 169.076Z" fill="#F9C6B5"/>
</g>
<g opacity="0.5">
<path d="M494.506 299.523C492.051 299.523 490.062 297.524 490.062 295.079C490.062 292.633 492.06 290.635 494.506 290.635C496.951 290.635 498.95 292.623 498.95 295.079H496.395C496.395 294.035 495.55 293.19 494.506 293.19C493.462 293.19 492.617 294.035 492.617 295.079C492.617 296.123 493.462 296.968 494.506 296.968V299.523Z" fill="#B5EFF9"/>
<path d="M535.065 243.485C532.62 243.485 530.622 241.487 530.622 239.041C530.622 236.596 532.62 234.598 535.065 234.598C537.511 234.598 539.509 236.586 539.509 239.041H536.954C536.954 237.997 536.109 237.152 535.065 237.152C534.021 237.152 533.176 237.997 533.176 239.041C533.176 240.085 534.021 240.93 535.065 240.93V243.485Z" fill="#B5EFF9"/>
<path d="M492.548 234.727C490.102 234.727 488.104 232.729 488.104 230.283C488.104 227.838 490.102 225.84 492.548 225.84C494.993 225.84 496.991 227.828 496.991 230.283H494.436C494.436 229.24 493.591 228.395 492.548 228.395C491.504 228.395 490.659 229.24 490.659 230.283C490.659 231.327 491.504 232.172 492.548 232.172V234.727Z" fill="#B5EFF9"/>
<path d="M434.432 316.283C431.977 316.283 429.989 314.285 429.989 311.84C429.989 309.394 431.987 307.396 434.432 307.396C436.878 307.396 438.876 309.384 438.876 311.84H436.321C436.321 310.796 435.476 309.951 434.432 309.951C433.389 309.951 432.544 310.796 432.544 311.84C432.544 312.883 433.389 313.728 434.432 313.728V316.283Z" fill="#B5EFF9"/>
<path d="M367.947 288.18C365.501 288.18 363.503 286.182 363.503 283.736C363.503 281.291 365.501 279.292 367.947 279.292C370.392 279.292 372.39 281.281 372.39 283.736H369.836C369.836 282.692 368.991 281.847 367.947 281.847C366.903 281.847 366.058 282.692 366.058 283.736C366.058 284.78 366.903 285.625 367.947 285.625V288.18Z" fill="#B5EFF9"/>
<path d="M321.025 310.806C318.57 310.806 316.582 308.808 316.582 306.362C316.582 303.917 318.58 301.918 321.025 301.918C323.471 301.918 325.469 303.907 325.469 306.362H322.914C322.914 305.318 322.069 304.473 321.025 304.473C319.981 304.473 319.136 305.318 319.136 306.362C319.136 307.406 319.981 308.251 321.025 308.251V310.806Z" fill="#B5EFF9"/>
<path d="M300.666 246.05C298.211 246.05 296.222 244.052 296.222 241.606C296.222 239.161 298.221 237.163 300.666 237.163C303.112 237.163 305.11 239.151 305.11 241.606H302.555C302.555 240.562 301.71 239.717 300.666 239.717C299.622 239.717 298.777 240.562 298.777 241.606C298.777 242.65 299.622 243.495 300.666 243.495V246.05Z" fill="#B5EFF9"/>
<path d="M381.278 206.753C378.832 206.753 376.834 204.755 376.834 202.309C376.834 199.864 378.832 197.866 381.278 197.866C383.723 197.866 385.721 199.854 385.721 202.309H383.167C383.167 201.266 382.322 200.421 381.278 200.421C380.234 200.421 379.389 201.266 379.389 202.309C379.389 203.353 380.234 204.198 381.278 204.198V206.753Z" fill="#B5EFF9"/>
<path d="M284.959 194.456C282.504 194.456 280.516 192.458 280.516 190.012C280.516 187.567 282.514 185.569 284.959 185.569C287.405 185.569 289.403 187.557 289.403 190.012H286.848C286.848 188.969 286.003 188.124 284.959 188.124C283.915 188.124 283.07 188.969 283.07 190.012C283.07 191.056 283.915 191.901 284.959 191.901V194.456Z" fill="#B5EFF9"/>
<path d="M222.897 177.109C220.452 177.109 218.454 175.111 218.454 172.665C218.454 170.22 220.452 168.222 222.897 168.222C225.343 168.222 227.341 170.21 227.341 172.665H224.786C224.786 171.622 223.941 170.777 222.897 170.777C221.854 170.777 221.009 171.622 221.009 172.665C221.009 173.709 221.854 174.554 222.897 174.554V177.109Z" fill="#B5EFF9"/>
<path d="M192.786 194.824C190.341 194.824 188.343 192.826 188.343 190.38C188.343 187.935 190.341 185.937 192.786 185.937C195.232 185.937 197.23 187.925 197.23 190.38H194.675C194.675 189.336 193.83 188.491 192.786 188.491C191.742 188.491 190.897 189.336 190.897 190.38C190.897 191.424 191.742 192.269 192.786 192.269V194.824Z" fill="#B5EFF9"/>
<path d="M333.471 111.548C331.026 111.548 329.028 109.55 329.028 107.104C329.028 104.659 331.026 102.661 333.471 102.661C335.917 102.661 337.915 104.649 337.915 107.104H335.36C335.36 106.06 334.515 105.215 333.471 105.215C332.428 105.215 331.583 106.06 331.583 107.104C331.583 108.148 332.428 108.993 333.471 108.993V111.548Z" fill="#B5EFF9"/>
<path d="M287.097 63.6421C284.651 63.6421 282.653 61.644 282.653 59.1985C282.653 56.753 284.651 54.7549 287.097 54.7549C289.542 54.7549 291.54 56.7431 291.54 59.1985H288.985C288.985 58.1547 288.14 57.3097 287.097 57.3097C286.053 57.3097 285.208 58.1547 285.208 59.1985C285.208 60.2423 286.053 61.0873 287.097 61.0873V63.6421Z" fill="#B5EFF9"/>
<path d="M396.179 102.661C393.724 102.661 391.736 100.663 391.736 98.2171C391.736 95.7716 393.734 93.7734 396.179 93.7734C398.625 93.7734 400.623 95.7616 400.623 98.2171H398.068C398.068 97.1733 397.223 96.3283 396.179 96.3283C395.136 96.3283 394.291 97.1733 394.291 98.2171C394.291 99.2609 395.136 100.106 396.179 100.106V102.661Z" fill="#B5EFF9"/>
<path d="M439.661 141.123C437.216 141.123 435.218 139.124 435.218 136.679C435.218 134.233 437.216 132.235 439.661 132.235C442.107 132.235 444.105 134.224 444.105 136.679H441.55C441.55 135.635 440.705 134.79 439.661 134.79C438.618 134.79 437.773 135.635 437.773 136.679C437.773 137.723 438.618 138.568 439.661 138.568V141.123Z" fill="#B5EFF9"/>
<path d="M473.351 101.03C470.896 101.03 468.908 99.0322 468.908 96.5867C468.908 94.1412 470.906 92.1431 473.351 92.1431C475.797 92.1431 477.795 94.1313 477.795 96.5867H475.24C475.24 95.5429 474.395 94.6979 473.351 94.6979C472.308 94.6979 471.463 95.5429 471.463 96.5867C471.463 97.6305 472.308 98.4755 473.351 98.4755V101.03Z" fill="#B5EFF9"/>
<path d="M502.896 70.3028C500.441 70.3028 498.453 68.3047 498.453 65.8592C498.453 63.4137 500.451 61.4155 502.896 61.4155C505.342 61.4155 507.34 63.4037 507.34 65.8592H504.785C504.785 64.8154 503.94 63.9704 502.896 63.9704C501.852 63.9704 501.007 64.8154 501.007 65.8592C501.007 66.903 501.852 67.748 502.896 67.748V70.3028Z" fill="#B5EFF9"/>
<path d="M541.905 111.846C539.459 111.846 537.461 109.848 537.461 107.403C537.461 104.957 539.459 102.959 541.905 102.959C544.35 102.959 546.348 104.947 546.348 107.403H543.793C543.793 106.359 542.948 105.514 541.905 105.514C540.861 105.514 540.016 106.359 540.016 107.403C540.016 108.446 540.861 109.291 541.905 109.291V111.846Z" fill="#B5EFF9"/>
<path d="M507.976 150.169C505.531 150.169 503.532 148.17 503.532 145.725C503.532 143.279 505.531 141.281 507.976 141.281C510.422 141.281 512.42 143.269 512.42 145.725H509.865C509.865 144.681 509.02 143.836 507.976 143.836C506.932 143.836 506.087 144.681 506.087 145.725C506.087 146.769 506.932 147.614 507.976 147.614V150.169Z" fill="#B5EFF9"/>
<path d="M477.189 190.37C474.733 190.37 472.745 188.372 472.745 185.927C472.745 183.481 474.743 181.483 477.189 181.483C479.634 181.483 481.632 183.471 481.632 185.927H479.077C479.077 184.883 478.232 184.038 477.189 184.038C476.145 184.038 475.3 184.883 475.3 185.927C475.3 186.97 476.145 187.815 477.189 187.815V190.37Z" fill="#B5EFF9"/>
</g>
<path d="M476.026 363.871C474.763 363.871 473.52 363.304 472.695 362.231C453.708 337.517 443.151 300.835 436.162 276.559C433.508 267.344 431.211 259.371 429.233 254.758C422.583 239.241 408.715 220.551 365.253 237.362C363.116 238.187 360.66 237.123 359.835 234.966C359 232.809 360.074 230.373 362.231 229.538C399.927 214.984 424.372 222.132 436.938 251.458C439.125 256.558 441.371 264.371 444.214 274.243C451.024 297.912 461.323 333.67 479.336 357.121C480.748 358.96 480.4 361.595 478.57 362.996C477.805 363.573 476.91 363.861 476.016 363.861L476.026 363.871Z" fill="#7070AB"/>
<path d="M579.74 303.29L579.84 302.982L579.611 303.101C575.466 295.308 567.523 289.82 558.079 289.82H380.144C375.651 289.82 371.665 291.351 368.036 293.449L367.937 293.051L304.931 324.683L381.854 347.627L379.677 339.068C379.846 339.068 379.975 339.167 380.144 339.167H513.454L501.266 370.462L568.795 336.722L568.895 336.414C577.026 332.378 582.752 324.186 582.752 314.494C582.752 310.388 581.51 306.69 579.74 303.29Z" fill="#9A92EA"/>
<path d="M491.921 372.301H313.987C300.358 372.301 289.313 361.256 289.313 347.627C289.313 333.998 300.358 322.954 313.987 322.954H491.921C505.55 322.954 516.595 333.998 516.595 347.627C516.595 361.256 505.55 372.301 491.921 372.301Z" fill="#ADADEA"/>
<path d="M322.288 339.794C322.288 342.687 319.942 345.043 317.039 345.043C314.136 345.043 311.79 342.697 311.79 339.794C311.79 336.891 314.136 334.545 317.039 334.545C319.942 334.545 322.288 336.891 322.288 339.794Z" fill="#393768"/>
<path d="M340.788 339.794C340.788 342.687 338.442 345.043 335.539 345.043C332.636 345.043 330.29 342.697 330.29 339.794C330.29 336.891 332.636 334.545 335.539 334.545C338.442 334.545 340.788 336.891 340.788 339.794Z" fill="#393768"/>
<path d="M359.288 339.794C359.288 342.687 356.942 345.043 354.039 345.043C351.137 345.043 348.79 342.697 348.79 339.794C348.79 336.891 351.137 334.545 354.039 334.545C356.942 334.545 359.288 336.891 359.288 339.794Z" fill="#393768"/>
<path d="M321.125 340.798C321.125 343.691 318.779 346.047 315.876 346.047C312.973 346.047 310.627 343.7 310.627 340.798C310.627 337.895 312.973 335.549 315.876 335.549C318.779 335.549 321.125 337.895 321.125 340.798Z" fill="#CCE9F1"/>
<path d="M339.625 340.798C339.625 343.691 337.279 346.047 334.376 346.047C331.473 346.047 329.127 343.7 329.127 340.798C329.127 337.895 331.473 335.549 334.376 335.549C337.279 335.549 339.625 337.895 339.625 340.798Z" fill="#CCE9F1"/>
<path d="M358.125 340.798C358.125 343.691 355.779 346.047 352.876 346.047C349.973 346.047 347.627 343.7 347.627 340.798C347.627 337.895 349.973 335.549 352.876 335.549C355.779 335.549 358.125 337.895 358.125 340.798Z" fill="#CCE9F1"/>
<path d="M483.074 348.87H427.971C424.215 348.87 421.171 351.914 421.171 355.67C421.171 359.425 424.215 362.469 427.971 362.469H483.074C486.829 362.469 489.873 359.425 489.873 355.67C489.873 351.914 486.829 348.87 483.074 348.87Z" fill="#776CEA"/>
<path d="M446.859 206.008C441.421 200.65 435.973 200.65 430.535 206.008L419.839 313.6C425.048 319.763 441.799 321.234 457.545 313.6L446.849 206.008H446.859Z" fill="#ADADEA"/>
<path style="mix-blend-mode:soft-light" d="M446.859 206.008C441.421 200.65 435.973 200.65 430.535 206.008L419.839 313.6C425.048 319.763 441.799 321.234 457.545 313.6L446.849 206.008H446.859Z" fill="url(#paint0_linear_426_8584)"/>
<path d="M530.542 196.624C499.755 227.411 449.881 227.411 419.093 196.624C388.306 165.836 388.306 115.962 419.093 85.1748L530.542 196.624Z" fill="#535E9D"/>
<path d="M530.542 196.618C538.066 189.095 519.218 158.048 488.443 127.274C457.669 96.4995 426.623 77.6512 419.099 85.1749C411.575 92.6987 430.423 123.745 461.198 154.52C491.972 185.294 523.019 204.142 530.542 196.618Z" fill="#BFBBEA"/>
<path d="M519.428 104.5L511.227 96.2988L464.146 130.237C467.148 142.037 473.898 149.573 485.489 151.591L519.428 104.51V104.5Z" fill="#393768"/>
<path d="M525.999 111.071C520.104 116.966 510.551 116.966 504.656 111.071C498.761 105.176 498.761 95.6226 504.656 89.7177C510.551 83.8226 520.104 83.8226 525.999 89.7177C531.894 95.6127 531.894 105.166 525.999 111.071Z" fill="#393768"/>
<path style="mix-blend-mode:soft-light" d="M496.763 135.944L511.833 115.028C516.764 116.201 522.152 114.908 525.999 111.061C531.894 105.166 531.894 95.6128 525.999 89.7178C520.104 83.8228 510.551 83.8228 504.656 89.7178C500.809 93.565 499.516 98.953 500.689 103.884L479.783 118.954C452.048 93.227 425.923 78.3552 419.103 85.1748C388.316 115.962 388.316 165.836 419.103 196.623C449.891 227.411 499.765 227.411 530.552 196.623C537.372 189.804 522.5 163.679 496.772 135.944H496.763Z" fill="url(#paint1_linear_426_8584)"/>
<path d="M532.998 0V13.987C570.843 13.987 601.62 44.0685 602.883 81.566H616.87C615.677 36.4438 578.537 0 532.998 0Z" fill="#9DA8F3"/>
<path d="M532.998 27.9839V41.9709C555.315 41.9709 573.636 59.5267 574.829 81.566H588.886C587.623 51.8324 563.069 27.9839 532.998 27.9839Z" fill="#9DA8F3"/>
<path d="M532.998 55.9678V69.9548C539.926 69.9548 545.662 74.9949 546.776 81.5659H560.832C559.639 67.2906 547.68 55.9678 532.988 55.9678H532.998Z" fill="#9DA8F3"/>
<g style="mix-blend-mode:soft-light">
<path d="M532.998 0V13.987C570.843 13.987 601.62 44.0685 602.883 81.566H616.87C615.677 36.4438 578.537 0 532.998 0Z" fill="#9DA8F3"/>
<path d="M532.998 27.9839V41.9709C555.315 41.9709 573.636 59.5267 574.829 81.566H588.886C587.623 51.8324 563.069 27.9839 532.998 27.9839Z" fill="#9DA8F3"/>
<path d="M532.998 55.9678V69.9548C539.926 69.9548 545.662 74.9949 546.776 81.5659H560.832C559.639 67.2906 547.68 55.9678 532.988 55.9678H532.998Z" fill="#9DA8F3"/>
</g>
<path d="M316.969 226.327C318.57 227.52 320.379 228.365 322.417 228.673C325.628 233.097 352.717 251.796 358.046 252.949C361.366 254.103 377.59 254.987 379.14 252.512C376.934 249.361 375.711 245.712 375.422 241.567L362.241 244.211L356.763 240.901L333.491 226.934L329.097 224.25L326.702 222.808C326.861 220.661 326.125 218.752 325.618 216.903C324.415 216.088 324.167 216.366 323.272 217.042C323.361 218.325 323.411 218.921 322.407 219.756C320.319 218.981 318.769 214.975 318.401 215.114C317.228 215.78 316.462 217.957 315.965 220.214C315.737 222.649 315.906 223.981 316.959 226.317L316.969 226.327Z" fill="#EDB6A4"/>
<path style="mix-blend-mode:soft-light" d="M316.969 226.327C318.57 227.52 320.379 228.365 322.417 228.673C325.628 233.097 352.717 251.796 358.046 252.949C361.366 254.103 377.59 254.987 379.14 252.512C376.934 249.361 375.711 245.712 375.422 241.567L362.241 244.211L356.763 240.901L333.491 226.934L329.097 224.25L326.702 222.808C326.861 220.661 326.125 218.752 325.618 216.903C324.415 216.088 324.167 216.366 323.272 217.042C323.361 218.325 323.411 218.921 322.407 219.756C320.319 218.981 318.769 214.975 318.401 215.114C317.228 215.78 316.462 217.957 315.965 220.214C315.737 222.649 315.906 223.981 316.959 226.317L316.969 226.327Z" fill="url(#paint2_linear_426_8584)"/>
<path d="M370.929 240.324L361.525 240.453C360.72 243.515 359.527 250.126 360.67 254.093C365.889 254.331 372.997 255.604 379.727 255.375L370.929 240.324Z" fill="#7A7AF2"/>
<path d="M282.643 231.268L315.16 218.693C327.596 213.881 341.305 217.569 349.695 226.944C355.371 224.955 361.565 227.789 363.752 233.445C365.939 239.111 363.265 245.374 357.727 247.72C357.827 260.296 350.172 272.255 337.736 277.066L305.219 289.642L282.633 231.268H282.643Z" fill="#A8CFEF"/>
<path d="M282.633 231.298C288.657 228.971 298.588 240.145 304.831 256.269C311.064 272.384 311.243 287.345 305.219 289.671C299.195 291.997 289.264 280.824 283.021 264.699C276.788 248.585 276.609 233.624 282.633 231.298Z" fill="#7070AB"/>
<path d="M284.055 234.956C289.323 232.918 298.012 242.69 303.459 256.787C308.917 270.883 309.066 283.965 303.797 286.003C298.529 288.041 289.84 278.269 284.393 264.173C278.935 250.077 278.786 236.994 284.055 234.956Z" fill="#A2A2F8"/>
<path d="M277.762 271.748L295.626 264.839C295.855 264.749 296.053 264.739 296.332 264.769C296.352 264.829 296.411 264.809 296.411 264.809C297.515 265.057 298.787 266.439 299.533 268.368C300.278 270.296 300.268 272.175 299.622 273.1L299.563 273.119C299.394 273.388 299.244 273.507 299.016 273.607L281.152 280.516L277.762 271.758V271.748Z" fill="#7070AB"/>
<path d="M277.752 271.747C277.981 271.658 278.239 271.628 278.547 271.708C279.651 271.956 280.923 273.338 281.669 275.267C282.414 277.195 282.404 279.074 281.758 279.999C281.589 280.267 281.38 280.416 281.152 280.506C279.929 280.983 278.11 279.402 277.185 277.006C276.261 274.611 276.539 272.225 277.772 271.747H277.752Z" fill="#CEBBF8"/>
<path d="M274.392 263.03L292.256 256.121C292.485 256.031 292.644 255.902 292.833 255.693C292.813 255.633 292.872 255.614 292.872 255.614C293.518 254.689 293.528 252.81 292.783 250.882C292.037 248.953 290.765 247.571 289.661 247.323L289.602 247.343C289.303 247.253 289.105 247.263 288.866 247.353L271.002 254.262L274.392 263.02V263.03Z" fill="#7070AB"/>
<path d="M274.382 263.029C274.611 262.94 274.829 262.791 274.988 262.522C275.635 261.598 275.645 259.719 274.899 257.79C274.153 255.862 272.881 254.48 271.777 254.232C271.479 254.142 271.221 254.182 270.982 254.271C269.759 254.749 269.471 257.134 270.396 259.53C271.32 261.926 273.139 263.507 274.362 263.029H274.382Z" fill="#CEBBF8"/>
<path style="mix-blend-mode:soft-light" d="M363.752 233.445C361.565 227.779 355.362 224.945 349.695 226.944C341.305 217.569 327.596 213.881 315.16 218.693L282.643 231.268V231.288C278.388 232.928 277.295 240.911 279.174 251.11L271.012 254.271C271.012 254.271 271.002 254.271 270.992 254.271C269.769 254.749 269.481 257.134 270.406 259.53C271.33 261.926 273.149 263.507 274.372 263.029C274.372 263.029 274.372 263.029 274.382 263.02L281.49 260.276C281.967 261.737 282.434 263.208 283.011 264.7C283.587 266.191 284.224 267.592 284.86 268.994L277.752 271.748C277.752 271.748 277.742 271.748 277.732 271.748C276.509 272.225 276.221 274.611 277.146 277.007C278.07 279.402 279.889 280.983 281.112 280.506C281.112 280.506 281.112 280.506 281.122 280.496L289.284 277.345C294.761 286.142 300.944 291.312 305.189 289.671C305.209 289.671 305.229 289.632 305.249 289.622L337.706 277.066C350.143 272.255 357.797 260.306 357.698 247.72C363.235 245.374 365.909 239.111 363.722 233.445H363.752Z" fill="url(#paint3_linear_426_8584)"/>
<path d="M389.767 405.981C389.767 405.981 389.767 409.958 388.574 411.161C387.391 412.364 398.694 413.189 398.694 413.189C398.694 413.189 395.871 407.095 397.432 404.619C398.993 402.144 389.757 405.981 389.757 405.981H389.767Z" fill="#EDB6A4"/>
<path d="M376.337 419.183L398.456 418.924C400.027 416.598 399.867 414.173 398.376 411.677C394.738 411.966 391.338 411.658 388.376 410.286C385.513 412.701 381.228 414.62 376.317 416.31C374.737 416.986 375.045 418 376.347 419.183H376.337Z" fill="#5353A5"/>
<path d="M398.495 418.919L376.338 419.174L376.349 420.119L398.506 419.863L398.495 418.919Z" fill="#A8CFEF"/>
<path d="M429.263 304.553C428.836 305.329 428.259 306.015 428.001 306.86C426.112 313.122 407.999 337.717 402.452 350.68C397.372 363.812 397.044 384.519 397.83 407.602C394.847 408.437 391.795 408.507 388.674 407.522C385.672 384.052 380.642 354.686 383.316 347.747C387.282 331.185 392.899 314.991 400.603 299.255L401.547 296.591L403.019 292.455L407.532 294.543L423.577 301.939L429.263 304.543V304.553Z" fill="#A8CFEF"/>
<path d="M479.922 393.237C479.922 393.237 483.412 395.146 483.909 396.756C484.406 398.367 490.52 388.823 490.52 388.823C490.52 388.823 483.819 388.406 482.378 385.851C480.936 383.296 479.913 393.237 479.913 393.237H479.922Z" fill="#EDB6A4"/>
<path d="M485.112 411.34L495.44 391.776C494.148 389.28 491.941 388.266 489.028 388.396C487.547 391.736 485.658 394.569 483.034 396.527C483.79 400.196 483.432 404.878 482.577 410.007C482.428 411.717 483.452 411.936 485.112 411.349V411.34Z" fill="#5353A5"/>
<path d="M495.448 391.721L485.103 411.317L485.938 411.758L496.283 392.162L495.448 391.721Z" fill="#A8CFEF"/>
<path d="M414.411 308.49C414.888 309.235 437.832 305.169 438.508 305.736C449.334 314.693 428.617 344.645 437.365 355.7C446.481 366.436 464.524 376.596 485.191 386.924C484.505 389.946 483.104 392.66 480.757 394.937C458.698 386.378 425.923 372.192 421.101 366.535C408.437 355.153 414.411 308.49 414.411 308.49Z" fill="#A8CFEF"/>
<path d="M441.481 304.583C442.504 310.319 397.69 310.945 396.15 307.078C395.215 287.236 390.911 284.472 381.566 265.783C381.566 265.783 381.566 265.763 381.566 265.723C380.035 262.652 378.484 259.381 376.894 255.802C376.546 255.017 376.188 254.202 375.84 253.367C374.15 249.43 372.47 245.106 370.79 240.374C374.18 239.161 377.411 237.948 380.522 236.895C384.26 235.622 387.809 234.539 391.268 233.952C395.712 233.157 399.42 231.825 406.319 233.863C420.644 241.179 423.179 277.842 441.481 304.593V304.583Z" fill="#393768"/>
<path d="M376.049 229.807L388.724 228.196C389.091 233.097 388.922 232.859 393.286 233.554C394.847 242.352 374.677 250.027 378.047 237.75C382.411 236.01 379.101 234.141 376.049 229.807Z" fill="#E0A494"/>
<path d="M373.782 235.473C375.224 236.656 382.58 233.435 389.996 229.648L388.475 208.801L370.382 209.974C366.336 220.064 370.72 234.081 373.772 235.473H373.782Z" fill="#EDB6A4"/>
<path style="mix-blend-mode:soft-light" d="M373.782 235.473C375.224 236.656 382.58 233.435 389.996 229.648L388.475 208.801L370.382 209.974C366.336 220.064 370.72 234.081 373.772 235.473H373.782Z" fill="url(#paint4_linear_426_8584)"/>
<path d="M366.148 209.964C363.871 211.923 366.376 217.192 368.573 219.687C372.689 219.339 374.896 218.504 378.116 216.009C379.041 218.683 380.522 222.49 379.508 223.922C379.508 223.922 381.268 224.936 382.799 224.319C382.62 222.609 382.948 221.108 384.171 220.283C384.956 219.786 385.125 219.786 386.208 220.273C387.541 220.929 387.242 222.47 386.208 223.504C383.713 225.8 387.372 228.345 388.505 230.373C390.742 229.588 391.994 227.898 392.889 226.049C394.31 221.168 395.046 219.717 392.591 211.485C387.004 200.958 370.213 206.594 366.138 209.954L366.148 209.964Z" fill="#635FB5"/>
<path d="M341.365 276.609C343.363 276.44 345.271 275.873 346.991 274.75C352.33 275.923 385.006 271.907 389.747 269.223C392.998 267.881 405.713 257.761 405.226 254.878C401.478 253.993 398.148 252.075 395.175 249.172L387.083 259.908L380.791 261.071L354.119 266.092L349.049 266.996L346.295 267.513C344.983 265.803 343.164 264.869 341.563 263.825C340.122 264.024 340.122 264.392 339.903 265.495C340.818 266.39 341.255 266.807 341.056 268.1C338.979 268.905 335.161 266.946 334.982 267.294C334.545 268.577 335.42 270.704 336.553 272.722C338.004 274.69 339.009 275.575 341.355 276.619L341.365 276.609Z" fill="#EDB6A4"/>
<path style="mix-blend-mode:soft-light" d="M341.365 276.609C343.363 276.44 345.271 275.873 346.991 274.75C352.33 275.923 385.006 271.907 389.747 269.223C392.998 267.881 405.713 257.761 405.226 254.878C401.478 253.993 398.148 252.075 395.175 249.172L387.083 259.908L380.791 261.071L354.119 266.092L349.049 266.996L346.295 267.513C344.983 265.803 343.164 264.869 341.563 263.825C340.122 264.024 340.122 264.392 339.903 265.495C340.818 266.39 341.255 266.807 341.056 268.1C338.979 268.905 335.161 266.946 334.982 267.294C334.545 268.577 335.42 270.704 336.553 272.722C338.004 274.69 339.009 275.575 341.355 276.619L341.365 276.609Z" fill="url(#paint5_linear_426_8584)"/>
<path d="M176.851 293.329L181.98 293.479L208.195 290.069L210.113 296.183L182.795 303.927C181.424 304.205 179.654 304.384 177.666 304.523C178.64 300.845 177.666 296.143 176.861 293.339L176.851 293.329Z" fill="#EDB6A4"/>
<path style="mix-blend-mode:soft-light" d="M176.851 293.329L181.98 293.479L208.195 290.069L210.113 296.183L182.795 303.927C181.424 304.205 179.654 304.384 177.666 304.523C178.64 300.845 177.666 296.143 176.861 293.339L176.851 293.329Z" fill="url(#paint6_linear_426_8584)"/>
<path d="M168.063 293.081L177.109 292.981C177.914 295.795 178.908 301.421 177.934 305.1C173.123 305.418 167.357 307.644 161.144 307.565L168.063 293.081Z" fill="#CCE9F1"/>
<path d="M195.759 406.15L195.599 408.774C195.599 408.774 195.56 408.834 195.599 409.033V409.083C195.609 409.808 195.649 411.667 196.126 412.91C196.246 413.248 196.415 413.526 196.613 413.735C197.707 414.948 186.831 415.475 186.831 415.475C186.831 415.475 187.219 414.878 187.488 413.934C187.706 413.268 187.657 411.101 187.488 407.929L195.759 406.15Z" fill="#EDB6A4"/>
<path d="M208.722 421.966L186.364 421.171C184.833 418.775 185.052 416.329 186.623 413.844C190.291 414.232 193.731 413.993 196.772 412.681C199.606 415.196 203.89 417.234 208.821 419.063C210.402 419.789 210.064 420.803 208.722 421.966Z" fill="#5353A5"/>
<path d="M196.236 343.253C199.645 343.969 203.791 347.319 204.228 350.59C205.719 361.813 196.395 408.446 196.275 409.629C193.214 410.027 190.311 410.057 187.776 409.321L187.358 409.242C184.863 397.382 184.197 383.305 185.559 367.748C182.954 372.808 142.872 381.904 141.689 378.971L140.874 376.585L135.009 359.427C135.248 359.358 135.466 359.318 135.705 359.248C137.266 358.87 138.985 358.781 140.486 358.065C148.767 354.139 190.341 342.02 196.226 343.253H196.236Z" fill="#393768"/>
<path d="M98.2073 411.538C98.2073 411.538 94.3204 411.21 93.038 412.264C91.7556 413.318 91.9146 402.184 91.9146 402.184C91.9146 402.184 97.6307 405.464 100.196 404.152C102.76 402.84 98.2073 411.538 98.2073 411.538Z" fill="#EDB6A4"/>
<path d="M84.1507 423.557L86.288 401.945C88.7037 400.603 91.0597 400.961 93.366 402.641C92.7696 406.17 92.7795 409.52 93.873 412.552C91.2685 415.147 89.0218 419.173 86.9441 423.835C86.1389 425.316 85.1846 424.939 84.1408 423.557H84.1507Z" fill="#5353A5"/>
<path d="M117.95 359.497C120.237 379.16 132.444 392.441 140.407 404.4C120.296 402.462 110.892 402.959 97.2033 403.883C96.4776 406.816 95.9308 409.659 96.2986 412.333L144.165 422.602C171.612 425.515 159.792 377.679 147.555 363.523L117.95 359.497Z" fill="#393768"/>
<path d="M117.105 359.149C136.669 367.499 158.321 364.507 158.012 355.808C154.285 337.865 160.249 337.219 164.295 318.351C164.295 318.351 164.295 318.334 164.295 318.301C164.961 315.199 165.588 311.919 166.184 308.36C166.313 307.575 166.442 306.769 166.562 305.934C167.158 302.027 167.675 297.773 168.083 293.16C164.772 292.862 161.601 292.514 158.579 292.295C154.941 292.017 151.531 291.868 148.29 292.136C144.135 292.444 140.298 292.981 136.729 295.526C117.095 317.118 127.295 331.025 117.095 359.149H117.105Z" fill="#CCE9F1"/>
<path d="M22.586 428.984C13.311 428.984 5.94474 426.638 2.41568 422.622C-0.606388 419.172 -0.805208 414.689 1.87887 410.623C7.44584 402.223 23.1825 399.499 34.6047 401.825C36.8812 402.283 38.3425 404.49 37.8852 406.766C37.418 409.023 35.2012 410.494 32.9445 410.037C23.59 408.128 11.9094 410.683 8.87734 415.256C8.12183 416.399 8.39023 416.707 8.71829 417.085C12.2871 421.161 30.4593 423.556 51.0372 413.486C54.0593 412.005 60.7496 410.225 66.7838 408.685L68.4041 408.267C76.2675 406.189 83.4747 384.607 90.4533 363.741C102.571 327.457 117.543 282.096 151.402 283.855C172.487 284.83 174.485 305 175.797 318.351C176.334 323.759 177.139 331.93 179.286 332.427C181.255 332.904 182.885 332.626 184.386 331.582C189.088 328.361 191.335 319.037 191.802 315.716C192.12 313.42 194.257 311.859 196.534 312.147C198.82 312.466 200.421 314.583 200.103 316.869C199.884 318.47 197.707 332.596 189.148 338.481C185.708 340.837 181.642 341.583 177.388 340.589C169.395 338.72 168.451 329.226 167.456 319.166C165.886 303.27 163.888 292.812 151.014 292.216C123.328 290.983 109.63 332.775 98.3962 366.386C89.6779 392.501 82.7888 413.118 70.5415 416.359L68.8614 416.796C65.3821 417.691 57.2304 419.779 54.7253 421.002C43.4025 426.539 32.0101 428.964 22.586 428.964V428.984Z" fill="#7070AB"/>
<path d="M159.911 285.804L147.435 283.508C147.743 287.932 147.266 289.214 144.234 292.783C144.771 297.853 159.593 299.364 156.79 293.538C157.118 289.433 157.615 289.174 159.901 285.794L159.911 285.804Z" fill="#E0A494"/>
<path style="mix-blend-mode:soft-light" d="M159.911 285.804L147.435 283.508C147.743 287.932 147.266 289.214 144.234 292.783C144.771 297.853 159.593 299.364 156.79 293.538C157.118 289.433 157.615 289.174 159.901 285.794L159.911 285.804Z" fill="url(#paint7_linear_426_8584)"/>
<path d="M163.391 287.394C162.675 289.104 154.911 290.257 146.65 290.357L138.359 271.33L154.802 264.013C163.013 271.012 165.438 284.76 163.4 287.394H163.391Z" fill="#EDB6A4"/>
<path style="mix-blend-mode:soft-light" d="M163.391 287.394C162.675 289.104 154.911 290.257 146.65 290.357L138.359 271.33L154.802 264.013C163.013 271.012 165.438 284.76 163.4 287.394H163.391Z" fill="url(#paint8_linear_426_8584)"/>
<path d="M159.593 263.228C162.506 263.904 161.641 268.516 160.875 271.717C157.098 273.308 154.772 273.596 150.785 272.9C151.203 275.674 151.66 279.71 153.221 280.495C153.221 280.495 152.137 282.195 150.507 282.364C149.871 280.774 148.897 279.611 147.435 279.452C146.521 279.382 146.372 279.452 145.646 280.376C144.781 281.569 145.755 282.782 147.127 283.219C150.378 284.094 148.34 288.011 148.28 290.317C145.954 290.655 143.429 289.87 142.435 288.538C138.936 284.899 136.262 281.609 137.564 275.326C137.027 270.187 140.586 263.735 146.401 263.486C154.344 266.131 154.464 262.144 159.593 263.208V263.228Z" fill="#6172CC"/>
<path d="M270.783 287.434L245.305 312.913C235.562 322.655 221.058 324.902 209.209 319.544C204.676 323.799 197.637 323.709 193.194 319.265C188.76 314.832 188.661 307.784 192.915 303.25C187.567 291.401 189.804 276.897 199.546 267.155L225.025 241.676L270.773 287.424L270.783 287.434Z" fill="#A8CFEF"/>
<path d="M270.773 287.414C266.051 292.136 251.985 285.714 239.36 273.089C226.725 260.454 220.313 246.388 225.035 241.676C229.757 236.954 243.823 243.376 256.448 256.001C269.083 268.636 275.495 282.702 270.773 287.414Z" fill="#7070AB"/>
<path d="M267.897 284.536C272.024 280.409 266.416 268.11 255.371 257.065C244.326 246.02 232.027 240.412 227.9 244.539C223.773 248.665 229.381 260.964 240.426 272.009C251.471 283.054 263.77 288.662 267.897 284.536Z" fill="#A2A2F8"/>
<path d="M244.479 261.13C244.3 261.309 244.072 261.448 243.744 261.498C242.601 261.727 240.811 260.951 239.31 259.44C237.809 257.929 237.024 256.15 237.252 255.007C237.302 254.689 237.431 254.46 237.62 254.271C238.584 253.307 240.96 254.042 242.839 255.921C244.718 257.8 245.444 260.176 244.489 261.14L244.479 261.13Z" fill="#7070AB"/>
<path d="M243.744 261.498C242.601 261.727 240.811 260.952 239.31 259.44C237.809 257.929 237.024 256.15 237.252 255.007C238.346 254.639 240.175 255.464 241.736 257.015C243.287 258.566 244.112 260.405 243.744 261.498Z" fill="#CEBBF8"/>
<path d="M251.309 267.97C251.13 268.149 250.991 268.378 250.941 268.706C250.712 269.849 251.488 271.638 252.999 273.139C254.51 274.64 256.289 275.426 257.433 275.197C257.751 275.147 257.979 275.018 258.168 274.829C259.132 273.865 258.397 271.489 256.518 269.61C254.639 267.731 252.263 267.006 251.299 267.96L251.309 267.97Z" fill="#7070AB"/>
<path d="M250.941 268.696C250.712 269.839 251.488 271.628 252.999 273.129C254.51 274.631 256.289 275.416 257.433 275.187C257.8 274.094 256.975 272.255 255.424 270.704C253.874 269.153 252.035 268.328 250.941 268.696Z" fill="#CEBBF8"/>
<path style="mix-blend-mode:soft-light" d="M270.773 287.415C275.495 282.693 269.074 268.626 256.448 256.001C243.813 243.366 229.747 236.954 225.035 241.676C225.015 241.696 225.015 241.726 224.995 241.746L199.566 267.185C189.824 276.927 187.577 291.431 192.935 303.28C188.681 307.814 188.77 314.852 193.214 319.295C197.657 323.739 204.695 323.829 209.229 319.574C221.078 324.922 235.572 322.685 245.324 312.943L270.803 287.464L270.783 287.444H270.793L270.773 287.415Z" fill="url(#paint9_linear_426_8584)"/>
<path d="M149.125 323.182C150.994 324.852 167.983 328.69 169.425 327.159C171.125 328.879 204.646 312.675 207.091 309.802C208.811 309.782 210.431 309.364 211.972 308.619C213.324 306.68 213.702 305.497 213.941 303.261C213.831 301.133 213.553 299.036 212.609 298.23C212.31 298.012 210.193 301.382 208.175 301.71C207.419 300.785 207.558 300.248 207.877 299.115C207.191 298.33 206.992 298.032 205.779 298.588C204.964 300.209 203.9 301.928 203.721 303.937L168.132 317.029L156.651 312.347C155.647 316.045 151.68 320.697 149.135 323.182H149.125Z" fill="#EDB6A4"/>
<path style="mix-blend-mode:soft-light" d="M149.125 323.182C150.994 324.852 167.983 328.69 169.425 327.159C171.125 328.879 204.646 312.675 207.091 309.802C208.811 309.782 210.431 309.364 211.972 308.619C213.324 306.68 213.702 305.497 213.941 303.261C213.831 301.133 213.553 299.036 212.609 298.23C212.31 298.012 210.193 301.382 208.175 301.71C207.419 300.785 207.558 300.248 207.877 299.115C207.191 298.33 206.992 298.032 205.779 298.588C204.964 300.209 203.9 301.928 203.721 303.937L168.132 317.029L156.651 312.347C155.647 316.045 151.68 320.697 149.135 323.182H149.125Z" fill="url(#paint10_linear_426_8584)"/>
</g>
<defs>
<linearGradient id="paint0_linear_426_8584" x1="422.453" y1="260.843" x2="457.734" y2="259.789" gradientUnits="userSpaceOnUse">
<stop stop-color="white"/>
<stop offset="1"/>
</linearGradient>
<linearGradient id="paint1_linear_426_8584" x1="407.661" y1="63.9507" x2="541.109" y2="227.441" gradientUnits="userSpaceOnUse">
<stop stop-color="white"/>
<stop offset="1"/>
</linearGradient>
<linearGradient id="paint2_linear_426_8584" x1="353.251" y1="223.856" x2="342.166" y2="247.074" gradientUnits="userSpaceOnUse">
<stop stop-color="white"/>
<stop offset="0.1" stop-color="#F9F9F9"/>
<stop offset="0.22" stop-color="#E9E9E9"/>
<stop offset="0.36" stop-color="#CFCFCF"/>
<stop offset="0.51" stop-color="#ABABAB"/>
<stop offset="0.67" stop-color="#7C7C7C"/>
<stop offset="0.83" stop-color="#434343"/>
<stop offset="1"/>
</linearGradient>
<linearGradient id="paint3_linear_426_8584" x1="299.433" y1="187.776" x2="328.252" y2="283.667" gradientUnits="userSpaceOnUse">
<stop stop-color="white"/>
<stop offset="1"/>
</linearGradient>
<linearGradient id="paint4_linear_426_8584" x1="359.999" y1="212.415" x2="394.031" y2="228.09" gradientUnits="userSpaceOnUse">
<stop stop-color="white"/>
<stop offset="0.1" stop-color="#F9F9F9"/>
<stop offset="0.22" stop-color="#E9E9E9"/>
<stop offset="0.36" stop-color="#CFCFCF"/>
<stop offset="0.51" stop-color="#ABABAB"/>
<stop offset="0.67" stop-color="#7C7C7C"/>
<stop offset="0.83" stop-color="#434343"/>
<stop offset="1"/>
</linearGradient>
<linearGradient id="paint5_linear_426_8584" x1="366.857" y1="250.645" x2="374" y2="275.362" gradientUnits="userSpaceOnUse">
<stop stop-color="white"/>
<stop offset="0.1" stop-color="#F9F9F9"/>
<stop offset="0.22" stop-color="#E9E9E9"/>
<stop offset="0.36" stop-color="#CFCFCF"/>
<stop offset="0.51" stop-color="#ABABAB"/>
<stop offset="0.67" stop-color="#7C7C7C"/>
<stop offset="0.83" stop-color="#434343"/>
<stop offset="1"/>
</linearGradient>
<linearGradient id="paint6_linear_426_8584" x1="188.701" y1="272.247" x2="194.503" y2="303.839" gradientUnits="userSpaceOnUse">
<stop stop-color="white"/>
<stop offset="0.1" stop-color="#F9F9F9"/>
<stop offset="0.22" stop-color="#E9E9E9"/>
<stop offset="0.36" stop-color="#CFCFCF"/>
<stop offset="0.51" stop-color="#ABABAB"/>
<stop offset="0.67" stop-color="#7C7C7C"/>
<stop offset="0.83" stop-color="#434343"/>
<stop offset="1"/>
</linearGradient>
<linearGradient id="paint7_linear_426_8584" x1="164.764" y1="281.894" x2="145.844" y2="293.73" gradientUnits="userSpaceOnUse">
<stop stop-color="white"/>
<stop offset="0.1" stop-color="#F9F9F9"/>
<stop offset="0.22" stop-color="#E9E9E9"/>
<stop offset="0.36" stop-color="#CFCFCF"/>
<stop offset="0.51" stop-color="#ABABAB"/>
<stop offset="0.67" stop-color="#7C7C7C"/>
<stop offset="0.83" stop-color="#434343"/>
<stop offset="1"/>
</linearGradient>
<linearGradient id="paint8_linear_426_8584" x1="158.335" y1="257.355" x2="146.813" y2="291.67" gradientUnits="userSpaceOnUse">
<stop stop-color="white"/>
<stop offset="0.1" stop-color="#F9F9F9"/>
<stop offset="0.22" stop-color="#E9E9E9"/>
<stop offset="0.36" stop-color="#CFCFCF"/>
<stop offset="0.51" stop-color="#ABABAB"/>
<stop offset="0.67" stop-color="#7C7C7C"/>
<stop offset="0.83" stop-color="#434343"/>
<stop offset="1"/>
</linearGradient>
<linearGradient id="paint9_linear_426_8584" x1="182.447" y1="241.706" x2="249.877" y2="314.723" gradientUnits="userSpaceOnUse">
<stop stop-color="white"/>
<stop offset="1"/>
</linearGradient>
<linearGradient id="paint10_linear_426_8584" x1="169.933" y1="283.517" x2="190.454" y2="334.025" gradientUnits="userSpaceOnUse">
<stop stop-color="white"/>
<stop offset="0.1" stop-color="#F9F9F9"/>
<stop offset="0.22" stop-color="#E9E9E9"/>
<stop offset="0.36" stop-color="#CFCFCF"/>
<stop offset="0.51" stop-color="#ABABAB"/>
<stop offset="0.67" stop-color="#7C7C7C"/>
<stop offset="0.83" stop-color="#434343"/>
<stop offset="1"/>
</linearGradient>
<clipPath id="clip0_426_8584">
<rect width="655.033" height="450" fill="white"/>
</clipPath>
</defs>
</svg>
