<svg width="673" height="450" viewBox="0 0 673 450" fill="none" xmlns="http://www.w3.org/2000/svg">
<g clip-path="url(#clip0_475_9313)">
<path d="M667.187 341.275H596.489C601.653 320.196 604.391 298.165 604.391 275.496C604.391 230.435 593.571 187.904 574.389 150.352H624.528C627.412 150.352 629.748 148.013 629.748 145.131C629.748 142.25 627.412 139.911 624.528 139.911H568.766C521.447 56.376 431.755 0 328.895 0C260.479 0 197.892 24.9423 149.72 66.2265H64.884C62.0023 66.2265 59.6635 68.5653 59.6635 71.447C59.6635 74.3318 62.0023 76.6676 64.884 76.6676H138.205C132.349 82.2849 126.743 88.1588 121.4 94.2683H5.22056C2.33881 94.2683 0 96.6071 0 99.4889C0 102.374 2.33881 104.709 5.22056 104.709H112.716C75.5757 151.659 53.3988 210.985 53.3988 275.496C53.3988 311.596 60.3466 346.075 72.9714 377.67H59.216C56.3343 377.67 53.9955 380.009 53.9955 382.891C53.9955 385.775 56.3343 388.111 59.216 388.111H77.3955C79.2958 392.344 81.2975 396.524 83.4006 400.64H21.628C18.7463 400.64 16.4075 402.976 16.4075 405.861C16.4075 408.746 18.7463 411.082 21.628 411.082H89.0209C95.4586 422.447 102.681 433.312 110.616 443.598H547.174C562.003 424.372 574.348 403.128 583.73 380.355H634.969C637.853 380.355 640.189 378.016 640.189 375.134C640.189 372.253 637.853 369.914 634.969 369.914H587.781C589.959 363.941 591.939 357.874 593.708 351.716H667.187C670.072 351.716 672.408 349.378 672.408 346.496C672.408 343.614 670.072 341.275 667.187 341.275Z" fill="#F9F8F8"/>
<path d="M444.684 443.583H411.308C411.308 441.173 413.262 439.219 415.672 439.219H440.322C442.733 439.219 444.687 441.173 444.687 443.583H444.684Z" fill="#F2F2F2"/>
<path d="M436.776 439.219H419.214L424.923 276.534L428.757 279.082L436.776 439.219Z" fill="#F2F2F2"/>
<path d="M442.199 443.583H408.823C408.823 441.173 410.777 439.219 413.188 439.219H437.837C440.248 439.219 442.202 441.173 442.202 443.583H442.199Z" fill="#F2F2F2"/>
<path d="M425.511 277.972L509.49 326.458L508.572 321.685C508.39 320.742 507.873 319.901 507.116 319.313L452.252 276.845C451.247 276.066 449.931 275.821 448.714 276.185L437.706 279.473C436.668 279.783 435.546 279.652 434.61 279.109L427.295 274.885L425.514 277.969L425.511 277.972Z" fill="#F2F2F2"/>
<path d="M423.73 274.888L339.751 323.373L344.336 324.963C345.246 325.279 346.242 325.253 347.134 324.886L411.329 298.613C412.51 298.13 413.387 297.106 413.683 295.862L416.335 284.705C416.585 283.646 417.266 282.736 418.208 282.191L425.514 277.972L423.733 274.888H423.73Z" fill="#F2F2F2"/>
<path d="M427.292 274.888V177.917L423.62 181.094C422.892 181.723 422.42 182.594 422.292 183.549L412.946 252.287C412.773 253.549 413.22 254.817 414.148 255.691L422.492 263.572C423.283 264.318 423.73 265.356 423.73 266.445V274.888H427.292Z" fill="#F2F2F2"/>
<path d="M433.572 439.219H417.453L423.16 276.534H427.865L433.572 439.219Z" fill="#F2F2F2"/>
<path d="M429.515 277.467C430.039 275.248 428.665 273.024 426.446 272.501C424.226 271.977 422.003 273.351 421.479 275.571C420.955 277.79 422.329 280.013 424.549 280.537C426.768 281.061 428.992 279.687 429.515 277.467Z" fill="#F2F2F2"/>
<path d="M425.231 280.054C427.31 280.054 428.995 278.369 428.995 276.29C428.995 274.21 427.31 272.525 425.231 272.525C423.151 272.525 421.466 274.21 421.466 276.29C421.466 278.369 423.151 280.054 425.231 280.054Z" fill="#F2F2F2"/>
<path d="M341.239 323.889L421.466 276.29L421.394 276.236L339.751 323.373L341.239 323.889Z" fill="#F2F2F2"/>
<path d="M433.572 438.163H417.489V439.219H433.572V438.163Z" fill="#F2F2F2"/>
<path d="M426.102 178.949L427.205 272.886L427.292 272.85V177.917L426.102 178.949Z" fill="#F2F2F2"/>
<path d="M509.195 324.909L427.859 279.231L427.847 279.32L509.49 326.458L509.195 324.909Z" fill="#F2F2F2"/>
<path d="M554.331 443.583H500.899C500.899 439.726 504.025 436.596 507.886 436.596H547.347C551.204 436.596 554.334 439.723 554.334 443.583H554.331Z" fill="#ECECEC"/>
<path d="M541.673 436.597H513.556L522.694 176.142L528.836 180.226L541.673 436.597Z" fill="#ECECEC"/>
<path d="M550.357 443.583H496.925C496.925 439.726 500.052 436.596 503.912 436.596H543.373C547.231 436.596 550.36 439.723 550.36 443.583H550.357Z" fill="#F2F2F2"/>
<path d="M523.64 178.445L658.088 256.067L656.451 247.55C656.269 246.607 655.75 245.763 654.992 245.175L565.488 175.894C564.482 175.115 563.164 174.871 561.947 175.235L542.186 181.138C541.148 181.449 540.026 181.317 539.086 180.774L526.495 173.504L523.643 178.445H523.64Z" fill="#F2F2F2"/>
<path d="M520.788 173.504L386.339 251.127L394.534 253.967C395.441 254.28 396.434 254.253 397.323 253.889L503.948 210.251L509.577 186.562L523.643 178.442L520.791 173.501L520.788 173.504Z" fill="#F2F2F2"/>
<path d="M526.489 173.504V18.2568L519.932 23.9308C519.204 24.5603 518.732 25.4344 518.601 26.386L503.354 138.532C503.181 139.794 503.631 141.062 504.556 141.936L519.544 156.091C520.334 156.837 520.782 157.878 520.782 158.964V173.501H526.486L526.489 173.504Z" fill="#F2F2F2"/>
<path d="M536.542 436.597H510.737L519.875 176.142H527.404L536.542 436.597Z" fill="#F2F2F2"/>
<path d="M529.745 178.67C531.142 175.299 529.541 171.434 526.169 170.037C522.798 168.64 518.932 170.241 517.536 173.613C516.139 176.985 517.74 180.85 521.112 182.246C524.483 183.643 528.349 182.042 529.745 178.67Z" fill="#ECECEC"/>
<path d="M528.758 178.059C530.031 174.984 528.571 171.459 525.496 170.186C522.422 168.912 518.897 170.372 517.623 173.447C516.349 176.522 517.809 180.047 520.884 181.32C523.959 182.594 527.484 181.134 528.758 178.059Z" fill="#F2F2F2"/>
<path d="M388.723 251.956L517.163 175.754L517.05 175.664L386.339 251.129L388.723 251.956Z" fill="#ECECEC"/>
<path d="M536.545 434.905H510.797V436.596H536.545V434.905Z" fill="#ECECEC"/>
<path d="M524.585 19.9125L526.354 170.3L526.488 170.247V18.2568L524.585 19.9125Z" fill="#ECECEC"/>
<path d="M657.611 253.59L527.398 180.461L527.38 180.604L658.088 256.07L657.611 253.59Z" fill="#ECECEC"/>
<path d="M157.658 214.195C157.658 196.919 143.653 182.914 126.378 182.914C109.102 182.914 95.0977 196.919 95.0977 214.195V286.197C95.0977 303.473 109.102 317.479 126.378 317.479C143.653 317.479 157.658 303.473 157.658 286.197V214.195Z" fill="#F2F2F2"/>
<path d="M128.086 443.738H124.673V232.944C124.673 232.001 125.437 231.238 126.379 231.238C127.322 231.238 128.086 232.001 128.086 232.944V443.738Z" fill="#E4E4E4"/>
<path d="M128.086 261.514L118.596 245.077C118.125 244.26 117.081 243.982 116.266 244.454C115.449 244.925 115.171 245.969 115.643 246.783L125.132 263.221L128.089 261.514H128.086Z" fill="#E4E4E4"/>
<path d="M127.626 281.173L137.116 264.736C137.587 263.919 137.307 262.877 136.492 262.406C135.675 261.935 134.634 262.215 134.162 263.03L124.673 279.467L127.629 281.173H127.626Z" fill="#E4E4E4"/>
<path d="M245.978 152.058C245.978 130.121 228.194 112.337 206.257 112.337C184.319 112.337 166.536 130.121 166.536 152.058V243.496C166.536 265.433 184.319 283.217 206.257 283.217C228.194 283.217 245.978 265.433 245.978 243.496V152.058Z" fill="#F2F2F2"/>
<path d="M208.423 443.547H204.088V175.87C204.088 174.674 205.058 173.704 206.254 173.704C207.45 173.704 208.42 174.674 208.42 175.87V443.547H208.423Z" fill="#E4E4E4"/>
<path d="M208.423 212.149L196.374 191.278C195.774 190.243 194.449 189.888 193.414 190.485C192.379 191.084 192.024 192.409 192.621 193.444L204.67 214.314L208.423 212.149Z" fill="#E4E4E4"/>
<path d="M207.844 237.115L219.893 216.244C220.492 215.209 220.137 213.882 219.099 213.285C218.064 212.686 216.737 213.041 216.14 214.079L204.091 234.949L207.844 237.115Z" fill="#E4E4E4"/>
<path d="M145.674 431.907C147.497 430.195 148.329 428.238 147.61 426.862C146.721 425.159 143.744 424.896 140.567 426.096C140.728 425.681 140.88 425.254 141.018 424.816C142.712 419.407 141.743 414.291 138.858 413.387C136.045 412.507 132.444 415.953 130.696 421.138C129.249 415.198 125.529 411.01 122.34 411.762C119.339 412.469 117.868 417.301 118.832 422.841C114.435 420.899 110.19 421.054 108.838 423.396C107.439 425.821 109.62 429.756 113.772 432.626C111.803 433.285 110.449 434.493 110.264 436.006C110.037 437.864 111.63 439.699 114.16 440.833C114.02 441.194 113.981 441.558 114.065 441.907C114.327 443.028 115.75 443.72 117.606 443.792V443.798H117.883C117.883 443.798 117.898 443.798 117.904 443.798H141.367V443.777C141.823 443.717 142.166 443.523 142.283 443.213C142.36 443.007 142.327 442.772 142.205 442.539C143.44 442.42 144.371 441.93 144.675 441.116C144.914 440.481 144.735 439.747 144.239 439.028C147.446 438.813 149.913 437.408 149.991 435.597C150.06 434.007 148.264 432.566 145.668 431.91L145.674 431.907Z" fill="#E4E4E4"/>
<path d="M195.067 421.934C198.42 418.784 199.95 415.186 198.629 412.654C196.991 409.518 191.517 409.038 185.673 411.246C185.971 410.485 186.249 409.7 186.502 408.892C189.617 398.946 187.839 389.537 182.528 387.872C177.353 386.253 170.736 392.592 167.52 402.123C164.856 391.199 158.019 383.499 152.157 384.877C146.638 386.175 143.932 395.065 145.707 405.252C137.62 401.682 129.816 401.965 127.331 406.273C124.756 410.733 128.766 417.97 136.406 423.244C132.784 424.458 130.293 426.678 129.953 429.461C129.535 432.88 132.468 436.254 137.119 438.336C136.862 439.001 136.793 439.669 136.943 440.314C137.429 442.375 140.039 443.649 143.458 443.783V443.795H143.968C143.968 443.795 143.995 443.795 144.007 443.795H187.158V443.756C188 443.646 188.629 443.291 188.841 442.721C188.984 442.339 188.921 441.91 188.701 441.477C190.971 441.256 192.68 440.358 193.241 438.861C193.68 437.694 193.351 436.343 192.442 435.019C198.342 434.625 202.874 432.038 203.02 428.712C203.145 425.786 199.843 423.14 195.07 421.928L195.067 421.934Z" fill="#F2F2F2"/>
<path d="M488.844 424.184C485.858 421.377 484.495 418.176 485.67 415.92C487.126 413.128 492.003 412.701 497.206 414.667C496.94 413.99 496.693 413.289 496.469 412.573C493.695 403.716 495.279 395.336 500.007 393.857C504.616 392.413 510.508 398.06 513.372 406.547C515.743 396.822 521.832 389.964 527.052 391.193C531.969 392.35 534.376 400.265 532.795 409.333C539.996 406.153 546.944 406.407 549.158 410.24C551.449 414.211 547.881 420.655 541.076 425.353C544.301 426.433 546.518 428.411 546.822 430.89C547.195 433.936 544.585 436.937 540.444 438.792C540.674 439.383 540.733 439.98 540.599 440.552C540.167 442.39 537.84 443.524 534.8 443.643V443.655H534.346C534.346 443.655 534.322 443.655 534.311 443.655H495.887V443.622C495.139 443.524 494.578 443.207 494.39 442.7C494.261 442.36 494.318 441.978 494.515 441.594C492.492 441.397 490.971 440.597 490.47 439.264C490.082 438.223 490.371 437.02 491.18 435.842C485.926 435.49 481.89 433.19 481.762 430.228C481.649 427.623 484.593 425.267 488.841 424.187L488.844 424.184Z" fill="#EAEAEA"/>
<path d="M533.251 435.815C532.046 434.682 531.494 433.387 531.969 432.477C532.556 431.35 534.528 431.177 536.628 431.97C536.521 431.696 536.422 431.412 536.33 431.123C535.208 427.543 535.85 424.16 537.759 423.56C539.62 422.979 542.001 425.258 543.158 428.689C544.116 424.76 546.577 421.988 548.686 422.484C550.673 422.952 551.646 426.15 551.007 429.813C553.916 428.527 556.726 428.632 557.618 430.18C558.543 431.785 557.102 434.389 554.354 436.287C555.658 436.722 556.553 437.522 556.675 438.524C556.824 439.753 555.771 440.967 554.098 441.716C554.19 441.955 554.214 442.196 554.16 442.426C553.987 443.169 553.045 443.625 551.816 443.673L551.634 443.676C551.628 443.676 551.625 443.676 551.619 443.676H536.094V443.661C535.793 443.622 535.566 443.494 535.489 443.288C535.438 443.151 535.459 442.996 535.539 442.841C534.722 442.76 534.108 442.438 533.905 441.898C533.747 441.477 533.866 440.991 534.191 440.517C532.067 440.374 530.438 439.446 530.385 438.247C530.34 437.194 531.527 436.242 533.245 435.806L533.251 435.815Z" fill="#E4E4E4"/>
<path d="M344.053 425.311C341.239 422.665 339.954 419.649 341.063 417.522C342.436 414.891 347.033 414.488 351.937 416.341C351.686 415.703 351.454 415.043 351.242 414.366C348.629 406.019 350.12 398.12 354.577 396.724C358.921 395.363 364.475 400.685 367.175 408.686C369.409 399.519 375.149 393.054 380.071 394.212C384.704 395.301 386.974 402.762 385.486 411.311C392.276 408.313 398.824 408.552 400.912 412.167C403.072 415.908 399.707 421.985 393.296 426.412C396.336 427.432 398.427 429.294 398.71 431.633C399.062 434.502 396.601 437.334 392.696 439.082C392.914 439.639 392.971 440.2 392.842 440.74C392.437 442.471 390.244 443.539 387.374 443.652V443.661H386.948C386.948 443.661 386.927 443.661 386.915 443.661H350.696V443.628C349.989 443.536 349.464 443.237 349.285 442.76C349.166 442.441 349.216 442.08 349.404 441.716C347.498 441.531 346.063 440.776 345.592 439.52C345.225 438.539 345.499 437.408 346.263 436.295C341.311 435.964 337.504 433.795 337.385 431.003C337.278 428.548 340.052 426.326 344.058 425.308L344.053 425.311Z" fill="#F2F2F2"/>
<path d="M384.773 433.267C383.18 431.77 382.452 430.061 383.078 428.855C383.857 427.364 386.458 427.137 389.239 428.187C389.095 427.826 388.964 427.453 388.845 427.068C387.365 422.34 388.209 417.865 390.733 417.075C393.194 416.305 396.339 419.318 397.869 423.85C399.134 418.656 402.385 414.995 405.175 415.652C407.8 416.269 409.086 420.494 408.241 425.338C412.087 423.641 415.798 423.775 416.979 425.821C418.202 427.942 416.296 431.382 412.666 433.891C414.387 434.467 415.571 435.523 415.732 436.847C415.932 438.473 414.536 440.075 412.325 441.065C412.448 441.382 412.481 441.698 412.409 442.005C412.179 442.987 410.935 443.592 409.312 443.655V443.661H409.071C409.071 443.661 409.059 443.661 409.053 443.661H388.538V443.643C388.138 443.589 387.84 443.422 387.738 443.151C387.67 442.969 387.699 442.766 387.807 442.56C386.727 442.456 385.915 442.029 385.647 441.316C385.438 440.761 385.596 440.12 386.026 439.49C383.222 439.302 381.065 438.073 380.996 436.492C380.936 435.102 382.509 433.843 384.776 433.267H384.773Z" fill="#E4E4E4"/>
<path d="M405.398 186.004C405.142 186.004 404.894 186.043 404.665 186.115C404.674 185.992 404.677 185.87 404.677 185.745C404.677 182.887 402.359 180.569 399.501 180.569C397.129 180.569 395.13 182.165 394.519 184.34C394.229 184.259 393.922 184.214 393.606 184.214C391.753 184.214 390.253 185.715 390.253 187.567C390.253 189.42 391.753 190.92 393.606 190.92C393.666 190.92 393.722 190.92 393.782 190.914V190.92H405.401C406.759 190.92 407.86 189.82 407.86 188.462C407.86 187.105 406.759 186.004 405.401 186.004H405.398Z" fill="#F2F2F2"/>
<path d="M315.026 129.476C313.627 129.476 312.317 129.864 311.199 130.532C310.041 125.523 305.555 121.788 300.194 121.788C299.722 121.788 299.257 121.821 298.801 121.878C296.304 116.311 290.713 112.436 284.219 112.436C275.395 112.436 268.244 119.59 268.244 128.411C268.244 128.506 268.244 128.599 268.247 128.694C267.179 128.19 265.986 127.904 264.727 127.904C260.175 127.904 256.484 131.594 256.484 136.146C256.484 140.699 260.175 144.389 264.727 144.389H315.026C319.143 144.389 322.481 141.051 322.481 136.934C322.481 132.817 319.143 129.479 315.026 129.479V129.476Z" fill="#F2F2F2"/>
<path d="M238.365 307.005C239.286 307.005 240.146 307.258 240.882 307.7C241.643 304.406 244.593 301.948 248.123 301.948C248.433 301.948 248.737 301.969 249.038 302.008C250.682 298.347 254.357 295.797 258.632 295.797C264.438 295.797 269.142 300.501 269.142 306.307C269.142 306.369 269.142 306.429 269.142 306.492C269.843 306.16 270.631 305.972 271.457 305.972C274.452 305.972 276.877 308.401 276.877 311.393C276.877 314.385 274.449 316.813 271.457 316.813H238.368C235.659 316.813 233.463 314.618 233.463 311.909C233.463 309.2 235.659 307.005 238.368 307.005H238.365Z" fill="#F2F2F2"/>
<path d="M567.468 414.3L567.391 414.599C567.382 414.631 567.179 415.398 566.675 416.35C566.207 417.233 565.383 418.441 564.106 419.196C562.83 419.95 561.371 420.088 560.371 420.07C559.298 420.052 558.528 419.858 558.495 419.849L558.197 419.774L558.274 419.476C558.283 419.443 558.486 418.677 558.99 417.725C559.459 416.842 560.282 415.634 561.559 414.879C562.836 414.124 564.294 413.987 565.294 414.005C566.368 414.023 567.137 414.217 567.17 414.226L567.468 414.3ZM558.963 419.321C559.778 419.464 562.012 419.724 563.799 418.671C565.586 417.614 566.439 415.538 566.708 414.754C565.893 414.61 563.659 414.351 561.872 415.404C560.082 416.46 559.232 418.536 558.963 419.321Z" fill="#E4E4E4"/>
<path d="M563.208 421.436C560.368 422.507 557.206 421.09 557.206 421.09C557.206 421.09 558.647 417.937 561.484 416.866C564.321 415.795 567.486 417.212 567.486 417.212C567.486 417.212 566.045 420.365 563.208 421.436Z" fill="#F2F2F2"/>
<path d="M557.135 380.194V380.576C557.132 380.617 557.117 381.605 556.798 382.903C556.502 384.108 555.873 385.817 554.56 387.115C553.248 388.413 551.529 389.018 550.318 389.299C549.018 389.6 548.027 389.603 547.985 389.603H547.604L547.607 389.221C547.607 389.179 547.621 388.192 547.941 386.894C548.236 385.689 548.865 383.98 550.178 382.682C551.491 381.384 553.209 380.779 554.42 380.498C555.721 380.197 556.711 380.194 556.753 380.197H557.135V380.194ZM548.391 388.827C549.42 388.753 552.192 388.389 554.026 386.578C555.864 384.764 556.264 381.999 556.35 380.972C555.321 381.047 552.55 381.411 550.715 383.222C548.877 385.036 548.478 387.801 548.391 388.827Z" fill="#E4E4E4"/>
<path d="M554.158 390.095C551.058 392.246 546.81 391.494 546.81 391.494C546.81 391.494 547.592 387.255 550.694 385.104C553.794 382.953 558.042 383.705 558.042 383.705C558.042 383.705 557.26 387.944 554.158 390.095Z" fill="#F2F2F2"/>
<path d="M163.403 370.182L163.645 370.388C163.672 370.412 164.295 370.949 164.955 371.847C165.566 372.682 166.321 373.998 166.446 375.531C166.572 377.064 166.041 378.484 165.572 379.409C165.068 380.402 164.54 381.035 164.516 381.062L164.31 381.306L164.069 381.101C164.042 381.077 163.418 380.54 162.759 379.642C162.148 378.806 161.393 377.491 161.268 375.958C161.142 374.424 161.673 373.004 162.142 372.079C162.646 371.086 163.174 370.454 163.195 370.427L163.4 370.182H163.403ZM164.236 380.388C164.74 379.692 165.99 377.724 165.814 375.585C165.638 373.44 164.087 371.707 163.478 371.101C162.974 371.796 161.724 373.765 161.9 375.904C162.076 378.049 163.627 379.782 164.236 380.388Z" fill="#E4E4E4"/>
<path d="M168.135 377.384C167.848 380.516 165.095 382.825 165.095 382.825C165.095 382.825 162.807 380.057 163.093 376.924C163.38 373.792 166.133 371.483 166.133 371.483C166.133 371.483 168.421 374.251 168.135 377.384Z" fill="#F2F2F2"/>
<path d="M103.042 406.359L103.31 406.341C103.34 406.341 104.029 406.296 104.954 406.451C105.813 406.595 107.039 406.944 108.015 407.791C108.99 408.638 109.503 409.807 109.766 410.637C110.046 411.529 110.1 412.221 110.1 412.251L110.121 412.516L109.852 412.534C109.823 412.534 109.134 412.579 108.209 412.424C107.35 412.28 106.123 411.931 105.148 411.084C104.172 410.237 103.659 409.068 103.397 408.238C103.116 407.346 103.063 406.654 103.063 406.624L103.042 406.359ZM109.533 412.009C109.429 411.296 109.026 409.378 107.663 408.191C106.297 407.003 104.346 406.872 103.624 406.866C103.728 407.579 104.131 409.497 105.494 410.684C106.86 411.872 108.811 412.003 109.533 412.009Z" fill="#E4E4E4"/>
<path d="M110.115 407.916C111.783 409.969 111.481 412.973 111.481 412.973C111.481 412.973 108.477 412.65 106.813 410.598C105.148 408.546 105.446 405.542 105.446 405.542C105.446 405.542 108.45 405.864 110.115 407.916Z" fill="#F2F2F2"/>
<path d="M477.09 398.215L477.392 398.206C477.424 398.206 478.2 398.189 479.229 398.403C480.184 398.603 481.544 399.051 482.6 400.047C483.653 401.043 484.178 402.377 484.432 403.32C484.706 404.334 484.733 405.109 484.733 405.142L484.742 405.444L484.441 405.453C484.408 405.453 483.632 405.47 482.603 405.256C481.649 405.056 480.288 404.608 479.232 403.612C478.179 402.616 477.654 401.282 477.401 400.339C477.126 399.325 477.099 398.549 477.099 398.517L477.09 398.215ZM484.113 404.847C484.026 404.042 483.662 401.873 482.192 400.483C480.715 399.089 478.531 398.851 477.723 398.812C477.809 399.617 478.173 401.786 479.644 403.176C481.121 404.57 483.304 404.808 484.113 404.847Z" fill="#E4E4E4"/>
<path d="M484.951 400.283C486.726 402.66 486.252 406.016 486.252 406.016C486.252 406.016 482.899 405.518 481.124 403.14C479.349 400.763 479.823 397.407 479.823 397.407C479.823 397.407 483.176 397.905 484.951 400.283Z" fill="#F2F2F2"/>
<path d="M393.916 425.287H255.223L257.746 416.15L262.675 398.31L265.658 387.508L270.058 371.584L278.539 340.884L282.939 324.957L313.872 212.999H335.267L346.603 254.029L366.2 324.957L370.6 340.884L379.081 371.584L383.481 387.508L391.393 416.15L393.916 425.287Z" fill="#986BE5"/>
<path d="M393.916 425.287H255.223L257.746 416.15L262.675 398.31C359.323 392.601 346.606 254.032 346.606 254.032L391.396 416.153L393.919 425.29L393.916 425.287Z" fill="#8258C9"/>
<path d="M422.292 425.287H226.844V443.869H422.292V425.287Z" fill="#8258C9"/>
<path d="M393.916 425.287H255.223L257.746 416.15H391.393L393.916 425.287Z" fill="#603E9A"/>
<path d="M370.6 340.884C370.6 340.884 367.694 402.18 297.27 416.201L391.396 416.15L370.6 340.884Z" fill="#C6A5FC"/>
<path d="M370.6 340.884H278.539L282.939 324.957H366.2L370.6 340.884Z" fill="white"/>
<path d="M383.481 387.508H265.658L270.058 371.584H379.081L383.481 387.508Z" fill="white"/>
<path d="M377.085 425.287C377.085 425.287 351.179 444.845 255.223 443.869H422.295V425.287H377.088H377.085Z" fill="#C6A5FC"/>
<path d="M451.011 443.628H195.404C193.669 443.628 192.263 445.034 192.263 446.769V446.859C192.263 448.594 193.669 450 195.404 450H451.011C452.746 450 454.153 448.594 454.153 446.859V446.769C454.153 445.034 452.746 443.628 451.011 443.628Z" fill="#986BE5"/>
<path d="M200.249 443.628H158.857C157.122 443.628 155.716 445.034 155.716 446.769V446.859C155.716 448.594 157.122 450 158.857 450H200.249C201.984 450 203.39 448.594 203.39 446.859V446.769C203.39 445.034 201.984 443.628 200.249 443.628Z" fill="#986BE5"/>
<path d="M139.881 443.628H96.3924C94.6575 443.628 93.2511 445.034 93.2511 446.769V446.859C93.2511 448.594 94.6575 450 96.3924 450H139.881C141.616 450 143.022 448.594 143.022 446.859V446.769C143.022 445.034 141.616 443.628 139.881 443.628Z" fill="#986BE5"/>
<path d="M506.191 443.628H470.494C468.759 443.628 467.353 445.034 467.353 446.769V446.859C467.353 448.594 468.759 450 470.494 450H506.191C507.926 450 509.332 448.594 509.332 446.859V446.769C509.332 445.034 507.926 443.628 506.191 443.628Z" fill="#986BE5"/>
<path d="M552.86 443.628H525.707C523.972 443.628 522.566 445.034 522.566 446.769V446.859C522.566 448.594 523.972 450 525.707 450H552.86C554.595 450 556.001 448.594 556.001 446.859V446.769C556.001 445.034 554.595 443.628 552.86 443.628Z" fill="#986BE5"/>
</g>
<defs>
<clipPath id="clip0_475_9313">
<rect width="672.408" height="450" fill="white"/>
</clipPath>
</defs>
</svg>
