<svg width="672" height="740" viewBox="0 0 672 740" fill="none" xmlns="http://www.w3.org/2000/svg">
<g clip-path="url(#clip0_642_1704)">
<path d="M671.277 716.475C671.043 716.475 670.812 716.361 670.675 716.15C670.554 715.969 658.334 697.806 629.003 681.495C601.918 666.437 554.293 649.923 481.196 656.772C335.576 670.416 293.675 665.676 191.057 641.139C136.292 628.043 87.6047 641.828 56.4007 655.695C22.5579 670.736 1.40634 689.117 1.19806 689.301C0.896827 689.563 0.4424 689.534 0.177317 689.234C-0.0843227 688.935 -0.0550604 688.479 0.244449 688.216C0.45617 688.03 21.7402 669.524 55.7707 654.394C87.1864 640.424 136.218 626.541 191.395 639.733C293.825 664.226 335.66 668.957 481.061 655.334C554.589 648.443 602.524 665.098 629.795 680.282C659.397 696.765 671.759 715.169 671.88 715.353C672.1 715.685 672.009 716.134 671.675 716.353C671.552 716.434 671.413 716.471 671.277 716.471V716.475Z" fill="white"/>
<path d="M560.595 284.867C560.321 284.811 560.146 284.542 560.202 284.268C560.782 281.496 561.326 278.638 561.819 275.772C561.934 275.111 562.929 275.285 562.815 275.944C562.321 278.82 561.776 281.69 561.192 284.475C561.132 284.754 560.86 284.922 560.593 284.866L560.595 284.867Z" fill="white"/>
<path d="M473.111 425.877C472.935 425.658 472.973 425.34 473.191 425.166C477.572 421.68 481.894 417.99 486.038 414.199C486.242 414.011 486.564 414.023 486.752 414.23C486.941 414.436 486.928 414.756 486.721 414.944C482.561 418.75 478.221 422.456 473.821 425.956C473.601 426.132 473.283 426.092 473.112 425.875L473.111 425.877ZM498.116 403.088C497.915 402.896 497.906 402.575 498.097 402.374C501.962 398.318 505.736 394.069 509.318 389.748C509.497 389.533 509.816 389.503 510.031 389.681C510.246 389.86 510.275 390.178 510.098 390.393C506.501 394.733 502.71 398.998 498.832 403.071C498.636 403.276 498.316 403.279 498.116 403.088ZM519.758 377.083C519.531 376.92 519.479 376.605 519.643 376.378C522.915 371.824 526.07 367.097 529.021 362.328C529.167 362.089 529.482 362.018 529.716 362.165C529.955 362.311 530.028 362.622 529.881 362.86C526.919 367.649 523.752 372.396 520.464 376.968C520.3 377.195 519.984 377.245 519.758 377.083ZM537.615 348.346C537.369 348.215 537.274 347.91 537.403 347.662C540.018 342.699 542.49 337.581 544.75 332.451C544.864 332.196 545.16 332.079 545.416 332.193C545.673 332.305 545.788 332.604 545.676 332.859C543.406 338.011 540.925 343.15 538.299 348.134C538.169 348.38 537.863 348.476 537.615 348.346ZM551.324 317.41C551.06 317.315 550.924 317.026 551.019 316.763C552.916 311.492 554.651 306.079 556.178 300.676C556.254 300.407 556.524 300.251 556.803 300.326C557.071 300.402 557.228 300.681 557.15 300.951C555.615 306.377 553.873 311.812 551.969 317.105C551.876 317.367 551.587 317.505 551.324 317.41Z" fill="white"/>
<path d="M452.248 440.706C452.097 440.47 452.166 440.159 452.401 440.007C454.811 438.471 457.237 436.863 459.61 435.228C459.841 435.07 460.158 435.129 460.313 435.357C460.471 435.588 460.412 435.903 460.184 436.061C457.801 437.703 455.366 439.317 452.945 440.861C452.706 441.012 452.395 440.94 452.247 440.706H452.248Z" fill="white"/>
<path d="M108.842 356.279C107.408 353.789 105.997 351.233 104.644 348.685C104.515 348.438 104.608 348.132 104.854 348.001C105.1 347.871 105.405 347.963 105.539 348.211C106.885 350.751 108.293 353.297 109.72 355.777C110.051 356.356 109.18 356.861 108.842 356.281V356.279Z" fill="white"/>
<path d="M97.0409 333C94.7 327.698 92.5259 322.251 90.5791 316.813C90.4844 316.55 90.6222 316.26 90.8838 316.168C91.1437 316.073 91.4346 316.211 91.5293 316.474C93.4692 321.89 95.6329 327.312 97.9653 332.592C98.0789 332.847 97.9618 333.146 97.7071 333.258C97.4506 333.372 97.1511 333.253 97.0392 333H97.0409ZM85.2912 300.206C83.7386 294.644 82.3633 288.942 81.2083 283.263C81.1515 282.99 81.3288 282.723 81.6025 282.668C81.8813 282.611 82.143 282.79 82.198 283.062C83.3496 288.719 84.718 294.396 86.2638 299.934C86.3378 300.203 86.1812 300.481 85.9126 300.557C85.6475 300.631 85.3653 300.478 85.2912 300.206ZM78.3492 266.073C77.6056 260.358 77.0565 254.52 76.7156 248.724C76.7002 248.446 76.9119 248.206 77.1907 248.191C77.4661 248.17 77.7088 248.387 77.7261 248.666C78.0669 254.44 78.6125 260.253 79.351 265.944C79.3871 266.221 79.1909 266.474 78.9155 266.51C78.647 266.548 78.3853 266.355 78.3492 266.075V266.073Z" fill="white"/>
<path d="M76.8172 231.777H76.812C76.5332 231.773 76.3077 231.544 76.3128 231.265C76.3455 228.386 76.4316 225.466 76.5659 222.585C76.5779 222.315 76.8017 222.103 77.0702 222.103C77.0771 222.103 77.0857 222.103 77.0943 222.103C77.3714 222.117 77.5883 222.353 77.5746 222.632C77.4403 225.5 77.356 228.409 77.3215 231.276C77.3181 231.553 77.0926 231.775 76.8172 231.775V231.777Z" fill="white"/>
<path d="M113.311 124.208L89.178 144.453V112.95C98.8604 112.95 107.527 117.331 113.311 124.208Z" fill="#6680FF"/>
<path d="M112.676 197.991C101.446 186.848 102.947 178.154 115.435 185.399C127.923 192.646 133.118 200.371 133.118 200.371L109.348 217.772C63.6078 212.941 61.0447 172.15 70.4225 181.684C79.8002 191.218 112.674 197.991 112.674 197.991C112.674 197.991 110.93 200.301 115.02 204.428" fill="white"/>
<path d="M109.348 218.278C109.329 218.278 109.314 218.278 109.295 218.274C79.0807 215.084 67.6494 196.202 65.8265 186.662C65.1656 183.205 65.62 180.698 67.0418 179.951C67.7613 179.576 68.992 179.507 70.7839 181.328C78.7571 189.431 104.386 195.618 111.137 197.136C105.673 191.335 103.305 185.924 105.227 183.417C106.753 181.426 110.565 181.99 115.688 184.962C128.133 192.185 133.321 199.771 133.536 200.089C133.689 200.315 133.634 200.619 133.416 200.779L109.646 218.178C109.558 218.241 109.455 218.276 109.347 218.276L109.348 218.278ZM67.9179 180.753C67.7682 180.753 67.6322 180.784 67.5117 180.847C66.7388 181.254 66.1915 183.186 66.8197 186.473C68.591 195.737 79.7296 214.06 109.207 217.249L132.414 200.261C131.173 198.606 125.825 192.013 115.182 185.836C110.62 183.19 107.198 182.512 106.031 184.031C104.628 185.862 106.605 191.252 113.032 197.632C113.125 197.723 113.175 197.842 113.182 197.962C113.182 197.962 113.178 197.965 113.182 197.967V197.99V197.993V197.996C113.182 198.101 113.147 198.208 113.08 198.296C113.044 198.349 111.736 200.392 115.383 204.071C115.579 204.269 115.578 204.589 115.38 204.786C115.182 204.982 114.865 204.98 114.664 204.782C111.54 201.631 111.627 199.401 111.954 198.354C107.25 197.346 78.8414 190.961 70.0627 182.037C69.2382 181.198 68.4843 180.751 67.9179 180.751V180.753Z" fill="black"/>
<path d="M274.407 259.349L231.026 315.194C224.3 313.294 217.898 311.258 211.808 309.105C194.492 302.987 179.743 295.948 167.253 288.6C128.312 265.705 111.07 239.779 105.129 228.91C103.496 225.939 104.105 222.243 106.615 219.956L130.644 198.024C133.838 195.129 138.812 195.573 141.427 199.005C153.13 214.388 189.723 251.523 274.407 259.348V259.349Z" fill="#FFAE44"/>
<path d="M223.749 265.6L211.808 309.105C194.492 302.987 179.743 295.948 167.253 288.6L223.749 265.6Z" fill="#FFAE44"/>
<path d="M89.178 176.464C71.5242 176.464 57.1615 162.105 57.1615 144.455C57.1615 126.805 71.5242 112.446 89.178 112.446C98.6469 112.446 107.584 116.615 113.698 123.885C118.533 129.631 121.194 136.936 121.194 144.455C121.194 162.105 106.832 176.464 89.1797 176.464H89.178ZM89.178 113.456C72.0819 113.456 58.1719 127.361 58.1719 144.453C58.1719 161.545 72.0819 175.452 89.178 175.452C106.274 175.452 120.182 161.547 120.182 144.453C120.182 137.172 117.604 130.097 112.924 124.533C107.002 117.493 98.3474 113.456 89.178 113.456Z" fill="white"/>
<path d="M202.948 112.809C192.824 100.654 195.142 92.1403 206.887 100.535C218.633 108.93 224.646 120.531 224.646 120.531L197.764 132.186C152.686 123.05 153.996 82.2002 162.429 92.5774C170.861 102.955 202.947 112.809 202.947 112.809C202.947 112.809 201.487 116.877 205.673 119.56" fill="white"/>
<path d="M197.664 132.68C167.889 126.645 158.294 106.767 157.382 97.0983C156.717 90.0494 160.039 88.8344 162.821 92.2574C169.99 101.079 194.92 109.663 201.496 111.812C196.604 105.521 194.76 99.9103 196.912 97.594C198.616 95.756 202.361 96.6784 207.178 100.122C218.888 108.491 225.031 120.179 225.091 120.296C225.227 120.558 225.11 120.876 224.845 120.993L197.963 132.649C197.864 132.692 197.759 132.701 197.662 132.68H197.664ZM158.389 97.0037C159.275 106.397 168.636 125.704 197.709 131.658L223.935 120.288C222.661 118.03 216.762 108.216 206.592 100.946C202.301 97.8779 198.955 96.8815 197.654 98.284C196.082 99.9757 197.54 105.527 203.336 112.485C203.456 112.63 203.482 112.819 203.422 112.984C203.346 113.205 202.205 116.736 205.947 119.135C206.183 119.285 206.252 119.598 206.1 119.834C205.947 120.069 205.635 120.135 205.401 119.987C201.826 117.696 202.083 114.404 202.339 113.151C198.223 111.857 170.018 102.721 162.036 92.8975C159.21 89.4195 157.972 92.5947 158.389 97.0054V97.0037Z" fill="black"/>
<path d="M325.794 238.265L262.392 269.594C261.619 268.911 260.862 268.228 260.105 267.544C245.15 254.002 233.238 240.669 223.749 227.944C192.323 185.864 187.393 150.511 186.739 137.043C186.575 133.658 188.744 130.598 191.982 129.634L223.184 120.384C227.314 119.166 231.605 121.735 232.452 125.967C236.283 144.914 253.006 194.284 325.794 238.265Z" fill="#6680FF"/>
<path d="M466.055 118.668C476.601 106.878 474.586 98.2875 462.552 106.264C450.518 114.241 442.729 126.788 442.729 126.788L470.554 138.217C515.927 130.674 516.057 89.8033 507.263 99.8776C498.469 109.952 466.057 118.668 466.057 118.668C466.057 118.668 467.551 123.766 462.686 126.685" fill="white"/>
<path d="M470.362 138.683L442.537 127.254C442.244 127.134 442.137 126.783 442.297 126.519C442.376 126.394 450.284 113.786 462.271 105.841C467.21 102.569 470.98 101.779 472.622 103.676C474.691 106.066 472.649 111.607 467.539 117.722C474.188 115.805 499.405 108.104 506.879 99.542C508.563 97.6163 509.799 97.6129 510.534 97.945C511.997 98.6041 512.601 101.082 512.147 104.572C510.893 114.203 500.605 133.73 470.635 138.712C470.537 138.728 470.444 138.716 470.36 138.681L470.362 138.683ZM443.483 126.55L470.613 137.692C499.889 132.77 509.928 113.8 511.145 104.442C511.577 101.124 510.916 99.2254 510.119 98.8674C509.525 98.599 508.621 99.0877 507.644 100.208C499.319 109.745 470.797 117.885 466.649 119.03C466.891 120.458 467.165 124.585 462.944 127.117C462.71 127.259 462.395 127.184 462.252 126.943C462.108 126.703 462.185 126.392 462.426 126.249C466.847 123.597 465.65 119.085 465.575 118.815C465.525 118.651 465.559 118.467 465.681 118.331C471.718 111.582 473.37 106.085 471.861 104.338C470.606 102.889 467.231 103.769 462.833 106.684C452.381 113.611 445.077 124.139 443.485 126.55H443.483Z" fill="black"/>
<path d="M478.185 144.632C476.33 159.124 467.432 198.769 424.912 242.2C414.837 252.493 403.313 262.459 392.254 270.754L331.541 234.494C407.58 196.439 428.179 148.552 433.496 129.963C434.684 125.821 439.17 123.578 443.179 125.137L473.55 136.838C476.713 138.056 478.614 141.278 478.183 144.634L478.185 144.632Z" fill="#FFAE44"/>
<path d="M424.912 242.199C416.12 251.182 405.902 260.313 394.006 269.401L348.976 230.35L424.912 242.199Z" fill="#FFAE44"/>
<path d="M291.947 238.591C286.363 244.308 272.507 256.84 260.106 267.546C245.152 254.004 233.24 240.67 223.75 227.946L291.949 238.591H291.947Z" fill="#2D45BB"/>
<path d="M414.336 420.198C414.336 420.198 386.893 446.137 367.195 448.225C347.496 450.314 306.308 394.812 306.308 394.812C349.109 389.934 386.868 394.96 414.336 420.198Z" fill="black"/>
<path d="M443.344 670.228H369.546L314.299 477.558L300.977 524.034L280.645 594.919L259.051 670.228H185.253L194.017 620.962L210.562 527.968L222.68 459.845L230.507 415.865C256.111 399.383 284.195 397.838 314.299 408.411C344.403 397.839 371.433 394.647 397.037 411.129L407.047 467.136L420.473 542.269L434.865 622.791L443.346 670.23L443.344 670.228Z" fill="white"/>
<path d="M443.344 670.734H369.548C369.322 670.734 369.124 670.585 369.061 670.368L314.299 479.393L259.537 670.368C259.473 670.585 259.275 670.734 259.05 670.734H185.253C184.942 670.734 184.701 670.456 184.756 670.141L230.007 415.777C230.033 415.639 230.112 415.517 230.231 415.439C254.922 399.547 283.201 397 314.297 407.874C339.497 399.041 369.047 392.506 397.306 410.697C397.424 410.772 397.505 410.894 397.529 411.032L443.838 670.139C443.891 670.454 443.652 670.733 443.34 670.733L443.344 670.734ZM369.928 669.722H442.74L396.576 411.428C368.677 393.582 339.419 400.123 314.466 408.886C314.355 408.924 314.24 408.924 314.13 408.886C283.361 398.08 255.38 400.531 230.965 416.169L185.857 669.722H258.669L313.811 477.419C313.939 476.985 314.658 476.985 314.786 477.419L369.928 669.722Z" fill="black"/>
<path d="M261.845 414.106C261.845 414.106 268.484 464.553 223.102 463.872L261.845 414.106Z" fill="white"/>
<path d="M224.004 464.384C223.702 464.384 223.399 464.383 223.095 464.378C222.816 464.374 222.592 464.143 222.597 463.865C222.601 463.588 222.826 463.367 223.102 463.367H223.108C235.468 463.545 245.036 459.915 251.588 452.558C264.341 438.238 261.375 414.412 261.344 414.173C261.308 413.896 261.502 413.643 261.778 413.605C262.067 413.569 262.311 413.765 262.344 414.04C262.377 414.285 265.399 438.569 252.343 453.229C245.749 460.633 236.216 464.384 224.002 464.384H224.004Z" fill="black"/>
<path d="M259.678 669.877H181.974C178.811 669.877 176.247 672.441 176.247 675.603V687.174C176.247 690.336 178.811 692.9 181.974 692.9H259.678C262.841 692.9 265.405 690.336 265.405 687.174V675.603C265.405 672.441 262.841 669.877 259.678 669.877Z" fill="black"/>
<path d="M524.96 227.65C536.34 216.66 534.956 207.945 522.371 215.022C509.787 222.098 502.554 232.981 502.554 232.981L524.642 251.282C570.443 247.071 576.934 202.509 567.427 211.915C557.92 221.32 524.958 227.65 524.958 227.65C524.958 227.65 525.699 232.119 520.459 235.019" fill="white"/>
<path d="M524.322 251.672L502.234 233.372C502.034 233.207 501.993 232.918 502.135 232.702C502.209 232.592 509.58 221.637 522.125 214.583C534.677 207.525 537.147 215.83 526.511 226.819C533.283 225.392 558.996 219.551 567.076 211.557C569.926 208.738 572.715 209.947 571.36 216.548C569.558 225.321 557.665 248.755 524.692 251.786C524.556 251.798 524.423 251.755 524.322 251.672ZM503.235 232.89L524.805 250.76C557.008 247.706 568.613 224.895 570.367 216.345C571.131 212.619 570.745 209.348 567.785 212.277C558.77 221.198 529.635 227.24 525.502 228.061C525.547 229.367 525.222 232.964 520.707 235.463C520.464 235.599 520.156 235.511 520.018 235.265C519.884 235.021 519.972 234.713 520.216 234.578C525.019 231.919 524.497 227.968 524.463 227.738C524.435 227.579 524.483 227.409 524.609 227.288C534.925 217.328 535.178 208.401 522.619 215.466C511.594 221.666 504.633 230.93 503.235 232.892V232.89Z" fill="black"/>
<path d="M532.215 258.904C502.378 317.035 454.3 335.688 389.226 334.408L414.34 420.201C366.207 398.538 272.433 441.271 230.063 415.866C231.934 379.532 238.23 344.535 250.408 311.349C237.175 322.797 224.566 341.312 217.333 371.246C216.576 374.409 212.953 375.923 210.19 374.172L173.269 350.844C171.591 349.776 170.715 347.755 171.175 345.811C176.03 324.311 183.812 305.883 193.615 290.323C203.492 274.628 215.433 261.874 228.531 251.822C270.784 219.424 325.095 215.325 361.229 232.875C423.917 263.344 470.448 268.704 495.235 226.044C496.675 223.535 500.121 223.134 502.17 225.139L531.353 253.722C532.749 255.073 533.105 257.181 532.214 258.904H532.215Z" fill="#6680FF"/>
<path d="M228.135 46.8386C228.135 69.696 209.601 88.2252 186.739 88.2252C163.876 88.2252 145.338 69.696 145.338 46.8386C145.338 23.9812 163.871 5.44675 186.739 5.44675C209.606 5.44675 228.135 23.976 228.135 46.8386Z" fill="white"/>
<path d="M186.737 88.7312C163.63 88.7312 144.832 69.9386 144.832 46.8386C144.832 23.7385 163.63 4.9408 186.737 4.9408C209.844 4.9408 228.639 23.7351 228.639 46.8386C228.639 69.9421 209.842 88.7312 186.737 88.7312ZM186.737 5.9527C164.188 5.9527 145.84 24.2944 145.84 46.8386C145.84 69.3828 164.186 87.721 186.737 87.721C209.288 87.721 227.629 69.381 227.629 46.8386C227.629 24.2961 209.284 5.9527 186.737 5.9527Z" fill="black"/>
<path d="M218.115 46.8386C218.115 64.1632 204.067 78.2094 186.737 78.2094C169.407 78.2094 155.356 64.1649 155.356 46.8386C155.356 29.5123 169.403 15.4643 186.737 15.4643C204.071 15.4643 218.115 29.5088 218.115 46.8386Z" fill="#FFC176"/>
<path d="M187.438 33.4566C189.255 33.46 190.562 33.6459 191.362 34.0176C192.207 34.4358 192.627 35.0553 192.626 35.878V35.9124C192.521 36.7918 191.861 37.2306 190.644 37.2289C189.624 36.9725 188.56 36.8262 187.448 36.79L187.506 44.1367C192.056 44.653 194.328 46.8627 194.321 50.764C194.013 55.1403 191.768 57.6374 187.587 58.2552L187.617 62.2151C187.613 63.8345 185.203 64.4712 184.437 62.5919C184.403 62.129 184.37 60.7333 184.339 58.4067C182.232 58.3688 180.668 58.1055 179.65 57.6185C178.435 57.0729 177.827 56.4 177.829 55.6015C177.833 53.7515 179.167 53.4968 180.819 54.3556C181.513 54.7393 182.676 54.9717 184.308 55.056C184.289 52.8326 184.265 50.1359 184.234 46.9642C180.148 46.2276 178.106 44.073 178.113 40.4952C178.118 36.7092 180.143 34.4496 184.186 33.7147L184.189 32.0127C184.189 30.7066 184.444 29.5811 185.861 29.5845C187.131 29.5862 187.394 31.0542 187.474 31.2022C187.45 32.603 187.432 33.608 187.436 33.46L187.438 33.4566ZM181.26 40.4281C181.256 42.0716 182.246 43.1626 184.227 43.6979C184.217 41.6603 184.208 39.454 184.201 37.0809C182.243 37.5868 181.263 38.7037 181.26 40.4281ZM187.52 47.3669L187.579 54.8856C189.582 54.402 190.727 53.0666 191.008 50.8793C190.951 50.7279 191.431 48.1499 187.522 47.3669H187.52Z" fill="white"/>
<path d="M481.129 83.7904C458.023 83.7904 439.225 64.9961 439.225 41.896C439.225 18.796 458.023 0 481.129 0C504.234 0 523.034 18.7943 523.034 41.8943C523.034 64.9944 504.237 83.7887 481.129 83.7887V83.7904ZM481.129 1.01191C458.579 1.01191 440.235 19.3519 440.235 41.896C440.235 64.4402 458.579 82.7802 481.129 82.7802C503.678 82.7802 522.024 64.4402 522.024 41.896C522.024 19.3519 503.678 1.01019 481.129 1.01019V1.01191Z" fill="white"/>
<path d="M478.707 49.7934V18.7943C478.707 18.5155 478.932 18.2883 479.211 18.2883C479.49 18.2883 479.715 18.5138 479.715 18.7943V48.6438L493.377 36.1223C493.582 35.933 493.902 35.9468 494.092 36.1533C494.281 36.3598 494.267 36.6782 494.061 36.8675L479.552 50.1651C479.232 50.4594 478.705 50.234 478.705 49.7917L478.707 49.7934Z" fill="white"/>
<path d="M542.074 208.088C542.055 209.344 543.056 210.379 544.313 210.399L548.324 210.461C549.58 210.48 550.615 209.479 550.635 208.222L542.074 208.088Z" fill="white"/>
<path d="M550.265 208.577L542.457 208.455C538.471 208.393 535.271 205.095 535.324 201.104L535.457 192.097C535.285 188.051 533.162 184.322 529.63 181.801C521.321 175.869 516.832 166.235 517.622 156.03C518.758 141.364 531.184 129.691 545.914 129.455C562.27 129.211 575.513 142.455 575.26 158.761C575.118 167.858 570.611 176.461 563.201 181.773C560.467 183.733 558.586 186.757 558.04 190.073C557.91 190.865 557.82 191.667 557.775 192.46L557.626 201.452C557.565 205.414 554.312 208.63 550.265 208.575V208.577ZM518.342 156.085C517.572 166.035 521.95 175.428 530.05 181.212C533.765 183.864 535.997 187.796 536.174 192.002C536.181 192.149 536.066 201.259 536.045 201.113C535.997 204.706 538.879 207.675 542.468 207.73L550.276 207.852C553.949 207.909 556.848 204.968 556.903 201.44L557.052 192.433C557.101 191.6 557.192 190.77 557.326 189.955C557.904 186.452 559.893 183.255 562.781 181.186C570.004 176.006 574.4 167.62 574.539 158.751C574.785 142.934 561.96 129.929 545.927 130.178C531.567 130.407 519.452 141.787 518.343 156.085H518.342Z" fill="white"/>
<path d="M535.77 191.238C535.791 191.526 535.803 191.815 535.817 192.102C535.815 192.25 535.682 201.258 535.684 201.11C535.681 201.321 535.686 201.524 535.708 201.727C535.966 205.242 538.875 208.036 542.462 208.093L550.27 208.215C553.866 208.272 556.861 205.569 557.23 202.065C557.25 201.862 557.261 201.659 557.264 201.447C557.266 201.299 557.416 192.292 557.414 192.44C557.435 192.152 557.457 191.865 557.486 191.577L535.77 191.237V191.238Z" fill="white"/>
<path d="M546.688 124.829H546.683C546.483 124.826 546.325 124.662 546.327 124.463L546.375 121.431C546.378 121.233 546.539 121.074 546.736 121.074H546.742C546.941 121.078 547.1 121.241 547.098 121.441L547.05 124.473C547.046 124.671 546.886 124.829 546.688 124.829Z" fill="white"/>
<path d="M578.615 138.643C578.478 138.5 578.479 138.272 578.624 138.132L580.801 136.022C580.946 135.883 581.175 135.888 581.313 136.031C581.45 136.174 581.449 136.403 581.304 136.542L579.126 138.652C578.98 138.793 578.751 138.784 578.615 138.643Z" fill="white"/>
<path d="M513.822 137.63L511.711 135.453C511.574 135.31 511.575 135.081 511.72 134.942C511.864 134.802 512.092 134.807 512.231 134.95L514.341 137.127C514.479 137.27 514.477 137.499 514.333 137.638C514.186 137.779 513.958 137.771 513.822 137.63Z" fill="white"/>
<path d="M546.688 124.829H546.683C546.483 124.826 546.325 124.662 546.327 124.463L546.375 121.431C546.378 121.233 546.539 121.074 546.736 121.074H546.742C546.941 121.078 547.1 121.241 547.098 121.441L547.05 124.473C547.046 124.671 546.886 124.829 546.688 124.829Z" fill="white"/>
<path d="M542.648 163.624H538.231C535.596 163.624 533.453 161.482 533.453 158.847C533.453 156.212 535.596 154.059 538.231 154.059C540.867 154.059 543.01 156.202 543.01 158.837V163.263C543.01 163.463 542.848 163.624 542.648 163.624ZM538.231 154.782C535.996 154.782 534.176 156.601 534.176 158.837C534.176 161.072 535.996 162.903 538.231 162.903H542.287V158.837C542.287 156.601 540.467 154.782 538.231 154.782Z" fill="white"/>
<path d="M542.648 192.175C542.449 192.175 542.287 192.013 542.287 191.813V163.263C542.287 163.063 542.449 162.902 542.648 162.902H550.15C550.35 162.902 550.511 163.063 550.511 163.263C550.511 163.463 550.35 163.624 550.15 163.624H543.01V191.813C543.01 192.013 542.848 192.175 542.648 192.175Z" fill="white"/>
<path d="M554.567 163.624H550.15C549.95 163.624 549.788 163.463 549.788 163.263V158.837C549.788 156.202 551.931 154.059 554.567 154.059C557.202 154.059 559.343 156.202 559.343 158.837C559.343 161.471 557.2 163.624 554.567 163.624ZM550.511 162.902H554.567C556.803 162.902 558.622 161.083 558.622 158.847C558.622 156.612 556.804 154.78 554.567 154.78C552.329 154.78 550.511 156.599 550.511 158.835V162.902Z" fill="white"/>
<path d="M550.148 192.175C549.948 192.175 549.787 192.013 549.787 191.813V163.263C549.787 163.063 549.948 162.902 550.148 162.902C550.348 162.902 550.51 163.063 550.51 163.263V191.813C550.51 192.013 550.348 192.175 550.148 192.175Z" fill="white"/>
<path d="M353.787 185.902C353.787 185.902 354.591 205.854 336.977 206.777C336.6 206.794 336.225 206.811 335.848 206.811C335.848 206.811 338.853 218.823 339.285 222.917C340.726 236.575 311.052 236.65 311.052 222.917L310.214 193.904L310.675 193.751C307.615 185.22 309.888 174.619 311.462 168.858C313.514 161.301 323.261 153.915 341.354 159.558C359.755 165.302 344.945 174.688 357.925 178.86C361.346 179.954 361.158 186.074 353.787 185.903V185.902Z" fill="white"/>
<path d="M316.22 231.532C312.562 229.588 310.546 226.528 310.546 222.917L309.708 193.918C309.701 193.703 309.83 193.51 310.03 193.433C307.914 187.082 308.229 178.774 310.973 168.723C312.001 164.943 314.66 161.712 318.462 159.627C322.566 157.377 329.892 155.453 341.504 159.074C351.844 162.303 352.045 166.767 352.223 170.708C352.365 173.86 352.488 176.583 358.077 178.378C359.795 178.927 360.824 180.641 360.519 182.45C360.201 184.353 358.392 186.347 354.292 186.411C354.254 189.626 353.271 206.431 337.001 207.284C336.829 207.293 336.658 207.3 336.488 207.307C337.111 209.835 339.406 219.269 339.784 222.867C340.137 226.196 338.769 229.004 335.83 230.987C330.83 234.36 322.032 234.626 316.216 231.536L316.22 231.532ZM310.73 194.264L311.557 222.902C311.557 227.042 314.35 229.393 316.693 230.639C322.199 233.565 330.529 233.341 335.268 230.145C337.085 228.918 339.173 226.676 338.783 222.971C338.359 218.959 335.388 207.054 335.357 206.935C335.28 206.615 335.517 206.307 335.848 206.307C336.216 206.307 336.584 206.29 336.955 206.272C353.854 205.386 353.312 186.717 353.281 185.922C353.276 185.783 353.328 185.647 353.426 185.547C353.524 185.447 353.725 185.392 353.798 185.396C353.897 185.398 353.996 185.399 354.09 185.399C357.703 185.399 359.268 183.804 359.523 182.281C359.743 180.971 359.005 179.736 357.769 179.34C351.508 177.328 351.358 173.984 351.212 170.752C351.042 166.968 350.864 163.056 341.201 160.04C329.932 156.525 322.881 158.358 318.948 160.515C315.386 162.468 312.901 165.478 311.947 168.99C309.188 179.097 308.919 187.37 311.147 193.581C311.193 193.708 311.186 193.849 311.126 193.973C311.068 194.095 310.961 194.188 310.832 194.231L310.727 194.265L310.73 194.264Z" fill="black"/>
<path d="M350.648 166.485C350.648 166.485 363.673 157.207 353.407 151.762C343.141 146.317 335.285 151.762 335.285 151.762C335.285 151.762 339.213 136.678 316.628 139.177C294.042 141.676 307.878 167.827 307.878 167.827C307.878 167.827 303.504 163.185 295.023 165.953C286.542 168.72 288.863 181.572 304.308 189.068L316.027 188.065C316.027 188.065 318.664 178.822 312.582 168.162C312.582 168.162 330.076 149.955 350.648 166.483V166.485Z" fill="black"/>
<path d="M316.027 189.948C316.027 193.732 312.942 196.816 309.157 196.816C305.372 196.816 302.313 193.732 302.313 189.948C302.313 186.163 305.372 183.105 309.157 183.105C312.942 183.105 316.027 186.163 316.027 189.948Z" fill="white"/>
<path d="M309.157 197.322C305.103 197.322 301.807 194.014 301.807 189.948C301.807 185.881 305.103 182.599 309.157 182.599C313.211 182.599 316.531 185.895 316.531 189.948C316.531 194 313.223 197.322 309.157 197.322ZM309.157 183.611C305.661 183.611 302.817 186.454 302.817 189.948C302.817 193.441 305.661 196.312 309.157 196.312C312.653 196.312 315.521 193.457 315.521 189.948C315.521 186.439 312.665 183.611 309.157 183.611Z" fill="black"/>
<path d="M341.322 172.799C341.322 174.067 340.294 175.094 339.025 175.094C337.757 175.094 336.738 174.067 336.738 172.799C336.738 171.53 337.765 170.511 339.025 170.511C340.285 170.511 341.322 171.539 341.322 172.799Z" fill="black"/>
<path d="M341.475 166.619C341.475 166.619 334.579 163.867 331.997 171.809L341.475 166.619Z" fill="white"/>
<path d="M331.999 172.315C331.947 172.315 331.894 172.306 331.842 172.291C331.577 172.205 331.431 171.919 331.517 171.654C332.376 169.011 333.792 167.211 335.727 166.306C338.6 164.958 341.54 166.101 341.664 166.151C341.922 166.254 342.05 166.548 341.946 166.806C341.845 167.064 341.554 167.194 341.291 167.09C341.263 167.08 338.621 166.061 336.147 167.226C334.483 168.011 333.249 169.606 332.481 171.967C332.412 172.181 332.212 172.317 332.001 172.317L331.999 172.315Z" fill="black"/>
<path d="M335.848 206.811C331.715 207.243 324.704 204.889 321.327 201.879C321.581 208.031 330.742 213.858 337.903 215.541L335.848 206.811Z" fill="black"/>
<path d="M337.786 216.034C330.851 214.404 321.098 208.587 320.821 201.9C320.812 201.696 320.926 201.509 321.11 201.421C321.294 201.335 321.511 201.366 321.661 201.5C324.905 204.39 331.777 206.728 335.794 206.307C336.049 206.281 336.28 206.446 336.338 206.694L338.392 215.424C338.476 215.789 338.147 216.118 337.784 216.032L337.786 216.034ZM322.008 203.071C323.234 208.071 330.5 213.027 337.22 214.848L335.455 207.35C331.47 207.58 325.58 205.665 322.008 203.071Z" fill="black"/>
<path d="M346.991 191.45C342.711 191.45 340.299 189.579 340.156 189.466C339.939 189.292 339.903 188.975 340.077 188.757C340.249 188.538 340.567 188.502 340.786 188.674C340.975 188.822 345.492 192.29 353.386 189.087C353.644 188.984 353.94 189.106 354.045 189.366C354.15 189.624 354.026 189.92 353.768 190.025C351.164 191.082 348.893 191.452 346.991 191.452V191.45Z" fill="black"/>
<path d="M234.366 403.582L128.154 372.767C122.329 371.103 116.218 374.282 114.237 380.005L92.3591 443.219C90.0886 449.779 94.1561 456.83 100.973 458.148L216.366 483.153C222.437 484.328 228.34 480.454 229.675 474.417L242.373 417.014C243.676 411.125 240.168 405.239 234.368 403.582H234.366Z" fill="white"/>
<path d="M216.268 483.648L100.864 458.642C93.7567 457.267 89.5102 449.896 91.8788 443.052L113.757 379.839C115.826 373.862 122.214 370.544 128.291 372.28L234.507 403.095C240.552 404.823 244.224 410.984 242.866 417.123L230.168 474.526C228.761 480.88 222.656 484.884 216.268 483.648ZM114.714 380.171L92.8358 443.384C90.6653 449.655 94.5589 456.392 101.067 457.652L216.471 482.659C222.298 483.788 227.892 480.122 229.18 474.307L241.878 416.904C243.12 411.287 239.76 405.647 234.226 404.068C234.226 404.068 234.226 404.068 234.223 404.068L128.011 373.253C122.448 371.662 116.605 374.702 114.712 380.171H114.714Z" fill="black"/>
<path d="M208.665 396.057C208.665 396.057 204.033 391.753 203.642 384.113C203.165 374.789 204.532 369.112 205.814 364.195C205.57 364.054 205.307 363.903 205.062 363.762C195.789 358.582 186.253 355.179 180.186 354.414C179.884 356.085 179.235 358.01 178 359.988C176.382 362.562 173.727 365.193 169.419 367.396C155.703 374.428 151.929 383.327 151.929 383.327C144.265 398.409 145.618 401.949 151.968 399.151C150.644 405.348 152.366 408.027 156.772 405.716C156.87 405.653 156.987 405.597 157.077 405.506C156.507 410.299 158.292 412.202 162.215 410.148C163.184 409.635 164.317 408.28 165.536 406.386C165.233 410.635 167.04 412.214 170.729 410.27C177.702 406.609 178.046 389.221 190.958 390.992L208.665 396.062V396.057Z" fill="white"/>
<path d="M165.026 408.027C164.062 409.346 163.213 410.189 162.453 410.593C158.55 412.638 156.218 411.048 156.49 406.408C154.702 407.224 153.347 407.246 152.381 406.513C151.09 405.534 150.72 403.281 151.295 399.972C149.173 400.763 147.73 400.717 146.894 399.832C145.799 398.676 145.083 395.685 151.478 383.098C151.62 382.759 155.469 373.981 169.188 366.947C172.946 365.026 175.765 362.595 177.573 359.719C178.64 358.01 179.353 356.195 179.688 354.324C179.736 354.059 179.991 353.88 180.249 353.911C186.797 354.737 196.399 358.341 205.308 363.319L206.067 363.756C206.265 363.87 206.36 364.102 206.305 364.323C205.188 368.611 203.658 374.486 204.148 384.088C204.523 391.415 208.966 395.645 209.011 395.687C209.396 396.046 209.04 396.686 208.527 396.542L190.82 391.472C183.22 390.434 180.211 396.423 177.296 402.212C175.473 405.831 173.75 409.251 170.966 410.712C167.329 412.629 165.279 411.266 165.026 408.026V408.027ZM166.04 406.418C165.771 410.192 167.105 411.603 170.493 409.819C172.992 408.508 174.641 405.229 176.39 401.76C179.322 395.938 182.642 389.34 191.027 390.488L207.14 395.096C205.694 393.243 203.411 389.507 203.136 384.141C202.651 374.66 204.103 368.763 205.227 364.443L204.806 364.199C196.356 359.478 186.923 355.892 180.59 354.98C180.201 356.809 179.476 358.582 178.428 360.256C176.523 363.288 173.569 365.842 169.649 367.847C156.282 374.7 152.431 383.439 152.393 383.525C146.749 394.637 146.687 398.146 147.627 399.137C148.229 399.77 149.656 399.615 151.765 398.686C152.147 398.519 152.552 398.857 152.464 399.254C151.758 402.563 151.951 404.916 152.992 405.706C153.908 406.399 155.425 405.849 156.538 405.265C156.643 405.202 156.698 405.167 156.719 405.148C157.055 404.806 157.638 405.086 157.581 405.563C157.086 409.735 158.285 411.629 161.981 409.697C162.807 409.258 163.862 408.05 165.112 406.109C165.393 405.67 166.079 405.897 166.04 406.418Z" fill="black"/>
<path d="M314.299 477.558V450.063C314.299 444.745 309.987 440.434 304.668 440.434" fill="white"/>
<path d="M314.299 478.064C314.02 478.064 313.794 477.839 313.794 477.558V450.063C313.794 445.033 309.701 440.94 304.668 440.94C304.389 440.94 304.163 440.715 304.163 440.434C304.163 440.154 304.389 439.928 304.668 439.928C310.257 439.928 314.805 444.475 314.805 450.063V477.558C314.805 477.837 314.579 478.064 314.3 478.064H314.299Z" fill="black"/>
<path d="M455.076 326.448C434.321 333.072 411.004 334.836 389.224 334.408L367.72 272.134L455.076 326.448Z" fill="#2D45BB"/>
<path d="M226.689 344.575C226.604 344.575 226.52 344.559 226.436 344.528C226.062 344.389 225.871 343.973 226.011 343.599C237.266 313.519 289.214 275.652 289.737 275.271C290.054 275.039 290.512 275.108 290.746 275.433C290.98 275.757 290.906 276.208 290.584 276.442C290.064 276.818 238.466 314.431 227.365 344.105C227.257 344.396 226.98 344.575 226.689 344.575Z" fill="black"/>
<path d="M171.175 345.809C170.715 347.754 171.591 349.774 173.269 350.843L210.19 374.17C212.953 375.922 216.576 374.407 217.333 371.244C217.993 368.513 218.714 365.913 219.463 363.371" fill="#6680FF"/>
<path d="M220.75 358.496L180.22 331.873C179.888 331.654 179.793 331.207 180.014 330.873C180.232 330.539 180.68 330.448 181.014 330.666L221.544 357.289C221.876 357.508 221.971 357.955 221.75 358.289C221.535 358.619 221.088 358.718 220.75 358.496Z" fill="black"/>
<path d="M211.194 360.125C211.194 361.951 209.72 363.424 207.894 363.424C206.067 363.424 204.58 361.951 204.58 360.125C204.58 358.299 206.067 356.826 207.894 356.826C209.72 356.826 211.194 358.299 211.194 360.125Z" fill="white"/>
<path d="M486.215 238.411L485.234 239.472L519.588 271.244L520.57 270.183L486.215 238.411Z" fill="black"/>
<path d="M500.597 241.259C498.445 241.259 496.696 239.509 496.696 237.359C496.696 235.21 498.445 233.475 500.597 233.475C502.748 233.475 504.482 235.218 504.482 237.359C504.482 239.5 502.74 241.259 500.597 241.259ZM500.597 234.919C499.242 234.919 498.14 236.014 498.14 237.359C498.14 238.705 499.242 239.815 500.597 239.815C501.951 239.815 503.037 238.714 503.037 237.359C503.037 236.005 501.943 234.919 500.597 234.919Z" fill="black"/>
<path d="M429.685 140.744L429.217 142.11L470.613 156.312L471.082 154.946L429.685 140.744Z" fill="black"/>
<path d="M445.385 136.225C445.385 137.977 443.96 139.404 442.222 139.404C440.483 139.404 439.044 137.979 439.044 136.225C439.044 134.472 440.469 133.062 442.222 133.062C443.974 133.062 445.385 134.487 445.385 136.225Z" fill="white"/>
<path d="M192.133 148.754C192.061 148.484 192.221 148.207 192.49 148.134L235.306 136.699C235.581 136.625 235.851 136.788 235.925 137.057C235.998 137.327 235.838 137.604 235.569 137.676L192.753 149.112C192.483 149.184 192.206 149.024 192.133 148.754Z" fill="black"/>
<path d="M226.24 131.772C226.24 133.524 224.814 134.95 223.076 134.95C221.337 134.95 219.898 133.525 219.898 131.772C219.898 130.018 221.323 128.609 223.076 128.609C224.828 128.609 226.24 130.033 226.24 131.772Z" fill="black"/>
<path d="M135.077 212.404C132.925 212.404 131.176 210.654 131.176 208.504C131.176 206.355 132.925 204.62 135.077 204.62C137.229 204.62 138.962 206.364 138.962 208.504C138.962 210.645 137.22 212.404 135.077 212.404ZM135.077 206.064C133.722 206.064 132.621 207.159 132.621 208.504C132.621 209.85 133.722 210.96 135.077 210.96C136.432 210.96 137.518 209.859 137.518 208.504C137.518 207.15 136.423 206.064 135.077 206.064Z" fill="black"/>
<path d="M147.065 211.572L116.353 238.538L117.307 239.624L148.02 212.658L147.065 211.572Z" fill="black"/>
<path d="M367.72 414.106C367.72 414.106 361.08 464.553 406.463 463.872L367.72 414.106Z" fill="white"/>
<path d="M377.22 453.229C364.163 438.569 367.186 414.285 367.219 414.04C367.253 413.765 367.496 413.569 367.785 413.605C368.062 413.641 368.257 413.896 368.219 414.173C368.188 414.412 365.227 438.25 377.975 452.562C384.53 459.917 394.13 463.555 406.453 463.367H406.46C406.737 463.367 406.96 463.589 406.964 463.865C406.967 464.143 406.745 464.374 406.466 464.378C395.231 464.548 384.688 461.619 377.216 453.229H377.22Z" fill="black"/>
<path d="M165.468 406.883C165.191 406.845 164.997 406.59 165.035 406.315C165.086 405.926 166.394 396.717 173.059 389.973C173.256 389.774 173.576 389.773 173.775 389.968C173.975 390.164 173.975 390.484 173.779 390.682C167.35 397.189 166.048 406.356 166.036 406.449C165.999 406.728 165.74 406.921 165.468 406.883Z" fill="white"/>
<path d="M157.005 405.919C156.728 405.881 156.533 405.627 156.571 405.351C156.638 404.844 158.358 392.838 167.844 386.273C168.069 386.117 168.388 386.17 168.548 386.4C168.706 386.629 168.649 386.944 168.419 387.104C159.296 393.417 157.588 405.365 157.571 405.486C157.533 405.764 157.275 405.957 157.003 405.919H157.005Z" fill="white"/>
<path d="M151.929 399.621C151.651 399.583 151.457 399.328 151.495 399.053C151.546 398.664 152.855 389.455 159.52 382.711C159.718 382.511 160.038 382.511 160.236 382.706C160.435 382.902 160.435 383.222 160.239 383.42C153.81 389.927 152.509 399.094 152.497 399.187C152.459 399.466 152.201 399.659 151.929 399.621Z" fill="white"/>
<path d="M564.85 280.284L562.172 276.483L558.369 279.162C558.144 279.322 557.827 279.269 557.665 279.04C557.505 278.811 557.56 278.496 557.787 278.336L562.001 275.366C562.225 275.206 562.542 275.258 562.705 275.488L565.676 279.703C565.836 279.932 565.781 280.247 565.556 280.407C565.327 280.567 565.012 280.513 564.85 280.284Z" fill="white"/>
<path d="M109.218 356.525L104.138 355.646C103.863 355.598 103.678 355.336 103.727 355.061C103.773 354.785 104.028 354.599 104.31 354.649L108.892 355.443L109.686 350.862C109.732 350.588 109.987 350.402 110.269 350.45C110.545 350.498 110.729 350.76 110.681 351.035L109.801 356.116C109.755 356.389 109.495 356.575 109.218 356.527V356.525Z" fill="white"/>
<path d="M147.453 734.581C147.453 737.565 149.873 740 152.874 740H239.769C242.769 740 245.189 737.565 245.189 734.581V692.902H192.748L182.084 707.913L163.267 713.451C153.896 716.198 147.45 724.809 147.45 734.581H147.453Z" fill="#6680FF"/>
<path d="M227.718 729.146C227.441 729.115 227.241 728.864 227.272 728.587C228.133 720.982 234.566 715.248 242.236 715.248C242.515 715.248 242.74 715.475 242.74 715.754C242.74 716.033 242.515 716.26 242.236 716.26C235.082 716.26 229.08 721.608 228.278 728.702C228.245 728.988 227.98 729.182 227.718 729.148V729.146Z" fill="white"/>
<path d="M191.598 710.023C188.613 710.023 185.386 709.483 181.931 708.4C181.664 708.316 181.516 708.034 181.599 707.767C181.683 707.502 181.967 707.35 182.232 707.437C189.854 709.823 196.294 709.496 201.373 706.464C209.188 701.802 211.123 692.205 211.142 692.108C211.194 691.835 211.45 691.652 211.734 691.707C212.008 691.761 212.187 692.024 212.135 692.299C212.056 692.711 210.106 702.427 201.902 707.328C198.893 709.125 195.447 710.025 191.598 710.025V710.023Z" fill="white"/>
<path d="M245.195 731.542V734.579C245.195 737.574 242.768 740 239.772 740H152.868C149.873 740 147.446 737.574 147.446 734.579C147.446 733.55 147.527 732.538 147.67 731.542H245.195Z" fill="black"/>
<path d="M150.152 729.15C149.86 729.15 149.601 728.938 149.601 728.644C149.601 728.365 149.827 728.139 150.106 728.139H150.15C156.819 728.139 161.552 726.546 164.22 723.402C167.123 719.979 166.477 715.879 166.47 715.838C166.425 715.563 166.611 715.303 166.887 715.257C167.178 715.21 167.422 715.398 167.469 715.671C167.5 715.857 168.192 720.278 164.99 724.054C162.124 727.435 157.129 729.15 150.15 729.15H150.152Z" fill="white"/>
<path d="M446.613 669.877H368.909C365.746 669.877 363.182 672.441 363.182 675.603V687.174C363.182 690.336 365.746 692.9 368.909 692.9H446.613C449.776 692.9 452.34 690.336 452.34 687.174V675.603C452.34 672.441 449.776 669.877 446.613 669.877Z" fill="black"/>
<path d="M481.215 734.581C481.215 737.565 478.794 740 475.794 740H388.899C385.898 740 383.478 737.565 383.478 734.581V692.902H435.92L446.583 707.913L465.401 713.451C474.772 716.198 481.218 724.809 481.218 734.581H481.215Z" fill="#6680FF"/>
<path d="M400.893 729.15C400.638 729.15 400.419 728.958 400.39 728.7C399.588 721.607 393.588 716.258 386.432 716.258C386.153 716.258 385.928 716.031 385.928 715.752C385.928 715.473 386.153 715.246 386.432 715.246C394.102 715.246 400.537 720.98 401.395 728.585C401.43 728.886 401.194 729.148 400.893 729.148V729.15Z" fill="white"/>
<path d="M426.766 707.326C418.562 702.425 416.612 692.709 416.533 692.298C416.481 692.024 416.66 691.759 416.934 691.706C417.211 691.65 417.473 691.833 417.526 692.106C417.545 692.203 419.48 701.799 427.294 706.463C432.378 709.497 438.817 709.822 446.437 707.435C446.704 707.349 446.988 707.5 447.071 707.765C447.153 708.032 447.005 708.316 446.738 708.399C440.003 710.508 432.847 710.958 426.766 707.325V707.326Z" fill="white"/>
<path d="M383.473 731.542V734.579C383.473 737.574 385.9 740 388.895 740H475.799C478.794 740 481.221 737.574 481.221 734.579C481.221 733.55 481.141 732.538 480.998 731.542H383.473Z" fill="black"/>
<path d="M478.516 729.15C471.536 729.15 466.542 727.435 463.676 724.054C460.475 720.276 461.166 715.857 461.197 715.671C461.246 715.396 461.525 715.212 461.779 715.256C462.055 715.301 462.242 715.561 462.198 715.836C462.191 715.878 461.555 720.001 464.459 723.412C467.129 726.547 471.859 728.138 478.517 728.138H478.562C478.841 728.138 479.066 728.363 479.066 728.642C479.066 728.934 478.839 729.15 478.516 729.148V729.15Z" fill="white"/>
<path d="M344.508 79.9854C344.237 79.9217 344.069 79.6481 344.132 79.3762C345.644 73.0191 341.716 66.6671 335.376 65.1613C329.024 63.6538 322.664 67.5723 321.158 73.9226C321.094 74.1927 320.833 74.3631 320.549 74.2977C320.278 74.2341 320.11 73.9604 320.173 73.6885C321.814 66.7807 328.727 62.5438 335.61 64.1769C342.497 65.8118 346.756 72.7145 345.117 79.6085C345.052 79.8804 344.78 80.0473 344.508 79.9837V79.9854Z" fill="white"/>
<path d="M597.101 374.149C597.063 374.149 597.023 374.144 596.983 374.135C596.713 374.072 596.545 373.798 596.608 373.526C598.113 367.191 594.183 360.814 587.85 359.311C581.514 357.807 575.135 361.738 573.632 368.073C573.568 368.343 573.305 368.513 573.023 368.448C572.752 368.384 572.584 368.11 572.647 367.838C574.281 360.962 581.204 356.695 588.084 358.327C594.959 359.958 599.225 366.88 597.593 373.759C597.538 373.991 597.331 374.147 597.101 374.147V374.149Z" fill="white"/>
<path d="M37.9843 413.018C34.2784 407.003 36.158 399.094 42.1758 395.385C42.415 395.239 42.7231 395.313 42.8712 395.551C43.0175 395.788 42.9452 396.1 42.7059 396.246C37.1633 399.662 35.4299 406.948 38.845 412.488C42.2653 418.031 49.555 419.761 55.0977 416.345C55.3369 416.198 55.6451 416.272 55.7931 416.51C55.9394 416.747 55.8671 417.059 55.6278 417.205C49.6428 420.895 41.7144 419.067 37.9843 413.018Z" fill="white"/>
<path d="M595.329 588.999C595.541 607.485 584.593 616.379 570.978 616.534C557.362 616.688 546.215 608.046 546.003 589.56C545.791 571.089 556.598 549.758 570.213 549.603C583.829 549.448 595.119 570.53 595.331 588.999H595.329Z" fill="#76C4FF"/>
<path d="M554.811 655.853C575.92 634.856 571.652 569.11 571.606 568.447C571.578 568.05 571.88 567.704 572.277 567.678C572.649 567.647 573.019 567.95 573.048 568.349C573.236 571.077 577.402 635.421 555.83 656.877C555.15 657.552 554.135 656.525 554.811 655.853Z" fill="white"/>
<path d="M527.842 631.857C521.252 623.913 518.348 610.7 524.476 605.566C530.916 600.173 543.493 606.248 549.616 613.63C556.937 622.459 553.925 630.311 548.664 634.715C542.276 640.064 534.198 639.522 527.842 631.855V631.857ZM525.406 606.674C519.987 611.212 522.915 623.657 528.954 630.936C534.825 638.016 541.998 638.413 547.737 633.61C553.77 628.559 554.064 621.258 548.506 614.555C543.299 608.278 531.255 601.778 525.406 606.676V606.674Z" fill="white"/>
<path d="M554.512 656.349C556.226 640.313 531.993 614.093 531.747 613.83C531.477 613.537 531.492 613.081 531.783 612.809C532.076 612.538 532.532 612.553 532.804 612.846C533.823 613.938 557.731 639.818 555.947 656.504C555.846 657.454 554.41 657.301 554.512 656.351V656.349Z" fill="white"/>
<path d="M561.689 585.02L557.236 579.076C556.997 578.757 557.063 578.303 557.381 578.066C557.698 577.828 558.152 577.89 558.393 578.21L562.846 584.154C563.085 584.473 563.02 584.927 562.702 585.164C562.385 585.402 561.932 585.342 561.689 585.02Z" fill="white"/>
<path d="M563.127 591.31L558.743 587.214C558.452 586.942 558.436 586.484 558.708 586.194C558.982 585.903 559.438 585.887 559.729 586.159L564.113 590.257C564.404 590.529 564.419 590.986 564.148 591.277C563.872 591.571 563.416 591.582 563.127 591.312V591.31Z" fill="white"/>
<path d="M580.913 594.786C580.617 594.519 580.591 594.063 580.858 593.766C582.388 592.059 583.268 589.763 583.271 587.464C583.271 587.064 583.597 586.743 583.994 586.743C584.394 586.743 584.716 587.068 584.716 587.465C584.712 590.114 583.697 592.761 581.932 594.729C581.667 595.025 581.211 595.051 580.911 594.784L580.913 594.786Z" fill="white"/>
<path d="M578.699 569.645C578.324 569.507 578.133 569.093 578.269 568.719L579.335 565.806C579.472 565.432 579.885 565.238 580.261 565.375C580.634 565.513 580.827 565.928 580.691 566.301L579.626 569.215C579.488 569.592 579.071 569.781 578.699 569.645Z" fill="white"/>
<path d="M580.287 644.223C577.037 642.785 574.549 640.019 573.09 636.224C570.623 629.805 571.788 621.469 582.457 617.327C591.282 613.899 605.303 614.68 608.327 622.548C612.384 633.108 592.582 649.665 580.287 644.222V644.223ZM582.98 618.674C574.882 621.819 571.609 628.344 574.439 635.706C575.758 639.135 577.98 641.623 580.872 642.902C592.081 647.861 610.523 632.287 606.981 623.068C604.28 616.04 590.979 615.57 582.982 618.674H582.98Z" fill="white"/>
<path d="M563.383 643.528C563.122 643.227 563.154 642.771 563.457 642.509C575.618 632.005 597.314 624.92 597.532 624.849C597.913 624.727 598.319 624.935 598.441 625.314C598.564 625.692 598.357 626.1 597.977 626.222C597.761 626.291 576.341 633.289 564.404 643.602C564.101 643.864 563.645 643.829 563.385 643.528H563.383Z" fill="white"/>
<path d="M595.412 620.657L594.63 620.34C594.26 620.191 594.081 619.769 594.231 619.401C594.382 619.031 594.804 618.853 595.173 619.001L595.954 619.318C596.324 619.468 596.503 619.889 596.353 620.258C596.207 620.619 595.792 620.808 595.412 620.657Z" fill="white"/>
<path d="M589.804 622.916L587.977 621.894C587.63 621.7 587.504 621.259 587.7 620.912C587.895 620.562 588.335 620.44 588.683 620.635L590.51 621.659C590.857 621.853 590.983 622.294 590.787 622.641C590.59 622.99 590.148 623.111 589.804 622.918V622.916Z" fill="white"/>
<path d="M579.524 629.028L578.892 628.436C578.601 628.164 578.586 627.706 578.858 627.415C579.132 627.124 579.588 627.109 579.879 627.381L580.514 627.976C580.805 628.25 580.818 628.706 580.545 628.997C580.271 629.287 579.813 629.301 579.524 629.028Z" fill="white"/>
<path d="M588.694 639.264L586.328 638.78C585.938 638.699 585.686 638.319 585.766 637.928C585.848 637.536 586.234 637.285 586.619 637.365L588.984 637.849C589.375 637.93 589.626 638.31 589.547 638.701C589.466 639.095 589.081 639.343 588.694 639.264Z" fill="white"/>
<path d="M599.939 633.206L597.856 633.006C597.46 632.968 597.168 632.616 597.205 632.218C597.245 631.821 597.619 631.533 597.994 631.568L600.077 631.767C600.474 631.805 600.765 632.158 600.727 632.555C600.689 632.943 600.35 633.24 599.939 633.204V633.206Z" fill="white"/>
<path d="M37.7433 608.635C40.2203 614.496 51.278 608.316 58.0325 624.008C62.7867 635.054 76.6967 636.416 83.7403 634.779C83.7403 634.779 88.3552 612.223 68.8045 604.664C49.4276 597.173 34.6966 601.426 37.7433 608.635Z" fill="#CAD5FF"/>
<path d="M87.479 643.513C78.9069 623.233 56.7862 610.992 56.5625 610.87C56.213 610.679 56.0822 610.24 56.2733 609.891C56.4643 609.54 56.9033 609.412 57.2544 609.602C57.4816 609.726 80.0395 622.197 88.8113 642.95C89.1814 643.828 87.8543 644.394 87.479 643.513Z" fill="white"/>
<path d="M90.9096 628.57C90.648 628.57 90.4053 628.429 90.2779 628.196C90.092 627.861 72.0526 594.356 99.1306 572.844C140.36 540.09 164.56 560.684 143.014 573.133C136.494 576.901 128.378 581.587 126.611 598.509C124.434 619.389 101.652 627.778 90.963 628.568C90.9441 628.568 90.9268 628.57 90.9096 628.57ZM139.075 556.644C129.708 556.644 115.203 561.922 100.031 573.975C75.497 593.465 89.388 623.245 91.3296 627.088C101.809 626.121 123.122 618.031 125.176 598.357C127.018 580.704 135.846 575.605 142.291 571.881C154.708 564.706 149.66 556.642 139.075 556.642V556.644Z" fill="white"/>
<path d="M87.4257 643.16C91.0043 606.547 120.113 576.123 120.408 575.82C120.687 575.534 121.145 575.526 121.429 575.804C121.714 576.081 121.721 576.539 121.446 576.825C121.155 577.124 92.3934 607.198 88.8647 643.299C88.7717 644.251 87.3344 644.11 87.4257 643.158V643.16Z" fill="white"/>
<path d="M78.4542 571.194C78.146 570.939 78.103 570.485 78.3578 570.177C91.6308 554.141 109.956 542.131 129.958 536.359C130.335 536.247 130.741 536.469 130.853 536.853C130.963 537.237 130.743 537.636 130.359 537.748C110.632 543.44 92.5603 555.284 79.4697 571.098C79.2133 571.407 78.7571 571.445 78.4542 571.194Z" fill="white"/>
<path d="M124.587 629.234C124.351 628.912 124.42 628.461 124.742 628.226C132.333 622.658 137.969 614.821 140.606 606.158C140.721 605.778 141.126 605.561 141.508 605.678C141.89 605.795 142.105 606.198 141.988 606.58C139.258 615.539 133.436 623.639 125.596 629.391C125.276 629.626 124.821 629.558 124.585 629.236L124.587 629.234Z" fill="white"/>
<path d="M583.877 709.015H526.762C526.363 709.015 526.039 708.691 526.039 708.292C526.039 707.893 526.363 707.569 526.762 707.569H583.877C584.277 707.569 584.6 707.893 584.6 708.292C584.6 708.691 584.277 709.015 583.877 709.015Z" fill="white"/>
<path d="M509.143 682.11H478.562C478.163 682.11 477.839 681.786 477.839 681.387C477.839 680.988 478.163 680.664 478.562 680.664H509.143C509.542 680.664 509.866 680.988 509.866 681.387C509.866 681.786 509.542 682.11 509.143 682.11Z" fill="white"/>
<path d="M153.054 668.439H119.258C118.859 668.439 118.535 668.115 118.535 667.716C118.535 667.317 118.859 666.993 119.258 666.993H153.054C153.454 666.993 153.777 667.317 153.777 667.716C153.777 668.115 153.454 668.439 153.054 668.439Z" fill="white"/>
<path d="M320.912 719.4H307.592C307.193 719.4 306.869 719.077 306.869 718.678C306.869 718.278 307.193 717.955 307.592 717.955H320.912C321.311 717.955 321.635 718.278 321.635 718.678C321.635 719.077 321.311 719.4 320.912 719.4Z" fill="white"/>
<path d="M69.1746 706.786H55.855C55.4557 706.786 55.1321 706.462 55.1321 706.063C55.1321 705.664 55.4557 705.34 55.855 705.34H69.1746C69.5739 705.34 69.8975 705.664 69.8975 706.063C69.8975 706.462 69.5739 706.786 69.1746 706.786Z" fill="white"/>
</g>
<defs>
<clipPath id="clip0_642_1704">
<rect width="672" height="740" fill="white"/>
</clipPath>
</defs>
</svg>
