<svg width="93" height="30" viewBox="0 0 93 30" fill="none" xmlns="http://www.w3.org/2000/svg">
<circle cx="81.625" cy="14.625" r="6.125" stroke="#AAAAAA" stroke-width="2"/>
<path d="M89.5 22.5L86.875 19.875" stroke="#AAAAAA" stroke-width="2" stroke-linecap="round"/>
<path d="M14.8079 18.5195L9.84346 12.5621C9.40924 12.0411 9.77976 11.25 10.458 11.25L19.542 11.25C20.2202 11.25 20.5908 12.0411 20.1565 12.5621L15.1921 18.5195C15.0921 18.6395 14.9079 18.6395 14.8079 18.5195Z" fill="#9D9D9D"/>
<path d="M40 13.4C40 11.1598 40 10.0397 40.436 9.18404C40.8195 8.43139 41.4314 7.81947 42.184 7.43597C43.0397 7 44.1598 7 46.4 7H51.6C53.8402 7 54.9603 7 55.816 7.43597C56.5686 7.81947 57.1805 8.43139 57.564 9.18404C58 10.0397 58 11.1598 58 13.4V18.6C58 20.8402 58 21.9603 57.564 22.816C57.1805 23.5686 56.5686 24.1805 55.816 24.564C54.9603 25 53.8402 25 51.6 25H46.4C44.1598 25 43.0397 25 42.184 24.564C41.4314 24.1805 40.8195 23.5686 40.436 22.816C40 21.9603 40 20.8402 40 18.6V13.4Z" fill="#AAAAAA"/>
<path d="M49 12L49 20" stroke="#F9F9F9" stroke-linejoin="round"/>
<path d="M53 16L45 16" stroke="#F9F9F9" stroke-linejoin="round"/>
</svg>
