<svg id="close" xmlns="http://www.w3.org/2000/svg" width="83.444" height="83.444" viewBox="0 0 83.444 83.444">
  <g id="Group_6801" data-name="Group 6801" transform="translate(29.31 29.31)">
    <path id="Path_1134" data-name="Path 1134" d="M90.784,67.182a2.086,2.086,0,0,1,0,2.95L70.133,90.784a2.086,2.086,0,0,1-2.95-2.95L87.834,67.182a2.086,2.086,0,0,1,2.95,0Z" transform="translate(-66.572 -66.571)" fill="#f88" fill-rule="evenodd"/>
  </g>
  <g id="Group_6802" data-name="Group 6802" transform="translate(29.31 29.31)">
    <path id="Path_1135" data-name="Path 1135" d="M67.182,67.182a2.087,2.087,0,0,1,2.95,0L90.784,87.833a2.086,2.086,0,0,1-2.95,2.951L67.182,70.133A2.087,2.087,0,0,1,67.182,67.182Z" transform="translate(-66.572 -66.572)" fill="#f88" fill-rule="evenodd"/>
  </g>
  <g id="Group_6803" data-name="Group 6803">
    <path id="Path_1136" data-name="Path 1136" d="M41.722,79.272a37.55,37.55,0,1,0-37.55-37.55A37.55,37.55,0,0,0,41.722,79.272Zm0,4.172A41.722,41.722,0,1,0,0,41.722,41.722,41.722,0,0,0,41.722,83.444Z" fill="#f88" fill-rule="evenodd"/>
  </g>
</svg>
