<svg width="21" height="22" viewBox="0 0 21 22" fill="none" xmlns="http://www.w3.org/2000/svg">
<g clip-path="url(#clip0_439_2243)">
<path d="M2.90636 21.7652H18.0936C19.6857 21.7652 20.9795 20.4714 20.9795 18.8793V4.49812C20.9795 2.90604 19.6857 1.61221 18.0936 1.61221H16.9489V0.806103C16.9489 0.362733 16.5861 0 16.1428 0C15.6994 0 15.3367 0.362733 15.3367 0.806103V1.61221H5.6633V0.806103C5.6633 0.362733 5.3005 0 4.85713 0C4.41376 0 4.05103 0.362733 4.05103 0.806103V1.61221H2.90636C1.31428 1.61221 0.0204468 2.90604 0.0204468 4.49812V18.8793C0.0204468 20.4714 1.31428 21.7652 2.90636 21.7652ZM1.63272 4.49812C1.63272 3.79682 2.20506 3.22448 2.90636 3.22448H4.05103V4.03058C4.05103 4.47395 4.41376 4.83669 4.85713 4.83669C5.3005 4.83669 5.66323 4.47395 5.66323 4.03058V3.22448H15.3367V4.03058C15.3367 4.47395 15.6994 4.83669 16.1428 4.83669C16.5861 4.83669 16.9489 4.47395 16.9489 4.03058V3.22448H18.0935C18.7948 3.22448 19.3672 3.79682 19.3672 4.49812V18.8793C19.3672 19.5806 18.7948 20.1529 18.0935 20.1529H2.90636C2.20506 20.1529 1.63272 19.5806 1.63272 18.8793V4.49812Z" fill="#9D9D9D"/>
<path d="M5.86481 9.27014C6.4213 9.27014 6.87244 8.81901 6.87244 8.26251C6.87244 7.70601 6.4213 7.25488 5.86481 7.25488C5.30831 7.25488 4.85718 7.70601 4.85718 8.26251C4.85718 8.81901 5.30831 9.27014 5.86481 9.27014Z" fill="#9D9D9D"/>
<path d="M10.2985 9.27014C10.855 9.27014 11.3061 8.81901 11.3061 8.26251C11.3061 7.70601 10.855 7.25488 10.2985 7.25488C9.74196 7.25488 9.29083 7.70601 9.29083 8.26251C9.29083 8.81901 9.74196 9.27014 10.2985 9.27014Z" fill="#9D9D9D"/>
<path d="M14.7321 9.27014C15.2886 9.27014 15.7397 8.81901 15.7397 8.26251C15.7397 7.70601 15.2886 7.25488 14.7321 7.25488C14.1756 7.25488 13.7245 7.70601 13.7245 8.26251C13.7245 8.81901 14.1756 9.27014 14.7321 9.27014Z" fill="#9D9D9D"/>
<path d="M5.86481 13.3009C6.4213 13.3009 6.87244 12.8498 6.87244 12.2933C6.87244 11.7368 6.4213 11.2856 5.86481 11.2856C5.30831 11.2856 4.85718 11.7368 4.85718 12.2933C4.85718 12.8498 5.30831 13.3009 5.86481 13.3009Z" fill="#9D9D9D"/>
<path d="M10.2985 13.3009C10.855 13.3009 11.3061 12.8498 11.3061 12.2933C11.3061 11.7368 10.855 11.2856 10.2985 11.2856C9.74196 11.2856 9.29083 11.7368 9.29083 12.2933C9.29083 12.8498 9.74196 13.3009 10.2985 13.3009Z" fill="#9D9D9D"/>
<path d="M14.7321 13.3009C15.2886 13.3009 15.7397 12.8498 15.7397 12.2933C15.7397 11.7368 15.2886 11.2856 14.7321 11.2856C14.1756 11.2856 13.7245 11.7368 13.7245 12.2933C13.7245 12.8498 14.1756 13.3009 14.7321 13.3009Z" fill="#9D9D9D"/>
<path d="M5.86481 17.3317C6.4213 17.3317 6.87244 16.8805 6.87244 16.324C6.87244 15.7675 6.4213 15.3164 5.86481 15.3164C5.30831 15.3164 4.85718 15.7675 4.85718 16.324C4.85718 16.8805 5.30831 17.3317 5.86481 17.3317Z" fill="#9D9D9D"/>
<path d="M10.2985 17.3317C10.855 17.3317 11.3061 16.8805 11.3061 16.324C11.3061 15.7675 10.855 15.3164 10.2985 15.3164C9.74196 15.3164 9.29083 15.7675 9.29083 16.324C9.29083 16.8805 9.74196 17.3317 10.2985 17.3317Z" fill="#9D9D9D"/>
<path d="M14.7321 17.3317C15.2886 17.3317 15.7397 16.8805 15.7397 16.324C15.7397 15.7675 15.2886 15.3164 14.7321 15.3164C14.1756 15.3164 13.7245 15.7675 13.7245 16.324C13.7245 16.8805 14.1756 17.3317 14.7321 17.3317Z" fill="#9D9D9D"/>
</g>
<defs>
<clipPath id="clip0_439_2243">
<rect width="21" height="21.7652" fill="white"/>
</clipPath>
</defs>
</svg>
