<svg id="delete" xmlns="http://www.w3.org/2000/svg" width="22" height="22" viewBox="0 0 22 22">
  <path id="Path_1181" data-name="Path 1181" d="M15.34,8.323A1,1,0,1,0,13.976,6.86L11.05,9.588,8.322,6.661A1,1,0,0,0,6.86,8.025l2.728,2.926L6.661,13.679a1,1,0,1,0,1.364,1.462l2.926-2.727,2.728,2.926a1,1,0,1,0,1.462-1.363l-2.727-2.926Z" transform="translate(0 0)" fill="#fa5858"/>
  <path id="Path_1182" data-name="Path 1182" d="M0,11A11,11,0,1,1,11,22,11,11,0,0,1,0,11Zm11,9a9,9,0,1,1,6.364-2.636A9,9,0,0,1,11,20Z" fill="#fa5858" fill-rule="evenodd"/>
</svg>
