<svg width="24" height="22" viewBox="0 0 24 22" fill="none" xmlns="http://www.w3.org/2000/svg">
<path d="M5.004 2.76496V3.99996H4C2.93913 3.99996 1.92172 4.42138 1.17157 5.17153C0.421427 5.92167 0 6.93909 0 7.99996V15C0 15.7956 0.316071 16.5587 0.87868 17.1213C1.44129 17.6839 2.20435 18 3 18H5V19C5 19.7956 5.31607 20.5587 5.87868 21.1213C6.44129 21.6839 7.20435 22 8 22H16C16.7956 22 17.5587 21.6839 18.1213 21.1213C18.6839 20.5587 19 19.7956 19 19V18H21C21.7956 18 22.5587 17.6839 23.1213 17.1213C23.6839 16.5587 24 15.7956 24 15V7.99996C24 6.93909 23.5786 5.92167 22.8284 5.17153C22.0783 4.42138 21.0609 3.99996 20 3.99996H19V2.75196C19 2.39048 18.9287 2.03256 18.7903 1.69865C18.6518 1.36475 18.4489 1.06141 18.1931 0.805997C17.9373 0.550583 17.6337 0.348103 17.2996 0.210138C16.9655 0.0721731 16.6075 0.00143026 16.246 0.00195603L7.75 0.014956C7.02135 0.0160159 6.3229 0.306215 5.80804 0.821825C5.29318 1.33744 5.004 2.0363 5.004 2.76496V2.76496ZM17.5 2.75196V3.99996H6.504V2.76496C6.504 2.07496 7.062 1.51596 7.752 1.51496L16.248 1.50196C16.4123 1.50169 16.5751 1.53383 16.727 1.59653C16.8789 1.65923 17.0169 1.75127 17.1332 1.86736C17.2495 1.98346 17.3417 2.12135 17.4047 2.27314C17.4676 2.42493 17.5 2.58763 17.5 2.75196V2.75196ZM8 12.5H16C16.3978 12.5 16.7794 12.658 17.0607 12.9393C17.342 13.2206 17.5 13.6021 17.5 14V19C17.5 19.3978 17.342 19.7793 17.0607 20.0606C16.7794 20.3419 16.3978 20.5 16 20.5H8C7.60218 20.5 7.22064 20.3419 6.93934 20.0606C6.65804 19.7793 6.5 19.3978 6.5 19V14C6.5 13.6021 6.65804 13.2206 6.93934 12.9393C7.22064 12.658 7.60218 12.5 8 12.5Z" fill="#9D9D9D"/>
</svg>
