<svg width="30" height="30" viewBox="0 0 30 30" fill="none" xmlns="http://www.w3.org/2000/svg">
<path d="M7.49998 10C7.49998 5.85786 10.8578 2.5 15 2.5C19.1421 2.5 22.5 5.85786 22.5 10V12.2887C22.5 12.7801 22.5 13.0259 22.5146 13.2672C22.5824 14.3881 22.8854 15.4823 23.404 16.4784C23.5157 16.6928 23.6421 16.9035 23.8949 17.3249L24.5867 18.4779C25.2505 19.5842 25.5824 20.1374 25.4278 20.5798C25.3884 20.6928 25.3289 20.7978 25.2523 20.8898C24.9525 21.25 24.3074 21.25 23.0172 21.25H6.98285C5.69265 21.25 5.04755 21.25 4.74768 20.8898C4.67112 20.7978 4.61168 20.6928 4.5722 20.5799C4.4176 20.1374 4.7495 19.5842 5.4133 18.4779L6.10507 17.3249C6.35791 16.9035 6.48433 16.6928 6.59596 16.4784C7.11454 15.4823 7.41758 14.3881 7.48539 13.2672C7.49998 13.0259 7.49998 12.7802 7.49998 12.2887V10Z" fill="#2A4157" fill-opacity="0.24"/>
<path d="M17.975 22.5C18.0578 22.5 18.1256 22.5673 18.1194 22.6499C18.0737 23.2582 17.7514 23.8344 17.2097 24.2678C16.6237 24.7366 15.8288 25 15 25C14.1712 25 13.3763 24.7366 12.7903 24.2678C12.2486 23.8344 11.9263 23.2582 11.8806 22.6499C11.8744 22.5673 11.9422 22.5 12.025 22.5L15 22.5L17.975 22.5Z" fill="#1F4FDE"/>
</svg>
