<svg xmlns="http://www.w3.org/2000/svg" width="16" height="16" viewBox="0 0 16 16">
  <g id="search-icon-form" transform="translate(-2.5 -2.5)">
    <path id="Ellipse_7" data-name="Ellipse 7" d="M6.125-1A7.125,7.125,0,1,1-1,6.125,7.133,7.133,0,0,1,6.125-1Zm0,12.25A5.125,5.125,0,1,0,1,6.125,5.131,5.131,0,0,0,6.125,11.25Z" transform="translate(3.5 3.5)" fill="#aaa"/>
    <path id="Path_1236" data-name="Path 1236" d="M17.5,18.5a1,1,0,0,1-.707-.293l-2.625-2.625a1,1,0,0,1,1.414-1.414l2.625,2.625A1,1,0,0,1,17.5,18.5Z" fill="#aaa"/>
  </g>
</svg>
