<svg width="60" height="66" viewBox="0 0 60 66" fill="none" xmlns="http://www.w3.org/2000/svg">
<g id="Iconsax/Linear/warning2">
<path id="Vector" d="M29.9966 20.25V36M57.2366 22.74V43.26C57.2366 46.62 55.4366 49.74 52.5266 51.45L34.7066 61.74C31.7966 63.42 28.1966 63.42 25.2566 61.74L7.43657 51.45C6.00189 50.6182 4.81138 49.4235 3.98462 47.9859C3.15787 46.5482 2.72399 44.9184 2.72657 43.26V22.74C2.72657 19.38 4.52657 16.26 7.43657 14.55L25.2566 4.26C28.1666 2.58 31.7666 2.58 34.7066 4.26L52.5266 14.55C55.4366 16.26 57.2366 19.35 57.2366 22.74Z" stroke="#40C9A8" stroke-width="3" stroke-linecap="round" stroke-linejoin="round"/>
<path id="Vector_2" d="M30 45.6001V45.9001" stroke="#40C9A8" stroke-width="2" stroke-linecap="round" stroke-linejoin="round"/>
</g>
</svg>
