<svg width="225" height="140" viewBox="0 0 225 140" fill="none" xmlns="http://www.w3.org/2000/svg">
<path d="M44.4922 136C29.6122 136 18.0922 131.36 9.93219 122.08C3.37219 114.56 0.0921882 105.6 0.0921882 95.2C0.0921882 83.52 4.89219 73.52 14.4922 65.2C6.65219 58.48 2.73219 50.16 2.73219 40.24V40C2.73219 39.84 2.73219 39.68 2.73219 39.52C2.73219 28.48 7.05219 19.12 15.6922 11.44C24.0122 4.08 34.2522 0.400001 46.4122 0.400001H73.0522V27.52H49.7722C44.8122 27.52 40.7322 28.88 37.5322 31.6C34.3322 34.32 32.7322 37.76 32.7322 41.92C32.7322 46.24 34.3322 49.76 37.5322 52.48C40.7322 55.2 44.8122 56.56 49.7722 56.56H67.0522V77.44H48.3322C42.8922 77.44 38.4922 78.96 35.1322 82C31.7722 84.88 30.0922 88.64 30.0922 93.28C30.2522 97.76 32.0122 101.44 35.3722 104.32C38.7322 107.2 43.0522 108.64 48.3322 108.64H72.5722L90.0922 136H44.4922ZM137.235 114.64L105.795 82.96L137.235 52.24L168.195 82.96L137.235 114.64ZM194.558 139.6V0.400001H224.798V123.52L194.558 139.6Z" fill="#3D72F9"/>
</svg>
