<svg width="278" height="136" viewBox="0 0 278 136" fill="none" xmlns="http://www.w3.org/2000/svg">
<path d="M45.0156 136C30.1356 136 18.6156 131.36 10.4556 122.08C3.89563 114.56 0.615626 105.6 0.615626 95.2C0.615626 83.52 5.41563 73.52 15.0156 65.2C7.17563 58.48 3.25563 50.16 3.25563 40.24V40C3.25563 39.84 3.25563 39.68 3.25563 39.52C3.25563 28.48 7.57563 19.12 16.2156 11.44C24.5356 4.08 34.7756 0.400001 46.9356 0.400001H73.5756V27.52H50.2956C45.3356 27.52 41.2556 28.88 38.0556 31.6C34.8556 34.32 33.2556 37.76 33.2556 41.92C33.2556 46.24 34.8556 49.76 38.0556 52.48C41.2556 55.2 45.3356 56.56 50.2956 56.56H67.5756V77.44H48.8556C43.4156 77.44 39.0156 78.96 35.6556 82C32.2956 84.88 30.6156 88.64 30.6156 93.28C30.7756 97.76 32.5356 101.44 35.8956 104.32C39.2556 107.2 43.5756 108.64 48.8556 108.64H73.0956L90.6156 136H45.0156ZM137.759 114.64L106.319 82.96L137.759 52.24L168.719 82.96L137.759 114.64ZM232.281 136C217.401 136 205.881 131.36 197.721 122.08C191.161 114.56 187.881 105.6 187.881 95.2C187.881 83.52 192.681 73.52 202.281 65.2C194.441 58.48 190.521 50.16 190.521 40.24V40C190.521 39.84 190.521 39.68 190.521 39.52C190.521 28.48 194.841 19.12 203.481 11.44C211.801 4.08 222.041 0.400001 234.201 0.400001H260.841V27.52H237.561C232.601 27.52 228.521 28.88 225.321 31.6C222.121 34.32 220.521 37.76 220.521 41.92C220.521 46.24 222.121 49.76 225.321 52.48C228.521 55.2 232.601 56.56 237.561 56.56H254.841V77.44H236.121C230.681 77.44 226.281 78.96 222.921 82C219.561 84.88 217.881 88.64 217.881 93.28C218.041 97.76 219.801 101.44 223.161 104.32C226.521 107.2 230.841 108.64 236.121 108.64H260.361L277.881 136H232.281Z" fill="#3D72F9"/>
</svg>
