<svg width="303" height="120" viewBox="0 0 303 120" fill="none" xmlns="http://www.w3.org/2000/svg">
<path d="M0.375 97.5312V78.2344L48.8906 1.59375H65.6094V28.4688H55.6875L25.0625 76.9062V77.8438H94.2031V97.5312H0.375ZM56.1562 118V91.6719L56.625 83V1.59375H79.75V118H56.1562ZM151 119.562C141.104 119.562 132.641 117.219 125.609 112.531C118.63 107.792 113.266 100.995 109.516 92.1406C105.818 83.2344 103.969 72.4792 103.969 59.875C103.969 47.3229 105.844 36.5938 109.594 27.6875C113.344 18.7292 118.708 11.8802 125.688 7.14062C132.719 2.40104 141.156 0.03125 151 0.03125C160.896 0.03125 169.333 2.40104 176.312 7.14062C183.344 11.8802 188.708 18.7031 192.406 27.6094C196.156 36.5156 198.031 47.2708 198.031 59.875C198.031 72.4792 196.182 83.2344 192.484 92.1406C188.786 100.995 183.422 107.792 176.391 112.531C169.411 117.219 160.948 119.562 151 119.562ZM151 99.25C155.74 99.25 159.724 97.7396 162.953 94.7188C166.234 91.6458 168.708 87.1667 170.375 81.2812C172.094 75.3958 172.953 68.2604 172.953 59.875C172.953 51.4375 172.094 44.276 170.375 38.3906C168.708 32.5052 166.234 28.026 162.953 24.9531C159.724 21.8281 155.74 20.2656 151 20.2656C143.969 20.2656 138.552 23.7292 134.75 30.6562C130.948 37.5312 129.047 47.2708 129.047 59.875C129.047 68.2604 129.88 75.3958 131.547 81.2812C133.266 87.1667 135.766 91.6458 139.047 94.7188C142.328 97.7396 146.312 99.25 151 99.25ZM208.5 97.5312V78.2344L257.016 1.59375H273.734V28.4688H263.812L233.188 76.9062V77.8438H302.328V97.5312H208.5ZM264.281 118V91.6719L264.75 83V1.59375H287.875V118H264.281Z" fill="#3D72F9"/>
</svg>
