<svg width="643" height="450" viewBox="0 0 643 450" fill="none" xmlns="http://www.w3.org/2000/svg">
<g clip-path="url(#clip0_415_9560)">
<path d="M113.72 171.531C114.099 169.095 116.38 167.43 118.824 167.809C121.261 168.188 122.925 170.476 122.546 172.913C121.907 177.073 121.09 190.103 125.584 195.34C126.557 196.477 127.731 197.153 129.209 197.428L128.801 172.616C128.741 169.013 131.646 166.056 135.256 166.056C138.867 166.056 141.801 169.042 141.712 172.668L140.546 219.759C142.091 219.506 143.317 218.83 144.32 217.657C148.814 212.412 147.997 199.389 147.358 195.229C146.979 192.792 148.643 190.512 151.08 190.125C153.524 189.747 155.797 191.411 156.183 193.847C156.503 195.898 159.088 214.135 151.11 223.459C148.368 226.66 144.654 228.48 140.323 228.763L139.818 249.259H130.071L129.365 206.439C125.131 206.112 121.498 204.3 118.802 201.15C110.831 191.834 113.408 173.589 113.728 171.539L113.72 171.531Z" fill="#A6CEA5"/>
<path d="M529.734 211.454C529.979 209.901 531.427 208.839 532.987 209.084C534.54 209.329 535.602 210.785 535.357 212.338C534.949 214.99 534.429 223.295 537.296 226.638C537.92 227.359 538.663 227.797 539.606 227.968L539.346 212.152C539.309 209.856 541.159 207.969 543.462 207.969C545.765 207.969 547.63 209.871 547.578 212.189L546.835 242.209C547.823 242.053 548.603 241.615 549.242 240.864C552.109 237.521 551.589 229.216 551.181 226.564C550.935 225.011 551.998 223.555 553.55 223.31C555.103 223.065 556.559 224.127 556.804 225.68C557.012 226.987 558.654 238.613 553.573 244.556C551.827 246.599 549.457 247.758 546.694 247.936L546.367 261.004H540.156L539.703 233.703C536.999 233.495 534.689 232.343 532.973 230.33C527.891 224.387 529.533 212.761 529.741 211.454H529.734Z" fill="#A6CEA5"/>
<path d="M321.311 450C143.86 450 0.00756836 399.072 0.00756836 336.25C0.00756836 273.428 143.86 222.5 321.311 222.5C498.762 222.5 642.614 273.428 642.614 336.25C642.614 399.072 498.762 450 321.311 450Z" fill="url(#paint0_linear_415_9560)"/>
<path d="M310.695 151.005C311.223 150.225 312.277 150.017 313.057 150.545C313.838 151.072 314.046 152.127 313.518 152.907C312.627 154.237 310.242 158.605 310.948 161.146C311.104 161.695 311.393 162.119 311.861 162.453L315.724 153.821C316.289 152.565 317.767 152.016 319.008 152.595C320.263 153.182 320.783 154.683 320.167 155.923L312.166 171.999C312.738 172.163 313.273 172.125 313.808 171.88C316.207 170.796 318.027 166.168 318.473 164.622C318.733 163.716 319.677 163.203 320.583 163.463C321.489 163.723 322.002 164.667 321.742 165.573C321.519 166.331 319.469 173.047 315.212 174.978C313.748 175.639 312.173 175.669 310.628 175.067L307.144 182.065L303.779 180.49L310.443 165.588C309.031 164.793 308.073 163.582 307.649 162.059C306.401 157.558 310.235 151.674 310.673 151.02L310.695 151.005Z" fill="#BDBDBD"/>
<path d="M374.382 191.619C374.382 192.77 375.311 193.699 376.462 193.699C377.614 193.699 378.542 192.77 378.542 191.619C378.542 190.467 377.614 189.539 376.462 189.539C375.311 189.539 374.382 190.467 374.382 191.619Z" fill="#BDBDBD"/>
<path d="M277.867 154.787C277.867 155.656 278.573 156.362 279.442 156.362C280.311 156.362 281.017 155.656 281.017 154.787C281.017 153.917 280.311 153.212 279.442 153.212C278.573 153.212 277.867 153.917 277.867 154.787Z" fill="#BDBDBD"/>
<path d="M322.596 78.0768L525.328 298.148L231.757 301.008L244.898 104.278L322.596 78.0768Z" fill="url(#paint1_linear_415_9560)"/>
<path d="M238.48 133.6C237.766 133.837 237.001 133.934 236.206 133.845C233.324 133.511 231.259 130.91 231.593 128.028L234.468 103.082C234.802 100.2 237.41 98.142 240.285 98.4614C243.167 98.7957 245.232 101.396 244.898 104.278L242.023 129.224C241.785 131.312 240.352 132.968 238.48 133.6Z" fill="#193B9E"/>
<path d="M246.347 125.123C248.234 130.717 245.225 136.787 239.631 138.674C234.037 140.56 227.968 137.552 226.081 131.958C224.194 126.364 227.203 120.295 232.797 118.408C238.39 116.521 244.46 119.529 246.347 125.123Z" fill="url(#paint2_linear_415_9560)"/>
<path d="M345.462 97.5254C346.175 97.2877 346.844 96.8939 347.416 96.3442C349.511 94.331 349.577 91.0103 347.564 88.9154L330.173 70.804C328.16 68.709 324.839 68.6496 322.752 70.6479C320.657 72.6612 320.59 75.9818 322.603 78.0768L339.994 96.1882C341.45 97.7037 343.597 98.1568 345.462 97.5254Z" fill="#193B9E"/>
<path d="M334.066 95.5419C335.953 101.136 342.015 104.144 347.616 102.258C353.21 100.371 356.219 94.3087 354.332 88.7074C352.445 83.1135 346.383 80.1048 340.782 81.9918C335.188 83.8787 332.179 89.9406 334.066 95.5419Z" fill="url(#paint3_linear_415_9560)"/>
<path d="M280.519 86.5382C303.905 78.6562 325.27 70.1799 342.795 62.1048C332.32 78.9014 312.545 94.1081 287.398 102.584C262.467 110.994 237.722 110.949 219.261 104.107C237.41 99.9472 258.411 93.9967 280.527 86.5456L280.519 86.5382Z" fill="url(#paint4_linear_415_9560)"/>
<path d="M160.302 106.112C156.799 95.7199 205.615 69.8809 269.337 48.3991C333.059 26.9172 387.555 17.9273 391.059 28.3195C394.562 38.7116 345.746 64.5506 282.024 86.0325C218.302 107.514 163.806 116.504 160.302 106.112Z" fill="url(#paint5_linear_415_9560)"/>
<path opacity="0.2" d="M280.586 81.7986C339.913 61.7928 386.305 38.0206 389.596 26.454C390.31 26.9889 390.8 27.6129 391.045 28.326C394.551 38.7189 345.737 64.5563 282.012 86.0404C218.296 107.525 163.798 116.521 160.291 106.128C160.046 105.415 160.069 104.62 160.306 103.766C169.934 110.979 221.252 101.812 280.579 81.806L280.586 81.7986Z" fill="white"/>
<path d="M271.285 58.955C241.711 68.9245 212.932 72.8989 212.932 72.8989C207.576 43.1614 224.588 13.201 254.08 3.25381C283.662 -6.72307 315.449 6.94593 329.126 34.0239C329.126 34.0239 300.859 48.9855 271.285 58.955Z" fill="url(#paint6_linear_415_9560)"/>
</g>
<defs>
<linearGradient id="paint0_linear_415_9560" x1="321.311" y1="170.952" x2="321.311" y2="349.57" gradientUnits="userSpaceOnUse">
<stop stop-color="#E5E5E5"/>
<stop offset="0.48" stop-color="#F3F3F3"/>
<stop offset="1" stop-color="white"/>
</linearGradient>
<linearGradient id="paint1_linear_415_9560" x1="362.415" y1="-9.25047" x2="380.703" y2="341.168" gradientUnits="userSpaceOnUse">
<stop stop-color="#6EADE8"/>
<stop offset="0.791667" stop-color="#84A6FD" stop-opacity="0"/>
</linearGradient>
<linearGradient id="paint2_linear_415_9560" x1="229.727" y1="141.849" x2="242.616" y2="115.341" gradientUnits="userSpaceOnUse">
<stop stop-color="#F68B57"/>
<stop offset="0.505208" stop-color="#986BE5"/>
</linearGradient>
<linearGradient id="paint3_linear_415_9560" x1="351.706" y1="98.1402" x2="336.072" y2="85.5993" gradientUnits="userSpaceOnUse">
<stop stop-color="#F68B57"/>
<stop offset="0.65625" stop-color="#986BE5"/>
</linearGradient>
<linearGradient id="paint4_linear_415_9560" x1="278.836" y1="75.2767" x2="289.614" y2="109" gradientUnits="userSpaceOnUse">
<stop stop-color="#986BE5"/>
<stop offset="0.708333" stop-color="#1F4FDE"/>
</linearGradient>
<linearGradient id="paint5_linear_415_9560" x1="297.167" y1="130.928" x2="273.76" y2="61.4973" gradientUnits="userSpaceOnUse">
<stop stop-color="#F68B57"/>
<stop offset="1" stop-color="#B084FD"/>
</linearGradient>
<linearGradient id="paint6_linear_415_9560" x1="283.631" y1="-1.81953" x2="220.114" y2="94.5" gradientUnits="userSpaceOnUse">
<stop stop-color="#1F4FDE"/>
<stop offset="1" stop-color="#986BE5"/>
</linearGradient>
<clipPath id="clip0_415_9560">
<rect width="642.614" height="450" fill="white" transform="matrix(-1 0 0 1 642.614 0)"/>
</clipPath>
</defs>
</svg>
