<svg width="537" height="450" viewBox="0 0 537 450" fill="none" xmlns="http://www.w3.org/2000/svg">
<g clip-path="url(#clip0_421_9393)">
<path d="M441.877 217.347C441.559 215.313 439.653 213.921 437.613 214.238C435.579 214.556 434.187 216.467 434.504 218.501C435.042 221.977 435.72 232.861 431.964 237.24C431.151 238.187 430.168 238.755 428.934 238.981L429.276 218.251C429.325 215.24 426.9 212.772 423.883 212.772C420.866 212.772 418.416 215.27 418.49 218.3L419.467 257.64C418.172 257.433 417.152 256.865 416.309 255.881C412.553 251.502 413.237 240.618 413.768 237.142C414.086 235.109 412.693 233.197 410.659 232.879C408.619 232.562 406.714 233.954 406.396 235.988C406.128 237.698 403.971 252.943 410.635 260.725C412.926 263.4 416.028 264.921 419.65 265.153L420.072 282.279H428.213L428.806 246.5C432.348 246.225 435.378 244.716 437.632 242.084C444.295 234.302 442.139 219.057 441.87 217.347H441.877Z" fill="#A6CEA5"/>
<path d="M94.3109 250.702C94.1093 249.407 92.8939 248.515 91.5929 248.723C90.2981 248.924 89.4063 250.14 89.614 251.441C89.956 253.658 90.3897 260.596 87.9954 263.388C87.4763 263.992 86.8533 264.353 86.0653 264.499L86.2852 251.282C86.3158 249.364 84.7705 247.788 82.8465 247.788C80.9226 247.788 79.3651 249.382 79.4078 251.313L80.0308 276.391C79.2063 276.257 78.5527 275.897 78.0213 275.274C75.6271 272.482 76.0607 265.544 76.4028 263.327C76.6043 262.032 75.7187 260.81 74.4238 260.609C73.1229 260.407 71.9074 261.293 71.7059 262.588C71.5348 263.681 70.1606 273.392 74.4055 278.358C75.8653 280.062 77.8442 281.033 80.153 281.18L80.4217 292.094H85.6134L85.992 269.288C88.2458 269.111 90.182 268.152 91.6174 266.472C95.8623 261.513 94.488 251.795 94.317 250.702H94.3109Z" fill="#A6CEA5"/>
<path d="M268.439 450C416.694 450 536.878 407.453 536.878 354.968C536.878 302.484 416.694 259.937 268.439 259.937C120.184 259.937 0 302.484 0 354.968C0 407.453 120.184 450 268.439 450Z" fill="url(#paint0_linear_421_9393)"/>
<path d="M311.291 239.775C311.291 239.775 311.133 248.918 311.291 249.835C311.444 250.751 307.712 256.113 306.185 255.875C304.658 255.637 301.604 255.13 301.165 254.623C300.725 254.116 300.92 252.913 301.073 251.82C301.232 250.72 302.374 240.764 302.374 240.257C302.374 239.75 309.599 238.395 311.297 239.781L311.291 239.775Z" fill="#FFD3BC"/>
<path d="M305.373 249.309C303.461 250.342 302.392 253.481 302.117 253.518C301.849 253.554 301.342 253.481 301.342 253.169C301.342 252.858 301.421 251.813 301.073 251.813C300.725 251.813 300.334 253.518 300.261 256.003C300.181 258.489 299.302 264.408 300.261 265.159C300.865 265.629 306.393 268.537 306.546 268.922C306.698 269.312 306.43 272.024 306.894 272.452C307.358 272.879 308.445 273.924 309.3 273.967C310.155 274.003 315.078 274.51 317.411 273.967C319.738 273.423 322.689 272.299 322.768 271.988C322.847 271.676 322.188 265.08 321.449 264.267C320.71 263.455 315.396 256.156 314.968 255.497C314.541 254.837 314.229 253.249 314.229 252.314C314.229 251.38 313.386 249.352 311.817 248.863C310.186 248.356 306.808 248.534 305.373 249.309Z" fill="url(#paint1_linear_421_9393)"/>
<path d="M255.551 245.064C255.551 245.064 255.551 250.39 255.399 251.306C255.246 252.223 258.978 257.585 260.505 257.347C262.032 257.109 265.086 256.602 265.525 256.095C265.965 255.588 265.77 254.385 265.617 253.291C265.458 252.198 264.475 246.054 264.475 245.547C264.475 245.04 257.249 243.684 255.551 245.07V245.064Z" fill="#FFD3BC"/>
<path d="M260.468 127.544C258.306 135.398 254.22 162.315 254.22 175.398C254.22 188.481 252.913 221.836 252.913 226.9C252.913 231.963 252.369 244.545 253.676 245.199C254.983 245.852 258.043 247.819 262.191 247.165C266.338 246.512 267.431 243.891 267.541 241.491C267.651 239.091 268.634 221.842 269.618 215.185C270.601 208.527 274.095 195.682 276.385 187.425C278.676 179.161 284.026 162.554 285.443 162.615C286.86 162.676 295.704 199.066 296.437 201.131C297.176 203.195 298.575 232.494 298.666 234.956C298.758 237.417 298.666 239.781 300.212 240.783C301.757 241.784 306.497 244.246 308.952 244.423C311.413 244.606 313.05 240.691 313.502 239.506C313.96 238.321 314.767 199.127 314.473 188.377C314.18 177.628 315.035 157.576 314.535 151.04C314.04 144.505 312.44 130.494 311.42 127.544C310.406 124.593 260.456 127.544 260.456 127.544H260.468Z" fill="#192B59"/>
<path d="M245.205 36.2133C247.269 33.9229 256.889 23.0754 258.801 22.6906C260.712 22.3058 265.36 21.469 266.393 20.4001C267.431 19.3313 271.81 5.57035 270.076 3.06614C268.341 0.561937 261.641 1.27045 259.613 5.53371C257.585 9.79697 257.683 12.0263 254.336 14.9703C250.989 17.9143 236.397 29.8428 235.041 31.0461C233.685 32.2493 236.379 38.1067 238.51 39.1206C240.642 40.1345 245.199 36.2133 245.199 36.2133H245.205Z" fill="url(#paint2_linear_421_9393)"/>
<path d="M271.804 39.5177C266.887 40.5499 258.715 41.4233 256.022 42.2968C253.322 43.1702 242.694 46.896 242.774 45.3079C242.853 43.7199 247.691 36.7447 246.817 36.0301C245.944 35.3155 240.709 34.4421 239.836 33.3305C238.962 32.2188 237.771 29.6047 236.587 29.9223C235.396 30.2399 221.604 43.0847 222.545 48.0076C224.768 59.6063 257.371 68.0534 258.117 73.1107C258.862 78.168 255.588 126.664 257.371 128.448C259.155 130.231 278.046 137.078 287.569 137.67C297.091 138.263 313.789 134.946 314.699 132.442C315.61 129.938 310.051 81.7533 310.699 81.7533C311.346 81.7533 311.523 96.919 318.78 100.84C323.568 103.43 330.152 100.761 331.41 99.3316C332.669 97.9024 326.909 77.7405 324.307 70.9363C321.699 64.1383 319.207 50.0842 313.313 45.1002C307.419 40.1163 299.1 40.9591 296.236 39.7926C293.371 38.6199 283.763 39.4627 281.339 39.2062C278.914 38.9558 271.798 39.5177 271.798 39.5177H271.804Z" fill="url(#paint3_linear_421_9393)"/>
<path d="M333.225 90.2188C333.225 90.2188 324.747 92.784 324.087 93.6636C323.428 94.5431 322.249 98.0734 324.087 99.5454C325.926 101.017 327.941 102.117 330.122 100.419C332.302 98.7208 334.287 96.4426 335.545 96.1495C336.804 95.8624 340.572 96.3999 342.154 95.783C343.736 95.16 346.735 83.1703 345.526 82.4435C344.316 81.7167 333.225 90.2188 333.225 90.2188Z" fill="url(#paint4_linear_421_9393)"/>
<path d="M271.841 37.8991C269.105 37.3311 263.821 32.1639 263.339 26.9173C262.868 21.805 259.106 7.4333 272.195 2.04009C284.478 -3.01719 297.121 2.18668 298.935 8.42276C300.633 14.2496 286.213 14.5123 280.929 18.3052C275.646 22.0982 275.286 24.6146 273.966 24.016C272.647 23.4175 271.847 37.8991 271.847 37.8991H271.841Z" fill="#2F2F2F"/>
<path d="M271.621 27.6562C271.45 29.9955 270.858 41.3256 271.841 42.9991C272.745 44.5322 274.345 48.9848 280.618 48.7893C286.897 48.5939 290.964 42.315 291.313 41.5821C291.655 40.8491 290.922 31.7729 290.922 30.2521C290.922 28.7312 282.487 25.152 279.103 25.2498C275.719 25.3475 271.792 25.4635 271.627 27.6624L271.621 27.6562Z" fill="url(#paint5_linear_421_9393)"/>
<path d="M272.195 27.6929C272.904 27.6746 272.067 31.9928 273.35 33.4037C274.632 34.8146 280.215 42.1746 286.121 41.4539C291.227 40.8309 290.494 36.4271 291.233 32.8052C291.899 29.5131 294.025 29.2321 294.77 20.6384C295.057 17.3157 296.633 12.1058 293.744 11.1468C290.855 10.1818 280.019 7.61651 277.326 11.1468C274.632 14.6772 274.376 23.1426 272.965 22.0493C271.554 20.956 268.604 15.6361 266.869 18.519C265.135 21.408 268.408 27.7968 272.195 27.6929Z" fill="#F2DAD4"/>
<path d="M317.802 71.6325L300.609 93.3703C299.717 94.5002 300.535 96.1616 301.977 96.1371L333.756 95.5996C334.281 95.5935 334.776 95.337 335.094 94.9156L351.334 73.2145C352.104 72.1884 351.365 70.7225 350.082 70.7347L319.128 70.9912C318.608 70.9912 318.126 71.2355 317.802 71.6387V71.6325Z" fill="url(#paint6_linear_421_9393)"/>
<path d="M344.982 80.3851C343.309 80.5562 340.878 81.4968 340.878 82.3702C340.878 83.2436 342.826 83.4818 343.363 83.5673C343.901 83.6467 344.61 83.8177 344.408 84.0865C344.206 84.3552 343.803 85.6989 342.728 85.4668C341.653 85.2286 336.944 85.1614 336.034 85.1614C335.124 85.1614 334.049 85.8028 333.982 86.4746C333.915 87.1465 333.713 87.2809 333.176 87.3175C332.638 87.3542 331.661 87.855 331.661 88.7284C331.661 89.6018 333.823 90.3897 333.823 90.7012C333.823 91.0127 338.062 93.5964 338.893 94.0789C339.723 94.5614 341.275 95.783 342.148 95.783C343.021 95.783 344.487 94.9523 344.597 93.7491C344.707 92.5458 346.436 91.6724 346.454 91.0799C346.478 90.4875 345.91 90.0538 345.972 89.6812C346.039 89.3087 347.547 88.7834 347.547 87.8428C347.547 86.9022 346.955 85.6379 346.869 85.2409C346.784 84.85 346.43 83.9949 346.784 83.8849C347.132 83.775 348.36 82.6389 348.14 81.5884C347.92 80.5378 345.758 80.2996 344.982 80.379V80.3851Z" fill="#FFD3BC"/>
<path d="M261.311 250.781C263.223 251.813 264.292 254.953 264.566 254.99C264.835 255.026 265.342 254.953 265.342 254.641C265.342 254.33 265.263 253.285 265.611 253.285C265.959 253.285 266.35 254.99 266.423 257.475C266.503 259.955 267.382 265.88 266.423 266.631C265.819 267.101 260.291 270.009 260.138 270.393C259.986 270.784 260.254 273.496 259.79 273.924C259.326 274.351 258.239 275.396 257.384 275.439C256.529 275.475 251.606 275.982 249.272 275.439C246.945 274.895 243.995 273.771 243.916 273.46C243.837 273.148 244.496 266.552 245.235 265.739C245.974 264.927 251.288 257.628 251.716 256.968C252.143 256.309 252.455 254.721 252.455 253.786C252.455 252.852 253.298 250.824 254.867 250.335C256.498 249.828 259.876 250.006 261.311 250.781Z" fill="url(#paint7_linear_421_9393)"/>
</g>
<defs>
<linearGradient id="paint0_linear_421_9393" x1="268.439" y1="216.864" x2="268.439" y2="366.091" gradientUnits="userSpaceOnUse">
<stop stop-color="#E5E5E5"/>
<stop offset="0.48" stop-color="#F3F3F3"/>
<stop offset="1" stop-color="white"/>
</linearGradient>
<linearGradient id="paint1_linear_421_9393" x1="315.561" y1="259.137" x2="301.672" y2="269.667" gradientUnits="userSpaceOnUse">
<stop stop-color="#4E9CFF"/>
<stop offset="0.98" stop-color="#176AD4"/>
</linearGradient>
<linearGradient id="paint2_linear_421_9393" x1="275.994" y1="23.0143" x2="249.718" y2="20.0825" gradientUnits="userSpaceOnUse">
<stop stop-color="#F2BFAD"/>
<stop offset="1" stop-color="#F2DAD4"/>
</linearGradient>
<linearGradient id="paint3_linear_421_9393" x1="244.563" y1="55.8561" x2="334.116" y2="123.738" gradientUnits="userSpaceOnUse">
<stop stop-color="#4E9CFF"/>
<stop offset="0.98" stop-color="#176AD4"/>
</linearGradient>
<linearGradient id="paint4_linear_421_9393" x1="334.678" y1="94.1278" x2="336.016" y2="116.794" gradientUnits="userSpaceOnUse">
<stop stop-color="#F2BFAD"/>
<stop offset="0.7" stop-color="#F2DAD4"/>
</linearGradient>
<linearGradient id="paint5_linear_421_9393" x1="279.402" y1="32.4448" x2="288.094" y2="50.5911" gradientUnits="userSpaceOnUse">
<stop stop-color="#F2BFAD"/>
<stop offset="1" stop-color="#F2DAD4"/>
</linearGradient>
<linearGradient id="paint6_linear_421_9393" x1="320.105" y1="72.6281" x2="335.228" y2="100.455" gradientUnits="userSpaceOnUse">
<stop stop-color="#F6DBDB"/>
<stop offset="1" stop-color="#EB9A99"/>
</linearGradient>
<linearGradient id="paint7_linear_421_9393" x1="251.123" y1="260.609" x2="265.012" y2="271.139" gradientUnits="userSpaceOnUse">
<stop stop-color="#4E9CFF"/>
<stop offset="0.98" stop-color="#176AD4"/>
</linearGradient>
<clipPath id="clip0_421_9393">
<rect width="536.884" height="450" fill="white"/>
</clipPath>
</defs>
</svg>
