<svg width="845" height="400" viewBox="0 0 845 400" fill="none" xmlns="http://www.w3.org/2000/svg">
<g clip-path="url(#clip0_418_8776)">
<path d="M130.132 139.933C165.882 139.933 194.34 149.976 215.512 170.043C236.671 190.122 247.261 217.615 247.261 252.527C247.261 293.861 234.518 325.653 209.046 347.918C183.567 370.189 147.124 381.318 99.7173 381.318C58.5485 381.318 25.3073 374.667 0 361.34V293.841C13.3206 300.918 28.8391 306.686 46.5491 311.151C64.2592 315.617 81.0418 317.84 96.8906 317.84C144.615 317.84 168.487 298.301 168.487 259.228C168.487 220.156 143.783 203.398 94.3687 203.398C85.4248 203.398 75.5598 204.288 64.7673 206.054C53.9749 207.826 45.2088 209.725 38.4628 211.739L7.34318 195.02L21.2609 5.99646H221.953V72.4662H89.9031L83.0808 145.256L91.9358 143.484C102.22 141.121 114.956 139.933 130.138 139.933H130.132Z" fill="#F4F4F4"/>
<path d="M548.255 191.043C548.255 255.741 537.666 303.624 516.487 334.699C495.309 365.781 462.709 381.318 418.676 381.318C374.642 381.318 343.795 365.272 322.122 333.174C300.435 301.083 289.598 253.708 289.598 191.037C289.598 128.366 300.143 77.4909 321.232 46.492C342.322 15.4994 374.807 0 418.676 0C462.544 0 493.632 16.2172 515.484 48.6454C537.335 81.0735 548.255 128.537 548.255 191.037V191.043ZM367.362 191.158C367.362 236.595 371.275 269.15 379.114 288.83C386.946 308.509 400.133 318.348 418.676 318.348C437.218 318.348 450.011 308.382 458.104 288.455C466.197 268.528 470.237 236.087 470.237 191.158C470.237 146.228 466.146 113.095 457.977 93.2444C449.801 73.3937 436.697 63.4715 418.676 63.4715C400.654 63.4715 387.162 73.3937 379.241 93.2444C371.326 113.095 367.362 145.727 367.362 191.158Z" fill="#F4F4F4"/>
<path d="M844.434 191.043C844.434 255.741 833.845 303.624 812.666 334.699C791.488 365.781 758.888 381.318 714.855 381.318C670.821 381.318 639.975 365.272 618.301 333.174C596.614 301.083 585.777 253.708 585.777 191.037C585.777 128.366 596.322 77.4909 617.411 46.492C638.501 15.4994 670.986 0 714.855 0C758.723 0 789.811 16.2172 811.663 48.6454C833.514 81.0735 844.434 128.537 844.434 191.037V191.043ZM663.541 191.158C663.541 236.595 667.454 269.15 675.293 288.83C683.125 308.509 696.312 318.348 714.855 318.348C733.397 318.348 746.19 308.382 754.283 288.455C762.376 268.528 766.416 236.087 766.416 191.158C766.416 146.228 762.325 113.095 754.156 93.2444C745.981 73.3937 732.876 63.4715 714.855 63.4715C696.833 63.4715 683.341 73.3937 675.42 93.2444C667.499 113.095 663.541 145.727 663.541 191.158Z" fill="#F4F4F4"/>
<path d="M255.614 37.1224C255.614 37.1224 301.979 37.4655 306 49.5982C310.014 61.7373 292.317 72.3964 300.816 82.7569C309.316 93.1174 326.867 92.3424 323.538 102.703C320.216 113.057 305.345 124.656 306.286 133.619C307.226 142.582 320.26 132.044 326.136 136.662C332.012 141.286 314.95 174.782 314.95 174.782C314.95 174.782 292.412 174.172 288.366 172.59C284.32 171.015 281.309 171.764 281.918 165.063C282.528 158.361 278.984 155.141 270.846 153.667C262.716 152.199 254.293 151.405 255.944 144.602C257.596 137.793 298.402 119.53 296.827 113.832C295.252 108.134 290.488 114.048 286.403 104.405C282.319 94.7689 262.22 93.5493 253.155 90.7861C244.091 88.0229 245.063 83.3667 250.399 79.1424C255.734 74.9182 268.998 64.6022 267.238 54.5339C265.485 44.4656 255.607 37.1161 255.607 37.1161L255.614 37.1224Z" fill="url(#paint0_linear_418_8776)"/>
<path d="M246.689 281.861L285.418 272.409L269.767 230.878L231.418 241.328L246.689 281.861Z" fill="url(#paint1_linear_418_8776)"/>
<path d="M220.105 211.307C217.075 212.45 215.531 215.855 216.675 218.885L246.282 297.45C247.426 300.48 250.831 302.023 253.861 300.88C256.891 299.736 258.434 296.332 257.291 293.302L227.683 214.737C226.54 211.707 223.135 210.164 220.105 211.307Z" fill="#FA5858"/>
<path d="M424.342 214.915L389.011 233.368L373.359 191.837L409.071 174.381L424.342 214.915Z" fill="url(#paint2_linear_418_8776)"/>
<path d="M397.751 144.354C400.781 143.211 404.186 144.755 405.33 147.785L434.937 226.349C436.081 229.379 434.537 232.784 431.507 233.927C428.477 235.071 425.072 233.527 423.929 230.497L394.321 151.933C393.178 148.903 394.721 145.498 397.751 144.354Z" fill="#FA5858"/>
<path d="M282.084 173.772C281.658 172.635 282.084 171.364 283.119 170.716C285.412 169.287 290.576 166.581 301.737 162.369C312.905 158.164 318.564 156.792 321.232 156.348C322.427 156.151 323.595 156.824 324.021 157.961L332.063 179.304L290.125 195.109L282.084 173.765V173.772Z" fill="#192B59"/>
<path d="M307.556 334.089C361.829 407.356 391.247 396.265 391.247 396.265C391.247 396.265 420.664 385.18 413.086 294.318C405.507 203.456 391.475 184.761 379.876 180.359C368.277 175.957 348.229 173.975 342.125 165.546C336.027 157.116 274.899 180.149 275.877 190.51C276.856 200.87 263.103 215.588 257.297 226.552C251.485 237.516 253.289 260.823 307.556 334.083V334.089Z" fill="url(#paint3_linear_418_8776)"/>
<path d="M327.184 358.291C368.88 404.688 391.247 396.271 391.247 396.271C391.247 396.271 413.606 387.835 414.312 325.457C414.312 325.457 378.402 339.768 371.002 342.557C363.602 345.345 327.178 358.291 327.178 358.291H327.184Z" fill="#6C4AA6"/>
<path d="M310.472 181.839C313.241 180.797 316.354 182.207 317.402 184.977L341.464 248.823C342.506 251.593 341.096 254.705 338.326 255.754C335.557 256.795 332.444 255.385 331.396 252.616L307.334 188.769C306.292 186 307.702 182.887 310.472 181.839Z" fill="#F68B57"/>
<path d="M385.404 312.437C393.163 295.293 385.555 275.105 368.41 267.346C351.266 259.587 331.078 267.195 323.319 284.339C315.56 301.483 323.169 321.671 340.313 329.43C357.457 337.189 377.645 329.581 385.404 312.437Z" fill="url(#paint4_linear_418_8776)"/>
<path d="M376.48 308.398C382.009 296.183 376.588 281.798 364.372 276.27C352.156 270.741 337.772 276.162 332.243 288.378C326.715 300.594 332.136 314.978 344.352 320.507C356.567 326.035 370.952 320.614 376.48 308.398Z" fill="#192B59"/>
<path d="M363.307 309.947C369.697 305.01 370.876 295.826 365.938 289.435C361 283.045 351.817 281.867 345.426 286.804C339.035 291.742 337.857 300.925 342.795 307.316C347.733 313.707 356.916 314.885 363.307 309.947Z" fill="#E8F5F8"/>
<path d="M506.228 396.112C505.085 396.112 503.973 396.252 502.913 396.506C500.34 393.819 496.719 392.142 492.704 392.142C492.279 392.142 491.86 392.161 491.447 392.199C488.855 389.061 484.929 387.061 480.54 387.061C476.798 387.061 473.4 388.515 470.865 390.891C467.778 388.579 463.973 387.175 459.851 387.073C456.802 377.164 447.572 369.96 436.665 369.96C428.363 369.96 421.039 374.134 416.668 380.492C413.568 378.834 410.024 377.894 406.263 377.894C394.054 377.894 384.158 387.791 384.158 400H515.96C513.425 397.593 510.002 396.112 506.235 396.112H506.228Z" fill="#F1F2F2"/>
<path d="M220.473 394.912C221.972 394.912 223.421 395.096 224.818 395.426C228.185 391.914 232.924 389.722 238.171 389.722C238.723 389.722 239.276 389.754 239.816 389.798C243.208 385.688 248.34 383.071 254.083 383.071C258.98 383.071 263.427 384.977 266.737 388.083C270.77 385.06 275.75 383.224 281.15 383.084C285.139 370.119 297.215 360.692 311.488 360.692C322.35 360.692 331.936 366.149 337.659 374.47C341.718 372.298 346.349 371.066 351.278 371.066C367.254 371.066 380.206 384.018 380.206 399.994H207.75C211.066 396.843 215.544 394.905 220.473 394.905V394.912Z" fill="#F1F2F2"/>
<path d="M598.329 397.567C598.329 397.567 601.893 398.882 603.621 399.339C605.349 399.797 613.848 399.943 613.848 399.943L610.672 396.703L598.329 397.567Z" fill="#192B59"/>
<path d="M612.095 380.022C611.885 381.426 609.846 387.029 607.508 388.35C605.171 389.665 599.949 392.301 598.882 393.362C597.821 394.423 597.904 397.485 598.329 397.567C598.755 397.65 609.331 399.181 612.095 399.689C614.858 400.197 617.405 400.241 621.102 398.539C624.799 396.843 631.17 393.864 632.314 393.654C633.464 393.445 633.883 392.593 633.756 391.145C633.629 389.703 632.396 384.291 631.291 383.497C625.142 379.082 612.088 380.016 612.088 380.016L612.095 380.022Z" fill="url(#paint5_linear_418_8776)"/>
<path d="M563.964 372.768C562.509 374.045 557.618 379.419 555.287 380.562C552.949 381.706 546.565 383.821 544.888 386.641C543.211 389.462 549.379 390.256 549.995 390.427C550.611 390.605 561.715 391.615 563.386 391.437C565.063 391.259 569.198 388.706 572.724 388.267C576.249 387.829 582.328 387.874 583.694 385.358C585.06 382.849 584.177 374.655 583.694 373.949C583.211 373.244 563.957 372.762 563.957 372.762L563.964 372.768Z" fill="url(#paint6_linear_418_8776)"/>
<path d="M559.168 391.285C557.554 390.84 554.994 390.148 553.349 389.811C550.796 389.284 545.244 388.756 545.244 388.756C546.578 389.9 549.582 390.306 550.002 390.427C550.408 390.541 555.357 391.024 559.168 391.285Z" fill="#192B59"/>
<path d="M558.298 207.241C557.148 218.961 555.077 252.527 558.298 269.303C561.518 286.085 563.583 333.664 563.583 343.09C563.583 352.517 565.063 366.498 564.294 369.782C563.526 373.066 561.455 373.282 564.516 373.613C567.578 373.943 576.44 377.551 581.579 376.783C586.717 376.014 586.171 370.767 585.733 357.421C585.295 344.075 584.939 303.135 586 293.943C587.061 284.751 590.777 252.399 592.72 251.694C594.664 250.989 612.698 310.389 613.759 320.108C614.82 329.833 616.516 360.216 614.94 366.517C613.365 372.819 611.015 380.359 611.669 380.816C612.323 381.274 616.643 379.444 621.877 381.534C627.111 383.624 630.643 384.742 631.691 384.545C632.739 384.348 636.417 354.766 637.078 340.054C637.739 325.342 632.447 296.916 630.465 284.021C628.483 271.126 627.658 251.955 628.153 243.36C628.649 234.766 627.823 217.253 622.036 207.248C616.249 197.243 558.291 207.248 558.291 207.248L558.298 207.241Z" fill="#192B59"/>
<path d="M545.218 147.702C545.218 147.702 545.593 142.468 549.817 135.347C554.042 128.226 569.135 136.649 569.135 136.649L574.515 151.215L558.666 157.942L545.218 147.708V147.702Z" fill="url(#paint7_linear_418_8776)"/>
<path d="M575.747 99.965C571.714 100.568 566.905 102.627 562.693 104.513C558.488 106.4 556.112 109.817 552.987 117.91C550.993 123.093 549.074 128.887 547.785 133.518C547.537 134.407 548.115 135.309 549.023 135.442C553.197 136.052 563.932 137.875 565.908 140.715C568.366 144.253 566.892 164.313 565.12 168.544C563.348 172.774 551.539 204.37 553.216 208.48C554.893 212.59 566.505 221.388 579.139 221.725C606.702 222.449 623.217 213.733 625.974 211.974C627.721 210.862 622.385 193.705 622.385 185.485C622.385 177.265 621.013 153.66 623.91 147.111C626.8 140.562 628.02 110.872 625.892 106C623.757 101.127 615.055 100.302 612.463 98.6374C609.878 96.9731 604.51 92.5964 604.078 90.1318C603.646 87.6671 600.959 86.6698 598.596 87.2351C596.227 87.8005 575.747 99.965 575.747 99.965Z" fill="url(#paint8_linear_418_8776)"/>
<path d="M611.478 140.264C610.354 142.449 610.481 156.042 608.493 156.112C606.505 156.176 596.557 156.741 588.801 154.404C581.045 152.066 577.596 151.405 576.598 150.275C575.601 149.15 570.17 142.779 569.37 142.779C568.569 142.779 564.466 156.214 564.466 156.214C564.466 156.214 568.048 158.958 569.573 158.958C571.097 158.958 573.683 159.492 576.071 161.143C578.46 162.801 588.007 169.23 594.836 171.021C601.664 172.812 604.783 172.946 609.884 174.604C614.991 176.262 619.832 177.92 622.481 169.7C625.136 161.48 629.906 149.341 630.637 145.962C631.367 142.582 611.472 140.257 611.472 140.257L611.478 140.264Z" fill="url(#paint9_linear_418_8776)"/>
<path d="M599.098 79.6379C599.098 79.6379 598.85 86.3586 599.676 87.8514C600.508 89.3441 604.072 94.3243 604.072 94.3243C604.072 94.3243 594.277 112.663 590.459 113.248C586.641 113.826 575.023 99.5522 575.023 99.5522L574.693 95.3216L599.092 79.6379H599.098Z" fill="url(#paint10_linear_418_8776)"/>
<path d="M564.351 70.9544C564.351 70.9544 562.903 68.3182 563.932 63.211C564.942 58.1864 573.111 51.1863 577.005 49.3251C580.899 47.4639 589.538 48.5628 594.111 52.9649C598.685 57.367 602.045 63.7637 600.788 71.5769C599.53 79.3838 597.669 81.5881 597.669 81.5881L594.283 84.8086L564.358 70.9608L564.351 70.9544Z" fill="#2F2F2F"/>
<path d="M583.192 66.3682C583.192 66.3682 577.615 68.8138 573.302 68.89C569.509 68.9599 564.218 67.0415 563.932 67.6323C563.646 68.2294 564.663 77.6815 565.145 78.1643C565.628 78.647 567.381 79.7396 567.75 82.7633C568.112 85.7869 571.542 96.5857 579.127 100.746C583.821 103.319 595.509 90.5448 596.03 89.2362C596.551 87.9276 595.833 83.2842 596.621 83.1508C597.408 83.0174 599.892 82.0391 600.68 78.9646C601.467 75.8902 602.052 71.2403 599.695 70.8528C597.338 70.459 594.982 73.2095 594.721 75.1088C594.461 77.0081 595.636 82.9602 594.855 83.0237C594.067 83.0872 592.758 79.098 591.977 77.1987C591.189 75.2994 590.535 72.9427 587.397 72.7522C584.259 72.5552 583.198 66.3745 583.198 66.3745L583.192 66.3682Z" fill="url(#paint11_linear_418_8776)"/>
<path d="M545.606 145.707C544.221 149.989 546.571 162.109 552.142 164.447C556.246 166.168 561.366 165.482 566.879 156.424C570.38 150.675 581.642 119.733 582.9 118.717C584.158 117.694 586.501 115.598 585.657 112.003C584.818 108.401 585.06 106.845 585.479 106.965C585.898 107.086 586.139 109.963 587.156 110.027C588.172 110.091 590.218 110.148 590.218 107.27C590.218 104.393 590.16 99.9968 585.542 96.465C585.542 96.465 577.983 95.6964 575.944 97.0748C573.905 98.4532 573.905 104.151 574.445 106.07C574.985 107.988 576.427 112.13 575.283 114.105C574.146 116.087 567.184 126.041 565.025 128.62C562.865 131.199 557.65 135.696 554.766 137.913C551.888 140.13 546.336 143.446 545.606 145.714V145.707Z" fill="#F2DAD4"/>
<path d="M625.892 106C619.965 105.072 613.829 118.946 612.717 123.271C611.599 127.591 607.705 140.187 609.744 140.645C611.783 141.102 627.34 146.851 629.557 149.443C631.78 152.034 635.573 131.574 634.925 124.256C634.277 116.938 633.483 107.188 625.892 106Z" fill="url(#paint12_linear_418_8776)"/>
</g>
<defs>
<linearGradient id="paint0_linear_418_8776" x1="263.783" y1="21.7437" x2="301.661" y2="169.223" gradientUnits="userSpaceOnUse">
<stop stop-color="white"/>
<stop offset="1" stop-color="#BCBEC0"/>
</linearGradient>
<linearGradient id="paint1_linear_418_8776" x1="276.072" y1="250.516" x2="235.744" y2="265.199" gradientUnits="userSpaceOnUse">
<stop stop-color="#FFDADA"/>
<stop offset="1" stop-color="#FA5858"/>
</linearGradient>
<linearGradient id="paint2_linear_418_8776" x1="381.25" y1="210.634" x2="421.232" y2="195.05" gradientUnits="userSpaceOnUse">
<stop stop-color="#FFDADA"/>
<stop offset="1" stop-color="#FA5858"/>
</linearGradient>
<linearGradient id="paint3_linear_418_8776" x1="376.08" y1="310.321" x2="267.248" y2="128.773" gradientUnits="userSpaceOnUse">
<stop stop-color="#986BE5"/>
<stop offset="0.734375" stop-color="#1F4FDE"/>
</linearGradient>
<linearGradient id="paint4_linear_418_8776" x1="357" y1="299.562" x2="294.565" y2="272.267" gradientUnits="userSpaceOnUse">
<stop stop-color="#2544A2"/>
<stop offset="1" stop-color="#1F4FDE"/>
</linearGradient>
<linearGradient id="paint5_linear_418_8776" x1="622.957" y1="413.327" x2="614.807" y2="390.071" gradientUnits="userSpaceOnUse">
<stop offset="0.03" stop-color="#4E9CFF"/>
<stop offset="1" stop-color="#176AD4"/>
</linearGradient>
<linearGradient id="paint6_linear_418_8776" x1="569.598" y1="396.379" x2="561.976" y2="374.629" gradientUnits="userSpaceOnUse">
<stop offset="0.03" stop-color="#4E9CFF"/>
<stop offset="1" stop-color="#176AD4"/>
</linearGradient>
<linearGradient id="paint7_linear_418_8776" x1="560.14" y1="146.413" x2="552.733" y2="135.817" gradientUnits="userSpaceOnUse">
<stop stop-color="#F2BFAD"/>
<stop offset="1" stop-color="#F2DAD4"/>
</linearGradient>
<linearGradient id="paint8_linear_418_8776" x1="621.782" y1="249.192" x2="571.123" y2="104.621" gradientUnits="userSpaceOnUse">
<stop offset="0.03" stop-color="#4E9CFF"/>
<stop offset="1" stop-color="#176AD4"/>
</linearGradient>
<linearGradient id="paint9_linear_418_8776" x1="544.164" y1="128.385" x2="604.904" y2="154.689" gradientUnits="userSpaceOnUse">
<stop stop-color="#F2BFAD"/>
<stop offset="1" stop-color="#F2DAD4"/>
</linearGradient>
<linearGradient id="paint10_linear_418_8776" x1="584.17" y1="87.051" x2="604.866" y2="107.899" gradientUnits="userSpaceOnUse">
<stop stop-color="#F2BFAD"/>
<stop offset="0.7" stop-color="#F2DAD4"/>
</linearGradient>
<linearGradient id="paint11_linear_418_8776" x1="570.081" y1="117.98" x2="579.971" y2="81.8231" gradientUnits="userSpaceOnUse">
<stop stop-color="#F2BFAD"/>
<stop offset="1" stop-color="#F2DAD4"/>
</linearGradient>
<linearGradient id="paint12_linear_418_8776" x1="629.932" y1="151.539" x2="612.857" y2="102.817" gradientUnits="userSpaceOnUse">
<stop stop-color="#4E9CFF"/>
<stop offset="1" stop-color="#176AD4"/>
</linearGradient>
<clipPath id="clip0_418_8776">
<rect width="844.434" height="400" fill="white"/>
</clipPath>
</defs>
</svg>
