<svg width="32" height="33" viewBox="0 0 32 33" fill="none" xmlns="http://www.w3.org/2000/svg">
<path d="M16.0005 4.49951V16.4981H27.9991M16.0005 4.49951C17.5761 4.49951 19.1364 4.80987 20.5921 5.41285C22.0479 6.01584 23.3706 6.89965 24.4848 8.01383C25.5989 9.128 26.4828 10.4507 27.0857 11.9065C27.6887 13.3622 27.9991 14.9225 27.9991 16.4981M16.0005 4.49951C14.4248 4.49951 12.8645 4.80987 11.4088 5.41285C9.95304 6.01584 8.63032 6.89965 7.51615 8.01383C6.40197 9.128 5.51816 10.4507 4.91517 11.9065C4.31218 13.3622 4.00183 14.9225 4.00183 16.4981C4.00183 18.0738 4.31218 19.6341 4.91517 21.0898C5.51816 22.5456 6.40197 23.8683 7.51615 24.9824C8.63032 26.0966 9.95304 26.9804 11.4088 27.5834C12.8645 28.1864 14.4248 28.4968 16.0005 28.4968C17.5761 28.4968 19.1364 28.1864 20.5921 27.5834C22.0479 26.9804 23.3706 26.0966 24.4848 24.9824C25.5989 23.8683 26.4828 22.5456 27.0857 21.0898C27.6887 19.6341 27.9991 18.0738 27.9991 16.4981" stroke="#676793" stroke-width="2.66636" stroke-linecap="round" stroke-linejoin="round"/>
</svg>
