<svg width="88" height="75" viewBox="0 0 88 75" fill="none" xmlns="http://www.w3.org/2000/svg">
<path d="M75.5385 3H12.4615C7.23607 3 3 7.21259 3 12.4091V62.5909C3 67.7874 7.23607 72 12.4615 72H75.5385C80.7639 72 85 67.7874 85 62.5909V12.4091C85 7.21259 80.7639 3 75.5385 3Z" stroke="#7892DF" stroke-width="6" stroke-linejoin="round"/>
<path d="M59.7375 28.016C63.1684 28.016 65.9496 25.2468 65.9496 21.8308C65.9496 18.4147 63.1684 15.6455 59.7375 15.6455C56.3067 15.6455 53.5254 18.4147 53.5254 21.8308C53.5254 25.2468 56.3067 28.016 59.7375 28.016Z" stroke="#7892DF" stroke-width="6" stroke-miterlimit="10"/>
<path d="M53.4615 53.1152L35.5911 35.3531C34.4539 34.221 32.9255 33.5641 31.3182 33.5167C29.7109 33.4692 28.1461 34.0349 26.9436 35.098L3 56.297M37.6923 72L62.0045 47.7899C63.1164 46.6805 64.6046 46.0251 66.1769 45.9525C67.7492 45.8798 69.2919 46.3952 70.5022 47.3973L85 59.4376" stroke="#7892DF" stroke-width="6" stroke-linecap="round" stroke-linejoin="round"/>
</svg>
