<svg width="803" height="1062" viewBox="0 0 803 1062" fill="none" xmlns="http://www.w3.org/2000/svg">
<g clip-path="url(#clip0_42_1208)">
<path fill-rule="evenodd" clip-rule="evenodd" d="M319.56 27.66C306.83 27.66 296.5 37.98 296.5 50.71C296.5 63.44 306.82 73.76 319.56 73.76C332.3 73.76 342.62 63.44 342.62 50.71C342.62 37.98 332.3 27.66 319.56 27.66ZM268.83 50.71C268.84 22.7 291.55 0 319.56 0C347.58 0 370.29 22.7 370.29 50.71C370.29 78.72 347.58 101.42 319.56 101.42C291.54 101.42 268.83 78.72 268.83 50.71Z" fill="#F7F7F7"/>
<path fill-rule="evenodd" clip-rule="evenodd" d="M333.18 51.7C333.18 59.32 326.99 65.51 319.36 65.51C311.73 65.51 305.54 59.32 305.54 51.7C305.54 44.08 311.73 37.89 319.36 37.89C326.99 37.89 333.18 44.08 333.18 51.7Z" fill="#F7F7F7"/>
<path fill-rule="evenodd" clip-rule="evenodd" d="M789.54 898.62C781.91 898.62 775.72 892.44 775.72 884.81V801.93C775.72 794.3 781.91 788.12 789.54 788.12C797.17 788.12 803.36 794.3 803.36 801.93V884.81C803.36 892.44 797.17 898.62 789.54 898.62Z" fill="#F7F7F7"/>
<path fill-rule="evenodd" clip-rule="evenodd" d="M444.71 760.5C472.73 760.5 495.44 783.18 495.44 811.15V903.24C495.44 931.21 472.73 953.89 444.71 953.89C416.69 953.89 393.98 931.21 393.98 903.24V811.15C393.98 783.18 416.69 760.5 444.71 760.5ZM467.77 811.15C467.77 798.44 457.45 788.13 444.71 788.13C431.97 788.13 421.65 798.44 421.65 811.15V903.24C421.65 915.95 431.97 926.26 444.71 926.26C457.45 926.26 467.77 915.95 467.77 903.24V811.15Z" fill="#F7F7F7"/>
<path fill-rule="evenodd" clip-rule="evenodd" d="M730.32 1005.97C737.95 1005.97 744.14 999.78 744.14 992.15V949.32C744.14 934.8 738.03 921.71 728.25 912.47C738.03 903.23 744.14 890.14 744.14 875.62V833.25C744.14 805.27 721.46 782.59 693.48 782.59C685.85 782.59 679.66 788.78 679.66 796.41C679.66 804.04 685.85 810.23 693.48 810.23C706.2 810.23 716.51 820.54 716.51 833.26V875.63C716.51 888.35 706.2 898.66 693.48 898.66H600.45C572.98 898.66 550.71 920.93 550.71 948.4H578.34C578.34 936.19 588.24 926.29 600.45 926.29H693.48C706.2 926.29 716.51 936.6 716.51 949.32V992.15C716.51 999.78 722.7 1005.97 730.33 1005.97H730.32Z" fill="#F7F7F7"/>
<path d="M618.96 826.6C618.96 813.87 608.64 803.55 595.9 803.55C583.17 803.55 572.84 813.87 572.84 826.6C572.84 839.33 583.16 849.65 595.9 849.65C603.54 849.65 609.73 855.84 609.73 863.48C609.73 871.12 603.54 877.31 595.9 877.31C567.88 877.31 545.17 854.61 545.17 826.6C545.17 798.59 567.88 775.89 595.9 775.89C623.92 775.89 646.63 798.59 646.63 826.6C646.63 834.24 640.44 840.43 632.8 840.43C625.16 840.43 618.97 834.24 618.97 826.6H618.96Z" fill="#F7F7F7"/>
<path d="M431.09 859.12C431.09 842.12 417.42 828.45 400.69 828.45C383.96 828.45 370.29 842.12 370.29 859.12C370.29 868.51 374.46 876.89 381.05 882.53C386.85 887.49 387.54 896.23 382.59 902.05C377.64 907.87 368.91 908.56 363.11 903.59C350.61 892.9 342.66 876.92 342.66 859.11C342.66 826.94 368.58 800.74 400.69 800.74C432.8 800.74 458.72 826.93 458.72 859.11C458.72 866.76 452.53 872.96 444.9 872.96C437.27 872.96 431.08 866.76 431.08 859.11L431.09 859.12Z" fill="#F7F7F7"/>
<path fill-rule="evenodd" clip-rule="evenodd" d="M75.53 639.42C66.55 630.42 51.99 630.42 43.01 639.42C34.03 648.42 34.03 663.02 43.01 672.02C51.99 681.02 66.55 681.02 75.53 672.02C80.92 666.62 89.65 666.62 95.04 672.02C100.43 677.42 100.43 686.18 95.04 691.58C75.28 711.38 43.25 711.38 23.5 691.58C3.73999 671.78 3.73999 639.67 23.5 619.86C43.26 600.06 75.29 600.06 95.04 619.86C100.43 625.26 100.43 634.02 95.04 639.42C89.65 644.82 80.92 644.82 75.53 639.42Z" fill="#F7F7F7"/>
<path fill-rule="evenodd" clip-rule="evenodd" d="M75.89 690.94C70.49 685.55 70.49 676.8 75.89 671.41C81.29 666.02 90.03 666.02 95.43 671.41C100.83 676.8 100.83 685.55 95.43 690.94C90.03 696.33 81.29 696.33 75.89 690.94Z" fill="#F7F7F7"/>
<path fill-rule="evenodd" clip-rule="evenodd" d="M578.33 948.35C578.33 955.98 572.14 962.16 564.51 962.16C556.88 962.16 550.69 955.98 550.69 948.35C550.69 940.72 556.88 934.54 564.51 934.54C572.14 934.54 578.33 940.72 578.33 948.35Z" fill="#F7F7F7"/>
<path fill-rule="evenodd" clip-rule="evenodd" d="M622.75 987.85C610.02 987.85 599.69 998.17 599.69 1010.9C599.69 1023.63 610.01 1033.95 622.75 1033.95C635.49 1033.95 645.81 1023.63 645.81 1010.9C645.81 998.17 635.49 987.85 622.75 987.85ZM572.02 1010.9C572.02 982.89 594.73 960.19 622.75 960.19C650.77 960.19 673.48 982.89 673.48 1010.9C673.48 1038.91 650.77 1061.61 622.75 1061.61C594.73 1061.61 572.02 1038.91 572.02 1010.9Z" fill="#F7F7F7"/>
<path d="M503.75 968.48C503.75 984.21 516.55 996.96 532.34 996.96H585.82C593.46 996.96 599.65 1003.13 599.65 1010.74C599.65 1018.35 593.46 1024.52 585.82 1024.52H532.34C501.28 1024.52 476.09 999.43 476.09 968.48H503.75Z" fill="#F7F7F7"/>
<path fill-rule="evenodd" clip-rule="evenodd" d="M599.65 1010.71C599.65 1018.34 593.46 1024.52 585.83 1024.52C578.2 1024.52 572.01 1018.34 572.01 1010.71C572.01 1003.08 578.2 996.9 585.83 996.9C593.46 996.9 599.65 1003.08 599.65 1010.71Z" fill="#F7F7F7"/>
<path fill-rule="evenodd" clip-rule="evenodd" d="M636.37 1011.1C636.37 1018.73 630.18 1024.91 622.55 1024.91C614.92 1024.91 608.73 1018.73 608.73 1011.1C608.73 1003.47 614.92 997.29 622.55 997.29C630.18 997.29 636.37 1003.47 636.37 1011.1Z" fill="#F7F7F7"/>
<path fill-rule="evenodd" clip-rule="evenodd" d="M360.39 1008.31C360.22 995.56 349.77 985.36 337.03 985.53C324.29 985.7 314.11 996.16 314.27 1008.91C314.37 1016.56 308.26 1022.84 300.62 1022.94C292.98 1023.04 286.71 1016.92 286.61 1009.27C286.25 981.22 308.66 958.19 336.68 957.83C364.69 957.47 387.7 979.91 388.06 1007.95C388.16 1015.6 382.05 1021.88 374.41 1021.98C366.77 1022.08 360.5 1015.96 360.4 1008.31H360.39Z" fill="#F7F7F7"/>
<path fill-rule="evenodd" clip-rule="evenodd" d="M459.53 941.02C459.53 953.76 469.85 964.08 482.58 964.08C495.31 964.08 505.63 953.75 505.63 941.02C505.63 890.58 546.49 849.69 596.89 849.69C604.53 849.69 610.72 855.89 610.72 863.53C610.72 871.17 604.53 877.37 596.89 877.37C561.76 877.37 533.29 905.87 533.29 941.03C533.29 969.05 510.59 991.77 482.59 991.77C454.59 991.77 431.89 969.05 431.89 941.03C431.89 933.39 438.08 927.19 445.72 927.19C453.36 927.19 459.55 933.39 459.55 941.03L459.53 941.02Z" fill="#F7F7F7"/>
<path fill-rule="evenodd" clip-rule="evenodd" d="M693.64 736.46C680.95 736.46 670.66 746.78 670.66 759.51C670.66 772.24 680.95 782.56 693.64 782.56C701.26 782.56 707.43 788.75 707.43 796.39C707.43 804.03 701.26 810.22 693.64 810.22C665.72 810.22 643.08 787.52 643.08 759.51C643.08 731.5 665.72 708.8 693.64 708.8C701.25 708.8 707.43 714.99 707.43 722.63C707.43 730.27 701.26 736.46 693.64 736.46Z" fill="#F7F7F7"/>
<path d="M447.67 760.5C482.77 760.5 511.23 732.05 511.23 696.96C511.23 689.33 517.42 683.15 525.05 683.15C532.68 683.15 538.87 689.33 538.87 696.96C538.87 747.31 498.04 788.12 447.68 788.12C440.05 788.12 433.86 781.94 433.86 774.31C433.86 766.68 440.05 760.5 447.68 760.5H447.67Z" fill="#F7F7F7"/>
<path fill-rule="evenodd" clip-rule="evenodd" d="M34.4 479.14C34.4 530.1 75.72 571.41 126.69 571.41C134.34 571.41 140.53 577.61 140.53 585.25C140.53 592.89 134.33 599.09 126.69 599.09C60.43 599.09 6.71002 545.39 6.71002 479.14C6.71002 471.5 12.91 465.3 20.55 465.3C28.19 465.3 34.39 471.5 34.39 479.14H34.4Z" fill="#F7F7F7"/>
<path fill-rule="evenodd" clip-rule="evenodd" d="M119.6 347.32C72.75 347.32 34.77 385.29 34.77 432.13C34.77 439.77 28.58 445.96 20.94 445.96C13.3 445.96 7.10999 439.77 7.10999 432.13C7.10999 370.02 57.48 319.67 119.6 319.67C127.24 319.67 133.43 325.86 133.43 333.5C133.43 341.14 127.24 347.33 119.6 347.33V347.32Z" fill="#F7F7F7"/>
<path fill-rule="evenodd" clip-rule="evenodd" d="M382.14 778.65C345.51 778.65 315.82 808.33 315.82 844.95C315.82 852.58 309.63 858.76 302 858.76C294.37 858.76 288.18 852.58 288.18 844.95C288.18 793.08 330.24 751.02 382.13 751.02C389.76 751.02 395.95 757.2 395.95 764.83C395.95 772.46 389.76 778.64 382.13 778.64L382.14 778.65Z" fill="#F7F7F7"/>
<path fill-rule="evenodd" clip-rule="evenodd" d="M374.42 1022.15C366.79 1022.25 360.52 1016.15 360.42 1008.52C360.32 1000.89 366.43 994.63 374.06 994.53C381.69 994.43 387.96 1000.53 388.06 1008.16C388.16 1015.79 382.05 1022.05 374.42 1022.15Z" fill="#F7F7F7"/>
<path fill-rule="evenodd" clip-rule="evenodd" d="M610.71 863.5C610.71 871.13 604.52 877.31 596.89 877.31C589.26 877.31 583.07 871.13 583.07 863.5C583.07 855.87 589.26 849.69 596.89 849.69C604.52 849.69 610.71 855.87 610.71 863.5Z" fill="#F7F7F7"/>
<path fill-rule="evenodd" clip-rule="evenodd" d="M707.42 796.41C707.42 804.04 701.23 810.22 693.6 810.22C685.97 810.22 679.78 804.04 679.78 796.41C679.78 788.78 685.97 782.6 693.6 782.6C701.23 782.6 707.42 788.78 707.42 796.41Z" fill="#F7F7F7"/>
<path fill-rule="evenodd" clip-rule="evenodd" d="M744.14 992.55C744.14 1000.18 737.95 1006.36 730.32 1006.36C722.69 1006.36 716.5 1000.18 716.5 992.55C716.5 984.92 722.69 978.74 730.32 978.74C737.95 978.74 744.14 984.92 744.14 992.55Z" fill="#F7F7F7"/>
<path fill-rule="evenodd" clip-rule="evenodd" d="M647.42 863.5C647.42 871.13 641.23 877.31 633.6 877.31C625.97 877.31 619.78 871.13 619.78 863.5C619.78 855.87 625.97 849.69 633.6 849.69C641.23 849.69 647.42 855.87 647.42 863.5Z" fill="#F7F7F7"/>
<path fill-rule="evenodd" clip-rule="evenodd" d="M684.53 863.5C684.53 871.13 678.34 877.31 670.71 877.31C663.08 877.31 656.89 871.13 656.89 863.5C656.89 855.87 663.08 849.69 670.71 849.69C678.34 849.69 684.53 855.87 684.53 863.5Z" fill="#F7F7F7"/>
<path fill-rule="evenodd" clip-rule="evenodd" d="M712.16 759.31C712.16 766.94 705.97 773.12 698.34 773.12C690.71 773.12 684.52 766.94 684.52 759.31C684.52 751.68 690.71 745.5 698.34 745.5C705.97 745.5 712.16 751.68 712.16 759.31Z" fill="#F7F7F7"/>
<path fill-rule="evenodd" clip-rule="evenodd" d="M748.87 759.31C748.87 766.94 742.68 773.12 735.05 773.12C727.42 773.12 721.23 766.94 721.23 759.31C721.23 751.68 727.42 745.5 735.05 745.5C742.68 745.5 748.87 751.68 748.87 759.31Z" fill="#F7F7F7"/>
<path fill-rule="evenodd" clip-rule="evenodd" d="M461.48 774.31C461.48 781.94 455.29 788.12 447.66 788.12C440.03 788.12 433.84 781.94 433.84 774.31C433.84 766.68 440.03 760.5 447.66 760.5C455.29 760.5 461.48 766.68 461.48 774.31Z" fill="#F7F7F7"/>
<path fill-rule="evenodd" clip-rule="evenodd" d="M459.51 940.06C459.51 947.69 453.32 953.87 445.69 953.87C438.06 953.87 431.87 947.69 431.87 940.06C431.87 932.43 438.06 926.25 445.69 926.25C453.32 926.25 459.51 932.43 459.51 940.06Z" fill="#F7F7F7"/>
<path fill-rule="evenodd" clip-rule="evenodd" d="M443.13 674.5C430.4 674.5 420.07 684.82 420.07 697.55C420.07 710.28 430.39 720.6 443.13 720.6C455.87 720.6 466.19 710.28 466.19 697.55C466.19 684.82 455.87 674.5 443.13 674.5ZM392.4 697.55C392.4 669.54 415.11 646.84 443.13 646.84C471.15 646.84 493.86 669.55 493.86 697.55C493.86 725.55 471.15 748.26 443.13 748.26C415.11 748.26 392.4 725.56 392.4 697.55Z" fill="#F7F7F7"/>
<path fill-rule="evenodd" clip-rule="evenodd" d="M166.59 635.79C174.22 635.79 180.41 629.6 180.41 621.96C180.41 609.23 190.72 598.91 203.44 598.91H295.55C308.27 598.91 318.58 609.23 318.58 621.96C318.58 629.6 324.77 635.79 332.4 635.79C340.03 635.79 346.22 629.6 346.22 621.96C346.22 607.43 340.11 594.32 330.33 585.07C340.11 575.82 346.22 562.72 346.22 548.18V505.76C346.22 477.75 323.54 455.04 295.56 455.04C287.93 455.04 281.74 461.23 281.74 468.87C281.74 476.51 287.93 482.7 295.56 482.7C308.28 482.7 318.59 493.02 318.59 505.76V548.18C318.59 560.91 308.28 571.24 295.56 571.24H203.45C175.47 571.24 152.79 593.95 152.79 621.96C152.79 629.6 158.98 635.79 166.61 635.79H166.59Z" fill="#F7F7F7"/>
<path d="M332.48 608.16C324.85 608.16 318.66 614.35 318.66 621.99C318.66 634.72 308.34 645.04 295.62 645.04H203.46C190.74 645.04 180.42 634.72 180.42 621.99C180.42 614.35 174.23 608.16 166.6 608.16C158.97 608.16 152.78 614.35 152.78 621.99C152.78 650 175.47 672.7 203.47 672.7H295.63C296.76 672.7 297.89 672.66 299 672.59C306.04 695.61 327.45 712.35 352.76 712.35H406.21C413.84 712.35 420.03 706.16 420.03 698.52C420.03 690.88 413.84 684.69 406.21 684.69H352.76C339.45 684.69 328.26 675.58 325.09 663.26C337.93 654.06 346.31 639.01 346.31 622C346.31 614.36 340.12 608.17 332.49 608.17L332.48 608.16Z" fill="#F7F7F7"/>
<path fill-rule="evenodd" clip-rule="evenodd" d="M346.25 622.17C346.25 634.9 356.57 645.22 369.31 645.22C382.05 645.22 392.37 634.9 392.37 622.17C392.37 609.44 382.05 599.12 369.31 599.12C361.67 599.12 355.48 592.93 355.48 585.29C355.48 577.65 361.67 571.46 369.31 571.46C397.33 571.46 420.04 594.17 420.04 622.17C420.04 650.17 397.33 672.88 369.31 672.88C341.29 672.88 318.58 650.18 318.58 622.17C318.58 614.53 324.77 608.34 332.41 608.34C340.05 608.34 346.24 614.53 346.24 622.17H346.25Z" fill="#F7F7F7"/>
<path d="M439.18 289.24C426.45 289.24 416.12 278.92 416.12 266.19C416.12 253.46 426.44 243.14 439.18 243.14C451.92 243.14 462.24 253.46 462.24 266.19C462.24 273.83 468.43 280.02 476.07 280.02C483.71 280.02 489.9 273.83 489.9 266.19C489.9 238.18 467.19 215.48 439.17 215.48C411.15 215.48 388.44 238.18 388.44 266.19C388.44 294.2 411.15 316.9 439.17 316.9C446.81 316.9 453 310.71 453 303.07C453 295.43 446.81 289.24 439.17 289.24H439.18Z" fill="#F7F7F7"/>
<path fill-rule="evenodd" clip-rule="evenodd" d="M346.21 621.97C346.21 629.6 340.02 635.78 332.39 635.78C324.76 635.78 318.57 629.6 318.57 621.97C318.57 614.34 324.76 608.16 332.39 608.16C340.02 608.16 346.21 614.34 346.21 621.97Z" fill="#F7F7F7"/>
<path fill-rule="evenodd" clip-rule="evenodd" d="M180.41 621.97C180.41 629.6 174.22 635.78 166.59 635.78C158.96 635.78 152.77 629.6 152.77 621.97C152.77 614.34 158.96 608.16 166.59 608.16C174.22 608.16 180.41 614.34 180.41 621.97Z" fill="#F7F7F7"/>
<path fill-rule="evenodd" clip-rule="evenodd" d="M420.03 698.54C420.03 706.17 413.84 712.35 406.21 712.35C398.58 712.35 392.39 706.17 392.39 698.54C392.39 690.91 398.58 684.73 406.21 684.73C413.84 684.73 420.03 690.91 420.03 698.54Z" fill="#F7F7F7"/>
<path fill-rule="evenodd" clip-rule="evenodd" d="M456.75 697.75C456.75 705.38 450.56 711.56 442.93 711.56C435.3 711.56 429.11 705.38 429.11 697.75C429.11 690.12 435.3 683.94 442.93 683.94C450.56 683.94 456.75 690.12 456.75 697.75Z" fill="#F7F7F7"/>
<path fill-rule="evenodd" clip-rule="evenodd" d="M320.39 117.72C348.39 117.72 371.09 140.43 371.09 168.44V260.66C371.09 288.67 348.39 311.38 320.39 311.38C292.39 311.38 269.69 288.67 269.69 260.66V231.15H240.66C212.66 231.15 189.96 208.44 189.96 180.43V88.21C189.96 75.47 179.64 65.16 166.92 65.16H124.52C111.79 65.16 101.48 75.48 101.48 88.21C101.48 95.85 95.29 102.04 87.65 102.04C80.01 102.04 73.82 95.84 73.82 88.21C73.82 60.19 96.52 37.49 124.52 37.49H166.92C181.45 37.49 194.55 43.6 203.79 53.4C213.03 43.61 226.13 37.49 240.66 37.49H282.14C289.78 37.49 295.97 43.69 295.97 51.32C295.97 58.95 289.78 65.15 282.14 65.15H240.66C227.93 65.15 217.62 75.47 217.62 88.2V180.42C217.62 193.15 227.94 203.47 240.66 203.47H269.69V168.43C269.69 140.42 292.39 117.71 320.39 117.71V117.72ZM297.35 260.66C297.35 273.39 307.67 283.71 320.39 283.71C333.11 283.71 343.43 273.39 343.43 260.66V168.44C343.43 155.71 333.11 145.39 320.39 145.39C307.67 145.39 297.35 155.71 297.35 168.44V260.66Z" fill="#F7F7F7"/>
<path fill-rule="evenodd" clip-rule="evenodd" d="M187.61 324.74C194.01 309.01 186.5 291.19 171.02 284.87C155.54 278.55 137.75 286.03 131.35 301.76C127.82 310.45 128.52 319.78 132.5 327.49C136 334.28 133.35 342.63 126.58 346.14C119.81 349.65 111.48 346.99 107.97 340.21C100.42 325.59 99.08 307.81 105.78 291.32C117.89 261.55 151.73 247.11 181.44 259.25C211.15 271.39 225.28 305.42 213.18 335.19C210.3 342.27 202.24 345.66 195.18 342.78C188.12 339.9 184.73 331.82 187.6 324.75L187.61 324.74Z" fill="#F7F7F7"/>
<path fill-rule="evenodd" clip-rule="evenodd" d="M323.31 118C358.41 118 386.87 89.55 386.87 54.46C386.87 46.84 393.06 40.65 400.69 40.65C408.32 40.65 414.51 46.84 414.51 54.46C414.51 104.81 373.68 145.62 323.32 145.62C315.69 145.62 309.5 139.43 309.5 131.81C309.5 124.19 315.69 118 323.32 118H323.31Z" fill="#F7F7F7"/>
<path fill-rule="evenodd" clip-rule="evenodd" d="M336.34 131.81C336.34 139.43 330.15 145.62 322.52 145.62C314.89 145.62 308.7 139.43 308.7 131.81C308.7 124.19 314.89 118 322.52 118C330.15 118 336.34 124.19 336.34 131.81Z" fill="#F7F7F7"/>
<path fill-rule="evenodd" clip-rule="evenodd" d="M267.68 635.82C254.99 635.82 244.7 646.14 244.7 658.87C244.7 671.6 254.99 681.92 267.68 681.92C275.29 681.92 281.47 688.11 281.47 695.75C281.47 703.39 275.3 709.58 267.68 709.58C239.76 709.58 217.12 686.88 217.12 658.87C217.12 630.86 239.76 608.16 267.68 608.16C275.3 608.16 281.47 614.35 281.47 621.99C281.47 629.63 275.3 635.82 267.68 635.82Z" fill="#F7F7F7"/>
<path fill-rule="evenodd" clip-rule="evenodd" d="M296.5 408.9C283.81 408.9 273.52 419.22 273.52 431.95C273.52 444.68 283.81 455 296.5 455C304.11 455 310.29 461.19 310.29 468.83C310.29 476.47 304.12 482.66 296.5 482.66C268.58 482.66 245.94 459.96 245.94 431.95C245.94 403.94 268.58 381.24 296.5 381.24C304.12 381.24 310.29 387.43 310.29 395.07C310.29 402.71 304.12 408.9 296.5 408.9Z" fill="#F7F7F7"/>
<path d="M774.93 756.55C774.93 721.46 746.47 693.01 711.37 693.01C703.74 693.01 697.55 686.83 697.55 679.2C697.55 671.57 703.74 665.39 711.37 665.39C761.73 665.39 802.56 706.21 802.56 756.55C802.56 764.18 796.37 770.36 788.74 770.36C781.11 770.36 774.92 764.18 774.92 756.55H774.93Z" fill="#F7F7F7"/>
<path fill-rule="evenodd" clip-rule="evenodd" d="M448.42 616.43C448.42 575.7 415.39 542.68 374.65 542.68C367.01 542.68 360.82 536.49 360.82 528.85C360.82 521.21 367.01 515.02 374.65 515.02C430.67 515.02 476.09 560.42 476.09 616.43C476.09 624.07 469.9 630.26 462.26 630.26C454.62 630.26 448.43 624.07 448.43 616.43H448.42Z" fill="#F7F7F7"/>
<path fill-rule="evenodd" clip-rule="evenodd" d="M281.47 621.97C281.47 629.6 275.28 635.78 267.65 635.78C260.02 635.78 253.83 629.6 253.83 621.97C253.83 614.34 260.02 608.16 267.65 608.16C275.28 608.16 281.47 614.34 281.47 621.97Z" fill="#F7F7F7"/>
<path fill-rule="evenodd" clip-rule="evenodd" d="M194.23 525.28C194.23 532.91 188.04 539.09 180.41 539.09C172.78 539.09 166.59 532.91 166.59 525.28C166.59 517.65 172.78 511.47 180.41 511.47C188.04 511.47 194.23 517.65 194.23 525.28Z" fill="#F7F7F7"/>
<path fill-rule="evenodd" clip-rule="evenodd" d="M476.88 315.33C484.51 315.33 490.7 309.15 490.7 301.52C490.7 293.89 484.51 287.71 476.88 287.71C469.25 287.71 463.06 293.89 463.06 301.52C463.06 309.15 469.25 315.33 476.88 315.33Z" fill="#F7F7F7"/>
<path fill-rule="evenodd" clip-rule="evenodd" d="M476.88 352.03C484.51 352.03 490.7 345.85 490.7 338.22C490.7 330.59 484.51 324.41 476.88 324.41C469.25 324.41 463.06 330.59 463.06 338.22C463.06 345.85 469.25 352.03 476.88 352.03Z" fill="#F7F7F7"/>
<path fill-rule="evenodd" clip-rule="evenodd" d="M802.56 81.1C802.56 109.11 779.88 131.81 751.9 131.81H659.79C631.81 131.81 609.13 109.11 609.13 81.1C609.13 53.09 631.81 30.39 659.79 30.39H751.9C779.88 30.39 802.56 53.09 802.56 81.1ZM751.9 58.05H659.79C647.07 58.05 636.76 68.37 636.76 81.1C636.76 93.83 647.07 104.15 659.79 104.15H751.9C764.62 104.15 774.93 93.83 774.93 81.1C774.93 68.37 764.62 58.05 751.9 58.05Z" fill="#F7F7F7"/>
<path d="M622.96 67.01C595.02 67.01 572.37 44.27 572.37 16.22C572.37 8.56999 566.19 2.37 558.57 2.37C550.95 2.37 544.77 8.57999 544.77 16.22C544.77 59.57 579.77 94.72 622.95 94.72C630.57 94.72 636.75 88.51 636.75 80.87C636.75 73.23 630.57 67.02 622.95 67.02L622.96 67.01Z" fill="#F7F7F7"/>
<path fill-rule="evenodd" clip-rule="evenodd" d="M622.94 67.09C615.31 67.09 609.12 73.28 609.12 80.9C609.12 88.52 615.31 94.71 622.94 94.71C630.57 94.71 636.76 88.52 636.76 80.9C636.76 73.28 630.57 67.09 622.94 67.09Z" fill="#F7F7F7"/>
<path fill-rule="evenodd" clip-rule="evenodd" d="M728.78 204.63C728.78 217.36 739.1 227.68 751.84 227.68C764.58 227.68 774.9 217.36 774.9 204.63C774.9 191.9 764.58 181.58 751.84 181.58C739.1 181.58 728.78 191.9 728.78 204.63ZM751.84 255.34C723.82 255.34 701.11 232.64 701.11 204.63C701.11 176.62 723.82 153.92 751.84 153.92C779.86 153.92 802.57 176.62 802.57 204.63C802.57 232.64 779.86 255.34 751.84 255.34Z" fill="#F7F7F7"/>
<path d="M662.42 481.07C662.42 473.44 668.62 467.25 676.27 467.25C689.02 467.25 699.36 456.94 699.36 444.22V352.09C699.36 339.37 689.02 329.06 676.27 329.06C668.62 329.06 662.42 322.87 662.42 315.24C662.42 307.61 668.62 301.42 676.27 301.42C693.27 301.42 708.32 309.75 717.54 322.55C729.46 319.3 738.14 308.36 738.14 294.97V241.53C738.14 233.9 744.34 227.71 751.99 227.71C759.64 227.71 765.84 233.9 765.84 241.53V294.97C765.84 319.97 749.78 341.44 726.94 348.62C727.02 349.77 727.06 350.93 727.06 352.1V444.23C727.06 472.22 704.32 494.9 676.27 494.9C668.62 494.9 662.42 488.71 662.42 481.08V481.07Z" fill="#F7F7F7"/>
<path fill-rule="evenodd" clip-rule="evenodd" d="M497.41 594.54C497.41 566.53 520.09 543.83 548.07 543.83H640.18C668.16 543.83 690.84 566.53 690.84 594.54C690.84 622.55 668.16 645.25 640.18 645.25H548.07C520.09 645.25 497.41 622.55 497.41 594.54ZM548.07 571.49C535.35 571.49 525.04 581.81 525.04 594.54C525.04 607.27 535.35 617.59 548.07 617.59H640.18C652.9 617.59 663.21 607.27 663.21 594.54C663.21 581.81 652.9 571.49 640.18 571.49H548.07Z" fill="#F7F7F7"/>
<path fill-rule="evenodd" clip-rule="evenodd" d="M690.05 481.08C690.05 473.45 683.85 467.27 676.21 467.27C663.47 467.27 653.15 456.96 653.15 444.25V352.16C653.15 339.45 663.48 329.14 676.21 329.14C683.85 329.14 690.05 322.96 690.05 315.33C690.05 307.7 683.85 301.52 676.21 301.52C661.67 301.52 648.56 307.62 639.31 317.41C630.06 307.63 616.95 301.52 602.41 301.52H559.98C531.96 301.52 509.24 324.2 509.24 352.17C509.24 359.8 515.44 365.98 523.08 365.98C530.72 365.98 536.92 359.8 536.92 352.17C536.92 339.46 547.25 329.15 559.98 329.15H602.41C615.15 329.15 625.47 339.46 625.47 352.17V444.25C625.47 472.22 648.18 494.9 676.21 494.9C683.85 494.9 690.05 488.72 690.05 481.09V481.08Z" fill="#F7F7F7"/>
<path fill-rule="evenodd" clip-rule="evenodd" d="M676.04 301.48C688.77 301.48 699.1 291.16 699.1 278.43C699.1 265.7 688.78 255.38 676.04 255.38C663.3 255.38 652.98 265.7 652.98 278.43C652.98 286.07 646.79 292.26 639.15 292.26C631.51 292.26 625.32 286.07 625.32 278.43C625.32 250.42 648.03 227.72 676.05 227.72C704.07 227.72 726.78 250.42 726.78 278.43C726.78 306.44 704.07 329.14 676.05 329.14C668.41 329.14 662.22 322.95 662.22 315.31C662.22 307.67 668.41 301.48 676.05 301.48H676.04Z" fill="#F7F7F7"/>
<path fill-rule="evenodd" clip-rule="evenodd" d="M562.74 419.16C550.01 419.16 539.68 429.48 539.68 442.21C539.68 454.94 550 465.26 562.74 465.26C575.48 465.26 585.8 454.94 585.8 442.21C585.8 434.57 591.99 428.38 599.63 428.38C607.27 428.38 613.46 434.57 613.46 442.21C613.46 470.22 590.75 492.92 562.73 492.92C534.71 492.92 512 470.22 512 442.21C512 414.2 534.71 391.5 562.73 391.5C570.37 391.5 576.56 397.69 576.56 405.33C576.56 412.97 570.37 419.16 562.73 419.16H562.74Z" fill="#F7F7F7"/>
<path fill-rule="evenodd" clip-rule="evenodd" d="M637.51 608.16C620.5 608.16 606.83 621.83 606.83 638.55C606.83 655.27 620.5 668.94 637.51 668.94C646.91 668.94 655.29 664.78 660.93 658.18C665.9 652.38 674.64 651.69 680.46 656.64C686.28 661.59 686.97 670.31 682 676.11C671.3 688.61 655.33 696.56 637.51 696.56C605.33 696.56 579.13 670.65 579.13 638.55C579.13 606.45 605.33 580.54 637.51 580.54C645.16 580.54 651.36 586.72 651.36 594.35C651.36 601.98 645.16 608.16 637.51 608.16Z" fill="#F7F7F7"/>
<path fill-rule="evenodd" clip-rule="evenodd" d="M675.84 301.51C683.47 301.51 689.66 307.69 689.66 315.32C689.66 322.95 683.47 329.13 675.84 329.13C668.21 329.13 662.02 322.95 662.02 315.32C662.02 307.69 668.21 301.51 675.84 301.51Z" fill="#F7F7F7"/>
<path fill-rule="evenodd" clip-rule="evenodd" d="M676.24 467.27C683.87 467.27 690.06 473.45 690.06 481.08C690.06 488.71 683.87 494.89 676.24 494.89C668.61 494.89 662.42 488.71 662.42 481.08C662.42 473.45 668.61 467.27 676.24 467.27Z" fill="#F7F7F7"/>
<path fill-rule="evenodd" clip-rule="evenodd" d="M752.03 227.71C759.66 227.71 765.85 233.89 765.85 241.52C765.85 249.15 759.66 255.33 752.03 255.33C744.4 255.33 738.21 249.15 738.21 241.52C738.21 233.89 744.4 227.71 752.03 227.71Z" fill="#F7F7F7"/>
<path fill-rule="evenodd" clip-rule="evenodd" d="M751.64 190.62C759.27 190.62 765.46 196.8 765.46 204.43C765.46 212.06 759.27 218.24 751.64 218.24C744.01 218.24 737.82 212.06 737.82 204.43C737.82 196.8 744.01 190.62 751.64 190.62Z" fill="#F7F7F7"/>
<path fill-rule="evenodd" clip-rule="evenodd" d="M690.09 379.63C690.09 392.32 700.41 402.6 713.15 402.6C725.89 402.6 736.21 392.31 736.21 379.63C736.21 372.02 742.4 365.85 750.04 365.85C757.68 365.85 763.87 372.02 763.87 379.63C763.87 407.54 741.16 430.17 713.14 430.17C685.12 430.17 662.41 407.54 662.41 379.63C662.41 372.02 668.6 365.85 676.24 365.85C683.88 365.85 690.07 372.02 690.07 379.63H690.09Z" fill="#F7F7F7"/>
<path fill-rule="evenodd" clip-rule="evenodd" d="M442.93 351.27C442.93 368.84 457.52 383.56 476.09 383.56C494.66 383.56 509.25 368.85 509.25 351.27C509.25 343.63 515.44 337.43 523.07 337.43C530.7 337.43 536.89 343.63 536.89 351.27C536.89 384.64 509.41 411.23 476.1 411.23C442.78 411.23 415.31 384.64 415.31 351.27C415.31 343.63 421.5 337.43 429.13 337.43C436.76 337.43 442.95 343.63 442.95 351.27H442.93Z" fill="#F7F7F7"/>
<path fill-rule="evenodd" clip-rule="evenodd" d="M613.52 442.42C613.52 477.54 642.03 506.01 677.2 506.01C705.23 506.01 727.96 528.7 727.96 556.69C727.96 584.68 705.24 607.37 677.2 607.37C669.56 607.37 663.36 601.18 663.36 593.55C663.36 585.92 669.56 579.73 677.2 579.73C689.94 579.73 700.27 569.42 700.27 556.69C700.27 543.96 689.94 533.65 677.2 533.65C626.74 533.65 585.84 492.8 585.84 442.42C585.84 434.79 592.04 428.6 599.68 428.6C607.32 428.6 613.52 434.79 613.52 442.42Z" fill="#F7F7F7"/>
<path d="M497.41 591.58C497.41 533.6 450.4 486.6 392.4 486.6C384.77 486.6 378.58 480.42 378.58 472.79C378.58 465.16 384.77 458.98 392.4 458.98C465.66 458.98 525.04 518.35 525.04 591.58C525.04 599.21 518.85 605.39 511.22 605.39C503.59 605.39 497.4 599.21 497.4 591.58H497.41Z" fill="#F7F7F7"/>
<path d="M33.61 184.33C33.61 233.76 73.69 273.83 123.14 273.83C130.79 273.83 136.98 280.03 136.98 287.67C136.98 295.31 130.78 301.51 123.14 301.51C58.4 301.51 5.91998 249.04 5.91998 184.33C5.91998 176.69 12.12 170.49 19.76 170.49C27.4 170.49 33.6 176.69 33.6 184.33H33.61Z" fill="#F7F7F7"/>
<path fill-rule="evenodd" clip-rule="evenodd" d="M665.97 208.38C630.87 208.38 602.41 236.83 602.41 271.92C602.41 279.55 596.22 285.73 588.59 285.73C580.96 285.73 574.77 279.55 574.77 271.92C574.77 221.57 615.6 180.76 665.96 180.76C673.59 180.76 679.78 186.94 679.78 194.57C679.78 202.2 673.59 208.38 665.96 208.38H665.97Z" fill="#F7F7F7"/>
<path fill-rule="evenodd" clip-rule="evenodd" d="M711.37 1033.2C746.47 1033.2 774.93 1004.75 774.93 969.66C774.93 962.03 781.12 955.85 788.75 955.85C796.38 955.85 802.57 962.03 802.57 969.66C802.57 1020.01 761.74 1060.82 711.38 1060.82C703.75 1060.82 697.56 1054.64 697.56 1047.01C697.56 1039.38 703.75 1033.2 711.38 1033.2H711.37Z" fill="#F7F7F7"/>
<path fill-rule="evenodd" clip-rule="evenodd" d="M571.19 668.91C571.19 692.27 590.13 711.2 613.5 711.2C621.12 711.2 627.3 717.37 627.3 724.99C627.3 732.61 621.12 738.78 613.5 738.78C574.9 738.78 543.6 707.5 543.6 668.9C543.6 661.28 549.78 655.11 557.4 655.11C565.02 655.11 571.2 661.28 571.2 668.9L571.19 668.91Z" fill="#F7F7F7"/>
<path fill-rule="evenodd" clip-rule="evenodd" d="M676.24 365.84C683.87 365.84 690.06 372.02 690.06 379.65C690.06 387.28 683.87 393.46 676.24 393.46C668.61 393.46 662.42 387.28 662.42 379.65C662.42 372.02 668.61 365.84 676.24 365.84Z" fill="#F7F7F7"/>
<path fill-rule="evenodd" clip-rule="evenodd" d="M599.65 428.2C607.28 428.2 613.47 434.38 613.47 442.01C613.47 449.64 607.28 455.82 599.65 455.82C592.02 455.82 585.83 449.64 585.83 442.01C585.83 434.38 592.02 428.2 599.65 428.2Z" fill="#F7F7F7"/>
<path fill-rule="evenodd" clip-rule="evenodd" d="M486.35 428.59C493.98 428.59 500.17 434.77 500.17 442.4C500.17 450.03 493.98 456.21 486.35 456.21C478.72 456.21 472.53 450.03 472.53 442.4C472.53 434.77 478.72 428.59 486.35 428.59Z" fill="#F7F7F7"/>
<path fill-rule="evenodd" clip-rule="evenodd" d="M449.25 428.59C456.88 428.59 463.07 434.77 463.07 442.4C463.07 450.03 456.88 456.21 449.25 456.21C441.62 456.21 435.43 450.03 435.43 442.4C435.43 434.77 441.62 428.59 449.25 428.59Z" fill="#F7F7F7"/>
<path fill-rule="evenodd" clip-rule="evenodd" d="M296.87 455.03C304.5 455.03 310.69 461.21 310.69 468.84C310.69 476.47 304.5 482.65 296.87 482.65C289.24 482.65 283.05 476.47 283.05 468.84C283.05 461.21 289.24 455.03 296.87 455.03Z" fill="#F7F7F7"/>
<path fill-rule="evenodd" clip-rule="evenodd" d="M523.07 337.43C530.7 337.43 536.89 343.61 536.89 351.24C536.89 358.87 530.7 365.05 523.07 365.05C515.44 365.05 509.25 358.87 509.25 351.24C509.25 343.61 515.44 337.43 523.07 337.43Z" fill="#F7F7F7"/>
<path fill-rule="evenodd" clip-rule="evenodd" d="M82.47 771.35C82.47 784.08 72.15 794.4 59.41 794.4C46.67 794.4 36.35 784.08 36.35 771.35C36.35 758.62 46.67 748.3 59.41 748.3C72.14 748.3 82.47 758.62 82.47 771.35ZM59.41 822.06C87.43 822.06 110.14 799.36 110.14 771.35C110.14 743.34 87.43 720.64 59.41 720.64C31.39 720.64 8.67999 743.34 8.67999 771.35C8.67999 799.36 31.39 822.06 59.41 822.06Z" fill="#F7F7F7"/>
<path fill-rule="evenodd" clip-rule="evenodd" d="M121.19 1047.8C121.19 1040.17 127.38 1033.99 135.02 1033.99C147.75 1033.99 158.07 1023.68 158.07 1010.97V918.88C158.07 906.17 147.75 895.86 135.02 895.86C127.38 895.86 121.19 889.68 121.19 882.05C121.19 874.42 127.38 868.24 135.02 868.24C163.03 868.24 185.74 890.92 185.74 918.89V1009.12C185.74 1009.12 185.74 1009.13 185.74 1009.14C185.74 1021.85 196.06 1032.16 208.79 1032.16H301.01C313.74 1032.16 324.06 1021.85 324.06 1009.14C324.06 1001.51 330.25 995.33 337.89 995.33C345.53 995.33 351.72 1001.51 351.72 1009.14C351.72 1037.11 329.01 1059.79 301 1059.79H208.78C194.7 1059.79 181.95 1054.06 172.76 1044.8C163.47 1055.13 150 1061.63 135 1061.63C127.36 1061.63 121.17 1055.45 121.17 1047.82L121.19 1047.8Z" fill="#F7F7F7"/>
<path d="M84.61 915.25C62.09 907.95 45.79 886.75 45.79 861.73V808.26C45.79 800.62 51.96 794.43 59.57 794.43C67.18 794.43 73.35 800.62 73.35 808.26V861.73C73.35 874.8 82.1 885.82 94.04 889.22C103.22 876.5 118.16 868.23 135.03 868.23C142.64 868.23 148.82 874.41 148.82 882.04C148.82 889.67 142.65 895.85 135.03 895.85C122.34 895.85 112.05 906.16 112.05 918.87V1010.96C112.05 1023.67 122.34 1033.98 135.03 1033.98C142.64 1033.98 148.82 1040.16 148.82 1047.79C148.82 1055.42 142.65 1061.6 135.03 1061.6C107.11 1061.6 84.47 1038.92 84.47 1010.95V918.86C84.47 917.64 84.51 916.43 84.6 915.23L84.61 915.25Z" fill="#F7F7F7"/>
<path fill-rule="evenodd" clip-rule="evenodd" d="M135.21 868.2C122.48 868.2 112.15 857.88 112.15 845.15C112.15 832.42 122.47 822.1 135.21 822.1C147.95 822.1 158.27 832.42 158.27 845.15C158.27 852.79 164.46 858.98 172.1 858.98C179.74 858.98 185.93 852.79 185.93 845.15C185.93 817.14 163.22 794.44 135.2 794.44C107.18 794.44 84.47 817.14 84.47 845.15C84.47 873.16 107.18 895.86 135.2 895.86C142.84 895.86 149.03 889.67 149.03 882.03C149.03 874.39 142.84 868.2 135.2 868.2H135.21Z" fill="#F7F7F7"/>
<path fill-rule="evenodd" clip-rule="evenodd" d="M135.41 868.24C127.78 868.24 121.59 874.42 121.59 882.05C121.59 889.68 127.78 895.86 135.41 895.86C143.04 895.86 149.23 889.68 149.23 882.05C149.23 874.42 143.04 868.24 135.41 868.24Z" fill="#F7F7F7"/>
<path fill-rule="evenodd" clip-rule="evenodd" d="M135.01 1033.99C127.38 1033.99 121.19 1040.17 121.19 1047.8C121.19 1055.43 127.38 1061.61 135.01 1061.61C142.64 1061.61 148.83 1055.43 148.83 1047.8C148.83 1040.17 142.64 1033.99 135.01 1033.99Z" fill="#F7F7F7"/>
<path fill-rule="evenodd" clip-rule="evenodd" d="M219.1 882.05C211.47 882.05 205.28 888.23 205.28 895.86C205.28 903.49 211.47 909.67 219.1 909.67C226.73 909.67 232.92 903.49 232.92 895.86C232.92 888.23 226.73 882.05 219.1 882.05Z" fill="#F7F7F7"/>
<path fill-rule="evenodd" clip-rule="evenodd" d="M255.81 882.05C248.18 882.05 241.99 888.23 241.99 895.86C241.99 903.49 248.18 909.67 255.81 909.67C263.44 909.67 269.63 903.49 269.63 895.86C269.63 888.23 263.44 882.05 255.81 882.05Z" fill="#F7F7F7"/>
<path fill-rule="evenodd" clip-rule="evenodd" d="M271.6 762.07C263.97 762.07 257.78 768.25 257.78 775.88C257.78 783.51 263.97 789.69 271.6 789.69C279.23 789.69 285.42 783.51 285.42 775.88C285.42 768.25 279.23 762.07 271.6 762.07Z" fill="#F7F7F7"/>
<path fill-rule="evenodd" clip-rule="evenodd" d="M269.63 724.19C262 724.19 255.81 730.37 255.81 738C255.81 745.63 262 751.81 269.63 751.81C277.26 751.81 283.45 745.63 283.45 738C283.45 730.37 277.26 724.19 269.63 724.19Z" fill="#F7F7F7"/>
<path fill-rule="evenodd" clip-rule="evenodd" d="M308.31 724.19C300.68 724.19 294.49 730.37 294.49 738C294.49 745.63 300.68 751.81 308.31 751.81C315.94 751.81 322.13 745.63 322.13 738C322.13 730.37 315.94 724.19 308.31 724.19Z" fill="#F7F7F7"/>
<path fill-rule="evenodd" clip-rule="evenodd" d="M789.54 912.44C781.91 912.44 775.72 918.62 775.72 926.25C775.72 933.88 781.91 940.06 789.54 940.06C797.17 940.06 803.36 933.88 803.36 926.25C803.36 918.62 797.17 912.44 789.54 912.44Z" fill="#F7F7F7"/>
<path fill-rule="evenodd" clip-rule="evenodd" d="M789.54 871C781.91 871 775.72 877.18 775.72 884.81C775.72 892.44 781.91 898.62 789.54 898.62C797.17 898.62 803.36 892.44 803.36 884.81C803.36 877.18 797.17 871 789.54 871Z" fill="#F7F7F7"/>
<path fill-rule="evenodd" clip-rule="evenodd" d="M788.75 746.29C781.12 746.29 774.93 752.47 774.93 760.1C774.93 767.73 781.12 773.91 788.75 773.91C796.38 773.91 802.57 767.73 802.57 760.1C802.57 752.47 796.38 746.29 788.75 746.29Z" fill="#F7F7F7"/>
<path fill-rule="evenodd" clip-rule="evenodd" d="M59.61 794.44C51.98 794.44 45.79 800.62 45.79 808.25C45.79 815.88 51.98 822.06 59.61 822.06C67.24 822.06 73.43 815.88 73.43 808.25C73.43 800.62 67.24 794.44 59.61 794.44Z" fill="#F7F7F7"/>
<path fill-rule="evenodd" clip-rule="evenodd" d="M59.61 757.34C51.98 757.34 45.79 763.52 45.79 771.15C45.79 778.78 51.98 784.96 59.61 784.96C67.24 784.96 73.43 778.78 73.43 771.15C73.43 763.52 67.24 757.34 59.61 757.34Z" fill="#F7F7F7"/>
<path fill-rule="evenodd" clip-rule="evenodd" d="M121.16 928.19C121.16 940.88 110.84 951.16 98.1 951.16C85.36 951.16 75.04 940.87 75.04 928.19C75.04 920.58 68.85 914.41 61.21 914.41C53.57 914.41 47.38 920.58 47.38 928.19C47.38 956.1 70.09 978.73 98.11 978.73C126.13 978.73 148.84 956.1 148.84 928.19C148.84 920.58 142.65 914.41 135.01 914.41C127.37 914.41 121.18 920.58 121.18 928.19H121.16Z" fill="#F7F7F7"/>
<path fill-rule="evenodd" clip-rule="evenodd" d="M260.55 996.89C260.55 961.8 289.01 933.35 324.11 933.35C331.74 933.35 337.93 927.17 337.93 919.54C337.93 911.91 331.74 905.73 324.11 905.73C273.75 905.73 232.92 946.55 232.92 996.89C232.92 1004.52 239.11 1010.7 246.74 1010.7C254.37 1010.7 260.56 1004.52 260.56 996.89H260.55Z" fill="#F7F7F7"/>
<path fill-rule="evenodd" clip-rule="evenodd" d="M337.92 994.52C330.29 994.52 324.1 1000.7 324.1 1008.33C324.1 1015.96 330.29 1022.14 337.92 1022.14C345.55 1022.14 351.74 1015.96 351.74 1008.33C351.74 1000.7 345.55 994.52 337.92 994.52Z" fill="#F7F7F7"/>
<path fill-rule="evenodd" clip-rule="evenodd" d="M599.65 391.5C607.28 391.5 613.47 397.68 613.47 405.31C613.47 412.94 607.28 419.12 599.65 419.12C592.02 419.12 585.83 412.94 585.83 405.31C585.83 397.68 592.02 391.5 599.65 391.5Z" fill="#F7F7F7"/>
<path fill-rule="evenodd" clip-rule="evenodd" d="M599.65 354.79C607.28 354.79 613.47 360.97 613.47 368.6C613.47 376.23 607.28 382.41 599.65 382.41C592.02 382.41 585.83 376.23 585.83 368.6C585.83 360.97 592.02 354.79 599.65 354.79Z" fill="#F7F7F7"/>
<path fill-rule="evenodd" clip-rule="evenodd" d="M511.22 580.53C518.85 580.53 525.04 586.71 525.04 594.34C525.04 601.97 518.85 608.15 511.22 608.15C503.59 608.15 497.4 601.97 497.4 594.34C497.4 586.71 503.59 580.53 511.22 580.53Z" fill="#F7F7F7"/>
<path fill-rule="evenodd" clip-rule="evenodd" d="M677.03 579.74C684.66 579.74 690.85 585.92 690.85 593.55C690.85 601.18 684.66 607.36 677.03 607.36C669.4 607.36 663.21 601.18 663.21 593.55C663.21 585.92 669.4 579.74 677.03 579.74Z" fill="#F7F7F7"/>
<path fill-rule="evenodd" clip-rule="evenodd" d="M131.46 425.78C131.46 441.39 144.2 454.19 160.11 454.19C176.02 454.19 188.75 441.39 188.75 425.78C188.75 369.05 234.94 323.22 291.74 323.22C299.37 323.22 305.56 329.41 305.56 337.06C305.56 344.71 299.37 350.9 291.74 350.9C250.04 350.9 216.39 384.51 216.39 425.79C216.39 456.85 191.11 481.88 160.11 481.88C129.11 481.88 103.83 456.85 103.83 425.79C103.83 418.15 110.02 411.95 117.65 411.95C125.28 411.95 131.47 418.14 131.47 425.79L131.46 425.78Z" fill="#F7F7F7"/>
<path fill-rule="evenodd" clip-rule="evenodd" d="M291.76 351.24C333.7 351.24 367.46 384.77 367.46 425.83C367.46 433.46 373.66 439.64 381.31 439.64C388.96 439.64 395.16 433.46 395.16 425.83C395.16 369.24 348.73 323.61 291.76 323.61C284.11 323.61 277.91 329.79 277.91 337.42C277.91 345.05 284.11 351.23 291.76 351.23V351.24Z" fill="#F7F7F7"/>
<path fill-rule="evenodd" clip-rule="evenodd" d="M305.55 337.43C305.55 345.06 299.36 351.24 291.73 351.24C284.1 351.24 277.91 345.06 277.91 337.43C277.91 329.8 284.1 323.62 291.73 323.62C299.36 323.62 305.55 329.8 305.55 337.43Z" fill="#F7F7F7"/>
<path fill-rule="evenodd" clip-rule="evenodd" d="M208.04 525.28C208.04 517.65 214.24 511.47 221.88 511.47H281.84C289.48 511.47 295.68 517.65 295.68 525.28C295.68 532.91 289.48 539.09 281.84 539.09H221.88C214.24 539.09 208.04 532.91 208.04 525.28Z" fill="#F7F7F7"/>
<path fill-rule="evenodd" clip-rule="evenodd" d="M130.29 751.84C181.72 751.84 223.41 793.52 223.41 844.94C223.41 852.58 229.6 858.77 237.24 858.77C244.88 858.77 251.07 852.58 251.07 844.94C251.07 778.25 196.99 724.19 130.28 724.19C122.64 724.19 116.45 730.38 116.45 738.02C116.45 745.66 122.64 751.85 130.28 751.85L130.29 751.84Z" fill="#F7F7F7"/>
<path d="M159.88 296.78C167.51 296.78 173.7 302.98 173.7 310.62V427.78C173.7 435.42 167.51 441.62 159.88 441.62C152.25 441.62 146.06 435.42 146.06 427.78V310.62C146.06 302.98 152.25 296.78 159.88 296.78Z" fill="#F7F7F7"/>
<path fill-rule="evenodd" clip-rule="evenodd" d="M130.27 724.19C122.64 724.19 116.45 730.37 116.45 738C116.45 745.63 122.64 751.81 130.27 751.81C137.9 751.81 144.09 745.63 144.09 738C144.09 730.37 137.9 724.19 130.27 724.19Z" fill="#F7F7F7"/>
<path fill-rule="evenodd" clip-rule="evenodd" d="M130.17 324.5C135.57 329.89 135.57 338.64 130.17 344.03C124.77 349.42 116.03 349.42 110.63 344.03C105.23 338.64 105.23 329.89 110.63 324.5C116.03 319.11 124.77 319.11 130.17 324.5Z" fill="#F7F7F7"/>
<path fill-rule="evenodd" clip-rule="evenodd" d="M88.72 418.43C94.12 423.82 94.12 432.57 88.72 437.96C83.32 443.35 74.58 443.35 69.18 437.96C63.78 432.57 63.78 423.82 69.18 418.43C74.58 413.04 83.32 413.04 88.72 418.43Z" fill="#F7F7F7"/>
<path fill-rule="evenodd" clip-rule="evenodd" d="M429.11 1061.62C421.48 1061.62 415.29 1055.44 415.29 1047.81V1003.61C415.29 995.98 421.48 989.8 429.11 989.8C436.74 989.8 442.93 995.98 442.93 1003.61V1047.81C442.93 1055.44 436.74 1061.62 429.11 1061.62Z" fill="#F7F7F7"/>
<path fill-rule="evenodd" clip-rule="evenodd" d="M800.59 621.97C800.59 629.6 794.42 635.78 786.8 635.78H747.27C739.65 635.78 733.48 629.6 733.48 621.97C733.48 614.34 739.65 608.16 747.27 608.16H786.8C794.42 608.16 800.59 614.34 800.59 621.97Z" fill="#F7F7F7"/>
<path fill-rule="evenodd" clip-rule="evenodd" d="M789.54 555.67C781.91 555.67 775.72 549.48 775.72 541.84V432.15C775.72 424.51 781.91 418.32 789.54 418.32C797.17 418.32 803.36 424.51 803.36 432.15V541.84C803.36 549.48 797.17 555.67 789.54 555.67Z" fill="#F7F7F7"/>
<path fill-rule="evenodd" clip-rule="evenodd" d="M20.92 1061.62C13.29 1061.62 7.09998 1055.44 7.09998 1047.81V984.27C7.09998 976.64 13.29 970.46 20.92 970.46C28.55 970.46 34.74 976.64 34.74 984.27V1047.81C34.74 1055.44 28.55 1061.62 20.92 1061.62Z" fill="#F7F7F7"/>
<path fill-rule="evenodd" clip-rule="evenodd" d="M803.35 428.59C803.35 436.22 797.16 442.4 789.53 442.4C781.9 442.4 775.71 436.22 775.71 428.59C775.71 420.96 781.9 414.78 789.53 414.78C797.16 414.78 803.35 420.96 803.35 428.59Z" fill="#F7F7F7"/>
<path fill-rule="evenodd" clip-rule="evenodd" d="M94.7 468.83C94.7 492.19 113.64 511.12 137.01 511.12C144.63 511.12 150.81 517.29 150.81 524.91C150.81 532.53 144.63 538.7 137.01 538.7C98.41 538.7 67.11 507.42 67.11 468.82C67.11 461.2 73.29 455.03 80.91 455.03C88.53 455.03 94.71 461.2 94.71 468.82L94.7 468.83Z" fill="#F7F7F7"/>
<path fill-rule="evenodd" clip-rule="evenodd" d="M127.21 534.66C121.81 529.27 121.81 520.52 127.21 515.13C132.61 509.74 141.35 509.74 146.75 515.13C152.15 520.52 152.15 529.27 146.75 534.66C141.35 540.05 132.61 540.05 127.21 534.66Z" fill="#F7F7F7"/>
<path fill-rule="evenodd" clip-rule="evenodd" d="M531.36 260.87C531.36 212.05 491.77 172.47 442.93 172.47C435.3 172.47 429.11 166.29 429.11 158.66C429.11 151.03 435.3 144.85 442.93 144.85C507.03 144.85 558.99 196.8 558.99 260.88C558.99 268.51 552.8 274.69 545.17 274.69C537.54 274.69 531.35 268.51 531.35 260.88L531.36 260.87Z" fill="#F7F7F7"/>
<path fill-rule="evenodd" clip-rule="evenodd" d="M452.7 148.88C458.1 154.27 458.1 163.02 452.7 168.41C447.3 173.8 438.56 173.8 433.16 168.41C427.76 163.02 427.76 154.27 433.16 148.88C438.56 143.49 447.3 143.49 452.7 148.88Z" fill="#F7F7F7"/>
<path fill-rule="evenodd" clip-rule="evenodd" d="M452.7 109.81C458.1 115.21 458.1 123.95 452.7 129.34C447.3 134.74 438.56 134.74 433.16 129.34C427.76 123.95 427.76 115.2 433.16 109.81C438.56 104.41 447.3 104.41 452.7 109.81Z" fill="#F7F7F7"/>
<path fill-rule="evenodd" clip-rule="evenodd" d="M504.56 17.39C504.56 83.62 558.26 137.3 624.5 137.3C632.14 137.3 638.34 143.49 638.34 151.14C638.34 158.79 632.14 164.98 624.5 164.98C542.97 164.98 476.88 98.91 476.88 17.4C476.88 9.76 483.08 3.56 490.72 3.56C498.36 3.56 504.56 9.76 504.56 17.4V17.39Z" fill="#F7F7F7"/>
<path fill-rule="evenodd" clip-rule="evenodd" d="M159.81 296.78C167.44 296.74 173.66 302.89 173.7 310.52C173.74 318.15 167.58 324.36 159.95 324.4C152.32 324.44 146.1 318.29 146.06 310.66C146.02 303.03 152.18 296.82 159.81 296.78Z" fill="#F7F7F7"/>
<path fill-rule="evenodd" clip-rule="evenodd" d="M19.67 170.49C27.3 170.45 33.52 176.6 33.56 184.23C33.6 191.86 27.44 198.07 19.81 198.11C12.18 198.15 5.95999 192 5.91999 184.37C5.87999 176.74 12.04 170.53 19.67 170.49Z" fill="#F7F7F7"/>
<path fill-rule="evenodd" clip-rule="evenodd" d="M20.85 296.78C28.48 296.74 34.7 302.89 34.74 310.52C34.78 318.15 28.62 324.36 20.99 324.4C13.36 324.44 7.13999 318.29 7.09999 310.66C7.05999 303.03 13.22 296.82 20.85 296.78Z" fill="#F7F7F7"/>
<path fill-rule="evenodd" clip-rule="evenodd" d="M57.57 296.78C65.2 296.74 71.42 302.89 71.46 310.52C71.5 318.15 65.34 324.36 57.71 324.4C50.08 324.44 43.86 318.29 43.82 310.66C43.78 303.03 49.94 296.82 57.57 296.78Z" fill="#F7F7F7"/>
<path d="M456.75 24.48V79.31C456.75 86.94 450.56 93.13 442.93 93.13C435.3 93.13 429.11 86.94 429.11 79.31V24.48C429.11 16.85 435.3 10.66 442.93 10.66C450.56 10.66 456.75 16.85 456.75 24.48Z" fill="#F7F7F7"/>
<path fill-rule="evenodd" clip-rule="evenodd" d="M490.7 3.54999C498.33 3.54999 504.52 9.73999 504.52 17.36C504.52 24.98 498.33 31.17 490.7 31.17C483.07 31.17 476.88 24.98 476.88 17.36C476.88 9.73999 483.07 3.54999 490.7 3.54999Z" fill="#F7F7F7"/>
<path fill-rule="evenodd" clip-rule="evenodd" d="M122.97 161.45C110.24 161.45 99.91 171.77 99.91 184.5C99.91 197.23 110.23 207.55 122.97 207.55C135.71 207.55 146.03 197.23 146.03 184.5C146.03 176.86 152.22 170.67 159.86 170.67C167.5 170.67 173.69 176.86 173.69 184.5C173.69 212.51 150.98 235.21 122.96 235.21C94.94 235.21 72.23 212.51 72.23 184.5C72.23 156.49 94.94 133.79 122.96 133.79C130.6 133.79 136.79 139.99 136.79 147.62C136.79 155.25 130.6 161.45 122.96 161.45H122.97Z" fill="#F7F7F7"/>
<path d="M27.67 90.35C27.67 103.04 37.99 113.32 50.73 113.32C63.47 113.32 73.79 103.04 73.79 90.35C73.79 82.74 79.98 76.57 87.62 76.57C95.26 76.57 101.45 82.75 101.45 90.35C101.45 118.27 78.74 140.89 50.72 140.89C22.7 140.89 0 118.27 0 90.35C0 82.74 6.19 76.57 13.83 76.57C21.47 76.57 27.66 82.75 27.66 90.35H27.67Z" fill="#F7F7F7"/>
<path fill-rule="evenodd" clip-rule="evenodd" d="M159.88 169.7C167.51 169.7 173.7 175.88 173.7 183.51C173.7 191.14 167.51 197.32 159.88 197.32C152.25 197.32 146.06 191.14 146.06 183.51C146.06 175.88 152.25 169.7 159.88 169.7Z" fill="#F7F7F7"/>
<path fill-rule="evenodd" clip-rule="evenodd" d="M87.64 75.77C95.27 75.77 101.46 81.96 101.46 89.58C101.46 97.2 95.27 103.39 87.64 103.39C80.01 103.39 73.82 97.2 73.82 89.58C73.82 81.96 80.01 75.77 87.64 75.77Z" fill="#F7F7F7"/>
<path fill-rule="evenodd" clip-rule="evenodd" d="M159.88 132.6C167.51 132.6 173.7 138.79 173.7 146.41C173.7 154.03 167.51 160.22 159.88 160.22C152.25 160.22 146.06 154.04 146.06 146.41C146.06 138.78 152.25 132.6 159.88 132.6Z" fill="#F7F7F7"/>
<path fill-rule="evenodd" clip-rule="evenodd" d="M159.88 95.9C167.51 95.9 173.7 102.09 173.7 109.71C173.7 117.33 167.51 123.52 159.88 123.52C152.25 123.52 146.06 117.33 146.06 109.71C146.06 102.09 152.25 95.9 159.88 95.9Z" fill="#F7F7F7"/>
<path fill-rule="evenodd" clip-rule="evenodd" d="M50.14 74.59C57.77 74.59 63.96 80.78 63.96 88.4C63.96 96.02 57.77 102.21 50.14 102.21C42.51 102.21 36.32 96.02 36.32 88.4C36.32 80.78 42.51 74.59 50.14 74.59Z" fill="#F7F7F7"/>
<path fill-rule="evenodd" clip-rule="evenodd" d="M50.14 37.89C57.77 37.89 63.96 44.08 63.96 51.7C63.96 59.32 57.77 65.51 50.14 65.51C42.51 65.51 36.32 59.32 36.32 51.7C36.32 44.08 42.51 37.89 50.14 37.89Z" fill="#F7F7F7"/>
<path fill-rule="evenodd" clip-rule="evenodd" d="M50.14 0.789978C57.77 0.789978 63.96 6.97998 63.96 14.6C63.96 22.22 57.77 28.41 50.14 28.41C42.51 28.41 36.32 22.22 36.32 14.6C36.32 6.97998 42.5 0.789978 50.14 0.789978Z" fill="#F7F7F7"/>
<path fill-rule="evenodd" clip-rule="evenodd" d="M296.47 51.3C296.47 58.92 290.28 65.11 282.65 65.11C275.02 65.11 268.83 58.92 268.83 51.3C268.83 43.68 275.02 37.49 282.65 37.49C290.28 37.49 296.47 43.68 296.47 51.3Z" fill="#F7F7F7"/>
</g>
<defs>
<clipPath id="clip0_42_1208">
<rect width="803.35" height="1061.62" fill="white"/>
</clipPath>
</defs>
</svg>
