<svg width="110" height="110" viewBox="0 0 110 110" fill="none" xmlns="http://www.w3.org/2000/svg">
<circle cx="55" cy="55" r="55" fill="#EAEEFC"/>
<rect x="36" y="36" width="38" height="38" rx="9" fill="#EAEEFC" stroke="#3363F2" stroke-width="2"/>
<path d="M51.375 55.5C50.6589 55.5 49.9671 55.5936 49.2998 55.7808C48.6325 55.9679 48.0099 56.2284 47.4321 56.562C46.8543 56.8957 46.3294 57.3026 45.8574 57.7827C45.3854 58.2629 44.9785 58.7918 44.6367 59.3696C44.2949 59.9474 44.0304 60.57 43.8433 61.2373C43.6561 61.9046 43.5625 62.5964 43.5625 63.3125H42C42 62.3441 42.1424 61.4082 42.4272 60.5049C42.7121 59.6016 43.123 58.7633 43.6602 57.9902C44.1973 57.2171 44.832 56.5376 45.5645 55.9517C46.2969 55.3657 47.127 54.8978 48.0547 54.5479C47.1188 53.9375 46.3986 53.1807 45.894 52.2773C45.3895 51.374 45.1331 50.3649 45.125 49.25C45.125 48.3874 45.2878 47.5776 45.6133 46.8208C45.9388 46.064 46.3823 45.4007 46.9438 44.8311C47.5054 44.2614 48.1686 43.8138 48.9336 43.4883C49.6986 43.1628 50.5124 43 51.375 43C52.2376 43 53.0474 43.1628 53.8042 43.4883C54.561 43.8138 55.2243 44.2573 55.7939 44.8188C56.3636 45.3804 56.8112 46.0436 57.1367 46.8086C57.4622 47.5736 57.625 48.3874 57.625 49.25C57.625 49.7871 57.5599 50.312 57.4297 50.8247C57.2995 51.3374 57.1042 51.8216 56.8438 52.2773C56.5833 52.7331 56.2782 53.1522 55.9282 53.5347C55.5783 53.9172 55.1673 54.2549 54.6953 54.5479C55.1429 54.7188 55.5701 54.9263 55.9771 55.1704C56.384 55.4146 56.7786 55.6872 57.1611 55.9883C56.5996 56.1836 56.0584 56.4359 55.5376 56.7451C55.2935 56.5498 55.0005 56.3748 54.6587 56.2202C54.3169 56.0656 53.9507 55.9354 53.5601 55.8296C53.1694 55.7238 52.7829 55.6424 52.4004 55.5854C52.0179 55.5285 51.6761 55.5 51.375 55.5ZM51.375 53.9375C52.026 53.9375 52.6364 53.8154 53.2061 53.5713C53.7757 53.3271 54.2721 52.9935 54.6953 52.5703C55.1185 52.1471 55.4521 51.6507 55.6963 51.0811C55.9404 50.5114 56.0625 49.901 56.0625 49.25C56.0625 48.6071 55.9404 48.0008 55.6963 47.4312C55.4521 46.8615 55.1185 46.3651 54.6953 45.9419C54.2721 45.5187 53.7716 45.181 53.1938 44.9287C52.616 44.6764 52.0098 44.5544 51.375 44.5625C50.724 44.5625 50.1136 44.6846 49.5439 44.9287C48.9743 45.1729 48.4779 45.5065 48.0547 45.9297C47.6315 46.3529 47.2979 46.8493 47.0537 47.4189C46.8096 47.9886 46.6875 48.599 46.6875 49.25C46.6875 49.901 46.8096 50.5114 47.0537 51.0811C47.2979 51.6507 47.6315 52.1471 48.0547 52.5703C48.4779 52.9935 48.9743 53.3271 49.5439 53.5713C50.1136 53.8154 50.724 53.9375 51.375 53.9375ZM65.5718 59.6016L62.0806 63.0928C62.2352 63.4264 62.3125 63.7601 62.3125 64.0938C62.3125 64.4193 62.2515 64.7244 62.1294 65.0093C62.0073 65.2941 61.8405 65.5423 61.6289 65.7539C61.4173 65.9655 61.1691 66.1323 60.8843 66.2544C60.5994 66.3765 60.2943 66.4375 59.9688 66.4375C59.6432 66.4375 59.3381 66.3765 59.0532 66.2544C58.7684 66.1323 58.5202 65.9655 58.3086 65.7539C58.097 65.5423 57.9302 65.2941 57.8081 65.0093C57.686 64.7244 57.625 64.4193 57.625 64.0938C57.625 63.7682 57.686 63.4631 57.8081 63.1782C57.9302 62.8934 58.097 62.6452 58.3086 62.4336C58.5202 62.222 58.7684 62.0552 59.0532 61.9331C59.3381 61.811 59.6432 61.75 59.9688 61.75C60.3024 61.75 60.6361 61.8273 60.9697 61.9819L64.4609 58.4907L65.5718 59.6016ZM59.9688 64.875C60.1803 64.875 60.3634 64.7977 60.5181 64.6431C60.6727 64.4884 60.75 64.3053 60.75 64.0938C60.75 63.8822 60.6727 63.6991 60.5181 63.5444C60.3634 63.3898 60.1803 63.3125 59.9688 63.3125C59.7572 63.3125 59.5741 63.3898 59.4194 63.5444C59.2648 63.6991 59.1875 63.8822 59.1875 64.0938C59.1875 64.3053 59.2648 64.4884 59.4194 64.6431C59.5741 64.7977 59.7572 64.875 59.9688 64.875ZM59.9688 58.625C59.2119 58.625 58.5039 58.7674 57.8447 59.0522C57.1855 59.3371 56.6077 59.7277 56.1113 60.2241C55.6149 60.7205 55.2243 61.2983 54.9395 61.9575C54.6546 62.6167 54.5081 63.3288 54.5 64.0938C54.5 64.6146 54.5732 65.1232 54.7197 65.6196C54.8662 66.116 55.0819 66.5881 55.3667 67.0356L54.1216 68C53.731 67.4141 53.438 66.7915 53.2427 66.1323C53.0474 65.4731 52.9456 64.7936 52.9375 64.0938C52.9375 63.1253 53.1206 62.2139 53.4868 61.3594C53.853 60.5049 54.3576 59.7603 55.0005 59.1255C55.6434 58.4907 56.388 57.9902 57.2344 57.624C58.0807 57.2578 58.9922 57.0706 59.9688 57.0625C60.4977 57.0625 61.0145 57.1235 61.519 57.2456C62.0236 57.3677 62.5119 57.5426 62.9839 57.7705L61.7876 58.9546C61.4946 58.8569 61.1976 58.7796 60.8965 58.7227C60.5954 58.6657 60.2861 58.6331 59.9688 58.625ZM66.292 61.0786C66.5199 61.5506 66.6948 62.0389 66.8169 62.5435C66.939 63.048 67 63.5648 67 64.0938C67 64.7855 66.9023 65.4609 66.707 66.1201C66.5117 66.7793 66.2147 67.4059 65.8159 68L64.5708 67.0356C64.8475 66.5962 65.0591 66.1283 65.2056 65.6318C65.3521 65.1354 65.4294 64.6227 65.4375 64.0938C65.4375 63.7845 65.409 63.4793 65.3521 63.1782C65.2951 62.8771 65.2137 62.576 65.1079 62.2749L66.292 61.0786Z" fill="#3363F2"/>
</svg>
