<svg width="17" height="14" viewBox="0 0 17 14" fill="none" xmlns="http://www.w3.org/2000/svg">
<path d="M13.9401 0.939973C14.2218 0.671751 14.5967 0.523467 14.9857 0.52641C15.3747 0.529353 15.7473 0.683294 16.025 0.955749C16.3026 1.2282 16.4636 1.59786 16.4738 1.98672C16.4841 2.37558 16.3429 2.75323 16.0801 3.03997L8.10007 13.02C7.96285 13.1678 7.79724 13.2864 7.61314 13.3687C7.42903 13.451 7.23021 13.4954 7.02857 13.4991C6.82693 13.5029 6.62661 13.4659 6.43958 13.3904C6.25256 13.315 6.08267 13.2026 5.94007 13.06L0.648071 7.76797C0.500697 7.63065 0.382493 7.46505 0.300509 7.28105C0.218525 7.09705 0.174441 6.89842 0.170888 6.69702C0.167334 6.49561 0.204384 6.29555 0.279826 6.10878C0.355268 5.922 0.467557 5.75233 0.609995 5.6099C0.752432 5.46746 0.9221 5.35517 1.10888 5.27973C1.29565 5.20429 1.49571 5.16724 1.69712 5.17079C1.89852 5.17434 2.09715 5.21843 2.28115 5.30041C2.46515 5.3824 2.63075 5.5006 2.76807 5.64797L6.95607 9.83397L13.9021 0.983974C13.9146 0.968575 13.9279 0.953885 13.9421 0.939973H13.9401Z" fill="#2150DF"/>
</svg>
